<svg width="125" height="147" viewBox="0 0 125 147" fill="none" xmlns="http://www.w3.org/2000/svg">
<path d="M50.7609 0H52.9057L53.9781 0.476097L55.0505 1.66634L56.0038 3.33268L56.957 5.11804L57.672 6.90341L58.7444 10.2361L59.3402 13.3307L59.5785 15.4731V16.5444L62.4382 15.1161L64.2256 14.64L65.7746 14.4019H67.3237L69.4685 14.759L70.8984 15.4731L71.4942 16.0683L72.5666 15.8302L73.7581 15.5922L75.0689 15.4731H78.8819L81.1459 15.7112L83.4099 16.1873L89.2486 17.0205H92.2275L93.6574 16.7824L94.3723 16.5444L94.9681 16.6634L95.3256 16.9014L95.2064 17.9727L94.3723 19.4009L93.1807 20.9483L91.6317 22.2575L89.9635 23.2097L89.2486 23.4478L89.7252 23.9239L92.8233 25.4712L95.2064 26.8995L96.8746 27.9707L99.0194 29.518L100.926 31.0653L101.879 31.8985L103.547 33.3268L106.407 36.1834L107.48 37.4926L108.552 38.6829L110.339 41.0634L112.246 43.9199L113.199 45.5863L114.867 48.6809L116.178 51.5375L118.085 57.0126L118.919 60.3453L119.634 64.1541L119.991 67.4867L120.11 72.3667L119.991 76.0565L119.514 80.1033L118.561 84.8643L117.965 87.1257L117.37 88.673L117.608 89.3872L118.919 91.1726L120.349 93.553L121.302 95.4574L122.255 97.4808L123.566 101.171L124.281 104.265L124.757 107.955V111.764L124.281 113.906L123.447 115.573L122.136 117.001L121.302 117.596L119.753 118.072H117.489L115.94 117.596L114.748 116.763L113.676 115.453L113.437 114.977L112.484 114.501L111.531 113.43L111.293 112.716L111.173 111.288L111.412 109.978L112.127 108.669L112.008 107.717L110.578 104.384L110.101 103.551L109.267 104.265L108.075 105.813L106.884 107.241L106.05 108.193L105.216 109.026L104.381 109.978L102.356 112.002L101.403 112.835L100.092 114.025L96.9938 116.406L94.9681 117.834L93.0616 119.024L89.0102 121.405V125.094L88.5336 129.855L88.1761 132.355L87.4612 135.45L86.7463 137.83V138.187L87.9378 138.782L89.2486 139.853L89.9635 141.044L90.4401 142.353L90.321 143.424L89.7252 144.495L89.0102 145.091L87.5804 145.686L86.1505 146.043L84.7206 146.162H82.2183L80.0735 145.924L77.2137 144.972L75.903 144.257L74.9497 143.424L74.3539 142.353L74.2348 141.877L74.1156 134.021L73.8773 129.736L73.5198 126.88L67.9195 127.594L64.9405 127.832L62.0808 127.951H59.221L54.9314 127.713L51.8333 127.356V128.546L51.4758 132.712L51.3566 134.854L51.2375 142.591L50.5225 143.662L49.9268 144.257L48.9735 144.852L47.3053 145.567L45.6371 146.043L44.0881 146.281L41.1091 146.4L38.3685 146.162L36.9387 145.686L35.6279 144.733L35.1513 143.9L35.0321 142.829L35.2705 141.758L36.462 140.092L37.4153 139.258L38.726 138.544L38.6068 137.473L37.5344 133.545L36.9387 129.617L36.7003 127.237L36.5812 122.952L34.7938 122.119L32.0532 120.81L29.3126 119.262L26.4528 117.477L24.308 115.93L22.4015 114.382L21.3291 113.549L19.7801 112.121L18.8268 111.288L17.1586 109.621L16.3245 108.669L14.8946 107.003L13.5839 105.217L13.4647 104.979H13.2264L12.3923 108.074V108.907L13.3456 110.216L13.8222 111.526L13.9414 112.597L13.703 114.144L12.869 115.334L12.3923 115.573L11.5582 117.239L10.9624 117.953L9.4134 119.024L8.22183 119.5L7.62604 119.619H5.71953L4.64712 119.381L3.21724 118.548L2.38314 117.834L1.6682 116.882L0.834099 115.453L0.238314 113.43L0 111.05V108.907L0.238314 104.979L0.714942 101.885L1.19157 100.099L2.5023 96.2906L3.45555 94.3862L4.52796 92.3628L5.48122 91.0535L5.36206 90.1013L4.40881 87.2448L3.81302 84.8643L3.09808 81.2935L2.62145 76.7706L2.5023 75.3423V69.9862L2.97892 64.9872L3.33639 62.7258L4.28965 58.4409L5.71953 54.156L6.67279 51.6565L8.10267 48.6809L9.65171 45.8243L10.9624 43.6819L11.9157 42.3726L13.1073 40.7063L14.418 39.0399L15.8479 37.3736L16.682 36.4214L17.2778 35.8263L18.231 34.7551L19.1843 33.9219L20.0184 33.0887L21.2099 32.1365L22.6398 30.9463L24.308 29.7561L24.5463 29.637V29.28L22.5207 28.3278L20.8525 27.0185L19.7801 25.9473L18.946 24.4V23.4478L19.1843 23.0907L20.2567 23.2097L21.2099 23.4478L22.4015 23.5668H24.1889L26.3337 23.2097L28.5977 22.6146L30.6233 21.9005L35.5088 20.2341L37.5344 19.758L39.3218 19.52L41.7049 19.4009L42.1816 18.9249L42.8965 17.9727L44.5647 16.9014L46.1137 16.4253L47.067 16.3063H49.6884L51.4758 16.5444L52.6674 17.0205L52.4291 15.9492L51.595 14.0449L50.7609 12.7356L49.6884 11.4263L48.616 10.2361L47.5436 9.16487L46.4712 8.3317L45.6371 7.61755L45.0413 6.66536V5.47511L45.8754 3.4517L46.7095 2.38048L47.6628 1.42829L48.9735 0.595121L50.1651 0.119024L50.7609 0Z" fill="#E54337"/>
<path d="M50.7609 0H52.9057L53.9781 0.476097L55.0505 1.66634L56.0038 3.33268L56.957 5.11804L57.672 6.90341L58.7444 10.2361L59.3402 13.3307L59.5785 15.4731V16.5444L62.4382 15.1161L64.2256 14.64L65.7746 14.4019H67.3237L69.4685 14.759L70.8984 15.4731L71.4942 16.0683L72.5666 15.8302L73.7581 15.5922L75.0689 15.4731H78.8819L81.1459 15.7112L83.4099 16.1873L89.2486 17.0205H92.2275L93.6574 16.7824L94.3723 16.5444L94.9681 16.6634L95.3256 16.9014L95.2064 17.9727L94.3723 19.4009L93.1807 20.9483L91.6317 22.2575L89.9635 23.2097L89.2486 23.4478L89.7252 23.9239L92.8233 25.4712L95.2064 26.8995L96.8746 27.9707L99.0194 29.518L100.926 31.0653L101.879 31.8985L103.547 33.3268L106.407 36.1834L107.48 37.4926L108.552 38.6829L110.339 41.0634L112.246 43.9199L113.199 45.5863L114.867 48.6809L116.178 51.5375L118.085 57.0126L118.919 60.3453L119.634 64.1541L119.991 67.4867L120.11 72.3667L119.991 76.0565L119.514 80.1033L118.561 84.8643L117.965 87.1257L117.37 88.673L117.608 89.3872L118.919 91.1726L120.349 93.553L121.302 95.4574L122.255 97.4808L123.566 101.171L124.281 104.265L124.757 107.955V111.764L124.281 113.906L123.447 115.573L122.136 117.001L121.302 117.596L119.753 118.072H117.489L115.94 117.596L114.748 116.763L113.676 115.453L113.437 114.977L112.484 114.501L111.531 113.43L111.293 112.716L111.173 111.288L111.412 109.978L112.127 108.669L112.008 107.717L110.578 104.384L110.101 103.551L109.267 104.265L108.075 105.813L106.884 107.241L106.05 108.193L105.216 109.026L104.381 109.978L102.356 112.002L101.403 112.835L100.092 114.025L96.9938 116.406L94.9681 117.834L93.0616 119.024L89.0102 121.405V125.094L88.5336 129.855L88.1761 132.355L87.4612 135.45L86.7463 137.83V138.187L87.9378 138.782L89.2486 139.853L89.9635 141.044L90.4401 142.353L90.321 143.424L89.7252 144.495L89.0102 145.091L87.5804 145.686L86.1505 146.043L84.7206 146.162H82.2183L80.0735 145.924L77.2137 144.972L75.903 144.257L74.9497 143.424L74.3539 142.353L74.2348 141.877L74.1156 134.021L73.8773 129.736L73.5198 126.88L67.9195 127.594L64.9405 127.832L62.0808 127.951H59.221L54.9314 127.713L51.8333 127.356V128.546L51.4758 132.712L51.3566 134.854L51.2375 142.591L50.5225 143.662L49.9268 144.257L48.9735 144.852L47.3053 145.567L45.6371 146.043L44.0881 146.281L41.1091 146.4L38.3685 146.162L36.9387 145.686L35.6279 144.733L35.1513 143.9L35.0321 142.829L35.2705 141.758L36.462 140.092L37.4153 139.258L38.726 138.544L38.6068 137.473L37.5344 133.545L36.9387 129.617L36.7003 127.237L36.5812 122.952L34.7938 122.119L32.0532 120.81L29.3126 119.262L26.4528 117.477L24.308 115.93L22.4015 114.382L21.3291 113.549L19.7801 112.121L18.8268 111.288L17.1586 109.621L16.3245 108.669L14.8946 107.003L13.5839 105.217L13.4647 104.979H13.2264L12.3923 108.074V108.907L13.3456 110.216L13.8222 111.526L13.9414 112.597L13.703 114.144L12.869 115.334L12.3923 115.573L11.5582 117.239L10.9624 117.953L9.4134 119.024L8.22183 119.5L7.62604 119.619H5.71953L4.64712 119.381L3.21724 118.548L2.38314 117.834L1.6682 116.882L0.834099 115.453L0.238314 113.43L0 111.05V108.907L0.238314 104.979L0.714942 101.885L1.19157 100.099L2.5023 96.2906L3.45555 94.3862L4.52796 92.3628L5.48122 91.0535L5.36206 90.1013L4.40881 87.2448L3.81302 84.8643L3.09808 81.2935L2.62145 76.7706L2.5023 75.3423V69.9862L2.97892 64.9872L3.33639 62.7258L4.28965 58.4409L5.71953 54.156L6.67279 51.6565L8.10267 48.6809L9.65171 45.8243L10.9624 43.6819L11.9157 42.3726L13.1073 40.7063L14.418 39.0399L15.8479 37.3736L16.682 36.4214L17.2778 35.8263L18.231 34.7551L19.1843 33.9219L20.0184 33.0887L21.2099 32.1365L22.6398 30.9463L24.308 29.7561L24.5463 29.637V29.28L22.5207 28.3278L20.8525 27.0185L19.7801 25.9473L18.946 24.4V23.4478L19.1843 23.0907L20.2567 23.2097L21.2099 23.4478L22.4015 23.5668H24.1889L26.3337 23.2097L28.5977 22.6146L30.6233 21.9005L35.5088 20.2341L37.5344 19.758L39.3218 19.52L41.7049 19.4009L42.1816 18.9249L42.8965 17.9727L44.5647 16.9014L46.1137 16.4253L47.067 16.3063H49.6884L51.4758 16.5444L52.6674 17.0205L52.4291 15.9492L51.595 14.0449L50.7609 12.7356L49.6884 11.4263L48.616 10.2361L47.5436 9.16487L46.4712 8.3317L45.6371 7.61755L45.0413 6.66536V5.47511L45.8754 3.4517L46.7095 2.38048L47.6628 1.42829L48.9735 0.595121L50.1651 0.119024L50.7609 0ZM85.793 24.4L84.244 24.757L79.1202 25.5902L75.6647 26.0663L74.8306 26.3044L75.0689 26.7805L76.8562 28.3278L78.4053 29.8751L79.2394 30.8273L80.5501 32.1365L81.3842 33.0887L81.98 33.5648L82.4566 34.279L83.0524 34.7551L83.529 35.3502L84.0056 35.7073H84.3631V35.9453H84.7206V36.1834L85.6738 36.6595H86.0313V37.4926L85.793 37.8497L84.7206 38.3258L82.2183 38.5639H78.7627L76.0221 38.2068L73.2815 37.4926L70.3026 36.4214L67.3237 35.1121L61.3658 32.1365L58.8635 30.9463L58.0294 31.1843L57.0762 32.0175L55.6463 33.4458L54.0973 34.6361L52.5482 35.7073L50.5225 37.0165L48.8544 37.9687L45.7563 39.516L44.2072 40.1112L39.9176 41.5395L37.6536 42.1346L35.6279 42.4916L34.913 42.1346L35.0321 41.5395L35.8662 40.3492L37.6536 36.8975L39.2026 34.0409L40.5134 31.6604L41.4666 30.2322V29.9941L36.3429 30.2322L34.7938 30.3512H29.4318L27.4061 30.2322L25.3804 31.1843L24.1889 31.8985L23.7122 32.2556V32.4936L23.1164 32.7317L21.0908 34.6361L20.1375 35.4692L20.0184 35.9453L19.5417 36.1834L18.4693 37.3736L17.8735 37.9687L16.8011 39.159V39.397L16.3245 39.6351L15.967 40.1112V40.3492L15.6096 40.4682L14.6563 41.7775L14.5371 42.1346L14.0605 42.3726L12.9881 43.9199L11.7965 45.8243L11.0816 47.0146L10.2475 48.919L9.29424 50.8233L8.5793 52.3707L7.26857 55.5843L6.31532 58.798L5.36206 62.8448L4.76628 66.7726L4.52796 69.6292V75.3423L4.88544 79.2701L5.36206 82.2457L5.95785 85.2213L6.55363 87.7209L7.03026 88.7921L7.7452 88.316L8.5793 87.3638L8.69846 87.0067H8.93677L9.53256 86.1735L10.4858 85.3404L11.5582 85.2213H11.7965L11.5582 86.1735L9.89003 87.9589L8.93677 89.1491L7.7452 90.4584L6.19616 92.6008L5.71953 93.315L5.60038 94.0291H5.36206L4.52796 95.6955L3.93218 97.2428L3.09808 99.3852L2.5023 101.409L1.90651 104.979L1.78735 105.932L1.6682 106.051L1.54904 107.717V111.526L1.90651 113.549H2.14482L2.38314 115.096L3.21724 116.644L4.17049 117.477L5.12375 117.953L5.95785 118.191H7.26857L8.81761 117.715L9.17509 117.477V117.239L9.65171 117.12L10.3667 116.049L10.8433 114.62L11.9157 113.549L12.154 112.002L11.7965 110.931L10.9624 109.74L10.7241 109.026L10.8433 107.598L11.3199 105.336L11.9157 103.432L12.9881 101.171L14.7755 98.7901L14.8946 98.433H15.1329L16.2053 97.1238L17.6352 95.9335L18.3502 95.5765L19.0651 95.6955L19.3034 96.0526L19.1843 96.7667L18.1119 97.8379L17.8735 97.9569V98.195L17.5161 98.314L16.682 99.2662L15.7287 100.099L14.6563 101.528L14.2988 102.242V103.075L15.7287 104.979L16.8011 106.289L17.1586 106.765H17.3969L17.6352 107.241L22.1632 111.764L22.8781 112.359H23.1164V112.597L24.4272 113.549L25.1421 113.906L25.6187 114.501L26.9295 115.453L27.5253 115.692L28.121 116.287L30.1467 117.596L30.7425 117.715L30.8617 118.072L33.6023 119.5L37.8919 121.405L41.9432 122.952L44.4455 123.785L47.6628 124.618L51.8333 125.452L55.5271 125.928L59.8168 126.166H62.7957L67.2045 125.928L70.7792 125.333L74.4731 124.618L77.9286 123.666L80.1926 122.833L83.6482 121.524L87.2229 119.976L89.7252 118.786L91.7509 117.596L94.6106 115.692L96.5171 114.263L97.3512 113.668V113.43L97.947 113.192L99.6152 111.764L100.092 111.407V111.169L100.568 110.931L104.143 107.36L104.977 106.408L106.05 105.217L107.599 103.194L109.982 99.8613L111.054 98.195L112.008 96.2906L113.08 93.9101L113.795 92.4818L115.344 88.554L116.178 86.0545L116.297 85.2213L116.535 84.7452L116.893 82.8409L117.608 79.1511L117.846 77.4848L117.965 77.3657L118.204 74.3901V68.796L117.965 66.0584L117.846 65.9394L117.25 62.1306L117.012 60.5833L116.893 60.4643L116.655 59.036H116.416L116.297 58.0838L115.701 55.8224L114.629 52.9658H114.391L114.272 52.3707L112.127 47.8477L111.173 45.8243L109.624 43.4438L109.386 42.8487L108.79 42.2536L107.599 40.7063L106.884 39.6351L106.288 39.159L105.692 38.4448L105.335 37.8497L104.143 36.7785L102.356 34.9931L101.998 34.398L101.283 33.8029L100.688 33.2078L100.211 32.6126H99.8535L99.7344 32.2556L99.3769 32.1365L99.1386 31.7795L97.8279 31.0653L95.2064 29.28L92.7041 27.7326L90.4401 26.4234L88.5336 25.3522L86.5079 24.4H85.793Z" fill="#591E12"/>
<path d="M41.1092 29.9944H41.4667L41.2283 30.5895L40.0368 32.4939L38.6069 35.2315L37.177 37.85L35.8663 40.3495L35.0322 41.5397L34.7939 42.1349H34.5555L34.6747 41.3017L34.7939 40.7066L34.4364 40.5875L34.3172 39.3973L34.6747 38.4451L35.1513 37.969L35.5088 36.7788L35.7471 35.9456V35.2315L35.5088 35.1124H34.3172L33.7214 34.9934L33.364 35.1124H32.5299L31.9341 34.9934H30.1467L29.3126 35.3505L28.4785 35.8266L27.5253 36.6597H27.287L27.1678 37.0168L26.6912 37.1358L26.572 37.4929H26.3337V37.85L25.8571 38.088L25.7379 38.4451H25.4996L25.2613 38.9212L24.6655 39.6353L24.0697 40.1114L23.8314 40.5875L23.2356 40.8256L23.1165 41.3017L22.8782 41.6588H22.6399L22.4015 42.3729L22.0441 42.849L21.0908 44.9914L20.7333 46.0627L20.495 47.4909L20.2567 48.5622L19.4226 48.6812L18.1119 48.3241H16.8012L16.682 48.6812L16.0862 49.0383L15.3713 49.9905H15.133V50.3475H14.8947L14.6563 51.8948L15.0138 52.9661V53.4422L15.3713 53.5612V53.7992H15.6096L15.7287 54.2753L16.2054 54.3944L17.6353 55.1085V55.3465L17.8736 55.4656L17.9927 56.1797L18.231 56.2987V56.6558H18.4694L18.5885 57.8461L18.4694 58.3222L18.5885 59.1553L18.7077 59.2743V60.1075L18.8268 60.5836L18.7077 61.1787L18.8268 62.488V63.9163L18.3502 64.3924V65.7017L18.5885 66.8919H18.8268L18.946 67.9631V70.1056L19.3035 71.5338V72.8431L19.7801 74.6285V74.8665H20.0184V76.7709L20.3759 77.247L20.6142 78.7943L20.9717 79.2704L21.21 80.2226L21.5674 81.0558L21.8058 81.7699L22.1632 81.889L22.4015 82.7221L22.6399 82.9602L23.1165 84.2694L23.5931 84.7455L23.8314 85.4597L24.0697 86.0548L24.3081 87.3641L24.5464 87.8402L25.2613 88.3163L25.7379 88.9114L26.0954 89.2685V89.5065H26.3337L26.8103 90.4587L26.9295 91.1728L27.5253 91.2919L28.0019 92.2441L28.4785 92.6011L28.5977 93.3153L29.3126 93.5533L30.3851 94.6245V94.9816H30.6234L31.6958 96.2909L32.0533 96.886V97.2431H32.4107L32.8874 97.9572V98.1953L33.4831 98.3143L34.3172 99.0284L34.5555 99.1475V99.3855L35.1513 99.6236L36.4621 100.695L37.177 101.409L37.5345 102.004L38.3686 102.361V102.599L38.726 102.718L39.2027 103.194L40.7517 104.027V104.266L41.2283 104.385L42.3008 105.218V105.456L42.7774 105.337L43.3732 105.813L44.0881 106.17L45.1605 106.765L46.5904 107.598L46.9479 107.717V107.955L48.3778 108.193L49.0927 108.788L50.2843 109.026L52.5482 109.86L54.2164 110.217L56.8379 111.05L59.6977 111.883L60.8892 112.002L62.5574 112.24L63.2724 112.359L64.9406 112.478L65.8938 112.716H67.2046L69.4685 112.24L70.7793 112.121L71.2559 112.002H72.2091L72.5666 111.883L75.903 111.764L77.6904 111.407H79.3586L80.7884 111.05L81.8609 110.812L83.1716 110.574L84.3632 110.455L84.8398 110.217L86.1505 110.098L86.6271 109.86H87.4612L88.8911 109.503L89.2486 109.384L89.8444 109.265L90.0827 109.026L90.7976 108.907L91.0359 108.193L91.5126 107.955L91.6317 108.312H92.2275V108.55L92.7041 108.431L93.4191 108.669L94.134 108.788L95.3256 108.669L95.5639 108.431L96.398 108.312L97.1129 108.074L98.0662 107.717L99.7344 106.765L100.33 106.289H100.568L100.688 105.932H100.926V105.694L101.879 104.98L102.713 104.146H102.952L103.19 103.67L103.667 103.194H103.905V102.956H104.143L104.382 102.48L105.811 100.933L107.003 99.7426L107.599 99.5045L107.837 99.0284L108.552 98.4333L110.578 98.3143L111.293 97.2431L112.246 95.1006L112.723 94.1484L112.842 94.5055L111.531 97.3621L110.339 99.3855L107.241 103.67L105.692 105.575L104.262 107.122L103.428 108.074L100.33 111.169H100.092L99.9727 111.526L98.662 112.597L97.5896 113.43H97.3513V113.668L95.4447 115.097L93.8957 116.168L92.1084 117.358L90.0827 118.548L88.2953 119.501L85.3164 120.81L83.0524 121.762L79.4777 123.071L77.452 123.785L74.4731 124.619L72.09 125.095L67.2046 125.928L62.7957 126.166H59.8168L55.5272 125.928L51.8333 125.452L47.1862 124.5L43.7306 123.547L40.2751 122.357L36.8195 120.929L32.8874 119.144L30.8617 118.072L30.7425 117.715L30.0276 117.477L28.1211 116.287L27.5253 115.692L26.9295 115.454L25.3805 114.264L25.023 113.787L24.4272 113.549L23.1165 112.597V112.359L22.6399 112.121L21.21 110.812L17.3969 107.003V106.765L17.0395 106.646L15.7287 104.98L14.5372 103.432L14.2989 103.075V102.242L15.0138 101.052L15.8479 99.9806L16.8012 99.1475L17.6353 98.1953H17.8736V97.9572L18.8268 97.1241L19.1843 96.767L19.3035 96.0528L18.8268 95.5767L18.1119 95.6958L17.0395 96.4099L15.8479 97.4811L15.133 98.4333H14.8947L14.6563 98.9094L13.7031 100.219L12.9881 101.171L11.7966 103.67L11.0816 106.289L10.7242 108.312V109.146L11.2008 110.098L11.9157 111.05L12.154 112.359L11.9157 113.549L11.2008 114.145L10.7242 114.859L10.3667 116.049L9.89006 116.763L9.53259 117.239H9.17512V117.477L8.22186 117.953L7.26861 118.191H5.95788L4.528 117.715L3.33643 116.763L2.62148 115.573L2.38317 115.097L2.14486 113.549H1.90654L1.54907 111.288V107.122L1.66823 106.051L1.78739 105.932L2.26401 102.718L2.74064 100.576L3.57474 98.0762L4.40884 96.1719L4.88547 94.8626L5.36209 94.0294H5.60041L5.83872 93.1963L6.79198 91.768L7.98355 90.2206L9.29427 88.7924L10.2475 87.6021L11.5583 86.1738L11.7966 85.2216H10.8433L10.2475 85.5787L9.53259 86.1738L8.9368 87.007H8.69849L8.46018 87.4831L7.74523 88.3163L7.03029 88.7924L6.55366 87.7211L5.95788 85.2216L5.60041 83.5553L5.12378 80.6987L4.76631 78.3182L4.528 75.3426V69.6295L4.88547 65.8207L5.36209 62.8451L6.31535 58.7982L7.26861 55.5846L8.34102 52.847L9.17512 51.0617L10.1284 49.0383L11.5583 46.1817L12.9881 43.9202L14.2989 42.1349H14.5372L14.7755 41.6588L15.7287 40.3495H15.9671L16.2054 39.8734L16.5628 39.3973H16.8012L17.0395 38.9212L18.231 37.4929L19.7801 35.9456H20.0184L20.1376 35.4695L21.0908 34.6363L22.1632 33.5651L23.474 32.4939H23.7123V32.2558L24.7847 31.5417L27.0487 30.3515L27.7636 30.2324L29.4318 30.3515H34.7939L41.1092 29.9944Z" fill="#C22E29"/>
<path d="M85.793 24.3999L86.8654 24.5189L88.7719 25.4711L91.7508 27.1375L94.4914 28.8038L98.0661 31.1843L99.2577 31.8984L99.3769 32.1365L99.8535 32.3745V32.6126L100.33 32.7316L100.926 33.4457L101.522 34.0409L102.237 34.636L102.594 35.2311L104.977 37.6116L105.573 38.0877L105.931 38.6828L106.407 39.2779L107.122 39.8731L107.718 40.8252L109.148 42.7296L109.505 42.9677L109.863 43.8009L111.293 46.0623L112.722 49.0379L114.391 52.6086V52.9657H114.629L115.821 56.1794L116.416 58.5599V59.036H116.655L116.893 60.4642L117.131 60.9403L117.846 65.9394L117.965 66.0584L118.204 68.7959V74.3901L117.965 77.3657L117.846 77.4847L117.131 81.7696L116.655 83.793L116.416 85.1023L115.94 86.2925L115.701 86.6496L115.582 86.4115L115.701 83.793L115.94 81.6506L116.059 80.8174L116.178 80.6984L116.297 78.3179L116.178 77.7228H116.416L116.297 76.8896L116.178 75.9374L116.416 75.3423H116.178L116.297 74.7472L116.178 73.795L116.297 72.1286L116.178 71.7715L116.059 69.6291L115.821 68.915L115.701 66.4155L115.463 65.7013L115.106 65.3442L114.629 65.2252L114.748 65.5823L114.271 67.0106L114.391 67.4867L114.033 67.9628L113.914 69.153L113.557 69.7481L113.437 70.9384L113.199 71.4145H112.961L112.842 72.0096L112.603 72.6047L112.365 73.6759L112.008 73.795L111.769 74.8662L111.888 75.3423L111.769 75.6993L111.412 76.0564L110.935 77.6037L110.816 78.3179L110.578 78.675L110.458 79.5081L109.982 80.6984L108.909 81.5315L108.194 82.3647H107.956L107.837 82.8408L106.169 83.674L105.096 83.793L103.071 84.2691L102.713 84.031L100.33 83.912L98.5428 83.674L97.5895 83.1979L97.3512 82.8408L96.6363 82.2457L95.9213 82.0076L95.683 82.2457V82.0076L95.3255 82.1267V81.7696H94.9681L94.4914 80.5793L94.134 80.2223V79.8652H93.8957V79.6271H93.6573L93.2999 78.3179V78.0798L92.7041 77.9608L91.9891 77.3657L92.2275 77.2467H93.5382L94.7298 77.1276V76.8896L95.8022 76.2945L96.6363 75.5803L97.4704 74.5091H97.7087L97.947 73.795L98.4236 72.4857L98.5428 72.1286H98.7811L98.9002 71.2954L99.2577 69.3911V66.5345L98.9002 64.154L98.3045 62.2496L97.3512 60.3452L96.8746 59.5121L96.0405 58.3218L95.2064 57.6077V57.3696L94.7298 57.2506L94.4914 57.1316V56.8935L93.8957 56.7745L92.8232 56.2984L92.3466 56.1794H90.5593L89.2485 56.6555L87.9378 57.6077L86.8654 59.036L85.9121 60.9403L85.5547 62.2496L85.3164 63.9159V67.7247L85.078 67.4867L84.9589 66.4155V63.6779L84.7206 63.4398L84.4823 62.2496L84.2439 61.6545L84.1248 60.8213L83.7673 60.5833L83.2907 60.7023V60.4642H83.0524L82.8141 59.9881L82.2183 59.7501V59.5121L81.6225 59.274L81.265 58.6789V58.4408H80.9075L80.5501 57.8457L80.1926 57.7267L79.5968 56.7745L79.001 56.5364L78.5244 55.5843L78.1669 54.6321L77.5712 54.0369L77.3328 52.9657L77.0945 52.6086V52.2516H76.7371L76.2604 51.2994L75.903 50.9423L75.6646 50.1091L75.4263 49.633V48.5618L74.8305 47.9667L74.5922 46.8955L74.3539 45.5862L74.1156 44.9911L74.2348 43.5628L74.1156 43.0867L74.3539 42.4916L74.7114 41.3013V40.9443V40.4682L75.5455 40.3491L78.6436 40.4682H79.9543L81.0267 40.2301H81.7416L81.8608 39.8731L82.0991 39.2779H83.4098L83.6482 38.8018L84.1248 38.4448L85.1972 38.0877L85.9121 37.7306L86.0313 36.8974V36.6594L85.4355 36.5404L84.7206 36.1833V35.9453H84.3631V35.7072L83.8865 35.5882L83.1715 34.9931L82.6949 34.3979L82.0991 33.8028L81.6225 33.2077L80.6692 32.3745L79.8351 31.4223L78.5244 30.1131L77.6903 29.1609L76.3796 27.8516L75.0689 26.7804L74.8305 26.3043L75.6646 26.0662L80.6692 25.3521L84.9589 24.638L85.793 24.3999Z" fill="#F07466"/>
<path d="M65.6555 15.9492H67.8003L69.2302 16.3063L69.5876 16.5443L69.4685 16.9014L67.6811 17.6156L65.1788 18.9248L63.5106 20.1151L63.2723 20.4721L63.1532 21.1863L63.9873 21.0673L67.8003 19.1629L69.7068 18.4487L70.8984 17.9726L73.639 17.2585L74.8305 17.1395H79.2393L81.3842 17.3775L86.2696 18.2107L88.8911 18.5678L89.9635 18.6868H92.1083L92.7041 18.9248L91.9891 19.758L90.7976 20.8292L88.8911 21.7814L86.7462 22.4956L84.2439 23.0907L77.2137 24.1619L74.1156 24.876L73.4007 25.1141H72.4474L70.1834 24.0429L68.6344 23.6858H67.2045L66.3704 23.9238L66.1321 24.3999L67.3236 24.638L69.3493 25.2331L71.4941 26.1853L73.7581 27.6136L74.9497 28.5658L76.4987 29.9941L78.8819 32.3746V32.6126H79.1202L79.9543 33.5648L81.6225 35.3502L82.4566 36.3024L83.0524 36.8975L82.9332 37.0165H79.8351L76.4987 36.6594L73.5198 35.9453L71.4941 35.2311L68.7535 34.0409L65.1788 32.3746L61.3658 30.5892L58.9827 29.518L58.2677 29.399L56.957 30.4702L55.0505 32.0175L52.7865 33.6838L49.5693 35.8263L45.9946 37.6116L44.4455 38.2068L43.3731 38.6828L40.99 39.635L38.011 40.7063H37.5344L37.7727 40.1111L38.6068 38.6828L40.1559 35.3502L41.2283 33.0887L42.1815 31.7794L43.2539 30.5892L44.803 29.1609L46.4712 27.9707L47.6628 27.1375L47.9011 26.8994V26.4234H46.9478L45.6371 26.8994L43.8497 27.9707L43.3731 28.2087L39.9176 28.4468L34.0789 28.8038H30.385L27.6444 28.4468L25.6187 27.9707L24.308 27.3755L22.759 26.5424L21.6865 25.7092L21.5674 25.3521L21.8057 25.2331H23.7122L26.8103 24.757L30.1467 23.8048L34.3172 22.2575L35.8662 21.7814L37.7727 21.4243L39.9176 21.1863H43.6114L46.9478 21.6624L49.3309 22.2575H50.0459V21.7814L48.9735 21.0673L47.1861 20.3531L44.9221 19.877L43.6114 19.639L43.8497 19.1629L45.0413 18.4487L46.1137 17.9726L47.3053 17.7346H49.2118L51.2375 18.0917L53.2631 18.8058L53.6206 19.2819L53.8589 20.1151L54.0972 21.9004V23.0907L53.6206 23.2097L53.0248 23.0907H51.1183L49.9267 23.4477L50.165 23.8048L52.1907 24.1619L53.6206 24.638L55.1696 25.4712L56.1229 26.1853L56.957 26.0663L58.3869 25.2331L59.4593 24.519L61.3658 23.5668L63.2723 23.0907L63.6298 22.9716L63.5106 22.3765L63.034 22.2575H61.485L60.2934 22.6146L59.5784 22.9716H59.221L59.3401 22.0195L59.5784 20.3531L59.6976 18.6868L60.77 17.7346L62.3191 16.7824L64.3447 16.1873L65.6555 15.9492Z" fill="#96BC54"/>
<path d="M12.3924 85.6975H13.2265V85.9356L13.8222 86.0546L15.2521 86.6497L15.9671 87.1258L16.8012 88.4351L17.2778 89.3873L17.3969 90.9346L17.5161 91.7677L17.1586 91.8868L16.9203 92.2438L16.8012 93.3151L16.0862 94.6243L15.4904 95.2194H15.2521L15.0138 95.6955L14.2989 96.1716L13.4648 97.1238L13.2265 97.5999H12.9881L12.7498 98.1951L12.0349 99.1472L11.3199 100.218L10.9625 100.814H10.7242L10.605 101.409L10.4858 101.766H10.2475V102.361L10.0092 102.956L9.89006 104.146L9.65174 104.979L9.53259 106.051L9.41343 106.646V107.241L9.29427 107.717L9.17512 109.621L9.05596 109.978H8.81765L8.69849 110.812L8.57933 111.883L8.46018 113.549L8.22186 114.62L8.1027 114.858H7.86439L7.50692 115.573H7.26861L7.14945 116.168L6.91113 116.525L7.14945 117.239L6.79198 117.596L6.55366 117.715H5.71957L4.64715 117.358L3.81305 116.882L2.97896 115.93L2.38317 114.62L2.14486 113.549H1.90654L1.54907 111.288V107.122L1.66823 106.051L1.78739 105.932L2.26401 102.718L2.74064 100.576L3.57474 98.076L4.40884 96.1716L4.88547 94.8624L5.36209 94.0292H5.60041L5.83872 93.196L6.79198 91.7677L7.98355 90.2204L8.69849 89.7443L10.0092 88.316L10.2475 87.959H10.4858L10.605 87.4829L11.5583 86.6497L12.0349 85.8165L12.3924 85.6975Z" fill="#E64437"/>
<path d="M51.2375 60.4641H53.6207L54.9314 60.8212L56.2421 61.6544L57.0762 62.3685L58.1486 63.9158L59.1019 65.8202L59.8168 67.8436L60.4126 70.4621L60.5318 71.2953V73.4378L60.1743 75.6992L59.5785 77.4846L58.6252 79.2699L57.7912 80.1031L57.672 80.3412L56.3613 81.0553L55.1697 81.6504H53.0249L51.8333 81.2934L50.2843 80.3412L49.5693 79.746V79.508L49.2119 79.389L48.4969 78.1987L47.782 77.1275L47.6628 76.4134H47.4245L46.9479 74.866L46.3521 72.7236L46.1138 70.8192V68.9148L46.4712 66.4153L47.3053 63.9158H47.5437L47.6628 63.3207H47.9011L48.0203 62.8446L49.331 61.4163L50.5226 60.7022L51.2375 60.4641Z" fill="#561C11"/>
<path d="M90.5593 56.0605H92.3467L93.5383 56.4176L94.0149 56.7747L94.4915 56.8937V57.1318L95.2064 57.3698L95.8022 58.084L96.398 58.6791L96.9938 59.5122L97.4704 60.3454L98.4237 62.2498L99.0195 64.1542L99.3769 66.5347V69.3913L99.0195 71.2956L98.7812 72.1288H98.5428L98.3045 73.3191L97.7087 74.5093L97.113 75.1044L96.2789 76.0566L95.2064 76.7708L94.7298 76.8898V77.1278L93.5383 77.3659H92.2275V77.1278L91.3934 77.0088L90.6785 76.7708V76.5327L90.0827 76.4137V76.1756L89.6061 76.0566L88.6528 75.2234L87.6996 74.0332L87.4612 73.6761V73.2H87.2229L86.8655 72.6049V72.1288H86.6271L85.6739 69.1532L85.3164 67.1298L85.1973 67.0108V63.9161L85.5547 61.6547L86.0314 60.3454L86.9846 58.6791L87.9379 57.4888L89.2486 56.5366L90.5593 56.0605Z" fill="#581D11"/>
<path d="M86.6271 122.476H87.342L87.2228 127.951L86.9845 129.141L86.5079 131.76L86.2696 133.426L86.0313 134.14L85.5546 136.283H85.3163L85.1972 136.997L84.8397 138.306H84.6014L84.4822 139.378H85.3163L86.6271 139.735L87.1037 140.092L87.4612 140.211L87.9378 140.687V141.044L88.4144 141.282L88.7719 142.234V143.067L88.6527 143.424L87.342 144.138L86.2696 144.377L84.9589 144.615H82.814L81.6225 144.496L81.0267 144.377L79.4776 144.019L78.0478 143.543L76.8562 142.829L76.1412 141.996L76.0221 141.044L75.7838 133.188L75.5455 129.975L75.3071 127.832L75.188 127.356V126.523L76.0221 126.166L79.001 125.333L81.8608 124.38L85.4355 122.952L86.6271 122.476Z" fill="#C22E29"/>
<path d="M38.4877 123.904L39.5601 124.142L43.4922 125.452L47.1861 126.404L49.2118 126.88L50.2842 127.118L50.4033 127.713L50.0459 130.927L49.8076 134.497L49.5693 142.115L49.0926 142.948L48.2585 143.543L45.8754 144.376L44.4455 144.615L41.9432 144.734H40.3942L38.3685 144.495L37.1769 143.9L36.8195 143.305V142.353L37.4152 141.401L38.011 140.806H38.3685L38.4877 140.449H38.9643L39.0834 140.092L40.0367 139.735L40.7516 139.615L40.6325 138.068L39.2026 132.355L38.4877 128.665L38.3685 124.976V124.023L38.4877 123.904Z" fill="#C22E29"/>
<path d="M116.655 90.9346L117.131 91.1726L118.799 93.7912L120.349 96.7668L120.706 97.5999L120.825 98.5521H121.063L121.183 98.7902V99.5043H121.421L121.54 100.695H121.778L122.017 101.528L122.255 103.313L122.612 104.384L122.732 105.694L122.851 105.813L123.089 107.955V111.407L122.732 113.192L122.017 114.858L121.183 115.93L120.229 116.406L119.157 116.644H118.323L117.012 116.287L115.94 115.573L114.867 114.382L114.272 113.668L113.318 113.192L112.842 112.24L112.722 111.883V110.812L113.199 109.621L113.676 108.669L113.557 107.598L112.842 105.694L111.888 103.789L111.412 102.599V101.409L112.365 99.5043L113.557 97.2429L114.272 95.9336L115.344 93.9102L116.655 90.9346Z" fill="#E54336"/>
<path d="M58.6252 30.9463L59.6976 31.3034L62.6765 32.7317L64.9405 33.9219L68.0386 35.4692L71.2558 36.7785L74.4731 37.8497L76.6179 38.3258L78.7627 38.5638H82.2183L83.0524 38.4448H84.1248L83.4099 39.278L83.1715 39.397H82.2183L81.98 39.9921L81.7417 40.2302L79.9543 40.5873H78.2861L78.0478 40.4682L74.8306 40.2302L71.7325 39.6351L68.3961 38.6829L66.3704 37.8497L64.8214 37.2546L62.9149 36.3024L61.0084 35.2312L59.1018 33.9219L58.5061 33.8029V34.0409L57.1953 35.1121L56.4804 35.5882L55.5271 36.3024L55.0505 36.4214V36.6595L54.2164 37.2546L53.3823 37.7307L50.7609 39.397L48.9735 40.5873L47.6628 41.3014L45.7563 42.2536L43.9689 43.2058L42.6582 43.9199L41.5858 44.277L41.4666 44.396H40.8708V44.6341L39.0835 45.2292L37.8919 45.3482L36.7003 44.9911L36.1045 44.396L36.2237 43.4438L36.1045 42.8487L35.5088 42.7297L34.7938 42.3726L34.913 42.1346L35.7471 42.4916L38.726 41.8965L41.8241 40.9443L44.2072 40.1112L46.4712 39.159L48.3777 38.2068L50.1651 37.2546L52.5482 35.7073L54.0972 34.636L56.0038 33.0887L57.7911 31.3034L58.6252 30.9463Z" fill="#C22E29"/>
<path d="M50.6417 1.66626H52.5482L53.2631 2.02333L54.0972 2.97553L55.1696 4.87991L56.242 7.37942L57.0761 9.87893L57.9102 13.8067L58.2677 17.4965V20.115L58.0294 22.2575L57.5528 24.0428L56.957 24.6379L56.1229 24.5189L55.6462 24.1618L55.4079 21.0672L55.0505 19.0438L54.5738 17.2584L53.7397 14.878L52.7865 12.9736L51.9524 11.6643L50.9991 10.4741L49.6884 9.04576L48.1394 7.61747L46.9478 6.66528L46.7095 6.30821V5.35601L47.4244 3.92772L48.7351 2.49943L49.9267 1.90431L50.6417 1.66626Z" fill="#95BC54"/>
<path d="M86.9846 125.809H87.1037V128.189L86.508 131.76L86.2696 133.426L86.0313 134.14L85.5547 136.283H85.3164L85.1972 136.997L84.8398 138.306H84.6015L84.4823 139.377H85.3164L86.6271 139.734L87.1037 140.092L87.4612 140.211L87.9378 140.687V141.044L88.2953 141.163L88.4145 142.234L87.9378 142.71L87.1037 142.591L86.8654 142.829L85.9122 142.472L85.5547 142.591L84.8398 142.472L84.6015 142.591L83.8865 142.472H82.3375L80.5501 141.996L80.0735 141.639L79.0011 141.044L78.4053 139.853V139.615H78.6436L78.4053 139.258L78.2861 138.187V137.235L78.4053 136.402L78.5244 134.616H78.7628L78.8819 133.426L79.1202 132.712L79.2394 131.403L79.3585 131.165H79.716L79.9543 130.57L80.431 130.093H80.6693V129.855H80.9076L81.0267 129.379L82.2183 129.141L82.6949 128.903L83.0524 128.546L83.6482 128.308H84.0057V128.07L84.6015 127.951L84.7206 127.594L85.6739 126.642L86.0313 126.523L86.2696 126.047L86.9846 125.809Z" fill="#E54437"/>
<path d="M15.6095 100.932L16.3245 101.289L16.682 102.004L17.9927 103.789V104.027H18.231L18.3501 104.503H18.5885L18.9459 105.217L19.1842 105.336V105.574H19.4226L20.1375 106.765L20.6141 107.241L20.8524 107.955H21.0908L21.6865 108.55V108.788L22.2823 108.907L22.8781 109.621L23.2356 109.859V110.097L23.7122 110.335L23.8314 110.692L24.308 110.93L24.9038 111.407V111.645L25.3804 111.883L25.857 112.359V112.597L26.4528 112.716L27.2869 113.311V113.549L27.6444 113.668V113.906L28.2402 114.025L29.1934 114.739L29.7892 115.096L30.5042 115.691L30.8616 115.81V116.048L31.3383 116.167L31.934 116.644L32.5298 116.882L34.198 117.834V118.072L34.913 118.191L36.1045 118.786L37.5344 119.143L38.6068 119.619L39.9176 120.095L42.0624 121.047L43.3731 121.524L44.4455 121.762L46.352 122.476L47.6628 122.833L47.7819 122.952L49.8076 123.309L50.9992 123.547V123.785L51.4758 123.666L51.7141 123.785L53.144 123.904L53.5014 124.142L54.0972 124.023L55.5271 124.142L56.4804 124.261L56.5995 124.38L58.1486 124.499L58.3869 124.618H59.3401L60.77 124.856H64.583L65.7746 124.737L69.9451 124.618L70.1834 124.499L70.0643 125.094L68.5152 125.332L67.8003 125.57L65.1788 125.808L62.6765 125.927L56.957 125.808L52.1907 125.332L51.5949 125.213L49.9267 125.094L46.8287 124.38L44.088 123.666L40.275 122.357L36.8195 120.928L32.8873 119.143L30.8616 118.072L30.7425 117.715L30.0275 117.477L28.121 116.286L27.5252 115.691L26.9294 115.453L25.3804 114.263L25.0229 113.787L24.4272 113.549L23.1164 112.597V112.359L22.6398 112.121L21.2099 110.811L17.3969 107.003V106.765L17.0394 106.646L15.7287 104.979L14.7754 103.789L14.418 102.956L14.5371 102.123L14.8946 101.527H15.1329V101.289L15.6095 100.932Z" fill="#D6584F"/>
<path d="M58.506 28.0896H60.6509L62.4382 28.5657L63.6298 29.0418L65.0597 29.6369L66.2512 30.3511L68.7535 31.3033L72.2091 32.7315L73.8773 33.4457L76.3796 34.2789L78.5244 34.755L79.8351 34.874L81.5033 35.5881L81.6225 35.3501L82.4566 36.3023L83.0524 36.8974L82.9332 37.0164H79.8351L76.4987 36.6593L73.5198 35.9452L71.4942 35.2311L68.7535 34.0408L65.1788 32.3745L61.3658 30.5891L58.9827 29.5179L58.2677 29.3989L56.957 30.4701L55.0505 32.0174L52.7865 33.6837L49.5693 35.8262L45.9946 37.6115L44.4455 38.2067L43.3731 38.6828L40.99 39.6349L38.0111 40.7062H37.5344L37.7727 40.111L38.6068 38.6828L38.9643 37.8496L39.0835 38.0876L39.9176 37.8496L40.8708 37.3735L43.0156 36.4213L46.1137 35.112L47.9011 34.1598L49.0926 33.3267L51.2375 31.8984L53.9781 30.3511L55.408 29.5179L56.3612 29.0418L57.6719 28.3276L58.506 28.0896Z" fill="#708834"/>
<path d="M38.6068 126.999L39.2026 127.237L39.7984 127.832L40.3942 128.308L40.5133 128.546L40.9899 128.784L41.1091 129.022L41.824 129.141L41.9432 129.379L42.4198 129.498L43.1348 129.736V129.974L43.7305 130.093L45.5179 130.807L46.1137 131.402L46.4712 132.117L46.9478 132.236L47.1861 132.712H46.9478L46.8286 133.783L46.7095 134.14L46.9478 134.259V134.378L47.1861 134.973L47.3053 136.401L47.0669 137.235L47.3053 137.592L47.1861 138.306L46.9478 138.544L47.0669 139.139V139.496L46.9478 140.091L46.5903 140.686L46.2328 141.519L45.3987 142.234L44.803 142.472L43.6114 142.71L40.3942 142.829L39.6792 142.948L38.9643 142.829L38.2493 142.948H38.1302L37.1769 143.067V142.829H36.9386V142.115L37.4152 141.4L38.011 140.805H38.3685L38.4876 140.448H38.9643L39.0834 140.091L40.0367 139.734L40.7516 139.615L40.6325 138.068L39.2026 132.355L38.6068 129.141V126.999Z" fill="#E54336"/>
<path d="M47.067 81.8887H48.8543L50.5225 82.2457L52.7865 83.436L52.9057 83.7931H53.144L53.6206 84.5072L53.7398 84.8643V86.2926L53.2631 87.4828L52.6673 88.197L51.7141 88.9111L49.8076 89.7443L47.6628 90.1013H45.1605L43.4923 89.8633L41.9432 89.2682L40.99 88.554L40.5133 87.9589L40.275 87.1257V85.8165L40.7517 84.5072L41.8241 83.555L43.4923 82.7218L45.2796 82.1267L47.067 81.8887Z" fill="#F17567"/>
<path d="M94.2532 35.5881H95.5639L96.8746 36.0642L98.1854 36.8974L99.3769 37.9686L100.688 39.2779L101.641 40.5872L102.713 42.1345L103.309 43.4437L103.547 44.2769V46.0623L102.952 47.0145L102.237 47.4906H100.807L99.4961 47.0145L98.1854 46.1813L97.2321 45.2291L96.1597 43.9198L94.849 42.3725L94.0149 41.3013L92.9424 39.5159L92.4658 38.2067L92.585 37.0164L93.1808 36.0642L93.7765 35.7072L94.2532 35.5881Z" fill="#FDFDFD"/>
<path d="M116.655 90.9346L117.131 91.1726L118.204 92.839L118.085 93.077L117.846 92.958V94.1482L117.727 94.9814L117.846 95.3385V96.5287L117.489 96.6477L117.131 98.076H116.893L116.774 98.6711L116.178 100.695L116.059 101.409L115.821 102.48V102.718H115.582L115.701 103.075L115.225 105.575L115.344 106.408H115.106L115.225 107.003L115.106 107.241L115.225 107.717L115.344 109.026L115.463 109.621V110.336L115.821 111.288L116.059 112.121L116.416 112.716V113.192H116.655L117.131 113.668L117.25 114.144L117.608 114.263L117.846 114.501L118.204 114.739V115.096L118.919 114.977L119.038 115.335H119.276V115.573L119.634 115.692V115.93L121.063 115.454L121.659 114.739L122.136 113.787L122.732 112.121H122.851L122.732 113.192L122.017 114.858L121.183 115.93L120.229 116.406L119.157 116.644H118.323L117.012 116.287L115.94 115.573L114.867 114.382L114.272 113.668L113.318 113.192L112.842 112.24L112.722 111.883V110.812L113.199 109.621L113.676 108.669L113.557 107.598L112.842 105.694L111.888 103.789L111.412 102.599V101.409L112.365 99.5043L113.557 97.2429L114.272 95.9336L115.344 93.9102L116.655 90.9346Z" fill="#C22E29"/>
<path d="M8.34094 54.6318L8.69841 54.9889L8.57926 56.6552H8.34094L8.4601 57.1313L8.34094 57.7265L8.10263 58.6787L7.86432 59.5118L7.74516 60.226H7.50685L7.626 60.583L7.50685 60.9401L7.38769 61.6543L7.03022 61.7733L7.14937 62.1304L7.03022 63.3206L6.91106 63.5587V64.2728L6.7919 64.7489L6.55359 67.2484L6.43443 68.7957V69.6289L6.31528 69.8669V74.2708L6.43443 74.7469V76.4133L6.67275 77.7225L6.91106 79.984V80.3411H7.14937L7.38769 81.6503L7.626 83.3167L7.98347 84.864V85.2211L8.34094 85.5781L8.4601 86.2923L8.34094 86.5303L8.57926 86.6494L7.86432 87.8396L7.14937 88.7918L6.7919 88.4347L6.07696 85.9352L5.83865 83.9118L5.36202 81.2933L4.88539 76.6513L4.76624 74.2708V69.986L5.12371 65.5821L5.71949 62.2494L6.55359 58.7977L6.7919 58.0835L7.38769 56.1792L8.10263 54.7509L8.34094 54.6318Z" fill="#D65950"/>
<path d="M85.793 24.3999L86.8654 24.5189V24.638L85.6738 24.876L86.2696 26.0662L86.7463 26.4233V26.6614L87.4612 26.8994L87.8187 27.2565L88.2953 27.4945V27.8516L86.6271 28.6848L86.2696 29.0418L85.5547 29.1609V29.3989L85.0781 29.2799V29.0418H84.8398L84.6014 29.5179L84.1248 29.994L84.244 30.2321L83.1716 30.4701L82.5758 30.8272L81.5034 31.0653L80.4309 30.4701L79.2394 30.2321V29.994L79.0011 30.1131L79.8352 31.0653L80.6693 31.8984L80.5501 32.1365L78.5244 30.1131L77.6903 29.1609L76.3796 27.8516L75.0689 26.7804L74.8306 26.3043L75.6647 26.0662L80.6693 25.3521L84.9589 24.638L85.793 24.3999Z" fill="#E54337"/>
<path d="M25.4996 24.9951H26.3337V25.1141H25.6187L25.4996 25.5902L27.6444 26.3044L29.4317 26.6615H32.4107L36.8195 26.1854L37.4153 26.0663L41.8241 25.8283L45.5179 26.0663L45.8754 26.1854H47.9011V26.3044L46.4712 26.5424L44.803 27.3756L43.6114 28.0897L43.3731 28.2088L39.9176 28.4468L34.0789 28.8039H30.385L27.6444 28.4468L25.6187 27.9707L24.308 27.3756L22.759 26.5424L21.6865 25.7093L21.5674 25.3522L21.8057 25.2332H23.7122L25.4996 24.9951Z" fill="#6C7F32"/>
<path d="M58.506 28.0896H60.6509L62.4382 28.5657L63.034 28.9228V29.0418H61.7233L60.77 28.9228L60.1742 29.0418L59.6976 28.9228L59.4593 29.0418L58.2677 29.1608L57.3145 30.232L55.2888 31.7794L53.6206 33.0886L52.429 33.9218L49.5693 35.8262L45.9946 37.6115L44.4455 38.2067L43.3731 38.6828L40.99 39.6349L38.0111 40.7062H37.5344L37.7727 40.111L38.6068 38.6828L38.9643 37.8496L39.0835 38.0876L39.9176 37.8496L40.8708 37.3735L43.0156 36.4213L46.1137 35.112L47.9011 34.1598L49.0926 33.3267L51.2375 31.8984L53.9781 30.3511L55.408 29.5179L56.3612 29.0418L57.6719 28.3276L58.506 28.0896Z" fill="#708834"/>
<path d="M87.5804 20.2341H90.321L90.6784 20.5912L90.9167 20.7102L89.7252 21.4244L87.9378 22.1385L84.8397 22.9717L80.3118 23.6858L77.2137 24.1619L74.1156 24.8761L73.4007 25.1141H72.4474L70.1834 24.0429L68.6344 23.6858V23.5668L69.5877 23.4478V23.2097L70.6601 22.7336L72.5666 22.1385L74.4731 21.7814L81.3842 21.4244L83.8865 21.0673L86.1505 20.5912L87.5804 20.2341Z" fill="#708834"/>
<path d="M48.3777 2.85669L48.616 3.21376L48.9735 4.404H49.2118V4.64205L49.8076 4.76108L50.7608 4.28498L51.3566 3.80888H51.5949V3.57083H52.0715L51.9524 4.16596L51.1183 4.99913L50.165 5.59425L50.2842 6.18937L51.4758 7.85571L51.8332 8.3318V8.56985H52.0715L53.7397 11.0694L55.0505 13.5689L55.7654 15.7113L56.5995 20.1152L57.1953 22.9718L57.4336 23.4479L57.6719 23.2098L57.5528 24.043L56.957 24.6381L56.1229 24.5191L55.6462 24.162L55.4079 21.0674L55.0505 19.044L54.5738 17.2586L53.7397 14.8781L52.7865 12.9737L51.9524 11.6645L50.9991 10.4742L49.6884 9.04595L48.1394 7.61766L46.9478 6.66546L46.7095 6.30839V5.3562L47.4244 3.92791L48.3777 2.85669Z" fill="#6C7E31"/>
<path d="M9.29427 89.1489L9.65174 89.268L8.9368 90.3392L8.57933 90.8153L8.34102 91.4104L7.74523 92.8387L7.50692 93.5528H7.26861L7.14945 94.1479L6.67282 95.1001L5.95788 96.2904L5.24294 97.9567L5.12378 98.6709L4.88547 99.385V99.6231H4.64715L4.40884 101.051L4.17053 101.885L3.81305 103.432L3.45558 105.455L3.33643 106.169L3.21727 107.598V112.835H3.45558L3.57474 113.906L3.6939 114.739L4.05137 114.858L4.40884 115.929L4.64715 117.001L3.81305 116.882L2.97896 115.929L2.38317 114.62L2.14486 113.549H1.90654L1.54907 111.287V107.122L1.66823 106.05L1.78739 105.931L2.26401 102.718L2.74064 100.575L3.57474 98.0757L4.40884 96.1714L4.88547 94.8621L5.36209 94.0289H5.60041L5.83872 93.1957L6.79198 91.7675L7.98355 90.2201L8.69849 89.744L9.29427 89.1489Z" fill="#EE7164"/>
<path d="M53.8589 62.9641H55.1696L55.8846 63.4402L56.7187 64.3924L57.1953 65.3446L57.4336 66.0587V68.6773L56.957 69.7485H56.7187L56.4803 70.2246L55.6462 70.5817H54.2164L53.6206 70.2246L53.1439 69.7485V69.5104H52.9056L52.1907 67.7251L52.0715 67.6061V65.1065L52.5482 63.9163L53.2631 63.0831L53.8589 62.9641Z" fill="#FCFBFB"/>
<path d="M92.5849 58.4409L93.7765 58.5599L94.134 58.679L94.7298 59.2741L95.4447 60.2263L95.9213 61.4165L96.0405 61.8926V63.559L95.683 64.9873L95.3256 65.7014L94.7298 66.0585L94.0148 66.2965H93.1807L92.1083 65.5824L91.6317 64.7492L91.1551 63.559L90.9167 62.6068V60.7024L91.5125 59.1551L91.7508 58.798L92.5849 58.4409Z" fill="#FCFAFA"/>
<path d="M37.2961 32.1367H37.6535V32.3748H38.1302L37.8919 33.2079L37.0578 34.6362L36.3428 35.8265L35.747 37.1357L35.5087 37.9689V38.564L35.9854 38.6831L36.2237 39.0401L35.3896 40.7065L34.7938 41.6587L34.5555 42.1348L34.6746 41.3016L34.7938 40.7065L34.4363 40.5874L34.3172 39.3972L34.6746 38.445L35.1513 37.9689L35.5087 36.7787L35.747 35.9455V35.2313L35.5087 35.1123H34.3172L33.7214 34.9933L33.3639 35.1123H32.5298L31.934 34.9933H30.1467L29.3126 35.3504L28.4785 35.8265L27.5252 36.6596H27.2869L27.1677 37.0167L26.6911 37.1357L26.572 37.4928H26.3336V37.8499L25.857 38.0879L25.7379 38.445H25.4995L25.2612 38.9211L24.6654 39.6352L24.0697 40.1113L23.8313 40.5874L23.2356 40.8255L23.1164 41.3016L22.8781 41.6587H22.6398L22.4015 42.3728L22.044 42.8489L21.0907 44.9913L20.7333 46.0626L20.4949 47.4908L20.2566 48.5621L19.4225 48.6811L18.1118 48.324H17.2777V48.086L18.9459 47.6099L19.5417 47.0147L19.8992 46.8957L20.0183 46.3006L20.4949 44.7533L20.6141 44.2772L20.8524 44.1582L21.0907 43.206H21.329L21.4482 42.7299H21.6865L21.9248 42.0157L22.6398 41.0635H22.8781V40.7065H23.1164L23.3547 40.2304L23.8313 39.5162L24.4271 38.9211H24.6654L24.9038 38.445L25.1421 38.0879H25.3804L25.6187 37.6118H25.857V37.3738L26.572 36.7787L27.1677 36.1835L27.7635 35.7074L28.2401 35.2313H28.4785V34.9933H28.8359V34.7553L30.7424 33.684H31.0999V33.446L31.8149 33.2079L32.2915 33.327V33.0889L33.3639 32.8509L34.5555 32.6128L36.462 32.3748L37.2961 32.1367Z" fill="#E54437"/>
<path d="M14.8946 102.123L15.6095 102.242L16.9202 103.67L17.1585 104.384L17.6352 104.503L18.4693 105.813L18.7076 106.408H18.9459L19.0651 107.003L19.3034 107.122L19.5417 107.598L20.2566 108.193L20.7333 108.788L21.8057 109.621V109.859L22.2823 110.097L22.7589 110.693L23.2355 110.931L23.7122 111.526L23.9505 111.645V111.883H24.308V112.121L24.7846 112.359L25.7378 113.192L25.9762 113.311V113.668L26.3336 113.549L26.4528 114.025L26.8103 113.906L26.9294 114.263L27.406 114.382L28.2401 114.858V115.096L28.7168 115.334V115.573L29.1934 115.811L29.7892 116.049L30.1467 116.287V116.525L30.9808 116.763L31.5765 117.358V117.596H31.934V117.834L32.7681 118.072L33.2447 118.429V118.786L33.6022 118.905L33.1256 119.024L31.4574 118.191L30.7424 117.953V117.715L30.0275 117.477L28.121 116.287L27.5252 115.692L26.9294 115.454L25.3804 114.263L25.0229 113.787L24.4271 113.549L23.1164 112.597V112.359L22.6398 112.121L21.2099 110.812L17.3969 107.003V106.765L17.0394 106.646L15.7287 104.979L15.1329 104.265L14.8946 103.432L14.6562 102.956L14.7754 102.48L14.8946 102.123Z" fill="#ED7063"/>
<path d="M101.283 100.218H102.117L102.475 100.575L102.356 101.646L101.76 102.837L101.403 103.67L100.926 104.265H100.688L100.449 104.741L99.2577 105.931L97.947 106.764L95.9213 107.478L95.0872 107.359L94.7297 106.883V105.931L95.2064 105.098L95.3255 104.741L96.0405 104.146H96.2788V103.908H96.7554V103.67L97.5895 102.956L98.7811 101.765L99.3769 101.527L100.33 100.813L100.926 100.456H101.283V100.218Z" fill="#F17567"/>
<path d="M79.716 75.4612H80.6692L81.0267 76.0563V77.2465L80.1926 78.9129L79.3585 79.8651L77.452 80.8173L76.4987 81.1743L75.7838 81.2934H73.9964L72.0899 80.8173L70.66 80.1031L69.5876 79.1509L68.9918 78.0797L68.8727 77.6036L69.2302 77.0085L69.5876 76.7704H70.1834L71.0175 77.9607L71.4941 78.5558L73.1623 79.389L74.3539 79.627H75.4263L76.4987 79.389L77.8095 78.6748L78.6436 77.8417L79.2393 76.6514L79.4776 75.6992L79.716 75.4612Z" fill="#551C11"/>
<path d="M50.6417 50.823H51.7141L52.6674 51.1801L53.144 51.6562L53.0249 52.6084L52.6674 53.0845L51.1184 53.4415L50.1651 53.7986L48.0203 54.7508L47.067 55.4649L45.8755 56.4171L45.0414 56.6552L44.4456 56.1791L44.3264 55.584L44.6839 54.5127L45.6371 53.2035L46.7096 52.2513L48.1394 51.4181L49.9268 50.942L50.6417 50.823Z" fill="#561C11"/>
<path d="M89.8444 47.1333H91.1551L93.0616 47.6094L94.134 48.0855V48.3235H94.4915V48.5616H94.8489V48.7996L95.3256 48.9187L95.9214 49.5138L96.398 50.2279V50.9421L96.1597 51.2991L95.3256 51.4182L94.134 50.9421L93.6574 50.704L91.3934 50.2279L91.2742 50.1089L88.2953 49.9899L87.5804 49.7518L87.2229 49.1567L87.3421 48.4426L87.9378 47.8474L89.1294 47.2523L89.8444 47.1333Z" fill="#5A1C12"/>
<path d="M118.084 93.3147L118.204 93.5527H118.442V93.7908H118.799L120.348 96.7664L120.706 97.5996L120.825 98.5518H121.063L121.183 98.7898V99.504H121.421L121.54 100.694H121.778L122.017 101.527L122.255 103.313L122.612 104.384L122.732 105.693L122.851 105.812L122.97 106.883V110.93L122.732 111.882H122.612L122.017 108.907L121.54 107.002L121.302 104.86L120.825 102.718L120.348 101.527L119.991 100.456L119.276 98.4327L118.084 94.981V94.1479L117.965 93.4337L118.084 93.3147Z" fill="#EC6F62"/>
<path d="M25.4996 24.9951H26.3337V25.1141H25.6187L25.4996 25.5902L27.6444 26.3044L29.4317 26.6615H32.4107L36.8195 26.1854L37.4153 26.0663L41.8241 25.8283L45.5179 26.0663L45.8754 26.1854H47.9011V26.3044L46.4712 26.5424L45.0413 27.0185L44.5647 27.3756L44.088 27.2566L43.7306 26.6615L43.1348 26.4234L41.5857 26.3044H39.0835L38.726 26.4234L36.5812 26.6615L34.7938 27.0185L33.9597 27.1376L32.4107 27.4946L31.3383 27.7327L29.4317 27.6137L28.836 27.4946L28.5976 27.6137L28.3593 27.4946H27.0486L26.4528 27.6137H25.6187L24.5463 27.2566L23.5931 27.0185L22.2823 26.1854L21.6865 25.7093L21.5674 25.3522L21.8057 25.2332H23.7122L25.4996 24.9951Z" fill="#708834"/>
<path d="M85.793 24.3999L86.8654 24.5189V24.638L85.1972 24.757V25.114H85.4355L85.6738 25.8282L85.5547 26.0662L84.3631 26.5423L83.0524 26.8994L82.9332 27.0184L80.9076 27.3755L79.8352 27.6136L78.8819 27.8516L78.6436 27.9706L77.0945 28.0897L77.9286 29.0418V29.3989L76.3796 27.8516L75.0689 26.7804L74.8306 26.3043L75.6647 26.0662L80.6693 25.3521L84.9589 24.638L85.793 24.3999Z" fill="#C22E29"/>
<path d="M49.9268 5.47534L50.1651 5.59437L50.2843 6.18949L51.4759 7.85583L51.8333 8.33192V8.56997H52.0716L53.7398 11.0695L55.0506 13.569L55.7655 15.7114L56.5996 20.1153L57.1954 22.9719L57.4337 23.448L57.672 23.21L57.5529 24.0431L57.1954 24.1621L56.7188 23.329V22.4958L56.3613 21.3056L56.123 20.5914L55.6464 19.6392L55.2889 19.2822L54.4548 16.3065L54.2165 15.2353L54.0973 14.9973V13.688L53.9782 12.7358H53.7398L53.2632 11.6646L52.6674 10.4744H52.4291L52.0716 9.87924L51.8333 9.76021V9.52217L51.3567 9.40314L50.5226 8.92704H50.2843L49.4502 7.7368V6.18949L49.6885 5.59437L49.9268 5.47534Z" fill="#718935"/>
<path d="M47.3054 17.7349H49.2119L51.2375 18.0919L53.2632 18.8061L53.6207 19.2822L53.859 20.1153V22.0197L52.1908 21.9007L51.8333 21.7817V21.5436L51.3567 21.3056L50.7609 20.9485L50.2843 20.5914V20.3534L48.3778 19.4012L46.4713 18.8061L45.9946 18.33L46.2329 18.0919H46.7096V17.8539L47.3054 17.7349Z" fill="#94BB53"/>
<path d="M86.8655 126.047L87.1038 126.285V128.189L86.508 131.76L86.2697 133.426L86.0314 134.141L85.5547 136.283H85.3164L85.1973 136.997L84.8398 138.306H84.6015L84.4823 138.663L84.244 138.425V135.688L84.6015 134.141L84.8398 132.95L85.0781 132.117L85.4356 129.38V127.951L85.3164 127.475L85.5547 127.356L85.6739 126.88L86.2697 126.404H86.508V126.166L86.8655 126.047Z" fill="#EF7265"/>
<path d="M46.1137 17.9724H46.7095L46.2329 18.2105V18.4485L46.4712 18.6866L48.3777 19.2817L48.9735 19.6388L49.8076 19.9958L50.9992 21.067L51.8333 21.5431V21.7812L53.144 21.9002L53.8589 22.0192V21.067H53.9781L54.0973 21.9002V23.0905L53.6206 23.2095L53.0248 23.0905H51.1183L49.9268 23.4475L50.1651 22.9714L50.4034 22.6144L49.4501 22.4953V22.3763L50.0459 22.2573V21.7812L48.9735 21.067L47.1862 20.3529L44.9222 19.8768L43.6115 19.6388L43.8498 19.1627L45.0413 18.4485L46.1137 17.9724Z" fill="#708734"/>
<path d="M104.858 51.4182H105.692L106.646 52.0133L107.122 52.7275L107.241 53.0846V54.6319L106.884 55.346L106.407 55.7031H105.454L104.739 55.227L104.143 54.2748L103.905 53.5606V52.4894L104.262 51.7753L104.858 51.4182Z" fill="#FDFDFD"/>
<path d="M38.6068 126.999L39.2026 127.237L39.6792 128.308L39.9175 129.617L40.0367 130.926L40.5133 133.426L41.1091 136.52L41.2283 136.997V139.139L40.99 139.02L40.6325 138.068L39.2026 132.355L38.6068 129.141V126.999Z" fill="#F07466"/>
<path d="M68.7536 32.0176L70.3026 32.2556L72.4474 33.0888L73.0432 33.4459V33.6839H73.639L73.8773 34.279L73.0432 34.3981L72.5666 34.5171L72.4474 34.7551L71.8516 34.8742L71.4942 34.9932L70.6601 34.8742L68.5153 33.922L67.6812 33.5649L68.0386 33.2078L68.1578 32.3747L68.7536 32.2556V32.0176Z" fill="#6C7F32"/>
<path d="M59.6976 28.804L60.2934 28.923L60.77 28.804L62.1999 28.923L63.2723 29.161L63.5106 29.2801V29.5181L64.1064 29.6371L64.8214 29.9942L64.9405 30.3513L64.8214 30.7083L64.3447 30.8274V31.0654H64.1064L63.9873 31.5415L64.1064 31.7796L63.3915 31.5415L59.8168 29.8752L58.6252 29.3991H58.0294L58.2677 29.042L59.4593 28.923L59.6976 28.804Z" fill="#6C7F32"/>
<path d="M63.1532 26.0664L64.9405 26.3045L66.0129 26.6615L67.562 27.3757L68.5152 27.8518L69.3493 28.2088L71.4941 29.5181L72.6857 30.3513L73.9964 31.4225L74.2348 31.8986L73.7581 31.7796L71.8516 30.5893L70.5409 29.6371L68.6344 28.5659L66.1321 27.6137L63.7489 26.7806L62.5574 26.3045V26.1854L63.1532 26.0664Z" fill="#6D8233"/>
<path d="M52.5483 27.0183H53.144L52.6674 27.4944L51.4758 28.0895L50.6418 28.5656L48.9736 29.7559L47.6628 30.7081L45.9946 31.7793L45.1605 32.6124H44.9222L44.6839 33.0885L43.6115 34.2788L42.7774 35.35L42.4199 35.469L42.6582 34.8739L43.7306 33.4456L44.8031 32.1364L45.6372 31.1842L46.2329 30.9461L46.4713 30.47L48.0203 29.2798L49.9268 28.3276L51.595 27.3754L52.5483 27.0183Z" fill="#6D8132"/>
<path d="M74.4731 19.0437H77.5712V19.2817L76.9754 19.5198L73.5199 20.2339L68.8728 21.5432L67.9195 21.7813H67.3237L67.4429 21.5432L68.7536 20.9481L70.541 20.2339H70.8984V19.9959L72.805 19.2817L74.4731 19.0437Z" fill="#708834"/>
<path d="M41.7049 23.5669L45.7562 23.924L46.1137 24.043V24.281H39.7984L36.462 24.7571L32.8873 25.5903H32.5298L32.6489 25.2332L33.7214 24.7571L35.2704 24.281L37.0577 23.924L41.7049 23.5669Z" fill="#718935"/>
<path d="M78.0478 35.1121H79.001L79.5968 35.2311L80.6692 35.4691L81.0267 36.0643H80.7884L80.9075 36.4213L80.5501 36.7784L82.9332 36.8974V37.0164H79.8351L76.4987 36.6594L75.903 36.5404V36.4213L77.0945 36.3023L77.3328 35.3501L78.0478 35.1121Z" fill="#6C7F32"/>
<path d="M45.0413 18.4485L45.7563 18.6865L46.1137 19.0436L47.6628 19.5197L48.8544 19.9958V20.2338L49.331 20.3529L49.4501 20.829H49.8076L50.0459 21.3051V21.6621L47.9011 20.5909L45.6371 19.9958L43.6115 19.6387L43.8498 19.1626L45.0413 18.4485Z" fill="#6C7F32"/>
<path d="M50.5226 74.8662H51.1184L51.595 75.1043L51.9525 75.4613L52.1908 76.0565L52.0716 76.7706L51.7142 77.3657L51.3567 77.7228H50.5226L49.9268 77.1277L49.5693 76.4135L49.6885 75.6994L49.8076 75.4613H50.046V75.1043L50.5226 74.8662Z" fill="#FBF4F2"/>
<path d="M8.34099 54.6318L8.69846 54.9889L8.57931 56.6552H8.34099L8.46015 57.1313L8.34099 57.7265L8.10268 58.6787L7.86436 59.5118L7.74521 60.226H7.50689L7.62605 60.583L7.50689 60.9401L7.38774 61.6543L7.03027 61.7733L7.14942 62.1304L7.03027 63.3206L6.91111 63.5587V64.2728L6.79195 64.7489L6.55364 67.0104L6.19617 66.7723L6.31532 66.2962L6.43448 64.7489L6.31532 64.5108H6.55364L6.43448 63.5587L6.55364 62.9635L6.91111 60.8211L7.26858 60.226V59.0357L7.38774 58.6787H7.62605V57.8455L7.86436 57.0123L7.74521 55.346L8.10268 54.7509L8.34099 54.6318Z" fill="#E64437"/>
<path d="M89.4869 70.5813H90.5593L90.7976 70.7003V70.9384H91.0359L91.2743 71.2954V72.2476L91.1551 72.6047H90.9168L90.6785 73.0808L89.6061 73.1998L88.8911 72.3667V71.1764L89.4869 70.5813Z" fill="#FAF5F2"/>
<path d="M85.5547 139.497L86.6271 139.735L87.1037 140.092L87.4612 140.211L87.9378 140.687L88.1761 141.282V141.877L87.8186 142.115L87.2229 141.996L85.5547 140.925L85.078 140.449L84.8397 139.735L85.5547 139.497Z" fill="#EF7365"/>
<path d="M39.7985 139.973H40.3943L40.5134 140.33L40.3943 140.687L39.0835 141.758L38.3686 142.353L37.5345 142.71H37.0579V141.877L37.892 140.925L38.3686 140.806L38.4877 140.449H38.9644L39.0835 140.092L39.7985 139.973Z" fill="#EE7163"/>
<path d="M83.4099 38.5635L83.8865 38.6825L83.4099 39.2776L83.1716 39.3966H82.2183L81.98 39.9918L81.7417 40.2298L79.9543 40.5869H78.2861L78.167 40.3488H79.2394L80.5501 40.1108L80.9076 39.5157H81.1459V39.2776L80.9076 39.0396L81.5034 38.9205L83.4099 38.5635Z" fill="#E64437"/>
<path d="M51.7141 31.8984H52.3099L52.429 32.3745L51.9524 32.8506H51.7141V33.2077L50.88 33.6838L50.165 34.0409L49.3309 33.9218L49.5692 33.4458L50.6417 32.4936H50.88V32.2555L51.5949 32.0175L51.7141 31.8984Z" fill="#6C7F32"/>
<path d="M35.1512 119.619L36.2237 119.857L36.9386 120.095L37.8919 120.452L38.726 120.571V120.809H39.3217L39.4409 121.047L39.6792 120.928V121.285H40.1558V121.524L40.6325 121.762V122L39.5601 121.762L38.3685 121.285L37.7727 121.166V120.928L37.1769 120.809L35.1512 119.857V119.619Z" fill="#F07466"/>
<path d="M52.5483 27.0183H53.144L52.6674 27.4944L51.4758 28.0895L50.6417 28.5656L48.9735 29.7559H48.6161L49.2119 29.0417L48.0203 29.6368L47.1862 30.232L46.9479 30.1129L48.0203 29.2798L49.9268 28.3276L51.595 27.3754L52.5483 27.0183Z" fill="#718935"/>
<path d="M34.7938 38.3259H35.0321L34.9129 38.802L35.1512 39.2781L35.9853 39.3971L35.747 40.1113L34.7938 41.6586L34.5555 42.1347L34.6746 41.3015L34.7938 40.7064L34.4363 40.5874L34.3171 39.3971L34.6746 38.445L34.7938 38.3259Z" fill="#D65B52"/>
<path d="M6.19617 84.864L6.79195 84.983V85.8162H7.03027L7.62605 87.6016V87.8396L7.26858 88.0777L7.03027 88.1967V87.9586H6.79195L6.19617 85.6972V84.864Z" fill="#ED7164"/>
<path d="M15.1329 104.027L15.7287 104.384L16.3245 105.098L16.8011 105.931L18.7076 107.955L22.2824 111.525L22.6398 111.644L23.1164 112.359L22.6398 112.121L21.2099 110.811L17.3969 107.002V106.764L17.0394 106.645L15.7287 104.979L15.1329 104.265V104.027Z" fill="#C22F2A"/>
<path d="M86.2697 71.2954H86.508L86.6271 72.1286H86.8654L87.2229 73.1998H87.4612L87.8187 74.033L88.8911 75.3422L89.7252 76.0564L90.0827 76.1754V76.4135L90.6785 76.5325V76.7705L91.3934 76.8895L91.2742 77.2466L90.5593 77.1276V76.8895L89.9635 76.6515L89.1294 76.1754V75.9374L88.7719 75.8183V75.5803L88.4145 75.4613L87.5804 74.152L86.8654 73.0808L86.2697 71.6525V71.2954Z" fill="#ED6E60"/>
<path d="M43.9689 36.1833L44.3263 36.3024L44.2072 36.8975L43.6114 37.2546H43.3731L43.2539 37.6116L42.4198 37.7307L42.1815 37.3736L42.6581 36.7785L43.4922 36.4214L43.9689 36.1833Z" fill="#6C7F32"/>
<path d="M63.1532 26.0664L64.9405 26.3045L66.0129 26.6615L67.0853 27.1376L66.7279 27.2566L65.4171 26.7806L64.3447 26.5425V26.8996L63.7489 26.7806L62.5574 26.3045V26.1854L63.1532 26.0664Z" fill="#718935"/>
<path d="M21.8057 25.2334H24.6655V25.3524L23.8314 25.4714L23.3547 25.7095H22.5206V26.1856L22.044 25.9475L21.5674 25.4714L21.8057 25.2334Z" fill="#6C7F32"/>
<path d="M35.7471 120.333L36.9386 120.572L37.7727 120.929V121.167L38.6068 121.286L39.7984 121.762V122L39.2026 121.881L36.8195 120.929L35.7471 120.453V120.333Z" fill="#C93E38"/>
<path d="M83.4099 38.5635L83.8865 38.6825L83.4099 39.2776L83.1716 39.3966H82.2183L81.7417 39.1586L81.8609 38.9205L83.4099 38.5635Z" fill="#D65A51"/>
<path d="M50.9992 53.4417L51.3567 53.5607L50.0459 54.0368L48.1394 54.989L47.5436 55.4651L47.067 55.5841V55.346L48.0203 54.6319L50.1651 53.6797L50.9992 53.4417Z" fill="#EF7063"/>
<path d="M48.0202 62.6064V62.9635L47.9011 63.3206H47.6627L47.5436 63.9157H47.3053L47.067 64.9869L46.8286 65.7011H46.5903L46.7095 64.8679L47.3053 63.3206L47.5436 62.8445L48.0202 62.6064Z" fill="#E96558"/>
<path d="M6.19622 69.8674H6.31537V73.0811L6.19622 73.7952L5.9579 73.4382L5.83875 72.1289L6.19622 69.8674Z" fill="#E54437"/>
<path d="M34.198 24.6382L34.3171 24.8762H34.9129V25.1143L32.8873 25.5904H32.5298L32.6489 25.2333L33.7214 24.7572L34.198 24.6382Z" fill="#718935"/>
<path d="M43.8498 33.3267L44.2073 33.5647L43.1349 34.874L42.5391 35.4691L42.4199 35.231L43.6115 33.5647L43.8498 33.3267Z" fill="#718935"/>
<path d="M71.4942 20.115H72.2092L71.8517 20.7101L71.0176 20.9482H70.3026L70.0643 20.7101L71.2559 20.234L71.4942 20.115Z" fill="#6D8132"/>
<path d="M48.3777 2.85669L48.616 3.21376L48.9735 4.404H49.2118V4.64205L49.8076 4.76108L50.4034 4.64205L50.2842 4.8801L49.4501 4.99913L48.8544 4.52303L48.616 3.80888L48.0203 3.57083L48.1394 3.09474L48.3777 2.85669Z" fill="#708834"/>
<path d="M15.1329 104.027L15.7287 104.384L16.3245 105.098L16.8011 105.931L17.5161 106.645L17.3969 106.883L16.8011 106.288L15.4904 104.741L15.1329 104.265V104.027Z" fill="#C22E29"/>
<path d="M47.6628 77.0085L48.0203 77.3656L48.7353 78.4368L49.331 79.5081L48.8544 79.27L48.2586 78.5559L47.9012 77.8417L47.6628 77.6037V77.0085Z" fill="#EC7062"/>
<path d="M49.8076 23.4478L50.1651 23.8048L52.1908 24.1619L53.6206 24.638L53.859 24.876L53.2632 24.757L51.3567 24.2809L49.9268 24.0429L49.8076 23.4478Z" fill="#6E8433"/>
<path d="M8.10262 90.1016V90.4586L7.38768 91.4108L6.07695 93.3152L5.9578 93.5533H5.71948L5.9578 92.9581L7.14937 91.2918L8.10262 90.1016Z" fill="#C93F39"/>
<path d="M86.2697 71.2954H86.508L86.6271 72.1286H86.8654L87.2229 73.1998H87.4612L87.8187 74.033V74.39L87.3421 73.7949L86.8654 73.0808L86.2697 71.6525V71.2954Z" fill="#EB6C5F"/>
<path d="M34.7938 24.3999H36.7003L36.2237 24.638L34.9129 24.876L34.7938 24.995H34.198L34.3172 24.638L34.7938 24.3999Z" fill="#6D8232"/>
<path d="M56.8379 22.6143H57.0762L57.4337 23.4474L57.672 23.2094L57.5528 24.0425L57.1954 24.1616L56.7188 23.3284V22.7333L56.8379 22.6143Z" fill="#708834"/>
<path d="M58.0294 79.9846H58.2677L58.0294 80.4607L57.6719 80.6988H57.3145V80.9368L56.7187 81.1749L56.2421 81.2939L56.3612 80.9368L57.6719 80.2227L58.0294 79.9846Z" fill="#E66155"/>
<path d="M51.595 3.57056H52.0716L51.9525 4.16568L51.4759 4.52275L51.3567 4.16568L50.6418 4.64177L50.4034 4.52275L51.3567 3.80861H51.595V3.57056Z" fill="#718935"/>
<path d="M37.2961 32.6128H37.5344V33.3269H37.2961L37.1769 33.803L36.9386 34.0411L36.8195 33.0889H37.0578V32.8508H37.2961V32.6128Z" fill="#F17567"/>
<path d="M117.846 92.9578L118.442 93.1958L118.68 93.7909H118.442V93.5529L118.085 93.4339L118.204 94.7431L117.965 94.5051L117.846 93.91V92.9578Z" fill="#D5534A"/>
<path d="M34.6746 42.1348L35.1512 42.4918L35.5087 42.6109V42.8489L35.1512 42.9679H34.3171L34.4363 42.4918H34.6746V42.1348Z" fill="#D65A51"/>
<path d="M62.7957 21.9006H63.5106L63.6298 22.3767L63.034 22.2577H60.8892L61.3658 22.0197L62.7957 21.9006Z" fill="#708734"/>
<path d="M38.0111 121.167L39.0835 121.405L39.7985 121.762V122L39.2027 121.881L38.2494 121.524V121.286L38.0111 121.167Z" fill="#CD4740"/>
<path d="M31.1 118.072L31.6958 118.191L33.1256 118.905V119.143L32.4107 118.905L31.1 118.191V118.072Z" fill="#CC453E"/>
<path d="M45.0414 53.5608H45.2797L45.0414 54.1559L44.3264 55.4652L44.2073 55.1081L44.9222 53.6798L45.0414 53.5608Z" fill="#F07163"/>
<path d="M15.1329 104.027L15.7287 104.384L16.3245 105.098L16.2053 105.336L15.4904 104.741L15.1329 104.265V104.027Z" fill="#CE4941"/>
<path d="M85.3164 67.1299H85.4356L85.5547 67.9631V69.0343L85.3164 68.7962L85.1973 67.725L85.3164 67.1299Z" fill="#E35E52"/>
</svg>
