<svg width="190" height="190" viewBox="0 0 190 190" fill="none" xmlns="http://www.w3.org/2000/svg">
<path d="M129.697 67.9106C130.735 71.1712 130.875 70.8627 134.15 69.6732L133.222 67.54C133.338 67.5184 133.478 67.5624 133.594 67.54C140.492 81.1307 135.72 96.8882 129.883 109.937C121.428 128.835 107.059 145.902 87.9491 154.561C76.4018 159.793 61.9479 162.367 49.2627 161.797C45.663 161.636 40.8344 161.204 37.4805 159.942C51.9939 162.809 73.8794 156.965 86.7433 150.108C100.347 142.856 111.64 130.94 119.121 117.544C126.141 104.975 133.023 85.1067 130.347 70.6937C126.033 70.8066 121.747 70.0887 117.914 68.0959C116.385 71.4401 111.582 75.4662 107.802 75.3326C112.881 72.6848 115.321 68.3476 115.873 62.715C119.637 66.6298 124.337 68.0468 129.697 67.9106Z" fill="#A01C0A"/>
<path d="M106.134 74.0322C102.46 69.9359 101.17 67.4735 100.196 62.0648C100.167 61.9075 99.8277 61.9902 99.8243 61.972C99.7697 61.6414 100.047 59.0631 99.7317 58.4462C96.2144 61.6142 89.9439 63.4971 85.259 63.8277C83.7327 63.9356 80.8082 63.9517 81.0842 63.4568C89.0751 59.9854 90.8079 51.0166 105.484 50.0973C108.343 41.9238 112.603 33.7725 120.049 28.9444C121.665 28.4747 123.592 27.0353 125.523 26.5324C128.242 25.8238 131.205 25.7028 133.873 26.7178C134.341 26.8962 136.88 28.508 137.027 28.7589C137.675 29.8717 135.748 34.3249 133.687 34.6968C130.11 35.3409 125.288 28.8124 117.173 34.5113C113.104 37.3689 109.626 43.9528 109.473 48.8908C109.367 52.2745 111.085 51.7403 112.071 54.2723C114.665 60.9379 111.75 69.8099 106.134 74.0322Z" fill="#5BB734"/>
<path d="M111.329 50.4677C114.97 52.5128 114.441 56.8061 116.152 59.0962C119.582 63.6845 128.938 65.9134 134.429 65.1262L133.594 64.0133C135.093 64.8975 136.382 65.4498 138.047 65.9614C136.631 66.4872 135.072 67.2427 133.594 67.5388C133.479 67.5613 133.338 67.5174 133.223 67.5388C132.045 67.7471 130.9 67.8788 129.697 67.9094C124.338 68.0462 119.638 66.6281 115.874 62.7146C115.322 68.3464 112.882 72.6836 107.803 75.3311C106.7 75.2923 106.923 74.9737 106.875 74.9604C106.655 74.647 106.387 74.3162 106.133 74.0323C111.75 69.8095 114.665 60.938 112.071 54.2719C111.085 51.7409 109.367 52.2749 109.472 48.8913C109.627 43.9527 113.104 37.3683 117.173 34.5115C125.288 28.8123 130.11 35.3406 133.686 34.6963C135.748 34.3257 137.675 29.8711 137.026 28.7592C136.88 28.5081 134.342 26.8969 133.872 26.7183C131.204 25.7034 128.242 25.8239 125.523 26.5324C123.592 27.0358 121.665 28.4744 120.049 28.9451C125.671 25.3001 132.739 23.5766 137.676 29.2228C134.268 43.6679 129.647 36.3167 127.192 35.068C118.577 30.6848 110.433 47.3292 111.329 50.4677Z" fill="#479E38"/>
<path d="M99.8246 61.9726C95.6883 65.2138 89.7918 66.3462 84.6096 65.8692C82.6928 65.6924 80.9181 65.046 79.1362 64.385V64.0137C79.8193 63.9863 80.4729 63.7224 81.0843 63.4568C80.8083 63.9524 83.7332 63.9362 85.2593 63.8281C89.9436 63.4972 96.2145 61.6151 99.7317 58.4473C100.047 59.0648 99.7697 61.6425 99.8246 61.9726Z" fill="#479E38"/>
<path d="M106.133 74.0329C106.387 74.3173 106.654 74.6474 106.875 74.9609C102.154 73.6879 99.5166 69.2589 97.8765 64.9415C93.886 67.5858 88.694 68.3882 84.2383 66.4259C84.3632 66.3002 84.518 66.0346 84.61 65.8688C89.791 66.3458 95.6888 65.2134 99.8246 61.9726C99.8278 61.9914 100.167 61.9081 100.196 62.0653C101.169 67.475 102.46 69.9363 106.133 74.0329Z" fill="#A01C0A"/>
<path d="M133.223 67.5392L134.151 69.6724C130.876 70.8617 130.736 71.1703 129.697 67.9095C130.901 67.8791 132.044 67.7474 133.223 67.5392Z" fill="#8C1808"/>
<path d="M133.594 64.0127L134.429 65.1256C128.937 65.9131 119.583 63.684 116.153 59.0957C114.441 56.8059 114.969 52.5121 111.328 50.4679C124.511 52.2048 128.121 60.7847 133.594 64.0127Z" fill="#5BB734"/>
<path d="M117.73 54.179C119.804 53.8809 125.01 58.2066 125.801 60.3945C124.056 59.3657 122.736 57.7206 121.07 56.5916C120.623 56.2884 117.174 54.7878 117.266 54.4571C117.398 54.4404 117.703 54.1832 117.73 54.179Z" fill="#5BB734"/>
<path d="M106.875 74.9606C106.924 74.9737 106.7 75.2927 107.803 75.3319C111.582 75.4658 116.386 71.44 117.915 68.0948C121.747 70.0885 126.033 70.8059 130.347 70.6932C133.023 85.1063 126.14 104.974 119.121 117.544C111.64 130.939 100.347 142.855 86.7435 150.107C73.8797 156.964 51.9941 162.808 37.4807 159.941C36.6748 159.637 35.9076 159.549 35.2541 158.828C32.0613 155.306 40.0971 154.308 46.4796 150.849C65.5026 140.539 74.3467 118.963 77.1877 98.4322C78.3885 89.7555 77.9609 72.7408 84.2381 66.4259C88.6932 68.3878 93.886 67.5856 97.8758 64.9414C99.5162 69.2586 102.154 73.6875 106.875 74.9606Z" fill="#C5220C"/>
<path d="M89.155 69.0241C99.9604 67.5182 101.178 75.7906 94.9071 74.9618C94.0069 74.8423 92.0006 73.5424 91.5671 73.477C89.27 73.1291 88.1278 76.4323 86.1861 75.3323C84.7622 74.5252 85.3017 69.5606 89.155 69.0241Z" fill="#FF792B"/>
<path d="M79.8781 106.319C82.4392 105.968 79.7832 115.753 79.2285 117.359C78.7124 118.854 75.8971 125.47 73.7545 124.688C71.8898 124.007 78.4804 106.51 79.8781 106.319Z" fill="#FF792B"/>
<path d="M116.246 100.195C124.157 99.066 126.105 104.811 119.771 105.39C112.288 106.074 111.248 100.908 116.246 100.195Z" fill="#FF5444"/>
<path d="M83.4035 100.01C90.1809 99.5923 91.3215 104.264 86.1863 105.205C78.0329 106.699 76.5185 100.434 83.4035 100.01Z" fill="#FF5444"/>
<path d="M98.1543 105.577C100.216 105.561 102.222 105.483 104.277 105.391C105.004 105.359 105.685 105.221 106.411 105.205C106.27 110.457 97.085 110.779 96.4844 105.483C97.0595 105.178 97.5987 105.58 98.1543 105.577Z" fill="white"/>
<path d="M71.7145 127.47C74.1057 127.19 72.1919 133.717 69.1167 136.005C62.1898 141.16 70.4795 127.615 71.7145 127.47Z" fill="#FF792B"/>
<path d="M98.1549 105.576C97.6001 105.58 97.0605 105.178 96.4852 105.483C97.0856 110.778 106.271 110.457 106.412 105.205C105.685 105.22 105.005 105.358 104.278 105.39L107.525 104.277C107.788 112.45 95.7498 112.644 95.3716 104.741C96.4058 104.92 98.2832 105.133 98.1549 105.576Z" fill="#421F14"/>
<path d="M95.1863 86.8364C90.1033 82.1108 82.8987 85.4171 82.7544 92.2168C82.0213 84.6527 90.6452 81.0825 95.1863 86.8364Z" fill="#421F14"/>
<path d="M88.5983 77.9299C91.8562 77.3487 95.9946 80.2044 89.3406 79.0426C83.4654 82.3088 86.4483 78.3128 88.5983 77.9299Z" fill="#421F14"/>
<path d="M113.647 77.9301C115.849 77.6335 118.236 79.1444 118.379 79.8784C118.803 82.0489 116.318 78.0169 111.607 79.4148C110.727 79.0679 112.967 78.0213 113.647 77.9301Z" fill="#421F14"/>
<path d="M120.42 91.6604C120.278 94.3865 119.261 97.4066 116.987 99.0821C110.11 104.15 102.222 95.2671 107.803 87.2071C112.492 82.2137 119.833 84.99 120.42 91.6604Z" fill="white"/>
<path d="M120.42 91.6602C119.833 84.9902 112.492 82.2138 107.803 87.2071C111.905 81.2836 120.814 84.0815 120.42 91.6602Z" fill="#421F14"/>
<path d="M111.607 87.949C117.1 87.0409 118.227 94.6096 117.08 95.649C116.915 95.7991 113.605 94.9468 116.152 97.69C111.779 101.946 106.405 98.1238 107.246 92.4953C107.77 88.9934 108.539 91.9165 110.123 91.4747C110.786 91.2891 111.726 89.4801 110.4 88.5981C110.406 88.3464 111.408 87.9823 111.607 87.949Z" fill="#421F14"/>
<path d="M95.1867 86.8352C97.6688 89.9799 98.103 94.5794 95.5573 97.875C91.8004 102.738 83.5472 100.403 82.7549 92.2158C82.8985 85.4161 90.1033 82.1099 95.1867 86.8352Z" fill="white"/>
<path d="M90.6394 87.7644C95.8074 87.5204 96.8328 94.7443 95.5565 95.8351C95.4497 95.9263 93.1373 94.8285 93.5157 96.577C93.6264 97.0888 95.6012 97.3063 93.4233 98.7115C89.7982 101.049 85.1225 97.5911 85.7229 92.6809C86.2145 88.6596 87.2066 92.4294 88.9702 91.2895C90.8821 90.0529 86.8238 87.9435 90.6394 87.7644Z" fill="#421F14"/>
<path d="M101.221 104.36C101.221 104.36 98.2444 100.346 93.2945 102.788C88.3781 105.263 77.3412 106.801 75 104.36C75 104.36 75.2676 110.714 82.659 111.383C90.0503 112.019 96.4049 104.861 101.221 104.36Z" fill="#361910"/>
<path d="M101.221 104.36C101.221 104.36 104.198 100.346 109.148 102.788C114.064 105.263 125.101 106.801 127.442 104.36C127.442 104.36 127.175 110.714 119.783 111.383C112.392 112.019 106.037 104.861 101.221 104.36Z" fill="#361910"/>
<path d="M106.308 52.725C106.387 52.6341 147.075 70.853 133 101.5C133 101.5 135.436 99.4524 140.581 87.1371C145.721 74.8551 166.121 37.8477 131.604 17.2319C131.604 17.2319 110.286 34.0858 109.798 37.8334C109.344 41.5854 106.308 52.725 106.308 52.725Z" fill="#FF5444"/>
<path d="M131.633 17.2694C131.633 17.2694 110.316 34.1233 109.828 37.871C109.34 41.6186 106.304 52.7582 106.304 52.7582C106.304 52.7582 106.685 52.9427 107.338 53.365C110.696 49.856 114.14 46.4595 117.421 43.2778C128.965 32.0656 132.768 22.5437 133.689 18.5825C133.04 18.127 132.353 17.7004 131.633 17.2694Z" fill="#CE2711"/>
<path d="M131.633 17.2693C132.154 17.6743 130.19 29.3918 115.21 43.9343C100.231 58.4767 77.5 67.9996 79 85.4996C78.9119 84.881 69 73.9995 67.8516 48.8983C71.5002 18.4994 103.852 -5.60614 131.633 17.2693Z" fill="#FF5444"/>
<path d="M130.47 18.3324C130.47 18.3324 130.291 18.5675 129.972 19.015C129.652 19.4624 129.16 20.1162 128.532 20.9535C127.904 21.7908 127.112 22.7768 126.191 23.9176C125.27 25.0585 124.224 26.3253 123.025 27.6833C121.86 29.0472 120.541 30.5024 119.109 32.026C117.676 33.5496 116.167 35.1188 114.488 36.6868C112.842 38.2609 111.087 39.8745 109.305 41.4534C107.517 43.0611 105.691 44.6916 103.903 46.2993C102.077 47.9298 100.289 49.5375 98.5287 51.1799C96.8013 52.8283 95.0845 54.4192 93.5322 56.04C91.9469 57.6548 90.4656 59.2587 89.1646 60.8062C87.8583 62.3825 86.6664 63.8904 85.6824 65.3766C84.7036 66.834 83.9051 68.235 83.2973 69.522C82.9795 70.1481 82.7605 70.7922 82.5242 71.3439C82.4061 71.6197 82.3209 71.9016 82.2356 72.1834C82.1766 72.3213 82.1557 72.4365 82.0966 72.5744C82.0704 72.7183 82.0166 72.8275 81.9957 72.9426C81.9157 73.1956 81.8738 73.4259 81.7991 73.6502C81.7243 73.8745 81.7206 74.0819 81.6511 74.2774C81.5831 74.6516 81.4874 74.991 81.4732 75.256C81.4067 75.8089 81.3544 76.0967 81.3544 76.0967C81.3544 76.0967 81.3738 75.8029 81.3693 75.2669C81.3835 75.0018 81.4133 74.6505 81.4484 74.2703C81.485 74.0688 81.4888 73.8614 81.5306 73.6311C81.5725 73.4009 81.6143 73.1706 81.6614 72.9116C81.6823 72.7964 81.7085 72.6525 81.7346 72.5086C81.7608 72.3647 81.8146 72.2556 81.8408 72.1116C81.926 71.8298 81.9783 71.542 82.0635 71.2601C82.2392 70.6677 82.4582 70.0236 82.7483 69.3628C83.2956 68.035 84.0059 66.5585 84.9293 65.0316C86.7761 61.9777 89.42 58.6524 92.5352 55.3533C94.0927 53.7038 95.7595 52.0146 97.4868 50.3662C99.2141 48.7177 101.013 47.0525 102.839 45.422C104.665 43.7915 106.485 42.1898 108.306 40.5881C109.198 39.7986 110.089 39.0092 110.98 38.2197C111.872 37.4303 112.725 36.6636 113.545 35.891C115.219 34.3517 116.788 32.8233 118.276 31.3692C119.737 29.8804 121.11 28.4947 122.369 27.1775C124.85 24.5658 126.857 22.3141 128.262 20.7557C129.661 19.2262 130.47 18.3324 130.47 18.3324Z" fill="#CE2711"/>
<path d="M112.034 53.2715C112.034 53.2715 112.135 53.4005 112.351 53.5507C112.568 53.701 112.928 53.8912 113.364 54.1136C113.82 54.3305 114.357 54.6038 114.99 54.9038C115.623 55.2037 116.317 55.5654 117.092 55.9835C118.614 56.8009 120.373 57.8412 122.195 59.1237C123.095 59.7677 124.009 60.4601 124.935 61.201C125.861 61.9419 126.758 62.7421 127.635 63.5478C128.073 63.9506 128.518 64.3777 128.942 64.8102C129.366 65.2427 129.775 65.7048 130.185 66.167C130.573 66.6346 130.969 67.1264 131.301 67.6346C131.634 68.1428 131.953 68.6806 132.244 69.1997C132.521 69.7484 132.771 70.2783 132.98 70.8191C133.188 71.36 133.376 71.9062 133.536 72.4337C133.858 73.4887 134.083 74.517 134.277 75.4242C134.456 76.3611 134.596 77.2307 134.704 77.9792C134.791 78.7331 134.879 79.4089 134.936 79.9637C134.993 80.5184 135.039 80.9465 135.046 81.2293C135.081 81.5309 135.078 81.6871 135.078 81.6871C135.078 81.6871 134.94 81.0761 134.681 80.0048C134.562 79.4664 134.411 78.8069 134.241 78.0747C134.064 77.3183 133.869 76.4892 133.634 75.593C133.399 74.6967 133.097 73.7143 132.767 72.7133C132.417 71.7176 131.992 70.6899 131.464 69.6893C130.914 68.6942 130.268 67.7505 129.517 66.8341C129.156 66.3853 128.752 65.9473 128.349 65.5094C127.946 65.0714 127.522 64.639 127.105 64.2307C126.263 63.3899 125.366 62.5897 124.502 61.8325C123.617 61.0807 122.739 60.3532 121.859 59.7037C120.114 58.3752 118.398 57.2459 116.919 56.3395C116.179 55.8864 115.5 55.495 114.875 55.1411C114.271 54.7818 113.727 54.4843 113.285 54.2377C112.837 53.9669 112.519 53.7658 112.295 53.5913C112.114 53.4059 112.034 53.2715 112.034 53.2715Z" fill="#CE2711"/>
<path d="M117.246 47.4717C117.246 47.4717 117.319 47.6836 117.592 47.9215C117.86 48.1925 118.29 48.5183 118.881 48.8988C119.472 49.2793 120.15 49.7723 120.956 50.3157C121.763 50.8591 122.655 51.515 123.606 52.2458C124.556 52.9767 125.56 53.8156 126.584 54.7584C127.608 55.7012 128.656 56.7146 129.654 57.8564C130.657 58.965 131.642 60.2063 132.585 61.5095C133.529 62.8128 134.397 64.1738 135.195 65.5593C135.992 66.9448 136.786 68.3635 137.433 69.8644C137.741 70.6126 138.048 71.3609 138.252 72.1294C138.488 72.9022 138.621 73.6953 138.721 74.484C138.82 75.2727 138.821 76.0484 138.825 76.791C138.796 77.5293 138.701 78.2589 138.611 78.9554C138.396 80.344 138.095 81.6202 137.807 82.7969C137.519 83.9736 137.182 85.0089 136.924 85.9535C136.633 86.8937 136.359 87.7012 136.14 88.3472C135.698 89.6725 135.395 90.4425 135.395 90.4425C135.395 90.4425 135.499 89.6466 135.746 88.2623C135.994 86.8779 136.348 84.9342 136.792 82.5635C137.014 81.3782 137.211 80.1223 137.35 78.7913C137.404 78.1237 137.461 77.4229 137.448 76.7467C137.472 76.0416 137.426 75.361 137.351 74.6429C137.163 73.2356 136.743 71.7981 136.149 70.4054C135.559 68.9795 134.865 67.5737 134.105 66.1594C133.34 64.7782 132.538 63.4259 131.661 62.1312C130.784 60.8366 129.861 59.6371 128.9 58.4665C127.004 56.1959 124.998 54.2484 123.176 52.6958C122.267 51.903 121.412 51.2183 120.648 50.6128C119.883 50.0074 119.206 49.5144 118.66 49.0387C118.111 48.5962 117.686 48.2372 117.455 47.9374C117.286 47.6793 117.246 47.4717 117.246 47.4717Z" fill="#CE2711"/>
<path d="M121.756 41.582L123.025 42.4555L124.261 43.3247C125.096 43.9056 125.931 44.4865 126.729 45.0963C127.56 45.7103 128.361 46.2869 129.188 46.9342C129.981 47.5771 130.812 48.1911 131.572 48.8297L131.601 48.8672C132.434 49.7178 133.268 50.5683 134.093 51.4852C134.885 52.3977 135.643 53.3059 136.393 54.2805C136.768 54.7678 137.11 55.2508 137.452 55.7337L137.505 55.8419L137.592 55.9543L137.703 56.1374L137.958 56.5079C138.127 56.766 138.263 57.0197 138.432 57.2778C138.736 57.7896 139.073 58.3057 139.345 58.8132C139.649 59.325 139.916 59.8657 140.216 60.4107L140.614 61.2383L140.979 62.0615C141.246 62.6022 141.442 63.1673 141.672 63.7369C141.868 64.302 142.064 64.8672 142.223 65.4613C142.419 66.0265 142.507 66.645 142.633 67.2347C142.721 67.8533 142.813 68.4387 142.868 69.0529C142.896 69.3601 142.923 69.6672 142.917 69.97C142.912 70.2728 142.939 70.5799 142.9 70.8784C142.856 71.4797 142.811 72.081 142.7 72.6737C142.623 73.2706 142.412 73.8503 142.273 74.4055C142.317 73.8042 142.428 73.2116 142.402 72.6348C142.446 72.0335 142.387 71.4524 142.361 70.8757C142.334 70.5685 142.302 70.2946 142.274 69.9875C142.258 69.8505 142.243 69.7135 142.231 69.5434L142.15 69.1281C142.058 68.5427 141.928 67.9861 141.765 67.4253C141.7 67.147 141.602 66.8644 141.504 66.5818C141.439 66.3035 141.34 66.0209 141.238 65.7715C141.042 65.2063 140.841 64.6743 140.608 64.138C140.509 63.8554 140.374 63.6016 140.238 63.3479C140.103 63.0941 140.005 62.8115 139.869 62.5578L139.466 61.7634L139.06 61.0021C138.788 60.4946 138.484 59.9828 138.18 59.471C137.875 58.9592 137.567 58.4806 137.262 57.9687C136.954 57.4901 136.62 56.9408 136.307 56.4953C135.966 56.0124 135.624 55.5294 135.278 55.0796C134.59 54.1468 133.835 53.2054 133.072 52.3304C132.314 51.4221 131.551 50.5471 130.721 49.6634L130.75 49.7008L129.635 48.6788L128.52 47.6567L126.253 45.6414C125.497 44.9697 124.742 44.2979 123.986 43.6262C123.259 42.9919 122.508 42.287 121.756 41.582Z" fill="#CE2711"/>
<path d="M126.3 35.6992C126.3 35.6992 126.329 35.7367 126.353 35.8074C126.378 35.878 126.469 35.9573 126.555 36.0697C126.761 36.299 127.105 36.5123 127.568 36.8424C128.035 37.1393 128.597 37.4823 129.246 37.9378C129.899 38.3602 130.615 38.8243 131.388 39.3634C132.161 39.9025 132.991 40.5166 133.847 41.2013C134.702 41.886 135.582 42.6414 136.453 43.463C136.903 43.8926 137.32 44.3179 137.77 44.7475C138.186 45.1728 138.632 45.6355 139.04 46.1271C139.861 47.0772 140.673 48.0935 141.414 49.1344C142.156 50.1753 142.86 51.2451 143.493 52.3393C144.164 53.4047 144.693 54.5192 145.227 55.6006C145.761 56.6819 146.228 57.7546 146.596 58.8143C146.964 59.874 147.237 60.8876 147.348 61.8465C147.42 62.3281 147.459 62.8053 147.469 63.2451C147.48 63.6849 147.457 64.1204 147.442 64.4895C147.409 65.2609 147.285 65.9531 147.216 66.4837C147.11 67.0432 147.02 67.47 146.953 67.7311C146.881 68.0252 146.826 68.1867 146.826 68.1867C146.826 68.1867 146.848 68.0209 146.853 67.7181C146.859 67.4153 146.882 66.9798 146.918 66.4449C146.921 65.9056 146.941 65.2336 146.903 64.4867C146.865 63.7398 146.741 62.8805 146.555 61.9793C146.336 61.0738 146.021 60.1222 145.607 59.1577C145.193 58.1931 144.684 57.1825 144.108 56.1632C143.566 55.1482 142.928 54.0871 142.29 53.026C141.653 51.9649 140.945 50.9283 140.232 49.9249C139.52 48.9215 138.741 47.9094 137.982 47.0012C137.57 46.5427 137.19 46.0886 136.778 45.6302C136.398 45.1761 135.982 44.7508 135.565 44.3255C134.764 43.4793 133.955 42.6994 133.137 41.9859C132.353 41.2766 131.564 40.6005 130.87 39.9706C130.139 39.3695 129.47 38.8101 128.892 38.3301C128.28 37.8458 127.797 37.4119 127.371 37.0529C126.946 36.694 126.616 36.3812 126.48 36.1274C126.394 36.015 126.34 35.9068 126.316 35.8362C126.329 35.7367 126.3 35.6992 126.3 35.6992Z" fill="#CE2711"/>
<path d="M130.848 29.7812C130.848 29.7812 130.901 29.8894 131.05 30.0436C131.198 30.1979 131.409 30.3939 131.752 30.6073C132.095 30.8206 132.5 31.0757 132.968 31.3726C133.435 31.6696 133.964 32.0083 134.56 32.3557C135.122 32.6987 135.742 33.1167 136.391 33.5722C137.04 34.0277 137.718 34.5207 138.354 35.0757C139.028 35.6018 139.692 36.1943 140.357 36.7868C141.018 37.4124 141.678 38.0381 142.297 38.7257C142.92 39.3802 143.535 40.101 144.083 40.8132C144.664 41.5297 145.179 42.2376 145.661 42.9411C146.142 43.6447 146.591 44.3439 147.007 45.0388C147.426 45.7005 147.775 46.3868 148.067 46.9981C148.391 47.6137 148.654 48.1876 148.859 48.6864C149.097 49.1896 149.273 49.651 149.396 50.0042C149.551 50.3618 149.645 50.6775 149.719 50.8895C149.792 51.1014 149.813 51.2052 149.813 51.2052C149.813 51.2052 149.557 50.8347 149.142 50.1398C148.915 49.8068 148.664 49.4031 148.356 48.9245C148.043 48.479 147.705 47.9628 147.343 47.3761C146.944 46.8181 146.548 46.227 146.091 45.5941C145.634 44.9612 145.143 44.324 144.624 43.6493C144.105 42.9746 143.548 42.3288 142.996 41.6498C142.41 40.9664 141.853 40.3206 141.23 39.6661C140.64 39.0159 140.013 38.3946 139.386 37.7733C138.758 37.152 138.127 36.5638 137.491 36.0088C136.855 35.4538 136.252 34.9031 135.678 34.39C135.071 33.8724 134.525 33.3967 134.009 32.9585C133.493 32.5203 133.005 32.1195 132.58 31.7606C132.154 31.4017 131.791 31.0845 131.523 30.8135C131.221 30.5382 131.019 30.2758 130.941 30.097C130.888 29.9889 130.864 29.9182 130.835 29.8807C130.843 29.8144 130.848 29.7812 130.848 29.7812Z" fill="#CE2711"/>
<path d="M121.352 15.9307C121.352 15.9307 120.708 16.9935 119.5 18.7587C118.878 19.6558 118.163 20.7431 117.298 21.9459C116.429 23.1818 115.443 24.5375 114.34 26.0128C113.237 27.4882 112.018 29.0832 110.723 30.736C109.396 32.3844 108.022 34.128 106.544 35.8918C105.067 37.6556 103.514 39.4771 101.895 41.29C100.276 43.1029 98.6532 44.9489 97.0344 46.7618C95.4112 48.6079 93.7592 50.4164 92.2067 52.2379C90.6542 54.0594 89.1348 55.8853 87.7192 57.6909C86.3037 59.4965 85.0251 61.2862 83.8547 63.0226C82.7174 64.7633 81.7171 66.488 80.8956 68.1349C80.0741 69.7818 79.4689 71.3219 79.0135 72.7466C78.5582 74.1713 78.2615 75.4144 78.057 76.467C78.0224 76.7323 77.9547 76.9933 77.9245 77.2255C77.8943 77.4576 77.864 77.6898 77.8381 77.8888C77.8122 78.0878 77.7863 78.2868 77.7647 78.4526C77.7431 78.6184 77.7215 78.7842 77.7374 78.9212C77.6972 79.4893 77.6583 79.7878 77.6583 79.7878C77.6583 79.7878 77.664 79.485 77.6379 78.9083C77.6221 78.7713 77.6436 78.6055 77.6321 78.4353C77.6537 78.2695 77.6464 78.0662 77.6723 77.8672C77.6651 77.6639 77.6953 77.4317 77.6923 77.1953C77.7226 76.9631 77.7571 76.6978 77.7585 76.4281C77.8635 75.3625 78.0694 74.0402 78.4627 72.5737C78.8228 71.1029 79.3704 69.4878 80.1342 67.7659C80.8648 66.0398 81.8031 64.2732 82.9159 62.4619C84.0286 60.6506 85.2826 58.7902 86.6737 56.9139C88.0604 55.0708 89.5552 53.1744 91.112 51.3197C92.6689 49.465 94.2921 47.619 95.9484 45.7772C97.6004 43.9687 99.2236 42.1226 100.838 40.3429C102.453 38.5632 104.067 36.7835 105.54 35.0528C107.047 33.3265 108.516 31.629 109.872 30.0181C111.229 28.4071 112.506 26.887 113.671 25.4535C114.835 24.02 115.917 22.7104 116.843 21.5495C117.77 20.3885 118.58 19.3472 119.261 18.5252C119.912 17.6657 120.439 16.9922 120.797 16.5667C121.152 16.1744 121.352 15.9307 121.352 15.9307Z" fill="#CE2711"/>
<path d="M115.905 12.6923C115.905 12.6923 115.864 12.7543 115.78 12.8784C115.696 13.0024 115.608 13.1596 115.446 13.3745C115.12 13.8042 114.664 14.4532 114.026 15.2132C113.416 16.0108 112.652 16.9568 111.771 18.0226C110.89 19.0884 109.889 20.3071 108.774 21.6123C107.66 22.9175 106.462 24.3467 105.222 25.8379C103.95 27.3249 102.597 28.9027 101.203 30.5424C99.8138 32.1491 98.3448 33.8466 96.8759 35.544C95.407 37.2415 93.8717 38.9304 92.3365 40.6192C90.8012 42.3081 89.2371 43.9595 87.7393 45.6195C86.9926 46.4329 86.2416 47.2795 85.4949 48.0929C84.7813 48.9106 84.0346 49.724 83.3542 50.5461C81.9977 52.157 80.7407 53.7809 79.6207 55.3889C78.5339 57.0013 77.6215 58.5689 76.8836 60.0917C76.1457 61.6145 75.6197 63.0638 75.2437 64.3977C74.8677 65.7315 74.6127 66.9125 74.4875 67.8743C74.3896 68.3675 74.3666 68.803 74.3148 69.2009C74.263 69.5989 74.2241 69.8974 74.2227 70.167C74.1868 70.702 74.1479 71.0005 74.1479 71.0005C74.1479 71.0005 74.1493 70.7309 74.1189 70.1873C74.1203 69.9176 74.0971 69.5773 74.1115 69.2082C74.1301 68.8059 74.1199 68.3661 74.1847 67.8686C74.2479 66.865 74.4077 65.6379 74.6885 64.2579C74.9694 62.8779 75.4376 61.3537 76.1179 59.7559C76.7649 58.1538 77.6571 56.4824 78.7194 54.7994C79.7817 53.1164 81.0141 51.4219 82.3792 49.7446C83.064 48.8894 83.7444 48.0673 84.4622 47.2164C85.1801 46.3655 85.9268 45.5521 86.6779 44.7055C88.1756 43.0455 89.7441 41.361 91.2793 39.6721C92.8477 37.9876 94.3455 36.3276 95.8765 34.6719C97.3742 33.0119 98.872 31.3519 100.29 29.7828C101.742 28.2179 103.123 26.6776 104.458 25.2325C105.793 23.7874 107.048 22.4331 108.192 21.1654C110.511 18.6343 112.434 16.5575 113.807 15.0835C114.478 14.3278 115.025 13.7581 115.346 13.3615C115.509 13.1466 115.663 12.9981 115.743 12.9072C115.864 12.7543 115.905 12.6923 115.905 12.6923Z" fill="#CE2711"/>
<path d="M104.969 13.7981C104.969 13.7981 104.927 13.8601 104.881 13.9553C104.834 14.0504 104.713 14.2033 104.588 14.3893C104.337 14.7614 103.932 15.282 103.406 15.9555C102.88 16.6291 102.241 17.3891 101.482 18.302C100.722 19.2149 99.8829 20.2187 98.9315 21.309C98.0132 22.4037 96.9825 23.5848 95.9057 24.8612C94.8332 26.1044 93.7146 27.4427 92.5253 28.8056C91.9329 29.4705 91.3361 30.1685 90.7393 30.8666C90.1093 31.5603 89.4794 32.254 88.8494 32.9477C87.5852 34.3683 86.2878 35.7846 84.9947 37.1677C83.6973 38.5839 82.371 39.9627 81.14 41.3876C79.8801 42.7751 78.6533 44.1668 77.5592 45.5758C76.4651 46.9848 75.4748 48.3736 74.6504 49.784C73.8259 51.1944 73.1428 52.5558 72.6341 53.8724C72.1254 55.1889 71.7912 56.4608 71.5449 57.5755C71.2942 58.7233 71.1315 59.7139 71.0236 60.5431C70.9488 61.3765 70.8624 62.0398 70.8395 62.4753C70.8165 62.9108 70.7819 63.1761 70.7819 63.1761C70.7819 63.1761 70.779 62.9396 70.7688 62.4998C70.7586 62.06 70.7455 61.3838 70.7539 60.5417C70.7956 59.7039 70.8299 58.6629 71.0142 57.5064C71.1985 56.3499 71.4376 55.0319 71.8886 53.6404C72.3396 52.2488 72.9362 50.775 73.7361 49.294C74.536 47.8129 75.4729 46.316 76.5713 44.8738C77.6697 43.4317 78.872 41.9693 80.103 40.5444C81.3673 39.1238 82.6647 37.7075 83.9621 36.2912C85.2595 34.8749 86.5569 33.4587 87.8499 32.0756C89.1099 30.6881 90.3698 29.3007 91.5879 27.9753C92.806 26.6499 93.9866 25.3533 95.1212 24.1519C96.2557 22.9506 97.3152 21.8069 98.3286 20.7583C100.318 18.6902 102.023 16.9897 103.191 15.7927C103.775 15.1941 104.242 14.7153 104.522 14.3807C104.68 14.199 104.764 14.075 104.843 13.9841C104.931 13.8269 104.969 13.7981 104.969 13.7981Z" fill="#CE2711"/>
<path d="M91.4315 18.0389C91.4315 18.0389 91.3436 18.1961 91.2096 18.4485C91.1591 18.5768 91.0005 18.7585 90.8795 18.9114C90.7252 19.0599 90.5666 19.2417 90.3663 19.4854C90.0073 19.9109 89.5691 20.4272 89.0516 21.0343C88.5673 21.6458 88.0079 22.315 87.3693 23.075C86.7639 23.8394 86.0878 24.6283 85.37 25.4792C84.6521 26.3301 83.8967 27.2099 83.137 28.1228C82.3442 29.0314 81.547 29.9731 80.7124 30.9437C79.9109 31.9187 79.0763 32.8893 78.2416 33.8599C77.4401 34.8348 76.6343 35.8429 75.866 36.8222C75.0977 37.8014 74.3957 38.7893 73.7601 39.7858C73.1576 40.7866 72.5926 41.7586 72.2222 42.7897C71.823 43.7833 71.5277 44.7566 71.303 45.7055C71.0451 46.65 70.8333 47.4993 70.6345 48.2492C70.4357 48.999 70.2455 49.6825 70.0769 50.2002C69.7355 51.2688 69.5207 51.8816 69.5207 51.8816C69.5207 51.8816 69.636 51.2558 69.8159 50.1325C69.8893 49.5687 70.0089 48.9097 70.1457 48.1181C70.2782 47.3596 70.3947 46.4641 70.5531 45.5067C70.7447 44.5535 70.916 43.4965 71.2907 42.4323C71.6321 41.3638 72.1481 40.2505 72.726 39.179C73.3372 38.1118 74.0478 37.0576 74.7916 36.0077C75.5354 34.9578 76.3412 33.9497 77.1802 32.946C77.986 31.9379 78.8206 30.9673 79.6552 29.9966C80.4899 29.026 81.3202 28.0886 82.1419 27.2175C82.9636 26.3464 83.7521 25.4709 84.4989 24.6575C85.2788 23.8484 85.9837 23.097 86.68 22.4119C87.3762 21.7268 87.9976 21.0995 88.5728 20.5673C89.148 20.0351 89.6482 19.5605 90.098 19.2144C90.3229 19.0413 90.5146 18.8639 90.6977 18.7528C90.8852 18.6086 90.9976 18.522 91.1144 18.4023C91.3479 18.1629 91.4315 18.0389 91.4315 18.0389Z" fill="#CE2711"/>
</svg>
