<svg width="1024" height="1024" viewBox="0 0 64 64" fill="none" xmlns="http://www.w3.org/2000/svg">
<path d="M48.8942 22.5718C49.2969 23.8358 49.351 23.7162 50.6208 23.2551L50.2609 22.4281C50.306 22.4197 50.3602 22.4368 50.4049 22.4281C53.0795 27.6969 51.2293 33.8058 48.9664 38.8645C45.6884 46.1912 40.1178 52.8076 32.7094 56.1645C28.2327 58.1929 22.6293 59.1908 17.7114 58.9698C16.3159 58.9072 14.4439 58.7398 13.1437 58.2505C18.7703 59.362 27.2549 57.0964 32.2419 54.4381C37.5158 51.6265 41.8938 47.0072 44.7942 41.8138C47.5155 36.9409 50.1837 29.2384 49.1462 23.6507C47.4738 23.6945 45.8124 23.4162 44.3264 22.6436C43.7337 23.9401 41.8714 25.5009 40.4062 25.4491C42.375 24.4226 43.321 22.7412 43.5352 20.5575C44.9944 22.0752 46.8165 22.6246 48.8942 22.5718Z" fill="#A01C0A"/>
<path d="M39.7592 24.9453C38.3349 23.3572 37.8347 22.4025 37.4572 20.3057C37.4462 20.2447 37.3145 20.2768 37.3132 20.2697C37.292 20.1416 37.3994 19.142 37.2773 18.9029C35.9137 20.131 33.4827 20.861 31.6665 20.9891C31.0748 21.031 29.941 21.0372 30.048 20.8453C33.1459 19.4995 33.8177 16.0225 39.5072 15.6661C40.6158 12.4974 42.2671 9.33731 45.1537 7.46555C45.7805 7.28345 46.5273 6.72544 47.276 6.53045C48.3303 6.25574 49.4787 6.20885 50.5131 6.60235C50.6948 6.67151 51.6791 7.29635 51.7358 7.39365C51.987 7.82505 51.2403 9.55145 50.4412 9.69564C49.0544 9.94534 47.1849 7.41436 44.0389 9.62374C42.4614 10.7316 41.1132 13.284 41.0538 15.1984C41.0128 16.5102 41.6787 16.3031 42.0608 17.2847C43.0667 19.8688 41.9366 23.3083 39.7592 24.9453Z" fill="#5BB734"/>
<path d="M41.7733 15.8097C43.1848 16.6025 42.9797 18.2669 43.6431 19.1548C44.9731 20.9336 48.6 21.7977 50.7287 21.4925L50.4049 21.061C50.9864 21.4038 51.4859 21.618 52.1315 21.8163C51.5825 22.0201 50.9781 22.313 50.4049 22.4278C50.3606 22.4365 50.306 22.4195 50.2613 22.4278C49.8045 22.5086 49.3608 22.5596 48.8945 22.5715C46.8168 22.6245 44.9944 22.0747 43.5354 20.5576C43.3213 22.7409 42.3753 24.4224 40.4065 25.4487C39.979 25.4337 40.0653 25.3102 40.0467 25.305C39.9612 25.1835 39.8575 25.0553 39.7589 24.9452C41.9367 23.3081 43.0668 19.8688 42.061 17.2845C41.6786 16.3033 41.0129 16.5103 41.0536 15.1985C41.1134 13.2839 42.4616 10.7313 44.0389 9.62377C47.1849 7.41429 49.0544 9.94518 50.441 9.69541C51.2401 9.55173 51.987 7.82476 51.7357 7.39371C51.6791 7.29634 50.6951 6.67173 50.513 6.60246C49.4787 6.20901 48.33 6.25572 47.276 6.53042C46.5275 6.72556 45.7805 7.28327 45.154 7.46575C47.3334 6.05266 50.0736 5.38452 51.9874 7.57341C50.6666 13.1735 48.8751 10.3236 47.9231 9.83949C44.5832 8.14023 41.4261 14.5929 41.7733 15.8097Z" fill="#479E38"/>
<path d="M37.3132 20.2697C35.7097 21.5262 33.4237 21.9652 31.4147 21.7803C30.6716 21.7118 29.9835 21.4612 29.2927 21.2049V21.061C29.5575 21.0503 29.8109 20.948 30.048 20.8451C29.941 21.0372 31.0749 21.0309 31.6665 20.989C33.4825 20.8607 35.9137 20.1311 37.2772 18.903C37.3992 19.1424 37.2919 20.1417 37.3132 20.2697Z" fill="#479E38"/>
<path d="M39.7591 24.9453C39.8575 25.0555 39.961 25.1835 40.0467 25.3051C38.2163 24.8115 37.1939 23.0945 36.558 21.4207C35.011 22.4459 32.9981 22.7569 31.2708 21.9962C31.3192 21.9474 31.3792 21.8445 31.4149 21.7802C33.4234 21.9651 35.7099 21.5261 37.3133 20.2697C37.3145 20.277 37.4461 20.2447 37.4571 20.3057C37.8346 22.4029 38.3351 23.3571 39.7591 24.9453Z" fill="#A01C0A"/>
<path d="M50.2612 22.4279L50.6207 23.2549C49.3512 23.716 49.2969 23.8357 48.8943 22.5715C49.3608 22.5597 49.8043 22.5087 50.2612 22.4279Z" fill="#8C1808"/>
<path d="M50.405 21.0608L50.7286 21.4922C48.5997 21.7975 44.9731 20.9333 43.6433 19.1545C42.9796 18.2668 43.1844 16.6022 41.7729 15.8097C46.8836 16.483 48.2831 19.8093 50.405 21.0608Z" fill="#5BB734"/>
<path d="M44.2548 17.2485C45.0587 17.1329 47.0769 18.8099 47.3838 19.6581C46.7072 19.2593 46.1953 18.6215 45.5495 18.1838C45.3763 18.0663 44.0392 17.4845 44.0748 17.3563C44.1259 17.3498 44.2441 17.2501 44.2548 17.2485Z" fill="#5BB734"/>
<path d="M40.0465 25.3051C40.0655 25.3101 39.9788 25.4338 40.4062 25.449C41.8714 25.5009 43.7336 23.9402 44.3265 22.6433C45.8123 23.4163 47.4739 23.6944 49.146 23.6507C50.1837 29.2384 47.5153 36.9407 44.7941 41.8137C41.8938 47.007 37.5157 51.6264 32.2419 54.438C27.2548 57.0963 18.7702 59.3619 13.1436 58.2504C12.8312 58.1327 12.5338 58.0983 12.2804 57.8188C11.0426 56.4535 14.158 56.0668 16.6324 54.7256C24.0072 50.7285 27.4359 42.3639 28.5373 34.4046C29.0028 31.0408 28.8371 24.4445 31.2706 21.9963C32.9978 22.7569 35.0109 22.4459 36.5577 21.4208C37.1936 23.0945 38.2162 24.8115 40.0465 25.3051Z" fill="#C5220C"/>
<path d="M29.5802 37.4619C30.5731 37.3258 29.5434 41.1192 29.3283 41.7418C29.1283 42.3216 28.0368 44.8866 27.2062 44.5833C26.4833 44.3192 29.0383 37.5361 29.5802 37.4619Z" fill="#FF792B"/>
<path d="M26.4154 45.662C27.3424 45.5534 26.6005 48.084 25.4083 48.971C22.7229 50.9692 25.9366 45.7182 26.4154 45.662Z" fill="#FF792B"/>
</svg>
