<svg width="47" height="47" viewBox="0 0 47 47" fill="none" xmlns="http://www.w3.org/2000/svg">
<g clip-path="url(#clip0_670_16013)">
<path d="M22.605 0H24.5098L24.6016 0.0458984L25.4277 0.206543L25.9785 0.367188L26.4834 0.550781L26.8965 0.734375L27.2637 0.917969L27.8145 1.21631L28.1587 1.42285L28.8013 1.79004L29.1914 2.01953L29.834 2.38672L30.4307 2.73096L30.9814 3.05225L31.4634 3.32764L33.2534 4.36035L33.8042 4.68164L34.4468 5.04883L34.9976 5.37012L35.6401 5.7373L36.1909 6.05859L36.8335 6.42578L37.3843 6.74707L38.0269 7.11426L39.1284 7.75684L39.771 8.12402L40.9644 8.8125L41.4692 9.13379L41.8594 9.43213L42.0889 9.61572L42.3413 9.84521L42.5249 10.0059L42.8232 10.3042L42.9839 10.4878L43.2822 10.855L43.5806 11.2681L43.6494 11.3828V11.4517L43.0986 11.7959L42.5938 12.1172L42.1577 12.3926L41.6069 12.7368L41.1021 13.0581L40.666 13.3335L40.1152 13.6777L38.9907 14.3892L37.6826 15.2153L37.1318 15.5596L36.627 15.8809L36.1909 16.1562L35.6401 16.5005L35.1353 16.8218L34.6992 17.0972L34.1484 17.4414L33.7124 17.7168L33.1616 18.061L32.4043 18.543L31.9683 18.8184L31.4175 19.1626L30.9126 19.4839L29.1685 20.5854L28.8013 20.8149L27.9292 21.3657L27.3784 21.71L26.4375 22.3066L26.0015 22.582L25.4507 22.9263L25.0605 23.1328L24.6475 23.2705L24.2803 23.3394L24.0737 23.3623H23.7983L23.3164 23.2935L22.9263 23.1787L22.5591 22.9951L22.1001 22.7197L21.0903 22.0771L19.9888 21.3887L19.4839 21.0674L18.9331 20.7231L18.4282 20.4019L17.8774 20.0576L17.0054 19.5068L16.4546 19.1626L15.9497 18.8413L15.3989 18.4971L14.5269 17.9463L13.9761 17.6021L13.4712 17.2808L12.9204 16.9365L12.0483 16.3857L11.4976 16.0415L10.6255 15.4907L10.0747 15.1465L8.33057 14.0449L7.77979 13.7007L7.34375 13.4253L6.79297 13.0811L5.48486 12.2549L4.93408 11.9106L3.99316 11.314L3.60303 11.0845L3.62598 10.9927L3.83252 10.7173L4.10791 10.396L4.13086 10.3501H4.17676L4.22266 10.2583L4.68164 9.79932L4.93408 9.59277L5.20947 9.36328L5.59961 9.08789L6.03564 8.8125L6.63232 8.46826L7.18311 8.14697L7.82568 7.77979L8.42236 7.43555L8.97314 7.11426L9.61572 6.74707L10.1665 6.42578L10.8091 6.05859L12.0024 5.37012L12.5532 5.04883L13.1958 4.68164L13.7466 4.36035L14.3433 4.01611L14.9858 3.64893L15.4219 3.39648L16.6152 2.70801L17.166 2.38672L17.7627 2.04248L18.4053 1.67529L19.002 1.33105L19.5527 1.00977L20.1265 0.711426L20.7461 0.458984L21.228 0.29834L21.7788 0.160645L22.605 0ZM23.2246 7.38965L22.7656 7.4585L22.2148 7.64209L21.8018 7.87158L21.5034 8.10107L21.228 8.35352L20.9756 8.65186L20.7231 9.06494L20.5625 9.43213L20.4478 9.82227L20.3789 10.2812V10.7402L20.4707 11.291L20.6084 11.7041L20.792 12.0713L20.9526 12.3237L21.2051 12.6221L21.5034 12.9204L21.8706 13.1729L22.2607 13.3794L22.6738 13.5171L22.9722 13.5859L23.1558 13.6089H23.8672L24.3262 13.5171L24.7163 13.3794L25.0835 13.1958L25.3589 13.0122L25.5884 12.8286L25.8867 12.5303L26.1621 12.1401L26.3687 11.75L26.5293 11.2681L26.5981 10.9009L26.6211 10.4189L26.5752 9.98291L26.4834 9.59277L26.3228 9.15674L26.1162 8.78955L25.9097 8.51416L25.6572 8.23877L25.3589 7.98633L24.9917 7.75684L24.6016 7.57324L24.2114 7.4585L23.7754 7.38965H23.2246Z" fill="#A7972E"/>
<path d="M2.96045 12.0488L3.18994 12.1636L3.62598 12.439L4.17676 12.7832L4.68164 13.1045L5.04883 13.334L5.48486 13.6094L6.03564 13.9536L6.90771 14.5044L7.4126 14.8257L7.89453 15.124L8.33057 15.3994L8.83545 15.7207L9.31738 16.019L11.0615 17.1206L11.6123 17.4648L12.1172 17.7861L12.4844 18.0156L12.9204 18.291L13.4712 18.6353L14.3433 19.186L14.894 19.5303L15.3989 19.8516L15.9497 20.1958L16.8218 20.7466L17.3726 21.0908L17.8774 21.4121L18.4282 21.7563L19.3003 22.3071L19.8511 22.6514L20.356 22.9727L20.9067 23.3169L21.7788 23.8677L22.2378 24.1201L22.7656 24.3267L23.2705 24.4414L23.3394 24.5103V47.0005H22.7197L21.7329 46.8169L21.0444 46.6333L20.4248 46.4038L19.9658 46.1973L19.4609 45.9219L18.8872 45.6006L18.3823 45.3022L17.189 44.6138L16.5464 44.2466L15.9956 43.9253L8.83545 39.7944L8.28467 39.4731L7.64209 39.106L6.44873 38.4175L5.8291 38.0503L5.55371 37.8667L5.23242 37.6372L4.84229 37.3159L4.61279 37.1094L4.08496 36.5815L3.87842 36.3291L3.64893 36.0537L3.35059 35.6177L3.16699 35.3193L2.9375 34.9062L2.68506 34.3784L2.47852 33.8276L2.29492 33.208L2.18018 32.6802L2.08838 32.0146L2.06543 31.7393L2.04248 31.0508V16.0879L2.06543 15.2388L2.13428 14.5962L2.27197 13.8848L2.43262 13.311L2.63916 12.7373L2.8457 12.2783L2.96045 12.0488ZM15.4219 24.4644L15.1694 24.5103L14.9858 24.6021L14.7793 24.7627L14.5957 24.9922L14.4351 25.3594L14.3433 25.7495L14.3203 25.8872V26.7134L14.4351 27.4019L14.5957 27.9756L14.8022 28.5264L15.1235 29.1919L15.3989 29.6509L15.6514 29.9951L15.8579 30.2476L16.1104 30.5229L16.3857 30.7754L16.7759 31.0508L17.1431 31.2344L17.4873 31.3262H17.9004L18.1987 31.2114L18.4053 31.0508L18.5659 30.8672L18.7495 30.5L18.8413 30.1558L18.8872 29.8115V29.2607L18.8184 28.687L18.6807 28.0674L18.4512 27.4019L18.2446 26.9429L17.9922 26.4609L17.7168 26.0249L17.4873 25.7266L17.2349 25.4282L16.8906 25.084L16.5234 24.8086L16.248 24.6479L15.8809 24.5103L15.6055 24.4644H15.4219ZM5.69141 29.0312L5.43896 29.123L5.18652 29.3066L5.02588 29.5132L4.86523 29.8345L4.77344 30.1328L4.72754 30.4082L4.70459 30.7065V31.0278L4.77344 31.6245L4.88818 32.1753L5.14062 32.9326L5.34717 33.3916L5.53076 33.7588L5.80615 34.2178L6.05859 34.562L6.26514 34.8145L6.51758 35.0898L6.79297 35.3423L7.16016 35.5947L7.52734 35.7783L7.75684 35.8472L8.10107 35.8931L8.37646 35.8472L8.60596 35.7554L8.8125 35.5947L8.97314 35.4111L9.15674 35.0439L9.24854 34.6997L9.29443 34.2637V33.8735L9.24854 33.4146L9.13379 32.8179L8.9502 32.2212L8.7207 31.6475L8.44531 31.0967L8.14697 30.6147L7.84863 30.2246L7.64209 29.9951L7.48145 29.8115L7.25195 29.605L6.90771 29.3525L6.63232 29.1919L6.26514 29.0542L6.15039 29.0312H5.69141Z" fill="#A7972E"/>
<path d="M44.1772 12.4609L44.269 12.5068L44.5215 13.1724L44.7051 13.8149L44.8198 14.3428L44.8887 14.8477L44.9346 15.4214V31.5776L44.8657 32.3579L44.751 33.0005L44.5903 33.5972L44.4297 34.0791L44.2231 34.561L44.0166 34.9971L43.7412 35.479L43.397 35.9839L43.1445 36.3052L42.8691 36.6265L42.5249 36.9937L42.3413 37.1543L42.0889 37.3838L41.8364 37.5903L41.4463 37.8657L40.9414 38.187L40.3447 38.5312L39.7939 38.8525L39.1514 39.2197L33.7812 42.3179L33.2305 42.6392L31.4404 43.6719L30.8896 43.9932L30.4077 44.2686L29.2144 44.957L28.6636 45.2783L28.0669 45.6226L27.4243 45.9897L26.8965 46.2651L26.4604 46.4487L25.9556 46.6323L25.2671 46.8159L24.6016 46.9536L24.5098 46.9307L24.4868 46.5635V24.5322L24.5327 24.4634L25.1064 24.3257L25.5425 24.165L26.0703 23.8896L26.5752 23.5684L27.4473 23.0176L27.998 22.6733L29.0078 22.0308L29.5586 21.6865L30.4307 21.1357L30.9814 20.7915L31.4863 20.4702L32.0371 20.126L32.542 19.8047L36.9023 17.0508L37.3843 16.7524L37.958 16.3853L38.8301 15.8345L39.3809 15.4902L40.3218 14.8936L40.8726 14.5493L42.6855 13.4019L43.2363 13.0576L43.6724 12.7822L44.1772 12.4609ZM41.2168 17.6704L40.8496 17.7393L40.4595 17.9229L40.1611 18.1294L39.8628 18.3818L39.5186 18.7261L39.2661 19.0474L38.9907 19.4375L38.8301 19.6899L38.4858 20.3784L38.2793 20.9062L38.1187 21.4341L38.0039 21.939L37.958 22.3291L37.9351 22.7651L37.981 23.293L38.0957 23.729L38.2563 24.0503L38.5088 24.3257L38.7383 24.4634L38.9907 24.5322H39.3579L39.7251 24.4175L40.0923 24.2339L40.4136 24.0044L40.7119 23.729L40.9644 23.4766L41.1709 23.2241L41.3545 22.9717L41.6069 22.5815L41.8823 22.0767L42.1118 21.5488L42.3413 20.8604L42.479 20.2178L42.5249 19.7588V19.1851L42.4561 18.749L42.3413 18.4048L42.1807 18.1064L41.9971 17.8999L41.7676 17.7622L41.584 17.6934L41.4463 17.6704H41.2168ZM30.7979 24.4634L30.4307 24.5093L30.0864 24.647L29.7192 24.8765L29.4668 25.083L29.1914 25.3354L28.939 25.6108L28.7324 25.8862L28.5029 26.2075L28.1816 26.7583L27.9521 27.2402L27.7456 27.791L27.585 28.3418L27.4932 28.8237L27.4473 29.2139V29.8564L27.5391 30.3613L27.6768 30.7056L27.8374 30.958L27.998 31.1187L28.1816 31.2334L28.48 31.3252H28.8701L29.2373 31.2104L29.6733 30.981L29.9946 30.7285L30.293 30.4531L30.3389 30.3613H30.3848L30.5454 30.1777L30.8667 29.7417L31.0732 29.4204L31.2798 29.0532L31.5322 28.5254L31.7388 27.9746L31.9224 27.2861L31.9912 26.8501L32.0142 26.6206V25.978L31.9453 25.542L31.8535 25.2437L31.6929 24.9224L31.4863 24.6929L31.2568 24.5552L31.0732 24.4863L30.7979 24.4634ZM41.125 29.0532L40.7808 29.145L40.4136 29.3286L40.0923 29.5581L39.8169 29.8105L39.7251 29.8794V29.9253H39.6792L39.5186 30.1089L39.2891 30.3843L39.0137 30.7744L38.876 31.0039L38.6465 31.417L38.4399 31.853L38.2793 32.2661L38.0957 32.8857L37.981 33.4824L37.9351 34.1021L37.981 34.6758L38.0957 35.1118L38.2563 35.4331L38.5088 35.7085L38.8301 35.8691L39.0596 35.915H39.2891L39.6562 35.8232L39.8628 35.7314L40.0464 35.6396L40.4365 35.3643L40.7119 35.1118L40.9414 34.8823L41.1479 34.6299L41.4004 34.2856L41.6299 33.9185L41.8594 33.5054L42.1118 32.9316L42.3184 32.312L42.4561 31.7153L42.502 31.417L42.5249 31.1416V30.5679L42.4561 30.1318L42.3643 29.8335L42.2036 29.5122L41.9741 29.2598L41.7217 29.1221L41.4922 29.0532H41.125ZM30.6602 35.8462L30.3389 35.915L29.9487 36.0986L29.6274 36.3281L29.375 36.5347L29.0537 36.856L28.8472 37.1084L28.6406 37.3838L28.3882 37.7739L28.1816 38.1411L27.9292 38.6689L27.7227 39.2197L27.5391 39.9082L27.4473 40.5737V41.2393L27.5161 41.6294L27.6309 41.9966L27.7915 42.272L27.998 42.5015L28.2505 42.6392L28.5259 42.708H28.8242L29.1685 42.6162L29.5356 42.4326L29.7881 42.272L30.0405 42.0654L30.2471 41.8818V41.8359H30.293L30.4536 41.6523L30.6372 41.4458L30.8667 41.1245L31.0732 40.8032L31.2798 40.436L31.5322 39.9082L31.7158 39.4263L31.8765 38.8755L31.9683 38.4165L32.0142 38.0034V37.3379L31.9453 36.9019L31.8306 36.5576L31.6929 36.3052L31.4634 36.0527L31.2339 35.915L30.9814 35.8462H30.6602Z" fill="#A7972E"/>
</g>
<defs>
<clipPath id="clip0_670_16013">
<rect width="47" height="47" fill="white"/>
</clipPath>
</defs>
</svg>
