<svg width="16" height="16" viewBox="0 0 16 16" fill="none" xmlns="http://www.w3.org/2000/svg">
<path d="M8.00008 15.1669C5.33341 15.1669 3.16675 13.2536 3.16675 10.9003V8.43359C3.16675 8.16026 3.39341 7.93359 3.66675 7.93359C3.94008 7.93359 4.16675 8.16026 4.16675 8.43359C4.16675 10.1803 5.81341 11.5003 8.00008 11.5003C10.1867 11.5003 11.8334 10.1803 11.8334 8.43359C11.8334 8.16026 12.0601 7.93359 12.3334 7.93359C12.6067 7.93359 12.8334 8.16026 12.8334 8.43359V10.9003C12.8334 13.2536 10.6667 15.1669 8.00008 15.1669ZM4.16675 10.9736C4.21341 12.7403 5.91341 14.1669 8.00008 14.1669C10.0867 14.1669 11.7867 12.7403 11.8334 10.9736C10.9667 11.9136 9.59341 12.5003 8.00008 12.5003C6.40675 12.5003 5.04008 11.9136 4.16675 10.9736Z" fill="#292D32"/>
<path d="M8.00008 9.16634C6.16008 9.16634 4.50674 8.33967 3.70007 7.00634C3.35341 6.43967 3.16675 5.77968 3.16675 5.09968C3.16675 3.95301 3.68008 2.87301 4.60675 2.05967C5.51342 1.26634 6.72008 0.833008 8.00008 0.833008C9.28008 0.833008 10.4801 1.26634 11.3934 2.05301C12.3201 2.87301 12.8334 3.95301 12.8334 5.09968C12.8334 5.77968 12.6468 6.43301 12.3001 7.00634C11.4934 8.33967 9.84008 9.16634 8.00008 9.16634ZM8.00008 1.83301C6.96008 1.83301 5.98676 2.17967 5.26009 2.81967C4.55342 3.43301 4.16675 4.24634 4.16675 5.09968C4.16675 5.59968 4.30007 6.06634 4.55341 6.48634C5.18674 7.52634 6.50675 8.16634 8.00008 8.16634C9.49341 8.16634 10.8134 7.51967 11.4468 6.48634C11.7068 6.06634 11.8334 5.59968 11.8334 5.09968C11.8334 4.24634 11.4468 3.43301 10.7334 2.80634C10.0068 2.17967 9.04008 1.83301 8.00008 1.83301Z" fill="#292D32"/>
<path d="M8.00008 12.4997C5.24675 12.4997 3.16675 10.753 3.16675 8.43301V5.09968C3.16675 2.74634 5.33341 0.833008 8.00008 0.833008C9.28008 0.833008 10.4801 1.26634 11.3934 2.05301C12.3201 2.87301 12.8334 3.95301 12.8334 5.09968V8.43301C12.8334 10.753 10.7534 12.4997 8.00008 12.4997ZM8.00008 1.83301C5.88675 1.83301 4.16675 3.29968 4.16675 5.09968V8.43301C4.16675 10.1797 5.81341 11.4997 8.00008 11.4997C10.1867 11.4997 11.8334 10.1797 11.8334 8.43301V5.09968C11.8334 4.24634 11.4468 3.43301 10.7334 2.80634C10.0068 2.17967 9.04008 1.83301 8.00008 1.83301Z" fill="#292D32"/>
</svg>
