<svg width="106" height="150" viewBox="0 0 106 150" fill="none" xmlns="http://www.w3.org/2000/svg">
<path d="M86.7188 0H88.4766L90.8203 2.05078L91.9922 4.39453L92.2852 5.27344V8.20312L91.6992 9.375L90.2344 9.96094L86.7188 10.5469L83.7891 12.0117L82.0312 13.4766L80.2734 16.1133L79.1016 19.3359V20.2148L81.7383 21.0938L85.2539 22.8516V23.4375L86.4258 24.0234L88.4766 25.7812L90.5273 29.0039L91.6992 31.3477L92.5781 36.3281V44.2383L93.75 44.5312H96.0938L97.8516 43.6523L98.4375 44.5312L97.8516 47.168L96.0938 49.2188L94.3359 49.8047L96.0938 51.8555L98.7305 53.0273L98.1445 54.4922L95.8008 55.6641H91.6992L90.2344 55.3711L89.0625 63.2812L88.4766 70.8984V74.4141L91.1133 72.0703L94.3359 70.0195L97.2656 68.8477H99.9023L101.66 70.0195L102.246 71.1914V73.8281L101.66 76.1719L99.9023 79.6875L97.5586 82.9102L94.043 87.0117L91.4062 89.6484L88.1836 92.2852L87.3047 100.781L85.8398 107.812L84.668 111.328L82.3242 116.602L79.9805 120.41L77.3438 123.633L73.8281 127.148L69.7266 130.078L67.3828 131.25L65.332 136.23L63.5742 139.453L60.9375 142.969L58.3008 145.898L55.6641 147.949L53.0273 149.121L50.3906 148.828L49.5117 147.949L48.9258 146.191L49.2188 141.797L50.0977 135.645H46.2891L40.4297 134.766L34.5703 133.008L29.8828 130.957L28.7109 130.371L27.2461 130.664L24.0234 132.715L19.9219 134.766L16.4062 135.938H12.5977L11.1328 134.766L10.8398 134.18V131.25L12.3047 127.148L16.1133 119.824L15.5273 118.652L12.5977 113.379L11.1328 109.57L10.2539 106.934L9.66797 103.418V95.5078L9.96094 93.457L10.5469 91L11.5859 88L12.8906 84.668L13.4766 82.9102L16.4062 77.6367L18.75 74.4141L17.5781 66.7969V57.1289L17.8711 55.957L19.6289 50.3906L20.5078 49.2188L21.6797 48.9258H24.0234L25.4883 49.8047L27.2461 51.8555L28.7109 55.0781L29.8828 59.1797V60.3516H30.4688L31.0547 59.1797L34.2773 54.7852L36.9141 50.3906L39.2578 45.7031L41.0156 41.6016L42.4805 37.793L40.7227 37.5L37.793 35.7422L36.0352 33.3984L35.4492 32.2266V29.5898L37.5 29.8828L40.1367 30.1758L43.0664 29.2969L45.7031 27.2461L49.8047 22.2656L52.4414 19.6289L55.3711 17.8711L58.8867 16.6992L60.9375 16.4062H65.918L70.3125 16.6992L72.0703 14.0625L74.4141 9.96094L77.3438 6.15234L79.3945 4.10156L83.2031 1.46484L86.7188 0Z" fill="#653363"/>
<path d="M86.7188 0H88.4766L90.8203 2.05078L91.9922 4.39453L92.2852 5.27344V8.20312L91.6992 9.375L90.2344 9.96094L86.7188 10.5469L83.7891 12.0117L82.0312 13.4766L80.2734 16.1133L79.1016 19.3359V20.2148L81.7383 21.0938L85.2539 22.8516V23.4375L86.4258 24.0234L88.4766 25.7812L90.5273 29.0039L91.6992 31.3477L92.5781 36.3281V44.2383L93.75 44.5312H96.0938L97.8516 43.6523L98.4375 44.5312L97.8516 47.168L96.0938 49.2188L94.3359 49.8047L96.0938 51.8555L98.7305 53.0273L98.1445 54.4922L95.8008 55.6641H91.6992L90.2344 55.3711L89.0625 63.2812L88.4766 70.8984V74.4141L91.1133 72.0703L94.3359 70.0195L97.2656 68.8477H99.9023L101.66 70.0195L102.246 71.1914V73.8281L101.66 76.1719L99.9023 79.6875L97.5586 82.9102L94.043 87.0117L91.4062 89.6484L88.1836 92.2852L87.3047 100.781L85.8398 107.812L84.668 111.328L82.3242 116.602L79.9805 120.41L77.3438 123.633L73.8281 127.148L69.7266 130.078L67.3828 131.25L65.332 136.23L63.5742 139.453L60.9375 142.969L58.3008 145.898L55.6641 147.949L53.0273 149.121L50.3906 148.828L49.5117 147.949L48.9258 146.191L49.2188 141.797L50.0977 135.645H46.2891L40.4297 134.766L34.5703 133.008L29.8828 130.957L28.7109 130.371L27.2461 130.664L24.0234 132.715L19.9219 134.766L16.4062 135.938H12.5977L11.1328 134.766L10.8398 134.18V131.25L12.3047 127.148L16.1133 119.824L15.5273 118.652L12.5977 113.379L11.1328 109.57L10.2539 106.934L9.66797 103.418V95.5078L10.2539 93.457H11.4258V103.125L12.3047 107.52L13.7695 111.914L16.4062 116.895L18.75 119.824L21.3867 122.754L24.3164 125.391L29.5898 128.906L34.5703 131.25L40.4297 133.008L45.7031 133.887H52.7344L58.0078 133.008L62.6953 131.543L66.7969 129.785L71.4844 126.855L75.293 123.34L77.9297 120.41L80.8594 115.723L83.2031 110.449L84.668 105.469L85.8398 98.4375L86.1328 95.2148L86.4258 79.1016L87.0117 66.7969L88.4766 54.4922L84.668 52.1484L82.3242 50.0977L79.9805 47.168L77.6367 43.0664L76.4648 39.2578L76.1719 37.793L74.707 38.6719L72.9492 40.7227L72.0703 43.0664V46.2891L73.5352 49.2188L74.1211 49.8047L73.8281 50.9766L73.2422 51.2695H70.6055L67.0898 50.0977L64.1602 48.3398L61.8164 45.9961L59.4727 41.8945L58.3008 38.6719L57.4219 32.8125L53.6133 35.4492L48.9258 37.5L45.7031 38.0859H42.7734L39.5508 36.9141L37.207 35.1562L35.4492 32.2266V29.5898L37.5 29.8828L40.1367 30.1758L43.0664 29.2969L45.7031 27.2461L49.8047 22.2656L52.4414 19.6289L55.3711 17.8711L58.8867 16.6992L60.9375 16.4062H65.918L70.3125 16.6992L72.0703 14.0625L74.4141 9.96094L77.3438 6.15234L79.3945 4.10156L83.2031 1.46484L86.7188 0Z" fill="#3D153C"/>
<path d="M52.7344 36.9141L53.9063 37.5L54.4922 39.8438V41.3086L53.0273 43.6523V45.9961L50.9766 48.3398H50.3906V49.5117L48.3398 50.0977L46.582 51.2695L44.5313 54.4922L43.6523 57.7148L43.3594 58.0078L43.0664 61.5234L41.3086 62.1094L39.5508 64.1602L37.793 73.5352L38.0859 79.1016L37.207 81.4453L36.0352 84.375L34.8633 86.1328L34.2773 89.6484L33.1055 91.4062L30.7617 94.6289L29.5898 96.3867L27.5391 98.1445L25.4883 98.7305H20.2148L18.75 98.1445L15.2344 95.2148H13.7695L13.1836 97.8516V101.66L12.5977 106.934V108.984L12.3047 110.449H11.7188L10.2539 105.176L9.96094 103.125V95.2148L10.2539 93.457L11.1328 90.2344L12.0117 87.8906L13.1836 84.375L15.8203 79.3945L19.043 74.707L22.2656 70.6055L25.7812 66.5039L29.0039 62.6953L33.1055 57.4219L36.9141 51.2695L39.2578 46.875L39.5508 45.9961H40.1367L40.4297 44.5312L40.7227 43.3594H41.3086L41.8945 42.1875L42.4805 42.4805L44.2383 42.1875L45.7031 39.5508L50.3906 38.0859L52.7344 36.9141Z" fill="#7E4C7B"/>
<path d="M86.4258 1.46484H88.1836L90.2344 3.80859L91.1133 6.44531L90.8203 7.91016L89.3555 4.98047L88.1836 4.6875V2.05078H87.5977L87.8906 6.15234L83.7891 7.91016L80.5664 10.5469L78.8086 12.0117L76.1719 16.1133L75.293 18.75V20.5078L76.7578 21.3867L77.3438 21.6797L77.6367 20.5078L83.2031 23.4375L85.5469 25.1953L87.3047 26.6602L89.3555 29.8828L90.8203 34.2773L91.1133 45.1172L91.6992 48.0469L93.457 51.5625L96.0938 53.6133V53.9062H94.3359V53.3203L93.1641 52.7344L91.9922 51.2695L90.5273 48.3398L89.9414 45.7031V38.6719L89.0625 33.1055L87.8906 30.4688L86.1328 27.832L84.375 25.7812L82.3242 24.3164L81.4453 24.0234L81.1523 24.6094L79.6875 23.7305L80.5664 25.4883L83.2031 29.0039L84.668 32.8125L85.8398 36.9141L86.7188 42.4805L87.3047 44.5312V46.875L87.0117 47.168L84.9609 46.875L82.6172 43.6523L80.2734 39.2578L78.8086 34.8633L77.9297 33.6914L76.4648 33.3984L72.9492 35.1562L69.7266 38.3789L68.2617 40.7227L67.3828 42.7734L66.7969 43.3594L65.918 41.8945L65.332 38.0859V34.8633L66.7969 29.2969L68.8477 25.4883L71.1914 22.5586L70.0195 23.1445L67.3828 26.0742L65.332 30.1758L64.4531 34.2773V39.5508L65.625 43.9453L67.0898 46.875L69.7266 49.5117L68.2617 49.2188L65.332 47.4609L62.6953 44.8242L60.3516 40.4297L59.4727 37.207V31.3477L59.7656 27.832L58.0078 28.418L53.9062 30.7617L49.2188 33.1055L44.5312 34.2773L41.8945 34.5703L41.0156 34.8633L41.3086 35.7422L39.8438 35.4492L37.793 33.6914L36.9141 32.2266V31.3477H41.3086L44.2383 30.1758L46.875 28.125L50.0977 24.0234L53.3203 20.8008L55.6641 19.3359L59.1797 18.1641L60.6445 17.8711H67.0898L70.3125 18.1641L72.3633 16.4062L75.5859 10.8398L78.2227 7.32422L80.8594 4.6875L84.9609 2.05078L86.4258 1.46484Z" fill="#92B944"/>
<path d="M86.7188 0H88.4766L90.8203 2.05078L91.9922 4.39453L92.2852 5.27344V8.20312L91.6992 9.375L90.2344 9.96094L86.7188 10.5469L83.7891 12.0117L82.0312 13.4766L80.2734 16.1133L79.1016 19.3359V20.2148L81.7383 21.0938L85.2539 22.8516V23.4375L86.4258 24.0234L88.4766 25.7812L90.5273 29.0039L91.6992 31.3477L92.5781 36.3281V44.2383L93.75 44.5312H96.0938L97.8516 43.6523L98.4375 44.5312L97.8516 47.168L96.0938 49.2188L94.3359 49.8047L96.0938 51.8555L98.7305 53.0273L98.1445 54.4922L95.8008 55.6641H91.6992L89.6484 55.0781L86.4258 53.3203L84.082 51.5625L82.3242 50.0977L79.9805 47.168L77.6367 43.0664L76.4648 39.2578L76.1719 37.793L74.707 38.6719L72.9492 40.7227L72.0703 43.0664V46.2891L73.5352 49.2188L74.1211 49.8047L73.8281 50.9766L73.2422 51.2695H70.6055L67.0898 50.0977L64.1602 48.3398L61.8164 45.9961L59.4727 41.8945L58.3008 38.6719L57.4219 32.8125L53.6133 35.4492L48.9258 37.5L45.7031 38.0859H42.7734L39.5508 36.9141L37.207 35.1562L35.4492 32.2266V29.5898L37.5 29.8828L40.1367 30.1758L43.0664 29.2969L45.7031 27.2461L49.8047 22.2656L52.4414 19.6289L55.3711 17.8711L58.8867 16.6992L60.9375 16.4062H65.918L70.3125 16.6992L72.0703 14.0625L74.4141 9.96094L77.3438 6.15234L79.3945 4.10156L83.2031 1.46484L86.7188 0ZM86.4258 1.46484L82.9102 3.22266L79.9805 5.56641L77.6367 7.91016L74.707 12.3047L72.3633 16.4062L70.3125 18.1641L67.0898 17.8711H60.6445L57.1289 18.75L54.1992 20.2148L51.2695 22.8516L48.6328 25.7812L45.9961 29.0039L43.0664 30.7617L41.3086 31.3477H36.9141L37.207 32.8125L39.2578 35.1562L40.4297 35.7422L41.3086 35.4492L41.0156 34.8633L48.3398 33.3984L51.8555 31.9336L55.957 29.5898L59.1797 27.832H59.7656L59.4727 31.3477V37.207L60.6445 41.0156L62.6953 44.8242L65.625 47.7539L68.8477 49.5117L69.7266 49.2188L67.9688 48.0469L65.918 44.8242L64.7461 41.0156L64.4531 39.5508V34.2773L65.625 29.5898L67.3828 26.0742L70.3125 22.8516L71.1914 22.5586L68.2617 26.3672L66.5039 30.1758L65.332 34.8633V38.0859L65.918 41.8945L66.7969 43.3594L67.9688 41.8945L68.8477 39.5508L72.0703 36.0352L74.4141 34.2773L77.0508 33.3984L78.5156 34.2773L79.9805 38.3789L82.3242 43.0664L84.082 45.7031L85.5469 47.168H87.0117L87.3047 46.875V44.5312L86.4258 41.0156L85.5469 35.7422L83.7891 30.1758L81.7383 26.9531L79.9805 24.6094L79.6875 23.7305L81.4453 24.6094V24.0234L83.2031 24.9023L84.668 26.3672L87.3047 29.2969L88.7695 32.2266L89.6484 36.3281L89.9414 40.4297V45.7031L90.8203 49.2188L92.5781 52.1484L93.75 53.3203H94.3359V53.9062H96.0938L93.1641 50.9766L91.6992 48.0469L91.1133 45.1172L90.8203 34.2773L89.3555 29.8828L87.3047 26.6602L83.7891 23.7305L77.3438 20.5078V21.6797L75.5859 20.8008L75.293 20.5078L75.5859 17.5781L77.0508 14.6484L79.3945 11.4258L83.7891 7.91016L87.8906 6.15234L87.5977 2.05078H88.1836V4.6875L89.3555 4.98047L90.8203 7.91016L91.1133 6.44531L90.2344 3.80859L88.1836 1.46484H86.4258Z" fill="#41621D"/>
<path d="M71.1914 21.9727L71.4844 22.5586L68.5547 26.3672L66.7969 30.1758L65.625 34.8633V38.0859L66.2109 41.8945L66.7969 43.0664L67.6758 41.8945L68.5547 39.5508L71.7773 36.0352L73.8281 34.2773L76.4648 33.1055L78.2227 33.6914L79.1016 34.8633L80.8594 39.8438L83.7891 45.1172L84.9609 46.582L87.0117 46.875V44.5312L86.1328 41.0156L85.2539 35.7422L83.4961 30.1758L81.4453 26.9531L79.6875 24.6094V23.7305L81.1523 24.3164L82.3242 24.0234L84.668 25.7812L87.3047 29.0039L88.7695 31.3477L89.6484 34.5703L90.2344 38.6719V45.7031L91.1133 49.2188L92.8711 52.1484L94.3359 53.3203V53.9062H96.0938L94.9219 54.4922H92.8711L89.0625 53.3203L85.8398 51.2695L82.3242 48.0469L80.2734 45.1172L78.2227 40.7227L77.0508 35.7422L75 36.6211L73.2422 38.0859L71.4844 40.7227L70.6055 43.0664V46.582L71.7773 49.2188L72.3633 50.0977L69.4336 49.8047L67.9688 48.3398L65.918 45.4102L64.4531 41.0156L64.1602 39.5508V34.2773L65.332 29.5898L67.0898 26.0742L70.3125 22.5586L71.1914 21.9727Z" fill="#5B8135"/>
<path d="M31.6406 70.3125L32.8125 70.6055L33.3984 72.0703L32.8125 74.1211L34.2773 77.0508L33.9844 78.8086L32.2266 81.4453L31.3477 83.7891L30.1758 84.9609V86.7188L30.4688 88.1836L29.2969 89.6484L28.125 89.9414L27.832 90.5273L26.9531 90.8203L26.6602 91.9922L24.3164 94.043L22.8516 94.6289L20.2148 94.3359L18.75 92.8711L17.8711 89.0625L18.1641 84.9609L19.043 83.4961L19.9219 81.1523L21.3867 79.6875L24.0234 78.2227L25.7812 75.5859L28.125 73.5352L30.1758 71.1914L31.6406 70.3125Z" fill="#976C94"/>
<path d="M21.6797 48.9258H24.0234L25.4883 49.8047L26.9531 51.5625H26.0742L24.0234 49.8047H23.1445L24.9023 50.9766L26.0742 52.4414L27.832 56.543L28.7109 60.0586V62.4023L26.0742 65.625L22.8516 69.4336L20.5078 72.3633L19.9219 72.0703L19.043 66.7969L18.75 60.9375L19.043 56.8359L19.1602 56.543L19.5859 50.5L20.5078 49.2188L21.6797 48.9258Z" fill="#653363"/>
<path d="M96.9727 70.3125H99.9023L101.074 71.7773V73.8281L99.9023 77.0508L96.9727 81.4453L93.457 85.5469L89.9414 89.0625L88.4766 90.2344H87.8906V76.7578L91.1133 73.8281L95.5078 70.8984L96.9727 70.3125Z" fill="#653363"/>
<path d="M65.0391 132.129L65.332 132.715L62.9883 137.695L60.6445 141.211L57.4219 144.727L55.0781 146.777L53.3203 147.656H51.2695L50.3906 146.191L50.6836 141.504L51.5625 135.645L51.8555 135.352L58.0078 134.473L62.6953 133.008L65.0391 132.129Z" fill="#653363"/>
<path d="M42.4805 37.793L43.6523 38.0859L43.3594 40.1367L41.8945 44.5312L41.3086 45.9961H40.7227L40.4297 47.4609L37.207 53.3203L34.2773 57.7148L30.1758 62.9883L26.3672 67.3828L23.1445 71.1914L19.6289 75.8789L16.6992 80.5664L14.3555 84.668L13.1836 84.375L13.4766 82.9102L16.4062 77.6367L18.75 74.4141L17.5781 66.7969V57.1289L17.8711 55.957H19.3359L19.043 63.2812L19.6289 68.8477L20.2148 72.0703L21.6797 70.6055L24.3164 67.3828L27.5391 63.5742L28.418 62.4023V60.0586L27.2461 55.6641L25.1953 51.5625L23.7305 50.3906L21.9727 49.8047V49.5117H24.0234L26.3672 51.5625L27.2461 51.8555L28.7109 55.0781L29.8828 59.1797V60.3516H30.4688L31.0547 59.1797L34.2773 54.7852L36.9141 50.3906L39.2578 45.7031L41.0156 41.6016L42.4805 37.793Z" fill="#3D153C"/>
<path d="M17.2852 120.703L21.3867 124.805L25.1953 127.734L26.6602 129.199L24.0234 131.25L19.043 133.594L15.2344 134.766H13.1836L12.3047 133.887V131.543L14.3555 126.563L16.9922 120.996L17.2852 120.703Z" fill="#653363"/>
<path d="M71.1914 56.25H72.9492L74.707 57.7148L75.293 58.8867V63.8672L74.1211 67.3828L72.0703 70.3125L70.8984 71.1914L68.8477 71.4844L67.3828 70.6055L66.2109 68.2617V64.1602L67.3828 60.3516L69.1406 57.7148L70.6055 56.543L71.1914 56.25Z" fill="#381137"/>
<path d="M49.5117 49.8047H51.8555L53.3203 51.5625L53.6133 52.4414V56.25L52.1484 60.6445L50.0977 63.2813L48.3398 64.4531H46.2891L44.8242 62.6953L44.5312 61.8164V57.7148L45.7031 53.9063L47.7539 50.9766L49.5117 49.8047Z" fill="#381037"/>
<path d="M51.5625 38.0859H53.0273L53.6133 38.6719L53.3203 40.7227L51.5625 42.7734L50.9766 45.4102L48.6328 47.4609L46.875 48.0469L43.3594 55.3711L41.8945 57.4219H40.1367L39.5508 56.543L42.7734 49.2188L43.0664 47.168L41.3086 46.582L41.0156 45.9961L41.8945 43.3594H42.4805L43.0664 42.1875L43.6523 42.4805L45.4102 42.1875L46.875 39.5508L51.5625 38.0859Z" fill="#966B93"/>
<path d="M28.418 74.1211L30.1758 74.707L30.7617 75L30.4688 76.7578L27.832 81.4453L24.9023 87.8906L24.0234 88.4766H21.6797L20.5078 87.3047L20.8008 84.668L23.1445 79.9805L25.7812 76.4648L27.832 74.4141L28.418 74.1211Z" fill="#D5BED1"/>
<path d="M87.5977 2.05078H88.1836L88.4766 4.10156L88.7695 4.6875L89.6484 4.98047L90.5273 6.73828L90.8203 8.49609L90.2344 8.78906L86.4258 9.375L82.9102 11.1328L80.5664 13.1836L78.8086 16.1133L77.9297 19.043V20.8008L77.3438 21.6797L75.5859 21.0938L75 20.5078L75.293 17.5781L76.7578 14.6484L79.1016 11.4258L82.9102 8.20312L86.4258 6.44531L87.8906 6.15234L87.5977 4.98047V2.05078Z" fill="#5A8034"/>
<path d="M59.1797 27.5391L60.0586 27.832V29.5898L59.4727 29.0039L57.7148 31.0547L53.9062 33.6914L49.8047 35.7422L46.875 36.6211H42.4805L40.4297 36.0352L41.0156 34.8633L41.8945 34.2773L45.9961 33.6914L50.6836 32.2266L55.0781 29.8828L58.0078 28.125L59.1797 27.5391Z" fill="#5B8135"/>
<path d="M97.2656 70.6055H100.195L101.074 71.7773V73.8281L100.195 76.4648L97.2656 75.5859L93.1641 74.707L93.75 73.5352L96.0938 71.7773H96.6797L97.2656 70.6055Z" fill="#7F4E7C"/>
<path d="M50.6836 38.3789L51.2695 38.6719L50.6836 40.4297L47.7539 45.7031L47.168 46.2891L45.1172 45.9961L44.8242 45.1172L45.9961 41.3086L46.875 39.5508L50.6836 38.3789Z" fill="#D5BED1"/>
<path d="M49.8047 51.2695L51.2695 51.5625L51.8555 52.4414V55.0781L50.6836 56.8359L48.6328 57.1289L47.7539 55.6641V53.6133L48.6328 52.1484L49.8047 51.2695Z" fill="#F8F5F7"/>
<path d="M70.8984 58.0078L72.9492 58.3008L73.5352 59.4727L73.2422 61.8164L71.7773 63.5742H70.0195L69.1406 61.8164L69.4336 59.4727L70.8984 58.0078Z" fill="#F9F7F9"/>
<path d="M103.711 78.2227L104.297 78.5156L104.59 80.2734L103.711 83.2031L102.246 85.5469L99.9023 87.5977L97.8516 87.8906L98.4375 86.7188L100.488 84.9609L102.246 82.0312L103.418 78.5156L103.711 78.2227Z" fill="#4F234D"/>
<path d="M62.4023 19.9219H65.625L64.7461 20.5078L59.4727 21.6797L54.7852 24.6094L50.6836 28.418L47.4609 30.7617L46.875 30.4687L50.3906 27.2461L53.3203 24.3164L56.25 22.2656L59.4727 20.8008L62.4023 19.9219Z" fill="#5B8135"/>
<path d="M6.73828 127.441H7.32422L7.03125 128.906L5.85938 131.543L5.56641 132.715V137.988H4.6875L3.80859 136.523V131.836L4.98047 128.906L6.73828 127.441Z" fill="#683665"/>
<path d="M52.7344 65.332L53.9062 65.625L55.0781 67.9688L56.25 68.5547H58.8867L60.6445 67.6758L61.2305 68.5547L59.7656 70.0195L58.8867 70.3125H56.25L53.9062 69.1406L52.7344 67.6758L52.4414 65.918L52.7344 65.332Z" fill="#371036"/>
<path d="M10.8398 131.25L11.4258 132.129L12.3047 134.473L12.8906 134.766H16.6992L20.8008 133.301L24.6094 131.25L25.4883 131.543L24.6094 132.422L19.9219 134.766L16.4062 135.938H12.5977L11.1328 134.766L10.8398 134.18V131.25Z" fill="#5A2C58"/>
<path d="M14.6484 125.977H15.2344L15.5273 126.855L16.1133 126.562L15.8203 128.027L13.4766 132.129H12.8906V133.887H12.3047V131.543L14.3555 126.562L14.6484 125.977Z" fill="#794877"/>
<path d="M46.582 39.2578L47.4609 39.5508H46.875L46.2891 41.3086L44.8242 42.7734H42.7734L42.1875 43.3594L42.4805 41.8945L43.0664 40.1367L46.582 39.2578Z" fill="#7E4D7B"/>
<path d="M92.5781 45.7031L96.6797 45.9961L96.0938 47.4609L94.6289 48.6328L93.457 48.9258L92.8711 48.0469L92.5781 45.7031Z" fill="#658B37"/>
<path d="M1.46484 130.371H2.05078L1.46484 135.938L0.292969 135.645L0 135.059V132.422L0.878906 130.664L1.46484 130.371Z" fill="#683766"/>
<path d="M23.4375 131.25H24.0234L23.7305 132.129L18.75 134.473L16.6992 135.059H12.8906L13.1836 134.473H15.2344L20.5078 132.715L23.4375 131.25Z" fill="#371036"/>
<path d="M10.8398 131.25L11.4258 132.129L12.3047 134.473L12.8906 134.766L16.4062 135.059V135.938H12.5977L11.1328 134.766L10.8398 134.18V131.25Z" fill="#653463"/>
<path d="M49.5117 144.434H49.8047L50.3906 147.07L50.9766 147.949H53.3203L55.6641 146.777L56.543 147.07L55.6641 147.949L53.0273 149.121L50.3906 148.828L49.8047 147.656L49.5117 146.777V144.434Z" fill="#5E2F5C"/>
<path d="M105.176 84.668H105.762L105.469 87.3047L103.418 89.0625L102.539 88.7695L103.125 87.5977L105.176 84.668Z" fill="#683766"/>
<path d="M96.9727 70.3125H99.9023V70.6055L97.2656 70.8984L95.8008 72.3633L93.1641 74.1211L93.457 72.6562L94.9219 71.1914L96.9727 70.3125Z" fill="#784775"/>
<path d="M20.8008 90.8203L22.2656 91.1133L22.5586 91.4062V92.8711L21.0938 93.457L20.2148 92.8711V91.4062L20.8008 90.8203Z" fill="#DCCDDA"/>
<path d="M11.4258 109.57H12.0117L14.3555 114.844L14.0625 115.723L13.1836 114.551L11.4258 110.742V109.57Z" fill="#562955"/>
<path d="M97.2656 71.1914L98.7305 71.4844V72.0703L94.9219 73.5352V72.6562L97.2656 71.1914Z" fill="#D5BED1"/>
<path d="M15.8203 126.562L16.1133 127.441L13.7695 131.543L13.1836 131.836L14.0625 129.199L15.2344 126.855L15.8203 126.562Z" fill="#D5BED1"/>
<path d="M24.6094 131.25L25.4883 131.543L24.6094 132.422L21.9727 133.887L20.8008 133.301L24.6094 131.25Z" fill="#5C2E5A"/>
<path d="M82.6172 26.0742L84.082 27.5391L85.8398 31.0547L85.5469 31.6406L82.6172 26.6602V26.0742Z" fill="#92B944"/>
<path d="M86.4258 9.66797L87.8906 9.96094L86.7188 10.5469L83.4961 12.0117V11.1328L86.4258 9.66797Z" fill="#5A7A35"/>
<path d="M103.711 78.2227L104.297 78.5156L104.59 80.2734L104.297 81.7383L103.125 80.2734L103.418 78.5156L103.711 78.2227Z" fill="#633461"/>
<path d="M42.7734 134.473L48.0469 134.766V135.059L43.6523 135.352L41.8945 135.059L42.7734 134.473Z" fill="#60305E"/>
<path d="M50.6836 38.3789L51.2695 38.6719L50.9766 39.8438L49.8047 39.5508L47.4609 39.8438V39.2578L50.6836 38.3789Z" fill="#DDCFDA"/>
<path d="M14.6484 116.016L15.8203 117.188L16.6992 118.945H15.8203L14.3555 116.602L14.6484 116.016Z" fill="#5B2D59"/>
<path d="M50.9766 146.484L53.0273 146.777L54.4922 146.484V147.07L53.3203 147.656H51.2695L50.9766 146.484Z" fill="#744271"/>
<path d="M14.6484 125.977H15.2344L14.9414 128.027L14.0625 128.906L13.7695 127.734L14.6484 125.977Z" fill="#734270"/>
<path d="M97.2656 68.8477H99.9023L101.66 70.0195L101.074 70.8984V70.3125L99.6094 69.7266V69.1406H97.2656V68.8477Z" fill="#683766"/>
</svg>
