<svg width="124" height="151" viewBox="0 0 124 151" fill="none" xmlns="http://www.w3.org/2000/svg">
<path d="M54.1201 0L56.5195 0.266314L59.1855 1.8642L61.8516 4.26103L63.7178 6.12523L66.3838 9.85363L68.5166 14.381L70.1162 20.2399L71.1826 26.0988L74.1152 25.5662H79.7139L83.9795 26.6314L87.1787 28.2293L89.8447 30.3598L91.1777 31.6914L95.1768 32.224L98.6426 33.5556L101.575 35.4198L104.241 37.8166L106.374 40.7461L108.507 45.0071L110.106 51.1324L110.64 54.5944V64.9807L109.84 71.1059L107.707 81.2259L106.641 85.7532L106.107 87.0848L108.507 87.6174L110.64 87.3511L112.239 86.0195L113.572 84.4216L115.972 82.8238L116.771 82.5574H119.704L121.304 83.6227L122.637 85.2206L123.17 87.0848V88.949L122.104 92.4111L120.237 95.3405L117.838 98.0037L114.105 100.401L110.106 101.998L109.04 102.265H102.642L101.842 104.662L99.709 112.651L98.1094 116.912L95.71 121.439L93.3105 124.369L90.3779 127.032L89.8447 127.565L92.2441 131.293L93.5771 135.288L93.8438 137.418L95.1768 136.886H98.376L100.509 138.217L101.042 139.016V141.679L99.4424 144.342L96.7764 146.739L93.0439 148.87L90.3779 149.935L89.3115 150.201H86.1123L83.9795 148.337L79.9805 141.946L77.8477 139.282L76.248 137.418L74.1152 135.554L72.5156 134.222L67.7168 135.288H62.3848L58.3857 134.222L55.9863 133.423L54.1201 136.353L51.7207 139.282L49.5879 141.413L46.6553 143.277L45.0557 144.076L43.7227 144.342H39.1904L35.7246 143.011L33.3252 141.147H32.2588L30.126 142.478L28.793 143.011H25.8604L23.9941 141.413L23.7275 140.614V137.418L25.0605 133.69L27.46 129.961L29.5928 127.831L31.7256 126.766L33.8584 127.032L37.0576 128.63L38.124 128.896L38.3906 127.831L34.9248 125.168L32.2588 121.972L30.6592 119.309L29.0596 115.58L27.7266 110.787L26.6602 105.46L25.8604 100.134V99.0689L23.4609 100.667L20.7949 104.129L18.6621 105.993L17.0625 106.792H13.5967L11.4639 105.194L10.3975 103.064V99.0689L11.4639 95.0742L13.3301 91.6121L15.4629 88.949L17.5957 86.8185L21.3281 84.688L22.3945 84.4216L20.7949 78.5627L19.7285 72.9701L18.6621 66.046V55.926L19.4619 51.1324L20.5283 47.1376L22.3945 43.1429L24.2607 39.9471L26.6602 37.284L30.126 34.6209L33.8584 33.023L37.5908 32.224L39.7236 30.0935L42.6562 28.2293L45.8555 26.8977L48.7881 26.3651H54.6533L58.6523 27.1641L60.5186 27.6967L60.252 22.3704L58.9189 18.3757L56.7861 15.4462L53.8535 13.8483L49.5879 12.7831L47.9883 11.4515L47.7217 10.9189V6.92417L49.3213 3.7284L51.4541 1.33157L54.1201 0Z" fill="#3C6F31"/>
<path d="M35.9912 32.4902H37.8574V34.0881L33.0586 35.4197L29.8594 37.2839H29.3262V37.8165L27.1934 39.4144L24.7939 42.6102L22.9277 46.6049L21.5947 50.8659L20.7949 55.3933L20.5283 58.3227V62.3174L21.0615 68.1764L22.3945 75.8995L24.2607 83.8889L26.127 83.6226H30.126L30.6592 83.8889V84.4215L24.2607 85.7531L19.9951 87.6173L17.0625 90.0141L14.9297 92.6773L13.0635 96.672L12.5303 98.2699L12.2637 101.199L12.7969 103.33L13.8633 104.661L15.7295 104.928L17.8623 104.129L18.6621 103.064L17.8623 103.596H16.5293L16.2627 102.265L18.3955 100.667L18.9287 100.4L19.7285 98.2699L22.1279 96.1394L25.3271 94.5415L26.6602 94.2752H30.6592L31.1924 94.5415L30.9258 95.873L29.8594 96.1394L32.792 96.672L33.0586 99.0688V104.395L34.3916 109.721L35.9912 112.385L37.3242 114.249V114.781H37.8574V115.314L40.2568 115.847L42.123 115.048L42.9229 112.651L43.1895 101.998L43.4561 99.6014V97.2046L42.9229 94.2752L42.123 93.7425V92.411L43.1895 90.8131H42.6562L41.8564 88.1499L42.123 86.8184L42.9229 86.552L43.7227 87.6173L44.2559 89.7478L45.5889 90.5468V91.0794H46.1221L47.4551 97.7372L49.3213 105.194L51.7207 113.716L53.8535 118.243L55.1865 119.575V120.108L56.2529 120.374L59.9854 122.238L62.6514 123.303L65.3174 124.102L69.3164 124.635L72.5156 124.102L74.6484 123.303L77.5811 121.173L81.5801 117.711L83.4463 115.58H84.2461L86.6455 106.259L87.7119 104.129L88.7783 104.395V109.721L88.2451 115.314L88.7783 116.912L90.1113 117.711L91.7109 117.178L93.3105 115.314H94.377L94.1104 116.646L91.1777 122.771L86.6455 125.7L85.8457 125.967V126.499L84.2461 127.564L86.6455 126.766L89.0449 125.434L91.7109 123.037L93.5771 120.907L95.9766 116.646L97.8428 111.852L99.9756 104.129L101.842 95.873L102.642 93.4762L104.241 86.552L105.841 79.8942L106.907 75.6332L107.707 70.8395L108.507 70.3069L108.773 71.1058L109.573 70.3069V72.4374L107.707 81.2258L106.641 85.7531L106.107 87.0847L108.507 87.6173L110.64 87.351L112.239 86.0194L113.572 84.4215L115.972 82.8236L116.771 82.5573H119.704L121.304 83.6226L122.637 85.2205L123.17 87.0847V88.9489L122.104 92.411L120.237 95.3404L117.838 98.0036L114.105 100.4L110.106 101.998L109.04 102.265H102.642L101.842 104.661L99.709 112.651L98.1094 116.912L95.71 121.439L93.3105 124.369L90.3779 127.032L89.8447 127.564L92.2441 131.293L93.5771 135.288L93.8438 137.418L95.1768 136.885H98.376L100.509 138.217L101.042 139.016V141.679L99.4424 144.342L96.7764 146.739L93.0439 148.87L90.3779 149.935L89.3115 150.201H86.1123L83.9795 148.337L79.9805 141.945L77.8477 139.282L76.248 137.418L74.1152 135.554L72.5156 134.222L67.7168 135.288H62.3848L58.3857 134.222L55.9863 133.423L54.1201 136.353L51.7207 139.282L49.5879 141.413L46.6553 143.277L45.0557 144.076L43.7227 144.342H39.1904L35.7246 143.011L33.3252 141.146H32.2588L30.126 142.478L28.793 143.011H25.8604L23.9941 141.413L23.7275 140.614V137.418L25.0605 133.69L27.46 129.961L29.5928 127.831L31.7256 126.766L33.8584 127.032L37.0576 128.63L38.124 128.896L38.3906 127.831L34.9248 125.168L32.2588 121.972L30.6592 119.309L29.0596 115.58L27.7266 110.787L26.6602 105.46L25.8604 100.134V99.0688L23.4609 100.667L20.7949 104.129L18.6621 105.993L17.0625 106.792H13.5967L11.4639 105.194L10.3975 103.064V99.0688L11.4639 95.0741L13.3301 91.612L15.4629 88.9489L17.5957 86.8184L21.3281 84.6878L22.3945 84.4215L20.7949 78.5626L19.7285 72.97L18.6621 66.0458V55.9259L19.4619 51.1322L20.5283 47.1375L22.3945 43.1428L24.2607 39.947L26.6602 37.2839L30.126 34.6207L33.8584 33.0229L35.9912 32.4902Z" fill="#1B411D"/>
<path d="M63.7178 37.2842H70.3828L75.4482 38.6158L78.6475 39.9473L82.3799 42.3442L84.5127 44.4747L86.1123 46.8715L87.7119 51.9315L89.0449 57.7904V59.6546L88.7783 60.7198V63.9156L89.3115 68.7093H90.1113L89.5781 70.0408L89.0449 72.704V76.6987L89.8447 79.3618L90.3779 80.6934L89.0449 80.1608L87.7119 81.7587L87.9785 83.6229L88.2451 84.4218L87.4453 87.085L86.3789 89.7481L85.0459 92.4113L83.9795 93.4765L81.8467 94.0091H78.6475L75.1816 92.6776L72.7822 91.346L70.6494 89.4818L70.1162 87.085V86.5523L66.3838 86.0197L65.0508 83.6229L63.1846 80.9597L62.6514 79.3618V77.4976H62.1182L61.8516 74.3019L63.9844 70.3072L64.251 71.1061L63.4512 72.9703L63.1846 74.5682V78.0303L64.251 81.4924L65.584 83.0902H68.25L69.8496 81.7587L70.916 78.2966V74.5682L70.3828 71.905L68.7832 69.7745L67.9834 69.2419L66.1172 68.9756V68.7093L67.7168 68.443L66.6504 67.3777L65.8506 64.7146L63.7178 63.6493V62.584L59.7188 63.1167L58.1191 62.584L57.0527 61.5188L56.2529 58.8556L54.6533 56.9914L53.0537 56.4588L52.2539 55.1272V51.3988L52.7871 49.5346H53.3203L53.5869 47.9368L54.9199 45.8062L56.5195 44.2084H57.0527L56.7861 43.4094L58.6523 41.2789L59.7188 40.7463L59.9854 40.2136L59.1855 39.9473L58.9189 39.1484H57.8525V38.6158L60.252 37.8168L63.7178 37.2842Z" fill="#598E41"/>
<path d="M42.6562 86.5522L43.7227 87.6175L44.2559 89.748L45.5889 90.547V91.0796H46.1221L47.4551 97.7374L49.3213 105.194L51.7207 113.716L53.8535 118.244L55.1865 119.575V120.108L56.2529 120.374L59.9854 122.238L62.6514 123.304L65.3174 124.103L69.3164 124.635L72.5156 124.103L74.6484 123.304L77.5811 121.173L81.5801 117.711L83.4463 115.581H84.2461L85.0459 112.651L85.5791 113.184L84.2461 117.445L81.5801 123.57L79.4473 126.499L76.5146 129.695L73.3154 131.559L69.0498 133.157L67.9834 133.424H61.8516L57.8525 132.092L55.1865 130.228L53.0537 128.364L51.1875 125.7L49.5879 121.972L48.2549 117.977L47.1885 113.184L46.9219 111.586V116.113L47.7217 120.64L48.7881 123.836L50.3877 126.766L50.9209 127.831L49.3213 128.364H45.5889L42.3896 127.565L39.1904 126.233L36.5244 124.369L34.125 121.706L32.2588 118.776L31.459 116.912L29.8594 112.385L27.46 99.6016L27.7266 98.2701L31.9922 97.7374L32.2588 96.9385L31.7256 96.6722H32.792L33.0586 99.069V104.395L34.3916 109.722L35.9912 112.385L37.3242 114.249V114.782H37.8574V115.314L40.2568 115.847L42.123 115.048L42.9229 112.651L43.1895 101.998L43.4561 99.6016V97.2048L42.9229 94.2754L42.123 93.7427V92.4112L43.1895 90.8133H42.6562L41.8564 88.1501L42.123 86.8186L42.6562 86.5522Z" fill="#215226"/>
<path d="M87.7119 33.8218H93.8438L97.3096 34.887L99.709 36.2186L102.642 38.6154L104.508 41.0123L106.641 45.2733L108.24 50.3333L108.773 54.5943V65.2469L107.707 72.4374L106.907 76.9647L105.841 80.9594L104.508 86.552L102.375 95.3404L101.309 99.6014L100.509 102.531H100.242L100.509 99.8677L102.375 87.0846L104.241 78.03L105.308 72.171V70.5732L103.975 71.9047L103.441 73.2363V74.8342L103.175 75.3668H102.642L102.375 76.1658L101.309 76.9647H99.9756V77.4973L98.376 77.7636L97.043 77.4973L96.5098 78.8289H96.2432V73.2363L95.4434 70.0405L94.377 68.4426L92.7773 67.3774L93.3105 63.649V58.0564L92.5107 53.2627L91.1777 47.9364L89.0449 43.1428L89.3115 39.6807L89.8447 38.8817H90.3779L90.9111 37.5502L92.2441 36.2186H92.7773V35.686L90.6445 35.4197L89.5781 35.1533H84.2461L84.7793 34.6207L87.7119 33.8218Z" fill="#5A8F41"/>
<path d="M54.1201 0L56.5195 0.266314L59.1855 1.8642L61.8516 4.26103L63.7178 6.12523L66.3838 9.85363L68.5166 14.381L70.1162 20.2399L70.916 24.5009V26.6314L71.4492 26.8977L71.1826 27.4304H71.9824V29.0283L73.0488 30.8925L75.4482 32.4903L75.9814 33.023H80.2471L81.8467 34.0882L82.1133 35.9524L79.9805 37.5503L79.1807 38.083V38.6156L82.9131 41.0124L84.7793 43.1429L84.2461 43.9419L83.1797 43.4092L81.3135 41.8113L78.1143 39.9471L73.8486 38.3493L70.3828 37.5503H63.7178L59.4521 38.3493L56.2529 39.6808L51.4541 42.344L48.7881 44.7408L47.7217 45.8061L47.9883 44.2082L49.5879 41.8113L52.2539 39.4145L53.3203 39.1482V38.6156L51.9873 38.083L51.4541 37.284H52.2539L50.9209 36.4851L50.1211 34.6209L50.9209 34.0882L54.1201 33.5556L58.6523 30.8925L59.9854 29.2946V28.4956L59.1855 27.6967H60.5186L60.252 22.3704L58.9189 18.3757L56.7861 15.4462L53.8535 13.8483L49.5879 12.7831L47.9883 11.4515L47.7217 10.9189V6.92417L49.3213 3.7284L51.4541 1.33157L54.1201 0Z" fill="#183F1C"/>
<path d="M63.7178 37.2842H70.3828L75.4482 38.6158L78.6475 39.9473L82.3799 42.3442L84.5127 44.4747L86.1123 46.8715L87.7119 51.9315V53.7957L86.9121 53.5294L85.8457 51.1325L84.7793 48.4694L84.2461 47.9368L83.4463 48.7357V50.3336L84.5127 54.5946L85.5791 62.0514L85.0459 67.3777L84.5127 69.7745L83.1797 70.8398H81.3135L79.9805 69.5082L79.1807 67.1114L77.0479 65.5135L75.7148 64.1819L74.6484 61.7851L74.1152 59.3883L71.4492 55.9262L70.916 54.5946H70.3828L69.0498 53.263L65.584 51.3988L63.4512 51.1325L60.5186 51.9315L58.3857 52.7304L56.2529 55.6599L54.9199 56.4588H53.0537L52.2539 55.1272V51.3988L52.7871 49.5346H53.3203L53.5869 47.9368L54.9199 45.8062L56.5195 44.2084H57.0527L56.7861 43.4094L58.6523 41.2789L59.7188 40.7463L59.9854 40.2136L59.1855 39.9473L58.9189 39.1484H57.8525V38.6158L60.252 37.8168L63.7178 37.2842Z" fill="#72A256"/>
<path d="M54.1201 1.59766L55.9863 1.86397L58.6523 3.46186L61.8516 6.39131L64.251 9.58709L66.3838 13.5818L67.9834 18.3755L69.8496 27.6965L70.916 30.3596L71.9824 31.6912L75.1816 34.088L75.4482 34.3543L79.7139 34.088L80.5137 34.6206L79.9805 35.6859L77.5811 37.5501H76.248L74.3818 36.7511L70.916 35.9522L67.9834 35.6859L66.917 35.1533V34.6206L65.0508 33.5554L64.5176 32.4901L65.0508 28.7617V23.4354H65.3174L65.0508 21.3049L62.918 16.2449L60.5186 13.0492L59.1855 11.4513L56.7861 9.8534L54.3867 8.52183L54.9199 6.125L55.4531 3.19554L54.6533 3.99449L53.3203 7.45657L52.5205 8.25551L51.9873 7.45657L50.6543 7.19026L49.8545 8.52183L49.3213 9.58709V7.45657L50.1211 5.32606L52.7871 2.3966L54.1201 1.59766Z" fill="#5A8F41"/>
<path d="M74.1152 25.5659H79.7139L83.9795 26.6312L87.1787 28.2291L89.8447 30.3596L91.1777 31.6911L95.1768 32.2238L98.6426 33.5553L101.575 35.4195L104.241 37.8164L106.374 40.7458L108.507 45.0069L110.106 51.1321L110.64 54.5942V64.9804L109.84 71.1057L109.307 70.573L108.507 71.6383L107.974 70.573L108.24 67.6436L108.507 65.2468V54.5942L107.974 50.3332L105.841 43.9416L103.708 40.2132L101.842 38.0827L98.9092 35.9522L95.9766 34.6206L93.8438 34.088H87.7119L84.2461 35.1532H82.3799L82.1133 35.6859L81.3135 33.8217L80.2471 33.289H75.9814L74.3818 31.9575L72.5156 30.6259L71.7158 29.028L71.9824 27.4301H71.1826L70.916 26.0985L74.1152 25.5659Z" fill="#255427"/>
<path d="M88.5117 128.896L89.5781 129.961L91.4443 133.69L92.5107 137.951L91.9775 139.016L90.9111 139.549L90.1113 140.88L94.377 138.75L97.5762 138.483L99.1758 139.282L99.4424 140.88L98.1094 143.011L95.9766 145.141L94.6436 145.94L94.1104 145.674L94.377 145.141L91.9775 144.875L89.3115 146.473L88.7783 147.804H90.9111L90.3779 148.337L89.3115 148.603H86.9121L85.5791 147.538L84.5127 145.94L84.7793 145.407L85.5791 146.206L86.6455 145.674L86.1123 144.342L85.3125 143.81L84.2461 144.076H83.4463L81.0469 140.348L79.1807 137.951L77.8477 136.353H78.6475L79.9805 137.152L81.5801 139.282L82.9131 141.146L83.7129 141.413L82.6465 137.152L81.8467 135.554L82.1133 134.222L83.4463 132.891L85.5791 131.559L87.7119 130.494L88.5117 128.896Z" fill="#3C6F31"/>
<path d="M35.9912 32.4902H37.8574V34.0881L33.0586 35.4197L29.8594 37.2839H29.3262V37.8165L27.1934 39.4144L24.7939 42.6102L22.9277 46.6049L21.5947 50.8659L20.7949 55.3933L20.5283 58.3227V62.3174L21.0615 68.1764L22.3945 75.8995L24.2607 83.8889L26.127 83.6226H30.126L30.6592 83.8889V84.4215L24.2607 85.7531L19.9951 87.6173L17.0625 90.0141L14.9297 92.6773L13.0635 96.672L12.5303 98.2699L12.2637 101.199L12.7969 103.33L13.8633 104.661L14.9297 105.194L15.4629 105.993L14.6631 106.526L13.5967 106.792L11.4639 105.194L10.3975 103.064V99.0688L11.4639 95.0741L13.3301 91.612L15.4629 88.9489L17.5957 86.8184L21.3281 84.6878L22.3945 84.4215L20.7949 78.5626L19.7285 72.97L18.6621 66.0458V55.9259L19.4619 51.1322L20.5283 47.1375L22.3945 43.1428L24.2607 39.947L26.6602 37.2839L30.126 34.6207L33.8584 33.0229L35.9912 32.4902Z" fill="#1D431E"/>
<path d="M35.458 38.3491H37.8574L38.9238 38.8817L41.5898 38.6154V39.1481L42.9229 39.6807L45.5889 41.2786V42.0775L42.9229 46.3386L40.2568 51.9312L36.2578 50.8659L33.3252 48.7354L32.5254 47.9364V47.4038L30.3926 49.268L29.0596 49.5343L28.2598 47.9364L28.5264 45.2733L29.8594 42.6102L32.5254 39.6807L35.458 38.3491Z" fill="#71A156"/>
<path d="M31.7256 133.423L35.1914 133.69L36.2578 133.956H40.2568L42.3896 133.69L45.5889 134.755L48.2549 135.82H51.9873L51.4541 136.885L49.0547 139.549L46.3887 141.413L43.9893 142.478L42.6562 142.744H40.2568L37.3242 141.679L34.3916 140.081L31.7256 137.684L31.459 136.885H30.9258L31.1924 139.549L29.0596 140.88L28.5264 141.146H26.127L25.3271 140.081L25.5938 138.217L27.1934 137.951L29.0596 135.288L31.7256 133.423Z" fill="#3C6F31"/>
<path d="M54.9199 3.1958H55.4531L55.1865 6.12526L54.3867 8.52209L55.9863 9.05472L58.3857 10.6526L59.9854 11.9842L62.6514 15.4463L64.251 18.642L65.584 22.1041V23.702H65.3174V28.762L64.7842 32.7567L65.8506 33.822L67.1836 34.6209V35.4198L61.0518 36.2188L55.1865 38.083L53.8535 37.5504L51.1875 35.6862L52.2539 35.1535L54.9199 34.6209L55.9863 34.8872L56.7861 35.4198H57.3193L57.8525 34.3546L58.9189 33.023L60.252 31.6914L61.3184 29.2946L61.8516 26.8978V22.1041L60.5186 18.1094L58.9189 15.4463L57.0527 13.5821L54.1201 12.2505L49.8545 11.1852L49.3213 10.6526L49.5879 8.52209L50.3877 7.19052L51.1875 6.9242L52.2539 7.45683L52.5205 7.98946L53.5869 6.39157L54.6533 3.46212L54.9199 3.1958Z" fill="#3C6F31"/>
<path d="M48.7881 26.3652H54.6533L58.6523 27.1642L59.4521 27.6968L60.5186 28.7621L59.4521 30.3599L57.8525 31.6915L54.1201 33.822L50.9209 34.3547L50.3877 34.8873L50.9209 36.4852L52.2539 37.0178L52.7871 37.8168L50.9209 37.2841L49.3213 35.9525L45.0557 34.3547L43.1895 34.0883H40.5234L37.3242 34.3547L37.8574 34.0883L37.5908 32.2241L39.7236 30.0936L42.6562 28.2294L45.8555 26.8979L48.7881 26.3652Z" fill="#1C431E"/>
<path d="M116.771 84.4214H118.904L120.771 85.2203L121.304 86.2856V89.4814L120.237 92.1445L118.104 95.074L115.705 97.4708L111.439 99.6013L109.573 99.8676L110.906 98.536H111.439L111.173 98.0034L107.974 97.2045L106.907 96.4055L106.641 94.0087L106.907 89.4814L107.707 89.215H111.173L113.306 87.3508L115.172 85.4866L116.771 84.4214Z" fill="#3C6F31"/>
<path d="M70.916 42.8765L73.3154 43.1428L75.7148 44.4744L77.3145 45.5396L78.6475 47.1375L79.7139 49.8006L80.2471 49.268L80.7803 51.3985L81.5801 54.0617V58.3227L80.7803 60.1869L79.7139 59.9206L77.0479 58.589L74.6484 56.7248L73.8486 55.9259V55.3932H73.3154L72.249 53.7954L70.916 52.4638V51.9312L69.8496 51.3985L69.0498 50.5996L69.3164 49.5343L69.0498 47.4038L70.1162 43.4091L70.916 42.8765Z" fill="#7DB05B"/>
<path d="M87.7119 33.8218H93.8438L97.3096 34.887L99.709 36.2186L102.642 38.6154L104.508 41.0123L106.641 45.2733L108.24 50.3333L108.773 54.5943V65.2469L107.707 72.4374L107.174 72.97L107.44 69.7742L107.974 65.2469V57.5238L106.907 57.2574V60.1869H106.641L106.107 55.1269L105.041 51.1322L102.908 44.7407H102.375V46.3386L102.108 46.8712L100.242 46.6049L97.8428 43.9417V43.4091H97.3096L96.2432 41.2786L96.5098 39.947L98.376 39.1481L96.2432 37.5502L94.1104 36.2186L89.5781 35.1533H84.2461L84.7793 34.6207L87.7119 33.8218Z" fill="#A2C776"/>
<path d="M97.5762 38.6157L98.6426 39.1484V39.4147L96.7764 39.9473L96.5098 41.2789L97.3096 42.8768V43.4094H97.8428L99.9756 46.0725L100.775 46.6052L102.108 46.8715L102.375 44.741H102.908L104.241 47.6704V50.0672L103.441 52.7304L102.375 54.062L100.509 54.8609L98.376 54.5946L95.9766 52.9967L94.1104 51.1325L91.9775 47.6704L90.9111 45.5399L90.3779 44.2083L91.7109 42.6104L93.3105 40.2136L95.4434 39.1484L97.5762 38.6157Z" fill="#7DB05B"/>
<path d="M31.7256 128.63L33.5918 128.896L36.791 130.228L37.8574 130.76L37.3242 132.358L37.0576 132.891L38.3906 132.092L39.9902 129.429L40.5234 128.63L42.6562 129.429V129.695H40.79L40.5234 130.76L39.9902 131.293L40.79 132.092L42.9229 131.559L43.1895 129.695L45.5889 129.961H48.7881L51.4541 129.695V130.494H51.9873L52.2539 132.891L53.8535 132.625L54.1201 133.157L52.2539 136.087H48.2549L43.4561 134.222L41.0566 133.956L40.2568 134.222H36.2578L33.5918 133.69H31.7256L29.0596 135.554L27.46 137.951L26.127 138.484L25.5938 138.217L26.3936 135.288L28.2598 131.826L30.3926 129.429L31.7256 128.63Z" fill="#215226"/>
<path d="M87.7119 104.129L88.7783 104.395V109.722L88.2451 115.314L88.7783 116.912L90.1113 117.711L91.7109 117.178L93.3105 115.314H94.377L94.1104 116.646L91.1777 122.771L86.6455 125.7L85.8457 125.967V126.499L84.2461 127.565V128.097L82.9131 128.364H79.9805L81.8467 125.168L83.9795 121.173L85.3125 116.912L86.3789 109.988L86.1123 108.124L87.4453 104.395L87.7119 104.129Z" fill="#215226"/>
<path d="M65.8506 69.2417H68.25L69.8496 70.5733L70.6494 71.9048L71.1826 74.568V78.2964L70.1162 81.7585L68.25 83.3564H65.584L63.9844 81.4922L62.918 78.0301V74.568L63.4512 72.1712L64.7842 70.0406L65.8506 69.2417Z" fill="#173D1B"/>
<path d="M122.104 87.085L122.637 87.6176L122.37 89.4818H122.903L122.37 91.8786L120.771 94.5418L118.371 97.4712L115.172 99.868L110.906 101.732L109.04 102.265H102.642V101.466L103.441 98.0038L103.708 95.607L105.574 88.6828L107.174 89.2155L106.907 95.607L107.174 96.406L107.974 96.9386L111.173 97.7375L111.439 98.5365L109.84 99.6017L112.239 99.0691L115.705 97.2049L118.371 94.5418L120.504 91.0797L121.037 89.4818H121.57L121.837 87.3513L122.104 87.085Z" fill="#1D441F"/>
<path d="M91.7109 67.6436H93.5771L95.1768 68.9751L96.2432 71.6383L96.5098 73.2362V77.2309L95.4434 80.1603L93.8438 81.4919L91.9775 81.7582L90.3779 80.693L89.0449 78.0298L88.7783 76.6982V72.7035L89.3115 70.0404L91.1777 67.9099L91.7109 67.6436Z" fill="#183D1B"/>
<path d="M54.1201 0L56.5195 0.266314L59.1855 1.8642L61.8516 4.26103L63.7178 6.12523L66.3838 9.85363L68.5166 14.381L70.1162 20.2399L70.6494 23.1693L70.3828 24.5009V26.6314H69.3164L67.7168 18.3757L66.1172 13.582L63.7178 9.05469L60.7852 5.5926L58.3857 3.46209L55.4531 1.8642H54.1201L51.9873 3.46209L50.1211 5.85892L49.5879 7.4568L49.0547 7.72312V10.3863L50.1211 11.4515L54.9199 12.7831L57.0527 14.381L55.9863 14.9136L53.8535 13.8483L49.5879 12.7831L47.9883 11.4515L47.7217 10.9189V6.92417L49.3213 3.7284L51.4541 1.33157L54.1201 0Z" fill="#204720"/>
<path d="M27.7266 98.5361L28.5264 99.0688L29.0596 101.732L29.8594 103.596L31.459 108.922L33.5918 115.048L35.9912 119.575L38.9238 123.037L42.123 125.434L45.3223 126.765L47.9883 127.298V127.831L48.5215 128.097L47.7217 128.363H45.5889L42.3896 127.564L39.1904 126.233L36.5244 124.369L34.125 121.705L32.2588 118.776L31.459 116.912L29.8594 112.384L27.46 99.6014L27.7266 98.5361Z" fill="#3C6F31"/>
<path d="M75.7148 27.1641H78.3809L82.3799 27.963L86.6455 30.0935L88.2451 31.6914V32.224L85.8457 32.7567L81.8467 34.3546L80.2471 33.2893H75.9814L74.3818 31.9577L72.5156 30.6261L71.7158 29.0283L71.9824 27.6967L75.7148 27.1641Z" fill="#3C6F31"/>
<path d="M107.44 56.9912L108.24 57.5238V65.247L107.44 71.3722V73.769L106.907 76.9648L105.841 80.9595L104.508 86.5521L102.375 95.3405L101.309 99.6015L100.509 102.531H100.242L100.509 99.8678L102.375 87.0847L104.241 78.03L105.574 70.0406L106.107 65.5133L106.374 61.2522L106.907 57.2575L107.44 56.9912Z" fill="#7DB05B"/>
<path d="M56.7861 2.66309L57.8525 2.9294L60.5186 5.05991L63.1846 7.98937L65.3174 11.4515L67.1836 15.7125L68.5166 20.7725L69.8496 27.6966L70.916 30.3598L71.9824 31.6913L74.915 33.8219V34.3545H70.916L69.0498 31.425L67.9834 28.4956L67.4502 24.2345L66.6504 20.5061L65.0508 15.7125L62.6514 11.1851L60.5186 8.522L58.6523 6.92412L58.3857 6.39149L57.5859 6.12517V5.59254L56.5195 5.32623L56.2529 5.05991V3.72834H57.5859L56.7861 2.66309Z" fill="#A0C675"/>
<path d="M87.7119 128.363L88.7783 128.63L87.9785 130.494L86.3789 131.559L83.7129 132.891L82.9131 133.69H82.3799L82.1133 135.554L83.1797 137.684L83.7129 139.815V141.413L82.6465 141.146L80.7803 138.75L79.4473 136.885L77.8477 136.353L75.9814 134.755L74.3818 133.423L74.915 132.358L78.3809 130.227L82.6465 129.961L85.0459 129.429L87.7119 128.363Z" fill="#215226"/>
<path d="M47.9883 28.2295H55.7197L59.7188 29.2947L59.4521 30.36L57.8525 31.6916L55.9863 32.4905V31.9579H53.5869L51.4541 32.2242V32.4905L47.7217 32.7568L46.6553 33.5558L44.2559 33.0232L40.2568 32.4905L41.5898 31.159L44.5225 29.2947L47.9883 28.2295Z" fill="#3C6F31"/>
<path d="M65.584 22.104L66.1172 23.1693L66.6504 25.2998L67.1836 24.7671L67.7168 26.0987L68.7832 30.0934L70.3828 33.2892L70.916 34.0881H75.1816L75.4482 34.3545L79.7139 34.0881L80.5137 34.6208L79.9805 35.686L77.5811 37.5502H76.248L74.3818 36.7513L70.916 35.9523L67.9834 35.686L66.917 35.1534V34.6208L65.0508 33.5555L64.5176 32.4903L65.0508 28.7619V23.4356H65.3174L65.584 22.104Z" fill="#598D40"/>
<path d="M105.841 40.4795L106.907 41.5447L108.773 45.8058L110.106 51.1321L110.64 54.5942V64.9804L109.84 71.1056L109.307 70.573L108.507 71.6383L107.974 70.573L108.24 67.6436L108.507 65.2467V54.5942L107.974 50.3331L105.841 43.9416L104.774 41.8111L105.041 41.2784L105.841 41.5447V40.4795Z" fill="#214D24"/>
<path d="M97.5762 38.6157L98.6426 39.1484V39.4147L96.7764 39.9473L95.4434 40.2136V41.0126L93.5771 41.5452L93.3105 43.1431L93.0439 45.0073L93.8438 46.3388L94.6436 48.7357L96.2432 50.8662L97.043 51.1325H99.9756L101.575 50.5999L102.642 50.8662L102.908 50.0672L102.642 45.2736H103.175L104.241 47.6704V50.0672L103.441 52.7304L102.375 54.062L100.509 54.8609L98.376 54.5946L95.9766 52.9967L94.1104 51.1325L91.9775 47.6704L90.9111 45.5399L90.3779 44.2083L91.7109 42.6104L93.3105 40.2136L95.4434 39.1484L97.5762 38.6157Z" fill="#72A256"/>
<path d="M31.9922 35.686H32.792V36.485H33.3252L33.5918 37.2839L30.126 39.6808L28.793 40.746L26.9268 43.4092L24.5273 48.4691L23.4609 52.9965L22.6611 58.0564H22.3945L22.1279 55.127H21.3281L21.0615 56.7249H20.7949V53.5291L22.1279 47.9365L23.9941 43.6755L25.8604 40.746L27.9932 38.3492L29.3262 37.8166V37.2839L31.9922 35.686Z" fill="#588D40"/>
<path d="M25.0605 85.2207H27.1934L26.127 86.286L27.1934 86.5523L27.46 87.3512H27.9932L28.2598 86.5523L27.9932 88.4165L26.6602 89.2154L26.127 90.0144H25.5938L25.3271 90.547L21.8613 92.1449L20.7949 92.4112H17.0625L16.2627 92.6775L16.5293 91.3459H15.9961L16.5293 90.2807L19.1953 87.8838L23.4609 85.7533L25.0605 85.2207Z" fill="#5A8F41"/>
<path d="M105.574 88.6826L107.174 89.2152L106.907 95.6068L107.174 96.4057L107.974 96.9384L111.173 97.7373L111.439 98.5362L109.84 99.6015V100.134L107.707 100.667H102.908L103.441 98.0036L103.708 95.6068L105.574 88.6826Z" fill="#215226"/>
<path d="M35.9912 43.1431L36.791 43.4094L36.2578 44.2083L36.5244 45.5399L39.7236 46.8715V47.4041L41.3232 47.1378L42.123 47.4041L41.5898 49.002L40.2568 51.9314L36.2578 50.8662L33.3252 48.7357L32.5254 47.9367V47.4041L31.9922 47.1378L34.3916 44.4746L35.9912 43.1431Z" fill="#598E40"/>
<path d="M70.1162 24.2344L70.916 24.5007V26.6312L71.4492 26.8975L71.1826 27.4301H71.9824V29.028L73.0488 30.8922L75.4482 32.4901L75.9814 33.0227H80.2471L81.8467 34.088L82.1133 35.9522L79.9805 37.5501L79.1807 38.0827V38.6154L82.9131 41.0122L84.7793 43.1427L84.2461 43.9416L83.1797 43.409L81.3135 41.8111L78.9141 40.4796V39.9469L78.1143 39.148L77.5811 37.5501L78.9141 36.2185L80.2471 35.1533V34.6206L79.7139 34.3543L75.4482 34.6206L72.5156 32.2238L70.916 30.8922L70.1162 29.028L69.583 27.6965V25.5659L69.8496 26.6312H70.3828L70.1162 24.2344Z" fill="#1A411D"/>
<path d="M116.771 84.4214H118.904L120.771 85.2203L121.304 86.2856V89.4814H120.771V88.6824L119.704 89.215L117.305 89.7477H114.905L113.572 89.4814L111.706 90.8129L109.573 91.0792L108.24 90.2803V89.7477L111.173 89.215L113.306 87.3508L115.172 85.4866L116.771 84.4214Z" fill="#5A8E41"/>
<path d="M59.4521 43.1431H61.3184L62.6514 44.4746L62.918 46.0725L61.585 47.4041L59.9854 48.7357L58.3857 49.002H54.3867L53.8535 48.7357L53.3203 50.3336L53.0537 49.5346L54.1201 46.8715L55.9863 44.741L57.5859 43.6757L59.4521 43.1431Z" fill="#A3C877"/>
<path d="M26.6602 94.2754H30.6592L31.1924 94.5417L30.9258 95.8733L29.8594 96.1396L30.9258 96.6722L27.1934 96.9385L24.2607 98.0038L21.8613 99.868L19.9951 101.999L19.1953 102.797L17.8623 103.596H16.5293L16.2627 102.265L18.3955 100.667L18.9287 100.401L19.7285 98.2701L22.1279 96.1396L25.3271 94.5417L26.6602 94.2754Z" fill="#215226"/>
<path d="M39.7236 30.0933L40.2568 30.3596L39.1904 31.6911L39.7236 31.9575L39.9902 32.2238L45.5889 33.0227L46.6553 33.289L47.7217 32.4901L51.1875 32.2238L52.2539 31.9575L54.9199 31.6911L55.9863 31.9575V32.7564L53.3203 34.088L50.9209 34.3543L50.3877 34.8869L50.9209 36.4848L52.2539 37.0174L52.7871 37.8164L50.9209 37.2837L49.3213 35.9522L45.0557 34.3543L43.1895 34.088H40.5234L37.3242 34.3543L37.8574 34.088L37.5908 32.2238L39.7236 30.0933Z" fill="#205025"/>
<path d="M45.3223 49.002L45.5889 49.8009L45.0557 51.3988L44.7891 53.5293L45.0557 55.3935L44.2559 58.8556L43.9893 63.9156V70.8397L44.2559 80.427L43.7227 80.1607L42.9229 75.3671L42.3896 67.9103V61.785L42.9229 56.7251L43.7227 52.9967L45.3223 49.002Z" fill="#18401C"/>
<path d="M60.7852 4.79346L62.1182 5.85871L62.918 6.12503L65.584 9.85343L67.7168 14.3808L69.3164 20.2397L69.8496 23.1691L69.583 24.5007V26.6312H68.5166L66.917 18.3755L65.3174 13.5818L62.918 9.05449L62.3848 8.52186L61.585 6.65766L60.7852 5.32609V4.79346Z" fill="#265427"/>
<path d="M104.508 76.166H104.774L105.041 77.4976L105.841 78.2965L105.574 82.5576L103.175 91.8786L102.375 95.3406L101.309 99.6017L100.509 102.531H100.242L100.509 99.868L102.375 87.0849L104.241 78.0302L104.508 76.166Z" fill="#6FA054"/>
<path d="M60.7852 46.605H61.3184L60.7852 47.9366L57.8525 50.866L56.2529 52.9965L52.7871 54.0618H51.4541L51.1875 54.5944L50.9209 53.2628V51.3986L51.4541 49.5344L51.9873 49.8008L52.5205 48.7355H57.5859L59.4521 47.9366L60.7852 46.605Z" fill="#7DB05B"/>
<path d="M67.4502 37.5503H71.4492L75.4482 38.6156L78.6475 39.9471L80.7803 41.2787L80.2471 41.545H79.4473L80.2471 42.344L79.4473 42.6103L79.7139 43.1429L77.0479 42.344L70.6494 39.9471L69.0498 39.4145V38.8819L66.6504 38.6156L66.1172 38.0829L67.4502 37.5503Z" fill="#A2C776"/>
<path d="M60.252 37.8164L62.6514 38.0827V38.8817L63.4512 39.148L69.0498 39.6806V39.9469L66.3838 40.2132L62.918 42.0774L62.1182 43.409H59.4521L57.0527 44.208L56.7861 43.409L58.6523 41.2785L59.7188 40.7459L59.9854 40.2132L59.1855 39.9469L58.9189 39.148H57.8525V38.6153L60.252 37.8164Z" fill="#5A8F41"/>
<path d="M69.3164 33.5557L69.8496 33.822L70.6494 33.5557L70.916 34.0883H75.1816L75.4482 34.3546L79.7139 34.0883L80.5137 34.6209L79.9805 35.6862L77.5811 37.5504H76.248L74.3818 36.7514L70.916 35.9525L67.9834 35.6862L66.917 35.1536L67.1836 34.6209L69.0498 34.0883L69.3164 33.5557Z" fill="#5A8F41"/>
<path d="M84.7793 82.291L85.5791 82.5573L85.3125 84.6878L83.1797 86.552L82.1133 86.8184H78.6475L76.5146 85.7531L74.915 83.8889L75.1816 82.8236H76.5146L78.1143 84.4215L78.9141 84.6878H81.8467L83.1797 83.8889L84.2461 82.5573L84.7793 82.291Z" fill="#173C1A"/>
<path d="M79.1807 27.6968H81.3135L84.2461 28.762L86.6455 30.0936L88.2451 31.6915V32.2241L85.0459 32.7567V31.1589L81.3135 30.8925L78.9141 29.8273L78.6475 29.2947L79.1807 27.6968Z" fill="#5F9345"/>
<path d="M59.9854 7.98926L61.585 9.32083L63.9844 13.0492L65.8506 17.0439L67.4502 22.6365L67.9834 25.566V27.4302H67.7168L67.1836 25.0334L66.6504 25.566L66.1172 24.7671L65.8506 22.1039H65.3174L63.7178 18.1092L63.1846 15.7124H63.7178L63.9844 14.3808L61.585 10.3861L59.9854 8.52189V7.98926Z" fill="#73A456"/>
<path d="M116.771 84.4214H118.904L119.704 84.6877V85.4866L117.838 86.5519H116.771V87.0845L115.438 87.3508L114.905 88.4161L112.239 90.5466L110.906 91.0792L108.773 90.8129L108.24 89.7477L111.173 89.215L113.306 87.3508L115.172 85.4866L116.771 84.4214Z" fill="#699B4F"/>
<path d="M53.0537 59.3882L54.3867 60.1871V63.9155L53.5869 65.7797L52.7871 66.3124L51.4541 66.046L50.9209 64.9808V61.785L51.7207 60.1871L53.0537 59.3882Z" fill="#6F9F54"/>
<path d="M97.5762 33.2891L99.1758 33.8217L102.642 36.2185L105.574 39.4143L106.107 40.4796V41.8111L104.508 41.5448L103.441 39.9469L101.842 38.0827L98.9092 35.9522L97.3096 35.1533L97.043 33.5554L97.5762 33.2891Z" fill="#275628"/>
<path d="M7.73145 91.0796L8.53125 91.3459L6.39844 96.6722L5.86523 99.069L5.59863 103.863L4.79883 103.33L3.99902 100.401L4.26562 96.6722L5.59863 93.4764L6.93164 91.6122L7.73145 91.0796Z" fill="#78A75A"/>
<path d="M88.5117 131.826H89.8447L90.3779 133.69L91.1777 133.956L91.4443 135.554H91.9775L92.5107 138.484L91.7109 139.282L90.9111 139.549L90.6445 140.081H89.8447L89.0449 137.152V134.223L88.5117 132.891V131.826Z" fill="#568A3E"/>
<path d="M47.9883 28.2295H55.7197L56.2529 28.7621L52.7871 29.2947L46.9219 30.6263L43.7227 30.8926L42.9229 30.36L45.0557 29.0284L47.9883 28.2295Z" fill="#5A8E42"/>
<path d="M67.9834 27.4302L69.3164 28.2291L69.8496 27.6965L70.916 30.3596L71.9824 31.6912L74.915 33.8217V34.3543H70.916L69.0498 31.4249L67.9834 28.4954V27.4302Z" fill="#7EB05C"/>
<path d="M82.3799 42.8765L83.4463 43.4091L85.5791 45.8059L86.6455 48.2028L87.7119 51.9312V53.7954L86.9121 53.529L85.8457 51.1322L84.5127 47.4038L81.5801 43.9417L82.3799 42.8765Z" fill="#7BAD5A"/>
<path d="M108.507 51.665L109.04 51.9314L109.573 53.7956L109.84 56.9913V62.0513L109.307 67.1113L108.773 68.4428H108.507V51.665Z" fill="#1F471F"/>
<path d="M52.5205 3.1958L52.7871 3.99474L53.8535 3.72843L54.1201 4.26106L53.8535 6.39157L52.7871 8.25577L51.9873 7.45683L50.6543 7.19052L49.8545 8.52209L49.3213 9.58734V7.45683L50.1211 5.32632L51.4541 3.72843L52.5205 3.1958Z" fill="#598E41"/>
<path d="M48.7881 6.3916H49.0547V10.3863L50.1211 11.4516L54.9199 12.7831L57.0527 14.381L55.9863 14.9137L53.8535 13.8484L49.5879 12.7831L47.9883 11.4516L48.2549 10.3863L48.5215 6.92423L48.7881 6.3916Z" fill="#275528"/>
<path d="M20.5283 132.625H21.3281L20.7949 133.956L19.7285 136.353L19.4619 139.815L18.9287 140.614L17.8623 139.016V136.087L18.9287 133.956L20.5283 132.625Z" fill="#7AA95C"/>
<path d="M91.9775 144.608L93.8438 144.875L94.377 145.141L94.1104 146.473L91.7109 147.804L89.5781 148.07L88.7783 147.804L88.5117 147.005H89.0449L89.3115 146.206L91.9775 144.608Z" fill="#215226"/>
<path d="M67.7168 71.106L69.0498 71.9049L69.583 72.9702L69.3164 75.367L68.5166 75.8996L67.1836 75.6333L66.3838 74.0354L66.6504 71.9049L67.7168 71.106Z" fill="#FBFCFB"/>
<path d="M92.7773 69.5078L94.1104 69.7741L94.6436 70.3068V73.2362L93.8438 74.0352H92.5107L91.7109 72.7036L91.9775 70.3068L92.7773 69.5078Z" fill="#FAFBF9"/>
<path d="M77.8477 37.5503H79.1807V38.6156L82.9131 41.0124L84.7793 43.1429L84.2461 43.9418L83.1797 43.4092L81.3135 41.8113L78.9141 40.4798V39.9471L78.1143 39.1482L77.5811 37.8166L77.8477 37.5503Z" fill="#1A411D"/>
<path d="M109.84 62.0513L110.64 62.5839V64.9807L109.84 71.106L109.307 70.5733L108.507 71.6386L107.974 70.5733L108.24 67.6439L108.773 67.9102L109.307 65.247L109.573 62.3176L109.84 62.0513Z" fill="#1C4821"/>
<path d="M96.2432 138.483H96.7764V139.549H97.3096L97.043 140.348L95.4434 141.147L92.2441 141.679L91.4443 140.88L91.7109 140.081L94.377 138.75L96.2432 138.483Z" fill="#6D9F51"/>
<path d="M35.458 38.3491H37.8574L38.9238 38.8817L41.5898 38.6154V39.1481L42.9229 39.6807L45.5889 41.2786V42.0775L44.5225 43.6754L43.4561 42.3438L42.6562 40.4796L41.0566 40.2133H39.457L38.3906 39.1481L35.458 38.6154V38.3491Z" fill="#598E40"/>
<path d="M78.1143 34.0884H79.7139L80.5137 34.621L79.9805 35.6863L77.5811 37.5505H76.248L75.1816 36.7515V36.2189H76.5146V34.8873L75.4482 34.621L78.1143 34.0884Z" fill="#7AAC59"/>
<path d="M57.5859 1.06543L58.9189 1.59806L62.1182 4.52752L63.4512 6.1254L62.3848 5.59277H62.1182L63.1846 7.45697L62.918 7.9896L59.7188 4.52752L58.3857 3.46226L57.3193 1.59806L57.5859 1.06543Z" fill="#214E24"/>
<path d="M54.1201 1.59766L55.9863 1.86397L57.0527 2.66291L57.8525 3.99449L56.2529 3.72817L55.9863 4.79343L55.4531 4.52711V3.19554L54.6533 3.99449L54.1201 5.32606L53.8535 4.2608L53.3203 3.99449L52.5205 4.2608V3.46186H51.7207L53.3203 2.13028L54.1201 1.59766Z" fill="#7BAE5A"/>
<path d="M1.86621 94.2754H2.66602L1.59961 99.069L1.33301 102.265L0.533203 101.466L0 99.868L0.266602 96.9385L1.33301 94.808L1.86621 94.2754Z" fill="#79A85B"/>
<path d="M63.7178 37.2842H70.3828V37.5505L67.4502 37.8168L66.6504 38.3494L67.7168 38.8821L65.3174 39.4147H62.6514V38.0831H61.3184L62.1182 37.5505L63.7178 37.2842Z" fill="#71A156"/>
<path d="M116.771 84.4214H118.904L119.704 84.6877V85.4866L117.838 86.5519H116.771V87.0845L114.372 87.8835V86.2856L116.771 84.4214Z" fill="#9FC574"/>
<path d="M105.841 40.4795L106.907 41.5447L108.507 45.0068V45.8058H107.707L107.174 46.871L106.641 46.0721L104.774 41.8111L105.041 41.2784L105.841 41.5447V40.4795Z" fill="#1F4620"/>
<path d="M79.1807 27.6968H81.3135L84.2461 28.762L85.3125 29.2947L85.0459 29.8273L83.7129 30.3599L79.1807 29.2947V27.6968Z" fill="#9FC574"/>
<path d="M39.7236 30.0933L40.2568 30.3596L39.1904 31.6911L39.7236 31.9575L39.9902 32.2238L41.8564 32.4901L42.123 33.0227L43.1895 33.5553V33.8217L37.3242 34.3543L37.8574 34.088L37.5908 32.2238L39.7236 30.0933Z" fill="#245326"/>
<path d="M102.375 91.0796H102.642L102.908 93.4764L102.108 95.8732L100.775 101.998L100.242 102.531L100.509 99.868L101.575 92.1448L102.375 91.0796Z" fill="#5B8F43"/>
<path d="M67.7168 30.0933L68.5166 30.8922L69.3164 33.0227L69.0498 34.3543L68.7832 34.6206H67.1836L66.6504 33.289V31.4248L67.7168 30.0933Z" fill="#7CAF5B"/>
<path d="M54.9199 3.1958H55.4531L55.1865 6.12526L54.6533 7.72315H54.1201L53.5869 9.05472L52.2539 10.12L50.9209 10.3863L52.5205 8.52209L53.8535 5.59263L54.9199 3.1958Z" fill="#255627"/>
<path d="M49.8545 137.685L50.3877 137.951L49.0547 139.549L46.3887 141.413L45.3223 141.946L44.2559 141.679L45.3223 140.88L44.5225 140.348L47.7217 138.217L48.2549 138.75L49.8545 137.685Z" fill="#568B3F"/>
<path d="M87.7119 33.8218L92.7773 34.0881L93.3105 35.1533L90.6445 35.4197L89.5781 35.1533H84.2461L84.7793 34.6207L87.7119 33.8218Z" fill="#7FB05D"/>
<path d="M82.3799 42.8765L83.4463 43.4091L85.0459 45.2733V46.3386L85.8457 47.6701L86.1123 49.0017L85.0459 48.4691L83.4463 46.0722L81.5801 43.9417L82.3799 42.8765Z" fill="#A0C675"/>
<path d="M72.7822 25.8325H74.1152V26.0988L78.6475 26.3651L78.9141 26.8978L73.0488 27.6967L71.1826 27.4304L70.916 26.0988L72.7822 25.8325Z" fill="#255528"/>
<path d="M88.5117 131.826H89.8447L90.9111 134.489L91.4443 137.951L90.6445 137.685L88.5117 132.891V131.826Z" fill="#83B161"/>
<path d="M27.46 52.73L28.793 52.9963L29.0596 53.7952L28.2598 56.4584L26.9268 56.7247L26.3936 55.9258L26.6602 53.5289L27.46 52.73Z" fill="#5A8F41"/>
<path d="M70.916 34.6206H73.8486V35.1532L75.7148 35.6859L75.9814 36.2185H75.1816V36.7511L72.249 36.2185L67.9834 35.6859V35.4195L70.6494 35.1532L70.916 34.6206Z" fill="#3C6F31"/>
<path d="M63.9844 70.3071L64.251 71.1061L63.4512 72.9703L63.1846 74.5682V78.0302L64.251 81.7586H63.7178L62.6514 79.3618V77.4976H62.1182L61.8516 74.3018L63.9844 70.3071Z" fill="#558A3E"/>
<path d="M74.1152 25.5659H79.7139L81.0469 26.0985L80.2471 26.6312L79.4473 26.8975L80.5137 27.4301H78.3809L76.5146 27.1638V26.8975L78.6475 26.6312L75.9814 26.3649H73.8486L74.1152 25.5659Z" fill="#2A5327"/>
<path d="M21.3281 87.6172H23.1943L22.1279 88.4161L19.4619 90.014L18.1289 91.3456L17.3291 91.6119L17.0625 91.0793L18.3955 89.4814V88.6824L20.2617 88.4161L21.3281 87.6172Z" fill="#79A95A"/>
<path d="M43.4561 64.4482H43.7227L44.2559 78.0303V80.4271L43.7227 80.1608L43.4561 77.4976V64.4482Z" fill="#215226"/>
<path d="M50.9209 38.083L52.2539 38.6156L51.1875 39.9472L49.8545 41.0125H48.5215L47.9883 40.2135L49.3213 38.882L50.9209 38.083Z" fill="#215226"/>
<path d="M24.7939 78.5625L25.5938 78.8288L26.6602 81.7583L26.9268 83.0898L25.5938 83.3562L24.7939 80.9593V78.5625Z" fill="#215226"/>
<path d="M93.5771 139.016L94.377 139.282L93.8438 140.348L95.71 140.614L95.4434 141.147L92.2441 141.679L91.4443 140.88L91.7109 140.081L93.5771 139.016Z" fill="#53883D"/>
<path d="M84.5127 143.543L85.5791 143.81L86.6455 144.609L86.9121 145.94L85.5791 146.473L84.5127 145.674L83.9795 144.875L84.2461 143.81L84.5127 143.543Z" fill="#225326"/>
<path d="M109.307 67.1113H109.573L109.84 68.4429L110.106 69.5082L109.84 71.106L109.307 70.5734L108.507 71.6387L107.974 70.5734L108.24 67.644L108.773 67.9103L109.307 67.1113Z" fill="#2A582A"/>
<path d="M50.9209 64.1816H53.0537H53.8535L54.1201 64.9806L52.7871 66.3122L51.4541 66.0458L50.9209 64.9806V64.1816Z" fill="#5A8F41"/>
<path d="M58.6523 32.4902L59.4521 32.7565L57.8525 34.6207L56.7861 35.686L55.7197 35.1534L55.1865 34.3544L58.6523 32.4902Z" fill="#215226"/>
<path d="M114.105 86.5522L114.639 86.8186L114.905 87.6175L115.438 87.8838L113.572 89.4817H112.772V88.9491L111.973 89.2154L112.506 88.1501L114.105 86.5522Z" fill="#7AAC59"/>
<path d="M86.6455 30.626L87.7119 31.1586L88.2451 32.2239L85.0459 32.7565V30.8923L86.6455 30.626Z" fill="#5A8F41"/>
<path d="M116.771 84.4214H118.904L119.704 84.6877V85.4866L117.838 86.5519L117.305 86.2856V85.4866H116.771L116.505 84.6877L116.771 84.4214Z" fill="#7BAE5A"/>
<path d="M67.7168 30.0933L68.5166 30.8922L68.7832 31.6911L68.5166 32.4901L67.1836 33.0227L66.917 34.088L66.6504 33.289V31.4248L67.7168 30.0933Z" fill="#72A257"/>
<path d="M97.5762 33.2891L98.1094 33.5554L100.775 35.4196V35.6859H98.376L97.3096 34.8869L97.043 33.5554L97.5762 33.2891Z" fill="#3C6F31"/>
<path d="M77.8477 37.5503H79.1807V38.6156L81.3135 39.9471L80.2471 40.2134L78.9141 39.9471L78.1143 39.1482L77.5811 37.8166L77.8477 37.5503Z" fill="#215226"/>
<path d="M101.309 95.6069L101.842 96.4059L101.575 98.5364L100.509 102.531H100.242L100.509 99.868L101.042 95.8732L101.309 95.6069Z" fill="#53883D"/>
<path d="M78.6475 41.0122L80.2471 41.2785L82.1133 42.0775L82.6465 42.8764H81.8467L80.5137 42.6101L79.9805 43.409L79.1807 43.1427V42.3438L79.7139 42.0775L78.6475 41.0122Z" fill="#7FB05D"/>
<path d="M62.918 132.358L67.1836 132.891L66.917 133.424H63.1846L61.585 132.891V132.625L62.918 132.358Z" fill="#3C6F31"/>
<path d="M44.2559 53.2627L45.0557 54.0616L44.7891 56.4585L44.2559 58.8553H43.9893L43.7227 56.1922L44.2559 53.2627Z" fill="#215226"/>
<path d="M84.7793 29.561L86.3789 29.8273L86.9121 30.6263L85.3125 31.1589L82.6465 30.36L83.7129 30.0937L84.7793 29.561Z" fill="#78AA59"/>
<path d="M54.9199 3.1958H55.4531L55.1865 6.12526H54.6533L54.1201 7.45683L53.5869 6.39157L54.6533 3.46212L54.9199 3.1958Z" fill="#34672E"/>
<path d="M86.3789 44.7407L88.7783 45.007L89.0449 45.5397H88.5117L88.2451 46.6049L87.4453 47.1376L86.3789 45.2734V44.7407Z" fill="#5A8F41"/>
<path d="M65.3174 37.2842H70.3828V37.5505L67.4502 37.8168L66.6504 38.3494V38.6158H64.5176L64.7842 37.8168H65.3174V37.2842Z" fill="#79AC58"/>
<path d="M74.915 34.0884L75.4482 34.3547V34.8873H76.5146L76.7812 36.2189L75.9814 36.4852L75.7148 35.9526L73.8486 35.1536V34.3547L74.915 34.0884Z" fill="#5A8D42"/>
<path d="M109.84 51.1323H110.106L110.64 54.5944V57.2576H110.106L109.573 52.1976L109.84 51.1323Z" fill="#355F2E"/>
<path d="M86.6455 46.605L87.4453 47.4039L88.7783 51.3986L89.0449 53.5292L88.5117 52.7302L86.6455 47.4039V46.605Z" fill="#1E4C23"/>
<path d="M59.4521 3.99463L60.7852 4.26094L62.1182 5.59251L63.1846 7.45672L62.918 7.98934L59.7188 4.52726L59.4521 3.99463Z" fill="#173D1B"/>
<path d="M83.4463 94.5415L83.9795 94.8078L83.1797 95.3404L81.0469 95.8731H79.1807L77.8477 95.6068V95.3404L83.4463 94.5415Z" fill="#5A8F41"/>
<path d="M45.3223 49.002L45.5889 49.8009L45.0557 51.3988L44.7891 53.263H44.2559V54.3282L43.4561 54.5946L43.9893 52.1977L45.3223 49.002Z" fill="#1C4720"/>
<path d="M41.3232 40.7461L42.6562 41.0124V42.344L41.3232 42.8766L40.5234 41.8114L41.3232 40.7461Z" fill="#90BC69"/>
<path d="M101.575 49.002L102.908 49.2683L103.175 50.5998L102.642 51.1325L101.575 50.8662L101.309 49.2683L101.575 49.002Z" fill="#A4C978"/>
<path d="M21.3281 87.6172H23.1943L22.1279 88.4161L19.9951 89.7477H19.4619L19.7285 88.6824L21.3281 87.6172Z" fill="#A2C776"/>
<path d="M52.7871 2.39697L53.5869 2.66329V3.19592L54.6533 3.72854L54.1201 5.32643L53.8535 4.26117L53.3203 3.99486L52.5205 4.26117V3.46223H51.7207L52.7871 2.39697Z" fill="#71A155"/>
<path d="M88.5117 131.826H89.8447L90.6445 133.956L89.5781 133.424H89.3115L89.0449 134.223L88.5117 132.891V131.826Z" fill="#77A957"/>
<path d="M67.7168 38.6157L69.8496 38.882L69.583 39.681H67.1836L65.3174 39.4147V39.1484L67.7168 38.6157Z" fill="#7CAE5B"/>
<path d="M58.9189 4.52734L59.9854 5.05997L61.8516 6.92417L62.3848 7.98943H61.585L60.7852 7.19049V6.39154L59.7188 5.85892L58.9189 5.05997V4.52734Z" fill="#7EB15C"/>
<path d="M103.708 37.8164H104.241L105.574 39.6806L105.041 40.4795L103.708 39.4143L103.175 38.0827L103.708 37.8164Z" fill="#37672E"/>
<path d="M1.86621 94.2754H2.66602L2.13281 96.6722L1.33301 95.8733L0.533203 97.7375L0.266602 96.9385L1.33301 94.808L1.86621 94.2754Z" fill="#8CB967"/>
<path d="M58.6523 27.4302L59.4521 27.6965L60.5186 28.7617L59.7188 29.827V29.2944L58.6523 28.7617L57.8525 27.9628L58.6523 27.4302Z" fill="#235326"/>
<path d="M95.71 139.282H96.2432V139.815L96.7764 140.081L95.71 140.614H93.5771L94.6436 139.549L95.71 139.282Z" fill="#A4C978"/>
<path d="M93.5771 139.815L94.1104 140.081L93.8438 140.348L95.71 140.614L95.4434 141.147H91.9775L92.7773 140.348L93.5771 139.815Z" fill="#73A556"/>
<path d="M60.7852 10.9189L62.1182 11.9842L62.6514 12.7831V13.5821L61.0518 13.0495L60.7852 10.9189Z" fill="#72A257"/>
<path d="M110.373 62.584H110.64V64.9808L110.373 67.3776H110.106L109.84 63.6492L110.373 62.584Z" fill="#3E6934"/>
<path d="M86.9121 50.0669L87.4453 50.8658L87.7119 51.9311V53.7953L86.9121 53.529L86.3789 52.73L86.6455 51.9311L86.9121 52.1974V50.0669Z" fill="#6E9F53"/>
<path d="M58.1191 33.2891L58.3857 34.088L57.3193 35.4196L56.5195 35.6859L55.7197 34.8869L58.1191 33.2891Z" fill="#183F1C"/>
<path d="M75.9814 124.103L76.7812 124.369L76.5146 125.434L75.9814 125.967H74.915L75.4482 124.635L75.9814 124.103Z" fill="#163B1A"/>
<path d="M67.4502 13.0493H67.9834L69.0498 15.9788V17.044H68.5166L67.4502 13.8483V13.0493Z" fill="#365F2F"/>
<path d="M28.5264 131.559L28.793 132.358L27.1934 135.287L26.9268 134.222L28.5264 131.559Z" fill="#3C6F31"/>
<path d="M83.4463 41.8115L84.7793 43.1431L84.2461 43.942L83.1797 43.4094L82.6465 42.6105L83.4463 41.8115Z" fill="#255727"/>
<path d="M52.7871 8.25586L53.3203 9.32112L51.7207 10.3864L50.9209 10.1201L52.7871 8.25586Z" fill="#173E1B"/>
<path d="M122.104 87.085L122.637 87.6176L122.37 89.4818L121.57 90.2807L121.837 87.3513L122.104 87.085Z" fill="#215226"/>
<path d="M42.9229 73.2363H43.1895V74.5679H43.7227V77.4974L43.1895 76.9647L42.9229 75.3668V73.2363Z" fill="#1A441F"/>
<path d="M85.0459 45.5396L85.8457 46.3385L86.6455 48.7353L86.1123 48.469V47.6701L85.3125 47.4038L84.5127 45.8059L85.0459 45.5396Z" fill="#72A454"/>
<path d="M86.3789 34.0884L87.1787 34.3547L87.7119 34.621V35.1536H84.2461L84.7793 34.621L86.3789 34.0884Z" fill="#66994A"/>
</svg>
