<svg width="27" height="23" viewBox="0 0 27 23" fill="none" xmlns="http://www.w3.org/2000/svg">
<path d="M12.0948 0H12.311L12.4764 0.0381541L12.6163 0.114462L12.7307 0.203488L12.8452 0.330669L12.9469 0.534157L12.9724 0.661337V4.94731L13.2522 4.97275L13.8754 5.06177L14.4858 5.17624L15.0327 5.30342L15.5541 5.44331L16.012 5.58321L16.5589 5.77398L16.9786 5.93932L17.3474 6.09193L17.8943 6.34629L18.1105 6.46076L18.314 6.5625L18.6192 6.72783L19.0643 6.99491L19.306 7.14753L19.6493 7.37645L19.8656 7.52907L20.1072 7.70712L20.2725 7.8343L20.476 7.99964L20.6159 8.1141L20.7812 8.254L20.883 8.34302L21.0356 8.48292L21.1374 8.57195L21.2137 8.63554V8.66097L21.2645 8.68641L21.7733 9.19513L21.8623 9.29688L22.0276 9.47493L22.1166 9.57667L22.2693 9.75472L22.4982 10.0345L22.6254 10.1999L22.7907 10.4161L22.956 10.645L23.1595 10.9375L23.2994 11.1537L23.452 11.3953L23.6047 11.6497L23.7318 11.8659L23.9353 12.2347L24.0625 12.4764L24.2024 12.7689L24.355 13.0868L24.5203 13.4684L24.6602 13.8118L24.8001 14.1806L24.9273 14.5367L25.0799 14.9945L25.2707 15.6432L25.4742 16.4571L25.5887 16.9913L25.7031 17.6017L25.7922 18.1613L25.8812 18.8227L25.9448 19.4586L25.9956 20.0945L26.0211 20.476L26.0465 20.4633V22.2438H26.0211L25.9575 22.3964L25.843 22.5491L25.7286 22.6508L25.5505 22.7398L25.4233 22.778L25.2326 22.7907L25.0799 22.7653L24.94 22.7144L24.7747 22.5999L24.6857 22.5109L24.5967 22.371L24.5458 22.2565L24.4822 21.9767L24.3804 21.5189L24.2787 21.1501L24.177 20.8321L24.0625 20.5015L23.8972 20.0818L23.7445 19.7384L23.5665 19.3695L23.3757 19.0007L23.1977 18.6955L23.0451 18.4411L22.689 17.907L22.3837 17.5L22.2693 17.3601L22.1675 17.2329L21.8623 16.8768L21.6715 16.6733L21.5316 16.5334L21.4553 16.4444L21.4172 16.419V16.3935L21.3663 16.3681L21.1374 16.1392L21.0356 16.0501L20.6795 15.7449L20.3234 15.4651L20.0945 15.2998L19.9164 15.1726L19.7257 15.0454L19.4713 14.8801L19.1279 14.6766L18.7591 14.4731L18.3521 14.2696L17.907 14.0661L17.5636 13.9262L17.2202 13.7991L16.7751 13.6464L16.1646 13.4684L15.5923 13.3285L15.0709 13.2267L14.4222 13.125L13.8245 13.0614L13.3794 13.0233L12.9724 12.9978V17.2075L12.9215 17.411L12.8452 17.5509L12.7307 17.6781L12.6036 17.7798L12.4637 17.8434L12.311 17.8815H12.0948L11.9422 17.8434L11.7896 17.7671L11.5352 17.589L11.0774 17.2584L10.8358 17.093L10.6704 16.9658L10.4288 16.8005L10.2253 16.6479L9.98365 16.4826L9.78016 16.3299L9.53852 16.1646L9.33503 16.012L9.09339 15.8467L8.8899 15.694L8.64826 15.5287L8.44477 15.3761L8.20312 15.2108L7.96148 15.0327L7.74528 14.8801L7.51635 14.7148L7.30015 14.5621L7.07122 14.3968L6.85501 14.2442L6.62609 14.0789L6.37173 13.9008L6.14281 13.7355L5.96475 13.6083L5.73583 13.443L5.30342 13.1377L4.84557 12.807L4.62936 12.6544L4.40044 12.4891L4.18423 12.3365L3.95531 12.1711L3.7391 12.0185L3.51017 11.8532L3.29397 11.7006L3.06504 11.5352L2.84884 11.3826L2.61991 11.2173L2.40371 11.0647L2.17478 10.8993L1.92042 10.7213L1.46257 10.3906L1.03016 10.0854L0.788517 9.90734L0.546875 9.74201L0.343387 9.58939L0.216206 9.47493L0.152616 9.41134L0.0763081 9.29688L0.012718 9.16969L0 9.13154V8.73728H0.025436L0.0381541 8.66097L0.12718 8.49564L0.241642 8.36846L0.368823 8.26672L0.801235 7.96148L1.03016 7.79615L1.38626 7.54179L1.61519 7.37645L2.0476 7.07122L2.27653 6.90589L2.45458 6.77871L2.6835 6.61337L3.11592 6.30814L3.34484 6.14281L3.52289 6.01562L3.75182 5.85029L4.18423 5.54506L4.41315 5.37972L4.59121 5.25254L4.82013 5.08721L4.99818 4.96003L5.25254 4.78198L5.48147 4.61664L5.65952 4.48946L5.88844 4.32413L6.32086 4.0189L6.54978 3.85356L6.72783 3.72638L6.95676 3.56105L7.38917 3.25581L7.6181 3.09048L7.79615 2.9633L8.02507 2.79797L8.45749 2.49273L8.68641 2.3274L8.86446 2.20022L9.09339 2.03488L9.5258 1.72965L9.75472 1.56432L10.645 0.928416L10.8739 0.763081L11.3063 0.457849L11.7642 0.12718L11.9422 0.0381541L12.0948 0Z" fill="#44AB42"/>
</svg>
