<svg width="498" height="459" viewBox="0 0 498 459" fill="none" xmlns="http://www.w3.org/2000/svg">
<path d="M497.285 167.753C497.161 165.958 497.014 164.163 496.841 162.368C496.164 155.191 495.109 148.027 493.675 140.951C493.314 139.179 492.934 137.417 492.53 135.659C488.874 119.841 483.292 104.553 475.719 90.6099C474.878 89.0584 474.011 87.527 473.12 86.0122C471.342 82.9827 469.46 80.0233 467.482 77.1439C464.509 72.8265 461.316 68.6859 457.896 64.7589C455.511 62.0163 453.009 59.3804 450.393 56.8581C448.645 55.1731 446.843 53.5516 445.012 51.9568C442.62 49.8748 440.164 47.8763 437.652 45.9478C435.57 44.3463 433.461 42.7781 431.306 41.2767C429.228 39.832 427.133 38.4173 424.994 37.0627C423.479 36.1051 421.948 35.1676 420.403 34.2534C406.501 26.0323 391.451 19.6096 376.057 14.6682C374.566 14.1911 373.071 13.7274 371.57 13.2769C370.562 12.9733 369.551 12.683 368.541 12.3894C368.114 12.2659 367.683 12.1392 367.253 12.0157C365.935 11.6454 364.614 11.2817 363.289 10.928C363.199 10.9013 363.109 10.878 363.016 10.8546C361.591 10.4742 360.17 10.1072 358.742 9.75024C358.739 9.75024 358.739 9.75024 358.735 9.75024C312.331 -1.85071 263.634 -1.5838 216.23 3.30417C166.998 8.37894 119.056 18.8588 78.8483 49.5978C26.5843 89.5589 -3.83665 154.67 0.407773 220.474C1.06235 230.619 2.51731 240.711 4.74428 250.629C18.4291 311.574 57.5364 365.785 118.383 384.379C133.795 389.089 149.333 392.522 164.923 394.79C166.348 394.997 167.502 396.038 167.845 397.438C168.817 401.402 169.851 405.384 171.019 409.313C171.013 409.308 171.008 409.302 171.002 409.294C171.242 410.11 171.494 410.92 171.748 411.73C171.888 412.172 172.033 412.612 172.177 413.052C172.493 414.02 172.821 414.983 173.161 415.938C173.435 416.707 173.714 417.472 174.006 418.231C174.195 418.724 174.391 419.215 174.588 419.706C174.973 420.66 175.374 421.61 175.794 422.546C175.903 422.79 176.007 423.04 176.119 423.284C176.633 424.402 177.183 425.499 177.752 426.585C177.913 426.891 178.077 427.197 178.242 427.5C178.867 428.648 179.513 429.782 180.21 430.884C182.616 434.693 185.501 438.203 188.762 441.304C190.392 442.854 192.117 444.299 193.923 445.632C195.163 446.544 196.454 447.381 197.768 448.18C198.999 448.931 200.258 449.626 201.546 450.267C207.882 453.418 214.853 455.231 222.073 455.207C223.211 455.202 224.356 455.153 225.507 455.057C232.407 454.483 238.966 452.563 244.802 449.46C246.554 448.529 248.238 447.494 249.847 446.354C250.919 445.595 251.96 444.79 252.963 443.943C253.465 443.516 253.958 443.082 254.441 442.637C254.746 442.355 255.092 442.149 255.454 441.988C255.741 441.862 256.034 441.76 256.337 441.711C257.152 441.577 257.997 441.738 258.724 442.162C259.019 442.331 259.3 442.529 259.544 442.79C261.403 444.766 263.495 446.526 265.737 448.121C266.638 448.762 267.565 449.374 268.518 449.953C270.701 451.283 272.991 452.477 275.383 453.493C276.389 453.92 277.41 454.319 278.443 454.695C280.511 455.44 282.626 456.079 284.769 456.612C292.266 458.476 300.09 459.045 307.253 458.417C313.789 457.846 319.644 456.095 324.665 453.316C333.032 448.687 339.088 441.194 342.151 431.523C342.224 431.284 342.321 431.059 342.437 430.849C343.011 429.803 344.059 429.13 345.217 429.015C345.68 428.969 346.161 429.015 346.638 429.16C349.874 430.144 353.26 430.705 356.697 430.903C357.841 430.967 358.992 430.994 360.143 430.981C360.971 430.973 361.795 430.94 362.622 430.892C364.01 430.812 365.401 430.678 366.779 430.495C369.161 430.179 371.517 429.723 373.812 429.133C374.553 428.943 375.28 428.741 376.004 428.527C378.176 427.883 380.288 427.124 382.303 426.274C384.445 425.368 386.51 424.346 388.482 423.214C389.619 422.56 390.724 421.865 391.795 421.138C392.308 420.787 392.815 420.427 393.316 420.06C393.823 419.687 394.32 419.306 394.811 418.915C395.865 418.075 396.882 417.198 397.847 416.281C399.421 414.777 400.869 413.173 402.17 411.472C402.821 410.622 403.432 409.745 404.005 408.849C404.579 407.951 405.113 407.028 405.603 406.084C405.85 405.612 406.087 405.135 406.311 404.652C407.212 402.718 407.935 400.696 408.473 398.591C408.606 398.065 408.73 397.531 408.836 396.995C409.604 393.235 409.77 389.223 409.233 384.985C408.9 382.346 408.399 379.71 407.765 377.084C407.445 375.772 407.095 374.464 406.708 373.155C405.714 369.768 404.492 366.41 403.135 363.092C402.761 362.18 402.381 361.274 401.987 360.37C401.049 358.222 400.065 356.092 399.031 353.995C398.417 352.753 398.614 351.324 399.425 350.288C399.692 349.943 400.032 349.642 400.429 349.406C404.736 346.85 408.946 344.158 413.043 341.328C415.776 339.445 418.458 337.501 421.087 335.5C428.974 329.498 436.387 322.978 443.273 315.965C443.277 315.959 443.287 315.951 443.29 315.946C444.441 314.776 445.572 313.591 446.693 312.395C448.928 310 451.104 307.551 453.216 305.049C455.327 302.55 457.376 299.994 459.361 297.387C460.759 295.547 462.113 293.67 463.451 291.779C464.949 289.652 466.421 287.501 467.832 285.31C469.61 282.55 471.322 279.742 472.96 276.88C481.971 261.156 488.8 243.946 493.028 225.432C495.293 215.501 496.758 205.119 497.398 194.528C497.615 190.997 497.738 187.443 497.768 183.876C497.815 178.524 497.655 173.14 497.285 167.753Z" fill="#FEF1E5"/>
<path d="M363.292 10.9254C364.617 11.2793 365.935 11.6423 367.254 12.0144C365.935 11.6393 364.614 11.2793 363.292 10.9254Z" fill="#F2E3D3"/>
<path d="M174.588 419.706C174.391 419.215 174.195 418.724 174.006 418.23C174.196 418.724 174.391 419.215 174.588 419.706Z" fill="#F2E3D3"/>
<path d="M167.776 377.556C159.162 378.524 150.339 380.337 141.689 379.286C127.298 377.537 115.587 368.561 111.125 354.486C110.383 352.144 110.012 349.792 109.905 347.443C109.649 346.078 109.468 344.678 109.395 343.232C108.828 332.099 118.237 318.059 129.729 316.335C130.712 316.19 131.695 316.042 132.678 315.895C129.462 298.191 139.296 273.372 156.546 264.527C171.335 256.943 181.424 272.56 186.317 284.535C190.328 294.351 192.07 305.795 190.076 316.397C193.5 318.797 196.458 321.865 198.663 325.681C207.362 340.735 202.974 360.778 187.918 370.052C185.762 371.382 183.495 372.45 181.151 373.305C177.064 375.569 172.449 377.03 167.776 377.556ZM105.643 158.646C105.414 159.251 104.119 162.34 103.917 162.869C102.311 167.069 100.846 171.324 99.4998 175.614C92.9811 196.395 89.3235 217.929 86.2944 239.453C86.2918 239.472 85.7841 243.171 85.6083 244.429C85.1041 248.285 84.7119 252.214 84.0547 256.028C82.8634 262.937 79.6684 269.438 74.7063 274.456C72.2732 276.915 69.3052 278.822 66.0567 280.176C64.4922 281.035 62.8064 281.772 60.988 282.36C56.0309 283.963 50.4637 283.507 45.3921 281.579C38.0916 279.664 31.6908 275.105 28.5803 267.762C25.4452 260.359 24.6835 252.887 26.8986 246.301C22.7925 211.603 26.3627 175.989 38.9851 143.253C53.8015 104.83 78.5118 64.6955 120.051 51.8795C132.263 48.1113 148.859 56.3842 151.27 69.6067C154.174 85.5281 149.881 97.739 139.923 110.075C136.994 113.702 133.62 116.865 130.392 120.214C128.697 121.972 127.045 123.768 125.451 125.618C125.368 125.714 122.79 128.967 122.507 129.242C117.014 136.757 112.268 144.812 108.183 153.165C107.299 154.974 106.466 156.808 105.643 158.646ZM200.845 17.8852C202.853 18.0293 204.776 18.3686 206.619 18.852C223.088 17.1872 241.273 21.2372 248.959 35.7852C256.023 49.155 253.13 65.7648 240.959 75.1678C231.189 82.7171 219.859 83.1814 208.011 84.2987C198.202 85.224 186.533 88.147 176.846 85.6466C163.346 82.1633 154.44 70.3687 154.018 56.4994C153.251 31.3318 178.114 16.2492 200.845 17.8852ZM262.325 296.869C265.372 297.886 267.102 301.066 268.537 303.722C270.199 306.792 271.524 310.005 272.629 313.318C273.68 316.474 274.844 319.781 275.449 323.058C276.127 326.743 276.508 328.935 273.552 329.991C270.148 331.209 263.403 332.088 259.901 332.987C256.879 333.759 253.411 333.518 251.319 330.903C249.648 328.814 249.251 325.421 249.815 322.699C250.072 318.609 250.448 314.527 250.995 310.467C251.464 306.956 252.191 303.325 254.202 300.339C255.978 297.706 259.113 295.796 262.325 296.869ZM288.469 385.288C289.384 391.108 290.553 396.855 291.958 402.541C309.211 398.99 325.599 392.444 340.619 383.515C337.956 380.08 335.43 376.521 333.087 372.814C329.991 367.922 337.745 363.435 340.818 368.293C343.113 371.921 345.598 375.384 348.226 378.717C355.327 373.962 362.085 368.676 368.424 362.894C372.675 359.013 379.023 365.334 374.759 369.228C368.248 375.166 361.307 380.63 354.021 385.572C358.733 390.727 363.874 395.493 369.438 399.865C373.968 403.424 367.588 409.721 363.106 406.197C357.043 401.431 351.475 396.177 346.395 390.48C330.333 400.224 312.764 407.398 294.292 411.199C295.89 416.638 297.711 422.018 299.773 427.336C301.857 432.727 293.194 435.039 291.132 429.718C288.968 424.123 287.07 418.459 285.415 412.733C269.561 415.047 253.51 415.045 237.661 412.577C234.644 412.108 231.415 411.58 228.114 410.944C226.928 418.129 226.024 425.392 224.831 432.394C223.863 438.075 215.232 435.653 216.193 430.013C217.364 423.141 218.255 416.021 219.406 408.97C210.097 406.492 201.049 402.667 195.038 396.035C191.173 391.77 197.493 385.422 201.372 389.703C206.055 394.868 213.259 398.148 220.992 400.35C221.698 397.011 222.517 393.718 223.514 390.51C225.225 385.015 233.869 387.375 232.152 392.892C231.187 395.989 230.393 399.165 229.704 402.386C235.293 403.45 240.785 404.118 245.462 404.649C257.938 406.065 270.655 405.851 283.103 404.075C281.794 398.669 280.702 393.2 279.831 387.67C278.945 382.019 287.579 379.608 288.469 385.288ZM204.121 436.02C246.35 451.895 238.752 426.293 259.654 429.28C274.581 430.772 281.579 455.733 317.582 441.993C325.09 439.126 328.028 427.063 332.507 416.611C334.002 413.626 336.986 406.159 342.96 409.147C357.888 418.105 381.773 416.611 386.252 400.189C392.226 380.78 366.845 358.385 375.803 352.412C380.765 348.478 385.5 344.377 390.033 340.143C389.604 340.234 389.175 340.325 388.743 340.4C380.202 341.883 371.503 344.219 362.805 343.688C348.338 342.806 336.109 334.545 330.81 320.765C329.93 318.472 329.418 316.147 329.168 313.808C328.832 312.462 328.569 311.073 328.409 309.635C327.907 305.124 329.046 300.039 331.319 295.426C324.888 285.64 322.375 273.179 323.021 261.666C323.751 248.749 328.211 230.697 344.663 233.054C363.388 235.736 380.378 255.097 383.72 272.557C396.103 271.94 409.315 275.947 416.464 286.766C419.803 291.816 421.554 297.564 421.861 303.341C439.069 278.559 451 251.045 457.912 222.525C475.827 146.384 447.463 59.7906 378.79 20.9715C372.211 17.136 365.526 13.3485 358.736 9.74994C312.332 -1.84937 263.634 -1.58362 216.23 3.302C166.998 8.3765 119.056 18.8585 78.8482 49.6C26.5842 89.5589 -3.83672 154.669 0.408009 220.474C1.06237 230.619 2.51709 240.711 4.7443 250.629C18.429 311.574 57.5366 365.785 118.383 384.379C133.795 389.088 149.333 392.521 164.923 394.79C166.348 394.997 167.502 396.037 167.845 397.438C169.017 402.214 170.265 407.023 171.748 411.73C171.494 410.92 171.243 410.11 171.002 409.295C180.441 419.829 191.093 429.506 204.121 436.02Z" fill="#F2E3D3"/>
<path d="M176.12 423.283C176.008 423.039 175.903 422.79 175.794 422.546C175.904 422.79 176.008 423.039 176.12 423.283Z" fill="#F2E3D3"/>
<path d="M173.162 415.938C172.822 414.983 172.493 414.02 172.177 413.052C172.494 414.02 172.821 414.983 173.162 415.938Z" fill="#F2E3D3"/>
<path d="M178.243 427.5C178.077 427.196 177.913 426.891 177.753 426.585C177.914 426.891 178.077 427.196 178.243 427.5Z" fill="#F2E3D3"/>
<path d="M496.841 162.368C496.164 155.191 495.109 148.027 493.675 140.951C493.314 139.179 492.934 137.417 492.53 135.659C488.874 119.841 483.292 104.553 475.719 90.6099C474.878 89.0584 474.011 87.527 473.12 86.0122C471.342 82.9827 469.46 80.0233 467.482 77.1439C464.509 72.8265 461.316 68.6859 457.896 64.7589C455.511 62.0163 453.009 59.3804 450.393 56.8581C444.458 51.1427 438.052 45.9745 431.306 41.2767C429.228 39.832 427.132 38.4173 424.994 37.0627C423.479 36.1051 421.948 35.1676 420.403 34.2534C406.501 26.0323 391.451 19.6096 376.057 14.6682C374.566 14.1911 373.071 13.7274 371.57 13.2769C370.562 12.9733 369.551 12.683 368.541 12.3894C368.114 12.2659 367.683 12.1392 367.253 12.0157C365.935 11.6454 364.614 11.2817 363.289 10.928C363.199 10.9013 363.109 10.878 363.016 10.8546C361.591 10.4742 360.17 10.1072 358.742 9.75024C358.739 9.75024 358.739 9.75024 358.735 9.75024C365.528 13.3503 372.211 17.1339 378.79 20.9742C447.461 59.7908 475.826 146.383 457.913 222.525C450.997 251.045 439.07 278.559 421.861 303.341C422.435 314.16 417.834 325.078 408.399 331.702C406.324 333.159 404.125 334.36 401.837 335.353C398.26 337.624 394.21 339.258 390.033 340.142C385.502 344.377 380.765 348.478 375.804 352.413C366.846 358.385 392.225 380.78 386.253 400.189C381.772 416.611 357.888 418.105 342.958 409.147C336.986 406.159 334.003 413.626 332.509 416.611C328.028 427.062 325.089 439.126 317.582 441.993C281.578 455.733 274.581 430.772 259.654 429.281C238.752 426.293 246.35 451.895 204.121 436.02C191.093 429.506 180.441 419.829 171.002 409.294C171.242 410.11 171.494 410.92 171.748 411.73C171.888 412.172 172.033 412.612 172.177 413.052C172.493 414.02 172.821 414.983 173.162 415.938C173.435 416.707 173.714 417.472 174.006 418.231C174.195 418.724 174.391 419.215 174.588 419.706C174.973 420.66 175.374 421.61 175.794 422.546C175.903 422.79 176.007 423.04 176.119 423.284C176.633 424.402 177.183 425.499 177.752 426.585C177.913 426.891 178.077 427.197 178.242 427.5C178.867 428.648 179.513 429.782 180.21 430.884C182.616 434.693 185.501 438.203 188.762 441.304C190.392 442.854 192.117 444.299 193.923 445.632C195.163 446.544 196.454 447.381 197.768 448.18C198.999 448.931 200.258 449.626 201.546 450.267C207.882 453.418 214.853 455.231 222.073 455.207C223.211 455.202 224.356 455.153 225.507 455.057C232.407 454.483 238.966 452.563 244.802 449.46C246.554 448.529 248.238 447.494 249.847 446.354C250.919 445.595 251.96 444.79 252.963 443.943C253.465 443.516 253.958 443.082 254.441 442.637C254.746 442.355 255.092 442.149 255.454 441.988C255.741 441.862 256.034 441.76 256.337 441.711C257.152 441.577 257.997 441.738 258.724 442.162C259.019 442.331 259.3 442.529 259.544 442.79C261.403 444.766 263.495 446.526 265.736 448.121C266.638 448.762 267.565 449.374 268.518 449.953C270.701 451.283 272.991 452.477 275.383 453.493C276.389 453.92 277.41 454.319 278.443 454.695C280.511 455.44 282.626 456.079 284.769 456.612C292.266 458.476 300.09 459.045 307.253 458.417C313.789 457.846 319.644 456.095 324.665 453.316C333.032 448.687 339.088 441.194 342.151 431.523C342.224 431.284 342.321 431.059 342.437 430.849C343.011 429.803 344.059 429.13 345.217 429.015C345.68 428.969 346.161 429.015 346.638 429.16C350.952 430.471 355.536 431.032 360.143 430.981C360.971 430.973 361.795 430.94 362.622 430.892C364.01 430.812 365.401 430.678 366.779 430.495C369.161 430.179 371.517 429.723 373.812 429.133C374.553 428.943 375.28 428.741 376.004 428.527C378.176 427.883 380.288 427.124 382.303 426.274C384.445 425.368 386.51 424.346 388.482 423.214C389.619 422.56 390.724 421.865 391.795 421.138C392.308 420.787 392.815 420.427 393.316 420.06C393.823 419.687 394.32 419.306 394.811 418.915C395.865 418.075 396.882 417.198 397.847 416.281C399.421 414.777 400.869 413.173 402.17 411.472C402.821 410.622 403.431 409.745 404.005 408.849C404.579 407.951 405.113 407.028 405.603 406.084C405.85 405.612 406.087 405.135 406.311 404.652C407.211 402.718 407.935 400.696 408.473 398.591C409.544 394.377 409.851 389.829 409.233 384.985C408.9 382.346 408.399 379.71 407.765 377.084C407.445 375.772 407.095 374.464 406.708 373.155C405.714 369.768 404.492 366.41 403.135 363.092C402.761 362.18 402.381 361.274 401.987 360.37C401.049 358.222 400.065 356.092 399.031 353.995C398.417 352.753 398.614 351.324 399.425 350.288C399.692 349.943 400.032 349.642 400.429 349.406C404.736 346.85 408.946 344.158 413.043 341.328C415.776 339.445 418.458 337.501 421.087 335.5C428.974 329.498 436.387 322.978 443.273 315.965C443.277 315.959 443.287 315.951 443.29 315.946C444.441 314.776 445.572 313.591 446.693 312.395C448.928 310 451.104 307.551 453.216 305.049C455.327 302.55 457.376 299.994 459.361 297.387C460.759 295.547 462.113 293.67 463.451 291.779C464.949 289.652 466.421 287.501 467.832 285.31C469.61 282.55 471.322 279.742 472.96 276.88C481.971 261.156 488.8 243.946 493.028 225.432C495.293 215.501 496.757 205.119 497.398 194.528C497.615 190.997 497.738 187.443 497.768 183.876C497.815 178.524 497.655 173.14 497.285 167.753C497.161 165.958 497.014 164.163 496.841 162.368Z" fill="#E1CCCC"/>
<path d="M383.722 272.557C384.006 274.05 384.205 275.531 384.285 276.987C384.555 282.035 384.354 286.551 382.42 290.904C381.463 294.353 379.966 297.625 377.75 300.583C368.715 312.647 350.995 313.776 339.557 304.582C336.304 301.967 333.576 298.856 331.32 295.426C329.047 300.039 327.906 305.124 328.409 309.635C328.57 311.072 328.832 312.462 329.171 313.808C329.418 316.147 329.929 318.472 330.812 320.765C336.108 334.545 348.336 342.806 362.806 343.688C371.502 344.219 380.201 341.883 388.742 340.4C389.176 340.325 389.605 340.234 390.033 340.142C394.211 339.257 398.261 337.624 401.839 335.352C404.126 334.36 406.325 333.158 408.399 331.702C417.834 325.078 422.435 314.159 421.861 303.34C421.556 297.564 419.803 291.816 416.466 286.766C409.316 275.947 396.102 271.94 383.722 272.557Z" fill="#EFBFB4"/>
<path d="M187.919 370.052C202.975 360.777 207.363 340.735 198.663 325.681C196.458 321.865 193.501 318.796 190.077 316.396C189.142 321.369 187.391 326.156 184.653 330.498C176.83 342.913 159.708 347.614 147.239 339.15C144.181 337.074 141.7 334.467 139.673 331.517C136.427 328.031 134.767 323.825 133.381 318.963C133.098 317.97 132.869 316.943 132.679 315.895C131.695 316.042 130.712 316.19 129.729 316.334C118.237 318.059 108.828 332.099 109.395 343.232C109.469 344.678 109.649 346.078 109.905 347.443C110.013 349.792 110.383 352.144 111.125 354.486C115.588 368.561 127.298 377.537 141.69 379.286C150.339 380.337 159.163 378.524 167.777 377.556C172.449 377.03 177.065 375.569 181.151 373.305C183.496 372.449 185.762 371.382 187.919 370.052Z" fill="#EFBFB4"/>
<path d="M139.673 331.517C141.7 334.467 144.181 337.074 147.239 339.15C159.708 347.614 176.83 342.913 184.653 330.498C187.391 326.156 189.142 321.369 190.077 316.396C192.071 305.794 190.328 294.35 186.318 284.534C181.425 272.559 171.336 256.942 156.546 264.527C139.296 273.372 129.462 298.191 132.679 315.895C132.869 316.943 133.098 317.97 133.381 318.963C134.767 323.825 136.427 328.031 139.673 331.517Z" fill="#7F3D9F"/>
<path d="M339.557 304.582C350.995 313.776 368.716 312.647 377.751 300.583C379.967 297.625 381.463 294.353 382.42 290.904C384.354 286.551 384.555 282.035 384.284 276.987C384.207 275.531 384.008 274.05 383.721 272.557C380.38 255.097 363.388 235.736 344.663 233.054C328.21 230.696 323.753 248.749 323.024 261.665C322.375 273.179 324.89 285.639 331.321 295.426C333.576 298.856 336.304 301.967 339.557 304.582Z" fill="#7F3D9F"/>
<path d="M249.815 322.699C249.252 325.421 249.649 328.814 251.32 330.903C253.412 333.518 256.879 333.759 259.902 332.987C263.404 332.088 270.149 331.209 273.552 329.991C276.51 328.934 276.129 326.743 275.448 323.058C274.845 319.781 273.681 316.474 272.629 313.317C271.525 310.005 270.2 306.792 268.537 303.721C267.102 301.066 265.372 297.885 262.326 296.869C259.113 295.796 255.978 297.705 254.203 300.339C252.191 303.324 251.465 306.955 250.995 310.466C250.448 314.527 250.073 318.609 249.815 322.699Z" fill="#7F3D9F"/>
<path d="M283.105 404.075C270.656 405.85 257.938 406.065 245.463 404.649C240.786 404.118 235.293 403.45 229.704 402.385C230.394 399.164 231.187 395.989 232.153 392.891C233.869 387.374 225.226 385.014 223.515 390.51C222.517 393.717 221.698 397.011 220.992 400.35C213.259 398.148 206.056 394.868 201.373 389.702C197.493 385.422 191.174 391.77 195.039 396.034C201.05 402.667 210.098 406.491 219.407 408.97C218.256 416.021 217.365 423.141 216.194 430.012C215.233 435.653 223.863 438.074 224.831 432.394C226.025 425.391 226.929 418.129 228.114 410.944C231.415 411.579 234.644 412.108 237.661 412.577C253.511 415.044 269.561 415.047 285.414 412.732C287.071 418.458 288.97 424.123 291.134 429.717C293.194 435.038 301.859 432.727 299.772 427.336C297.713 422.017 295.892 416.637 294.293 411.198C312.766 407.398 330.334 400.224 346.396 390.48C351.475 396.177 357.042 401.431 363.106 406.196C367.587 409.721 373.97 403.423 369.44 399.864C363.876 395.493 358.735 390.727 354.023 385.572C361.306 380.629 368.247 375.166 374.758 369.228C379.025 365.334 372.677 359.013 368.424 362.893C362.084 368.676 355.326 373.962 348.227 378.717C345.599 375.383 343.116 371.921 340.82 368.292C337.747 363.435 329.991 367.922 333.086 372.814C335.43 376.52 337.956 380.079 340.622 383.515C325.598 392.443 309.212 398.99 291.957 402.541C290.555 396.855 289.385 391.108 288.471 385.288C287.578 379.607 278.945 382.018 279.833 387.669C280.702 393.2 281.796 398.668 283.105 404.075Z" fill="#7F3D9F"/>
<path d="M125.451 125.617C127.046 123.769 128.698 121.97 130.392 120.211C133.62 116.863 136.994 113.7 139.923 110.072C149.881 97.7381 154.174 85.527 151.271 69.6044C148.859 56.3808 132.264 48.1104 120.051 51.8778C78.5119 64.6931 53.8016 104.828 38.9855 143.252C26.3626 175.986 22.7926 211.601 26.8987 246.3C24.6837 252.887 25.4452 260.359 28.5804 267.761C31.6909 275.104 38.0917 279.664 45.3925 281.579C50.464 283.507 56.0312 283.963 60.988 282.359C62.8065 281.772 64.4923 281.034 66.0568 280.176C69.3054 278.822 72.2736 276.915 74.7064 274.455C79.6686 269.438 82.8636 262.936 84.055 256.028C84.7122 252.214 85.1043 248.285 85.6086 244.428C85.7842 243.17 86.2918 239.472 86.2946 239.453C89.3237 217.928 92.9813 196.395 99.4998 175.614C100.846 171.324 102.311 167.07 103.918 162.869C104.119 162.34 105.414 159.252 105.643 158.646C106.467 156.808 107.299 154.973 108.183 153.164C112.268 144.809 117.014 136.754 122.507 129.242C122.79 128.968 125.368 125.715 125.451 125.617Z" fill="#FEF1E5"/>
<path d="M176.846 85.6452C186.533 88.1468 198.202 85.2263 208.011 84.2987C219.859 83.1825 231.19 82.7157 240.959 75.1691C253.13 65.7642 256.022 49.1537 248.959 35.784C241.273 21.2383 223.088 17.1867 206.619 18.8504C204.776 18.3686 202.853 18.0305 200.845 17.8839C178.114 16.25 153.251 31.3314 154.018 56.4969C154.44 70.3664 163.346 82.1621 176.846 85.6452Z" fill="#FEF1E5"/>
</svg>
