<svg width="139" height="155" viewBox="0 0 139 155" fill="none" xmlns="http://www.w3.org/2000/svg">
<path d="M68.7038 0L69.8412 0.227496L71.4337 2.04746L73.9362 6.36989L75.3011 9.32733V10.0098H75.7561L76.2111 8.87234L78.2586 6.36989L80.9885 4.09493L83.491 2.50245L84.6285 2.27496L85.0835 2.72995L84.856 4.32242L84.6285 5.4599L84.401 11.3748L86.6759 10.0098L89.6334 8.64484L92.8183 7.73486L93.9558 7.50737H96.0033L96.2308 7.73486V8.87234L93.0458 11.6023L92.3633 11.8298L92.1358 12.5123H91.6809V12.9673H91.2259L90.7709 13.8773L88.9509 15.9247L87.1309 19.1097L86.2209 21.6121L85.9935 22.5221V25.252L86.9034 27.527L88.4959 29.347L90.7709 30.4845L96.9133 32.3044L101.691 34.1244L107.378 36.8543L109.881 38.4468L111.928 39.5843L113.065 40.4943L113.52 40.7218V41.1768L114.658 41.6318V42.0867L115.568 42.5417L117.388 44.1342L119.435 46.1817L121.483 48.6841L123.758 51.8691L125.805 55.2815L128.08 60.0589L130.128 66.2013L131.038 70.0687L131.72 74.1637L132.175 78.4861V86.2209L131.265 93.5008L129.9 99.4157L129.673 100.098L130.583 100.553L132.175 102.146L134.223 105.103L136.498 109.198L138.09 113.52L138.773 116.25L139 118.07V121.255L138.318 123.53L136.953 125.35L135.133 126.26H132.175L130.81 125.578L129.9 124.44L128.08 123.758L127.17 121.938V119.663L127.398 118.298L125.578 114.658L124.44 112.838V112.383L123.758 112.61L122.848 113.975L120.118 117.615H119.663L119.208 118.525L116.478 121.483L113.293 124.213L111.473 125.578L109.198 127.17L106.241 128.99L101.463 131.493L95.7758 133.768L93.2733 134.45V137.408L92.5908 142.867L91.4534 146.962V147.645L92.8183 148.555L94.1833 150.147L94.4108 150.602V152.65L93.2733 153.787L91.6809 154.47L87.8134 154.697L84.6285 154.242L81.8985 153.105L80.5336 151.512L80.3061 150.83V144.687L79.8511 139L79.6236 137.635L75.3011 138.09H63.6989L59.6039 137.635L59.1489 141.275L58.9214 145.142V151.057L58.0115 152.65L56.1915 153.787L53.689 154.47L51.6416 154.697H49.5941L46.6367 154.242L45.2717 153.332L44.5892 152.195L44.8167 150.602L45.7267 149.237L47.0917 148.1L48.0016 147.417L46.8642 143.095L46.1817 138.773V134.678L43.6792 133.995L37.9918 131.72L34.1244 129.9L30.257 127.625L26.3895 124.895L23.8871 122.848L21.1571 120.345L18.4272 117.388V116.933H17.9722L17.5172 115.795H17.0622L15.0147 112.61H14.5597L12.2848 116.705L11.6023 118.298L11.8298 119.663V121.938L10.6923 123.758L8.87234 124.213V124.895L8.18985 125.578L6.36989 126.26H3.63993L1.81997 125.123L0.909984 123.985L0.227496 122.62L0 121.483V117.388L0.909984 113.52L2.27496 109.881L4.09493 106.241L6.36989 102.828L8.41735 100.553L8.87234 100.098L8.41735 98.0507L7.27987 92.5908L6.59738 87.1309L6.36989 84.401V80.3061L6.59738 76.6661L7.50737 70.5237L8.87234 65.0638L10.6923 59.8314L13.4223 54.144L15.6972 50.7316L17.9722 47.7741L20.4746 45.0442L22.9771 42.5417L25.9345 40.2668L29.347 37.9918L34.3519 35.2619L39.1293 33.2144L45.2717 31.1669L48.0016 30.4845L50.2766 29.1195L51.8691 27.2995L52.5516 25.252V22.2946L51.4141 19.1097L50.0491 16.6072L48.2291 14.1047L46.4092 12.5123L45.2717 11.3748L42.7692 9.32733L42.0867 8.64484L42.3142 7.73486L42.5417 7.50737H44.3617L49.3666 8.87234L54.144 11.3748L53.9165 5.4599L53.689 2.50245L55.2815 2.72995L57.784 4.32242L60.0589 6.36989L61.8789 8.18985L63.0164 9.78232V10.2373H63.4714L63.6989 8.64484L64.8363 5.91489L67.1113 2.04746L68.7038 0Z" fill="#BD3135"/>
<path d="M68.7038 0L69.8412 0.227496L71.4337 2.04746L73.9362 6.36989L75.3011 9.32733V10.0098H75.7561L76.2111 8.87234L78.2586 6.36989L80.9885 4.09493L83.491 2.50245L84.6285 2.27496L85.0835 2.72995L84.856 4.32242L84.6285 5.4599L84.401 11.3748L86.6759 10.0098L89.6334 8.64484L92.8183 7.73486L93.9558 7.50737H96.0033L96.2308 7.73486V8.87234L93.0458 11.6023L92.3633 11.8298L92.1358 12.5123H91.6809V12.9673H91.2259L90.7709 13.8773L88.9509 15.9247L87.1309 19.1097L86.2209 21.6121L85.9935 22.5221V25.252L86.9034 27.527L88.4959 29.347L90.7709 30.4845L96.9133 32.3044L101.691 34.1244L107.378 36.8543L109.881 38.4468L111.928 39.5843L113.065 40.4943L113.52 40.7218V41.1768L114.658 41.6318V42.0867L115.568 42.5417L117.388 44.1342L119.435 46.1817L121.483 48.6841L123.758 51.8691L125.805 55.2815L128.08 60.0589L130.128 66.2013L131.038 70.0687L131.72 74.1637L132.175 78.4861V86.2209L131.265 93.5008L129.9 99.4157L129.673 100.098L130.583 100.553L132.175 102.146L134.223 105.103L136.498 109.198L138.09 113.52L138.773 116.25L139 118.07V121.255L138.318 123.53L136.953 125.35L135.133 126.26H132.175L130.81 125.578L129.9 124.44L128.08 123.758L127.17 121.938V119.663L127.398 118.298L125.578 114.658L124.44 112.838V112.383L123.758 112.61L122.848 113.975L120.118 117.615H119.663L119.208 118.525L116.478 121.483L113.293 124.213L111.473 125.578L109.198 127.17L106.241 128.99L101.463 131.493L95.7758 133.768L93.2733 134.45V137.408L92.5908 142.867L91.4534 146.962V147.645L92.8183 148.555L94.1833 150.147L94.4108 150.602V152.65L93.2733 153.787L91.6809 154.47L87.8134 154.697L84.6285 154.242L81.8985 153.105L80.5336 151.512L80.3061 150.83V144.687L79.8511 139L79.6236 137.635L75.3011 138.09H63.6989L59.6039 137.635L59.1489 141.275L58.9214 145.142V151.057L58.0115 152.65L56.1915 153.787L53.689 154.47L51.6416 154.697H49.5941L46.6367 154.242L45.2717 153.332L44.5892 152.195L44.8167 150.602L45.7267 149.237L47.0917 148.1L48.0016 147.417L46.8642 143.095L46.1817 138.773V134.678L43.6792 133.995L37.9918 131.72L34.1244 129.9L30.257 127.625L26.3895 124.895L23.8871 122.848L21.1571 120.345L18.4272 117.388V116.933H17.9722L17.5172 115.795H17.0622L15.0147 112.61H14.5597L12.2848 116.705L11.6023 118.298L11.8298 119.663V121.938L10.6923 123.758L8.87234 124.213V124.895L8.18985 125.578L6.36989 126.26H3.63993L1.81997 125.123L0.909984 123.985L0.227496 122.62L0 121.483V117.388L0.909984 113.52L2.27496 109.881L4.09493 106.241L6.36989 102.828L8.41735 100.553L8.87234 100.098L8.41735 98.0507L7.27987 92.5908L6.59738 87.1309L6.36989 84.401V80.3061L6.59738 76.6661L7.50737 70.5237L8.87234 65.0638L10.6923 59.8314L13.4223 54.144L15.6972 50.7316L17.9722 47.7741L20.4746 45.0442L22.9771 42.5417L25.9345 40.2668L29.347 37.9918L34.3519 35.2619L39.1293 33.2144L45.2717 31.1669L48.0016 30.4845L50.2766 29.1195L51.8691 27.2995L52.5516 25.252V22.2946L51.4141 19.1097L50.0491 16.6072L48.2291 14.1047L46.4092 12.5123L45.2717 11.3748L42.7692 9.32733L42.0867 8.64484L42.3142 7.73486L42.5417 7.50737H44.3617L49.3666 8.87234L54.144 11.3748L53.9165 5.4599L53.689 2.50245L55.2815 2.72995L57.784 4.32242L60.0589 6.36989L61.8789 8.18985L63.0164 9.78232V10.2373H63.4714L63.6989 8.64484L64.8363 5.91489L67.1113 2.04746L68.7038 0ZM45.9542 9.55483V10.0098L47.7741 11.6023L49.8216 13.6498L51.4141 15.9247L53.0065 18.6547L54.144 22.5221V25.4795L53.234 28.2095L51.6416 30.257L49.3666 31.6219L45.0442 32.9869L39.5843 34.8069L33.8969 37.3093L29.1195 40.0393L25.4795 42.7692L22.2946 45.4992L20.2471 47.5466L17.7447 50.7316L15.4697 54.144L13.1948 58.239L11.1473 63.4714L9.78232 68.0213L8.64484 73.7087L8.18985 77.5761V86.9034L8.87234 92.3633L10.0098 97.5957L12.0573 103.738L14.1047 108.061L16.8347 112.383L18.8822 115.113L21.6121 118.298L24.1146 120.8L26.617 122.848L30.0295 125.35L34.1244 127.853L39.1293 130.355L44.5892 132.403L48.2291 133.54L54.3715 135.133L58.6939 135.815L62.5614 136.043V135.588L59.6039 135.133L52.3241 133.313L47.5466 131.72L43.6792 130.583L40.4943 128.99L38.9018 128.535L36.6268 127.17L31.3944 123.985L29.5745 122.62L29.347 121.938L26.162 119.435L22.9771 116.705L20.4746 113.748L20.2471 113.293L21.8396 113.52L25.0245 114.203L26.8445 116.023L27.982 116.25L28.2095 116.705L30.257 117.16L32.7594 118.525L34.5794 119.435L37.5368 120.118L38.2193 120.345V120.8L40.7218 121.71L43.6792 122.393L45.2717 123.075L47.3191 123.758L50.2766 124.44L51.8691 124.668L53.234 125.123L56.1915 125.805L57.1015 125.35L59.6039 125.578L60.0589 126.715L61.1964 127.17L62.3339 126.943L62.7889 126.26L64.3813 126.033L68.2488 126.26L69.3863 126.033H73.7087V125.578H74.1637L75.0736 124.668L76.4386 124.44L76.6661 125.35L78.0311 125.123L79.8511 124.44H81.216L82.126 124.895L84.856 124.44L86.4484 123.985L87.3584 122.165L89.6334 121.938L90.3159 121.028L88.0409 119.89L87.3584 118.753V116.478L88.2684 114.43L89.8609 113.065H91.6809L92.5908 113.975L93.7283 116.933L95.0933 116.478L97.5957 115.34L99.4157 114.203L102.601 112.61L103.283 112.383V111.928L103.966 111.7V111.245L104.876 110.791L106.013 109.653V109.198H106.696V108.743L107.606 108.288L107.833 107.606L108.743 107.151L109.653 106.241L108.971 105.786V104.876L109.881 104.648L110.563 105.331L111.018 103.056L112.155 102.601L111.7 101.691L111.018 100.553V97.8232L111.7 96.0033L113.065 94.8658H114.43L116.25 96.2308L116.705 95.5483L116.478 94.6383V93.0458L116.705 91.4534H115.795V90.3159L117.388 90.5434L118.525 88.7234L119.435 85.5385L119.663 85.311V82.126L119.89 80.5336L119.435 80.0786L118.298 80.3061L117.615 78.7136L117.843 77.8036L119.208 78.0311H119.89L120.345 76.6661L120.573 73.0262L120.345 70.2962L120.118 69.1588L119.435 65.2913L119.208 63.4714L118.753 60.2864L118.298 59.3764L117.843 57.784L116.933 56.6465V54.599L116.023 53.234H115.568L115.34 51.6416L115.113 49.8216L114.658 48.2291H116.023L118.298 50.2766L120.118 52.7791L121.71 55.054L124.44 60.0589L125.805 63.4714L127.17 67.7938L128.308 72.1162L128.99 77.3486L129.218 84.401L128.99 87.3584L128.535 90.0884L127.853 93.2733L126.943 96.4583L125.578 100.326L124.668 101.918L123.985 104.193L122.165 107.833L120.573 110.336L116.933 115.568L114.885 117.615L113.975 118.753L113.52 118.98V119.435L112.61 119.89L109.881 122.165L105.558 124.895L99.6432 128.08L94.6383 130.355L89.6334 132.175L86.4484 133.313L83.7185 133.995L80.3061 134.905L79.6236 135.588H81.671L88.4959 134.223L92.3633 133.085L96.0033 131.948L98.7332 130.81L103.966 128.308L107.378 126.26L111.245 123.53L113.748 121.483L116.023 119.435L117.615 117.615L119.663 115.34L122.165 111.928L124.213 108.516L126.033 104.876L127.17 102.373L128.535 97.5957L129.218 94.8658L130.355 88.0409L130.583 84.401V80.761L130.128 74.6187L129.218 69.8412L128.308 66.4288L126.488 60.9689L124.895 57.329L122.848 53.689L121.028 50.9591L118.98 48.4566L116.933 46.1817L114.43 43.6792L110.791 40.9493L107.151 38.6743L102.828 36.3993L101.008 35.4894L97.3682 34.1244L92.5908 32.7594L90.0884 32.0769L87.1309 30.257L85.5385 28.437L84.6285 26.162L84.401 25.0245V21.8396L85.766 18.1997L87.5859 15.0147L89.6334 12.5123L92.5908 9.55483L90.5434 10.0098L87.8134 11.1473L84.1735 13.4223L81.216 16.1522L78.9411 19.1097L76.8936 22.5221L76.2111 22.7496L75.0736 20.2471L72.7987 15.4697L69.6137 10.2373H68.9313L66.2013 14.7872L64.1538 18.6547L62.5614 22.7496L61.6514 22.5221L60.2864 20.0196L58.0115 16.8347L55.2815 14.1047L51.1866 11.3748L47.5466 9.78232L45.9542 9.55483Z" fill="#5C1C11"/>
<path d="M115.113 48.0017L116.25 48.2292L118.07 49.8217L120.345 52.7791L121.938 55.0541L124.668 60.059L126.033 63.4714L127.398 67.7939L128.535 72.1163L129.218 77.3487L129.445 84.4011L129.218 87.3585L128.763 90.0885L128.08 93.2734L127.17 96.4583L125.805 100.326L124.895 101.918L124.213 104.193L122.393 107.833L120.8 110.336L117.16 115.568L115.113 117.615L113.975 118.98H113.52V119.435L111.246 121.255L108.516 123.303L103.966 126.033L98.2782 128.99L94.6383 130.583L89.6334 132.403L86.4485 133.54L83.7185 134.223L80.3061 135.133L79.8511 135.36L80.0786 135.815L72.7987 136.498H65.2913L62.3339 136.27L62.5614 135.588H60.2864L59.1489 135.133L55.964 134.45L52.3241 133.54L47.5467 131.948L43.6792 130.81L40.4943 129.218L38.9018 128.763L36.6269 127.398L31.3944 124.213L29.347 122.62V121.938L28.437 121.483L25.9345 119.435L22.9771 116.933L20.9296 114.658L20.0197 113.066H21.3846L23.4321 113.748L25.0246 113.976L26.162 114.886L26.8445 115.795L28.6645 116.705L30.257 116.933L32.7594 118.298L34.5794 119.208L37.5368 119.89L38.2193 120.345V120.8L39.8118 121.028L43.9067 122.393L46.1817 123.303L49.1391 123.985L51.8691 124.44L53.2341 124.895L56.1915 125.578L57.1015 125.123L59.1489 125.35L59.8314 126.033L60.2864 126.715L62.3339 126.943L62.7889 126.033L64.3814 125.805L68.2488 126.033L69.3863 125.805H73.2537L73.7087 126.033V125.578H74.1637L74.3912 124.895L75.7561 124.213L76.4386 124.44L76.6661 125.35L79.3961 124.44L79.8511 124.213H81.216L82.126 124.668L84.856 124.213L86.4485 123.758L87.1309 122.165L87.3584 121.938L89.6334 121.71L90.0884 121.028L88.0409 120.118L87.1309 118.753V116.478L88.0409 114.431L89.8609 112.838H91.6809L92.8183 113.976L93.7283 116.478V116.933L96.6858 115.568L98.2782 114.658L100.781 113.293L102.601 112.383H103.283V111.928L104.876 110.563L106.013 109.198H106.696V108.743L108.516 107.151L109.198 106.241L108.743 105.786L108.971 104.648L109.881 104.421L110.563 104.876L111.018 103.056L111.928 102.601L111.473 101.691L110.791 100.553V97.8233L111.473 96.0033L113.065 94.6384H114.43L116.25 96.0033L116.478 95.0934L116.25 94.6384V93.0459L116.705 91.4534H115.795L115.568 90.7709L115.795 90.3159H117.388L118.298 88.7235L119.208 85.5385L119.435 85.311V82.1261L119.663 80.5336H118.98L118.07 80.3061L117.388 78.7137L117.615 77.8037L118.753 77.5762L119.663 78.0312L120.118 76.6662L120.345 73.0263L120.118 70.2963L119.89 69.1588L119.208 65.2914L118.98 63.4714L118.525 60.2865L118.07 59.3765L117.615 57.784L116.705 56.6466V54.5991L116.023 53.4616L115.568 53.2341L115.113 51.6416L114.885 49.8217L114.658 49.5942V48.2292L115.113 48.0017Z" fill="#A42127"/>
<path d="M45.9541 9.55518L48.2291 10.0102L51.869 11.8301L54.599 13.6501L56.8739 15.6976L58.9214 17.9725L61.1964 21.6125L61.8789 22.7499H62.5613L64.3813 18.2L66.6563 13.8776L68.9312 10.2377H69.6137L72.3437 14.7876L74.8461 19.565L75.9836 22.5224L76.4386 22.7499L77.1211 22.0675L79.396 18.4275L82.126 15.2426L84.8559 12.9676L88.2684 10.9202L90.5433 10.0102L91.4533 10.2377L90.3158 10.9202L86.4484 12.9676L84.1735 14.7876L82.3535 16.6075L80.306 19.11L78.941 21.385L77.5761 23.8874L76.6661 24.1149L75.5286 22.9774L73.4811 19.3375L69.8412 12.7401L69.6137 11.8301L68.9312 12.5126L65.9738 17.9725L63.9263 22.2949L63.2438 23.6599L62.7888 24.1149L61.4239 23.8874L58.9214 19.7925V19.3375H58.4664L56.419 16.835L54.144 14.7876L51.6415 12.9676L50.959 12.7401L53.4615 16.3801L54.8265 19.3375L55.2815 20.93L55.509 22.9774V25.4799L55.054 27.7548L53.689 30.2573L51.869 31.8498L50.2766 32.9873L45.9541 34.8072L43.9067 35.2622V35.7172L41.6317 36.3997L39.1293 37.5372H38.6743V37.9922L35.7168 39.1296L32.3044 40.9496L28.6645 43.4521L25.4795 45.9545L22.7496 48.6845L20.7021 51.1869L18.6546 53.9169L18.1996 54.5994H17.7446L17.5172 55.7368L15.2422 60.0593L13.4222 64.1542L11.6023 70.2966L10.6923 74.3915L10.0098 80.3064V88.2688L10.6923 93.9562L12.0572 100.326L14.1047 106.013L15.4697 108.971V109.653H15.0147L13.1947 106.013L11.6023 102.601L9.78229 96.6861L8.64481 90.9987L8.18982 86.9038V77.5765L8.87231 72.344L10.2373 66.2017L12.0572 60.9692L14.1047 56.4193L16.6072 52.3244L18.6546 49.5945L21.1571 46.637L23.2045 44.5895L25.707 42.5421L29.1194 40.0396L34.8068 36.8547L40.2667 34.5797L45.7266 32.7598L49.3666 31.6223L51.869 30.0298L53.4615 27.7548L54.144 25.4799V22.5224L53.0065 18.655L50.7316 14.7876L48.0016 11.8301L46.4091 10.2377L45.9541 10.0102V9.55518Z" fill="#E2AFAB"/>
<path d="M50.7317 68.9314H52.7791L55.0541 69.8414L56.8741 71.6613L58.0115 73.9363L58.694 76.2113L58.9215 78.0312V80.0787L58.4665 82.8086L57.329 85.5386L55.9641 87.3586L53.9166 88.7235L53.2341 88.951H50.7317L48.9117 88.2685L47.0917 86.6761L45.7268 84.4011L44.8168 80.7612V76.8938L45.7268 73.4813L47.3192 70.9789L49.3667 69.3864L50.7317 68.9314Z" fill="#571A0E"/>
<path d="M85.5385 69.1589H87.131L88.9509 69.8414L91.2259 71.8889L92.5909 74.6188L93.0459 76.2113L93.2734 79.8512L92.5909 83.4912L91.2259 86.2211L89.8609 87.8136L87.8135 88.9511L85.5385 89.1786L83.0361 88.2686L80.9886 86.2211L79.8511 83.7187L79.3961 81.8987V76.6663L80.3061 73.7089L81.6711 71.4339L83.491 69.8414L85.5385 69.1589Z" fill="#571A0E"/>
<path d="M69.1587 1.82007L70.0687 2.73005L72.1162 6.14249L73.9362 10.0099L75.0736 12.9674L75.3011 13.1949L76.8936 10.4649L78.7136 8.18995L80.9885 5.91499L83.036 4.55002L83.2635 5.00501L83.036 6.59748V12.5124L80.306 15.0148L79.6236 15.9248H79.1686L78.7136 16.8348L77.8036 17.9723L76.6661 19.7922L76.2111 19.1098L74.3912 15.4698L72.3437 11.8299L70.0687 8.41745L69.6137 7.96246L68.7038 8.18995L67.1113 10.4649L64.1538 15.4698L62.1064 20.0197L61.1964 18.8823L61.4239 15.9248L60.5139 15.4698V15.9248H60.0589V16.3798L59.1489 15.9248L56.6465 13.4224L55.509 12.7399V6.14249L55.2815 4.77752L56.419 5.23251L58.6939 7.05247L60.7414 9.09994L62.7889 12.2849L63.2439 12.9674H63.6988L65.0638 9.09994L66.8838 5.46L69.1587 1.82007Z" fill="#AF886B"/>
<path d="M128.99 101.464L129.9 101.919L131.948 104.194L133.768 107.151L135.588 110.791L136.953 114.886L137.408 116.933L137.635 119.663L137.18 122.393L136.27 123.758L135.588 124.441L134.223 124.896L132.175 124.668L131.038 123.758L130.583 123.076L128.99 122.621L128.535 121.711L128.763 119.663L128.99 118.526L128.08 116.023L126.033 112.611L124.895 111.246L125.35 109.881L127.625 105.104L128.99 101.464Z" fill="#BE3135"/>
<path d="M9.32735 101.464L10.0098 102.374L11.8298 106.924L13.8773 110.791L13.6498 111.701L11.6023 114.886L10.2373 117.616L10.0098 118.753L10.4648 120.346L10.2373 122.166L9.55484 122.848H8.18987L7.73488 123.986L5.91491 124.896L4.09494 124.668L2.72997 123.986L1.81998 122.621L1.36499 121.028V118.753L2.04748 114.886L3.18496 111.473L5.68741 106.241L7.96237 103.056L9.32735 101.464Z" fill="#BE3135"/>
<path d="M90.9984 135.133H91.9084V138.545L90.7709 144.233L89.6334 147.645V148.555L91.6809 149.238L93.0459 150.83V152.195L91.9084 152.877L90.9984 153.105H86.221L83.2635 152.195L81.8986 151.058L81.6711 144.005L81.2161 138.545V137.18L89.4059 135.588L90.9984 135.133Z" fill="#A42127"/>
<path d="M47.5467 135.133L49.8217 135.588L54.8266 136.725L58.239 137.408L57.7841 141.275L57.3291 151.058L56.1916 152.195L53.4616 153.105H48.0017L46.4093 152.423L46.1818 152.195V150.83L47.3192 149.693L48.4567 149.01L49.8217 148.555L49.1392 146.28L48.0017 141.958L47.5467 138.545V135.133Z" fill="#BE3135"/>
<path d="M129.9 83.946H130.128V88.951L129.218 94.8658L128.535 97.5958L126.943 103.056L123.758 109.426L121.028 113.521L118.98 116.023L116.933 118.298L115.568 119.89L113.748 121.483L111.018 123.758L105.558 127.398L100.781 129.9L96.2309 131.72L94.4109 132.403L91.9085 133.313L89.406 133.54L90.0885 132.858L90.9985 132.63V132.175L95.3209 130.583L100.098 128.308L104.421 126.033L107.151 124.44L109.653 122.848L112.156 120.8L113.521 119.89L115.113 118.07L117.388 115.795H117.843L118.298 114.885L120.118 111.928L121.483 110.336L121.938 109.653L122.62 107.606L123.985 105.331L124.44 104.648L125.35 101.691L126.488 99.1883L127.398 96.6858L128.308 93.0459L128.763 91.6809L129.445 86.221L129.673 85.9935L129.9 83.946Z" fill="#CE5A59"/>
<path d="M91.4534 88.2683H96.0033L98.7332 89.6333L99.6432 90.5433L100.098 91.2258V93.7282L99.4157 93.9557V94.4107L97.1408 95.7757L95.5483 96.2307H91.6809L88.7234 95.5482L87.3584 94.4107V93.7282H86.9034V91.4533L88.4959 89.6333L91.4534 88.2683Z" fill="#EB908B"/>
<path d="M42.7691 88.2683H45.7266L48.0016 88.9508L49.8215 89.8608L50.7315 91.4533V93.2732L49.8215 94.6382L48.0016 95.7757L46.1816 96.2307H43.6791L40.7217 95.7757L38.4467 94.6382L37.7642 93.5007L37.5367 93.0457V90.7708L39.1292 89.4058L41.1767 88.4958L42.7691 88.2683Z" fill="#EC908B"/>
<path d="M14.3323 106.468L15.4698 107.378L17.0622 109.881L17.9722 111.018L18.6547 111.928V112.383H19.1097L20.9297 114.886L22.7496 116.933V117.388L23.6596 117.843L26.1621 119.891L28.437 121.71L32.077 124.44L37.0819 127.398L39.3568 128.763L41.4043 129.445L44.3617 130.81L50.9591 132.858L54.8265 133.995L57.5565 134.678L59.604 135.133L62.5614 135.588V136.043L58.694 135.815L54.3716 135.133L45.7267 132.858L40.2668 130.81L34.5794 128.08L31.3945 126.26L27.527 123.53L25.0246 121.483L22.2946 118.981L19.3372 115.796L16.3797 111.701L15.2423 109.653L15.0148 108.516L14.3323 107.151V106.468Z" fill="#CF5B59"/>
<path d="M91.4534 137.862H91.6809V139.91L90.7709 144.232L89.6334 147.645V148.555L91.6809 149.237L93.0458 150.83V151.74H92.1359V152.195L90.9984 152.422L87.8134 152.195L85.0835 151.285L83.946 150.147L83.7185 148.555L84.1735 144.687L85.0835 141.957L86.221 141.047L90.5434 138.772L91.4534 137.862Z" fill="#BE3135"/>
<path d="M88.4958 31.6218L89.8608 31.8493L91.6808 32.5318L94.4107 33.2143L98.7332 34.5793L101.236 35.7168L106.468 38.2192L110.108 40.4942L113.748 43.2241L116.023 45.2716L118.525 47.774L121.028 50.959L123.53 54.8264L125.805 59.1488L128.08 65.5187L128.763 67.7937L128.99 70.7511L128.308 70.2961L125.805 62.3338L123.075 56.6464L121.028 53.2339L118.753 50.2765L117.16 48.4565L114.885 46.4091L114.43 46.1816V45.7266L113.52 45.2716L110.563 42.9966L106.241 40.4942L102.601 38.4467L97.3682 36.1717L93.5008 34.3518L91.6808 33.6693L90.7708 33.4418L89.1783 32.9868V32.3043H88.7233L88.4958 31.6218Z" fill="#CE5957"/>
<path d="M47.5467 135.133L49.8217 135.588L54.8266 136.725L58.239 137.408L57.7841 141.275L57.3291 151.058L56.1916 152.195L53.4616 153.105H48.0017L46.4093 152.423L46.1818 151.968H51.4142L53.9166 151.285L55.0541 150.83L55.2816 149.238V145.598L54.3716 142.64L53.9166 141.73L50.2767 139.91L48.2292 138.773L47.5467 138.09V135.133Z" fill="#A42127"/>
<path d="M122.62 56.4192L123.303 56.6467L126.033 62.3341L128.535 70.2964L128.763 70.5239L129.218 69.8414L130.128 74.6189L130.583 80.7613V84.4012L130.355 88.0411H130.128L129.9 85.9937L129.673 86.2212L128.99 91.6811L127.853 95.5485L126.943 98.5059L125.805 101.236L124.895 103.511L124.44 105.103L123.075 107.151L122.393 108.516L121.938 109.881L120.573 111.701L117.843 115.796L116.023 117.388L113.976 119.436L113.293 120.346L112.156 121.028L109.653 123.075L107.151 124.668L103.966 126.488L99.6433 128.763L93.7284 131.493L91.6809 132.175H90.9985V132.63L89.6335 133.313L90.0885 133.768L85.3111 134.905L81.6711 135.588H79.6237L80.3061 134.905L83.7186 133.995L88.496 132.63L92.8184 131.038L96.2309 129.673L101.918 126.943L106.013 124.668L110.108 121.938L113.066 119.436H113.521V118.981L114.658 118.071L116.25 116.251L117.615 114.658L120.573 110.336L122.393 107.378L124.213 103.738L124.895 101.463L125.805 99.6434L126.943 96.4585L128.308 91.4536L128.763 88.0411L128.99 87.3586L129.218 83.2637L128.99 77.3488L128.308 72.1164L127.17 67.794L125.123 61.6516L123.303 57.7842L122.62 56.4192Z" fill="#BE3135"/>
<path d="M69.1587 10.0098L70.0687 10.9197L73.2536 16.3797L75.3011 20.7021L76.2111 22.7495L76.8936 22.522L78.941 19.1096L80.761 16.8346L82.581 14.7872L84.8559 12.9672L88.2684 10.9197L90.5433 10.0098L91.4533 10.2373L90.3158 10.9197L86.4484 12.9672L84.1735 14.7872L82.3535 16.6071L80.306 19.1096L78.941 21.3846L77.5761 23.887L76.6661 24.1145L75.5286 22.977L73.4811 19.3371L69.8412 12.7397L69.6137 11.8297L68.9312 12.5122L65.9738 17.9721L63.9263 22.2945L63.2438 23.6595L62.7888 24.1145L61.4239 23.887L58.9214 19.7921V19.3371H58.4664L57.1014 17.5171L58.0114 17.7446H58.6939L60.2864 20.0196L61.8789 22.7495H62.5613L64.3813 18.1996L66.6563 13.8772L68.9312 10.2373L69.1587 10.0098Z" fill="#E88D88"/>
<path d="M128.99 101.464L129.9 101.919L130.81 103.056L130.355 106.241L128.99 111.246L128.535 112.611L128.763 114.658L129.673 118.298L130.128 120.346L131.265 122.166L134.905 124.441L134.223 124.896L132.175 124.668L131.038 123.758L130.583 123.076L128.99 122.621L128.535 121.711L128.763 119.663L128.99 118.526L128.08 116.023L126.033 112.611L124.895 111.246L125.35 109.881L127.625 105.104L128.99 101.464Z" fill="#A42127"/>
<path d="M45.9542 9.55518L48.2292 10.0102L51.8691 11.8301L54.5991 13.6501L56.874 15.6976L58.239 17.0625L58.0115 17.9725L56.6465 17.0625L54.1441 14.7876L51.6416 12.9676L50.9591 12.7401L53.4616 16.3801L54.8266 19.3375L55.2816 20.93L55.5091 22.9774V25.4799L55.0541 27.7548L53.6891 30.2573L51.8691 31.8498L50.2766 32.9873L47.7742 34.1247H47.0917V33.6697L48.6842 32.7598L47.3192 32.5323L50.9591 30.7123L52.0966 29.8023L53.4616 27.7548L54.1441 25.4799V22.5224L53.0066 18.655L50.7316 14.7876L48.0017 11.8301L46.4092 10.2377L45.9542 10.0102V9.55518Z" fill="#E2A8A4"/>
<path d="M9.32725 101.464L10.0097 102.374L11.8297 106.924L13.8772 110.791L13.6497 111.701L11.6022 114.886L10.2372 117.616L10.0097 118.753L10.4647 120.346L10.2372 122.166L9.55475 122.848H8.18977L7.73478 123.986L5.91482 124.896L4.09485 124.668V124.213L7.0523 122.621L8.41727 121.256L9.32725 119.208L9.78225 116.478L10.4647 114.203V112.156L9.09976 107.606L8.41727 104.421V102.374L9.32725 101.464Z" fill="#A42127"/>
<path d="M69.1588 11.8301H69.6138L71.8888 16.1525L73.0262 17.9725L72.7988 18.4275L71.2063 19.3374L70.0688 20.0199L69.6138 19.7924V18.2L68.9313 17.29L68.4763 16.835L67.7938 17.0625L68.0213 17.5175L67.1114 17.745L66.8839 19.3374L67.3389 20.2474H65.7464L65.5189 20.4749L65.2914 22.2949L64.1539 23.4324L63.4714 24.3424H62.1064L63.2439 23.4324L65.2914 18.8825L68.2488 13.1951L69.1588 11.8301Z" fill="#C94748"/>
<path d="M53.0065 71.8889H54.8264L56.1914 73.0264L56.6464 73.9364V76.8938L55.9639 78.2588L55.2814 78.9413L54.1439 79.1688L52.779 78.4863L51.6415 76.4388V73.7089L52.5515 72.1164L53.0065 71.8889Z" fill="#F5F2F1"/>
<path d="M83.036 72.116H84.8559L85.9934 73.2534L86.2209 73.7084V76.8934L85.5384 78.2584L84.6284 79.1683H83.036L81.8985 78.0309L81.4435 76.8934V74.3909L82.126 73.026L83.036 72.116Z" fill="#F5F3F2"/>
<path d="M46.6367 32.532H48.9117L48.0017 33.442L47.0917 33.6695V34.3519L44.5893 35.2619H43.9068V35.7169L41.6318 36.3994L39.1294 37.5369H38.6744V37.9919L37.5369 38.4469L36.6269 38.2194L37.9919 37.5369H37.5369L37.0819 37.3094L36.8544 37.7644L35.2619 38.2194L34.807 38.4469L33.897 37.9919V37.3094L38.4469 35.2619L44.1343 33.2145L46.6367 32.532Z" fill="#E2AAA5"/>
<path d="M63.6989 85.0837L64.8364 85.3112L66.2014 87.3587L67.5664 88.0412L68.4763 88.2687H70.0688L71.8888 87.5862L72.7988 86.6762L73.4813 85.0837H74.6187L75.0737 85.5387L74.8462 87.1312L73.2538 88.9512L70.9788 90.0886L68.4763 90.3161L66.2014 89.6337L64.1539 88.0412L63.4714 86.9037V85.3112L63.6989 85.0837Z" fill="#561A0E"/>
<path d="M90.5434 10.0098L91.4534 10.2373L90.3159 10.9197L86.4485 12.9672L84.1735 14.7872L82.3535 16.6071L80.3061 19.1096L78.9411 21.3846L77.5761 23.887L76.6661 24.1145L75.5286 22.977L73.4812 19.3371L72.1162 16.8346L72.3437 16.3797L72.7987 17.0621L72.3437 15.2422L73.0262 15.9247L75.3012 20.7021L76.2111 22.7495L76.8936 22.522L78.9411 19.1096L80.7611 16.8346L82.581 14.7872L84.856 12.9672L88.2684 10.9197L90.5434 10.0098Z" fill="#E78A86"/>
<path d="M116.023 116.706V117.388L113.976 119.436L113.293 120.346L112.156 121.028L109.653 123.075L107.151 124.668L103.966 126.488L99.6433 128.763L93.7284 131.493L91.6809 132.175H90.9985V132.63L89.6335 133.313L90.0885 133.768L85.3111 134.905L81.6711 135.588H79.6237L80.3061 134.905L83.7186 133.995L88.496 132.63L92.8184 131.038L96.2309 129.673L101.918 126.943L106.013 124.668L110.108 121.938L113.066 119.436H113.521V118.981L115.341 117.388L116.023 116.706Z" fill="#BE3135"/>
<path d="M69.1588 1.82007L70.0687 2.73005L72.1162 6.14249L73.9362 10.0099V11.1474L73.0262 10.2374L71.8887 8.18995L70.0687 5.23251L69.1588 4.09503L66.8838 8.18995L64.6088 11.6024L64.3813 10.9199L65.9738 7.05247L67.7938 3.86753L69.1588 1.82007Z" fill="#DBD6CA"/>
<path d="M50.049 60.969H51.869L53.0065 61.879L52.779 63.0165L51.1865 63.4714L48.9115 64.1539L46.4091 65.7464L45.4991 65.5189L45.2716 65.2914V63.9264L46.4091 62.789L48.2291 61.6515L50.049 60.969Z" fill="#591A0F"/>
<path d="M50.9591 12.7397L51.8691 12.9672L54.3715 14.7872L57.1015 17.2897L58.239 18.8821H57.5565L57.329 19.5646L55.964 20.2471L55.054 20.9296L54.144 18.1996L52.5516 15.2422L50.9591 13.1947V12.7397Z" fill="#D05E5C"/>
<path d="M85.5385 61.4241H88.4959L91.6809 63.0165L92.8184 64.3815V65.519L92.5909 65.7465L90.9984 65.519L88.7234 64.154L85.5385 63.4715L85.0835 62.789L85.311 61.6516L85.5385 61.4241Z" fill="#561A0E"/>
<path d="M37.0819 127.398L38.2194 127.625L41.8593 129.445L43.6793 130.128L47.7742 131.493L54.1441 133.54L60.514 134.905L66.8839 135.588L72.7988 136.043V136.498H65.2914L62.334 136.27L62.5615 135.588H60.2865L59.149 135.133L55.9641 134.45L52.3241 133.54L47.5467 131.948L43.6793 130.81L40.4943 129.218L38.9019 128.763L37.0819 127.625V127.398Z" fill="#BE3236"/>
<path d="M122.62 56.4192L123.303 56.6467L126.033 62.3341L128.535 70.2964L128.763 70.5239L129.218 69.8414L130.128 74.6189L130.355 76.8938V83.7187L129.9 83.2637L129.673 81.6712L129.445 75.9838L128.763 75.7563L128.308 72.1164L127.17 67.794L125.123 61.6516L123.303 57.7842L122.62 56.4192Z" fill="#BE3135"/>
<path d="M18.4271 54.5991H18.8821V60.059L18.1996 61.1965L17.7446 61.6515H16.1522L15.2422 60.7415L15.4697 59.149L17.2897 55.7366L17.9721 55.5091L18.4271 54.5991Z" fill="#BE3236"/>
<path d="M91.9083 9.55518L92.5908 9.78267L89.8609 12.2851L88.0409 14.3326L86.6759 16.6075L85.0834 19.7925L84.401 21.84L84.1735 22.9774V25.9349L83.7185 25.7074L83.491 22.7499L83.946 19.3375L84.401 17.9725H84.8559L85.3109 16.835L86.2209 15.0151L87.1309 13.8776L87.3584 12.9676L86.2209 13.1951L86.9034 12.5126L90.3158 10.6927L91.2258 10.2377V9.78267L91.9083 9.55518Z" fill="#CE5857"/>
<path d="M83.036 21.1572H83.2635V24.7972L83.7185 27.5271L85.0835 30.2571L85.311 30.9396H85.766L86.676 32.3045L86.4485 32.532L84.856 32.3045V31.8495H84.1735V31.3945L83.036 31.167L82.3536 29.8021L81.8986 27.2996L82.3536 22.2947L83.036 21.1572Z" fill="#A42127"/>
<path d="M55.2815 4.77759L56.419 5.23258L58.6939 7.05255L60.7414 9.10001L62.5614 11.83L62.3339 12.5124L59.8314 9.7825L58.6939 8.64502L56.874 7.28004L56.1915 12.7399H55.509V6.14256L55.2815 4.77759Z" fill="#DBD2C7"/>
<path d="M87.3584 12.7397L87.5859 13.1947L86.676 14.7872L86.221 15.2422L85.5385 16.8347L84.6285 17.9722L84.1735 17.2897H83.7185L83.491 18.4271L81.4436 18.1996L80.5336 18.8821L80.9886 17.9722L84.1735 14.5597L85.766 13.1947L87.3584 12.7397Z" fill="#C94748"/>
<path d="M8.18991 102.828L8.41741 103.511L7.50742 105.331H7.05243L6.59744 106.696L4.77747 110.336L4.32248 111.928H3.86749L2.9575 116.023L2.27502 118.071L1.82003 119.891H1.59253V116.933L2.73001 112.611L4.54998 108.516L6.14245 105.558L8.18991 102.828Z" fill="#E3827E"/>
<path d="M130.583 103.056H131.038L133.313 106.241L135.133 109.881L136.498 113.293L137.408 116.933L137.635 119.663L137.408 120.801H137.18L136.498 116.933L135.815 115.113L135.588 113.066H135.133L134.223 110.336L131.265 104.421L130.583 103.056Z" fill="#E38782"/>
<path d="M69.1587 10.0098L70.0686 10.9197L72.3436 14.7872L73.0261 16.6071L72.7986 17.2896L71.4336 15.6972L69.6136 12.2847V11.8297L68.9312 12.5122L67.3387 15.4697L66.4287 15.0147V15.6972L65.7462 15.9247L66.2012 14.7872L68.9312 10.2373L69.1587 10.0098Z" fill="#E88A85"/>
<path d="M83.0359 4.55005L83.2634 5.00504L82.5809 8.18998H82.3534V6.82501L80.5335 8.18998L78.486 10.2374L76.4385 12.7399L75.5286 13.1949L75.9836 11.8299L78.2585 8.64497L80.9885 5.91502L83.0359 4.55005Z" fill="#DBD4C8"/>
<path d="M57.784 45.0444H58.9215L59.149 45.2719V48.0019L58.239 49.3669L57.784 49.5944H55.7365L55.509 48.6844L56.1915 46.8644L57.784 45.0444Z" fill="#BF3639"/>
<path d="M10.9199 96.4585L11.3749 97.3685L12.5123 101.691L14.7873 107.606L15.4698 108.971V109.653H15.0148L13.1948 106.013L11.6024 102.601L10.0099 97.596V97.141L10.6924 96.9135L10.9199 96.4585Z" fill="#E0A49E"/>
<path d="M108.971 42.7693L110.108 42.9968L111.928 44.3618L113.065 45.2717L113.293 45.9542L113.065 46.1817L111.473 45.9542L109.881 45.4992L107.606 45.2717L107.378 45.0442L107.606 43.4518L108.971 42.7693Z" fill="#A42127"/>
<path d="M128.99 75.9836H129.445L129.673 77.3486L129.9 81.671L130.128 83.2635L130.355 80.7611H130.583V84.401L130.355 88.0409H130.128L129.9 85.9935L129.673 86.221L128.99 91.6809L128.08 94.6383H127.625L128.08 92.5908L128.763 88.0409L128.99 87.3584L129.218 83.2635L128.99 75.9836Z" fill="#BC3135"/>
<path d="M53.4616 28.6646H54.144L53.9166 29.802L52.3241 31.622L50.2766 32.987L47.7742 34.1245H47.0917V33.6695L48.6841 32.7595L47.3192 32.532L50.9591 30.712L53.0066 29.1195H53.4616V28.6646Z" fill="#E1AFAB"/>
<path d="M50.0491 12.0576L51.1866 12.2851L51.869 12.5126V12.0576L53.0065 12.5126L55.7365 14.5601L58.2389 17.0625L58.0114 17.9725L56.6465 17.0625L54.144 14.7876L51.6415 12.9676L50.9591 12.7401L50.7316 13.1951L50.0491 12.0576Z" fill="#E3A6A2"/>
<path d="M12.5123 66.2012H12.7398L12.9673 68.7036L11.8298 70.9786L10.9198 74.6185L10.2373 80.7609V88.0408L10.4648 90.0882V92.5907H10.2373L9.78235 88.2683V80.3059L10.4648 74.391L11.6023 69.3861L12.5123 66.2012Z" fill="#CD5755"/>
<path d="M88.496 132.63H89.1785V133.085L86.9035 133.995L87.586 134.45L81.6711 135.588H79.6237L80.3061 134.905L83.7186 133.995L88.496 132.63Z" fill="#BC3034"/>
<path d="M128.99 71.6614L129.673 71.8889L130.355 76.8938V83.7187L129.9 83.2637L129.673 81.6712L129.445 77.3488L128.99 73.7088V71.6614Z" fill="#CB5453"/>
<path d="M61.424 135.133L72.7987 136.043V136.498H65.2914L62.3339 136.27L62.5614 135.588H61.424V135.133Z" fill="#B62C31"/>
<path d="M47.5466 138.09L48.2291 138.317L48.9116 140.365L49.3666 143.095L50.0491 146.735V147.872L49.3666 146.962L48.2291 143.095L47.5466 138.545V138.09Z" fill="#E2847F"/>
<path d="M56.1915 17.0623L57.5565 17.9722L58.239 18.8822H57.5565L57.329 19.5647L55.964 20.2472L55.054 20.9297L54.8265 20.0197V17.5172L56.1915 17.0623Z" fill="#C94748"/>
<path d="M58.4664 19.3372H58.9214L60.5139 22.0671L61.1964 22.9771L60.9689 23.4321L60.2864 22.9771V23.4321L58.9214 23.6596L58.0114 22.0671L57.7839 21.1571L58.2389 20.2471H58.6939L58.4664 19.3372Z" fill="#C94849"/>
<path d="M91.4534 137.862H91.6809V139.91L90.7709 144.232L89.6335 147.645L89.1785 147.872L89.6335 145.142L90.3159 141.275L90.7709 139.91L90.9984 138.317L91.4534 137.862Z" fill="#E2837E"/>
<path d="M37.3094 35.717H38.6744L38.9019 36.627L38.2194 37.3095L37.5369 37.537L37.0819 37.3095L36.8544 37.7645L35.2619 38.2195L34.807 38.447L33.897 37.992V37.3095L37.3094 35.717Z" fill="#DFC4C6"/>
<path d="M72.3437 15.2424L73.0262 15.9249L75.3012 20.7023L75.7561 21.8398V22.7498H75.3012L72.1162 16.8349L72.3437 16.3799L72.7987 17.0624L72.3437 15.2424Z" fill="#E78883"/>
<path d="M84.1736 27.0723H84.6286V27.5273H85.0836L86.4485 29.5747L88.041 30.9397L88.951 31.6222L88.7235 32.3047H89.1785V32.7597L87.8135 32.3047L86.221 30.9397L85.7661 29.5747H85.3111L84.1736 27.5273V27.0723Z" fill="#C54344"/>
<path d="M93.9558 130.583H94.6383V131.038L91.6808 132.175H90.9983V132.63L89.6334 133.313L90.0883 133.768L88.4959 134.223H86.6759L87.3584 133.54L89.1784 133.085L89.6334 132.175L93.9558 130.583Z" fill="#BE3135"/>
<path d="M88.2684 32.9871L90.5433 33.6695L92.5908 34.352L92.8183 35.0345L92.3633 35.4895H90.7708L90.0884 34.5795L88.4959 34.352L88.0409 33.4421L88.2684 32.9871Z" fill="#A42127"/>
<path d="M121.938 108.971L122.165 109.653L120.573 111.701L117.843 115.796L116.25 116.933V116.251L117.615 114.658L119.89 111.473L121.028 110.336L121.938 108.971Z" fill="#C1383B"/>
<path d="M27.7546 40.9492H28.6646L29.1195 42.3142L27.7546 43.4517H25.4796L26.8446 41.6317L27.7546 40.9492Z" fill="#DFC8CA"/>
<path d="M23.4321 108.061H24.7971L25.252 109.426L24.7971 110.336L23.2046 110.563L22.5221 109.881L22.7496 108.743L23.4321 108.061Z" fill="#A42127"/>
<path d="M48.9117 83.0359H50.0492L50.7317 83.7184L50.5042 85.0834L50.0492 85.5383H48.6842L48.2292 84.8559L48.4567 83.2634L48.9117 83.0359Z" fill="#F1EBE9"/>
<path d="M87.8135 83.2637H89.1785L89.6335 83.7187L89.406 85.3111L88.951 85.7661H87.8135L87.3585 85.3111V83.7187L87.8135 83.2637Z" fill="#F2EEEC"/>
<path d="M46.6367 32.532H48.9116L48.0017 33.442L47.0917 33.6695V34.1245H43.9067V33.6695L45.0442 33.442V32.987L46.6367 32.532Z" fill="#DFC4C6"/>
<path d="M87.3583 12.7397L87.5858 13.1947L86.6758 14.7872L85.7659 15.9247H85.3109V15.0147L84.4009 14.7872L84.8559 13.8772L85.7659 13.1947L87.3583 12.7397Z" fill="#C03539"/>
<path d="M50.9591 12.7397L51.8691 12.9672L54.144 14.5597V15.9247L53.2341 16.1522L50.9591 13.1947V12.7397Z" fill="#C94949"/>
<path d="M49.1391 33.2146L49.5941 33.4421L48.6842 34.3521L47.5467 35.0346L47.3192 35.9446H45.4992L43.9067 35.4896L44.5892 35.0346L48.2292 33.6696L49.1391 33.2146Z" fill="#CA4B4B"/>
<path d="M128.535 92.5908L128.763 93.5008L128.308 94.8658L127.625 98.7332L126.033 101.463L125.578 102.373L125.35 101.691L126.488 99.1882L127.398 96.6857L128.308 93.0458L128.535 92.5908Z" fill="#C94647"/>
<path d="M17.2898 106.468H18.4273L18.8823 107.151L18.6548 108.288L17.5173 108.743L16.6073 108.516L16.8348 107.378L17.2898 106.468Z" fill="#A42127"/>
<path d="M50.0491 12.0576L51.1866 12.2851L51.869 12.5126V12.0576L53.0065 12.5126L54.599 13.6501L54.144 14.5601L53.234 14.1051L51.6415 12.9676L50.9591 12.7401L50.7316 13.1951L50.0491 12.0576Z" fill="#E88A86"/>
<path d="M18.1997 102.601H19.3372L19.7922 103.056V104.193L19.3372 104.648H17.9722L17.7448 104.421V103.056L18.1997 102.601Z" fill="#A42127"/>
<path d="M89.8608 149.01H91.2258L92.5908 150.148L92.8183 151.058L91.2258 150.83L90.3158 150.375L89.8608 149.693V149.01Z" fill="#E58480"/>
<path d="M128.99 69.8413L129.445 70.7513V71.8888H129.218V75.9837L128.763 75.7562L128.08 70.2963L128.763 70.5238L128.99 69.8413Z" fill="#BE3437"/>
<path d="M14.3323 106.468L15.4698 107.378L17.0622 109.881L17.7447 110.563V111.018L16.8347 110.563L16.1522 110.336L15.6973 108.971H15.2423L14.3323 107.151V106.468Z" fill="#CA4A4A"/>
<path d="M57.1014 17.5173L58.0114 17.7448H58.6939L60.2864 20.0198L60.0589 20.7023L60.2864 21.6123L59.3764 20.7023L58.9214 19.3373H58.4664L57.1014 17.5173Z" fill="#E88985"/>
<path d="M69.8413 11.6023L70.7513 12.0573L72.3438 14.7872L73.0263 16.6072L72.7988 17.2897L71.4338 15.0147L69.8413 12.0573V11.6023Z" fill="#E3A8A3"/>
<path d="M55.2815 4.77759L56.419 5.23258L57.7839 6.37006L57.329 6.59756L57.1015 7.05255L56.419 6.82505L56.1915 9.10001H55.964L55.2815 4.77759Z" fill="#DEC5BC"/>
<path d="M60.5139 15.47L61.4238 15.6975L61.6513 16.38L61.1964 18.6549L60.2864 17.5174L59.6039 16.38H60.0589V15.925H60.5139V15.47Z" fill="#A42127"/>
<path d="M48.4566 149.01H49.3666L49.1391 150.148L47.5467 151.058H46.4092L46.8642 149.92L48.4566 149.01Z" fill="#E68783"/>
<path d="M48.2292 142.64H48.6842L48.9117 143.323L49.3667 143.095L50.0492 146.735V147.873L49.3667 146.963L48.2292 143.095V142.64Z" fill="#DD7874"/>
<path d="M2.73001 114.203L2.9575 114.658L2.27502 118.07L1.82003 119.89H1.59253V116.933L2.04752 114.885L2.73001 114.203Z" fill="#E3918A"/>
<path d="M25.7071 110.108L26.8445 110.336L27.072 110.563V111.701L26.6171 112.156L25.4796 111.928L25.2521 111.701V110.336L25.7071 110.108Z" fill="#A42127"/>
<path d="M130.128 76.8938H130.355V83.7187L129.9 83.2637L129.673 81.6712V78.4863H129.9L130.128 76.8938Z" fill="#C74A4B"/>
<path d="M22.7496 117.161L23.6596 117.388L28.6645 121.483L29.347 121.938V122.393L28.437 121.938L25.7071 119.663L22.7496 117.388V117.161Z" fill="#BE3236"/>
<path d="M12.0574 90.771L13.1948 91.4535L12.9673 92.591L11.8299 92.8185L11.3749 92.3635L11.6024 90.9985L12.0574 90.771Z" fill="#A42127"/>
<path d="M8.18988 102.828L8.41737 103.511L7.50739 105.331H7.0524L6.5974 106.696H5.91492V106.013L7.96238 103.056L8.18988 102.828Z" fill="#DF7D79"/>
<path d="M55.7365 7.73511H55.964L56.1915 8.87259H56.419V11.6025L56.1915 12.74H55.509L55.7365 7.73511Z" fill="#E1DFD5"/>
<path d="M90.3158 132.403L90.9983 132.63L89.6333 133.313L90.0883 133.768L88.4959 134.223H86.6759L87.3584 133.54L90.3158 132.403Z" fill="#C54143"/>
<path d="M130.583 103.056H131.038L133.313 106.241L133.54 107.151H132.858L132.175 106.241L130.583 103.056Z" fill="#E0847E"/>
<path d="M13.6499 105.331L14.1049 106.013L15.4698 108.971V109.653H15.0148L13.4224 106.468L13.6499 105.331Z" fill="#E4948F"/>
<path d="M6.1424 106.241L6.36989 107.151L5.45991 108.971L4.54993 109.426L4.77742 108.061L5.45991 106.696L6.1424 106.241Z" fill="#E3A5A1"/>
<path d="M15.9247 93.9556L17.0622 94.1831L17.2897 95.093L16.6072 95.7755L15.6972 95.548L15.4697 94.6381L15.9247 93.9556Z" fill="#A42127"/>
<path d="M26.617 44.3616L27.072 44.5891L24.1146 47.319L22.5221 48.684L22.9771 47.774L24.5696 45.954L26.617 44.3616Z" fill="#E78A85"/>
<path d="M95.3207 130.583H95.7757V131.038L94.1832 131.948L91.9083 132.403L90.9983 132.175L95.3207 130.583Z" fill="#C94647"/>
<path d="M89.406 32.532L91.6809 32.987L94.6384 34.3519L93.9559 34.5794L91.6809 33.6695L90.7709 33.442L89.1785 32.987L89.406 32.532Z" fill="#C94647"/>
<path d="M12.5122 66.2012H12.7397L12.9672 68.7036L12.0572 70.2961H11.8297V68.7036L12.5122 66.2012Z" fill="#CB4C4D"/>
<path d="M53.6889 29.3469L54.1439 29.5744L52.3239 31.6219L50.2765 32.9869L49.594 32.7594L52.0964 30.9394L53.6889 29.3469Z" fill="#E17F7B"/>
<path d="M97.8234 36.6272L98.9608 37.0822L98.7333 37.9922L98.5058 38.2197H97.3684L97.1409 37.0822L97.8234 36.6272Z" fill="#A42127"/>
<path d="M56.6465 134.223L58.6939 134.45L61.4239 135.133V135.588L59.6039 135.36L56.6465 134.678V134.223Z" fill="#BF3437"/>
<path d="M98.2783 36.3994L100.553 36.8544L103.283 38.2194L103.511 38.6744L101.463 37.9919L98.2783 36.6269V36.3994Z" fill="#C94647"/>
<path d="M121.938 108.971L122.165 109.653L120.573 111.701L119.663 113.066L119.208 112.383L120.345 111.018L121.255 110.108L121.938 108.971Z" fill="#C43E40"/>
<path d="M10.6924 66.2012H10.9199L11.3749 68.0211L10.9199 68.4761L10.0099 68.7036V67.1112H10.4649L10.6924 66.2012Z" fill="#DFC6C8"/>
<path d="M90.5434 10.0098L91.4534 10.2373L90.3159 10.9197L88.9509 11.6022L88.4959 11.3747L88.2684 10.9197L90.5434 10.0098Z" fill="#E28480"/>
<path d="M89.861 144.005L90.0885 144.687H90.5434L89.861 147.19L89.1785 147.872L89.6335 145.142L89.861 144.005Z" fill="#D76C69"/>
<path d="M53.689 122.848L54.8265 123.075L54.599 124.213L53.689 124.44L53.4615 124.213V123.075L53.689 122.848Z" fill="#A42127"/>
<path d="M84.1735 20.7021H84.401L84.1735 22.9771V25.9346L83.7185 25.7071L83.491 22.7496L84.1735 20.7021Z" fill="#D05E5C"/>
<path d="M32.532 72.344L33.442 72.799L33.2145 73.709L32.3045 73.9365L31.8495 73.0265L32.532 72.344Z" fill="#BE3135"/>
<path d="M48.684 40.4944H49.8215L50.049 41.1769L49.3665 41.8594H48.4565L48.684 40.4944Z" fill="#BE3135"/>
<path d="M90.3159 141.275H90.5434L90.7709 142.867L90.9984 143.55L90.5434 144.687H90.0884V142.64L90.3159 141.275Z" fill="#E07D79"/>
<path d="M116.023 116.706V117.388L113.065 120.346L113.293 119.436L114.43 118.298L116.023 116.706Z" fill="#BF3337"/>
<path d="M88.4958 31.6218L89.8608 31.8493L91.6808 32.5318V32.7593H89.1783V32.3043H88.7233L88.4958 31.6218Z" fill="#CA5252"/>
<path d="M72.7986 29.3469L73.7086 29.5744V30.7119L72.7986 30.9394L72.3436 30.4844L72.5711 29.5744L72.7986 29.3469Z" fill="#A42127"/>
<path d="M80.7611 20.0198H81.8985L82.126 20.7023L81.671 21.3848L80.7611 21.1573L80.5336 20.2473L80.7611 20.0198Z" fill="#A42127"/>
<path d="M62.5615 135.588L66.2014 136.043V136.27H62.334L62.5615 135.588Z" fill="#C13D3F"/>
<path d="M110.335 122.166H110.79L110.335 123.076L107.606 124.668L107.151 124.44L109.653 122.848L110.335 122.166Z" fill="#C94647"/>
<path d="M87.586 12.0576H88.2685L88.041 13.1951L87.3585 13.8776V12.9676L86.2211 13.1951L86.9036 12.5126L87.586 12.0576Z" fill="#CA4B4B"/>
<path d="M48.4567 118.298H49.5942V118.981L48.9117 119.208V119.663L48.2292 119.436L48.4567 118.298Z" fill="#A42127"/>
<path d="M112.611 74.3914L113.52 74.8463L113.293 75.5288H112.838V75.9838H112.383L112.156 74.8463L112.611 74.3914Z" fill="#A42127"/>
<path d="M128.99 71.6614L129.673 71.8889L129.9 74.1638L129.673 73.4813L128.99 73.7088V71.6614Z" fill="#C44546"/>
<path d="M52.7791 32.3044L53.6891 32.5319V33.4419L52.7791 33.6694L52.3241 32.7594L52.7791 32.3044Z" fill="#A42127"/>
<path d="M21.3845 46.8643L21.8395 47.0918L21.1571 48.4567L20.2471 48.6842V47.7742L21.3845 46.8643Z" fill="#E0CACD"/>
<path d="M89.406 32.9871L91.4535 33.2146L92.136 34.1245L89.6335 33.6695L89.406 32.9871Z" fill="#BE3135"/>
</svg>
