<svg width="115" height="164" viewBox="0 0 115 164" fill="none" xmlns="http://www.w3.org/2000/svg">
<path d="M61.8738 0H64.6339L66.9341 0.920056L68.7742 2.30014L69.6943 3.45021L70.1543 4.37027V6.44039L68.5442 8.28051L66.9341 9.8906L65.324 12.1907L63.2539 16.101L62.1038 19.5512L61.4137 24.3815L64.6339 23.9215H73.1445L76.1346 24.3815L77.5147 25.0715L81.655 25.7616L86.2553 27.1417L90.6255 28.9818L94.3057 30.8219L98.446 33.352L104.426 37.2623L108.107 39.3324L111.327 40.9425L111.557 42.0926L108.337 43.7027L105.116 44.3927H101.896V44.8527L102.816 45.3128L105.576 48.3029L108.337 52.2132L111.097 57.5035L112.937 62.5638L114.087 67.8541L114.547 72.2244V75.6746L114.087 80.5049L112.937 86.4853L111.327 92.0056L109.487 97.0659L107.417 101.666L105.576 105.346L105.806 106.496L107.877 110.407L109.947 115.927L111.327 121.217L112.017 125.128V130.878L111.327 133.178L110.407 134.558L109.257 135.478L108.337 135.938H106.036L104.426 135.018L103.276 133.638V133.178H101.896L100.746 132.028L100.286 129.728L100.746 126.968L99.136 122.367L97.5259 119.147L96.3759 120.297L93.3857 124.208L91.3156 126.738L88.7854 129.728L85.3352 133.408L81.425 137.088L78.8948 139.158L78.4348 145.369L77.5147 151.349L76.3647 156.64L77.7447 157.1L79.1248 158.25L80.0449 159.86V161.7L78.8948 163.08L77.2847 163.77L75.9046 164H71.9944L68.0842 163.31L66.244 162.39L65.324 161.47L65.094 160.78L64.864 153.189L64.1739 147.209L61.6438 147.899L60.2637 148.129H54.2833L50.6031 147.439L49.913 152.269L49.453 161.24L48.533 162.39L46.6928 163.31L43.2426 164H38.8724L36.5722 163.54L35.1921 162.62L34.7321 161.93V159.86L35.8822 158.02L37.9523 156.64H38.4123L37.0323 150.659L36.1122 144.449L35.8822 141.919V138.928L34.9621 138.468L32.432 136.398L28.9818 133.178L26.2216 130.418L24.6115 128.578L21.8513 125.358L18.4011 120.757L17.2511 119.147L16.331 120.527L14.4909 125.128L14.0309 126.738L14.2609 128.578V131.338L13.5708 132.718L12.8808 133.178L11.2707 133.638L9.66059 135.478L8.51052 135.938H6.21038L4.37027 134.788L3.2202 132.948L2.76017 131.568L2.53015 129.728V126.738L3.45021 120.757L5.06031 115.237L6.44039 111.557L8.51052 107.187L8.97055 106.496L8.74053 105.346L6.21038 100.286L3.68022 93.8457L2.07013 88.7854L0.690042 82.805L0 77.5147V70.3843L0.690042 65.554L2.30014 59.8036L4.37027 55.2034L6.44039 51.5231L8.74053 48.3029L11.5007 45.3128L13.8008 43.0126L15.1809 41.8626L11.5007 41.1725L8.05049 39.7924L5.75035 38.1823L5.06031 37.4923L5.29032 36.5722L7.36045 35.8822L11.7307 34.2721L16.101 32.202L20.4712 29.9018L24.8415 27.8317L29.9018 25.9916L36.5722 24.3815L42.0926 23.6914H47.8429L51.7532 24.1515L53.1332 24.3815V19.5512L53.8233 14.7209L55.2034 9.8906L56.3534 7.13043L57.9635 4.14025L60.2637 1.15007L61.8738 0Z" fill="#E34B3F"/>
<path d="M61.8738 0H64.6339L66.9341 0.920056L68.7742 2.30014L69.6943 3.45021L70.1543 4.37027V6.44039L68.5442 8.28051L66.9341 9.8906L65.324 12.1907L63.2539 16.101L62.1038 19.5512L61.4137 24.3815L64.6339 23.9215H73.1445L76.1346 24.3815L77.5147 25.0715L81.655 25.7616L86.2553 27.1417L90.6255 28.9818L94.3057 30.8219L98.446 33.352L104.426 37.2623L108.107 39.3324L111.327 40.9425L111.557 42.0926L108.337 43.7027L105.116 44.3927H101.896V44.8527L102.816 45.3128L105.576 48.3029L108.337 52.2132L111.097 57.5035L112.937 62.5638L114.087 67.8541L114.547 72.2244V75.6746L114.087 80.5049L112.937 86.4853L111.327 92.0056L109.487 97.0659L107.417 101.666L105.576 105.346L105.806 106.496L107.877 110.407L109.947 115.927L111.327 121.217L112.017 125.128V130.878L111.327 133.178L110.407 134.558L109.257 135.478L108.337 135.938H106.036L104.426 135.018L103.276 133.638V133.178H101.896L100.746 132.028L100.286 129.728L100.746 126.968L99.136 122.367L97.5259 119.147L96.3759 120.297L93.3857 124.208L91.3156 126.738L88.7854 129.728L85.3352 133.408L81.425 137.088L78.8948 139.158L78.4348 145.369L77.5147 151.349L76.3647 156.64L77.7447 157.1L79.1248 158.25L80.0449 159.86V161.7L78.8948 163.08L77.2847 163.77L75.9046 164H71.9944L68.0842 163.31L66.244 162.39L65.324 161.47L65.094 160.78L64.864 153.189L64.1739 147.209L61.6438 147.899L60.2637 148.129H54.2833L50.6031 147.439L49.913 152.269L49.453 161.24L48.533 162.39L46.6928 163.31L43.2426 164H38.8724L36.5722 163.54L35.1921 162.62L34.7321 161.93V159.86L35.8822 158.02L37.9523 156.64H38.4123L37.0323 150.659L36.1122 144.449L35.8822 141.919V138.928L34.9621 138.468L32.432 136.398L28.9818 133.178L26.2216 130.418L24.6115 128.578L21.8513 125.358L18.4011 120.757L17.2511 119.147L16.331 120.527L14.4909 125.128L14.0309 126.738L14.2609 128.578V131.338L13.5708 132.718L12.8808 133.178L11.2707 133.638L9.66059 135.478L8.51052 135.938H6.21038L4.37027 134.788L3.2202 132.948L2.76017 131.568L2.53015 129.728V126.738L3.45021 120.757L5.06031 115.237L6.44039 111.557L8.51052 107.187L8.97055 106.496L8.74053 105.346L6.21038 100.286L3.68022 93.8457L2.07013 88.7854L0.690042 82.805L0 77.5147V70.3843L0.690042 65.554L2.30014 59.8036L4.37027 55.2034L6.44039 51.5231L8.74053 48.3029L11.5007 45.3128L13.8008 43.0126L15.1809 41.8626L11.5007 41.1725L8.05049 39.7924L5.75035 38.1823L5.06031 37.4923L5.29032 36.5722L7.36045 35.8822L11.7307 34.2721L16.101 32.202L20.4712 29.9018L24.8415 27.8317L29.9018 25.9916L36.5722 24.3815L42.0926 23.6914H47.8429L51.7532 24.1515L53.1332 24.3815V19.5512L53.8233 14.7209L55.2034 9.8906L56.3534 7.13043L57.9635 4.14025L60.2637 1.15007L61.8738 0ZM46.6928 40.9425L43.2426 43.2426L39.7924 45.0827L35.6522 46.4628L30.5919 47.6129L28.9818 47.8429H21.1613L17.7111 47.3829L17.9411 46.2328L21.1613 43.4727L23.2314 41.6325V41.1725L21.3913 41.4025L17.9411 41.6325L16.791 42.7826L13.5708 45.5428L11.2707 47.8429L8.51052 51.5231L6.67041 54.5133L4.83029 58.1936L3.2202 62.3338L2.30014 66.014L1.6101 70.6143V75.9046L2.07013 80.5049L3.2202 86.2553L4.83029 92.0056L7.13043 97.986L9.8906 103.966L12.8808 109.257L15.641 113.857L17.4811 116.617L19.7812 119.837L23.0014 123.978L25.5316 126.968L27.6017 129.268L30.5919 132.488L32.432 134.098L34.9621 136.398L38.8724 139.389L43.7027 142.609L48.0729 144.679L52.4432 146.059L55.2034 146.519H59.3436L63.9439 145.599L66.7041 144.449L68.3142 143.759L70.6143 142.609L74.0645 140.539L77.2847 138.238L79.8149 136.168V135.708L80.7349 135.248L81.425 134.788V134.328L82.345 133.868L87.8654 128.348L89.9355 125.818L93.1557 121.907L94.5358 119.837V119.377H94.9958L96.1459 117.767V117.077H96.6059V116.387H97.0659L98.446 114.317V113.627H98.906L99.5961 112.477V111.787H100.056L100.286 110.637H100.746L101.896 108.567L103.276 106.036L105.346 102.126L106.727 99.3661L107.647 96.8359L108.797 94.0757L110.867 87.6353L111.787 83.9551L112.707 77.5147V70.6143L112.017 66.014L110.867 61.6438L109.027 57.0435L107.187 53.5933L104.426 49.683L102.356 47.3829L100.976 45.7728L98.906 44.1627L92.4656 42.5526L92.9257 43.4727L94.9958 45.5428L97.2959 47.3829V48.3029L95.4558 48.763L93.3857 48.993L87.6353 48.763L82.115 47.8429L76.5947 46.0028L71.7644 43.4727L68.5442 40.9425L68.0842 41.1725L66.7041 44.8527L64.4039 48.533L62.3338 50.8331L58.8836 54.2833L58.6536 55.2034L58.4236 54.5133L56.5835 54.7433L55.4334 54.0533L53.8233 52.2132L51.0631 48.993L49.453 46.4628L47.8429 43.0126L47.1529 40.9425H46.6928Z" fill="#5C2012"/>
<path d="M68.3141 40.9424L70.1543 42.3225L73.3744 44.3926L77.7447 46.4627L82.115 47.8428L87.6353 48.7629L93.3857 48.9929L96.8359 48.5328L97.2959 48.3028L97.0659 47.1528L94.0757 44.6226L92.4656 43.0125V42.5525L94.9958 43.2425L98.906 44.1626L101.436 46.2327L103.966 48.9929L107.187 53.5932L109.257 57.5034L111.097 62.3337L112.247 67.164L112.707 70.6142V77.5146L111.787 83.955L110.867 87.6352L108.337 95.2257L107.187 97.9859L106.266 100.056L103.046 106.496L100.746 110.637H100.286L100.056 111.787H99.596L99.366 112.707L98.906 113.627H98.446L98.216 114.547L97.0659 116.387H96.6059V117.077H96.1458L95.9158 117.997L94.9958 119.377H94.5357L94.0757 120.527L91.7756 123.517L88.5554 127.428L86.0252 130.188L81.885 134.328H81.4249L81.1949 135.018L80.2749 135.708H79.8148L79.3548 136.628L75.4446 139.618L72.6844 141.459L70.6143 142.609L67.6241 144.219L64.1739 145.369L63.0238 145.829L59.3436 146.519H55.2033L51.5231 145.829L47.6129 144.449L43.2426 142.379L43.4726 141.919L41.4025 140.538L39.7924 139.158L38.1823 138.238L36.1122 136.398L34.5021 134.558V134.098L36.1122 134.328L37.9523 135.018L41.1725 135.478L41.8625 135.248L42.7826 132.948L43.4726 132.488H45.0827L45.5427 132.948L43.7026 133.178V136.168L44.6227 137.778V138.238L46.6928 138.698V138.238L47.3829 137.548V134.788L50.143 135.018L52.2132 134.558L56.8134 133.868L58.6535 132.718L59.8036 132.258H60.4937V131.798L62.1038 130.878L63.4838 130.188H63.9439V129.728L65.0939 129.038L67.6241 127.428L69.6942 125.588L70.8443 124.897L72.4544 123.517L73.6045 122.367H74.0645V121.907L75.9046 120.297L77.5147 118.457L80.0449 115.927H80.5049L80.9649 115.007L81.885 114.547V114.087L83.035 112.937L84.4151 111.327L85.1052 110.177L85.5652 109.947L85.7952 109.257H86.2552V108.567H86.7153L86.9453 107.646H87.4053L87.8653 106.496L88.7854 104.656L89.9355 103.736L91.5456 103.046L92.4656 101.436L92.6956 100.516V98.6759L92.4656 96.6058H92.9256L93.1557 95.4557L94.7658 92.9256L96.3759 89.7054L98.446 85.3351L99.136 82.8049L99.366 79.3547L100.516 73.8344L100.976 68.7741L101.206 67.854V63.9438L101.666 62.3337L101.436 61.1836L100.516 57.5034L100.056 56.8134L99.596 54.0532L99.136 54.5132L98.446 53.1331L97.986 52.6731H96.3759L95.4558 53.5932V56.1233L96.1458 57.5034V57.9634L97.986 58.4234L97.0659 59.3435L95.9158 58.8835L94.7658 57.5034L94.3057 56.5833V53.3631L94.9958 52.2131L95.6858 51.9831V51.523L92.4656 51.753H86.2552L82.115 51.063L78.4348 49.9129L74.5245 48.0728L70.8443 45.7727L69.9242 45.3126L69.6942 46.2327L67.6241 49.9129L65.784 52.2131L62.5638 55.4333L59.3436 57.5034L58.4235 57.7334L57.7335 57.2734L58.4235 56.8134L58.8836 55.4333L59.1136 53.8232L61.8737 51.293L63.9439 49.2229L66.244 45.5427L67.3941 43.2425L68.3141 40.9424Z" fill="#C7302B"/>
<path d="M41.8626 25.3015H48.073L53.1333 25.9916V27.3716H52.4433V27.8317L54.5134 28.2917L56.8135 29.4418L58.1936 29.2118L60.4938 28.2917L62.1039 28.0617L61.1838 27.1416L61.4138 25.9916L64.404 25.5315L67.3942 25.3015H69.6943L75.4447 25.7615L76.5947 26.4516L82.5751 27.6017L87.4054 29.2118L93.1558 31.9719L98.4461 35.1921L103.736 38.6423L107.417 40.7125L108.797 41.4025L108.107 42.0925L105.116 42.7826H99.3661L94.7659 41.8625L89.9356 40.0224L87.6354 37.4923L86.0253 35.6521L83.7252 33.582L80.505 31.5119L77.5148 30.1318L75.2147 29.4418H72.4545L74.9846 30.1318L77.5148 31.2819L79.5849 32.2019V32.662L80.735 33.122L83.4952 35.1921L87.4054 39.1024L89.4755 41.6325L92.6957 45.0827L94.9959 47.1528V47.3829L93.6158 47.6129H89.7056L85.7953 47.1528L80.045 45.7728L76.3647 44.3927L72.9145 42.5526L69.9243 40.4824L68.5443 39.3324L67.8542 36.5722L67.1642 35.8822V39.3324L66.0141 43.0126L64.404 46.0028L62.3339 48.7629L60.2638 51.0631L57.5036 53.3632L56.5835 52.9032L53.5933 49.913L52.6733 48.7629V48.3029H52.2133L50.8332 46.2328L49.2231 43.0126L48.533 40.9425L48.073 38.4123L47.843 35.4221L47.153 36.8022L46.6929 39.3324L42.5527 42.0925L38.8724 43.9326L34.0422 45.5427L28.9818 46.4628H21.3914L20.2413 46.2328L21.3914 45.0827L23.2315 43.4726L27.1417 39.5624L28.7518 37.7223L31.512 34.9621L34.7322 32.662L38.6424 30.5918L41.4026 29.6718L42.5527 29.4418H40.2525L36.8023 30.3618L33.1221 32.2019L29.9019 34.7321L25.3016 39.3324L21.3914 40.0224L19.0912 40.2524H16.7911L12.8809 39.7924L9.43065 38.6423L7.82056 37.7223L8.05057 37.2622L11.0408 36.3422L14.491 34.7321L18.1712 32.892L21.3914 31.0519L24.6116 29.6718L26.9117 28.7517L29.9019 27.6017L33.8121 26.6816L35.6523 26.2216L40.0225 25.5315L41.8626 25.3015Z" fill="#A6BC50"/>
<path d="M75.9047 75.2146H77.9748L79.815 75.9046L81.8851 77.7448L83.0351 79.5849L83.7252 81.655L84.1852 84.8752L83.9552 88.3254L83.2652 90.6255L81.8851 93.1557L80.275 94.7658L78.4349 95.6858H75.2147L72.9145 94.3058L71.0744 92.0056L70.1544 89.4755L69.6943 86.7153V83.9551L70.6144 80.2749L71.9945 77.7448L74.0646 75.9046L75.9047 75.2146Z" fill="#571C10"/>
<path d="M35.8822 75.2146H38.4124L40.7125 76.3647L42.5526 78.4348L43.4727 80.2749L44.1627 82.575L44.3927 86.2553L43.9327 89.4755L42.7826 92.2356L41.1725 94.3058L38.8724 95.6859L36.8023 95.9159L34.7322 95.2258L33.3521 94.3058L31.512 92.2356L30.5919 90.1655L29.9019 86.2553L30.1319 82.575L31.0519 79.8149L32.202 77.7448L33.5821 76.3647H34.0421V75.9046L35.8822 75.2146Z" fill="#571C10"/>
<path d="M104.426 107.417L105.346 108.337L107.417 112.937L109.257 118.687L110.407 124.438L110.637 126.738V129.498L109.947 132.258L109.257 133.638L108.337 134.328H106.267L104.656 132.948L103.966 131.568H102.356L101.896 130.878V129.038L102.356 127.658L102.126 126.048L100.516 121.677L98.446 117.767L98.6761 116.617L100.976 113.167L103.966 108.107L104.426 107.417Z" fill="#E34B3F"/>
<path d="M9.89061 107.876H10.3506L13.1108 112.707L16.101 117.307L15.871 118.457L14.0309 121.907L12.4208 126.508L12.8808 130.648L12.1907 131.798L10.8107 131.338L9.66059 133.408L8.28051 134.328L6.90043 134.558L5.29033 133.638L4.60029 132.028L4.14026 130.188V125.588L5.06031 120.527L6.67041 115.007L7.36046 113.167L8.97055 109.257L9.89061 107.876Z" fill="#E34B3F"/>
<path d="M17.9411 41.6326H20.7013L19.5512 42.7826L17.4811 44.3927L14.0309 47.8429L11.9607 50.3731L10.3506 52.6732L7.59047 57.7336L5.29033 63.4839L4.37028 68.0842L4.14026 69.9243V78.8948L4.8303 83.4951L6.4404 90.3955L8.0505 95.2258L9.89061 100.056L13.1108 106.727L16.331 112.247L19.5512 117.307L23.6915 122.828L25.3016 124.898L27.3717 127.198L29.9018 130.188L35.6522 135.938L38.1823 138.008L40.7125 139.619L42.5526 141.229L43.7027 141.919L43.0126 142.149L39.5624 139.849L35.8822 137.088L32.432 134.098L28.7518 130.648L27.1417 128.808L24.6115 126.048L22.0814 122.828L19.7812 119.837L16.791 115.697L13.5708 110.407L11.2707 106.497L9.20057 102.586L6.4404 96.3759L4.37028 90.6256L2.76018 84.4152L1.84012 78.8948L1.61011 75.9047V70.6143L2.53016 64.864L3.68023 60.9537L5.75036 56.1235L7.59047 52.9033L9.89061 49.6831L11.9607 47.1529L14.4909 44.6228L17.021 42.5526L17.9411 41.6326Z" fill="#F0C9C1"/>
<path d="M108.107 56.1235H108.567L110.637 60.9538L111.787 64.8641L112.477 68.5443L112.707 70.6144V77.5148L111.787 83.9552L110.867 87.6355L108.337 95.2259L107.187 97.9861L106.266 100.056L103.046 106.497L100.746 110.637H100.286L100.056 111.787H99.5961L99.3661 112.707L98.906 113.627H98.446L98.216 114.547L97.0659 116.387H96.6059V117.077H96.1459L95.9158 117.997L94.9958 119.377H94.5358L94.0757 120.527L91.7756 123.518L88.5554 127.428L86.0252 130.188L81.885 134.328H81.425L81.1949 135.018L80.2749 135.708H79.8149L79.3548 136.628L75.4446 139.619L72.6844 141.459L70.6143 142.609L67.6241 144.219L64.1739 145.369L63.0238 145.829L59.3436 146.519H55.2034L53.5933 146.289V145.829L54.0533 145.599L58.4236 145.369L61.8738 144.679L65.324 143.529L69.0042 141.689L72.9144 139.389L76.1346 136.628L79.5848 133.868L83.2651 130.188L84.8752 128.348L87.4053 125.588L87.6353 125.128H88.0954L88.5554 124.208L91.7756 120.067L94.0757 117.077L95.6858 114.547L99.3661 109.027L101.666 104.887L103.966 100.516L105.806 96.606L108.107 90.1656L109.487 85.7953L110.407 80.965L111.097 75.9047V70.1544L110.407 65.3241L109.717 61.8739L108.567 57.7336L108.107 56.1235Z" fill="#D55F54"/>
<path d="M76.8246 140.539H77.2846L76.8246 145.829L75.6745 152.729L74.5245 156.87V157.33L77.2846 158.71L78.2047 159.86L78.4347 161.24L77.7447 161.93L77.0546 162.16L74.5245 162.39H71.9943L68.5441 161.7L67.164 161.01L66.704 160.32V157.79L66.244 151.579L65.7839 147.669V146.519L68.5441 145.369L73.8344 142.609L76.8246 140.539Z" fill="#E34B3F"/>
<path d="M37.4924 140.539L39.1025 141.459L42.3227 143.529L46.6929 145.829L48.9931 146.749L48.303 152.729L47.843 160.55L46.6929 161.47L44.3928 162.16L42.7827 162.39H39.7925L37.0323 161.93L36.3423 161.47V160.09L37.4924 158.71L39.1025 157.79L40.2525 157.56L38.6424 151.119L37.7224 145.599L37.4924 142.839V140.539Z" fill="#E34B3F"/>
<path d="M62.3338 1.61011H64.4039L66.474 2.30015L66.704 3.91025L65.784 5.75036L62.5638 10.1206L60.2637 14.4909L58.4235 20.0112L57.2735 25.3016L56.3534 26.4516H54.5133V22.0814L54.9733 17.4811H55.4334V15.871L56.3534 11.5007L57.7335 8.28051L58.4235 6.4404L60.2637 3.91025L61.8738 2.07014L62.3338 1.61011Z" fill="#946B3B"/>
<path d="M27.6017 94.7659H31.972L34.0421 95.4559L35.4222 96.606L35.8822 97.526L35.6522 99.3661L34.2721 100.516L31.2819 101.436H28.2917L26.6816 100.976L26.4516 102.356L25.5316 103.506L25.0715 103.736H23.6915L22.5414 102.586L23.6915 102.816H25.3016L25.7616 102.356L25.9916 100.746L25.5316 100.516L24.6115 102.126L23.6915 101.896L23.2314 100.746V98.4461L24.1515 96.606L25.3016 95.6859L27.6017 94.7659Z" fill="#F18C81"/>
<path d="M82.5751 94.7659H86.4853L89.0155 95.6859L90.1655 96.606L90.8556 98.6761V100.976L90.1655 102.126L89.2455 101.896L88.7854 101.206V100.516L86.9453 101.206L85.5652 101.436H82.5751L80.2749 100.746L78.6648 99.3661L78.4348 98.9061V97.526L79.3549 96.146L80.735 95.2259L82.5751 94.7659Z" fill="#F18D82"/>
<path d="M46.6929 40.9424H47.1529L48.533 44.6226L50.1431 47.6128L52.4432 50.603L54.9734 53.3631L55.2034 53.5932L55.6634 56.8133L55.2034 56.5833V56.1233L54.0533 55.6633L51.7532 53.3631L49.9131 51.063L47.843 47.6128L46.6929 45.0826V44.3926L42.5526 46.6927L39.1024 48.0728L37.4923 48.5328H35.8822V47.8428L35.1922 48.3028L34.2721 49.2229L33.1221 49.6829L31.972 49.4529V48.9929L29.9019 48.5328V48.0728L28.9818 47.8428L32.8921 47.1528L37.9524 45.7727L41.6326 44.1626L45.0828 42.0925L46.6929 40.9424Z" fill="#C7302B"/>
<path d="M76.8246 140.539H77.2846L76.8246 145.829H76.5946L76.3646 144.679L73.1444 146.979L68.3141 149.739L67.8541 151.119V156.18L68.0841 158.48L69.0041 159.86L71.5343 160.78L73.1444 161.01H78.2047L78.4347 160.32L78.2047 161.47L77.0546 162.16L74.5245 162.39H71.9943L68.5441 161.7L67.164 161.01L66.704 160.32V157.79L66.244 151.579L65.7839 147.669V146.519L68.5441 145.369L73.8344 142.609L76.8246 140.539Z" fill="#C7302B"/>
<path d="M37.4924 140.539L39.1025 141.459L42.3227 143.529L46.6929 145.829L48.9931 146.749L48.303 152.729L47.843 160.55L46.6929 161.47L44.3928 162.16L42.7827 162.39H39.7925L37.0323 161.93L36.3423 161.47L36.5723 161.01L37.7224 161.47L37.9524 160.78L42.0926 161.01L45.0828 160.32L46.4629 159.17L46.9229 157.56V149.969L43.2427 148.129L40.2525 146.289L38.1824 144.449L37.9524 145.599H37.7224L37.4924 142.839V140.539Z" fill="#C7302B"/>
<path d="M41.8626 25.3015H48.0729L52.9032 25.9916V26.9116L49.683 26.6816H42.5526L40.9425 26.9116H38.8724V27.3716L34.2721 28.0617L30.1318 29.2118L26.4516 31.0519L24.3815 31.9719L22.7714 33.122L20.7013 33.582L15.4109 36.3422L12.1907 37.4923H9.20056L9.43058 36.8022L12.6508 35.6521L16.331 33.812L21.1613 31.2819L24.8415 29.4418L27.6017 28.5217L29.9018 27.6017L33.8121 26.6816L35.6522 26.2216L40.0224 25.5315L41.8626 25.3015Z" fill="#CBD981"/>
<path d="M79.1249 30.5918L81.195 31.0518L84.8752 33.122L89.2455 36.3421L94.0758 38.4123L98.4461 39.7924L100.976 40.2524L106.957 40.4824L108.797 41.4025L108.107 42.0925L105.116 42.7825H99.3661L94.7658 41.8625L89.9355 40.0224L87.6354 37.4922L86.0253 35.6521L83.7252 33.582L80.505 31.5119L79.1249 30.8218V30.5918Z" fill="#768B34"/>
<path d="M47.1529 35.8823L47.3829 36.3424L46.6928 39.3325L42.5526 42.0927L38.8723 43.9328L34.0421 45.5429L28.9817 46.463H21.3913L20.2412 46.233L21.3913 45.0829L21.6213 45.5429L28.2917 44.6229L33.582 43.2428L38.1823 41.4027L42.5526 39.1025L46.0028 36.8024L47.1529 35.8823Z" fill="#768C34"/>
<path d="M65.784 5.29028L66.244 6.21034L67.3941 6.67037L66.474 8.05045L64.8639 9.89056L62.3337 14.2608L61.1837 16.561H60.4936L60.7237 18.1711L60.0336 22.0813L59.8036 27.3716L57.5035 28.2917L56.3534 28.0617L54.7433 27.3716V26.4516L56.3534 26.2216L57.0434 25.3015L58.4235 19.0911L60.0336 14.4908L62.3337 10.1206L65.5539 5.75031L65.784 5.29028Z" fill="#82261C"/>
<path d="M42.5526 29.4417H44.1627L44.3927 29.9017L40.9425 31.0517L39.1024 31.5118V31.9718L35.8822 33.8119V34.502L36.5722 34.962V35.882L34.7321 37.4921L33.5821 37.9522L33.122 38.8722L31.742 38.6422L30.8219 37.9522L25.9916 42.7825L23.4614 44.8526L22.0814 45.5426H21.6213L22.0814 44.6226L27.1417 39.5623L28.7518 37.7222L31.5119 34.962L34.7321 32.6618L38.6424 30.5917L41.4025 29.6717L42.5526 29.4417Z" fill="#CEDC84"/>
<path d="M104.426 107.417L105.346 108.337L104.886 110.637L101.896 117.997L101.666 120.067L103.506 126.738L103.966 130.878V131.568H102.356L101.896 130.878V129.038L102.356 127.658L102.126 126.048L100.516 121.677L98.446 117.767L98.6761 116.617L100.976 113.167L103.966 108.107L104.426 107.417Z" fill="#C7302B"/>
<path d="M68.3142 37.0322L70.1543 38.4123L73.1445 40.4824L76.8247 42.3225L80.0449 43.7026L85.3352 45.0827L89.9355 46.0028L93.3857 46.4628L93.8458 46.6928L94.0758 46.2328L94.9958 47.3829L93.6158 47.6129H89.7055L85.7953 47.1528L80.0449 45.7728L76.3647 44.3927L72.9145 42.5526L69.9243 40.4824L68.5442 39.3324L68.3142 37.0322Z" fill="#768C34"/>
<path d="M22.0814 41.1726H23.2314L22.7714 42.0927L20.2413 44.3928L17.9411 46.2329L17.7111 47.383L21.1613 47.843L29.9018 48.073V48.5331L31.972 48.9931V49.4531L33.122 49.6831V50.1432L28.2918 50.6032H25.3016L21.1613 50.1432L18.1711 49.2231L17.0211 48.5331V48.073H16.561L16.791 46.6929V46.0029L17.2511 44.8528L19.0912 43.2427L20.2413 42.0927L21.3913 41.4026L22.0814 41.1726Z" fill="#E24A3E"/>
<path d="M28.7518 34.7319L29.6719 34.9619L25.3016 39.3322L21.3914 40.0223L19.0912 40.2523H16.7911L12.8808 39.7922L9.43062 38.6422L8.05054 37.9521V37.7221H17.0211L20.7013 37.2621L24.6115 36.342L28.7518 34.7319Z" fill="#768C34"/>
<path d="M9.89057 107.876H10.3506L13.1108 112.707L16.1009 117.307L15.8709 118.457L14.0308 121.907L12.4207 126.508L12.8808 130.648L12.1907 131.798L10.8106 131.338L10.5806 130.878L11.0406 129.498L11.5007 125.818L12.8808 120.757V118.457L11.5007 114.777L9.89057 110.867V108.797L9.43054 108.567L9.89057 107.876Z" fill="#C7302B"/>
<path d="M65.7841 33.3521L66.4741 33.5821L67.6242 35.4222V35.8822H67.1641V39.3324L66.0141 43.0126L64.404 46.0028L62.3338 48.763L60.2637 51.0631L57.5036 53.3633L56.5835 52.9032L57.2735 51.5232L59.3437 49.223L63.4839 43.0126L64.634 40.2525L65.554 36.5722L65.7841 33.3521Z" fill="#768C34"/>
<path d="M22.0813 69.0042L24.1514 69.2342L25.3015 70.1542L25.7615 71.3043V74.5245H25.3015L24.8415 75.6746L23.6914 76.5946H22.0813L20.9313 75.6746L20.2412 74.2945V71.0743H20.7012L21.1613 69.6942L22.0813 69.0042Z" fill="#6A2517"/>
<path d="M36.5722 49.9131L38.1823 50.1431L39.3324 51.2932L39.7924 52.2132V54.7434L38.6424 56.5835L38.1823 57.2735L35.8822 57.5035L34.5021 55.8935L34.2721 54.7434V52.6733L34.5021 51.9832H34.9621L35.4222 50.6031L36.5722 49.9131Z" fill="#842A1E"/>
<path d="M73.8345 78.2048H75.4446L76.5947 79.3549L77.0547 80.505V82.5751L76.3647 84.4152L75.4446 85.3353L73.8345 85.5653L72.6844 84.8752L71.9944 83.2651V80.505L72.6844 79.1249L73.8345 78.2048Z" fill="#F4F3F3"/>
<path d="M33.812 78.2048H35.6521L36.8022 79.3549L37.2622 80.965L37.0322 83.0351L36.1121 84.8752L34.9621 85.5653L33.352 85.3353L32.4319 84.1852L32.2019 83.4952V80.505L32.8919 79.1249L33.812 78.2048Z" fill="#F4F3F4"/>
<path d="M16.331 51.7532L17.7111 51.9832L18.8612 53.5933L19.0912 54.2833V56.5835L18.4012 56.8135L17.9411 58.4236L17.2511 58.8836H15.641L14.9509 58.6536L14.0309 56.5835V54.2833L14.7209 52.6732L16.331 51.7532Z" fill="#842B1F"/>
<path d="M71.7644 29.6719L74.2946 29.9019L77.2847 31.052L79.5849 32.202V32.6621L80.735 33.1221L83.4951 35.1922L87.4054 39.1025L89.4755 41.6326L92.6957 45.0828L93.3857 46.2329L92.2357 45.7729L89.9355 43.7027L86.9453 40.7125L85.3352 38.8724L82.5751 36.1123L79.1249 33.5821L74.9846 31.282L71.7644 29.9019V29.6719Z" fill="#CDDB83"/>
<path d="M9.43058 108.797H9.89061L9.43058 111.097L6.90043 118.687L5.75036 123.978L5.29033 127.198L5.06031 132.488L4.60029 132.028L4.14026 130.188V125.588L5.06031 120.527L6.67041 115.007L7.36046 113.167L8.97055 109.257L9.43058 108.797Z" fill="#E87C70"/>
<path d="M105.116 108.567L105.806 109.257L107.646 113.627L109.487 119.607L110.407 124.438L110.637 126.738V129.498L109.947 132.258L109.257 132.948L109.487 130.878V127.658L108.567 121.447L107.186 116.387L105.116 110.177V108.567Z" fill="#EB7F73"/>
<path d="M48.7629 34.9622L49.2229 35.1922L49.913 39.7925L51.7531 44.6227L54.0532 48.533L56.3534 51.5232L56.5834 52.4432L55.6633 52.2132L54.0532 50.3731L52.6732 48.763V48.303H52.2131L50.833 46.2328L49.2229 43.0126L48.5329 40.9425L48.0729 38.4124V35.4222L48.7629 34.9622Z" fill="#CCD982"/>
<path d="M41.8625 25.3015H48.0729L52.9032 25.9916V26.9116L49.683 26.6816H42.5526L40.9425 26.9116H38.8723V27.3716L35.4221 27.8317H33.122L32.892 27.3716L34.2721 26.4516L37.9523 25.7615L41.8625 25.3015Z" fill="#CCDA82"/>
<path d="M67.3941 25.3015H69.6942L75.4446 25.7615L76.5947 26.4516V26.6816L69.9242 26.9116L63.0238 28.0617H62.1038L61.1837 27.1416L61.4137 25.9916L64.4039 25.5315L67.3941 25.3015Z" fill="#768B34"/>
<path d="M52.4432 91.5457L53.3632 91.7757L54.0533 92.9257L55.2034 94.0758L55.6634 94.3058H58.4235L59.8036 93.6158L60.7237 91.7757L61.8738 91.5457L62.3338 92.0057L62.1038 93.3858L61.1837 94.7659L60.0336 95.6859L58.4235 96.3759H55.8934L53.5933 95.2259L52.2132 93.6158L51.9832 92.0057L52.4432 91.5457Z" fill="#5A1C10"/>
<path d="M103.966 62.5637H105.346L106.497 63.7138L106.727 64.1738V67.394L105.576 68.5441H104.196L103.276 67.394L102.586 65.5539V64.1738L103.506 62.7937L103.966 62.5637Z" fill="#84281E"/>
<path d="M96.3759 52.4431H97.986L99.1361 53.8232L99.3661 54.5132V56.5834L99.1361 57.2734H98.676L98.216 58.1935L97.986 58.4235H96.8359L95.9159 57.5034L95.2258 56.1233V53.5932L96.3759 52.4431Z" fill="#882A1F"/>
<path d="M62.3338 1.61011H63.9439L62.5638 3.45022L61.1837 5.06032L58.8836 8.97056L57.7335 11.7307L56.3534 15.871L55.6634 18.1711H55.2034L55.6634 14.7209L56.3534 11.5007L57.7335 8.28051L58.4236 6.4404L60.2637 3.91025L61.8738 2.07014L62.3338 1.61011Z" fill="#ECCCBD"/>
<path d="M46.0028 60.7239L47.3829 61.1839L48.073 61.8739L48.303 62.794V64.4041L47.6129 66.2442L46.6929 66.9343L45.3128 66.7042L44.6227 65.7842L44.1627 63.9441L44.3927 62.104L45.3128 60.9539L46.0028 60.7239Z" fill="#7F281D"/>
<path d="M76.1347 51.063H77.5148L78.6648 51.983L78.8949 52.6731V55.8933L77.9748 57.0434H76.3647L75.4446 55.8933L74.9846 54.7432V52.4431L76.1347 51.063Z" fill="#8D2A20"/>
<path d="M65.784 5.29028L66.244 6.21034L67.3941 6.67037L66.474 8.05045L64.8639 9.89056L62.3338 14.2608L61.6437 15.8709L60.9537 15.6409V15.1809H60.4937V13.5708L62.7938 9.43054L65.554 5.75031L65.784 5.29028Z" fill="#82261C"/>
<path d="M56.5835 73.6045L57.9635 73.8345L58.8836 74.7546L59.1136 75.2146V77.5147L58.1936 79.3548L57.5035 79.8149L56.3534 79.5849L55.4334 78.4348L55.2034 77.5147V75.2146L55.8934 74.0645L56.5835 73.6045Z" fill="#85271D"/>
<path d="M101.206 83.2651H102.586L103.506 83.9552L103.736 84.6452V86.4853L103.276 88.0954L102.126 89.2455H100.746L99.8261 88.0954L99.5961 86.0253L100.056 84.4152L101.206 83.2651Z" fill="#842B1F"/>
<path d="M90.1655 69.9243L91.7756 70.1543L92.6956 71.3044V74.5246L92.0056 75.9047L90.3955 76.1347L89.2454 74.7546L88.7854 73.1445L89.0154 71.3044L90.1655 69.9243Z" fill="#682015"/>
<path d="M7.13045 62.5637L8.74055 62.7937L9.6606 64.1738V66.2439L8.74055 68.0841L8.28052 68.5441L6.67042 68.3141L5.75037 66.474V63.9438L6.67042 62.7937L7.13045 62.5637Z" fill="#84291E"/>
<path d="M39.1023 110.407H40.2524L41.4025 111.327L41.8625 112.477V114.087L41.4025 115.697L40.4824 116.387L39.1023 116.157L38.1823 115.237L37.9523 114.777V112.017L38.6423 110.867L39.1023 110.407Z" fill="#8C2D22"/>
<path d="M11.5007 83.2651H13.1108L14.2608 84.6452L14.4908 85.3353V87.4054L13.8008 88.7855L13.5708 89.0155H11.9607L10.5806 86.9454L10.3506 84.8752L11.0406 83.4952L11.5007 83.2651Z" fill="#692416"/>
<path d="M30.1318 120.987L31.7419 121.217L32.892 122.367L33.582 123.977V125.588L32.432 126.738H31.0519L30.1318 126.048L29.4418 124.438V121.677L30.1318 120.987Z" fill="#7E251B"/>
<path d="M92.9257 109.257H94.3058L94.9958 109.947L95.2258 110.637V112.247L94.5358 113.857L93.3857 115.007L91.7756 114.777L91.0856 113.857V111.787L92.0056 109.947L92.9257 109.257Z" fill="#85281E"/>
<path d="M44.1627 132.948H45.5428L47.1529 134.328L47.6129 135.248V137.549L47.1529 138.239H46.6929V138.699L45.0828 138.469L44.1627 137.549L43.4727 136.168V133.638L44.1627 132.948Z" fill="#682316"/>
<path d="M68.7742 132.948H70.3843L70.8444 133.408V136.628L69.9243 138.009L69.2343 138.469H67.8542L66.7041 137.319V135.478L67.8542 133.638L68.7742 132.948Z" fill="#671F14"/>
<path d="M66.9341 60.0337H68.0842L69.6943 61.4138L69.9243 61.8738V63.2539H69.6943L69.2342 61.6438L68.0842 60.9537L66.4741 61.4138V62.5638L67.6241 61.6438L68.7742 62.1038L69.0042 62.3338V65.094L68.5442 66.2441L68.0842 66.4741L67.1641 66.0141L66.4741 64.864L66.7041 66.0141L67.1641 66.4741L68.7742 66.7041L68.3142 67.1641H66.7041L65.784 66.0141L65.324 64.864L65.094 62.5638L65.784 60.9537L66.9341 60.0337Z" fill="#C52F2A"/>
<path d="M82.8051 120.987H84.1852L84.8752 121.677L85.1052 123.287L84.4152 125.588L83.0351 126.738L81.655 126.508L80.965 125.818V123.287L82.115 121.447L82.8051 120.987Z" fill="#832A1E"/>
<path d="M74.2945 110.407L75.4446 110.637L76.3647 112.017V115.007L75.4446 116.387H73.8345L72.9145 115.467L72.6844 115.007V112.247L73.6045 110.867L74.2945 110.407Z" fill="#882E22"/>
<path d="M35.6521 67.1641H38.1823L38.8723 67.3941L39.1023 68.7742L38.1823 69.4642L35.4221 69.9242L33.582 70.8443L32.6619 71.5343H31.5119L31.2819 69.9242L33.352 68.0841L35.6521 67.1641Z" fill="#5B1C10"/>
<path d="M56.5835 123.978H57.7335L58.8836 125.358L59.1136 126.278V128.118L58.4236 129.268L57.9635 129.728H56.5835L55.4334 128.578L55.2034 126.508L55.8934 124.438L56.5835 123.978Z" fill="#82271D"/>
<path d="M75.9046 67.1641H77.9748L80.7349 68.0841L82.575 69.4642L83.0351 70.8443L82.575 71.5343L80.965 71.3043L79.1248 70.1542L77.9748 69.6942L75.6746 69.2342L75.2146 68.7742L75.4446 67.6241L75.9046 67.1641Z" fill="#591C10"/>
<path d="M4.83021 64.4038H5.06023L5.29024 67.164L5.52025 68.314L4.83021 69.2341L4.6002 70.6142V78.8947L5.29024 83.725L6.67032 89.9354L8.97047 96.8358L10.8106 101.206L11.9606 103.506L11.7306 104.196L8.97047 98.4459L6.67032 92.0055L5.29024 86.7152L4.14017 80.7348L3.91016 78.8947V69.9241L4.83021 64.4038Z" fill="#EC7D6F"/>
<path d="M38.1823 35.4221H38.6423L39.3324 37.4922L38.8724 39.1023L37.7223 40.0224L34.9621 40.2524L33.582 39.3324L34.9621 37.7223L37.7223 35.6521L38.1823 35.4221Z" fill="#D0DE87"/>
<path d="M22.0813 69.0042L24.1514 69.2342L25.3015 70.1542L25.7615 71.3043V74.5245H25.3015L24.8415 75.6746L23.6914 76.5946H22.0813L20.9313 75.6746L20.2412 74.2945V71.0743H20.7012L21.1613 69.6942L22.0813 69.0042ZM23.0014 69.9242L21.6213 70.8443L21.1613 71.9943V73.8344L22.0813 75.6746L22.7714 76.1346L24.1514 75.9046L25.0715 74.2945L25.3015 73.6044V71.7643L24.6115 70.6142L23.4614 69.9242H23.0014Z" fill="#E14A3E"/>
<path d="M108.567 89.0156L108.797 89.9357L106.496 96.6061L103.506 102.816L102.816 105.117L101.666 106.267L100.516 107.877L99.366 110.177L97.5259 112.707L96.1458 115.007L95.2258 116.617L93.1556 118.687L93.6157 117.537L95.4558 115.007L97.0659 112.477L99.366 109.027L101.666 104.887L103.966 100.516L105.806 96.6061L108.107 90.1657L108.567 89.0156Z" fill="#E44C40"/>
<path d="M36.5722 49.9131L38.1823 50.1431L39.3324 51.2932L39.7924 52.2132V54.7434L38.6424 56.5835L38.1823 57.2735L35.8822 57.5035L34.5021 55.8935L34.2721 54.7434V52.6733L34.5021 51.9832H34.9621L35.4222 50.6031L36.5722 49.9131ZM36.5722 51.0632L35.4222 52.2132L35.1922 52.9033V54.7434L35.8822 56.3535L36.8022 57.0435L37.9523 56.8135L38.8724 55.6634L39.1024 55.2034V52.2132L37.9523 51.0632H36.5722Z" fill="#D74037"/>
<path d="M67.394 30.1318L69.0041 30.3618L72.6844 31.7419L76.5946 33.8121L79.5848 36.1122L82.575 38.8724L84.6451 41.1725H83.9551L82.1149 39.3324L79.5848 37.2623L76.3646 34.9621L72.2243 32.662L68.5441 30.8219L67.394 30.3618V30.1318Z" fill="#768C34"/>
<path d="M108.107 56.1235H108.567L109.717 58.6537L109.947 60.9538L110.867 63.944L111.327 66.9342L111.787 69.2343V73.8346L111.327 79.1249L109.947 87.1754L109.027 89.0155L108.797 88.0955L109.717 84.4153L110.867 77.9749L111.097 75.9047V70.1544L110.407 65.3241L109.717 61.8739L108.567 57.7336L108.107 56.1235Z" fill="#E44C40"/>
<path d="M47.1528 30.1318L48.0729 30.3618L43.7026 32.202L40.2524 34.0421L38.6423 35.1921H38.1822V35.6522L35.1921 37.7223L34.502 38.4123L33.352 39.1024L31.9719 40.4825L31.5118 40.2525L34.042 37.7223L35.8821 36.1122L38.6423 33.8121L43.2426 31.2819L47.1528 30.1318Z" fill="#788E35"/>
<path d="M74.7546 27.8318H78.2048L82.5751 28.7518L87.6354 30.592L90.3956 32.2021L92.0057 33.3521L91.5457 33.5821L86.7154 31.282L80.505 29.2119L74.7546 28.0618V27.8318Z" fill="#768C34"/>
<path d="M38.8724 27.1418H40.9425L41.1725 27.6019L35.6522 28.5219L29.9018 30.132L28.7518 30.5921H28.0617V31.0521L25.9916 31.9721L25.0715 31.7421L27.3717 30.362L28.9818 29.442L33.352 28.0619L37.0323 27.3719L38.8724 27.1418Z" fill="#788E35"/>
<path d="M22.0813 41.1726H23.2314L22.7714 42.0927L20.2412 44.3928L17.9411 46.2329H17.251L16.791 46.0029L17.251 44.8528L19.0912 43.2427L20.2412 42.0927L21.3913 41.4026L22.0813 41.1726Z" fill="#E15044"/>
<path d="M16.331 51.7532L17.7111 51.9832L18.8612 53.5933L19.0912 54.2833V56.5835L18.4012 56.8135L17.9411 58.4236L17.2511 58.8836H15.641L14.9509 58.6536L14.0309 56.5835V54.2833L14.7209 52.6732L16.331 51.7532ZM16.101 52.4432L14.9509 53.5933L14.7209 54.0533V57.0435L15.871 58.1936L17.0211 58.4236L18.1711 57.0435L18.6312 56.1234V53.8233L17.9411 52.6732L17.4811 52.4432H16.101Z" fill="#E35A4E"/>
<path d="M65.784 5.29028L66.244 6.21034L67.394 6.67037L66.474 8.05045L64.6339 10.1206L63.2538 9.89056L62.3337 10.5806L62.7938 9.43054L65.5539 5.75031L65.784 5.29028Z" fill="#C7302B"/>
<path d="M55.2034 54.0535L56.3534 54.5135L56.5835 54.7435H57.7335L58.4236 54.5135L58.6536 54.7435L59.1136 54.2835L58.8836 56.1236L58.1936 57.2737H57.7335V57.7337H56.5835V57.2737L55.6634 56.8136L55.2034 55.6636V54.0535Z" fill="#88291F"/>
<path d="M57.2735 31.052H57.5035V43.2427L57.2735 46.2329H57.0435L56.8135 44.6228V32.8921L57.0435 31.282L57.2735 31.052Z" fill="#768C34"/>
<path d="M23.2315 97.0659H23.9215L23.4615 98.446V100.746L23.9215 101.896H24.6115L25.3016 100.286L26.2216 100.746L25.9916 102.356L25.3016 103.046H23.6915V102.586L23.0014 102.356L22.3114 100.746V98.446L23.0014 97.2959L23.2315 97.0659Z" fill="#902F23"/>
<path d="M67.6241 60.7239L69.0042 61.1839L69.6942 62.104L69.9242 64.1741L69.2342 66.2442L68.7742 66.7042H67.1641L66.244 65.5542V64.4041L67.1641 65.5542L67.3941 66.0142L68.3141 66.2442L68.7742 65.0941V62.334L67.6241 61.8739L66.244 62.794V61.4139L67.6241 60.7239Z" fill="#601E12"/>
<path d="M44.6226 60.2637L47.3828 60.7237L48.0728 61.4137L47.8428 61.8738L47.1528 61.1837L46.0027 60.9537L44.8527 61.6438L44.3926 62.7938L44.6226 65.094L45.3127 66.4741L46.4627 66.9341V67.1641H44.8527L43.7026 65.784L43.2426 63.7139L43.4726 61.6438L44.6226 60.2637Z" fill="#DD453B"/>
<path d="M56.5835 74.5244L57.7335 74.7544L58.1936 75.2145V77.5146L57.2735 78.8947L56.3535 78.6647L55.8934 77.2846V75.6745L56.5835 74.5244Z" fill="#EDB77A"/>
<path d="M5.75036 118.917H6.21039L5.98037 120.757L5.29033 125.128L4.8303 130.878L4.14026 130.188V125.588L4.60029 122.597L5.29033 120.987L5.75036 118.917Z" fill="#EBB8AE"/>
<path d="M4.83021 64.4038H5.06023L5.29024 67.164L5.52025 68.314L4.83021 69.2341L4.6002 70.6142L4.37018 78.8947H3.91016V69.9241L4.83021 64.4038Z" fill="#EB7C6D"/>
<path d="M65.784 143.298L66.474 143.528L65.094 144.448L60.7237 145.598L58.6536 146.059L59.3436 146.519H55.2034L53.5933 146.289V145.828L54.0533 145.598L58.4236 145.368L61.8738 144.678L65.324 143.528L65.784 143.298Z" fill="#DD453B"/>
<path d="M90.6255 97.2959L91.5455 98.216L91.7756 99.136V101.206L91.0855 102.586L90.6255 103.046H89.0154L88.0953 101.666L88.3254 100.516H88.7854L89.4754 101.896H90.1655L90.6255 100.976V97.2959Z" fill="#8A271E"/>
<path d="M45.7728 61.6438L46.9229 61.8738L47.3829 62.5639V64.174L46.4628 66.0141L45.5428 65.554L45.0828 64.634V62.7939L45.7728 61.6438Z" fill="#ECB77A"/>
<path d="M7.13047 63.4839L8.28054 63.7139L8.74057 63.9439V66.014L8.05053 67.3941H7.13047L6.44043 66.014V64.1739L7.13047 63.4839Z" fill="#EFB67B"/>
<path d="M22.7713 70.8445L23.9214 71.0745L24.3814 71.7645V73.3746L23.6914 74.9847L22.5413 74.7547L22.0813 73.1446V71.7645L22.7713 70.8445Z" fill="#EBBC7D"/>
<path d="M36.8023 51.7532H37.7224L38.4124 52.6732V54.2833L37.4924 55.8934L36.5723 55.6634L36.1123 54.5133V52.6732L36.8023 51.7532Z" fill="#EDB679"/>
<path d="M30.3618 121.907L31.5119 122.137L32.432 123.287L32.662 125.357L32.202 125.817L31.0519 125.587L30.3618 124.437L30.1318 123.977V122.137L30.3618 121.907Z" fill="#EBB679"/>
<path d="M73.8345 109.717H75.2146L75.4446 110.637L73.8345 110.867L72.9145 112.247V115.007L73.3745 115.927L74.9846 116.387V116.617H73.6045L72.2244 115.927L71.7644 114.777V112.477L72.6845 110.637L73.8345 109.717Z" fill="#C7302B"/>
<path d="M28.0618 30.8218L28.7518 31.0518L27.8318 32.4319L25.7616 33.812L24.6116 34.272L23.4615 34.042L23.0015 33.3519L27.3717 31.0518L28.0618 30.8218Z" fill="#D0DE87"/>
<path d="M39.3323 111.327L40.2524 111.557L40.9424 113.167V114.777L40.4824 115.467H39.3323L38.8723 114.777V111.787L39.3323 111.327Z" fill="#EFB97C"/>
<path d="M96.8359 53.1333L97.756 53.3633L98.216 54.0534V56.8135L97.526 57.5036L96.8359 57.2736L96.1459 55.6635V53.8233L96.8359 53.1333Z" fill="#EEB47A"/>
<path d="M76.3647 51.9832H77.5148L77.9748 52.4432V54.9733L77.2847 56.1234L76.3647 55.6634L75.9047 54.7433V52.4432L76.3647 51.9832Z" fill="#ECBB7B"/>
<path d="M90.3955 70.8445L91.5456 71.0745L91.7756 71.3045V73.8347L91.3155 74.9847H90.3955L89.7054 73.3746V71.5345L90.3955 70.8445Z" fill="#ECB77A"/>
<path d="M16.3309 53.1333L17.481 53.3633L17.711 53.8233V55.6635L16.7909 57.5036L15.8709 57.0435L15.6409 56.3535V53.8233L16.3309 53.1333Z" fill="#EEBE7D"/>
<path d="M101.436 84.1853H102.586L102.816 84.4153V86.7155L101.666 88.3256L100.746 88.0955V85.1054L101.436 84.1853Z" fill="#ECB178"/>
<path d="M75.6747 50.373H76.8247V50.8331L78.2048 51.0631L78.6649 51.9831L77.5148 51.2931H76.1347L75.2146 52.4432V54.7433L76.1347 56.5834L77.5148 57.0435V57.2735H75.9047L74.7546 56.1234L74.0646 53.8233L74.5246 51.5231L75.6747 50.373Z" fill="#C7302B"/>
<path d="M11.7307 84.1853L12.8807 84.4153L13.1107 85.1054H13.5708V87.4055L13.1107 88.0955L12.1907 87.8655L11.2706 86.2554V84.4153L11.7307 84.1853Z" fill="#EBB779"/>
<path d="M104.196 63.4839H105.346L105.806 64.1739V66.7041L105.346 67.6241L104.426 67.3941L103.736 65.784V64.1739L104.196 63.4839Z" fill="#EFB77C"/>
<path d="M56.8135 124.897L57.7335 125.127L58.1935 126.048V128.348L57.5035 129.038L56.5834 128.808L56.1234 128.118V126.508L56.5834 125.127L56.8135 124.897Z" fill="#EDB77B"/>
<path d="M93.1557 110.177H94.0757L94.3058 110.637V112.247L93.3857 114.087H92.2356L92.0056 113.627V111.787L93.1557 110.177Z" fill="#EDB87B"/>
<path d="M67.6242 61.6438L68.7742 62.1038V64.864L68.0842 66.0141L67.3941 65.7841L66.7041 64.174L66.9341 62.1038L67.6242 61.6438Z" fill="#ECBA7B"/>
<path d="M69.0042 133.868H69.9243V136.168L69.0042 137.548L67.8542 137.318L67.6241 137.088V135.478L68.3142 134.328L69.0042 133.868Z" fill="#DC8669"/>
<path d="M83.0351 121.907H83.9551V124.437L83.4951 125.587L82.115 125.817L81.885 125.587V123.517L82.8051 122.137L83.0351 121.907Z" fill="#EDBC7B"/>
<path d="M66.7041 2.76025L68.0842 3.68031L68.5442 4.60037V5.98045L67.3941 6.90051L66.2441 6.21046L66.014 5.06039L66.7041 2.76025Z" fill="#80261C"/>
<path d="M40.0224 157.79L40.9424 158.25L40.7124 159.4L39.5623 160.09L37.9522 160.32L37.2622 159.86L37.4922 158.71L38.4123 158.02L40.0224 157.79Z" fill="#EE8477"/>
<path d="M44.3927 133.868L45.5428 134.098L46.6928 135.478V137.318L46.4628 137.548H45.3128L44.6227 136.858L44.3927 135.938V133.868Z" fill="#F0BF7E"/>
<path d="M74.0645 111.557L75.2146 111.787L75.4446 112.247V114.777L74.9846 115.467H73.8345L73.6045 115.007V112.477L74.0645 111.557Z" fill="#F1BE7E"/>
<path d="M60.2637 14.0308H60.4937V15.1808H60.9537V15.6409H61.4137L61.1837 16.5609H60.4937L60.7237 18.171L60.2637 19.3211L58.6536 19.0911L59.1136 17.0209L60.2637 14.0308Z" fill="#C62F2A"/>
<path d="M92.6956 70.1543L93.6157 71.0744L93.8457 71.7644V74.0645L92.9256 76.1347L91.7756 76.8247H90.6255V76.3647L92.0056 75.9046L92.6956 73.8345V70.1543Z" fill="#E76C5D"/>
<path d="M90.3955 69.2341L90.6255 69.6942L91.3155 69.9242L89.9354 70.3842L89.2454 71.3043L89.0154 73.1444L89.7054 75.2145L90.3955 75.9045L91.0855 76.3646L89.4754 76.1346L88.5554 74.9845L88.0953 73.8344V71.5343L88.7854 70.1542L90.3955 69.2341Z" fill="#C7302B"/>
<path d="M11.2706 82.575L12.8807 82.805L14.7208 84.4151L14.9508 85.7951L14.4908 88.3253L14.0308 88.5553L14.2608 87.4052V85.3351L13.5708 83.955L13.1107 83.495H11.0406L10.5806 84.8751L10.8106 86.9452L11.0406 87.8653L9.89054 86.9452L9.66052 86.2552V84.6451L10.3506 83.955L10.8106 82.805L11.2706 82.575Z" fill="#C7302B"/>
<path d="M76.1347 51.063H77.5148L78.2048 51.523L78.4348 52.6731L77.5148 52.2131H76.3647L75.6747 54.2832L76.1347 55.8933L76.3647 56.5833L75.6747 56.3533L74.9846 54.7432V52.4431L76.1347 51.063Z" fill="#79251A"/>
<path d="M56.8134 25.7617L57.2734 26.6818L57.9635 27.1418L59.5736 26.6818V27.3718L57.5035 28.2919L56.3534 28.0619L54.7433 27.3718V26.4518L56.3534 26.2217L56.8134 25.7617Z" fill="#C7302B"/>
<path d="M31.282 121.217L32.432 121.677L33.5821 123.977V125.588L32.662 126.508L31.742 126.278V125.818L32.432 125.358L32.202 123.287L31.282 122.137L30.5919 121.677L31.282 121.217Z" fill="#85291E"/>
<path d="M103.966 84.415H104.426L104.656 84.8751V86.9452L103.736 88.7853L102.586 89.7054L101.436 89.9354L101.206 89.4753L102.126 89.2453L102.586 88.3253L103.276 88.0953L103.506 86.4852L103.736 86.2552L103.966 84.415Z" fill="#DA554A"/>
<path d="M90.1655 98.446L90.8555 98.6761V100.976L90.1655 102.126L89.2454 101.896L88.7854 101.206V100.056L90.1655 98.446Z" fill="#EBB37D"/>
<path d="M23.4615 97.9858H23.9215L24.6115 99.3659L25.0716 99.826V101.436L24.6115 102.126L23.6915 101.896L23.2314 100.746V98.4459L23.4615 97.9858Z" fill="#EFBB7D"/>
<path d="M22.5413 69.6941L24.3814 69.9241L25.0715 70.6141L24.8415 71.0742L24.1514 70.3841L23.0013 70.1541L21.8513 70.8442L21.3912 71.9942V73.8343L21.8513 75.4444L20.7012 74.2944L20.4712 73.8343V71.0742L21.1612 69.9241H22.0813L22.5413 69.6941Z" fill="#C7302B"/>
<path d="M38.1823 109.947L40.0224 110.177L39.1024 110.637L38.4123 111.327L38.1823 112.017V114.777L38.4123 115.697L37.4923 115.237L37.0322 113.397L37.2622 111.097L38.1823 109.947Z" fill="#C7302B"/>
<path d="M90.1655 69.9243L91.7756 70.1543L92.6956 71.3044L92.4656 71.7644H92.2356L92.0056 73.8346H91.7756L91.5456 71.3044L90.3955 71.0744L89.9355 71.5344L89.7055 73.3745L89.2454 72.9145L88.7854 73.1445L89.0154 71.3044L90.1655 69.9243Z" fill="#80271D"/>
<path d="M74.2946 157.79H75.6747L77.0548 158.71L77.2848 159.86L76.1347 160.09L74.2946 159.17L74.0646 158.02L74.2946 157.79Z" fill="#F0887C"/>
<path d="M79.8148 133.408H80.2748L79.8148 134.558L79.1248 135.248L77.0547 136.628L74.7545 138.699L72.9144 140.309L70.6143 140.999L71.3043 140.309L73.3744 138.929L77.2847 135.708L79.5848 133.868L79.8148 133.408Z" fill="#E44C40"/>
<path d="M68.7742 132.948H70.3843L70.8444 133.408V136.628L70.1543 137.779L69.4643 137.088L69.9243 133.868H69.2343V133.408L68.3142 133.178L68.7742 132.948Z" fill="#842C1F"/>
<path d="M29.2118 120.528H31.2819L32.202 121.448L30.1319 121.218H29.6718V125.128L29.2118 124.668V123.978L28.2917 123.748V121.678L29.2118 120.528Z" fill="#C7302B"/>
<path d="M23.0014 96.1458H24.3815L23.9215 97.0658L22.7714 97.7559L22.5414 98.4459V100.746L22.7714 101.896L21.8514 101.436L21.6213 100.976V97.9859L22.3114 96.6058L23.0014 96.1458Z" fill="#C7302B"/>
<path d="M78.8948 89.7056L80.2748 89.9356L80.5049 90.3956V91.7757L79.5848 92.4657L78.4347 92.0057L78.2047 91.7757V90.3956L78.8948 89.7056Z" fill="#EFEDEE"/>
<path d="M39.1024 89.7056L40.4825 89.9356L40.7125 90.3956V91.7757L39.7924 92.4657L38.6424 92.0057L38.4124 91.7757V90.3956L39.1024 89.7056Z" fill="#EEECEE"/>
<path d="M79.3547 52.4431L80.0448 53.3632V55.2033L79.1247 57.2734L78.2047 57.9635H77.0546L76.8246 57.5034L78.4347 56.3534L79.1247 54.7433L79.3547 52.4431Z" fill="#E97263"/>
<path d="M92.0056 97.7561L92.4656 98.2161L92.6956 100.286L92.4656 102.126L91.3155 103.506L89.7054 103.736L89.9355 103.046L91.0855 102.356L91.7756 100.286L92.0056 97.7561Z" fill="#E4695B"/>
<path d="M51.0631 36.8022L52.4432 37.0323L52.9033 38.1823V39.3324L51.7532 39.7924L50.8331 38.8724V37.0323L51.0631 36.8022Z" fill="#D0DE87"/>
<path d="M9.4306 108.797H9.89063L9.4306 111.097L7.59049 116.387L7.36047 115.467L8.05052 113.397V112.707L7.59049 112.937L8.28053 110.867L9.20059 109.027L9.4306 108.797Z" fill="#EC7F73"/>
<path d="M23.0014 69.9243L24.3815 70.3843L25.0715 71.0744L25.3015 71.7644V73.6045L24.8415 72.9145L24.3815 73.1445L23.9214 71.3044L22.7714 71.0744L22.3113 71.7644L22.0813 73.1445H21.8513V71.3044V70.6144L23.0014 69.9243Z" fill="#87291E"/>
<path d="M97.066 60.9536H98.2161L98.9061 61.6437V62.7937L97.986 63.4838L97.066 63.2538L96.606 62.7937V61.4136L97.066 60.9536Z" fill="#C7302B"/>
<path d="M7.13042 62.104L8.74051 62.334L10.3506 64.1741V66.0142L9.43056 67.8544L8.97053 68.5444L8.28049 68.3144L9.20054 66.9343L9.43056 66.2443V64.1741L8.74051 63.0241L7.13042 62.794L5.98035 63.4841L6.44037 62.564L7.13042 62.104Z" fill="#C7302B"/>
<path d="M110.867 79.1248H111.097V80.7349L110.407 84.6451L109.717 87.8653L108.797 89.0154L109.027 87.4053L109.947 83.265L110.637 79.3548L110.867 79.1248Z" fill="#E44C40"/>
<path d="M70.1543 61.8738L70.6143 62.1038L70.8444 62.7938V64.864L70.1543 66.4741L69.2343 67.3941H68.3142V66.9341H68.7742L69.2343 65.784L69.9243 64.4039L70.1543 61.8738Z" fill="#E6695B"/>
<path d="M39.1023 110.407H40.2524L41.4024 111.327L41.6325 113.397L40.4824 112.247L40.0224 111.557L39.1023 111.787L38.8723 112.247H38.4123L38.1823 112.937V111.327L39.1023 110.407Z" fill="#651F14"/>
<path d="M110.177 124.438H110.407L110.637 126.738V129.498L109.947 132.258L109.257 132.948L109.487 130.878L109.717 126.278H109.947L110.177 128.808V124.438Z" fill="#E57769"/>
<path d="M108.107 56.1235H108.567L109.717 58.6537L109.947 60.9538L110.867 63.944L111.097 66.9342L110.637 66.7042L109.947 62.7939L108.567 57.7336L108.107 56.1235Z" fill="#E44C40"/>
<path d="M56.5835 12.1907L57.2735 12.4207L56.5835 15.1809L55.6634 18.171H55.2034L55.6634 14.7208L56.3534 12.6507L56.5835 12.1907Z" fill="#EECEC0"/>
<path d="M99.366 53.8232L99.8261 54.0533V57.5035L98.906 58.8836L98.216 59.3436H97.2959V58.6535H97.9859L98.676 57.2735H99.136L99.366 53.8232Z" fill="#E36356"/>
<path d="M22.0813 69.0042L24.1514 69.2342L25.3015 70.1542L25.7615 71.3043V74.5245H25.5315V71.7643H25.0715L24.6115 70.3842L23.6914 69.9242L22.0813 70.1542L21.6213 70.3842V69.9242L21.1613 69.6942L22.0813 69.0042Z" fill="#E24A3F"/>
<path d="M5.98034 119.837H6.21035V121.448L5.2903 127.198L5.06028 132.488L4.60025 132.028L4.37024 130.418H4.60025L5.06028 125.128L5.75032 120.757L5.98034 119.837Z" fill="#ED8072"/>
<path d="M42.5526 29.4417H44.1627L44.3927 29.9017L40.9425 31.0517L40.0225 31.2818L40.2525 30.8217L38.4124 31.0517L38.6424 30.5917L41.4025 29.6717L42.5526 29.4417Z" fill="#C9D57E"/>
<path d="M27.8316 111.787H28.9817L29.4417 112.247V113.167L27.8316 114.087L27.1416 113.857V112.477L27.8316 111.787Z" fill="#C7302B"/>
<path d="M44.6227 60.2637L47.3829 60.7237L48.0729 61.4137L47.8429 61.8738L47.1528 61.1837L46.0028 60.9537L44.8527 61.6438L44.1627 63.9439L43.7026 63.4839V61.4137L44.6227 60.2637Z" fill="#C7302B"/>
<path d="M47.1529 134.789L47.6129 135.249V137.549L47.1529 138.239H46.6929V138.699L45.0828 138.469L46.0028 138.009L45.5428 137.549L46.4628 137.319L46.6929 135.479L47.1529 134.789Z" fill="#8B2A1F"/>
<path d="M44.8528 62.3337H45.0828L45.3128 64.6339L46.0028 65.784L46.4629 66.244L46.0028 66.474L46.6929 66.934L45.3128 66.704L44.6227 65.784L44.1627 63.9438V62.7938H44.6227L44.8528 62.3337Z" fill="#85281E"/>
<path d="M66.014 61.8738L66.4741 62.5638L66.9341 62.3338V64.1739L67.6241 65.784H68.0842L68.5442 64.864L68.7742 62.3338H69.0042V65.094L68.5442 66.244L68.0842 66.4741L67.1641 66.014L66.4741 64.864H66.014V61.8738Z" fill="#933327"/>
<path d="M85.3352 124.208L85.5652 124.668L85.1052 126.278L83.7251 127.428L82.345 127.658L81.885 127.428V126.968H83.0351V126.508L84.1851 125.588L85.3352 124.208Z" fill="#D95348"/>
<path d="M71.0744 136.168H71.3044L71.0744 137.779L69.9243 139.159L69.4643 139.389H67.8542L67.6241 138.699L69.2342 138.239L70.3843 137.089L70.6143 136.628H71.0744V136.168Z" fill="#DE463C"/>
<path d="M14.0309 84.6453L14.4909 85.3353V87.4054L13.8009 88.7855L13.1108 89.0155L12.4208 88.3255L13.3408 87.4054L13.5708 85.5653L14.0309 84.6453Z" fill="#832B1F"/>
<path d="M34.5021 51.9832L34.7321 52.9032L35.4222 56.1234L36.3422 56.5834L36.5722 57.5035L35.6522 57.2735L34.5021 55.8934L34.2721 54.7433V52.6732L34.5021 51.9832Z" fill="#E24A3E"/>
<path d="M77.0548 112.247L77.5148 112.707L77.2848 115.007L76.3647 116.387L75.4447 117.077H74.2946L74.0646 116.617L75.9047 115.927L76.3647 115.467L77.0548 112.247Z" fill="#E86E60"/>
<path d="M4.8303 64.4038H5.06031L5.29033 67.164L5.52034 68.314L4.37027 69.9241H4.14026V68.084L4.8303 64.4038Z" fill="#EB786A"/>
<path d="M98.446 54.7434H98.906L99.136 56.1235L98.676 57.7336L97.986 58.4236H96.8359L96.3759 57.5036H97.7559L98.446 54.7434Z" fill="#5A1C10"/>
<path d="M16.331 51.7532L17.711 51.9832L18.4011 52.9032L18.1711 53.3633L17.9411 52.6732H16.1009L15.1809 53.5933L14.9509 54.0533L14.7209 56.1234H14.4908V52.9032L15.6409 51.9832L16.331 51.7532Z" fill="#D43F37"/>
<path d="M25.9916 100.516L26.9116 100.976L26.2216 102.816L25.0715 103.736H23.6915L22.5414 102.586L23.6915 102.816H25.3016L25.7616 102.356L25.9916 100.516Z" fill="#E67263"/>
<path d="M104.656 62.5637L105.806 62.7937L106.727 64.1738V65.5539L106.036 65.7839L105.806 66.2439L105.576 64.1738L105.346 63.7138L104.426 63.2538L104.656 62.5637Z" fill="#892A1F"/>
<path d="M40.0224 157.79L40.9424 158.25L40.7124 158.94L39.7923 159.63L38.4123 159.4L38.1823 158.71L38.8723 158.02L40.0224 157.79Z" fill="#F1CBC3"/>
<path d="M43.7026 134.558L43.9327 135.248H44.3927L44.6227 136.858L45.3127 137.088L46.2328 138.238H44.6227L43.7026 136.628V134.558Z" fill="#662215"/>
<path d="M106.956 65.7839H107.186V68.3141L106.036 69.4642H104.886V68.7741H105.576L106.036 67.8541H106.496L106.956 65.7839Z" fill="#D8594E"/>
<path d="M36.3422 124.897L37.4923 125.127L37.7223 125.357V126.508L37.2623 126.968L36.1122 126.738L35.8822 126.508V125.357L36.3422 124.897Z" fill="#C7302B"/>
<path d="M56.1234 54.5134L57.7335 54.7434L58.1935 54.5134L57.9635 56.1235L57.2735 56.8136H56.5834L56.1234 55.4335V54.5134Z" fill="#D4AD68"/>
<path d="M69.0042 133.868H69.9243L69.6942 135.018L68.5442 136.168L67.8541 136.628V135.018L69.0042 133.868Z" fill="#EEB57A"/>
<path d="M95.4558 111.097H95.6859V113.167L95.2258 114.317L94.0758 115.467L92.6957 115.697L92.9257 115.237H93.3857V114.777L94.5358 113.627L94.7658 113.167H95.2258L95.4558 111.097Z" fill="#DA4D43"/>
<path d="M109.487 122.137L109.947 123.057L110.177 123.287L110.407 129.038L109.947 128.808L109.487 124.667V122.137Z" fill="#EFC5BD"/>
<path d="M105.116 108.567L105.806 109.257L106.956 111.787L106.726 112.247L106.266 112.017L106.036 112.937L105.116 110.177V108.567Z" fill="#E36B5D"/>
<path d="M43.4727 137.088L44.6227 137.778V138.238L46.6929 138.468H47.1529L46.9229 139.159L45.3128 139.389L43.9327 138.468L43.4727 137.778V137.088Z" fill="#D9594D"/>
<path d="M36.3423 127.888H37.4924L37.9524 128.348L37.7224 129.498L36.5723 129.728L36.1123 129.268V128.118L36.3423 127.888Z" fill="#C7302B"/>
<path d="M29.2118 125.588L30.1318 125.818L31.2819 126.738H33.122L32.202 127.658L30.5919 127.428L29.4418 126.278L29.2118 125.588Z" fill="#E97867"/>
<path d="M87.8655 100.746L88.3255 101.666L89.0155 102.816L89.9356 103.276L89.2455 103.736L88.3255 103.506L87.6354 102.816L87.1754 101.206L87.8655 100.746Z" fill="#C7302B"/>
<path d="M10.3506 88.0955L11.7307 88.5555L12.4207 89.0155L14.0308 89.2455L13.5708 89.9356H11.7307L10.5806 88.7855L10.3506 88.0955Z" fill="#E77263"/>
<path d="M18.4011 53.3633L18.8611 53.5933L19.0911 54.2833V56.5835L18.4011 56.8135L17.941 58.4236L17.251 58.8836L16.3309 58.4236L17.481 57.7335L18.4011 56.1234V53.3633Z" fill="#D43D35"/>
<path d="M92.0056 111.787L92.2356 112.707L93.6157 112.247L94.0757 112.477L93.6157 113.857L93.3857 114.087H92.2356L92.0056 113.627V111.787Z" fill="#E4816D"/>
<path d="M83.7251 122.828H83.9551V124.438L83.4951 125.588L82.115 125.818L81.885 125.358H82.345V124.438L83.4951 123.288L83.7251 122.828Z" fill="#B6A555"/>
<path d="M7.1304 62.5637L8.7405 62.7937L9.43054 63.7138V65.5539L8.97052 65.3239L8.7405 63.9438L8.05046 63.7138V63.2538H6.90039L7.1304 62.5637Z" fill="#632114"/>
<path d="M38.1824 54.2832L38.4124 54.9732L37.9524 56.5833L37.7223 57.0434L36.3423 56.8134L35.6522 56.1233L35.8822 55.6633L36.3423 55.8933L36.5723 55.4333L37.4923 55.6633L38.1824 54.2832Z" fill="#8A3023"/>
<path d="M35.1921 51.063H36.5722L35.6521 52.2131L35.4221 52.9031V54.7432L35.6521 56.1233L35.1921 55.6633L34.5021 52.9031L35.1921 51.063Z" fill="#C7302B"/>
<path d="M32.6619 34.042H34.272L33.812 34.962L31.9719 36.3421L31.5118 35.6521L32.6619 34.042Z" fill="#E2E7C4"/>
<path d="M40.2524 109.947L41.4025 110.637L42.0926 111.787L42.3226 112.477V114.317L41.8625 115.237L41.6325 112.477L41.1725 111.327L40.2524 110.637V109.947Z" fill="#E06356"/>
<path d="M67.6241 60.7239L69.0042 61.1839L68.5442 61.4139V61.8739L67.1641 62.104L66.244 62.794V61.4139L67.6241 60.7239Z" fill="#702418"/>
<path d="M65.7839 143.298L66.474 143.528L65.0939 144.448L61.6437 145.368L60.7236 145.138L65.3239 143.528L65.7839 143.298Z" fill="#E44C40"/>
<path d="M39.3324 138.929L40.2525 139.389L43.0126 141.459L43.7027 142.149L42.5526 141.919L39.7924 140.079L39.3324 138.929Z" fill="#E27E6F"/>
<path d="M85.5653 127.658V128.348L84.4152 129.728L81.195 132.948L80.735 132.718L83.2651 130.188L84.8752 128.348L85.5653 127.658Z" fill="#E44C40"/>
<path d="M34.7321 26.6816H36.3422L36.1122 27.3717L34.2721 27.8317H33.122L32.892 27.3717L33.582 26.9117L34.7321 26.6816Z" fill="#EEEEEA"/>
<path d="M74.2946 157.79H75.6747L76.1347 158.02L75.6747 158.94L74.2946 159.17L74.0646 158.02L74.2946 157.79Z" fill="#F0C0B8"/>
<path d="M8.05046 112.477L8.28047 113.397L7.1304 116.387H6.90039V114.777L7.59043 112.937L8.05046 112.477Z" fill="#F0C4BC"/>
<path d="M44.1627 132.948L44.6227 133.178L45.0828 133.868H44.3927V135.248H43.9327L43.4727 136.168V133.638L44.1627 132.948Z" fill="#863122"/>
<path d="M23.2315 97.0659H23.9215L23.4615 98.216L23.0014 98.446L22.7714 100.746H22.3114V98.446L23.0014 97.2959L23.2315 97.0659Z" fill="#6A2015"/>
<path d="M100.286 87.8652L101.666 88.0952H102.586L102.126 89.2453H100.746L100.286 88.7853V87.8652Z" fill="#681F14"/>
<path d="M92.2357 71.5344L92.6957 71.7644V74.5246H91.7756L92.0056 71.7644L92.2357 71.5344Z" fill="#681F14"/>
<path d="M35.4222 52.6733L35.8822 53.3634V54.5135H36.3422V55.8935L35.4222 55.4335L35.1921 54.7435V52.9034L35.4222 52.6733Z" fill="#652415"/>
<path d="M34.9621 37.0322L35.1921 37.7223L34.502 38.4123L33.352 39.1024L31.9719 40.4824L31.5118 40.2524L34.042 37.7223L34.9621 37.0322Z" fill="#7E9438"/>
<path d="M89.9354 96.1458L91.0855 96.6058L91.7755 97.9859L92.0056 100.286H91.7755L91.0855 97.7559L90.8555 97.5258L90.3955 98.2159L89.9354 96.1458Z" fill="#C7312C"/>
<path d="M103.966 62.5637L105.116 62.7937L103.966 63.9438L103.506 64.1738L103.046 65.0939L102.816 63.7138L103.966 62.5637Z" fill="#5F1D12"/>
<path d="M92.9256 74.5244L93.1556 75.2145L92.6956 76.3645L91.7756 76.8246H90.6255V76.3645L92.0056 75.9045L92.2356 75.2145L92.9256 74.5244Z" fill="#E97A6A"/>
<path d="M9.43059 108.797H9.89062L9.43059 111.097L8.97056 111.557L8.74055 111.097L8.28052 111.327L8.97056 109.257L9.43059 108.797Z" fill="#E57568"/>
<path d="M91.5456 73.8345L92.2357 74.7545L92.0056 75.9046L90.3955 76.1346L90.1655 75.6746L90.6256 75.4446L91.3156 74.7545L91.5456 73.8345Z" fill="#912C22"/>
<path d="M25.3015 71.7644H25.5315V74.5246L24.6115 75.9047L23.9214 76.3647H22.7714L23.6914 75.9047L24.6115 74.9846L25.0715 73.6045L25.3015 71.7644Z" fill="#C7302B"/>
<path d="M90.6255 70.1543H91.7756L92.6956 71.3044L92.4656 71.7644H92.2356L92.0056 73.8345H91.7756L91.5455 71.3044L90.6255 70.1543Z" fill="#762B1D"/>
<path d="M7.13048 61.6438L8.51057 61.8738L9.66064 62.7939L9.43062 63.2539L8.28055 62.3338H7.13048L6.21043 63.0239L5.7504 63.9439L5.52039 63.0239L7.13048 61.6438Z" fill="#E24A3E"/>
<path d="M88.3254 100.516H88.7854L89.4754 101.896L89.9354 102.356L88.7854 102.816L88.0953 101.666L88.3254 100.516Z" fill="#812A1E"/>
<path d="M48.533 61.6438L49.453 62.1038L49.683 62.3338V63.7139H49.223V64.174H48.763L48.533 61.6438Z" fill="#EA7061"/>
<path d="M34.2721 74.5244L35.4221 74.7544L35.8822 75.4445L34.7321 75.9045H34.0421V75.4445L33.582 75.2145H34.0421L34.2721 74.5244Z" fill="#E14A3F"/>
<path d="M10.1206 64.1738H10.3506V66.0139L9.43059 67.8541L8.97056 68.5441L8.28052 68.3141L9.20057 66.934L9.43059 66.244H9.89062L10.1206 64.1738Z" fill="#DA4339"/>
<path d="M108.107 56.1235H108.567L109.717 58.6537L109.257 59.5737L108.337 57.2736L108.107 56.1235Z" fill="#DE463B"/>
<path d="M4.83027 126.968H5.06028V132.488L4.60025 132.028L4.37024 130.418H4.60025L4.83027 126.968Z" fill="#EC8979"/>
<path d="M38.6423 53.8232H39.1024V55.2033L38.1823 56.5834H37.7223L38.4123 54.2833L38.6423 53.8232Z" fill="#621E13"/>
<path d="M3.68015 62.104H3.91017L4.3702 64.1741H3.68015L3.45014 64.6342H2.99011V63.4841L3.68015 62.104Z" fill="#EEEAE6"/>
<path d="M78.4347 56.3535L78.6647 57.0436L79.1247 56.8135L78.6647 57.7336L77.0546 57.9636L76.8246 57.5036L78.4347 56.3535Z" fill="#E76D5F"/>
<path d="M54.9733 17.481L55.2033 18.171H55.6633L55.4333 20.4711L54.9733 21.3912V17.481Z" fill="#A6B050"/>
<path d="M46.4628 135.478H46.6928V137.318L46.4628 137.548H45.3127L44.6227 136.858L44.8527 136.398H45.5427H46.0028V137.088H46.4628V135.478Z" fill="#E27F6B"/>
<path d="M69.4643 138.468H69.9243V139.158L69.4643 139.388H67.8542L67.6241 138.698L69.4643 138.468Z" fill="#DA5B4F"/>
<path d="M101.206 52.9031H102.126L102.356 53.8231L101.896 54.2832L100.976 54.0531L101.206 52.9031Z" fill="#7E261C"/>
<path d="M56.5834 10.8108L57.5035 11.5008V12.6509L56.5834 12.1909L56.3534 12.8809L56.1234 12.1909L56.5834 10.8108Z" fill="#C7C582"/>
<path d="M8.74061 37.0322L9.43065 37.2622L12.1908 37.4923V37.7223H7.82056L8.05057 37.2622L8.74061 37.0322Z" fill="#A8B854"/>
<path d="M39.7924 30.5918L40.7124 30.8218L39.1023 31.7419H37.9523L38.4123 31.0518L39.7924 30.5918Z" fill="#EEEEEA"/>
<path d="M47.6129 64.634L47.843 65.0941L46.9229 66.4741L46.0028 66.7042L45.7728 66.2441H46.4629L46.6929 65.5541H47.1529V64.864L47.6129 64.634Z" fill="#581B10"/>
<path d="M66.704 2.76025L67.8541 3.68031V4.14034L66.474 4.60037L66.704 2.76025Z" fill="#C7302B"/>
</svg>
