<svg width="45" height="45" viewBox="0 0 45 45" fill="none" xmlns="http://www.w3.org/2000/svg">
<g clip-path="url(#clip0_669_15599)">
<path d="M20.4532 2.75293H20.8189L21.0984 2.81745L21.335 2.94649L21.5286 3.09704L21.7222 3.31211L21.8942 3.65623L21.9372 3.8713V11.1192L22.4104 11.1622L23.4642 11.3127L24.4966 11.5063L25.4214 11.7214L26.3032 11.958L27.0774 12.1945L28.0022 12.5171L28.712 12.7967L29.3357 13.0548L30.2605 13.485L30.6261 13.6785L30.9702 13.8506L31.4864 14.1302L32.2391 14.5818L32.6478 14.8399L33.2284 15.227L33.5941 15.4851L34.0027 15.7862L34.2823 16.0013L34.6264 16.2809L34.863 16.4744L35.1426 16.711L35.3146 16.8616L35.5727 17.0982L35.7448 17.2487L35.8738 17.3562V17.3993L35.9598 17.4423L36.8201 18.3026L36.9707 18.4746L37.2503 18.7757L37.4008 18.9478L37.6589 19.2489L38.046 19.722L38.2611 20.0016L38.5407 20.3672L38.8203 20.7544L39.1644 21.249L39.401 21.6146L39.6591 22.0233L39.9171 22.4534L40.1322 22.819L40.4763 23.4427L40.6914 23.8514L40.928 24.346L41.1861 24.8837L41.4657 25.5289L41.7022 26.1096L41.9388 26.7333L42.1539 27.3355L42.412 28.1098L42.7346 29.2066L43.0787 30.5831L43.2723 31.4864L43.4658 32.5187L43.6164 33.465L43.7669 34.5834L43.8745 35.6588L43.9605 36.7341L44.0035 37.3793L44.0465 37.3578V40.3688H44.0035L43.896 40.6269L43.7024 40.885L43.5088 41.057L43.2077 41.2076L42.9927 41.2721L42.6701 41.2936L42.412 41.2506L42.1754 41.1646L41.8958 40.971L41.7453 40.8205L41.5947 40.5839L41.5087 40.3903L41.4011 39.9172L41.2291 39.1429L41.057 38.5192L40.885 37.9815L40.6914 37.4223L40.4118 36.7126L40.1537 36.1319L39.8526 35.5082L39.53 34.8845L39.2289 34.3683L38.9708 33.9382L38.3686 33.0349L37.8525 32.3467L37.6589 32.1101L37.4868 31.895L36.9707 31.2928L36.6481 30.9487L36.4115 30.7121L36.2825 30.5616L36.2179 30.5186V30.4756L36.1319 30.4325L35.7448 30.0454L35.5727 29.8949L34.9705 29.3787L34.3683 28.9055L33.9812 28.626L33.6801 28.4109L33.3575 28.1958L32.9273 27.9162L32.3467 27.5721L31.7229 27.228L31.0347 26.8839L30.282 26.5398L29.7013 26.3032L29.1206 26.0881L28.3678 25.83L27.3355 25.5289L26.3677 25.2924L25.4859 25.1203L24.389 24.9482L23.3782 24.8407L22.6255 24.7762L21.9372 24.7332V31.852L21.8512 32.1961L21.7222 32.4327L21.5286 32.6478L21.3135 32.8198L21.0769 32.9274L20.8189 32.9919H20.4532L20.1952 32.9274L19.9371 32.7983L19.5069 32.4972L18.7327 31.938L18.324 31.6585L18.0444 31.4434L17.6358 31.1638L17.2917 30.9057L16.8831 30.6261L16.5389 30.368L16.1303 30.0884L15.7862 29.8303L15.3776 29.5508L15.0335 29.2927L14.6248 29.0131L14.2807 28.755L13.8721 28.4754L13.4634 28.1743L13.0978 27.9162L12.7107 27.6366L12.3451 27.3785L11.9579 27.0989L11.5923 26.8409L11.2052 26.5613L10.775 26.2602L10.3879 25.9806L10.0868 25.7655L9.69969 25.4859L8.96845 24.9697L8.1942 24.4106L7.82858 24.1525L7.44145 23.8729L7.07583 23.6148L6.6887 23.3352L6.32308 23.0771L5.93596 22.7975L5.57033 22.5394L5.18321 22.2599L4.81759 22.0018L4.43046 21.7222L4.06484 21.4641L3.67771 21.1845L3.24757 20.8834L2.47331 20.3242L1.74207 19.808L1.33344 19.5069L0.924805 19.2274L0.580691 18.9693L0.36562 18.7757L0.258085 18.6682L0.129043 18.4746L0.0215071 18.2595L0 18.195V17.5283H0.0430142L0.0645213 17.3993L0.215071 17.1197L0.408635 16.9046L0.623705 16.7325L1.35495 16.2164L1.74207 15.9368L2.34427 15.5066L2.7314 15.227L3.46264 14.7109L3.84977 14.4313L4.15087 14.2162L4.53799 13.9366L5.26924 13.4204L5.65636 13.1409L5.95746 12.9258L6.34459 12.6462L7.07583 12.13L7.46296 11.8504L7.76406 11.6354L8.15119 11.3558L8.45228 11.1407L8.88243 10.8396L9.26955 10.56L9.57065 10.3449L9.95778 10.0653L10.689 9.54917L11.0761 9.26958L11.3772 9.05451L11.7644 8.77491L12.4956 8.25874L12.8827 7.97915L13.1838 7.76408L13.571 7.48449L14.3022 6.96832L14.6893 6.68873L14.9904 6.47366L15.3776 6.19406L16.1088 5.67789L16.4959 5.3983L18.0014 4.32295L18.3886 4.04335L19.1198 3.52718L19.8941 2.968L20.1952 2.81745L20.4532 2.75293Z" fill="#83242A"/>
</g>
<defs>
<clipPath id="clip0_669_15599">
<rect width="44.0465" height="44.0465" fill="white"/>
</clipPath>
</defs>
</svg>
