<svg width="145" height="160" viewBox="0 0 145 160" fill="none" xmlns="http://www.w3.org/2000/svg">
<path d="M100.459 0H101.958L103.208 1.00038L103.458 1.75067V3.75143L102.458 5.7522L100.459 7.25277L98.9596 7.75296H95.9608L91.9625 6.75258L89.9633 6.50249L91.4627 9.50363V12.7549L90.713 14.7556L89.4635 16.2562L87.4643 17.2566H84.7154L83.216 16.2562L82.2164 15.2558L81.7166 14.0054V10.2539L82.7162 8.00306L83.216 7.25277L80.717 8.00306L78.468 9.50363L76.7187 11.5044L75.2193 14.5055L74.7195 16.2562V21.008L74.9694 22.0084L81.9665 22.2585L88.9637 23.0088L95.2111 24.5094L103.458 27.2604L107.956 29.2612L112.954 32.0122L116.952 34.7633L119.451 36.7641L122.95 39.7652L125.199 42.2662L127.948 45.7675L130.947 50.5193L132.946 54.5208L134.445 58.0222L136.444 64.5247L137.694 70.7771L138.443 77.2795V86.0329L137.694 93.2857L136.694 98.7878L135.945 101.289L136.194 102.289L138.943 105.79L141.192 109.542L142.942 113.293L143.941 116.545L144.691 120.796V123.547L143.941 126.548L142.692 128.299L140.193 129.55H137.694L135.695 128.549L134.945 127.799V127.299H133.695L132.446 126.048L132.196 125.298V120.796L130.197 116.795L129.197 115.544L126.698 118.795L123.7 122.297L120.951 125.048L118.202 127.299L113.953 130.55L109.205 133.301L102.958 136.302L99.2095 137.553H98.4598V140.554L97.96 145.055L97.2103 148.557L96.2107 152.058L97.4602 152.558L99.7694 155.309V157.373L98.8478 158.756L96.2107 159.061H90.5529L86.4054 157.81L84.5621 156.06L83.6404 141.705H79.7234H73.2718H69.5852L60.8294 141.244L60.1382 149.769V156.06L58.2948 158.06L54.8386 159.216H48.8479L46.3133 157.834L45.1612 155.559L47.2307 153.059L49.2299 151.808L48.2303 148.557L47.4806 144.805L47.2307 142.805V137.803L44.7317 137.303L39.7338 135.302L35.7354 133.301L30.9873 130.55L26.7391 127.549L23.2405 124.548L19.7419 121.046L16.9931 117.545L15.7436 115.794V115.294H15.2438L14.744 116.545L12.245 121.296V125.298L11.4953 126.798L10.7456 127.549L9.49612 127.799L8.24663 129.299L6.24745 130.05H3.99837L2.49898 129.299L0.749694 127.299L0 125.298V120.796L0.749694 117.045L1.74929 114.044L3.24867 110.542L5.99755 106.041L8.24663 103.29L8.99633 102.539L8.74643 100.288L7.24704 94.036L6.49735 88.5339L6.24745 86.0329V78.0298L6.74725 72.7778L7.74684 67.0256L9.49612 60.7732L11.2454 56.0214L13.2446 52.0199L15.7436 47.7683L17.9927 44.7671L20.7415 41.5159L24.7399 37.5143L28.2385 34.7633L31.9869 32.2623L37.4847 29.2612L42.4827 27.0103L48.7301 24.7595L54.2279 23.2589L59.2258 22.5086L62.4745 22.2585H69.2217V16.7564L70.2213 13.005L72.2205 9.50363L74.9694 6.50249L77.4684 4.75182L79.7175 3.75143L80.717 3.50134H84.9653L86.9645 4.25163L88.7138 4.00153H91.2128L96.2107 5.5021H99.4594L100.959 4.75182L101.958 3.50134V1.50057L100.709 1.25048L100.459 2.50096L99.7093 2.25086V0.750287L100.459 0Z" fill="#3F6425"/>
<path d="M76.9685 24.0098H80.4671L82.4663 24.2599L84.4655 26.2606L86.2148 28.2614L88.9636 31.5126L92.4622 36.5145L94.9612 40.266L98.2099 46.2683L99.9591 51.5203L101.209 57.5226L102.708 70.7776L103.458 78.2805L104.457 88.0342L105.707 89.2847L106.207 90.2851L105.957 92.536L104.957 93.7864H104.457V98.7884L103.708 108.042L102.958 112.294L102.458 116.045L100.959 120.046L98.9595 124.048L96.7105 129.05L95.2111 131.801L92.2123 136.303H92.962L99.2094 133.802L102.708 132.301L104.957 131.051H105.957L106.456 130.05L109.705 124.798L111.954 120.547L114.703 112.294L117.202 103.29L118.951 102.79L119.451 101.289V99.7887H118.452V97.2878L118.951 92.0358V74.7792L117.452 68.5268L114.453 57.7727L112.704 53.271L110.955 49.7696L111.205 48.7692L111.954 47.5188V45.2679L110.705 45.0178L109.455 46.2683L106.956 41.5165L104.457 37.5149L101.209 33.2633L100.459 32.2629V31.7627L101.459 31.5126V31.0124L99.7092 30.7623L97.96 29.2618L96.2107 27.261L97.2103 27.0109L102.208 28.7616L108.206 31.5126L112.454 33.7635L116.702 36.7646L120.201 39.7658L124.199 43.7673L127.448 48.0189L130.447 53.271L131.946 56.7723V57.5226H131.446L130.197 55.0216L127.698 50.77L124.699 46.5184L124.199 45.518L123.2 45.0178L120.701 42.5168L118.701 40.7662L116.952 39.5157L118.951 42.5168L121.2 46.0182L123.45 50.2698L125.949 54.5214L127.948 59.2733L129.197 63.775L130.447 70.7776L131.196 79.531L131.696 85.2832V94.0365L130.697 101.539L129.197 107.542L127.698 112.043L127.198 113.794L126.948 115.545L124.699 118.546L123.45 119.796L121.2 122.297L119.201 124.298L118.202 124.798L117.452 125.799L116.702 126.049L116.203 126.799H115.453L115.203 127.549L114.453 128.05H113.704V128.55H112.954V129.05H112.204V129.55H111.454V130.05L110.205 130.3V130.801L104.957 133.552L101.209 135.052L97.2103 136.303L94.9612 137.053L87.4642 138.804L82.9661 139.554L76.7186 140.054L79.2176 134.302L81.2168 128.8L82.2164 123.048L82.4663 115.045L83.7158 109.542L84.9653 100.789L85.4651 95.0369L85.715 85.2832L86.7145 85.7834L88.7137 87.0339L89.4634 87.284H92.4622L94.4614 86.2836L96.4606 84.0327L97.96 80.2813L98.2099 79.0308V74.279L97.4602 71.2778L96.2107 69.027L95.7109 68.0266L92.2123 66.2759H89.4634L86.9644 67.5264L85.715 68.5268L84.9653 60.0235L83.9657 53.271L82.4663 46.7685L81.4667 38.2652L79.7174 31.2625L77.2184 25.0101L76.9685 24.0098Z" fill="#719547"/>
<path d="M76.4688 37.2642H77.7183L78.9678 38.5146V39.0148L81.4668 39.2649L81.7167 40.0152V42.016H82.2165L82.9662 48.2684L84.4656 54.7709L85.4652 62.0236L85.965 68.276L87.7142 66.7754L89.4635 66.0252H92.2124L94.7114 67.2756L95.9609 68.5261L96.9605 69.7766L97.9601 72.0275L98.4599 74.2783V79.0301L97.4603 82.2814L96.2108 84.7823L94.2116 86.7831L92.4623 87.5334H89.4635L86.9645 86.2829L85.7151 85.2825V95.0363L84.9654 102.789L83.9658 109.542L83.2161 113.293L82.7163 115.044L82.4664 123.047L81.9666 125.298L79.4676 125.798L77.2185 126.298L69.9715 126.798H68.4721L66.7228 127.299H65.9731L65.7232 125.048H65.2234L64.7236 120.796V115.794L63.2242 106.791L62.2246 98.5376L61.9748 95.5364L61.7249 84.032V72.0275H62.2246V66.0252L62.4745 64.2745L64.9735 63.2741L66.4729 61.0232L68.722 59.2726L68.9719 58.5223L70.7212 57.772L70.9711 56.7716L70.7212 55.271L72.2206 51.7697L73.2202 50.5192L73.72 49.0187L73.9699 47.0179L74.2198 46.2676L74.7195 44.5169L75.2193 41.0156L74.9694 40.0152L75.4692 39.2649L75.2193 38.0144H75.7191V37.5143L76.4688 37.2642Z" fill="#537B31"/>
<path d="M68.4721 23.7593H70.7212L70.2214 25.2599L68.2222 30.2618L66.7229 36.014L65.7233 42.5165L65.2235 47.7685L63.4742 55.2713L62.4746 62.7742L61.9748 63.2744H60.4754L56.7269 65.5252L56.2271 66.0254H51.4791L48.9801 67.2759L47.9805 68.5264H46.731L45.4815 67.7761V64.5249L45.9813 61.5237H47.4807L49.9797 60.0231L51.9789 59.523H53.7282V57.7723L53.4783 57.5222H51.2292L48.9801 58.0224L46.9809 59.523L46.2312 59.773V57.2721L47.2308 52.5203L49.23 46.518L51.2292 42.5165L53.4783 38.765L56.9768 33.7631L59.2259 30.762L61.475 28.261L64.2239 25.2599L61.2251 25.5099L54.4779 27.0105L50.4795 28.261L48.4803 30.2618L45.4815 34.2633L43.4823 37.0143L40.4836 41.7662L38.9842 45.0174L42.2328 47.0182L42.7326 48.7688L40.9834 51.0197L40.2337 52.7704L38.7343 55.5214L37.7347 56.5218L36.2353 57.5222L35.4856 57.7723L35.2357 58.2725L33.4864 58.5226L32.7367 60.0231L29.738 70.027L28.7384 74.5287L28.4885 76.7796L27.4889 78.2801V80.531L28.2386 80.7811L28.4885 91.035L29.2382 97.7876L30.7375 104.04L32.7367 111.793L34.7359 118.045L34.9858 119.296L33.2365 118.796V118.295L31.987 117.795L29.4881 115.794H28.9883V115.294H28.4885V114.794L27.4889 114.294L24.4901 112.543V112.043L22.4909 111.793L22.7408 111.043V108.292H22.241L21.9911 107.791L20.9915 108.042L19.9919 109.292L18.4925 109.542L17.9927 108.292L16.4934 100.789L15.7437 94.5363V85.783L16.7433 75.7792L17.2431 67.2759L17.9927 63.0243L19.4921 58.0224L21.7412 53.2706L22.9907 50.7696L23.9903 48.2687L25.7396 45.5176L28.7384 40.7658L29.4881 39.5153L27.4889 41.0159L24.2402 44.017L21.7412 47.2683L18.9923 51.0197L15.4938 57.5222L13.9944 60.7734L12.495 65.2752L10.9956 71.5275L10.2459 76.5295L9.99601 79.2805V90.5348L10.4958 94.7864L11.9952 101.539L12.7449 104.04L13.7445 106.291L15.2439 110.292L14.994 111.043L11.9952 105.04L10.2459 99.5383L8.74652 92.5356L8.24672 88.534L7.99683 85.2828V78.03L8.74652 70.7773L10.4958 63.0243L11.7453 59.2729L12.7449 57.2721L15.4938 51.5199L18.4925 46.7681L21.4913 43.2667L26.4893 38.2648L29.738 35.7639L33.2365 33.513L38.9842 30.5119L44.9817 28.0109L46.9809 27.2606L51.2292 25.76L55.7273 24.7597L63.2243 24.0094L68.4721 23.7593Z" fill="#ADD278"/>
<path d="M62.9742 25.0098H64.4736L62.9742 26.7604L61.2249 28.7612L58.9758 31.2622L55.9771 35.5138L52.4785 40.7658L49.9795 45.2675L47.9803 50.7696L46.7308 55.7715L46.231 59.7731L48.2302 58.2725L48.9799 57.7723L51.229 57.2721H53.4781L53.9779 57.7723L53.728 59.523L49.9795 60.2733L47.4805 61.7738L45.9811 61.5237L45.4813 67.7761L46.4809 68.0262L47.9803 68.5264L48.4801 67.526L50.7292 66.0255L51.4789 65.7754H56.227L57.4764 64.775L60.4752 63.0243H61.9746L62.2245 63.2744L61.9746 72.0277V84.0323L62.2245 95.5367L63.2241 104.79L64.2237 111.293L64.9734 115.794V120.796L65.4732 125.298L65.2233 125.548H60.2253L53.2282 124.798L51.229 124.298L48.73 124.048L46.231 118.796L45.2314 115.544L43.982 108.792L43.2323 100.289V95.2866L40.7333 94.7864L38.7341 93.536L37.7345 92.2855L37.4846 90.0346L38.2343 88.7842L39.7337 87.5337L41.9828 86.7834H43.4822L43.7321 82.7819L44.7317 71.5276L44.9815 67.2759L43.4822 68.2763H42.7325L42.2327 69.2767H41.7329V69.7769L40.4834 70.5272L40.2335 71.0274L37.7345 72.2778H37.2347L36.7349 73.2782L33.986 75.279L33.2363 75.5291V76.0293L30.9873 77.7799L30.2376 78.2801L29.4879 76.7796H28.4883V74.5287L29.9877 68.2763L32.7365 59.2729L33.4862 58.2725L35.2355 58.0224L37.2347 56.5218L38.2343 56.0216L39.2339 54.0209L39.9836 52.7704L40.7333 51.0197L42.4826 48.7689L41.9828 47.0182L39.4838 45.5176L38.7341 45.0174L40.7333 41.0159L43.7321 36.2641L46.9807 32.0124L48.9799 29.5115L50.9791 27.7608L57.4764 26.0101L62.9742 25.0098Z" fill="#95BE5D"/>
<path d="M29.238 39.2651L29.7378 39.5152L26.9889 44.017L24.2401 48.2686L23.2405 50.7695L21.2413 54.7711L19.492 58.7726L18.2425 63.0242L17.4928 67.2758L16.993 75.7791L15.9934 85.7829V94.5363L16.7431 100.789L18.4924 109.542H19.2421L19.492 109.042L20.2417 108.792L21.2413 107.541L22.2409 107.791V108.292H22.7407L22.9906 108.792V111.043L22.4908 111.793L24.49 112.043V112.543L25.7394 113.043L28.4883 114.794V115.294L29.7378 115.794L31.9869 117.545L33.2364 118.295V118.796L34.7358 119.046L32.7366 112.543L30.9873 106.041L29.238 99.038L28.4883 94.0361L28.2384 91.0349L27.9885 80.781L27.2388 80.0307V78.2801L28.2384 76.7795L29.4879 76.5294L30.4875 78.03L32.7366 76.0292H33.2364V75.529L36.9848 72.778L37.9844 71.7776L39.4838 71.0273H40.2335L40.4834 70.277L41.7329 69.7768V69.2766L42.7325 68.2762L44.4818 67.2758H44.9816V71.5275L43.7321 85.0326L43.4822 86.7833L40.4834 87.5336L38.7341 88.534L37.9844 89.2843L37.7345 91.5351L38.4842 93.0357L39.7337 94.0361L42.4826 95.0365L43.2323 95.2866L43.7321 103.54L44.4818 110.542L45.7313 116.545L47.2307 120.546L48.7301 123.547V124.048H51.7288L53.2282 124.548L58.2262 125.048L60.2254 125.298H65.2233L65.7231 125.048L66.9726 130.3L68.7219 135.302L70.7211 139.553V140.054H67.4724L60.2254 139.303L55.7272 138.553L52.7284 137.553L48.2303 136.552L42.2327 134.552L35.9853 131.55L31.737 129.049L28.4883 126.799V126.298L27.4887 125.798L24.9897 123.797L23.7403 122.547V122.047L22.7407 121.547L20.7415 119.546L18.2425 116.295L15.9934 112.793L15.2437 111.793L14.7439 109.542L12.7447 104.29L11.9951 102.289L10.9955 98.5378L9.99587 93.2858L9.74597 90.5347V79.2804L10.4957 72.778L11.7452 67.2758L13.2445 62.0238L14.9938 58.0223L17.9926 52.2701L19.9918 49.269L22.4908 46.0177L24.7399 43.2667L27.4887 40.7657L29.238 39.2651Z" fill="#709446"/>
<path d="M76.9685 24.0098H80.4671L82.4663 24.2599L84.4654 26.2606L86.2147 28.2614L88.9636 31.5126L92.4622 36.5145L94.9612 40.266L98.2098 46.2683L99.9591 51.5203L101.209 57.5226L102.708 70.7776L103.458 78.2805L104.457 88.0342L105.707 89.2847L106.207 90.2851L105.957 92.536L104.957 93.7864H104.457V98.7884L103.708 108.042L102.708 113.544L101.459 114.044V114.544L97.71 116.295L95.461 117.796L92.2123 119.046L89.2135 120.297L85.9648 121.547L84.9652 122.047L82.7162 122.297V116.045L83.216 112.043L84.2155 106.541L85.2151 98.2882L85.465 95.0369L85.7149 85.2832L86.7145 85.7834L88.7137 87.0339L89.4634 87.284H92.4622L94.4614 86.2836L96.4605 84.0327L97.9599 80.2813L98.2098 79.0308V74.279L97.4601 71.2778L96.2107 69.027L95.7109 68.0266L92.2123 66.2759H89.4634L86.9644 67.5264L85.7149 68.5268L84.9652 60.0235L83.9656 53.271L82.4663 46.7685L81.4667 38.2652L79.7174 31.2625L77.2184 25.0101L76.9685 24.0098Z" fill="#95BE5D"/>
<path d="M100.459 52.02H101.459V52.5202L102.958 52.7703L104.957 54.2709L106.207 55.2713L108.956 56.5217L111.704 57.0219H113.954L114.203 57.7722H114.703L118.702 72.2778L119.201 74.7787V92.0353L118.452 99.7883H119.451L119.701 101.289L118.952 103.04L117.452 103.29L114.453 113.794L112.204 120.546L109.705 125.298L106.707 130.05L105.957 131.05L103.458 132.051L100.459 133.551L93.7118 136.302L91.9625 136.802L92.4623 135.552L95.711 130.55L97.9601 125.798L99.9593 121.297L101.459 118.295L102.458 115.044L102.958 111.043L103.708 105.791L104.457 93.786L105.707 92.5355L105.957 90.2847L105.207 89.0342V88.534L104.208 88.0338L103.208 78.2801L102.458 70.7772L100.959 57.5221L100.459 54.7711V52.02Z" fill="#537B31"/>
<path d="M44.4819 67.2764H44.9816V71.528L43.7322 85.0332L43.4823 86.7838L40.4835 87.5341L38.7342 88.5345L37.9845 89.2848L37.7346 91.5356L38.4843 93.0362L39.7338 94.0366L42.4827 95.037L43.2324 95.2871L43.7322 103.54L44.4819 110.543L45.7313 116.545L47.2307 120.547L48.7301 123.548L49.9796 126.799L52.4786 131.801L55.9772 137.053L55.7273 137.553L52.4786 137.053L48.98 135.552L45.4814 134.552L43.4823 133.802L39.9837 128.55L36.735 123.048L35.2356 119.796L34.9857 118.046H34.4859L31.987 110.043L29.2381 99.0385L28.4884 94.0366L28.2385 91.0355L27.9886 80.7815L27.2389 80.0312V78.2806L28.2385 76.78L29.488 76.5299L30.4876 78.0305L32.7366 76.0297H33.2364V75.5295L36.9849 72.7785L37.9845 71.7781L39.4839 71.0278H40.2336L40.4835 70.2775L41.733 69.7773V69.2771L42.7326 68.2767L44.4819 67.2764Z" fill="#537B31"/>
<path d="M68.4719 23.7593H70.721L70.2212 25.2599L68.222 30.2618L66.7227 36.014L65.7231 42.5165L65.2233 47.7685L63.474 55.2713L62.4744 62.7742L61.9746 63.2744H60.4752L56.7267 65.5252L56.2269 66.0254H51.4789L48.9799 67.2759L47.9803 68.5264H46.7308L45.4813 67.7761V64.5249L45.9811 61.5237H47.4805L49.9795 60.0231L51.9787 59.523H53.728V57.7723L53.4781 57.5222H51.229L48.9799 58.0224L46.9807 59.523L46.231 59.773V57.2721L47.2306 52.5203L49.2298 46.518L51.229 42.5165L53.4781 38.765L56.9766 33.7631L59.2257 30.762L61.4748 28.261L64.2237 25.2599L61.2249 25.5099L54.4777 27.0105L51.9787 27.7608L50.9791 27.5107L56.9766 25.76L58.9758 25.2599L57.9762 24.5096L63.2241 24.0094L68.4719 23.7593Z" fill="#ADD278"/>
<path d="M62.9742 25.0098H64.4736L62.9742 26.7604L61.2249 28.7612L58.9758 31.2622L55.9771 35.5138L52.4785 40.7658L49.9795 45.2675L47.9803 50.7696L46.7308 55.7715L46.231 59.7731L48.2302 58.2725L48.9799 57.7723L51.229 57.2721H53.4781L53.9779 57.7723L53.728 59.523L49.9795 60.2733L47.4805 61.7738L45.9811 61.5237L45.2314 69.7769H44.9815V67.2759L43.4822 68.2763H42.7325L42.2327 69.2767H41.7329V69.7769L40.4834 70.5272L40.2335 71.0274L37.7345 72.2778H37.2347L36.7349 73.2782L33.986 75.279L33.2363 75.5291V76.0293L30.9873 77.7799L30.2376 78.2801L29.4879 76.7796H28.4883V74.5287L29.9877 68.2763L32.7365 59.2729L33.4862 58.2725L35.2355 58.0224L37.2347 56.5218L38.2343 56.0216L39.2339 54.0209L39.9836 52.7704L40.7333 51.0197L42.4826 48.7689L41.9828 47.0182L39.4838 45.5176L38.7341 45.0174L40.7333 41.0159L43.7321 36.2641L46.9807 32.0124L48.9799 29.5115L50.9791 27.7608L57.4764 26.0101L62.9742 25.0098Z" fill="#719547"/>
<path d="M16.993 74.7788L17.9926 75.0289L18.9922 76.5295L20.2417 77.2798L21.4912 78.5302L23.4904 79.0304V79.5306H25.9893L26.739 80.2809V80.7811L27.9885 80.531L28.2384 80.7811L28.4883 91.035L29.238 97.7876L30.7374 104.04L32.7366 111.793L34.7358 118.045L34.9857 119.296L33.2364 118.796V118.295L31.9869 117.795L29.4879 115.794H28.9881V115.294H28.4883V114.794L27.4887 114.294L24.49 112.543V112.043L22.4908 111.793L22.7407 111.043V108.292H22.2409L21.991 107.791L20.9914 108.042L19.9918 109.292L18.4924 109.542L17.9926 108.292L16.4932 100.789L15.7435 94.5364V85.783L16.7431 75.7792L16.993 74.7788Z" fill="#95BE5D"/>
<path d="M82.4662 24.2593H84.7153L90.4629 25.2597L96.7104 26.7602L96.4605 27.2604L98.2098 29.2612L99.7091 30.5117L101.458 30.7618L101.958 32.0122L100.459 31.7621L103.957 36.514L106.456 40.2654L109.455 46.0176L110.705 44.7671L111.954 45.0172L112.204 45.2673V47.5182L111.204 49.0187L111.454 50.2692L113.703 55.021L114.453 57.0218L114.203 57.7721L113.953 57.2719H110.955L108.206 56.5216L105.457 55.021L103.708 53.5205L101.458 52.5201V52.0199L100.709 52.27L100.459 53.5205L99.959 52.5201L98.7096 48.2685L96.9603 44.2669L93.4617 38.2646L90.4629 34.013L88.2138 31.0119L85.465 27.7606L82.4662 24.5094V24.2593Z" fill="#547C31"/>
<path d="M29.238 39.2651L29.7378 39.5152L26.9889 44.017L24.2401 48.2686L23.2405 50.7695L21.2413 54.7711L19.492 58.7726L18.2425 63.0242L17.4928 67.2758L16.993 75.7791L15.9934 85.7829V94.5363L16.7431 100.789L18.4924 109.792L20.2417 114.794L19.9918 115.294L19.2421 114.294V113.794L18.2425 113.293V112.793H17.7427L16.4932 110.542L14.7439 108.542L13.7443 106.041V105.54H13.2445L12.4948 104.04L11.2454 99.5382L9.99587 93.2858L9.74597 90.5347V79.2804L10.4957 72.778L11.7452 67.2758L13.2445 62.0238L14.9938 58.0223L17.9926 52.2701L19.9918 49.269L22.4908 46.0177L24.7399 43.2667L27.4887 40.7657L29.238 39.2651Z" fill="#557D32"/>
<path d="M82.7162 113.544H82.9661V119.296L82.7162 122.297L85.715 121.547L88.9636 120.046L90.463 119.546L93.7117 118.296L97.2103 116.545L97.96 115.795L100.959 114.544H101.459V114.044L102.708 113.544L102.458 116.045L100.959 120.046L98.9595 124.048L96.7105 129.05L95.2111 131.801L91.2127 137.803L88.7137 138.554L82.9661 139.554L76.7186 140.054L79.2176 134.302L81.2168 128.8L82.2164 123.048L82.4663 115.045L82.7162 113.544Z" fill="#719547"/>
<path d="M77.9682 26.7607L78.468 27.2609L79.9674 31.2625L81.7167 38.2651L81.9666 39.7657V42.0166H81.7167L81.2169 39.5156L78.9678 39.0154V38.5152L78.468 38.2651L77.7183 37.5149H75.7191V38.5152L75.4692 39.7657L75.2193 40.2659L75.4692 41.5164L74.9694 44.5175L74.4696 47.0185H73.9698V49.0193L72.9702 51.2701L71.9707 52.7707L70.9711 55.2716L71.221 57.2724L70.4713 58.2728L68.9719 58.5229L68.722 59.5233L66.9727 61.0238H66.4729L65.9731 62.2743L64.9735 63.5248L63.4741 64.2751H62.4745L62.2246 72.0281H61.9747V65.7757L62.9743 56.7722L64.2238 50.7699L64.9735 47.7688L65.9731 38.7653L67.2226 33.0131L67.7224 31.0124H67.9723V32.2628H69.9715L71.7208 32.763L72.2205 33.2632L75.2193 33.5133L76.4688 32.5129L76.2189 31.5126L76.7187 30.5122V29.2617L77.7183 28.2613H78.2181L77.9682 26.7607Z" fill="#709446"/>
<path d="M118.452 95.7871H118.702L118.452 99.7886H119.451L119.701 101.289L118.952 103.04L117.452 103.29L114.453 113.794L112.204 120.547L109.705 125.298L106.707 130.05L105.957 131.051L103.458 132.051L100.459 133.552L93.7118 136.303L91.9625 136.803L92.4623 135.552L95.711 130.55L97.9601 125.799L99.9593 121.297L101.459 118.296L102.208 116.545L103.458 116.045L103.958 115.044L105.957 113.294L106.956 112.293H107.456V111.793H107.956V111.293L109.205 110.043L110.955 108.042L112.954 106.291L114.203 104.29L114.453 103.54H114.953L115.453 101.039L116.203 99.2884L116.453 98.5382L117.202 97.7879L117.952 96.2873L118.452 95.7871Z" fill="#3A5F22"/>
<path d="M96.2107 27.0107L97.96 27.2608L103.458 29.2616L109.705 32.2628L113.204 34.2635L114.703 36.7645L115.703 38.0149L115.453 38.5151L112.704 36.7645L109.455 34.7637L105.457 32.7629L102.458 31.5125L102.958 32.7629L104.457 33.7633L105.707 35.0138V35.514L106.706 36.0142L106.956 36.7645L107.956 37.0146L110.705 38.5151L113.204 40.766L114.453 43.0169L115.703 44.2673L116.952 45.7679L118.452 49.2693L118.951 51.27L119.701 53.2708L120.701 58.0226L121.45 62.5243L121.95 65.2754L122.2 69.7771V75.7794L121.45 80.5312L120.451 83.5324L119.951 85.7832L119.451 86.5335L119.201 76.7798L118.452 72.2781L114.453 57.7725L112.704 53.2708L110.955 49.7694L111.205 48.7691L111.954 47.5186V45.2677L110.705 45.0176L109.455 46.2681L106.956 41.5163L104.457 37.5148L101.209 33.2631L100.459 32.2628V31.7626L101.459 31.5125V31.0123L99.7093 30.7622L97.96 29.2616L96.2107 27.2608V27.0107Z" fill="#96BF5E"/>
<path d="M51.4791 65.7759H54.4779L56.9769 67.0264L58.7261 69.0271L59.9756 71.5281L60.7253 74.5292V79.7812L59.7257 82.7824L58.2263 85.2833L55.9773 87.034L54.7278 87.5342H51.9789L49.7298 86.5338L48.4803 85.5334L46.731 82.7824L45.7314 79.5311V73.2787L46.731 70.0275L48.2304 67.7766L50.2296 66.2761L51.4791 65.7759Z" fill="#3A0E26"/>
<path d="M89.4634 66.0254H92.2123L94.7112 67.2759L95.9607 68.5263L96.9603 69.7768L97.9599 72.0277L98.4597 74.2785V79.0304L97.4601 82.2816L96.2106 84.7826L94.2115 86.7833L92.4622 87.5336H89.4634L86.9644 86.2831L84.9652 84.0323L83.7157 81.0311L83.2159 77.5298L83.4658 74.0285L84.4654 70.7772L85.9648 68.2763L87.7141 66.7757L89.4634 66.0254Z" fill="#3A0E26"/>
<path d="M120.451 43.2671L122.45 44.5176V45.0178H122.95V45.518H123.45V46.0181H123.95L126.948 50.0197L129.697 54.7715L131.696 59.2732L132.696 62.7745L134.445 68.5267L135.445 74.0289L135.945 80.5313L135.695 86.5336L134.695 92.5359L132.446 100.789L130.697 104.791L129.947 105.541V103.79L130.947 98.2881L131.446 94.0365V85.2832L130.197 70.7776L128.698 62.5245L126.948 57.2724L124.949 53.2709L121.451 47.0185L119.951 44.2675V43.7673H120.451V43.2671Z" fill="#3A6022"/>
<path d="M13.4945 105.541L13.9943 106.041L15.2438 108.792L17.243 111.293L17.7428 112.043V112.793H18.2426L19.4921 114.294L19.9919 114.794L18.2426 109.792L18.4925 109.042V109.542H19.2422L19.4921 109.042L20.2418 108.792L21.2413 107.541L22.2409 107.791V108.292H22.7407L22.9906 108.792V111.043L22.4908 111.793L24.49 112.043V112.543L25.7395 113.043L28.4884 114.794V115.294L29.7379 115.794L31.987 117.545L33.2364 118.295V118.796L34.7358 119.046L34.9857 118.045L36.2352 121.547L38.2344 125.298L40.2336 128.549L42.7326 132.301L43.2324 133.301L37.7346 130.55L32.7367 127.299L27.4888 123.297L24.9898 121.046L22.9906 118.796L21.7411 117.295V116.795H21.2413L23.4904 121.547L23.2405 122.047L20.7415 119.546L18.2426 116.295L15.9935 112.793L15.2438 111.793L14.744 109.542L13.4945 106.291V105.541Z" fill="#719547"/>
<path d="M9.74615 103.54L10.2459 104.04L11.7453 108.042L14.4942 113.544L13.9944 115.044L11.9952 118.296L10.7457 121.297L10.9956 125.048L10.4958 126.049L9.99604 126.299H8.49666L7.99686 127.549L6.99727 128.3L4.74819 128.55L2.749 127.799L1.74941 126.049L1.49951 124.298V120.296L2.9989 115.044L4.74819 110.793L6.24757 108.042L8.49666 105.041L9.74615 103.54Z" fill="#96BF5E"/>
<path d="M103.208 35.7637L104.208 37.0142L106.207 39.7652L109.455 46.0176L110.705 44.7671L111.954 45.0172L112.204 45.2673V47.5182L111.205 49.0187L111.455 50.2692L113.704 55.021L114.453 57.0218L114.203 57.7721L113.954 57.2719H110.955L108.206 56.5216L105.457 55.021L103.708 53.5205L101.459 52.5201V52.0199L100.709 52.27L100.459 53.5205L99.9592 52.5201L98.7098 48.2685L98.21 47.018L99.2096 44.0168L99.7093 41.766L100.959 39.7652L101.709 39.0149L101.958 38.0145L103.208 37.7644V35.7637Z" fill="#719547"/>
<path d="M55.7273 24.7593H58.4762L59.2259 25.2595L56.9768 26.0098L51.4791 27.5103H50.9793V28.0105L40.4836 32.0121L35.9854 34.513L31.2373 37.2641L30.4876 37.5142V38.0143L28.4885 39.5149L25.7396 41.7658L22.9907 44.5168L20.4917 48.2683L18.2426 50.7692L16.9932 53.7704L14.994 57.5218L12.9948 62.2736L10.9956 69.5264L9.99601 75.7788L9.49621 81.2809V87.0331L9.99601 94.2859L10.2459 96.2866H10.7457L11.9952 101.539L12.7449 104.04L13.7445 106.29L15.2439 110.292L14.994 111.042L11.9952 105.04L10.2459 99.5379L8.74652 92.5352L8.24672 88.5337L7.99683 85.2824V78.0296L8.74652 70.7769L10.4958 63.0239L11.7453 59.2725L12.7449 57.2717L15.4938 51.5195L18.4925 46.7677L21.4913 43.2664L26.4893 38.2644L29.738 35.7635L33.2365 33.5126L38.9842 30.5115L44.9817 28.0105L46.9809 27.2602L51.2292 25.7597L55.7273 24.7593Z" fill="#D8F1AF"/>
<path d="M135.945 104.541L137.194 105.791L139.443 109.292L141.192 112.794L142.692 117.295L143.192 120.797L142.942 124.798L141.942 126.549L141.442 127.049L139.193 126.799L137.194 125.799L135.695 124.048L134.695 121.297L133.945 119.046L133.696 116.545V113.794L135.445 107.792L135.945 104.541Z" fill="#96BF5E"/>
<path d="M29.2381 39.2651L29.7379 39.5152L26.989 44.017L24.2401 48.2686L23.2405 50.7695L21.2413 54.7711L19.4921 58.7726L18.2426 63.0242L17.4929 67.2759L16.9931 75.7791L15.9935 74.5286L15.4937 74.2785V73.7783H14.9939L13.9943 70.5271V70.0269L12.4949 69.7768L12.245 70.277L11.7452 70.0269L10.9955 73.2781L10.7456 74.5286H10.4957V72.778L11.7452 67.2759L13.2446 62.0238L14.9939 58.0223L17.9927 52.2701L19.9919 49.269L22.4908 46.0177L24.7399 43.2667L27.4888 40.7657L29.2381 39.2651Z" fill="#719547"/>
<path d="M35.9855 121.046H38.4845V121.547L39.484 121.797L42.4828 122.797L44.482 123.547L46.981 124.548L48.2305 125.298L49.48 125.798L52.4787 131.8L55.9773 137.053L55.7274 137.553L52.4787 137.053L48.9802 135.552L45.4816 134.552L43.4824 133.801L39.9838 128.549L36.7352 123.047L35.9855 121.547V121.046Z" fill="#3A5F22"/>
<path d="M76.9685 24.0098H80.4671L82.4663 24.2599L84.4654 26.2606L86.2147 28.2614L88.9636 31.5126L92.4622 36.5145L92.962 37.765H92.2123L91.7125 38.2652V39.2656L88.4638 39.0155L86.2147 39.7658L83.9656 40.0159H82.9661L81.9665 40.266L79.7174 31.2625L77.2184 25.0101L76.9685 24.0098Z" fill="#ADD278"/>
<path d="M32.7366 40.7661H34.4859L35.9853 41.7665L36.7349 43.5172L36.4851 46.0181L35.2356 48.5191L34.236 49.7696H33.7362L33.2364 50.7699L31.737 52.5206H30.9873L30.7374 51.5202L29.238 52.0204L28.7382 53.2709L28.4883 55.0216H25.4895L23.9902 53.7711L23.4904 52.0204L23.7403 49.7696L25.7394 46.0181L27.9885 43.5172L30.4875 41.5164L32.7366 40.7661Z" fill="#DCF4B4"/>
<path d="M81.9667 4.25195H84.4656L86.7147 5.00224L88.9638 6.50281L90.4632 9.00377L90.7131 10.2542V12.0049L89.9634 14.2558L88.7139 15.7564L86.4648 16.5066L84.4656 16.0064L82.9663 14.756L82.4665 13.5055V11.0045L83.2162 8.75367L84.4656 7.5032L85.4652 8.00339H84.9654L84.4656 9.50396L83.9658 10.7544V12.7552L84.9654 14.2558L86.2149 14.756L87.4644 14.0057L88.464 12.255L88.2141 9.75406L87.2145 7.75329L85.7151 6.75291L84.7155 6.50281H82.2166L79.4677 7.5032L77.2186 9.25387L75.4693 11.5047L74.2198 14.0057L73.4701 17.0068V22.0087L71.7208 22.2588H70.2215L69.9716 21.5086V19.0076L70.2215 16.7567L70.4714 16.5066L70.7213 14.756L71.7208 12.5051L72.4705 10.7544H72.9703V10.0042L74.2198 8.75367L75.4693 7.2531L76.4689 6.75291L76.7188 6.25272L77.9683 6.00262V5.50243L80.7172 4.50205L81.9667 4.25195Z" fill="#719547"/>
<path d="M43.4823 86.5337H45.7314L48.2304 87.0339L50.4794 88.2844L51.9788 90.035V92.2859L50.9792 93.7865L47.9805 95.287L46.731 95.5371H43.7322L40.7334 94.7868L38.7342 93.5364L37.7346 92.2859L37.4847 90.035L38.2344 88.7846L39.7338 87.5341L41.9829 86.7838L43.4823 86.5337Z" fill="#C18F97"/>
<path d="M96.7106 86.7832H101.459L104.457 88.0337L105.707 89.2842L106.207 90.2845L105.957 92.5354L104.957 93.7859L101.958 95.2865L100.959 95.5365H96.2108L93.7118 94.5362L92.4623 93.5358L91.7126 92.2853V90.2845L92.7122 88.784L95.2112 87.2834L96.7106 86.7832Z" fill="#C18F97"/>
<path d="M48.7301 141.055L49.9796 141.555L54.4778 143.556L55.7272 144.306L57.2266 151.809V154.81L55.9771 156.06L54.4778 156.811L53.2283 157.061H48.7301L47.2307 156.311L47.4806 155.06L49.2299 153.559L51.2291 153.309L50.9792 152.059L50.2295 150.308L48.98 144.806L48.7301 141.055Z" fill="#96BF5E"/>
<path d="M96.4606 141.304H96.7105V143.555L95.7109 148.557L94.7113 151.558L94.4614 153.309L96.2107 153.559L97.96 155.059L98.2099 156.81L97.96 157.06H93.2119L90.2132 156.31L88.7138 155.059L88.214 153.809L88.7138 148.807L89.7134 144.806L90.713 143.805L95.7109 141.804L96.4606 141.304Z" fill="#95BE5D"/>
<path d="M116.952 39.5151L118.202 40.0153L120.201 42.0161L124.199 45.5174L126.948 49.2689L129.197 52.7702L130.697 55.5213L131.446 57.0218V57.522H132.196L133.696 61.5236L135.195 66.7756L136.195 72.7779L136.694 77.5297V86.5331L136.195 92.0352L135.195 97.2872L133.446 103.039L131.197 108.291L128.947 112.543L127.448 114.794L126.948 114.294L127.198 112.543L128.448 109.292L129.697 104.79H130.447L132.446 100.038L134.445 92.5354L135.445 86.5331L135.695 80.2807L135.195 74.0283L134.195 68.5262L131.946 61.2735L130.947 58.0222L128.698 53.2704L126.199 49.2689L124.199 46.7679L123.95 46.0176H123.45V45.5174H122.95V45.0172H122.45V44.517L121.451 44.0169L120.701 43.5167L119.701 44.0169L116.952 40.0153V39.5151Z" fill="#537B31"/>
<path d="M96.2107 138.303H96.9604V142.055L96.4606 141.554L93.4619 143.055L90.2132 144.306L89.4635 146.556L88.7138 150.308L88.4639 153.809L89.2136 155.31L90.2132 156.06L93.212 156.81L97.96 157.06L97.2103 157.811L96.4606 158.061H90.713L87.4643 157.06L85.9649 155.81L85.715 147.057L85.2152 142.555L84.9653 140.804L90.9629 139.554L96.2107 138.303Z" fill="#719547"/>
<path d="M48.4803 138.303L52.7286 139.304L60.2255 140.804L59.4759 148.057L59.226 155.81L57.9765 157.06L54.9777 158.061H49.23L47.7307 157.561L46.981 156.56L47.2309 155.81V156.31L48.7302 156.81H53.2284L55.4775 156.06L56.727 155.31L56.9769 154.81V151.808L55.4775 144.306L51.729 142.555L48.7302 141.054L48.4803 138.303Z" fill="#719547"/>
<path d="M8.49666 105.291L8.99645 106.041L9.74615 110.793L10.7457 113.794L11.2455 114.795V116.545L9.74615 115.545L8.24676 115.295L7.49706 116.045V117.796L6.99727 118.296H5.99768L5.74778 120.047L4.99808 121.797L4.24839 123.798L3.4987 125.049L1.74941 125.299L1.49951 124.298V120.297L2.9989 115.045L4.74819 110.793L6.24757 108.042L8.24676 105.541L8.49666 105.291Z" fill="#ADD278"/>
<path d="M70.7212 23.7593H73.47L76.9686 24.0094L77.9682 26.2602L78.2181 28.261H77.7183L77.2185 29.2614L76.9686 30.5119L76.4688 32.0124L76.7187 32.7627L74.9694 33.7631L72.2206 33.513L71.221 32.7627L67.9723 32.2625V30.2618L69.9715 25.2599L70.7212 23.7593Z" fill="#537B31"/>
<path d="M105.707 39.0151H108.206L109.955 39.7654V40.2656L111.205 40.7658L112.954 42.7666L113.704 44.017L114.203 45.0174L115.203 45.5176L116.453 47.7685L117.202 50.7696V53.7708L115.953 55.5214L114.453 56.2717H113.954L112.204 52.2702L110.955 49.7692L111.205 48.7689L111.954 47.5184V45.2675L110.705 45.0174L109.455 46.2679L106.956 41.5161L105.707 39.5153V39.0151Z" fill="#ADD278"/>
<path d="M62.9743 25.0098H64.4737L62.9743 26.7604L61.225 28.7612H58.7261L57.4766 29.7616L56.9768 31.7623L57.2267 33.0128L55.7273 32.7627L52.9784 33.0128L49.9796 32.5126L48.98 31.7623V31.2622L48.2303 31.0121L48.4802 30.0117L50.4794 28.0109L56.477 26.2602L61.225 25.2599L62.9743 25.0098Z" fill="#537B31"/>
<path d="M38.4844 45.2676L39.7339 45.5177L42.2329 47.0182L42.7327 48.7689L40.9834 51.0198L40.2337 52.7704L38.7343 55.5215L37.7348 56.5219L36.2354 57.5223L35.4857 57.7724L35.2358 58.2726L33.4865 58.5226L32.9867 58.7727L33.4865 56.5219L35.4857 51.52L38.4844 45.2676Z" fill="#96BF5E"/>
<path d="M9.74604 103.54L10.2458 104.04L11.7452 108.042L14.4941 113.544L13.9943 115.044L11.9951 118.296L10.7456 121.297L10.9955 125.048L10.4957 126.049L9.99594 126.299H8.49655L7.99676 127.549L6.99717 128.3L4.74809 128.55L2.7489 127.799V127.049L3.2487 127.549L5.49778 127.299L7.74686 125.799L8.74645 124.548L11.2454 117.045L10.9955 114.794L9.99594 112.293L8.99635 108.292L8.49655 105.041L9.74604 103.54Z" fill="#709446"/>
<path d="M134.945 103.54L135.944 104.04L136.194 104.54L135.445 108.792L133.945 113.794V116.545L134.445 119.796L135.695 123.548L136.694 125.048L138.443 126.299L139.943 126.799H141.442L142.192 126.299L141.692 127.299L139.443 128.049L137.194 127.799L135.944 126.549L135.695 126.049L133.945 125.548L133.445 124.548L133.695 122.547L133.945 121.297L132.196 117.295L130.197 114.044L132.196 110.043L134.695 104.29L134.945 103.54Z" fill="#709446"/>
<path d="M21.2413 116.795H21.7411L24.2401 120.046L26.7391 122.547L31.737 126.299L34.9857 128.549L37.7346 130.3L42.7326 132.801L44.4818 134.802L43.4823 135.052L38.9841 133.051L33.7362 130.3L28.4884 126.799V126.299L27.4888 125.798L24.9898 123.798L23.4904 122.047L21.2413 117.295V116.795Z" fill="#94BD5D"/>
<path d="M135.945 104.541L137.194 105.791L139.443 109.292L141.192 112.794L142.692 117.295L143.192 120.797L142.942 124.298L141.692 124.798L140.943 124.548L140.693 124.048L140.443 120.046L141.442 118.046L140.943 116.795L138.444 116.545L137.944 116.295L137.694 113.294L137.444 112.544L136.944 112.293L136.444 111.543L137.444 109.292L137.194 108.042L135.945 105.541V104.541Z" fill="#ADD278"/>
<path d="M96.2107 27.0107L97.96 27.2608L103.458 29.2616L109.705 32.2628L113.204 34.2635L114.703 36.7645L115.703 38.0149L115.453 38.5151L112.704 36.7645L109.455 34.7637L105.457 32.7629L104.707 32.0127L99.7093 29.7618L97.7101 29.0115L96.2107 27.2608V27.0107Z" fill="#A9CF74"/>
<path d="M54.4779 68.7769H56.727L57.9765 70.0273L58.4763 71.2778V74.0289L57.9765 75.5294L56.727 76.5298H54.9777L53.7282 75.2793L52.9785 73.7788V70.5275L54.4779 68.7769Z" fill="#EDECEA"/>
<path d="M87.4644 69.0264H89.2137L90.713 70.2768L90.9629 71.0271V74.0283L89.9634 76.029L89.2137 76.5292H87.2145L85.965 75.2788L85.7151 74.2784V71.2772L86.4648 70.0267L87.4644 69.0264Z" fill="#F0F1ED"/>
<path d="M77.4685 83.2822L78.468 83.5323V85.283L77.4685 86.7836L75.9691 88.034L74.2198 88.7843L71.4709 89.0344L68.9719 88.2841L66.9727 86.7836L65.9731 85.283V83.7824L67.2226 83.5323L68.4721 85.5331L70.7212 86.7836H73.4701L75.9691 85.5331L76.9687 83.5323L77.4685 83.2822Z" fill="#3A0D26"/>
<path d="M29.9879 38.0146L30.2378 39.015L28.7384 40.0154L25.2398 43.0166L22.9907 45.5175L20.4917 49.0189L18.7425 51.5198L15.4938 57.5221L13.9944 60.7734L12.495 65.2751L10.9956 71.5275L10.2459 76.5294L9.99603 79.2804V90.5347L10.4958 94.7864V96.2869L9.99603 95.5366L9.49624 91.285L9.24634 87.0334V81.2812L9.99603 73.7783L10.9956 68.5263L12.9948 61.5236L14.2443 58.7726L17.493 52.2701L17.9928 50.5194L19.2423 49.269L19.992 49.0189L20.4917 48.0185L22.241 45.2674L24.4901 42.7665L26.2394 41.0158L28.4885 39.2651L29.9879 38.0146Z" fill="#AACF74"/>
<path d="M125.449 115.044H125.949L125.699 116.295L124.449 118.796L123.2 120.046L121.451 122.047L119.201 124.298L118.202 124.798L117.452 125.799L116.702 126.049L116.203 126.799H115.453L115.203 127.549L114.453 128.049H113.704V128.55H112.954V129.05H112.204V129.55H111.455V130.05L110.205 130.3V130.8L108.456 131.051L108.956 129.8L110.955 128.3L113.454 127.049L118.952 122.547L120.951 120.797L123.45 117.545H123.949L124.699 116.045H125.199L125.449 115.044Z" fill="#92BB5C"/>
<path d="M81.9665 4.25195H84.4655L86.7146 5.00224L88.9636 6.50281L90.463 9.00377L90.7129 10.2542V12.0049H89.9632L89.4634 9.75406L88.2139 7.2531L86.9645 6.25272L84.2156 5.25234L81.2168 5.50243L78.218 6.75291L75.9689 8.50358L74.2197 10.2542L72.2205 13.7556L71.2209 16.7567L70.7211 18.5074H70.4712V16.5066L70.7211 14.756L71.7207 12.5051L72.4704 10.7544H72.9702V10.0042L74.2197 8.75367L75.4692 7.2531L76.4687 6.75291L76.7186 6.25272L77.9681 6.00262V5.50243L80.717 4.50205L81.9665 4.25195Z" fill="#A6CC71"/>
<path d="M100.459 0H101.958L103.208 1.00038L103.458 1.75067V3.75143H102.958L101.958 5.25201L100.459 6.50249L99.2095 7.00268H96.2107L90.713 5.7522L88.4639 5.5021L88.214 5.00191H88.9637L88.7138 4.00153H91.2128L96.2107 5.5021H99.4594L100.959 4.75182L101.958 3.50134V1.50057L100.709 1.25048L100.459 2.50096L99.7093 2.25086V0.750287L100.459 0Z" fill="#486D2B"/>
<path d="M68.4721 23.7593H70.7212L70.2214 25.2599L68.722 29.0113H67.9723L67.7224 28.261L68.2222 27.5107L67.9723 26.7604H66.7228V26.2602H66.223V25.76L64.4737 25.2599L61.2251 25.5099L54.4778 27.0105L51.9788 27.7608L50.9792 27.5107L56.9768 25.76L58.976 25.2599L57.9764 24.5096L63.2242 24.0094L68.4721 23.7593Z" fill="#AFD37A"/>
<path d="M116.952 39.5151L118.202 40.0153L120.201 42.0161L124.199 45.5174L126.948 49.2689L129.197 52.7702L130.697 55.5213L131.446 57.0218V57.522H132.196L133.696 61.5236L134.445 64.2746V65.275L133.696 65.0249L132.696 62.0237V61.5236L131.946 61.2735L130.947 58.0222L128.698 53.2704L126.199 49.2689L124.199 46.7679L123.95 46.0176H123.45V45.5174H122.95V45.0172H122.45V44.517L121.451 44.0169L120.701 43.5167L119.701 44.0169L116.952 40.0153V39.5151Z" fill="#537B31"/>
<path d="M82.4662 24.2593H84.7153L90.4629 25.2597L96.7104 26.7602L96.4605 27.2604L97.4601 28.761L96.2106 28.5109L90.213 26.7602L87.714 26.26H85.9648L84.9652 26.5101L84.7153 27.0103L82.4662 24.5094V24.2593Z" fill="#719547"/>
<path d="M104.957 131.05L105.957 131.3L104.457 133.301L104.957 133.551L101.209 135.052L97.2103 136.302L94.9612 137.053L91.9625 137.803H91.2128L91.7126 136.552L94.4614 135.802L100.959 133.051L104.957 131.05Z" fill="#547B31"/>
<path d="M90.2131 57.522H93.2118L96.2106 58.7725L97.71 60.0229L97.9599 61.7736L97.71 62.0237H96.4605L93.9615 60.5231L91.4625 59.7728L89.9632 59.2726L89.7133 59.0225V57.7721L90.2131 57.522Z" fill="#3A1326"/>
<path d="M64.2238 25.2598L65.7232 25.5099L66.223 25.76V26.2601H66.7228V26.7603H67.9723L68.4721 27.7607H67.9723L68.2222 29.0112L68.4721 29.5114L67.9723 31.012L67.7224 30.5118L66.4729 30.0116L65.9731 29.2613L61.9748 28.7611L61.7249 28.0108L64.2238 25.2598Z" fill="#96BF5E"/>
<path d="M51.2291 57.2725H53.4781L53.9779 57.7727L53.728 59.5233L49.9796 60.2736L47.4806 61.7742L46.2311 61.5241L45.9812 60.7738L46.7309 59.5233L48.2303 58.2728L48.98 57.7727L51.2291 57.2725Z" fill="#3B1426"/>
<path d="M96.4607 141.304H96.7106V143.555L95.711 148.557L94.2116 153.059H93.9618V151.808L93.2121 151.558L92.9622 150.058L94.2116 148.057H94.7114L94.9613 147.056V144.555L93.462 143.555V142.805L96.4607 141.304Z" fill="#ADD278"/>
<path d="M48.7302 141.055L49.9797 141.555L53.2284 143.055L52.9785 143.806L51.4791 144.056L50.7294 145.306L50.9793 148.808L51.2292 150.308V152.059L50.7294 151.809L49.4799 147.307L48.9801 144.806L48.7302 141.055Z" fill="#ACD177"/>
<path d="M21.9911 59.2729H23.7404L24.4901 60.2733V62.024L23.7404 63.5246L22.7408 64.2749H21.4913L20.4917 63.0244V61.5238L21.7412 59.523L21.9911 59.2729Z" fill="#DDF5B5"/>
<path d="M14.9938 59.2729L15.9934 60.0232L16.2433 62.7743L15.7435 65.5253L14.9938 66.2756L13.2445 66.0255L12.7448 65.0251L14.494 59.7731L14.9938 59.2729Z" fill="#537B31"/>
<path d="M70.7212 23.7593H73.4701L76.9686 24.0094L77.2185 25.0098H74.7196V25.5099L73.72 25.76V26.2602L72.7204 26.7604L70.4713 27.0105L69.2218 27.5107L69.9715 25.2599L70.7212 23.7593Z" fill="#719547"/>
<path d="M55.4775 70.2773L57.2268 70.5274L57.7266 71.0276V72.5282L56.4771 73.2785H55.9773L55.7274 74.7791L53.9781 75.2793L53.4783 75.0292L52.9785 73.7787V70.5274H53.2284L53.4783 72.2781L55.2276 71.7779L55.4775 70.2773Z" fill="#DAEEB4"/>
<path d="M62.9743 25.0098H64.4737L63.724 25.7601H61.7248L58.4761 26.2602L58.9759 27.5107L55.9771 28.7612L55.7272 28.5111L51.7289 28.261H50.4794L50.9792 27.7608L57.4765 26.0101L62.9743 25.0098Z" fill="#719547"/>
<path d="M137.944 107.542H138.443L140.443 111.043L141.692 113.794L142.692 117.295L142.942 118.796V121.797L142.442 121.047L141.192 116.045L139.693 112.293L137.694 108.292L137.944 107.542Z" fill="#D3EDA9"/>
<path d="M6.997 107.792L7.2469 108.292L4.49802 113.544L2.99864 118.296L1.99904 122.297H1.74915V119.796L2.74874 115.795L3.99823 112.543L5.99741 108.542L6.997 107.792Z" fill="#D4EEAA"/>
<path d="M88.7138 4.00146H91.2128L91.7126 4.25156V4.75175L96.4606 6.25233H99.4594L101.209 5.25194L101.708 5.50204L100.459 6.50242L99.2095 7.00261H96.2107L90.713 5.75213L88.4639 5.50204L88.214 5.00185H88.9637L88.7138 4.00146Z" fill="#709347"/>
<path d="M54.4778 68.7769H56.7268L57.9763 70.0273V71.2778L56.7268 70.5275L55.4774 70.2774V71.778L54.7277 72.2782L53.2283 72.5283V70.0273L54.4778 68.7769Z" fill="#F3F3F2"/>
<path d="M74.7195 54.7715L75.7191 55.0216L76.2188 56.022V58.0227L75.4692 59.2732L74.2197 59.5233L73.47 58.773V56.5222L74.4696 55.0216L74.7195 54.7715Z" fill="#3A5F22"/>
<path d="M21.2413 107.542L22.2409 107.792V108.292H22.7407L22.9906 108.792V111.043L21.991 112.043H20.7415L20.2417 111.543V108.792L21.2413 107.542Z" fill="#3A1525"/>
<path d="M116.952 39.5151L118.202 40.0153L120.201 42.0161L124.199 45.5174L126.948 49.2689L126.698 49.7691L123.95 46.5178V46.0176H123.45V45.5174H122.95V45.0172H122.45V44.517L121.451 44.0169L120.701 43.5167L119.701 44.0169L116.952 40.0153V39.5151Z" fill="#527A30"/>
<path d="M97.4602 105.541H98.7097L98.9596 106.541V109.292L98.2099 110.042H96.9604L96.4606 109.542V107.291L97.4602 105.541Z" fill="#3B1726"/>
<path d="M110.705 44.7676L111.954 45.0177L112.204 45.2678V47.5186L111.205 49.0192H109.705L109.455 48.7691V46.7683L110.205 45.2678L110.705 44.7676Z" fill="#406326"/>
<path d="M29.4881 51.52H30.7376L31.2374 52.5204V54.7713L30.2378 56.0217L28.9883 55.7716L28.7384 55.0214V52.5204L29.4881 51.52Z" fill="#446928"/>
<path d="M28.9882 76.5298L29.9878 77.03V79.5309L29.2381 80.7814L28.4884 81.0315L27.4888 80.5313L27.2389 80.0311V78.2805L28.2385 76.7799L28.9882 76.5298Z" fill="#3D6324"/>
<path d="M49.9796 153.309H51.2291L51.7289 155.059L51.479 156.31L49.7297 156.06V155.559L47.2307 156.06L47.7305 154.809L49.2299 153.559L49.9796 153.309Z" fill="#ADD278"/>
<path d="M94.4614 153.559H96.2107L97.7101 154.81V156.56L97.4602 156.81H96.2107V155.81L95.461 156.56L94.7113 156.31L94.4614 154.559V153.559Z" fill="#B3D680"/>
<path d="M11.2455 99.5386H11.4954L12.7449 104.04L13.7445 106.291L15.2439 110.293L14.994 111.043L11.9952 105.041L10.9956 101.789L11.2455 99.5386Z" fill="#C0DF90"/>
<path d="M97.96 134.302L98.7097 134.552L97.4602 135.302L96.4606 136.052L96.9604 136.553L91.9625 137.803H91.2128L91.7126 136.553L94.4614 135.802L97.96 134.302Z" fill="#537B31"/>
<path d="M131.946 103.04H133.196L132.446 105.541L130.947 108.542H130.197L129.947 108.042L131.446 103.79L131.946 103.04Z" fill="#719547"/>
<path d="M87.4644 69.0264H89.2137V69.2765L87.4644 69.7767V70.2768V70.777L88.464 71.0271L88.7139 72.5277L86.9646 73.0279L86.2149 72.2776L85.965 74.2784H85.7151V71.2772L86.4648 70.0267L87.4644 69.0264Z" fill="#D8E7B6"/>
<path d="M92.7122 81.0312H94.2116V81.5314H94.7114V83.2821L93.9617 84.0324H92.7122L91.9625 83.2821V81.7815L92.7122 81.0312Z" fill="#E5E1E0"/>
<path d="M100.459 0H101.958L103.208 1.00038L103.458 1.75067V3.75143H102.958L101.958 5.25201L101.709 4.75182L102.458 3.25124L101.958 1.50057L100.709 1.25048L100.459 2.50096L99.7094 2.25086V0.750287L100.459 0Z" fill="#4F7430"/>
<path d="M43.2323 133.051L44.4818 133.301L52.2286 136.052L55.9771 137.053L55.7272 137.553L52.4785 137.053L48.98 135.552L45.4814 134.552L43.4822 133.802L43.2323 133.051Z" fill="#537B31"/>
<path d="M96.4606 141.304H96.7105V143.555L96.2107 143.305L95.7109 145.806H95.2111L94.7113 144.305L93.4618 143.555V142.805L96.4606 141.304Z" fill="#ACD176"/>
<path d="M49.9797 81.0312H51.4791L51.729 81.2813V83.2821L51.2292 83.7823H49.9797L49.23 83.2821V81.7815L49.9797 81.0312Z" fill="#EDEBEA"/>
<path d="M86.9646 6.00244H88.464L89.9634 8.00321L90.7131 10.2541V12.0047H89.9634L89.4636 9.75388L88.2141 7.25292L86.9646 6.00244Z" fill="#9BC266"/>
<path d="M131.946 57.522L132.446 58.0222L134.195 63.2742L134.445 65.2749L133.695 65.0248L132.446 61.5235L131.946 58.5224L131.696 57.7721L131.946 57.522Z" fill="#719547"/>
<path d="M118.202 99.0386L118.452 99.7889H119.451L119.701 101.289L118.951 103.04L117.702 103.29L117.452 102.29L118.202 99.0386Z" fill="#49702B"/>
<path d="M22.4908 108.292L22.9906 108.792V111.043L21.991 112.043H20.7415L20.2417 111.543V110.293L21.4912 110.043H22.2409L22.4908 109.292V108.292Z" fill="#426727"/>
<path d="M106.706 130.8H107.456V131.3H107.956V132.05L105.457 133.301H104.457L104.957 132.3L105.957 131.05L106.706 130.8Z" fill="#91BA5B"/>
<path d="M49.23 143.305L49.7298 144.055L50.2296 145.806L50.7294 150.307H50.2296L49.23 146.306V143.305Z" fill="#D3EEA9"/>
<path d="M56.7268 137.803L63.9738 139.054V139.304H60.2254L57.4765 138.804L56.7268 138.303V137.803Z" fill="#90B85A"/>
<path d="M29.2381 80.5308H29.7379L29.488 81.7812L28.4884 82.0313V91.0348H28.2385V80.7809L29.2381 80.5308Z" fill="#719547"/>
<path d="M26.4892 123.798L27.9886 124.048V124.548H28.4884L28.7383 126.049H27.7387L25.9894 124.548L26.4892 123.798Z" fill="#ADD278"/>
<path d="M98.4598 134.552H99.9591L100.459 135.052L97.96 136.052L96.4606 136.302V135.552L98.4598 134.552Z" fill="#719547"/>
<path d="M102.958 2.75146H103.208V4.50213L101.708 6.5029L99.9591 7.50328H99.4594L99.9591 6.5029L101.459 5.50252L102.458 4.25204L102.958 2.75146Z" fill="#456A29"/>
<path d="M101.958 0.500488L103.208 1.00068L103.458 1.75097V3.75173H102.958L101.958 5.25231L101.708 4.75211L102.458 3.25154L101.958 1.00068V0.500488Z" fill="#5B8137"/>
<path d="M17.2429 110.292L18.7423 110.543L19.492 112.793L19.2421 113.544L17.7427 111.793L17.2429 110.292Z" fill="#3C6123"/>
<path d="M134.945 109.792L135.695 110.043L135.944 111.293H135.445L134.695 113.544L134.195 113.794L134.445 111.543L134.945 109.792Z" fill="#A8CE72"/>
<path d="M135.945 104.541L137.194 105.791L138.194 107.542L137.444 108.292L135.945 105.541V104.541Z" fill="#ADD278"/>
<path d="M98.9597 30.2617L100.709 30.5118L101.709 31.012L101.958 32.0124L100.459 31.7623L100.209 32.2625L98.9597 30.7619V30.2617Z" fill="#719547"/>
<path d="M96.2108 142.805H96.4607V145.306L95.9609 147.557H95.4611L95.711 144.305L96.2108 142.805Z" fill="#D4EEA9"/>
<path d="M8.4964 106.041H8.99619L9.24609 109.292L7.9966 108.792L7.7467 108.042L8.4964 106.041Z" fill="#96BF5E"/>
<path d="M49.23 153.559H50.4794L50.2296 154.559L48.7302 155.31L47.9805 155.06L48.4803 154.059L49.23 153.559Z" fill="#D9F2B0"/>
<path d="M95.9609 5.75244H99.4595V6.50273H96.4607L95.9609 6.25263V5.75244Z" fill="#4A702D"/>
<path d="M70.2215 16.7568H70.4714L70.7213 19.5079V22.0088H70.2215L69.9716 21.5087V19.0077L70.2215 16.7568Z" fill="#86AD54"/>
<path d="M29.9877 38.0146L30.2376 39.015L28.7382 40.0154L26.739 41.516L27.2388 40.5156L29.9877 38.0146Z" fill="#A5CB70"/>
<path d="M43.2323 133.051L44.4818 133.301L46.7309 134.302V134.552L44.4818 134.302L43.2323 133.551V133.051Z" fill="#557D32"/>
<path d="M22.7407 45.0171L22.9906 45.5173L20.4916 49.0186L19.9918 48.5184L21.991 45.7674L22.7407 45.0171Z" fill="#A8CE73"/>
<path d="M89.9632 8.50391L90.463 9.0041L90.7129 10.2546V12.0052H89.9632L89.4634 9.25419H89.9632V8.50391Z" fill="#8AB156"/>
<path d="M54.4778 68.7769H56.7268V69.027L55.4774 69.277L54.4778 70.2774H53.7281L53.2283 70.5275L53.7281 69.5271L54.4778 68.7769Z" fill="#DCE6BF"/>
<path d="M56.7268 137.803L59.7256 138.303L59.9755 139.054L57.4765 138.804L56.7268 138.303V137.803Z" fill="#8BB357"/>
<path d="M117.952 101.54H118.452L118.951 102.29V103.04L117.702 103.29L117.452 102.29L117.952 101.54Z" fill="#537B31"/>
<path d="M104.457 132.051L104.957 132.551L104.457 133.301L104.957 133.551L103.458 133.801L103.208 132.801L104.457 132.051Z" fill="#719547"/>
</svg>
