<svg width="137" height="145" viewBox="0 0 137 145" fill="none" xmlns="http://www.w3.org/2000/svg">
<path d="M69.2045 0L70.3815 0.23539L73.6769 4.70779L75.0893 6.8263V7.29708H75.5601V6.8263L78.6201 4.70779L81.6802 3.06006H83.3279L83.5633 3.29545L83.7987 6.59091L84.5049 9.18019L84.7403 9.88636L86.8588 9.18019L89.6834 8.47403H92.7435L93.2143 8.94481L92.9789 10.5925L90.8604 14.1234L89.6834 16.7127L92.0373 17.6542L97.6867 19.5373L101.924 21.4205L105.69 23.3036L109.221 25.4221L112.987 28.2468L115.341 30.3653L118.872 33.8961L121.932 37.8977L123.815 40.9578L125.698 44.4886L127.581 48.961L128.993 53.4334L130.406 59.789L131.112 65.6737V76.9724L130.877 79.5617L130.406 82.151L129.7 86.1526L128.758 89.4481V90.625L130.641 92.7435L132.995 96.2743L134.878 100.041L136.055 103.336L136.997 107.573V111.339L136.526 113.222L135.349 115.106L134.172 116.047L132.524 116.753H130.406L128.523 115.812L127.581 114.635L125.933 114.164L124.992 112.516V110.162L125.227 108.75L123.344 104.748L122.638 103.571L121.932 103.807L119.813 106.631L117.224 109.692L114.399 112.516L111.81 114.635L108.279 117.224L104.748 119.343L100.747 121.461L97.2159 123.109L93.4497 124.286L93.2143 129.7L92.2727 134.172L91.5666 136.997V137.938L92.9789 138.88L94.3912 140.528L94.6266 141.234V142.881L93.4497 144.294L91.5666 145H85.6818L82.3864 144.058L80.5032 142.411L80.0325 141.469L79.7971 131.583L79.3263 128.758V127.581L74.3831 128.052H62.3782L58.3766 127.581L58.1412 130.877L57.9058 132.76L57.6705 141.705L56.7289 143.117L55.5519 144.058L52.4919 145H46.3718L44.2532 144.294L43.3117 143.117V140.763L44.9594 138.88L46.3718 137.938H46.8425L45.6656 134.643L44.724 128.993V124.286L42.3701 123.815L38.6039 122.403L34.1315 120.284L28.9529 117.224L25.6575 114.87L22.5974 112.281L20.0081 109.927L18.3604 108.044L15.7711 104.748L14.8295 103.336L13.888 104.513L11.7695 108.75V112.987L10.8279 114.399L10.3571 114.87H8.94481L8.47403 116.047L6.8263 116.989H3.29545L1.41234 115.576L0.23539 113.693L0 112.281V108.75L0.706169 104.748L2.11851 100.747L4.70779 95.8036L7.06169 92.5081L8.47403 90.8604L8.23864 89.2127L7.06169 84.9756L5.88474 77.2078L5.64935 74.3831V67.086L6.35552 60.7305L7.06169 56.9643L8.47403 51.5503L10.3571 46.6071L12.2403 42.8409L14.1234 39.5455L17.1834 35.3084L20.0081 32.2484L23.539 28.7175L27.3052 25.8929L32.2484 22.8328L38.8393 19.7727L41.664 18.8312L43.3117 18.125L47.3133 16.9481L47.7841 16.7127L47.5487 15.0649L46.1364 12.711L43.5471 9.65097V8.47403L43.7825 8.23864H47.7841L49.6672 8.70942L52.7273 9.88636L53.6688 10.3571L54.1396 9.18019L55.5519 6.12013L56.0227 3.06006L56.4935 2.58929L57.6705 2.82468L61.4367 4.94318L64.026 7.06169L64.4967 5.88474L66.3799 3.53084L69.2045 0Z" fill="#383E91"/>
<path d="M69.2045 0L70.3815 0.23539L73.6769 4.70779L75.0893 6.8263V7.29708H75.5601V6.8263L78.6201 4.70779L81.6802 3.06006H83.3279L83.5633 3.29545L83.7987 6.59091L84.5049 9.18019L84.7403 9.88636L86.8588 9.18019L89.6834 8.47403H92.7435L93.2143 8.94481L92.9789 10.5925L90.8604 14.1234L89.6834 16.7127L92.0373 17.6542L97.6867 19.5373L101.924 21.4205L105.69 23.3036L109.221 25.4221L112.987 28.2468L115.341 30.3653L118.872 33.8961L121.932 37.8977L123.815 40.9578L125.698 44.4886L127.581 48.961L128.993 53.4334L130.406 59.789L131.112 65.6737V76.9724L130.877 79.5617L130.406 82.151L129.7 86.1526L128.758 89.4481V90.625L130.641 92.7435L132.995 96.2743L134.878 100.041L136.055 103.336L136.997 107.573V111.339L136.526 113.222L135.349 115.106L134.172 116.047L132.524 116.753H130.406L128.523 115.812L127.581 114.635L125.933 114.164L124.992 112.516V110.162L125.227 108.75L123.344 104.748L122.638 103.571L121.932 103.807L119.813 106.631L117.224 109.692L114.399 112.516L111.81 114.635L108.279 117.224L104.748 119.343L100.747 121.461L97.2159 123.109L93.4497 124.286L93.2143 129.7L92.2727 134.172L91.5666 136.997V137.938L92.9789 138.88L94.3912 140.528L94.6266 141.234V142.881L93.4497 144.294L91.5666 145H85.6818L82.3864 144.058L80.5032 142.411L80.0325 141.469L79.7971 131.583L79.3263 128.758V127.581L74.3831 128.052H62.3782L58.3766 127.581L58.1412 130.877L57.9058 132.76L57.6705 141.705L56.7289 143.117L55.5519 144.058L52.4919 145H46.3718L44.2532 144.294L43.3117 143.117V140.763L44.9594 138.88L46.3718 137.938H46.8425L45.6656 134.643L44.724 128.993V124.286L42.3701 123.815L38.6039 122.403L34.1315 120.284L28.9529 117.224L25.6575 114.87L22.5974 112.281L20.0081 109.927L18.3604 108.044L15.7711 104.748L14.8295 103.336L13.888 104.513L11.7695 108.75V112.987L10.8279 114.399L10.3571 114.87H8.94481L8.47403 116.047L6.8263 116.989H3.29545L1.41234 115.576L0.23539 113.693L0 112.281V108.75L0.706169 104.748L2.11851 100.747L4.70779 95.8036L7.06169 92.5081L8.47403 90.8604L8.23864 89.2127L7.06169 84.9756L5.88474 77.2078L5.64935 74.3831V67.086L6.35552 60.7305L7.06169 56.9643L8.47403 51.5503L10.3571 46.6071L12.2403 42.8409L14.1234 39.5455L17.1834 35.3084L20.0081 32.2484L23.539 28.7175L27.3052 25.8929L32.2484 22.8328L38.8393 19.7727L41.664 18.8312L43.3117 18.125L47.3133 16.9481L47.7841 16.7127L47.5487 15.0649L46.1364 12.711L43.5471 9.65097V8.47403L43.7825 8.23864H47.7841L49.6672 8.70942L52.7273 9.88636L53.6688 10.3571L54.1396 9.18019L55.5519 6.12013L56.0227 3.06006L56.4935 2.58929L57.6705 2.82468L61.4367 4.94318L64.026 7.06169L64.4967 5.88474L66.3799 3.53084L69.2045 0ZM47.3133 18.5958L40.487 20.9497L36.0146 22.8328L31.5422 25.1867L28.2468 27.3052L25.4221 29.4237L23.0682 31.5422L19.3019 35.3084L16.4773 39.0747L14.1234 42.8409L12.2403 46.6071L10.3571 51.3149L9.18019 55.5519L8.23864 59.789L7.53247 64.4967V76.737L8.00325 80.974L9.88636 88.9773L11.2987 92.9789L12.9464 96.5097L15.3003 100.982L17.8896 104.748L20.4789 107.808L24.4805 111.81L27.3052 113.929L30.3653 116.047L32.4838 117.459L36.25 119.343L40.9578 121.461L47.3133 123.58L54.375 125.227L61.9075 126.169L65.2029 126.404H69.6753V126.169L64.4967 125.698L61.9075 125.227L57.9058 124.521L54.1396 123.58L50.6088 123.109L45.6656 121.461L41.664 120.049L35.0731 116.753L31.3068 114.399L28.0114 111.81H27.3052L26.8344 110.869L25.6575 109.692L23.3036 107.573L21.4205 105.69L18.8312 102.394L17.4188 100.276V99.8052L19.0666 100.511L20.9497 101.688L23.539 103.101L27.3052 104.984L29.4237 106.161H30.1299L30.3653 106.867L32.013 107.808L34.1315 108.279L35.7792 108.985L39.3101 110.398L42.1347 111.575L45.901 112.752L50.6088 113.693L53.6688 114.399L56.7289 114.87H63.5552L65.6737 114.635H72.0292L77.4432 113.693L80.974 112.752L85.211 111.339L87.5649 109.927L90.3896 108.515L90.8604 107.808L92.5081 107.102V106.631L93.9205 106.161L95.8036 104.984L97.4513 104.042L98.6282 102.865V102.394L100.276 101.924L101.453 100.982V100.511L102.394 100.041L103.571 98.8636L106.396 96.9805L107.573 96.039L108.75 94.862L109.456 94.3912V93.9205H109.927L110.869 92.5081L111.575 91.8019L112.752 89.6834L114.399 84.7403L115.576 80.7386L117.224 75.7955L117.695 74.1477L118.636 69.9107L119.343 66.1445V63.3198L118.872 58.3766L118.166 53.4334L116.753 48.2549L116.047 46.3718L115.576 43.7825L114.635 41.8993L114.164 38.8393L113.222 36.4854L111.81 33.8961L110.398 32.7192L109.456 30.836L110.869 31.0714L112.281 32.7192L113.693 33.8961H114.164V34.3669L116.047 36.0146L118.401 38.6039L120.755 42.1347L122.638 45.6656L124.286 49.4318L125.933 54.1396L127.581 60.4951L128.052 64.026L128.287 67.3214V73.9123L127.581 79.7971L125.698 87.0942L124.286 91.0958L123.109 93.9205L121.226 97.6867L119.578 100.747L116.753 104.748L113.929 108.044L111.339 110.398L110.869 110.633V111.104L109.927 111.575L105.925 114.399L101.453 116.989L96.039 119.578L91.3312 121.461L87.0942 123.109L81.9156 124.521L81.4448 124.756V125.227L85.211 124.756L90.8604 123.344L95.8036 121.696L102.159 118.872L104.748 117.224L106.867 116.047L109.456 114.164L110.869 113.222V112.752L111.81 112.281L113.693 110.633L117.459 106.867L119.107 104.748V104.278H119.578L122.403 99.8052L124.286 96.2743L126.64 90.3896L128.052 85.4464L129.229 78.3847L129.464 74.8539V66.8506L128.758 60.7305L127.581 54.6104L126.169 50.6088L125.463 48.4903L123.815 44.724L122.638 42.3701L120.049 38.1331L116.989 34.3669L113.222 30.6006L109.927 28.0114L106.396 25.6575L103.807 24.2451L100.041 22.362L93.9205 20.0081L89.4481 18.5958L88.5065 19.0666L88.2711 19.7727L90.1542 20.7143L88.2711 22.1266L84.5049 24.0097L82.3864 24.2451L81.9156 24.7159L81.6802 25.1867L77.4432 26.1282L74.3831 26.599H72.7354L70.3815 25.8929L69.9107 25.6575H68.4984L67.7922 25.8929V26.3636L64.7321 26.1282H62.849L61.2013 25.8929L59.789 25.4221L59.5536 24.9513L57.4351 24.2451L54.375 23.3036H53.6688V22.8328L52.0211 22.362L51.0795 21.4205L49.1964 19.7727L48.961 19.3019H48.4903V18.5958H47.3133Z" fill="#1E2152"/>
<path d="M109.456 30.6006L110.869 30.836L112.281 32.4837L114.164 33.896V34.3668L115.106 34.8376V35.3084L116.047 35.7792L118.636 38.6038L120.99 42.1347L122.873 45.6655L124.521 49.4318L126.169 54.1395L127.817 60.4951L128.287 64.0259L128.523 67.3214V73.9123L127.817 79.797L125.933 87.0941L124.521 91.0957L123.344 93.9204L121.461 97.6866L119.813 100.747L116.989 104.748L114.164 108.044L112.516 109.691L111.339 110.633H110.869V111.104L106.396 114.399L101.453 117.224L96.039 119.813L91.3312 121.696L87.0942 123.344L81.9156 124.756H81.4448V125.227L82.151 125.463L74.6185 126.404L71.3231 126.64H66.6153L67.5569 126.169L64.4968 125.933L61.9075 125.463L57.9059 124.756L54.1396 123.815L50.6088 123.344L45.6656 121.696L41.664 120.284L35.0731 116.989L31.3068 114.635L28.0114 112.045L27.3052 111.81L26.1283 110.162L24.2452 108.75L21.1851 105.69L18.5958 102.394L17.1835 100.276L17.4189 99.5697L19.0666 100.276L20.9497 101.453L23.539 102.865L30.1299 106.161L30.8361 106.867L32.013 107.573L34.1315 108.044L35.7793 108.75L39.3101 110.162L42.1348 111.339L45.901 112.516L50.6088 113.458L53.6689 114.164L56.7289 114.635H63.5552L65.6737 114.399H72.0293L77.4432 113.458L80.9741 112.516L85.2111 111.104L87.565 109.691L90.1543 108.515L90.8604 107.573L91.802 107.102H92.5081V106.631L94.6267 105.454L97.2159 104.042L98.6283 102.394L100.982 101.217L103.101 98.8636L106.396 96.7451L107.573 95.5681L108.985 94.3912H109.456V93.9204H109.927L110.398 92.7434L111.339 92.2727L111.81 90.8603L112.516 89.6834L114.164 84.7402L115.341 80.7386L116.989 75.7954L117.459 74.1477L118.401 69.9107L119.107 66.1444V63.3197L118.636 58.3766L117.93 53.4334L116.518 48.2548L115.812 46.3717L115.341 43.7824L114.399 41.8993L113.929 38.8392L112.987 36.4853L111.81 34.3668V33.896L110.869 33.4253L109.456 31.5421L109.221 30.836L109.456 30.6006Z" fill="#282D73"/>
<path d="M68.7338 8.94482L69.44 9.18021L71.0877 11.7695L74.1478 15.3003L76.737 18.125H77.914L80.0325 15.5357L82.151 13.4172L85.9172 11.2987L88.5065 10.3572L89.4481 10.1218H91.3312L89.6835 12.7111L88.5065 15.065L87.0942 19.0666L85.9172 18.5958L83.7987 20.2435L80.9741 21.6559L80.2679 22.8328L78.1494 23.0682H75.5601L74.1478 23.539L70.6169 24.0098L69.44 24.4805H66.8507L64.7322 24.0098L64.026 23.539H60.4952L56.7289 22.5974L56.0228 22.1266V21.6559L54.8458 21.1851L53.1981 20.2435H51.315L50.138 19.302L49.6672 16.9481L48.9611 14.3588L47.0779 11.2987L45.901 10.1218V9.65099L48.4903 9.88638L50.8442 10.8279L53.1981 12.0049L55.7874 13.888L58.3766 16.4773L59.5536 18.3604V18.8312H60.2598V18.3604L62.1429 16.7127L64.9676 13.888L67.0861 11.2987L68.7338 8.94482Z" fill="#525DA3"/>
<path d="M48.4903 56.729H52.0212L53.9043 57.6706L55.7874 59.7891L56.9644 62.143L57.6705 65.203V68.9693L56.9644 72.0293L55.552 74.6186L53.9043 76.2663L51.7858 77.2079H49.1965L47.078 76.2663L45.4303 74.6186L44.0179 71.7939L43.5472 70.1462L43.3118 68.2631V64.9676L43.7825 62.6137L44.7241 60.2598L46.1364 58.3767L47.5488 57.1998L48.4903 56.729Z" fill="#1A1D4B"/>
<path d="M84.7403 56.9644H87.3296L89.6835 58.1413L91.5666 60.2598L92.5082 62.1429L93.2144 65.6738V68.2631L92.5082 71.5585L91.0958 74.3832L89.4481 76.2663L87.3296 77.2079L85.6819 77.4433L83.328 76.7371L81.4449 75.3247L79.7971 72.7355L79.091 70.3816L78.8556 68.4984V66.1446L79.3264 63.3199L80.5033 60.2598L82.3864 58.1413L84.7403 56.9644Z" fill="#1A1D4B"/>
<path d="M88.9773 18.5957L91.5666 19.3019L97.2159 21.185L101.688 23.0681L104.278 24.4804L108.279 26.8343L112.045 29.659L115.106 32.4837L117.695 35.073L120.52 38.8392L122.167 41.4285L124.05 45.1947L125.933 49.4317L126.875 52.4918L127.581 54.6103L128.758 60.7304L129.464 66.8506V74.8538L128.994 80.0324L128.052 85.4464L126.404 91.0957L124.05 96.745L122.167 100.276L119.578 104.278H119.107L118.636 105.454L115.341 108.985L112.281 112.045L111.339 112.752H110.869V113.222L109.456 114.164L106.867 116.047L102.865 118.401L99.099 120.284L95.8036 121.696L90.1542 123.579L83.7987 124.992L81.4448 125.227V124.756L85.9172 123.344L87.8003 122.873L95.5682 119.813L100.511 117.459L105.925 114.399L109.927 111.575L110.869 111.104V110.633L113.222 108.75L114.87 107.102L117.459 103.807L120.284 99.5697L123.58 92.9788L125.698 87.0941L127.581 79.797L128.287 73.9123V67.3214L127.817 62.1428L127.11 58.8473L125.698 53.4334L124.05 48.961L121.461 43.3116L119.107 39.5454L116.282 36.2499L115.106 35.3084L114.164 34.3668V33.896L113.222 33.4252L111.339 31.7775L110.398 30.836L106.161 28.0113L102.63 25.8928L96.5098 23.0681L90.1542 20.2434L88.2711 19.7727L88.7419 18.8311L88.9773 18.5957Z" fill="#454D9A"/>
<path d="M100.276 30.1299H102.865L104.278 30.8361L107.102 33.6607V34.1315L107.573 34.3669L108.985 36.25L109.927 37.427L111.575 40.7224L112.046 42.8409L112.281 45.1948L111.81 46.6072L109.692 47.5487H107.809L107.102 47.0779L105.455 46.6072L102.63 45.6656L101.688 45.1948L100.982 44.2533L99.0991 43.3117V42.8409L98.1576 42.3701L96.5098 39.7809L96.0391 36.9562L96.2745 35.0731L96.9806 32.7192L97.6868 31.5422L98.6283 30.6007L100.276 30.1299Z" fill="#525DA3"/>
<path d="M47.3133 18.5957H48.4903L48.7257 20.008L42.3701 22.5973H41.664V23.0681L39.3101 23.7743L35.5438 25.6574L32.013 27.7759L30.1299 28.7175L29.1883 28.9528L28.9529 29.659L26.3636 31.7775L23.0682 34.6022L22.362 35.073L21.6558 36.2499L20.9497 36.7207L20.7143 37.4269H20.2435L20.0081 38.3684L19.0666 40.2515L17.8896 40.7223L17.6542 41.6639L15.7711 44.9593L12.9464 50.8441L11.7695 54.3749L9.88637 61.672L9.1802 68.2629V77.4431L9.65098 82.3863L9.88637 82.8571L10.1218 84.9756L10.8279 86.8587L11.5341 90.1541L12.4757 93.2142L13.888 96.7451V97.4512H14.3588L15.0649 99.3343L14.8295 100.041L12.4757 95.5681L10.5925 91.0957L9.65098 88.0356L8.00325 80.974L7.53247 76.7369V64.4967L8.47403 58.3765L9.88637 52.7272L11.5341 48.2548L13.6526 43.547L16.0065 39.7808L18.3604 36.4853L21.1851 33.4252L24.7159 29.8944L28.9529 26.8343L32.4838 24.7158L36.0146 22.8327L42.3701 20.2434L47.3133 18.5957Z" fill="#ABACCA"/>
<path d="M91.5666 124.756H92.0373V128.052L90.8604 134.643L89.6835 137.703V138.88L91.3312 139.351L92.7435 140.527L93.2143 141.469L92.9789 142.646L91.802 143.352L90.8604 143.588H86.388L83.7987 143.117V142.646L82.6218 142.411L81.4448 141.234L81.2094 130.876L80.7386 127.11L81.2094 126.875L84.5049 126.404L91.0958 124.992L91.5666 124.756Z" fill="#7286BF"/>
<path d="M8.94482 92.0371L9.65099 92.2725L10.5925 95.0972L12.9464 100.04L13.6526 101.217L13.4172 102.63L11.5341 105.69L10.3572 108.044L10.1218 109.927L10.5925 111.104L10.3572 112.751L9.88638 113.458L8.23865 113.693L7.29709 115.105L6.35554 115.576H3.76625L2.35391 114.399L1.64774 112.987L1.41235 111.81V108.514L2.5893 103.571L4.9432 97.9218L7.29709 94.391L8.70943 92.5079L8.94482 92.0371Z" fill="#7386BF"/>
<path d="M127.817 92.0371L129.464 93.4494L132.054 97.4511L133.937 101.453L135.114 105.454L135.584 107.808V110.868L135.114 112.751L134.172 114.164L133.231 114.87L132.524 115.105H130.406L129.229 114.399L128.994 113.693L126.875 113.222L126.404 112.281V109.927H126.875L126.404 107.337L124.286 103.336L124.05 102.63H123.58L123.344 101.217H123.815L124.05 100.04L124.286 99.5696H124.757L125.227 97.9218L126.64 95.0972L127.817 92.0371Z" fill="#7387BF"/>
<path d="M69.44 1.8833L70.1462 2.11869L71.7939 4.70798L73.677 7.06187V8.00343H74.1478L74.6186 8.7096L75.7955 8.47421L78.8556 6.3557L81.6802 4.70798H82.151L82.6218 8.23882L83.0926 10.1219V11.2989L80.9741 12.7112L79.5617 13.8882L78.8556 14.8297H78.3848L77.914 16.0067L77.2078 16.4775L76.0309 15.0651L75.7955 14.1236L74.6186 13.6528V13.182H74.1478V12.7112L73.4416 12.4758L70.8523 9.18038L70.6169 8.00343H70.1462V7.29726H69.6754V6.82648H68.263V7.29726H67.7923L67.5569 8.47421L65.9091 10.3573L63.7906 12.9466L62.8491 13.4174L62.3783 14.3589L60.4952 16.7128H60.0244L58.6121 14.3589L56.2582 12.4758L54.8458 11.5343L55.0812 10.5927L56.4936 7.76804L57.4351 4.70798L58.8474 5.17876L62.1429 7.53265L63.5552 8.7096L64.4968 8.47421L64.7322 8.00343H65.203L65.6737 6.82648L68.0276 3.76642L69.44 1.8833Z" fill="#282D73"/>
<path d="M46.1363 124.992L52.2565 126.404L56.9643 127.346V129.699L56.7289 130.876L56.2581 141.469L55.5519 142.411H54.8458V142.881L51.5503 143.587H46.8425L45.1948 143.117L44.724 142.646V141.234L45.9009 139.821L47.5487 139.115H48.4902L47.5487 136.055L47.0779 134.407L46.1363 129.229V124.992Z" fill="#7387BF"/>
<path d="M97.6866 27.3052L98.8635 27.5406L99.8051 28.0113L101.924 28.4821L104.278 29.6591V30.1299L105.219 30.3652L106.631 31.3068L107.808 33.4253V33.8961H108.279L110.162 36.25L110.633 37.4269L111.104 37.6623L112.281 39.7808L113.458 43.3117L113.928 46.3717L114.164 48.7256V50.8441L113.458 51.5503L111.339 51.7857L109.691 51.5503L106.161 50.6087L103.571 49.1964L101.688 47.7841L100.511 47.0779L99.3343 45.901L97.922 44.724L97.4512 44.0178L95.8035 43.3117L94.6265 41.6639L93.685 39.0747L93.4496 37.4269V35.7792L94.1558 32.4837L94.8619 30.1299L96.2743 28.0113L97.6866 27.3052ZM100.276 30.1299L98.6282 30.6006L97.6866 31.5422L96.5096 33.8961L96.0389 36.25L96.2743 38.8393L96.9804 40.7224L98.6282 42.8409H99.0989V43.3117L101.217 44.4886L102.159 45.4302L105.69 46.8425L107.573 47.3133L108.044 47.5487H109.691L111.81 46.6071L112.281 44.4886L111.81 41.4286L110.868 39.0747L109.927 37.4269L108.515 35.7792L107.573 34.1315H107.102V33.6607L104.278 30.836L102.63 30.1299H100.276Z" fill="#464E9B"/>
<path d="M89.448 10.1221H91.3311L89.6834 12.7114L88.5064 15.0653L87.0941 19.0669L85.9172 18.5961L83.7987 20.2438L80.974 21.6562L80.2678 22.8331L78.1493 23.0685H75.56L74.1477 23.5393L70.6168 24.0101L69.4399 24.4808H66.8506L64.7321 24.0101L64.0259 23.5393H60.4951L56.7288 22.5977L56.0227 22.1269V21.6562L54.8457 21.1854L53.198 20.2438H51.3149L50.1379 19.0669H51.7857L52.9626 19.5377L53.4334 18.5961H54.8457L55.5519 18.3607L56.0227 18.5961L56.7288 21.4208L58.1412 21.6562L60.9659 22.3623H62.3782L62.849 20.95H63.3198V20.4792L65.909 19.0669L66.1444 18.3607L68.9691 18.5961L71.7938 19.3023L72.7353 20.7146L73.9123 21.6562L74.1477 22.5977L76.737 22.3623L80.5032 21.4208L80.974 19.5377L80.7386 18.5961L79.797 18.1253L80.0324 16.9484L81.6801 15.3006L83.5633 13.8883L86.3879 12.2406L89.9188 10.8282H90.3896V10.3575L89.448 10.1221Z" fill="#434B99"/>
<path d="M91.802 76.502H95.8036L98.3929 77.4435L100.276 79.0912L100.511 79.7974V81.4451L99.5698 83.0929L96.9806 84.5052L94.862 84.976H91.802L89.4481 84.5052L87.565 83.0929L86.6234 81.6805L86.8588 79.562L88.2711 77.9143L90.1543 76.9727L91.802 76.502Z" fill="#BC8AAB"/>
<path d="M11.5341 90.8604L12.2402 91.5665L13.4172 94.6266L14.3587 96.0389L16.7126 99.8052L18.5957 102.63L18.8311 103.571L19.7727 104.042L21.185 105.219L22.8328 107.102L24.9513 109.221L26.599 110.398L27.3052 111.339V111.81L28.2467 112.045L31.3068 114.399L34.3668 116.282L37.6623 118.166L41.4285 119.813L44.0178 120.99L49.4318 122.638L51.5503 123.344L55.0811 123.815L60.2597 124.992L63.7906 125.463L64.4967 125.698L69.6753 126.169V126.404H65.2029L57.6704 125.698L52.0211 124.756L44.9594 122.873L39.31 120.755L33.8961 118.166L31.0714 116.518L28.2467 114.635L25.422 112.516L22.5974 109.927L19.5373 106.867L17.1834 103.807L14.8295 100.276L14.5941 98.6282L14.3587 97.4513H13.888L11.5341 91.3311V90.8604Z" fill="#4F5AA1"/>
<path d="M40.0162 76.502H44.724L47.3133 77.4435L48.961 78.8558L49.4318 79.7974V81.6805L48.4903 83.0929L47.3133 84.0344L44.9594 84.7406H40.487L37.8977 83.799L36.0146 82.3867L35.5438 81.2097L35.7792 79.0912L36.7208 77.9143L39.0747 76.7373L40.0162 76.502Z" fill="#BC8AAB"/>
<path d="M91.5666 124.756H92.0373V128.052L91.802 129.7H91.5666V127.816L89.2127 128.993L86.1526 130.17H85.4464L84.7403 132.995L84.0341 136.055V140.292L84.9757 141.469L87.5649 142.411L91.802 142.646L91.5666 141.704L92.0373 141.469V142.175L92.7435 141.704L92.9789 140.998L93.2143 142.175L92.5081 143.117L90.8604 143.588H86.388L83.7987 143.117V142.646L82.6218 142.411L81.4448 141.234L81.2094 130.876L80.7386 127.11L81.2094 126.875L84.5049 126.404L91.0958 124.992L91.5666 124.756Z" fill="#515CA2"/>
<path d="M46.1363 124.992L52.2565 126.404L56.9643 127.346V129.699L56.7289 130.876L56.2581 141.469L55.5519 142.411H54.8458V142.881L51.5503 143.587H46.8425L45.1948 143.117L44.724 142.175L46.3717 142.646H49.1964L52.4919 141.94L53.9042 140.998L54.1396 140.763V136.526L53.6688 133.701L52.7272 130.406L48.2548 128.523L46.3717 127.581V129.229H46.1363V124.992Z" fill="#515CA2"/>
<path d="M57.4351 4.70752L58.8474 5.1783L62.1429 7.5322L63.5552 8.70914L64.4968 8.47375L64.9676 8.00297H65.4384L67.7923 7.76758L67.3215 8.70914L65.9091 10.3569L63.7906 12.9462L62.8491 13.4169L62.3783 14.3585L60.4952 16.7124H60.0244L58.6121 14.3585L56.2582 12.4754L54.8458 11.5338L55.0812 10.5923L56.4936 7.76758L57.4351 4.70752Z" fill="#282D73"/>
<path d="M68.7338 8.94482L69.44 9.18021L71.0877 11.7695L74.1478 15.3003L76.737 18.125H77.914L80.0325 15.5357L82.151 13.4172L85.9172 11.2987L88.5065 10.3572H90.3896V10.8279L87.0942 12.2403L84.2695 13.6526L82.3864 15.065L80.0325 17.1835L78.3848 19.302L76.9724 19.5374L75.5601 18.5958L71.5585 14.5942L69.6754 12.0049L69.2046 10.8279L68.4984 11.5341L68.263 12.0049H67.7922L67.5568 12.9464L64.026 16.7127L62.1429 18.3604L60.9659 19.302L59.789 19.5374L58.8474 19.0666L57.1997 16.9481L56.2581 15.7711L52.0211 12.7111L49.1965 11.5341V11.0633L48.4903 11.2987V11.7695H48.9611L49.9026 13.4172L50.8442 16.4773V18.5958L49.9026 18.3604L49.1965 14.8296L47.3133 11.5341L45.901 10.1218V9.65099L48.4903 9.88638L50.8442 10.8279L53.1981 12.0049L55.7874 13.888L58.3766 16.4773L59.5536 18.3604V18.8312H60.2598V18.3604L62.1429 16.7127L64.9676 13.888L67.0861 11.2987L68.7338 8.94482Z" fill="#9093BC"/>
<path d="M88.9773 18.5957L91.5666 19.3019L97.2159 21.185L101.688 23.0681L104.278 24.4804L108.279 26.8343L112.045 29.659L115.106 32.4837L117.695 35.073L120.519 38.8392L122.167 41.4285L124.05 45.1947L125.227 47.784L124.992 48.7256L123.815 46.6071L122.167 43.0762L120.519 40.4869L118.636 37.6623L118.401 36.9561L117.224 36.7207L115.341 35.073V34.6022L114.164 34.3668V33.896L113.222 33.4252L111.339 31.7775L110.398 30.836L106.161 28.0113L102.63 25.8928L96.5098 23.0681L90.1542 20.2434L88.2711 19.7727L88.7419 18.8311L88.9773 18.5957Z" fill="#505AA1"/>
<path d="M102.159 32.9546L104.042 33.19L106.867 36.7208L107.102 37.6624H107.573L108.044 40.0163L107.573 41.664L105.69 42.841L103.571 42.6056L101.688 41.664L100.511 40.7224L99.3344 39.3101L98.8636 36.25L99.3344 34.3669L100.511 33.4254L102.159 32.9546Z" fill="#7177B2"/>
<path d="M88.0358 19.3022L88.2711 19.773L89.9189 20.2438L90.3897 20.95L87.8004 22.5977L84.5049 24.2454L82.6218 24.4808L81.2095 25.4224L76.0309 26.5993L72.7354 26.8347L70.3815 26.1285L69.9108 25.8932H68.4984L67.7923 26.3639H62.8491L61.2013 26.1285L58.8475 24.9516L58.6121 24.4808H62.8491V24.01L60.7306 23.7746L61.6721 23.3039H64.026L65.4384 24.01L68.4984 24.2454H69.6754L71.5585 23.5393L74.1478 23.3039L75.5601 22.8331H78.1494L79.5617 23.0685L78.8556 23.5393L73.2062 24.7162H76.2663L80.5033 23.7746L84.9757 22.1269L87.3296 20.4792L88.0358 19.3022Z" fill="#282D73"/>
<path d="M11.5341 53.1978H11.7695L11.5341 55.3163L9.88637 61.6718L9.1802 68.2627V77.4429L9.65098 82.3861L9.88637 82.8568L10.1218 84.9753L10.8279 86.8585L11.5341 90.1539L12.4757 93.214L13.888 96.7448V97.451H14.3588L15.0649 99.3341L14.8295 100.04L12.4757 95.5679L10.5925 91.0955L9.65098 88.0354L8.00325 80.9737L7.53247 76.7367V64.4965L8.47403 58.3763L8.70942 57.1994L9.1802 57.9055H10.1218L11.0633 54.8455L11.5341 53.1978Z" fill="#B2B2CE"/>
<path d="M8.94476 92.0371L9.65093 92.2725L10.5925 95.0972L12.9464 100.04L13.6526 101.217L13.4172 102.63L11.534 105.69L10.3571 108.044L10.1217 109.927L10.5925 111.104L10.3571 112.751L9.88632 113.458L8.23859 113.693L7.29703 115.105L6.35547 115.576H3.76619L3.29541 114.87L5.64931 114.399L7.53242 112.987L8.70937 111.574L9.65093 107.808L10.8279 104.513L10.3571 102.63L8.94476 98.3926L8.47398 94.6264V92.9787L8.94476 92.0371Z" fill="#515CA2"/>
<path d="M127.817 92.0371L128.523 92.5079V95.0972L126.64 102.63V104.748L127.581 108.044L128.287 111.104L129.935 112.987L131.818 114.164H133.231L133.701 114.635L132.524 115.105H130.406L129.229 114.399L128.994 113.693L126.875 113.222L126.404 112.281V109.927H126.875L126.404 107.337L124.286 103.336L124.05 102.63H123.58L123.344 101.217H123.815L124.05 100.04L124.286 99.5696H124.757L125.227 97.9218L126.64 95.0972L127.817 92.0371Z" fill="#515CA2"/>
<path d="M19.5374 38.1333L19.7727 38.8395L19.0666 40.2518L17.8896 40.7226L17.6542 41.6641L15.7711 44.9596L12.9464 50.8443L12.0049 53.669L11.5341 53.9044L10.3572 58.1414H8.94482V56.4937L10.1218 52.0213L11.5341 48.2551L13.6526 43.5473L16.0065 39.781L16.4773 39.5456L17.1835 40.0164H18.125L18.5958 39.3102H19.0666L19.5374 38.1333Z" fill="#B3B4CF"/>
<path d="M117.695 36.9561H118.401L120.755 40.4869L122.403 43.0762L124.05 46.607L125.227 48.4901L125.698 48.7255L126.875 52.4918L127.581 54.6103L128.758 60.7304L129.464 66.8505V74.8538L128.994 80.0324L128.052 85.4463L126.404 91.0957H125.698L124.757 91.3311L126.169 87.8002L127.581 81.6801L128.052 79.5616L128.758 73.4414V68.0275L128.287 62.6135L127.581 58.8473L126.64 55.7872L125.933 52.9625L124.757 49.6671L124.992 49.1963H124.521L121.696 43.0762L119.343 39.31L117.695 37.1914V36.9561Z" fill="#444C99"/>
<path d="M68.7337 8.94482L69.4399 9.18021L71.0876 11.7695L74.1477 15.3003L76.737 18.125H77.9139L80.0324 15.5357L82.1509 13.4172L85.9172 11.2987L88.5065 10.3572H90.3896V10.8279L87.0941 12.2403L84.2695 13.6526L82.3863 15.065L80.0324 17.1835L78.3847 19.302L76.9724 19.5374L75.56 18.5958L71.5584 14.5942L69.6753 12.0049L69.2045 10.8279L68.4984 11.5341L68.263 12.0049H67.7922L67.5568 12.9464L67.086 13.1818L66.6152 11.7695L68.4984 9.4156L68.7337 8.94482Z" fill="#9295BD"/>
<path d="M51.7858 59.5537H53.9043L55.0812 60.966L55.552 62.143V64.4969L54.6104 66.38L53.9043 66.8508H52.0211L50.8442 65.4385L50.3734 64.4969V61.4368L51.0796 60.0245L51.7858 59.5537Z" fill="#F0F0F2"/>
<path d="M82.8572 59.7891H84.5049L85.6819 60.7306L86.1527 61.6722V64.2615L85.4465 65.9092L84.2695 67.0861H82.6218L81.2095 65.4384V61.9076L81.9156 60.7306L82.8572 59.7891Z" fill="#EFEFF2"/>
<path d="M69.4399 1.8833L70.1461 2.11869L71.7938 4.70798L73.6769 7.06187V8.00343H74.1477L74.3831 9.41577L72.2646 8.94499L70.6169 8.7096V8.00343H70.1461V7.29726H69.6753V6.82648H68.263V7.29726H67.7922L67.5568 8.00343L65.4383 8.23882L64.9675 8.47421L65.4383 7.06187L68.0276 3.76642L69.4399 1.8833Z" fill="#394092"/>
<path d="M26.3637 28.7178L27.3052 29.1886L27.0698 30.1301H26.599L26.3637 31.3071L25.6575 31.7778L24.9513 32.9548L22.362 35.0733L21.6559 36.2502L20.9497 36.721L20.7143 37.4272H20.2435L20.0081 38.3687H19.5374L19.0666 39.3103L18.125 40.2519L16.9481 40.0165L16.4773 39.7811L16.7127 38.6041L18.8312 36.0149L20.9497 33.661L24.7159 29.8947L26.3637 28.7178Z" fill="#B7B7D1"/>
<path d="M114.87 34.6021H115.341V35.0728L116.282 35.5436L118.166 37.4267L120.519 40.7222L122.638 44.4884L124.521 48.7254V49.1962H124.992L125.463 51.3147L126.64 54.3748L127.581 58.3764L128.287 60.9657L128.758 64.7319L128.993 68.0274V73.4413L128.052 81.2092L126.875 85.4462L126.169 88.2709L125.227 90.8602L124.521 92.0371L123.58 94.391L122.167 96.9803L121.932 96.2741L123.58 92.9787L125.698 87.0939L127.581 79.7969L128.287 73.9121V67.3212L127.817 62.1426L127.11 58.8472L125.698 53.4332L124.05 48.9608L121.461 43.3115L119.107 39.5452L116.282 36.2498L115.106 35.3082L114.87 34.6021Z" fill="#383E92"/>
<path d="M89.448 10.1221H91.3311L89.6834 12.7114L88.5065 14.1237H88.0357L87.8003 13.4175L87.3295 14.8299H86.8587L85.6818 18.3607L84.5048 17.8899L82.1509 17.4191L80.974 16.0068L83.5633 13.8883L86.388 12.2406L89.9188 10.8282H90.3896V10.3575L89.448 10.1221Z" fill="#525CA2"/>
<path d="M81.6802 4.70752H82.151L82.6217 8.23836L83.0925 10.1215V11.063H82.6217L82.151 10.1215L81.2094 10.5923L79.0909 10.8276L78.8555 10.3569L76.737 10.1215L75.7954 9.88609L75.5601 8.70914L78.8555 6.35525L81.6802 4.70752Z" fill="#394093"/>
<path d="M73.2062 73.2061L74.1477 73.4414L74.3831 73.6768L74.1477 75.56L72.7354 77.2077L70.3815 78.3846L67.7922 78.62L65.4383 77.9138L63.5552 76.5015L62.6136 75.0892V73.6768L63.7906 73.4414L64.9675 75.3246L66.3799 76.2661L67.0861 76.5015H69.6753L71.7938 75.56L72.9708 73.4414L73.2062 73.2061Z" fill="#1A1D4A"/>
<path d="M121.461 97.4517L121.696 97.9224L119.813 101.689L118.872 102.866L115.341 107.573H114.87V108.044H114.399V108.515H113.929V108.986H113.458V109.457L111.339 111.104L107.573 114.164L106.632 114.4V114.87L103.336 116.518L101.688 117.46L96.9805 119.814L94.1559 120.991L90.625 122.403H90.1542V123.345L89.2127 123.815L83.7987 124.992L81.4448 125.228V124.757L85.9172 123.345L87.8003 122.874L95.5682 119.814L100.511 117.46L105.925 114.4L109.927 111.575L110.869 111.104V110.633L113.222 108.75L114.87 107.103L117.459 103.807L120.284 99.5702L121.461 97.4517Z" fill="#383E92"/>
<path d="M125.933 90.625L126.169 91.5666L124.757 95.0974L122.873 99.099L120.049 103.571L119.578 104.278H119.107L118.636 105.455L117.224 106.631L116.989 104.984L118.401 103.336L119.343 101.924L120.755 99.5698L121.696 96.9805L122.167 96.7451L124.05 92.9789L124.757 91.3312L125.933 90.625Z" fill="#454D9A"/>
<path d="M87.8004 13.1816L88.2711 13.417V13.6524L89.2127 13.417L88.7419 14.594L87.0942 19.0664L85.9172 18.5956L83.7987 20.2433L82.3864 20.9495L80.5033 21.1849L80.9741 19.5372L80.7387 18.5956L79.7971 18.1248L80.0325 16.9479L80.7387 16.2417L81.6802 16.4771L82.151 17.1833L84.9757 17.654L85.2111 18.1248H85.6819L86.388 15.7709L86.8588 14.8294H87.3296V13.6524L87.8004 13.1816Z" fill="#454C9A"/>
<path d="M48.4903 48.4902H51.0796L51.5504 48.961V50.3734L51.0796 50.8441L48.2549 51.3149L45.901 52.4919L45.4302 52.9626H44.0179L43.5471 52.7272V51.5503L45.1948 49.9026L46.3718 49.1964H47.5487V48.7256L48.4903 48.4902Z" fill="#1D2052"/>
<path d="M102.159 32.9546L104.042 33.19L106.867 36.7208L107.102 37.6624H107.573L108.044 40.0163L107.573 41.664L105.69 42.841L103.571 42.6056L101.688 41.664L100.511 40.7224L99.3344 39.3101L98.8636 36.25L99.3344 34.3669L100.511 33.4254L102.159 32.9546ZM102.63 33.4254L101.218 33.8961L100.041 34.3669L99.5698 35.3085L99.3344 36.4854L99.5698 37.6624L100.747 40.0163L101.924 41.1932L103.101 41.664L104.748 41.8994L106.867 41.1932L107.338 38.8393L106.632 37.427L104.984 34.8377L103.807 33.8961H103.336L103.101 33.4254H102.63Z" fill="#6572B4"/>
<path d="M86.1525 48.7256L89.2126 49.1964L91.0957 50.1379L92.5081 51.3149L92.7434 52.9626L92.5081 53.198H91.3311L89.2126 51.7857L87.0941 51.0795L85.4464 50.8441L84.9756 50.3733L85.211 48.961L86.1525 48.7256Z" fill="#1A1D4A"/>
<path d="M7.76783 93.6851H8.23861L7.53245 95.8036L5.17855 100.276L4.0016 102.865L2.35387 108.75L1.88309 110.633H1.64771V107.102L2.82465 102.865L4.94316 97.9221L7.29706 94.3912L7.76783 93.6851Z" fill="#AAACCB"/>
<path d="M128.994 93.4497H129.464L132.054 97.4513L133.937 101.453L135.114 105.455L135.349 106.632V109.692L134.878 108.985L133.231 102.865L131.347 98.6283L129.464 94.862L128.994 93.4497Z" fill="#A9ABCA"/>
<path d="M100.747 118.166L101.924 118.401V118.872L97.9221 120.755L95.0974 121.932L90.8604 123.344H89.6835L90.1543 122.403L92.9789 121.226L96.7452 119.813L99.0991 118.636H100.276L100.747 118.166Z" fill="#454D9A"/>
<path d="M81.2094 20.9497L81.6802 21.1851L80.7387 22.1267L80.2679 22.8328L78.1494 23.0682H75.5601L74.1478 23.539L70.6169 24.0098L69.44 24.4806H66.8507L64.7322 24.0098L64.026 23.539V23.0682H71.5585L77.6786 22.1267L81.2094 20.9497Z" fill="#383E92"/>
<path d="M117.695 36.9561H118.401L120.755 40.4869L122.403 43.0762L124.05 46.607L125.227 48.4901L125.698 48.7255L126.875 52.4918L127.581 54.6103L127.817 57.6703L127.581 56.7288L126.875 56.4934L125.933 52.9625L124.757 49.6671L124.992 49.1963H124.521L121.696 43.0762L119.343 39.31L117.695 37.1914V36.9561Z" fill="#464E9B"/>
<path d="M88.5065 10.3569H90.3896V10.8277L87.0942 12.2401L84.2695 13.6524L82.3864 15.0647L80.9741 15.7709L79.0909 17.4186V16.7125L80.7387 14.8293L82.8572 12.9462L86.8588 10.8277L88.5065 10.3569Z" fill="#8F93BC"/>
<path d="M19.5373 38.1333L19.7727 38.8395L19.0665 40.2518L17.8896 40.7226L17.6542 41.6641L15.7711 44.9596L14.3588 47.7843L14.1234 47.0781L15.5357 44.018L14.3588 43.5473L13.6526 44.018L14.1234 42.8411L16.0065 39.781L16.4773 39.5456L17.1834 40.0164H18.125L18.5958 39.3102H19.0665L19.5373 38.1333Z" fill="#B2B3CE"/>
<path d="M45.901 9.65088L48.4903 9.88627L50.138 10.5924V11.2986H48.4903V11.7694H48.9611L49.9026 13.4171L50.8442 16.4772V18.5957L49.9026 18.3603L49.1965 14.8295L47.3133 11.534L45.901 10.1217V9.65088Z" fill="#A7AACA"/>
<path d="M30.3653 25.8931L30.8361 26.1285L30.3653 27.3054L31.7776 27.5408V27.07L33.19 26.8346L32.4838 27.5408L30.1299 28.7177L29.1884 28.9531L28.953 29.6593L26.3637 31.7778L25.4221 32.2486L25.8929 31.307H26.3637L26.5991 30.1301H27.0698L26.8345 28.9531V28.247L30.3653 25.8931Z" fill="#B3B4CF"/>
<path d="M57.4351 4.70752L58.8474 5.1783L62.1429 7.53219L63.0844 8.47375V8.94453L62.1429 8.70914L58.612 6.35525L58.1412 6.11986L57.9059 7.29681L56.0227 11.063L55.3166 11.5338L55.0812 10.5923L56.4935 7.76758L57.4351 4.70752Z" fill="#6F81BB"/>
<path d="M69.4399 1.8833L70.1461 2.11869L71.7938 4.70798L73.2062 6.59109L73.4416 7.76804L72.2646 7.06187L69.6753 3.76642L64.9675 8.47421L65.4383 7.06187L68.0276 3.76642L69.4399 1.8833Z" fill="#8B8FBA"/>
<path d="M10.3572 86.3882L10.8279 86.859L11.5341 90.1544L12.4757 93.2145L13.888 96.7453V97.4515H14.3588L15.065 99.3346L14.8296 100.041L12.4757 95.5684L10.5926 91.096L9.651 88.0359L9.88639 87.5651L10.3572 86.3882Z" fill="#9EA1C5"/>
<path d="M71.5585 14.123L72.2646 14.3584L73.4416 15.5354L74.6185 15.7708L76.737 18.1247H77.914L78.8555 17.1831L80.7387 15.7708L81.6802 15.3L80.2679 16.9477L78.3848 19.3016L76.9724 19.537L75.5601 18.5954L71.5585 14.5938V14.123Z" fill="#858DBC"/>
<path d="M59.3181 6.82666L60.495 7.29744L62.3782 8.70978H63.3197V9.18056H64.4967L64.2613 9.88672L63.0843 10.1221L62.6136 9.88672L58.6119 9.65134L58.1412 9.41595L57.9058 8.47439L58.6119 7.76822H59.0827L59.3181 6.82666Z" fill="#383F92"/>
<path d="M116.989 105.455H117.224L117.459 106.867L112.987 111.339H111.339V112.045L110.162 112.281L111.575 110.633L112.987 109.456H113.458V108.985H113.929V108.515H114.399V108.044H114.87V107.573H115.341L115.812 106.632L116.989 105.455Z" fill="#454D9A"/>
<path d="M81.6801 4.70752H82.1509L82.3863 7.29681V9.41531H81.9155L81.2093 6.59064L79.797 7.06142L76.7369 8.94453H76.0308L76.5015 8.00297L78.8554 6.35525L81.6801 4.70752Z" fill="#9898BC"/>
<path d="M52.9626 123.58L55.0812 123.815L60.2597 124.992L63.7906 125.463L64.4967 125.698L69.6753 126.169V126.404H65.2029L57.6704 125.698L57.435 125.227L57.6704 124.757L55.5519 124.521L52.9626 123.815V123.58Z" fill="#383E92"/>
<path d="M102.63 35.5439L102.865 36.0147L103.807 36.2501L104.278 37.4271L104.748 37.6625L105.219 39.0748L104.278 39.5456L102.865 39.3102L102.159 38.8394L101.688 37.8978V36.2501L102.63 35.5439Z" fill="#7488C0"/>
<path d="M55.3165 18.3604L56.0227 18.5957L56.4935 20.4789L56.7288 21.185L55.3165 20.9496L53.198 20.2435H51.3149L50.1379 19.0665H51.7857L52.9626 19.5373L53.4334 18.5957H54.8457L55.3165 18.3604Z" fill="#454D9A"/>
<path d="M85.9172 18.3604L86.8587 19.3019L85.211 20.7142L81.4448 22.5974L80.2678 22.8328L80.7386 21.6558L82.3863 20.7142L85.211 19.0665L85.9172 18.3604Z" fill="#282D73"/>
<path d="M125.933 90.625L126.169 91.5666L124.756 95.0974L123.109 98.3929L122.873 97.9221H122.403L122.638 96.5097L124.286 93.2143L124.992 91.3312L125.933 90.625Z" fill="#515CA2"/>
<path d="M50.138 10.5928L52.9626 11.7697L55.7873 13.8882L56.4935 14.5944L56.2581 15.3006L54.8458 14.359L53.6688 13.8882L51.5503 12.4759L49.1964 11.5343L50.138 11.2989V10.5928Z" fill="#868EBC"/>
<path d="M46.3717 127.581L46.8425 128.523L47.784 132.053L48.4902 136.526L48.2548 137.467L47.5487 136.055L47.0779 134.407L46.3717 130.641V127.581Z" fill="#B2B3CF"/>
<path d="M36.7208 22.5977L38.1332 23.0684H40.4871L39.7809 23.5392L36.0147 25.4223L34.3669 26.1285V25.6577L35.3085 25.1869V23.7746L34.6023 23.5392L36.7208 22.5977Z" fill="#B3B4CE"/>
<path d="M54.375 14.123L55.5519 14.5938L56.2581 15.0646H56.9643L58.8474 17.1831L59.5536 18.3601V18.8308H60.2597V18.3601L60.9659 18.1247L61.2013 18.5954H61.9075L60.4951 19.537L59.0828 19.3016L56.2581 15.7708L54.375 14.3584V14.123Z" fill="#6D7EBA"/>
<path d="M91.5666 124.756H92.0374V128.052L91.802 129.7H91.5666V127.816H90.3896L89.9189 126.639L88.9773 125.933V125.463L91.5666 124.756Z" fill="#464F9A"/>
<path d="M91.3312 127.816H91.5666V130.876L90.8605 134.643L89.6835 137.232L89.4481 136.761L90.8605 129.229L91.3312 127.816Z" fill="#B3B3CE"/>
<path d="M87.565 71.3228H89.2127L89.6835 72.0289L89.4481 73.4413L88.9774 73.912H87.565L87.0942 73.4413V71.7935L87.565 71.3228Z" fill="#E7E6EC"/>
<path d="M86.8588 123.109H87.8003V123.58L88.2711 123.815L86.1526 124.521L82.3864 125.227H81.4448V124.757L85.9172 123.344L86.8588 123.109Z" fill="#383E92"/>
<path d="M125.463 49.6675L125.933 49.9029L127.11 52.9629L127.817 56.023V57.6707L127.581 56.7292L126.875 56.4938L125.933 52.9629L125.698 52.0214L125.463 49.6675Z" fill="#4A539D"/>
<path d="M47.5487 71.0879L48.961 71.3233L49.1964 71.7941V73.2064L48.7256 73.6772H47.3133L46.8425 73.2064V71.5587L47.5487 71.0879Z" fill="#EBEBF0"/>
<path d="M83.0926 13.1816H83.7987L83.5633 14.1232L82.151 15.3001L80.9741 15.7709L79.0909 17.4187V16.7125L80.7387 14.8294L82.151 13.417L83.0926 13.1816Z" fill="#969AC1"/>
<path d="M47.0779 69.6753H49.1964V70.8522L47.0779 71.5584L46.8425 72.9707L46.1364 72.5L46.3717 70.6169L47.0779 69.6753Z" fill="#2A2F75"/>
<path d="M127.11 56.729L128.052 56.9644L128.993 62.3784L129.229 64.9676L128.523 64.7323L127.817 60.0245L127.11 57.4352V56.729Z" fill="#444B99"/>
<path d="M103.336 116.282H103.807L104.042 117.224L103.101 117.695L103.336 118.165L101.924 118.872V118.401H100.747L100.041 118.872L99.099 118.636L103.101 116.518L103.336 116.282Z" fill="#454D9A"/>
<path d="M7.76787 93.6851H8.23865L7.53248 95.8036L6.12014 98.3929L5.17858 98.1575L4.94319 99.099L4.47241 99.3344L4.94319 97.9221L7.29709 94.3912L7.76787 93.6851Z" fill="#9FA2C6"/>
<path d="M52.9626 123.58L55.0812 123.815L60.9659 125.227V125.698H57.6704L57.435 125.227L57.6704 124.757L55.5519 124.521L52.9626 123.815V123.58Z" fill="#383E92"/>
<path d="M56.9643 6.35547L57.6705 7.29703L57.4351 8.47398L55.7873 11.2987H55.0812L55.3166 10.1217L56.4935 7.76781L56.9643 6.35547Z" fill="#6C7CB8"/>
<path d="M80.2678 5.41406L80.7386 5.64945L80.0324 6.35562L80.2678 6.8264L76.7369 8.94491H76.0308L76.5015 8.00335L78.8554 6.35562L80.2678 5.41406Z" fill="#7785BB"/>
<path d="M49.4318 13.8882H49.9025L50.8441 16.4775V18.596L49.9025 18.3606L49.4318 15.7713V13.8882Z" fill="#B2B2CD"/>
<path d="M52.0212 20.0083L53.6689 20.2437L56.0228 21.656L56.729 22.5976L55.552 22.3622L51.5504 20.4791L52.0212 20.0083Z" fill="#282D73"/>
<path d="M9.88641 106.396L10.1218 107.102L9.41563 109.221L9.18024 110.868L8.70946 109.927L8.0033 107.808V107.338L8.94485 107.102L9.41563 107.338L9.88641 106.396Z" fill="#6572B4"/>
<path d="M126.404 102.63H126.64V104.042H127.11L127.581 106.396V107.338L128.523 107.808V108.279H128.052L128.287 108.985H127.817L127.581 109.456L126.404 104.748V102.63Z" fill="#6572B4"/>
<path d="M100.747 118.166L101.924 118.401V118.872L97.9221 120.755H97.4513L97.6867 120.049L98.6282 119.813L99.099 118.872L100.511 118.401L100.747 118.166Z" fill="#505BA2"/>
<path d="M52.7273 130.406L53.1981 130.877L54.1396 135.114L54.375 136.526V139.116H54.1396L53.4335 135.114L52.7273 132.054V130.406Z" fill="#6572B4"/>
<path d="M91.5666 121.696H93.6851V122.402L90.8604 123.344H89.6835L90.1543 122.402L91.5666 121.696Z" fill="#4F59A1"/>
<path d="M123.344 46.3721L124.286 46.8428L124.992 48.2552L125.698 48.726L125.934 49.9029L125.698 50.3737L125.934 52.0214L125.227 51.3153L124.757 49.6675L124.992 49.1967H124.521L123.344 46.3721Z" fill="#444C99"/>
<path d="M25.6575 32.0132L26.1283 32.2486L20.2435 38.1333V37.4271H20.7143L20.9497 36.4856L21.8913 35.7794L22.362 34.8379L24.9513 32.7194L25.6575 32.0132Z" fill="#717DB6"/>
<path d="M92.0374 121.226L92.2728 121.696L90.1543 122.403V123.344L89.2128 123.815L87.8004 123.579L88.2712 122.638L92.0374 121.226Z" fill="#3C4395"/>
<path d="M71.5585 14.123L72.2646 14.3584L73.4416 15.5354L74.6185 15.7708L75.3247 16.4769L75.0893 16.9477H74.8539L75.3247 18.1247L73.677 16.7123L71.5585 14.5938V14.123Z" fill="#6F80BA"/>
<path d="M89.9188 139.351H91.3312L92.5081 140.292V140.998H90.8604L89.9188 140.057V139.351Z" fill="#B3B5D0"/>
<path d="M90.3897 131.583H90.6251L90.8605 132.759L91.0958 133.466L90.3897 135.82L89.6835 137.232L89.4481 136.761L90.3897 131.583Z" fill="#9B9EC2"/>
<path d="M81.2094 126.875H82.3864L82.151 127.346L82.3864 128.287L81.6802 129.464L80.974 129.229L80.7386 127.11L81.2094 126.875Z" fill="#424A97"/>
<path d="M119.578 103.101L119.813 103.807L119.578 104.278H119.107L118.636 105.454L117.224 106.631V105.219L118.872 103.807V103.336L119.578 103.101Z" fill="#505AA1"/>
<path d="M128.993 94.8618L129.7 95.568L129.464 96.7449H128.993V97.2157L128.052 97.4511L127.817 97.9219L128.287 95.0972L128.993 94.8618Z" fill="#6572B4"/>
<path d="M84.5049 66.6152H84.9756L85.211 67.7922L84.7402 68.263L82.6217 68.0276L82.3864 67.3214L84.5049 66.6152Z" fill="#292E74"/>
<path d="M88.9773 18.5957L91.5666 19.3019L90.8604 20.008V20.4788L89.6835 20.008L88.2711 19.7727L88.7419 18.8311L88.9773 18.5957Z" fill="#444C9A"/>
<path d="M53.4335 12.9463H54.6104L56.4935 14.594L56.2581 15.3002L54.8458 14.3586L53.6689 13.8878L53.4335 12.9463Z" fill="#9EA1C4"/>
<path d="M70.3815 4.23682L71.323 4.94299H72.0292L73.2061 6.59071L73.4415 7.76766L72.2646 7.06149L70.3815 4.7076V4.23682Z" fill="#7383BB"/>
<path d="M74.3831 16.4771L75.56 16.9478L77.4431 18.5956V19.0663H76.0308L75.3246 18.3602L74.3831 16.4771Z" fill="#9396BD"/>
<path d="M58.1411 6.12012L59.3181 6.5909L59.0827 7.76784H58.6119L58.3765 8.47401L57.1996 8.94479L57.9058 6.82629L58.1411 6.12012Z" fill="#30367F"/>
<path d="M46.8425 139.351H48.0195V140.057L47.0779 140.998H45.4302L46.3717 139.586L46.8425 139.351Z" fill="#BABBD4"/>
<path d="M111.81 111.104H112.752L112.281 112.046L111.339 112.752H110.868V113.223L109.692 113.693L110.162 112.281L111.339 112.046V111.339L111.81 111.104Z" fill="#4F59A1"/>
<path d="M21.1851 105.69L22.8328 107.102L24.9513 109.221L26.599 110.398H25.8929L24.0097 109.221L22.362 107.338L21.1851 106.396V105.69Z" fill="#3A4093"/>
<path d="M57.435 4.70752L58.6119 5.1783L57.9058 7.29681L57.1996 7.53219V5.1783L57.435 4.70752Z" fill="#9799BE"/>
<path d="M124.286 99.5698L124.992 100.511L124.757 101.924L124.05 102.159H123.344V101.218H123.815L124.05 100.041L124.286 99.5698Z" fill="#424996"/>
<path d="M87.5649 15.0649L88.0357 15.5357L87.8003 17.1834L87.3295 18.5958H86.8588V16.4773L87.5649 15.0649Z" fill="#505AA1"/>
<path d="M79.7971 6.82666H80.9741L81.2095 7.76822L80.7387 8.239H79.3264L78.8556 7.76822L79.7971 6.82666Z" fill="#2A2F76"/>
<path d="M39.3101 24.0098H40.9578L41.4286 24.9513L41.1932 25.4221L39.5454 25.1867L39.3101 24.0098Z" fill="#464E9B"/>
<path d="M111.339 31.5425L112.752 32.0133L114.399 33.4256V34.1318H114.87L114.635 34.6025L114.164 34.3672V33.8964L113.222 33.4256L111.339 31.7779V31.5425Z" fill="#3D4495"/>
<path d="M2.35387 105.925H2.58926V108.044L1.88309 110.633H1.64771V107.808L2.35387 105.925Z" fill="#BCBCD4"/>
<path d="M124.756 91.3311L124.992 91.8018L124.05 94.3911L122.638 96.745L122.403 96.0388L124.05 92.9788L124.756 91.3311Z" fill="#464E9B"/>
<path d="M134.643 105.69L135.114 105.925L135.349 106.631V109.692L134.878 108.985L134.407 107.338L134.643 105.69Z" fill="#B2B3CE"/>
<path d="M67.086 4.94336L67.3214 5.41414L67.7922 5.64953L64.9675 8.4742L65.4383 7.06187L67.086 4.94336Z" fill="#6B7CB9"/>
<path d="M87.8004 69.9106L88.7419 70.146L89.4481 70.8522L89.2127 71.5584L87.8004 71.323V70.8522H87.3296V70.146L87.8004 69.9106Z" fill="#2D3278"/>
<path d="M8.47403 95.0977H8.70942L8.94481 98.1577L7.76786 97.2162L7.53247 96.51L8.23864 95.333L8.47403 95.0977Z" fill="#6572B4"/>
<path d="M128.523 60.7305H128.758L129.229 64.9675L128.523 64.7321L128.287 61.672L128.523 60.7305Z" fill="#424998"/>
<path d="M50.1379 19.0664H51.7857L53.198 19.7726V20.008L51.3149 20.2434L50.1379 19.0664Z" fill="#393F91"/>
<path d="M128.523 92.7437L129.229 93.4498L129.7 94.8622L129.935 96.0391L128.993 95.0975H128.523V92.7437Z" fill="#7083BD"/>
<path d="M86.388 16.9478L86.8587 17.6539L87.0941 19.0663L85.9172 18.5955L85.211 19.3017L84.7402 19.0663L86.1526 17.4185L86.388 16.9478Z" fill="#373D91"/>
<path d="M86.8588 14.8296L87.565 15.3004L86.8588 17.6543H86.1526L85.9172 16.9481L86.8588 14.8296Z" fill="#464E9B"/>
<path d="M10.3572 58.6118H10.5926V60.9657L10.3572 61.9073H9.88639V63.555H9.651V61.6719L10.3572 58.6118Z" fill="#6573B3"/>
<path d="M50.138 10.5928L51.5503 11.2989L51.7857 12.0051L49.9026 11.7697L49.1964 11.2989H50.138V10.5928Z" fill="#9095BE"/>
<path d="M46.3717 127.581L46.8425 128.523L47.0779 129.935H46.6071L46.8425 130.406V132.053H46.6071L46.3717 130.641V127.581Z" fill="#A7A8C7"/>
<path d="M49.1964 12.7109L49.9026 13.4171L49.6672 14.8294H49.1964L48.2549 12.9463L49.1964 13.1817V12.7109Z" fill="#8F91BA"/>
<path d="M57.6704 124.992L60.9659 125.462V125.698H57.6704V124.992Z" fill="#434B99"/>
<path d="M104.748 116.047L105.219 116.989L103.571 117.93L102.865 117.695L103.571 116.989L104.042 117.224L103.807 116.518H104.513L104.748 116.047Z" fill="#505AA1"/>
<path d="M8.23864 93.2144L8.70942 93.9205L8.47403 95.3329L7.53247 95.8036L7.76786 94.6267L8.23864 93.2144Z" fill="#7184BE"/>
<path d="M17.1835 42.1348H17.8897L18.1251 43.3117L16.9481 44.0179V42.3702L17.1835 42.1348Z" fill="#4C559F"/>
<path d="M81.4448 6.82666L81.6802 7.29744H82.3864V9.41595H81.9156L81.4448 7.76822V6.82666Z" fill="#7284BD"/>
<path d="M77.9139 18.125L78.1493 18.5958H77.6785V19.0666L79.0909 18.125L78.6201 19.0666L77.9139 19.5373L76.5016 19.3019L77.4431 19.0666L77.2078 18.3604L77.9139 18.125Z" fill="#6A7AB7"/>
<path d="M56.4936 9.88623L56.7289 10.357L56.9643 11.534L55.0812 11.7693L54.8458 10.8278L55.552 11.2986L56.4936 9.88623Z" fill="#383E8F"/>
<path d="M82.3863 8.23877L82.8571 9.18033L83.0925 11.0634H82.6217L81.9155 9.41572H82.3863V8.23877Z" fill="#464F9B"/>
</svg>
