<svg width="129" height="159" viewBox="0 0 129 159" fill="none" xmlns="http://www.w3.org/2000/svg">
<mask id="mask0_38_14017" style="mask-type:luminance" maskUnits="userSpaceOnUse" x="66" y="35" width="16" height="18">
<path d="M66.1221 51.4268C66.879 46.9326 69.4555 42.756 72.5497 39.4932C73.3536 38.6461 74.1929 37.8029 75.1459 37.1205C76.0831 36.4499 77.7969 35.2891 78.9969 35.5009C79.9146 35.6617 80.7421 36.5793 81.2362 37.3245C81.7068 38.0343 82.1264 39.0461 81.9539 39.9088C81.9421 39.9716 81.9264 40.0383 81.9068 40.101C81.8872 40.1638 81.8637 40.2265 81.8402 40.2853C81.8127 40.3442 81.7853 40.403 81.7539 40.4618C81.7225 40.5206 81.6872 40.5755 81.648 40.6304C81.6088 40.6853 81.5696 40.7363 81.5264 40.7873C81.4833 40.8383 81.4362 40.8853 81.3892 40.9285C81.3421 40.9716 81.2911 41.0148 81.2362 41.054C81.1852 41.0932 81.1303 41.1324 81.0715 41.1638C80.5029 41.5089 79.8009 41.6658 79.1852 41.9167C78.5773 42.1599 77.9695 42.4893 77.3969 42.807C73.9223 44.756 71.3771 49.1248 70.3261 52.9014C69.8594 52.6896 69.3457 52.5406 68.8633 52.3719C67.9653 52.019 67.0397 51.7249 66.1221 51.4268Z" fill="white"/>
</mask>
<g mask="url(#mask0_38_14017)">
<path d="M66.1226 51.4269C66.8794 46.9323 69.456 42.7559 72.5506 39.493C73.3543 38.6454 74.1935 37.8028 75.146 37.1201C76.0833 36.4493 77.7972 35.2886 78.9976 35.5001C79.9155 35.6617 80.7428 36.5787 81.2369 37.324C81.7072 38.0337 82.1268 39.0455 81.9542 39.9084C81.9424 39.971 81.9272 40.0378 81.9077 40.1004C81.8874 40.163 81.8646 40.2264 81.8409 40.2848C81.813 40.344 81.7859 40.4024 81.7546 40.4616C81.7233 40.52 81.6878 40.575 81.6488 40.63C81.6091 40.685 81.5702 40.7357 81.527 40.7873C81.4839 40.8381 81.4365 40.8846 81.39 40.9277C81.3426 40.9709 81.2918 41.014 81.2369 41.0538C81.1861 41.0927 81.1311 41.1316 81.0719 41.1638C80.5034 41.5089 79.8013 41.6654 79.1854 41.9167C78.578 42.1595 77.9698 42.4885 77.3971 42.8066C73.9228 44.7557 71.3773 49.1242 70.3266 52.9014C69.86 52.689 69.3462 52.5401 68.8639 52.3718C67.9658 52.019 67.0402 51.7246 66.1226 51.4269Z" fill="url(#paint0_linear_38_14017)"/>
</g>
<mask id="mask1_38_14017" style="mask-type:luminance" maskUnits="userSpaceOnUse" x="21" y="82" width="72" height="73">
<path d="M80.7657 82.3454C83.2638 84.918 86.0992 87.4239 89.4091 88.9102C90.0522 89.2122 90.6993 89.4985 91.3621 89.7534C91.7738 89.9103 92.2287 90.0397 92.6248 90.2279C92.5503 91.5142 92.4131 92.7809 92.2837 94.0594C92.2758 96.4712 91.4719 100.016 90.9385 102.444C90.4993 104.44 90.1071 106.444 89.511 108.401C86.0325 119.754 78.9578 130.782 70.5693 139.135C62.7495 146.924 50.9374 154.426 39.541 154.391C33.9252 154.371 28.6819 152.669 24.67 148.61C23.5406 147.465 22.5052 146.096 21.9209 144.586C22.4974 144.833 23.0072 145.304 23.5445 145.633C25.1484 146.618 26.9799 147.379 28.8231 147.751C35.6036 149.128 42.6313 145.88 48.1569 142.237C49.1687 141.571 50.1295 140.833 51.0943 140.096C62.3691 131.492 70.487 118.844 75.0361 105.511C76.5028 101.216 77.7695 96.4909 78.7499 92.0554C79.2166 89.9377 79.6049 87.8004 80.0402 85.6749C79.9931 85.4592 79.6049 85.1886 79.448 85.0043L79.4794 84.9141C79.7029 85.118 80.001 85.3494 80.1461 85.616C80.4284 84.5376 80.5814 83.4317 80.7657 82.3454Z" fill="white"/>
</mask>
<g mask="url(#mask1_38_14017)">
<path d="M80.766 82.3452C83.2639 84.9179 86.0991 87.4236 89.409 88.9098C90.0523 89.2118 90.6996 89.498 91.362 89.7534C91.7742 89.9103 92.2292 90.0396 92.625 90.228C92.5502 91.514 92.413 92.781 92.2837 94.0591C92.2758 96.471 91.4723 100.017 90.9386 102.444C90.4994 104.44 90.1075 106.444 89.5114 108.401C86.0328 119.754 78.9582 130.782 70.5692 139.135C62.7495 146.924 50.9375 154.426 39.541 154.391C33.9252 154.371 28.6819 152.669 24.67 148.61C23.5406 147.465 22.5053 146.096 21.9209 144.586C22.4974 144.833 23.0072 145.304 23.5445 145.633C25.1485 146.618 26.9799 147.379 28.8231 147.751C35.6037 149.128 42.6313 145.88 48.157 142.237C49.1688 141.571 50.1296 140.833 51.0944 140.096C62.3694 131.492 70.4872 118.844 75.0364 105.51C76.503 101.217 77.77 96.4907 78.7501 92.0556C79.2168 89.9379 79.6048 87.8004 80.0407 85.6748C79.9934 85.4588 79.6048 85.1884 79.4479 85.0039L79.4794 84.914C79.7032 85.1181 80.0013 85.3492 80.1463 85.6157C80.4286 84.5372 80.5816 83.4317 80.766 82.3452Z" fill="url(#paint1_linear_38_14017)"/>
</g>
<path d="M80.7662 82.3447C83.264 84.9174 86.0992 87.4231 89.4091 88.9093C90.0525 89.2113 90.6997 89.4975 91.3621 89.7529C91.7744 89.9098 92.2293 90.0391 92.6251 90.2275C92.5503 91.5135 92.4131 92.7805 92.2838 94.0586L92.186 94.0271C92.1781 93.796 92.2332 93.5492 92.2601 93.3174C91.9076 92.9643 89.3231 92.0977 88.7074 91.8706L88.6174 91.9021C88.6096 91.8667 88.5899 91.698 88.5623 91.6625C88.5347 91.6271 87.1384 90.9647 86.931 90.8505C84.9938 89.7955 83.3546 88.5016 81.6799 87.0706C81.162 86.6274 80.5305 86.1725 80.1504 85.6073C80.4287 84.5366 80.5817 83.4311 80.7662 82.3447Z" fill="#F47415"/>
<path d="M21.9249 144.578C21.0151 142.845 20.5954 140.747 20.4857 138.805C20.4347 137.896 20.4621 136.982 20.3759 136.072C20.266 134.911 20.0189 133.75 19.7327 132.621C19.1994 130.538 18.4189 128.534 17.6817 126.519C17.0542 124.781 16.462 123.032 15.9012 121.268C13.9874 115.134 12.5443 108.703 12.3286 102.263C12.2658 100.416 12.356 98.5807 12.4423 96.7334C12.4854 95.6353 12.5638 94.5371 12.6736 93.4435C12.7835 92.3491 12.9247 91.2593 13.0972 90.1687C13.2697 89.0826 13.4737 88.0003 13.709 86.9255C13.9443 85.8508 14.211 84.7843 14.5129 83.7254C14.6149 83.3609 14.7247 82.9956 14.8345 82.6311C14.9482 82.2665 15.0619 81.9057 15.1835 81.545C15.3051 81.1842 15.4306 80.8272 15.56 80.4702C15.6894 80.1132 15.8228 79.757 15.96 79.4038C16.0973 79.0505 16.2384 78.6981 16.3875 78.3449C16.5326 77.9962 16.6855 77.6467 16.8385 77.298C16.9954 76.9524 17.1522 76.6074 17.317 76.2625C17.4817 75.9214 17.6463 75.5802 17.8189 75.2391C17.9915 74.9017 18.1679 74.5644 18.3444 74.227C18.5248 73.8934 18.7091 73.5606 18.8974 73.2307C19.0856 72.9017 19.2778 72.5718 19.4739 72.2465C19.67 71.9212 19.87 71.5997 20.0739 71.2782C20.2778 70.9567 20.4857 70.6389 20.6974 70.325C20.9092 70.0072 21.1249 69.6978 21.3445 69.3838C21.5641 69.0744 21.7876 68.7642 22.0112 68.4623C22.2386 68.1566 22.4661 67.8547 22.7014 67.5566C22.9367 67.2584 23.172 66.9603 23.4151 66.666C23.6544 66.3716 23.9014 66.0818 24.1485 65.7958C24.3955 65.509 24.6466 65.2229 24.9014 64.9406C25.1564 64.6584 25.4152 64.3799 25.6779 64.1051C25.9407 63.8304 26.2035 63.5564 26.474 63.2893C26.7408 63.0191 27.0153 62.7564 27.2898 62.4938C27.5643 62.2304 27.8427 61.9715 28.1251 61.7171C28.4075 61.462 28.6898 61.2069 28.9761 60.9601C29.2624 60.7133 29.5526 60.4658 29.8467 60.2227C30.1408 59.9797 30.4349 59.7442 30.7369 59.5088C31.0349 59.274 31.3369 59.0423 31.6428 58.8151C31.9487 58.5872 32.2546 58.3638 32.5644 58.1442C32.8742 57.9245 33.188 57.7087 33.5017 57.4974C33.8154 57.2853 34.1331 57.0777 34.4547 56.8739C34.7763 56.6694 35.0978 56.4694 35.4233 56.2739C35.7488 56.0777 36.0743 55.8852 36.4076 55.6973C43.047 51.9832 49.7453 50.3401 57.3494 50.3598C60.2436 50.3673 63.334 50.6383 66.1258 51.4262C67.0398 51.7243 67.9651 52.0187 68.8632 52.3674C69.3455 52.5402 69.8633 52.6851 70.3259 52.8972L70.4988 52.9402L70.5025 53.0187C70.5418 53.8187 70.4716 54.6301 70.4671 55.4301C70.4671 56.6226 70.5222 57.8106 70.6399 58.9955C71.209 65.3995 73.6128 72.2896 77.1654 77.6392C78.2719 79.3019 79.5421 80.7766 80.7655 82.345C80.5814 83.4311 80.4244 84.5375 80.1504 85.6077C80.0048 85.3413 79.7066 85.1096 79.4832 84.9058L79.4523 84.9957C79.6085 85.1806 79.9972 85.4508 80.044 85.6666C79.6085 87.792 79.2206 89.9294 78.7541 92.0472C77.7737 96.4828 76.5065 101.208 75.0401 105.502C70.4867 118.836 62.3732 131.484 51.0983 140.088C50.1336 140.825 49.1727 141.562 48.161 142.229C42.6313 145.876 35.6076 149.123 28.8271 147.743C26.9839 147.37 25.1525 146.61 23.5485 145.625C23.0112 145.296 22.5014 144.825 21.9249 144.578Z" fill="#FAB80F"/>
<path d="M43.8784 101.883C44.0196 101.883 44.2003 101.871 44.3177 101.965C44.761 102.322 44.6942 103.546 45.7454 104.286C46.3805 104.734 47.212 104.883 47.9727 104.741C48.9297 104.565 49.3102 103.953 49.8199 103.212C50.0041 102.941 50.204 102.687 50.5416 102.62C50.6747 102.671 50.702 102.683 50.7647 102.824C50.9181 103.157 50.7885 103.436 50.6433 103.738C50.4591 104.059 50.2632 104.361 50.0041 104.628C49.3178 105.338 48.3649 105.71 47.3886 105.73C46.3415 105.75 45.3531 105.287 44.6239 104.557C44.0707 104.004 43.5844 103.22 43.6041 102.42C43.6117 102.153 43.7023 102.051 43.8784 101.883Z" fill="#12110F"/>
<path d="M49.7496 54.4034C50.2869 54.364 50.7967 54.3954 51.283 54.6502C51.7496 54.8977 52.1261 55.3248 52.2713 55.8344C52.287 55.8898 52.2987 55.9446 52.3065 56.003C52.3144 56.0585 52.3222 56.1169 52.3262 56.1716C52.3301 56.2308 52.3301 56.2855 52.3262 56.3447C52.3222 56.4031 52.3183 56.4586 52.3105 56.5133C52.3026 56.5681 52.2908 56.6265 52.2752 56.682C52.2595 56.7367 52.2438 56.7915 52.2242 56.8462C52.2046 56.9017 52.181 56.9521 52.1575 57.0032C52.134 57.0543 52.1026 57.1054 52.0752 57.1521C51.7183 57.7172 51.1575 57.9209 50.5417 58.0581C49.8751 58.1129 49.2476 58.0895 48.6711 57.7011C48.6202 57.6697 48.5731 57.631 48.526 57.5953C48.479 57.5566 48.4358 57.5171 48.3927 57.4741C48.3495 57.431 48.3103 57.3879 48.2711 57.3405C48.2319 57.2937 48.1966 57.2463 48.1653 57.1952C48.1299 57.1448 48.1025 57.0937 48.0711 57.039C48.0436 56.9835 48.0162 56.9287 47.9927 56.874C47.9692 56.8192 47.9495 56.7601 47.9338 56.7017C47.9182 56.6425 47.9025 56.5834 47.8907 56.525C47.8083 56.0972 47.8907 55.6424 48.1417 55.2817C48.5143 54.7407 49.1339 54.521 49.7496 54.4034Z" fill="#FBD52C"/>
<path d="M68.8591 52.3681C69.3416 52.5403 69.859 52.6858 70.3222 52.8973L70.4944 52.9404L70.4981 53.0191C70.5375 53.8193 70.4669 54.6306 70.4632 55.4308C70.4632 56.6229 70.5182 57.8114 70.6354 58.9953C71.204 65.3999 73.6084 72.29 77.1618 77.639C78.2671 79.3018 79.5379 80.7768 80.7612 82.3452C80.5771 83.432 80.4205 84.5373 80.1458 85.6084C80.0003 85.3412 79.7027 85.1103 79.4792 84.9062C79.1341 84.3732 78.6397 83.867 78.2478 83.3607C72.9299 76.553 69.9102 66.725 69.0358 58.2115C68.8398 56.2741 68.6238 54.3129 68.8591 52.3681Z" fill="#F7980F"/>
<path d="M23.4072 83.9888C23.4896 83.9811 23.5719 83.9734 23.6543 83.9734C25.6896 83.9575 27.2034 85.1302 28.5995 86.479C29.3564 87.2123 30.0192 88.1185 30.0153 89.2204C30.0113 90.0163 29.6309 90.7184 29.0623 91.2559C28.2583 92.0205 27.2269 92.2756 26.1446 92.2399C24.7485 92.0244 21.7876 90.9498 20.6699 90.1106C19.9562 89.5775 19.4424 88.746 19.3365 87.8596C19.3287 87.8086 19.3248 87.7575 19.3208 87.7027C19.3169 87.6517 19.313 87.6007 19.313 87.5458C19.313 87.4948 19.313 87.44 19.313 87.3889C19.313 87.3379 19.3169 87.2831 19.3208 87.2321C19.3248 87.1811 19.3287 87.1301 19.3365 87.0752C19.3444 87.0242 19.3522 86.9732 19.3601 86.9222C19.3679 86.8712 19.3796 86.8201 19.3914 86.7691C19.4032 86.7181 19.415 86.6671 19.4306 86.6205C19.4463 86.5695 19.462 86.5223 19.4777 86.4713C19.4934 86.4203 19.513 86.3731 19.5326 86.3259C19.5522 86.2793 19.5718 86.2322 19.5954 86.1811C19.6189 86.134 19.6385 86.0868 19.666 86.0402C19.6895 85.993 19.7169 85.9497 19.7404 85.9025C19.7679 85.8597 19.7953 85.8125 19.8228 85.7692C19.8502 85.7264 19.8816 85.6831 19.913 85.6398C19.9444 85.597 19.9757 85.5575 20.0071 85.5185C20.8424 84.5181 22.1484 84.0946 23.4072 83.9888Z" fill="#FF5444"/>
<path d="M72.0084 92.8009C72.0402 92.8165 72.0753 92.8282 72.1065 92.8444C72.4207 92.9697 72.7889 93.0048 73.1187 93.1107C74.4089 93.5307 75.5187 94.2872 76.0953 95.5541C76.1187 95.6092 76.1421 95.6599 76.1655 95.7151C76.1894 95.7697 76.2089 95.8248 76.2284 95.8794C76.2479 95.9346 76.2635 95.9892 76.2836 96.0482C76.2992 96.1028 76.3148 96.1619 76.3304 96.217C76.3421 96.2755 76.3577 96.3307 76.3655 96.3892C76.3772 96.4482 76.3855 96.5034 76.3933 96.5619C76.4011 96.6209 76.4089 96.6794 76.4128 96.7385C76.4167 96.7969 76.4206 96.856 76.4245 96.9151C76.4284 96.9735 76.4284 97.0326 76.4284 97.0911C76.4284 97.1501 76.4245 97.2092 76.4206 97.2677C76.4167 97.3267 76.4128 97.3852 76.405 97.4443C76.3972 97.5033 76.3894 97.5618 76.3816 97.617C76.3733 97.6755 76.3616 97.7306 76.3499 97.7891C76.3382 97.8482 76.3226 97.9033 76.307 97.9618C76.2914 98.017 76.2752 98.0755 76.2557 98.1306C76.2362 98.1852 76.2167 98.2404 76.1972 98.2955C75.7343 99.5384 74.6635 100.342 73.4831 100.864C73.3928 100.903 73.2987 100.942 73.209 100.978C73.1148 101.013 73.0207 101.048 72.9265 101.08C72.8324 101.111 72.7382 101.138 72.6402 101.166C72.5421 101.194 72.448 101.217 72.3499 101.236C72.2519 101.26 72.1538 101.276 72.0558 101.295C71.9577 101.311 71.8597 101.327 71.7616 101.338C71.6636 101.35 71.5655 101.358 71.4636 101.366C71.3655 101.374 71.2636 101.378 71.1655 101.378C71.0675 101.378 70.9655 101.378 70.8675 101.378C70.7695 101.374 70.6675 101.37 70.5695 101.362C70.4714 101.354 70.3695 101.342 70.2714 101.331C70.1734 101.319 70.0753 101.303 69.9773 101.284C69.8792 101.264 69.7812 101.244 69.6831 101.221C69.5851 101.197 69.4909 101.174 69.3929 101.146C69.2987 101.119 69.2007 101.088 69.1065 101.056C69.0124 101.025 68.9182 100.99 68.828 100.95C67.6124 100.46 66.491 99.515 65.9773 98.2916C65.6163 97.4404 65.628 96.5073 65.9812 95.656C66.3456 94.7814 66.9578 94.1385 67.6754 93.5385C69.2597 93.8365 70.6201 93.6009 72.0084 92.8009Z" fill="#FF5444"/>
<path d="M43.3139 57.3164C44.0669 57.2067 45.0316 57.2737 45.6748 57.7048C46.0827 57.9792 46.3415 58.3754 46.4317 58.8578C46.6631 60.0657 45.9964 61.3634 45.3258 62.3204C43.3885 65.1046 39.5099 67.819 36.1569 68.4268C35.3334 68.4582 34.4548 68.4852 33.749 67.9836C33.2509 67.6308 32.9411 67.07 32.8626 66.47C32.7019 65.2265 33.4 63.9758 34.1451 63.0344C36.1177 60.5517 40.1256 57.6891 43.3139 57.3164Z" fill="#FBD52C"/>
<path d="M31.9602 75.8194C33.3406 75.8313 34.5603 76.1682 35.6466 77.0545C36.878 78.0587 37.5408 79.5176 37.6859 81.0861C37.827 82.5882 37.2741 84.1453 36.3054 85.2901C35.2701 86.5175 33.9485 87.2511 32.3407 87.3768C30.7955 87.4001 29.5092 87.0626 28.317 86.0351C27.215 85.0824 26.5954 83.6193 26.4895 82.1801C26.3758 80.5918 26.8974 78.9491 27.9444 77.7487C29.0033 76.5369 30.3759 75.9373 31.9602 75.8194Z" fill="#12110F"/>
<path d="M35.3845 79.8745C35.5139 79.8825 35.6511 79.898 35.7806 79.9295C36.0041 79.988 36.2198 80.1727 36.3296 80.3689C36.4512 80.5845 36.4668 80.8352 36.3884 81.0669C36.2747 81.4116 36.0041 81.5687 35.6943 81.7179C35.5139 81.7213 35.3335 81.7179 35.1609 81.6508C34.9453 81.5687 34.7649 81.3921 34.6746 81.1804C34.5805 80.9568 34.5884 80.7061 34.6786 80.4824C34.8198 80.1492 35.0668 80.0155 35.3845 79.8745Z" fill="white"/>
<path d="M30.4662 77.2309C30.9525 77.1996 31.4035 77.2273 31.8467 77.4503C31.9094 77.4822 31.9682 77.5135 32.0271 77.5524C32.0859 77.5878 32.1408 77.6273 32.1957 77.6704C32.2506 77.7134 32.3016 77.7565 32.3526 77.8037C32.4036 77.8503 32.4506 77.9016 32.4938 77.9524C32.5369 78.0037 32.58 78.0586 32.6193 78.1134C32.6585 78.1683 32.6938 78.2273 32.729 78.2857C32.7604 78.3447 32.7918 78.4072 32.8192 78.4704C32.8467 78.5329 32.8702 78.5954 32.8899 78.6621C32.9095 78.7252 32.929 78.7919 32.9408 78.8544C32.9565 78.9211 32.9644 78.9842 32.9722 79.0509C32.9801 79.1176 32.984 79.1842 32.984 79.2509C32.984 79.3176 32.984 79.3842 32.9761 79.4509C32.9722 79.5175 32.9604 79.5842 32.9487 79.6509C32.9369 79.7175 32.9213 79.7801 32.9016 79.8468C32.882 79.9093 32.8624 79.9724 32.8349 80.0349C32.8114 80.0975 32.784 80.1565 32.7526 80.2155C32.431 80.8349 31.8977 81.1529 31.2545 81.3565C30.7329 81.4113 30.2662 81.3724 29.7996 81.1057C29.7407 81.0703 29.6819 81.0308 29.6231 80.9919C29.5682 80.9529 29.5133 80.9057 29.4584 80.8627C29.4074 80.8155 29.3564 80.7683 29.3093 80.7175C29.2623 80.6662 29.2152 80.6113 29.176 80.5565C29.1329 80.5016 29.0936 80.4426 29.0584 80.3842C29.0231 80.3252 28.9877 80.2627 28.9564 80.1995C28.925 80.137 28.8976 80.0745 28.8741 80.0078C28.8505 79.9411 28.8309 79.8739 28.8113 79.8072C28.7917 79.7406 28.7799 79.678 28.7682 79.6114C28.7564 79.5447 28.7486 79.478 28.7446 79.4114C28.7407 79.3447 28.7407 79.278 28.7407 79.2114C28.7407 79.1447 28.7486 79.078 28.7564 79.0114C28.7642 78.9447 28.776 78.878 28.7917 78.8114C28.8074 78.7447 28.827 78.6822 28.8466 78.619C28.8701 78.5565 28.8936 78.494 28.9211 78.4308C28.9486 78.3683 28.98 78.3093 29.0152 78.2503C29.3525 77.6739 29.8584 77.4073 30.4662 77.2309Z" fill="white"/>
<path d="M67.6792 93.5382C67.6007 93.5186 67.5227 93.495 67.4441 93.4715C67.3656 93.4479 67.2909 93.4204 67.2124 93.3929C67.1344 93.3654 67.0597 93.3379 66.9851 93.3065C66.9105 93.2751 66.8359 93.2442 66.7618 93.2128C66.6872 93.1774 66.6125 93.146 66.5418 93.1067C66.4711 93.0714 66.3971 93.0321 66.3264 92.9928C66.2557 92.9535 66.185 92.9103 66.1143 92.8716C66.0441 92.8284 65.9774 92.7852 65.9106 92.7381C65.8438 92.6909 65.777 92.6477 65.7108 92.5967C65.6441 92.5495 65.5812 92.499 65.5184 92.448C65.4555 92.3969 65.3927 92.3459 65.3304 92.2909C65.2676 92.2359 65.2086 92.1809 65.1497 92.1265C65.0908 92.0715 65.0319 92.0126 64.9775 91.9536C64.9225 91.8947 64.8675 91.8358 64.8125 91.7735C64.7575 91.7146 64.7064 91.6518 64.6559 91.5889C64.6049 91.5261 64.5538 91.4632 64.5067 91.397C63.5618 90.13 63.22 88.5578 63.4557 87.0007C63.4714 86.9064 63.4871 86.8082 63.5068 86.7145C63.5264 86.6203 63.5461 86.526 63.5696 86.4317C63.5926 86.338 63.6201 86.2477 63.6476 86.1534C63.6751 86.0631 63.7065 85.9694 63.7419 85.879C63.7733 85.7887 63.8087 85.6983 63.8479 85.6086C63.8872 85.5182 63.9265 85.4318 63.9691 85.3454C64.0123 85.2596 64.0555 85.1731 64.1027 85.0867C64.1498 85.0003 64.1969 84.9184 64.248 84.8359C64.2991 84.7534 64.3496 84.6709 64.4046 84.593C64.4596 84.5144 64.5145 84.4358 64.5735 84.3573C64.6324 84.2787 64.6907 84.2047 64.7536 84.134C64.8164 84.0593 64.8793 83.9886 64.946 83.9179C65.0128 83.8478 65.079 83.781 65.1497 83.7143C65.2204 83.6475 65.2911 83.5807 65.3618 83.5184C65.4359 83.4556 65.5105 83.3927 65.5851 83.3338C65.6598 83.2749 65.7383 83.216 65.8163 83.1616C67.0362 82.2868 68.5383 81.9024 70.0247 82.1611C71.5184 82.4203 72.805 83.2631 73.6674 84.5026C74.5736 85.8005 74.8205 87.4866 74.5461 89.028C74.256 90.6401 73.3263 91.8712 72.0009 92.7852C70.6206 93.6011 69.2599 93.8362 67.6792 93.5382Z" fill="#12110F"/>
<path d="M71.3147 86.5023C71.4481 86.4863 71.5815 86.4709 71.7143 86.4826C71.9853 86.5061 72.2676 86.6314 72.4281 86.8592C72.546 87.0236 72.5813 87.2279 72.5381 87.4237C72.4676 87.7491 72.2206 87.922 71.9619 88.0985C71.805 88.1572 71.6087 88.2004 71.4401 88.1807C71.2128 88.1492 71.0048 88.0121 70.8794 87.8201C70.746 87.6157 70.7226 87.3495 70.7813 87.1142C70.8597 86.8 71.0635 86.6672 71.3147 86.5023Z" fill="white"/>
<path d="M66.8476 83.6588C67.3927 83.6274 67.8243 83.6352 68.3219 83.9022C68.8125 84.1648 69.1929 84.6079 69.3459 85.1452C69.3652 85.2157 69.3812 85.2823 69.3927 85.3528C69.4048 85.4238 69.4125 85.4943 69.4164 85.5647C69.4202 85.6352 69.4241 85.7057 69.4202 85.7767C69.4164 85.8472 69.4125 85.9176 69.4004 85.9881C69.3927 86.0591 69.3773 86.1296 69.3613 86.2C69.3459 86.2705 69.3261 86.3371 69.3024 86.4037C69.2793 86.4709 69.2518 86.5375 69.2204 86.6003C69.189 86.663 69.1576 86.7258 69.1186 86.7886C68.7695 87.3688 68.2361 87.6865 67.5969 87.8549C67.1499 87.8747 66.7695 87.8786 66.3494 87.7019C66.3142 87.6865 66.2828 87.6744 66.2476 87.6589C66.2162 87.643 66.181 87.6276 66.1496 87.6077C66.1182 87.5885 66.0868 87.5725 66.0554 87.5532C66.0241 87.5334 65.9927 87.5136 65.9613 87.4943C65.9299 87.4745 65.9024 87.4508 65.871 87.4277C65.8435 87.404 65.8121 87.3804 65.7851 87.3567C65.7576 87.3336 65.7301 87.3099 65.7026 87.2824C65.675 87.2587 65.6475 87.2317 65.6238 87.2042C65.5969 87.1767 65.5732 87.1492 65.5495 87.1216C65.5258 87.0941 65.5027 87.0666 65.479 87.0352C65.4554 87.0077 65.4361 86.9763 65.4124 86.9449C65.3926 86.9135 65.3689 86.8827 65.3497 86.8513C65.3298 86.8199 65.3106 86.7886 65.2946 86.7572C65.2748 86.7258 65.2594 86.69 65.2434 86.6586C65.228 86.6273 65.212 86.592 65.1966 86.5568C65.1812 86.5216 65.1691 86.4902 65.1575 86.4549C64.9693 85.9413 64.9929 85.3842 65.2357 84.8942C65.5732 84.2275 66.1655 83.8862 66.8476 83.6588Z" fill="white"/>
<path d="M19.6385 104.64C20.0072 104.637 20.4307 104.829 20.7327 105.029C21.3758 105.456 21.8347 106.127 22.2739 106.743C24.2504 109.519 25.5446 112.782 26.2897 116.092C27.0387 119.437 27.3877 123.48 26.8426 126.865C26.7407 127.492 26.6387 128.226 26.2779 128.763C26.0701 129.077 25.8818 129.171 25.521 129.233C24.6936 129.131 24.0465 128.528 23.5328 127.916C19.6895 123.319 17.5247 115.406 18.0581 109.46C18.1914 107.966 18.4268 105.644 19.6385 104.64Z" fill="#FBD52C"/>
<path d="M66.8764 26.7066C68.1093 26.7516 65.8245 0.876429 66.35 0.194911C66.915 -0.483874 73.2839 1.98828 76.1304 4.65644C78.9797 7.28492 80.1575 3.4984 84.6228 5.24137C89.0881 6.98433 92.3903 9.40477 93.4277 10.5528C94.4651 11.7008 104.367 9.19297 106.26 14.7062C108.153 20.2193 114.23 15.9329 117.03 22.7446C119.791 29.5536 122.351 28.8528 122.697 32.505C123.044 36.1573 128.591 33.1901 128.588 39.6093C128.581 46.0683 127.73 43.378 127.73 43.378C127.73 43.378 79.3707 49.6565 79.8961 48.975C80.4612 48.2962 64.4105 26.6165 66.8764 26.7066Z" fill="#5BB734"/>
<path d="M93.491 42.0567C93.491 42.0567 81.7979 26.5782 67.1936 19.7908C67.3198 23.7469 67.316 26.6972 66.9164 26.7095C64.4505 26.6195 80.4616 48.2965 79.9362 48.978C79.6762 49.2791 90.165 48.0876 101.384 46.7073C97.5212 44.3279 93.491 42.0567 93.491 42.0567Z" fill="#479E38"/>
<path d="M15.6705 79.7547C18.8056 79.9707 11.9971 79.027 41.4553 66.981C70.9135 54.9349 92.6484 43.8721 92.6484 43.8721C92.6484 43.8721 77.9581 24.4391 60.9469 19.5992C43.9357 14.7593 16.7615 13.3262 10.6027 17.6468C4.44109 22.0072 -2.53007 32.3325 2.24817 44.5835C7.06882 56.7976 14.1625 79.6509 15.6705 79.7547Z" fill="#5BB734"/>
<path d="M51.8977 56.6161C59.5928 61.253 69.4001 75.1662 76.8244 82.5755C84.246 90.0245 89.3959 96.8784 91.3404 97.0124C93.285 97.1463 101.217 94.8617 102.832 87.6363C104.409 80.3685 101.601 80.6137 103.796 73.6277C105.992 66.6418 108.555 54.8965 107.168 53.0465C105.777 51.2362 92.6508 43.8329 92.6508 43.8329C92.6508 43.8329 58.7793 38.9082 57.7286 41.4276C56.6778 43.9469 51.8977 56.6161 51.8977 56.6161Z" fill="#5BB734"/>
<path d="M92.6508 43.833C92.6508 43.833 78.1477 51.2074 56.8162 60.4639C57.6428 61.1986 58.4639 62.0128 59.2823 62.8666C78.2246 54.7214 92.1763 47.8275 96.1788 45.8703C94.1466 44.6936 92.6508 43.833 92.6508 43.833Z" fill="#479E38"/>
<path d="M85.4485 38.9912C85.4485 38.9912 85.4431 39.0706 85.3925 39.2266C85.3418 39.3826 85.2885 39.5783 85.1503 39.8479C84.9136 40.3898 84.2719 41.0234 83.3551 41.5982C82.8967 41.8856 82.3589 42.1676 81.7815 42.4468C81.2041 42.726 80.5815 43.0819 79.9219 43.3953C78.6001 44.0618 77.0716 44.8337 75.4214 45.6371C73.7711 46.4405 71.9567 47.3124 70.0629 48.1788C68.1267 49.0821 66.111 49.98 64.0133 50.912C61.9156 51.8441 59.7386 52.7707 57.4822 53.6919C55.2257 54.613 52.9693 55.5342 50.6759 56.4129C48.3825 57.2916 46.0891 58.1703 43.7985 59.0094C41.5475 59.8512 39.2623 60.6109 37.0962 61.3787C34.93 62.1466 32.846 62.8802 30.9549 63.7069C29.0638 64.5336 27.326 65.4506 25.8181 66.5031C24.3526 67.5186 23.1198 68.6298 22.1278 69.7178C21.1755 70.8085 20.4243 71.8732 19.9195 72.8353C19.4173 73.7576 19.1218 74.5746 18.9248 75.1192C18.7675 75.6666 18.6663 75.9786 18.6663 75.9786C18.6663 75.9786 18.7278 75.6639 18.8058 75.111C18.9234 74.5609 19.1395 73.7385 19.5678 72.7313C19.996 71.7241 20.6336 70.5718 21.5544 69.3593C22.4753 68.1468 23.6766 66.9138 25.1927 65.7423C26.6664 64.6078 28.4151 63.532 30.3541 62.589C32.293 61.646 34.3456 60.7905 36.5117 60.0227C38.6806 59.2151 40.8919 58.3706 43.1429 57.5288C45.3938 56.687 47.6872 55.8083 49.9833 54.8899C52.2767 54.0112 54.5304 53.1297 56.7869 52.2086C59.0406 51.3271 61.2177 50.4005 63.3496 49.5505C65.4842 48.6609 67.534 47.8451 69.4648 47.0211C71.3955 46.1972 73.2415 45.4471 74.9259 44.7258C76.6104 44.0045 78.1703 43.3544 79.5661 42.7727C80.2653 42.462 80.8797 42.2252 81.4968 41.9487C82.1112 41.7119 82.6462 41.4697 83.1019 41.222C84.0529 40.7292 84.6864 40.2146 84.9998 39.7179C85.1352 39.488 85.231 39.2553 85.2789 39.139C85.4431 39.0706 85.4485 38.9912 85.4485 38.9912Z" fill="#479E38"/>
<path d="M76.2553 33.5326C76.2553 33.5326 76.0829 33.7201 75.6984 34.0923C75.526 34.2798 75.3112 34.5043 75.054 34.7656C74.7967 35.027 74.4601 35.283 74.1181 35.6183C73.3969 36.2464 72.5089 36.9827 71.4197 37.745C70.3305 38.5073 69.0771 39.3381 67.665 40.1579C66.2529 40.9777 64.6423 41.7838 62.9551 42.5448C61.2282 43.3031 59.422 44.0559 57.4995 44.7608C55.5769 45.4657 53.575 46.1651 51.5388 46.7824C49.4999 47.4395 47.4213 48.0938 45.3825 48.7508C43.3039 49.4051 41.265 50.0621 39.2603 50.8012C37.2557 51.5403 35.3304 52.2849 33.5187 53.1171C31.707 53.9492 29.9719 54.8266 28.3531 55.7517C26.7741 56.6797 25.3113 57.6555 24.0101 58.6026C21.4075 60.4967 19.4084 62.3128 18.0798 63.6567C17.3956 64.3272 16.8812 64.85 16.5363 65.225C16.1915 65.6 16.0192 65.7874 16.0192 65.7874C16.0192 65.7874 16.1943 65.5603 16.4625 65.1402C16.7703 64.7228 17.2109 64.1151 17.8184 63.3994C19.0362 61.9282 20.8902 59.9028 23.427 57.8048C24.6941 56.7757 26.1254 55.6781 27.7099 54.6708C29.2944 53.6635 31.0377 52.6671 32.8946 51.7583C34.7514 50.8495 36.6822 50.0256 38.7265 49.2892C40.7312 48.55 42.8152 47.8164 44.8938 47.1621C46.9724 46.5078 49.0482 45.8932 51.0843 45.2759C53.1205 44.6585 55.117 44.0385 57.0341 43.4129C58.9539 42.7477 60.7916 42.1167 62.513 41.4378C64.2344 40.7589 65.8395 40.0322 67.2831 39.3341C68.7268 38.6361 70.0143 37.8875 71.135 37.2469C72.2584 36.5667 73.2204 35.9153 73.9757 35.3692C74.3547 35.0763 74.6913 34.8204 74.9828 34.6411C75.277 34.4222 75.5315 34.2005 75.7012 34.0527C76.0432 33.7174 76.2553 33.5326 76.2553 33.5326Z" fill="#479E38"/>
<path d="M67.2667 28.5673C67.2667 28.5673 67.0601 28.6726 66.6866 28.8861C66.313 29.0996 65.7725 29.4213 65.0281 29.8086C64.3234 30.1987 63.4545 30.6572 62.4242 31.1444C61.3938 31.6317 60.2786 32.1928 59.0019 32.7827C57.7252 33.3726 56.3692 33.957 54.8913 34.5729C53.4135 35.1889 51.8932 35.8417 50.2936 36.4892C48.694 37.1366 47.0492 37.8606 45.4072 38.545C43.7227 39.2663 42.078 39.9903 40.3908 40.7513C38.7036 41.5123 37.093 42.3184 35.5194 43.167C33.9458 44.0155 32.4119 44.8668 30.9519 45.803C29.5316 46.7418 28.114 47.641 26.8948 48.5538C25.6359 49.4639 24.4934 50.4219 23.4357 51.306C22.9239 51.7891 22.4573 52.1956 21.988 52.6417C21.5583 53.0906 21.1314 53.4998 20.7442 53.9117C20.357 54.3237 20.0122 54.6986 19.6674 55.0736C19.3253 55.4089 19.0599 55.7893 18.7999 56.0904C18.28 56.6926 17.8845 57.2236 17.6218 57.5643C17.3591 57.9051 17.2264 58.0953 17.2264 58.0953C17.2264 58.0953 17.3591 57.9051 17.5452 57.5191C17.7709 57.136 18.0473 56.5968 18.533 55.9126C18.7561 55.5691 19.0215 55.1886 19.2869 54.8082C19.5921 54.4305 19.8999 54.0131 20.2502 53.5587C20.6005 53.1044 20.9904 52.6528 21.4228 52.1642C21.8552 51.6756 22.3272 51.1898 22.7993 50.704C23.7831 49.735 24.8941 48.6553 26.1188 47.6631C27.3462 46.6312 28.7323 45.6102 30.1554 44.6316C31.6181 43.6558 33.1575 42.7252 34.7735 41.8397C36.3895 40.9542 38.0425 40.1111 39.7324 39.3104C41.4196 38.5494 43.1438 37.8308 44.8282 37.1095C46.5099 36.4279 48.1889 35.786 49.8255 35.181C51.4621 34.576 53.0166 34.0052 54.4889 33.4687C55.9613 32.9321 57.3912 32.4325 58.6994 31.9644C60.0075 31.4963 61.1966 31.02 62.2188 30.6518C63.2834 30.2466 64.1866 29.8703 64.9228 29.602C66.4061 28.9067 67.2667 28.5673 67.2667 28.5673Z" fill="#479E38"/>
<path d="M56.8484 24.1021C56.8484 24.1021 56.6842 24.1705 56.3955 24.3101C56.1067 24.4498 55.6962 24.6209 55.1215 24.8604C54.0118 25.3422 52.4518 25.9923 50.6032 26.782C49.6576 27.1954 48.6724 27.606 47.5654 28.0481C46.4981 28.4929 45.3856 29.0144 44.1965 29.4907C43.0443 30.0094 41.8498 30.5651 40.6552 31.1208C39.4209 31.6738 38.2236 32.2691 37.0263 32.8645C35.829 33.4599 34.592 34.0525 33.4316 34.6903C32.2713 35.3281 31.1136 35.9262 29.993 36.5667C29.4525 36.8883 28.912 37.2099 28.3742 37.4919C27.8364 37.7738 27.3356 38.0982 26.8348 38.4225C25.8359 39.0316 24.9191 39.6064 24.0817 40.1867C23.663 40.4768 23.247 40.7273 22.8707 40.9805C22.4945 41.2337 22.1182 41.4868 21.7816 41.7428C21.1111 42.2149 20.4857 42.6105 20.0219 42.9772C19.0572 43.6684 18.5113 44.0694 18.5113 44.0694C18.5113 44.0694 18.9833 43.5835 19.8399 42.7255C20.0547 42.501 20.2695 42.2766 20.5267 42.0152C20.784 41.7538 21.0809 41.4951 21.3778 41.2365C21.6775 40.9381 22.0168 40.6425 22.3562 40.3469C22.6955 40.0513 23.1142 39.7612 23.496 39.4286C23.9174 39.0988 24.2992 38.7662 24.7603 38.4391C25.2214 38.1121 25.6826 37.785 26.1464 37.4182C26.6103 37.0514 27.1111 36.727 27.6146 36.363C28.1182 35.999 28.6587 35.6773 29.2019 35.316C30.2856 34.6331 31.4118 33.9132 32.6118 33.2782C33.7749 32.6007 35.0119 32.008 36.2119 31.373C37.4489 30.7803 38.6859 30.1877 39.9175 29.6745C41.1517 29.1215 42.3805 28.6479 43.5696 28.1716C44.7587 27.6953 45.9424 27.2984 47.0467 26.8959C47.6186 26.6961 48.1482 26.5332 48.6805 26.3306C49.2101 26.1677 49.7 26.0021 50.1898 25.8365C51.1669 25.5449 52.0618 25.2876 52.8746 25.0645C53.6874 24.8413 54.3785 24.6497 54.945 24.5292C55.5142 24.3691 55.9986 24.2828 56.2819 24.2226C56.6869 24.1309 56.8484 24.1021 56.8484 24.1021Z" fill="#479E38"/>
<path d="M44.8649 19.2088C44.8649 19.2088 44.256 19.3663 43.2023 19.6127C42.6755 19.7359 42.0638 19.933 41.3331 20.1219C40.9678 20.2164 40.5997 20.3505 40.1919 20.4819C39.7841 20.6133 39.3791 20.705 38.9289 20.8734C38.0709 21.1731 37.1308 21.5071 36.1484 21.878C35.6585 22.0437 35.1659 22.249 34.6733 22.4543C34.1807 22.6596 33.6484 22.8621 33.1133 23.1044C32.5783 23.3467 32.046 23.5492 31.5506 23.7942C31.0156 24.0365 30.4806 24.2787 29.9428 24.5607C29.4078 24.8029 28.87 25.0849 28.335 25.3271C27.7972 25.6091 27.2595 25.891 26.7217 26.173C25.6462 26.7369 24.5707 27.3007 23.4951 27.8646C22.4196 28.4285 21.3838 28.9951 20.3903 29.5248C19.3942 30.0942 18.4035 30.5841 17.4922 31.0796C16.5809 31.575 15.6723 32.0308 14.8855 32.4551C14.0987 32.8793 13.3516 33.3064 12.7262 33.7019C12.1009 34.0974 11.5946 34.5011 11.1732 34.831C10.7517 35.1608 10.4521 35.4591 10.2769 35.6863C10.0621 35.9107 9.97455 36.0243 9.97455 36.0243C9.97455 36.0243 10.0621 35.9107 10.2003 35.6412C10.3754 35.414 10.6012 35.0308 10.9487 34.6161C11.2963 34.2015 11.7683 33.7157 12.3225 33.1956C12.8767 32.6756 13.5896 32.1664 14.3421 31.6601C15.0975 31.114 15.9321 30.5734 16.8462 30.0383C17.7233 29.4607 18.6825 28.849 19.6787 28.2796C20.6776 27.6706 21.6765 27.0615 22.7547 26.458C23.833 25.8544 24.9085 25.2905 25.9867 24.6869C26.5245 24.405 27.102 24.1258 27.637 23.8835C28.2117 23.644 28.7495 23.3621 29.3242 23.1225C30.4339 22.6408 31.5409 22.1987 32.6452 21.7963C33.1775 21.5937 33.7098 21.3911 34.279 21.231C34.8086 21.0681 35.3382 20.9052 35.828 20.7396C36.3549 20.6164 36.8448 20.4507 37.3319 20.3248C37.819 20.1989 38.3035 20.1126 38.7509 19.9839C39.6801 19.8087 40.4874 19.6649 41.2524 19.5581C42.0173 19.4513 42.6604 19.376 43.1818 19.3322C44.2245 19.2445 44.8649 19.2088 44.8649 19.2088Z" fill="#479E38"/>
<path d="M21.5306 18.7586C21.5306 18.7586 21.2789 18.9406 20.8602 19.2307C20.4414 19.5209 19.8161 19.9164 19.0663 20.3831C17.5666 21.3165 15.5715 22.4949 13.6134 23.7157C12.6145 24.3247 11.6156 24.9337 10.7016 25.4689C9.78479 26.0437 8.87075 26.5788 8.047 26.9607C7.22325 27.3425 6.4898 27.5711 6.00265 27.6971C5.47582 27.8203 5.1953 27.8408 5.1953 27.8408C5.1953 27.8408 5.44706 27.6588 5.86577 27.3687C6.28448 27.0785 6.87286 26.6406 7.54881 26.089C8.22476 25.5375 8.98554 24.9121 9.87084 24.2155C10.2923 23.8857 10.7958 23.5216 11.257 23.1945C11.7578 22.8701 12.2586 22.5458 12.7594 22.2214C13.2575 21.9368 13.798 21.6151 14.2961 21.3305C14.7941 21.0458 15.3291 20.8035 15.8245 20.5585C16.8549 20.0713 17.7977 19.6976 18.6529 19.4376C19.5109 19.1378 20.2389 18.9886 20.726 18.8626C21.2077 18.816 21.5306 18.7586 21.5306 18.7586Z" fill="#479E38"/>
<path d="M69.4824 62.9707C69.4824 62.9707 69.8232 63.2334 70.3487 63.7082C70.9139 64.1857 71.6639 64.8753 72.604 65.6977C73.0557 66.0876 73.5839 66.5227 74.1094 66.9975C74.6349 67.4723 75.2398 67.9526 75.805 68.4301C76.4099 68.9104 77.012 69.4303 77.6538 69.953C78.2957 70.4757 78.9403 70.9587 79.5821 71.4814C80.2267 71.9644 80.8685 72.487 81.5131 72.97C82.1576 73.453 82.8022 73.936 83.4098 74.3766C84.0571 74.8199 84.625 75.2577 85.2326 75.6983C85.8033 76.0965 86.374 76.4946 86.868 76.8476C87.8958 77.5564 88.7306 78.1721 89.3409 78.573C89.9513 78.9739 90.292 79.2366 90.292 79.2366C90.292 79.2366 89.9006 79.1299 89.2027 78.8426C88.8537 78.6989 88.4254 78.5498 87.9602 78.3583C87.7275 78.2625 87.4552 78.164 87.2253 78.0285C86.9529 77.93 86.6834 77.7919 86.4138 77.6537C85.8349 77.3746 85.2164 77.0927 84.6033 76.7315C83.9478 76.4073 83.2977 76.0036 82.6477 75.6C81.9977 75.1964 81.271 74.7476 80.6265 74.2646C79.9395 73.8186 79.2579 73.2932 78.6161 72.7705C77.9743 72.2478 77.2928 71.7224 76.6933 71.1628C76.0515 70.6401 75.4945 70.0435 74.8923 69.5236C74.3326 68.9667 73.8126 68.4125 73.3295 67.9008C72.8491 67.3493 72.4057 66.8403 71.9993 66.3737C71.5928 65.9072 71.226 65.4433 70.9359 65.0246C70.606 64.6031 70.3501 64.2665 70.1736 63.9354C69.6959 63.3443 69.4824 62.9707 69.4824 62.9707Z" fill="#479E38"/>
<path d="M80.1802 59.3213C80.4361 59.6579 80.6921 59.9945 80.948 60.3311L81.312 60.8347L81.7185 61.3013C81.9744 61.6379 82.2331 61.9348 82.4917 62.2317C82.7504 62.5286 83.009 62.8256 83.3073 63.1252C83.566 63.4221 83.8644 63.7218 84.123 64.0187L84.9811 64.8753C85.5408 65.4322 86.1403 65.9918 86.7369 66.5911L88.5352 68.27C89.1346 68.8296 89.7313 69.4289 90.3307 69.9886L91.1888 70.8451C91.4899 71.1051 91.7485 71.402 92.0892 71.6647C92.6914 72.1847 93.336 72.6677 94.0681 73.0371L93.9039 73.1055C94.0366 72.9153 94.1297 72.7223 94.2597 72.5718C94.2036 72.8071 94.1899 73.0056 94.1338 73.2409L94.1283 73.3203L94.0093 73.3121C93.139 73.2123 92.322 72.9168 91.5529 72.505C91.1697 72.2792 90.7838 72.0932 90.4431 71.8305C90.0996 71.6074 89.7588 71.3447 89.4181 71.082C88.092 70.0736 86.8111 68.9886 85.615 67.8296C85.3166 67.53 85.0183 67.2303 84.7199 66.9306C84.4216 66.631 84.1232 66.3314 83.8673 65.9947C83.313 65.3585 82.8012 64.6852 82.3318 63.9751C82.0758 63.6385 81.8623 63.2649 81.6488 62.8914C81.4353 62.5178 81.2218 62.1442 81.048 61.7734C80.8742 61.4026 80.7031 60.9921 80.5717 60.5843C80.3636 60.1314 80.2719 59.7263 80.1802 59.3213Z" fill="#479E38"/>
<path d="M90.0439 55.0566C90.0439 55.0566 90.2766 55.1524 90.6255 55.2961C90.9718 55.4794 91.474 55.7133 92.0474 56.0718C92.354 56.2524 92.6605 56.433 92.9643 56.6533C93.3078 56.8763 93.6116 57.0966 93.9524 57.3593C94.6366 57.8451 95.3182 58.3705 95.9969 58.9356C97.3545 60.0657 98.6697 61.2329 99.5989 62.214C100.045 62.6833 100.412 63.1471 100.67 63.4441C100.929 63.741 101.074 63.9504 101.074 63.9504C101.074 63.9504 100.839 63.8943 100.493 63.7109C100.144 63.5673 99.6044 63.2909 99.0283 62.9721C97.8364 62.3318 96.3488 61.3522 94.9913 60.222C94.3125 59.6569 93.6364 59.0521 93.037 58.4925C92.7387 58.1928 92.4403 57.8931 92.2186 57.6386C91.9572 57.3814 91.6986 57.0845 91.4768 56.83C91.0334 56.321 90.664 55.8968 90.4477 55.5629C90.1494 55.2632 90.0439 55.0566 90.0439 55.0566Z" fill="#479E38"/>
<path d="M98.3057 50.8809C98.3057 50.8809 98.4589 50.9712 98.6861 51.1463C98.953 51.3242 99.2568 51.5445 99.6345 51.8496C100.012 52.1547 100.467 52.505 100.878 52.8922C101.106 53.0673 101.33 53.2822 101.555 53.497C101.779 53.7118 102.003 53.9266 102.228 54.1414C103.126 55.0007 104.023 55.86 104.652 56.5811C104.984 56.9629 105.243 57.2598 105.425 57.5116C105.61 57.7237 105.718 57.8906 105.718 57.8906C105.718 57.8906 105.006 57.8017 104.118 57.3817C103.653 57.1901 103.153 56.9165 102.619 56.5608C102.353 56.3829 102.086 56.205 101.861 55.9902C101.594 55.8123 101.373 55.5578 101.109 55.3403C100.884 55.1255 100.623 54.8682 100.398 54.6534C100.177 54.3989 99.9946 54.1471 99.7702 53.9323C99.4061 53.4288 99.0818 52.9279 98.871 52.5147C98.4576 51.5692 98.3057 50.8809 98.3057 50.8809Z" fill="#479E38"/>
<path d="M72.2224 21.4525C72.2224 21.4525 72.2649 21.4156 72.3128 21.2993C72.3976 21.2254 72.4879 21.0721 72.5782 20.9188C72.8012 20.5753 73.0721 20.1155 73.3937 19.4997C73.5346 19.1904 73.6755 18.8812 73.8616 18.4952C74.0052 18.1463 74.1913 17.7604 74.3774 17.3745C74.7495 16.6026 75.1244 15.7912 75.4992 14.9796C76.249 13.3566 77.0015 11.6939 77.6048 10.4596C77.7458 10.1503 77.8839 9.8807 78.0221 9.61111C78.1206 9.33879 78.2957 9.11162 78.4681 8.92413C78.6405 8.73664 78.8445 8.67094 78.9635 8.67914C79.0826 8.68734 79.1195 8.72976 79.1195 8.72976C79.1195 8.72976 79.0401 8.72429 78.9553 8.79819C78.8732 8.83241 78.7856 8.946 78.7323 9.14169C78.6789 9.33738 78.6653 9.53579 78.6461 9.81358C78.627 10.0914 78.6051 10.4088 78.5408 10.7633C78.4519 11.4749 78.2783 12.2603 78.0197 13.1197C77.9103 13.5508 77.7611 13.9791 77.5723 14.4047C77.4232 14.833 77.2344 15.2587 77.0456 15.6842C76.668 16.5354 76.211 17.3812 75.7226 18.1051C75.4968 18.4883 75.2341 18.829 75.0138 19.1328C74.7511 19.4736 74.5308 19.7774 74.2736 20.0388C73.7591 20.5616 73.2953 20.9283 72.9217 21.1418C72.466 21.3896 72.2224 21.4525 72.2224 21.4525Z" fill="#479E38"/>
<path d="M79.2962 25.8474C79.2962 25.8474 79.3018 25.7681 79.3496 25.6517C79.3975 25.5354 79.4906 25.3424 79.5863 25.1098C79.8175 24.6473 80.2581 24.0397 80.8629 23.3636C81.4649 22.7272 82.1915 22.0197 82.9974 21.3176C83.8061 20.5759 84.6544 19.8368 85.5397 19.1402C87.3131 17.7074 89.2 16.362 90.6573 15.4656C91.4072 14.9989 92.0298 14.6431 92.4854 14.3953C92.9411 14.1476 93.1874 14.045 93.1874 14.045C93.1874 14.045 93.0123 14.2721 92.6647 14.6868C92.3199 15.0618 91.8424 15.627 91.243 16.2236C90.0417 17.4567 88.3395 19.0141 86.5662 20.447C85.6781 21.1833 84.7531 21.8772 83.8733 22.4944C82.9935 23.1116 82.1561 23.6919 81.4486 24.1217C80.7385 24.5911 80.1925 24.9921 79.8108 25.3246C79.6411 25.4724 79.4714 25.6203 79.3838 25.7338C79.3387 25.8105 79.2962 25.8474 79.2962 25.8474Z" fill="#479E38"/>
<path d="M86.4088 34.3118C86.4088 34.3118 86.6661 34.0504 87.1327 33.644C87.5993 33.2375 88.278 32.6463 89.1208 31.9867C89.5423 31.6568 90.0061 31.2901 90.5069 30.9657C91.0105 30.6017 91.514 30.2376 92.097 29.879C92.6402 29.5177 93.2231 29.1591 93.8484 28.7636C94.4313 28.405 95.0539 28.0492 95.6765 27.6933C96.2991 27.3375 96.919 27.0213 97.5389 26.7052C98.1587 26.389 98.7786 26.0729 99.3957 25.7964C100.013 25.5199 100.59 25.2407 101.165 25.0012C101.74 24.7616 102.272 24.5591 102.765 24.3538C103.257 24.1485 103.668 23.9774 104.078 23.8063C104.449 23.6325 104.78 23.4559 105.032 23.2739C105.284 23.0919 105.49 22.9865 105.618 22.8756C105.745 22.7648 105.827 22.7305 105.827 22.7305C105.827 22.7305 105.782 22.8072 105.692 22.9605C105.601 23.1137 105.469 23.304 105.251 23.5681C104.858 24.0594 104.137 24.6876 103.22 25.2624C102.301 25.8769 101.262 26.4832 100.102 27.1209C99.5218 27.4398 98.9389 27.7984 98.3587 28.1173C97.7361 28.4732 97.1559 28.792 96.5333 29.1479C94.0853 30.5343 91.6031 31.8386 89.7039 32.7844C88.7529 33.2771 87.9688 33.6617 87.3941 33.9012C86.7373 34.175 86.4088 34.3118 86.4088 34.3118Z" fill="#479E38"/>
<path d="M94.1955 41.6656C94.1955 41.6656 94.45 41.444 94.8742 41.0744C95.0863 40.8897 95.3805 40.6707 95.6774 40.4121C96.014 40.1561 96.3506 39.9002 96.7693 39.6101C97.188 39.3199 97.6067 39.0298 98.0678 38.7027C98.529 38.3756 99.0667 38.0937 99.5675 37.7693C100.108 37.4477 100.649 37.126 101.226 36.8468C101.806 36.5279 102.384 36.2487 102.961 35.9695C103.578 35.693 104.156 35.4138 104.77 35.177C105.347 34.8978 105.959 34.7007 106.534 34.4612C107.106 34.2614 107.678 34.0615 108.21 33.8589C108.74 33.6961 109.269 33.5332 109.756 33.4072C110.244 33.2813 110.691 33.1526 111.056 33.0582C111.461 32.9665 111.784 32.909 112.068 32.8487C112.634 32.7283 112.954 32.7104 112.954 32.7104C112.954 32.7104 112.663 32.8897 112.165 33.1744C111.667 33.4591 110.922 33.8464 110.053 34.3049C108.316 35.2219 106.003 36.3784 103.654 37.4925C101.304 38.6066 98.9547 39.7207 97.1484 40.4735C96.2453 40.8499 95.5036 41.1975 94.9316 41.3974C94.5239 41.5288 94.1955 41.6656 94.1955 41.6656Z" fill="#479E38"/>
<defs>
<linearGradient id="paint0_linear_38_14017" x1="181.46" y1="-97.1182" x2="169.306" y2="-113.187" gradientUnits="userSpaceOnUse">
<stop stop-color="#5B2426"/>
<stop offset="1" stop-color="#943439"/>
</linearGradient>
<linearGradient id="paint1_linear_38_14017" x1="133.783" y1="109.917" x2="97.1425" y2="71.9619" gradientUnits="userSpaceOnUse">
<stop stop-color="#F57914"/>
<stop offset="1" stop-color="#F8A415"/>
</linearGradient>
</defs>
</svg>
