<svg width="126" height="145" viewBox="0 0 126 145" fill="none" xmlns="http://www.w3.org/2000/svg">
<path d="M100.831 0H105.705L108.447 1.2185L109.665 3.65551V9.13879L108.142 12.185L106.619 13.4036H104.182L100.527 12.4897L96.2619 12.185L93.2156 13.0989L91.0832 14.9267L89.2555 17.9729L88.6462 19.8007V23.1516L90.1694 25.5886L91.6925 26.8071L96.2619 28.6349L99.9174 30.7672L102.659 33.2043L105.096 36.5551L104.791 38.0783L107.533 41.7338L109.361 45.6939L110.275 49.0448V55.1373L109.056 62.1437L107.533 68.8455L107.228 69.4548L112.102 67.0178L114.235 66.4085H117.281L119.413 67.627L120.632 69.4548L120.937 71.5872L120.023 75.2427L118.195 78.5936L115.453 82.2491L111.189 86.8185L107.228 90.1694L102.05 93.8249L96.5665 96.8711H95.9573L95.348 98.3943L92.3018 103.268L89.5601 106.924L85.6 111.798L81.0306 116.672L76.7658 120.632L73.4149 123.374L69.4548 126.42L64.8854 129.466L59.7067 132.512L55.1373 134.949L48.1309 137.996L40.5153 140.737L33.2043 142.565L26.1979 143.784L19.8007 144.393H12.185L5.7879 143.479L2.43701 142.26L0.609252 140.737L0 137.996L0.913879 135.559L3.96014 132.512L7.31103 129.771L11.2712 126.115L14.3174 123.374L18.2776 119.109L22.2377 113.93L25.8932 108.447L29.5487 102.05L32.8996 95.0434L35.9459 86.5138L35.6413 84.9907L32.8996 80.4213L30.158 74.6334L28.3302 69.7594L26.8071 62.753V55.7466L27.721 53.6142L29.2441 52.0911L30.158 51.4818H33.8135L36.5551 53.3096L39.2968 56.3558L40.8199 58.7929L41.4292 55.1373L42.6477 43.5615L43.8777 39.8262L44.8777 37.3262L46.3777 34.8262L50.2633 31.0719L53.6142 28.9395L55.442 28.3302L56.0512 27.1117L59.0975 24.9793L63.3623 23.4562L64.8854 23.1516L70.3687 22.847L73.7195 21.9331L76.1566 19.8007L79.2028 14.6221L81.3352 11.5758L84.0768 8.22491L87.4277 5.17865L91.3879 2.74164L95.9573 0.913879L100.831 0Z" fill="#B21A16"/>
<path d="M100.831 0H105.705L108.447 1.2185L109.665 3.65551V9.13879L108.142 12.185L106.619 13.4036H104.182L100.527 12.4897L96.2618 12.185L93.2156 13.0989L91.0832 14.9267L89.2554 17.9729L88.6462 19.8007V23.1516L90.1693 25.5886L91.6924 26.8071L96.2618 28.6349L99.9173 30.7672L102.659 33.2043L105.096 36.5551L104.791 37.7737L104.182 38.0783H99.3081L91.6924 35.9459H88.0369L81.9444 37.7737L78.5935 38.9922H76.1565L74.0241 37.1644L71.5871 33.5089L70.064 32.2904L67.0177 31.3765L59.0974 31.0719L56.6604 30.4626L57.2697 31.6811L59.4021 32.2904L66.4085 32.595L69.7593 33.5089L71.8917 35.3366L73.7195 37.7737L75.2426 39.2968L77.375 40.2107L81.6398 39.6014L84.3814 39.2968L84.686 40.2107L84.0768 41.7338L83.1629 42.6477L82.5536 45.9986L81.6398 46.3032L81.0305 48.1309L79.812 51.1772L78.8981 53.3096L78.5935 56.6605L77.0704 59.0975L77.6796 59.4021L76.4611 61.8391L75.8519 64.8854L74.3287 66.7131L73.7195 70.6733L71.8917 72.1964L69.7593 72.8057L70.064 74.938L70.9779 75.8519L69.1501 75.5473L67.9316 74.3288L67.3223 72.501L65.7992 72.8057L66.7131 75.2427L68.2362 76.7658L69.7593 77.6797L70.9779 78.2889L70.3686 79.2028L68.8455 79.5074V80.4213L68.2362 80.726L67.627 83.163L67.9316 86.5138L67.0177 88.6462L63.9715 94.4341L62.1437 96.8711L60.6206 99.6128L58.7928 101.745L56.3558 104.791L53.0049 108.142L52.091 109.97L50.8725 111.493L48.1309 113.626L46.3031 115.758H45.6939L45.0846 116.976L43.5615 118.5L41.1245 120.632L38.9921 121.241V121.85L37.1643 122.155V122.764L31.9857 125.811L28.9394 127.334L25.8932 129.162L24.9793 130.075L20.1053 132.512L16.4498 133.731L11.8804 135.863L7.6156 137.082H4.26471V136.473L3.35083 136.168L3.96008 134.645L5.48321 133.426H6.09247V132.817L10.3572 129.466L11.2711 128.552H11.8804L12.4896 127.334L20.1053 119.718L22.5423 116.367L25.8932 111.798L28.3302 107.533L29.8533 105.096L32.8996 99.3082L34.4227 95.6526L36.2505 91.3879L37.469 87.4277L39.2967 80.726L40.5152 74.938L42.0384 64.8854L42.6476 58.4882L43.2569 53.6142L44.4754 44.1708L44.78 43.5616L45.8777 37.8262L47.3777 34.8262L50.2633 31.0719L53.6142 28.9395L55.4419 28.3302L56.0512 27.1117L59.0974 24.9794L63.3622 23.4562L64.8853 23.1516L70.3686 22.847L73.7195 21.9331L76.1565 19.8007L79.2028 14.6221L81.3351 11.5758L84.0768 8.22491L87.4277 5.17865L91.3878 2.74164L95.9572 0.913879L100.831 0Z" fill="#E33B2A"/>
<path d="M104.182 37.7737L105.705 39.2968L107.838 42.3431L109.361 45.694L110.275 49.0449V55.1374L109.056 62.1438L107.533 68.8456L107.228 69.4548L112.102 67.0178L114.235 66.4085H117.281L119.413 67.6271L120.632 69.4548L120.937 71.5872L120.023 75.2427L118.195 78.5936L115.453 82.2491L111.189 86.8185L107.228 90.1694L102.05 93.8249L96.5665 96.8712H95.9573L95.348 98.3943L92.3018 103.268L89.5601 106.924L85.6 111.798L81.0306 116.672L76.7658 120.632L73.4149 123.374L69.4548 126.42L64.8854 129.466L59.7067 132.512L55.1373 134.949L48.1309 137.996L40.5153 140.737L33.2043 142.565L26.1979 143.784L19.8007 144.393H12.185L5.7879 143.479L2.43701 142.26L0.609252 140.737L0 137.996L0.913879 135.559L3.96014 132.512L7.31103 129.771L11.2712 126.115L14.3174 123.374L18.2776 119.109L22.2377 113.93L25.8932 108.447L29.5487 102.05L32.8996 95.0434L35.9459 86.5139L35.6413 84.9907L32.8996 80.4214L30.158 74.6335L28.3302 69.7594L26.8071 62.753V55.7466L27.721 53.6142L29.2441 52.0911L30.158 51.4819H33.8135L36.5551 53.3096L39.2968 56.3559L40.8199 58.7929L41.4292 55.1374L42.6477 44.7801L42.9523 43.5616H44.7801L43.5616 53.6142L42.9523 58.4883L41.7338 69.4548L40.2107 77.9843L38.9922 83.163L37.469 88.3416L36.2505 91.9972L34.4228 96.5665L33.2043 99.3082L29.5487 106.315L27.1117 109.97L25.5886 112.712L22.847 116.367L19.8007 120.327L17.0591 123.374L14.6221 125.506L10.6619 129.466L6.70178 132.817H6.09252V133.426L4.56939 134.645H3.96014L3.35089 135.863L2.13238 137.386L1.82776 138.605L2.74164 140.128L3.96014 141.042L7.61566 141.956L9.74804 142.26H22.2377L29.2441 141.347L38.6875 139.214L45.9986 136.777L54.2235 133.122L60.6206 129.771L66.4085 126.115L71.2825 122.46L74.3288 120.023L78.5936 116.367L83.4676 111.493L86.2092 108.142L89.5601 103.878L94.4341 96.2619L98.6989 88.037L102.354 78.8982L105.096 70.6733L107.533 60.0114L108.447 54.5281V49.6541L107.533 45.9986L105.096 41.4292L102.964 38.6876L99.9174 38.3829V38.0783L104.182 37.7737Z" fill="#8A0E0D"/>
<path d="M56.6604 30.158L59.0974 30.7672L67.0177 31.0718L70.064 31.9857L72.1964 33.8135L74.6334 37.469L76.1565 38.6875H78.5935L82.249 38.3829L83.1629 38.6875L86.8184 38.0782H88.6462L89.5601 39.2967L91.3878 46.3031L91.0832 49.3494L89.5601 54.2234L88.9508 57.2697L88.3415 58.1836L88.6462 60.6206L86.8184 60.0113L84.3814 60.316L82.8583 61.8391L81.3351 64.2761L80.4213 67.627L80.1166 69.4547V71.8918L80.7259 74.6334L81.3351 76.4611L80.7259 78.5935L80.4213 79.5074L81.0305 79.812L80.1166 83.4675L77.6796 88.3416L76.4611 91.6925L74.3287 94.4341L73.1102 96.5665L71.2825 99.6127L68.5408 102.964L66.7131 105.401L65.4946 107.228L63.3622 109.361L61.2298 111.798L56.965 116.063L54.528 117.586L51.4818 120.327L49.9586 121.546L47.8263 122.764H46.9124V123.374L43.5615 125.201L42.0384 125.506V126.115L38.6875 127.943L36.8597 128.552L34.1181 129.771L30.1579 131.294L26.1978 133.122L20.4099 135.559L15.2313 137.386L10.3572 139.214L7.6156 139.823L7.31097 141.347L7.92022 141.956L4.87396 141.651L3.0462 140.737L1.8277 139.519L1.52307 137.996L2.74158 136.168H3.65545L4.26471 136.473V137.082L7.92022 136.777L12.7942 135.254L17.059 133.122L20.7145 131.903L23.1515 130.685L25.5885 129.161L27.7209 127.638L32.5949 125.201L36.5551 122.764H37.1643V122.155L38.9921 121.85V121.241L41.4291 120.023H42.0384L42.343 119.109L44.1707 117.586H44.78L45.3892 116.367L46.9124 114.844L48.4355 113.016L50.2633 111.493H50.8725L51.4818 110.275L52.3957 109.056L53.3095 107.533L55.7465 104.791L57.2697 103.268L60.9252 98.6989L61.8391 96.8711L63.0576 95.348L65.19 91.6925L66.7131 88.6462L67.627 86.5138L67.3223 82.8583L68.2362 80.4213H68.8455V79.5074L70.3686 79.2028L70.6732 78.2889L67.3223 76.4611L65.7992 74.0241V72.8056L67.3223 72.501L68.8455 74.938L70.3686 75.5473L69.4547 74.3288L69.7593 72.8056L72.1964 71.5871H72.8056L73.1102 70.6732H73.7195L74.0241 66.7131L75.8519 64.2761L76.1565 61.8391L77.375 59.4021V58.1836L78.2889 56.6604L78.5935 53.3096L79.5074 51.1772L81.0305 47.217L82.249 45.9985L82.8583 42.6476L84.0768 41.4291L84.3814 39.2967L80.4213 40.2106L77.0704 40.5153L74.6334 39.2967L71.8917 35.9459L70.6732 34.4227L69.1501 33.5088L66.4085 32.8996L59.4021 32.595L56.965 31.6811L56.3558 30.4626L56.6604 30.158Z" fill="#D5241A"/>
<path d="M100.831 0H105.705L108.447 1.2185L109.665 3.65551V9.13879L108.142 12.185L106.619 13.4036H104.182L100.527 12.4897L96.2618 12.185L93.2155 13.0989L91.0832 14.9267L89.2554 17.9729L88.6461 19.8007V23.1516L90.1693 25.5886L91.6924 26.8071L96.2618 28.6349L99.9173 30.7672L102.659 33.2043L105.096 36.5551L104.791 37.7737L104.182 38.0783H99.3081L91.6924 35.9459H88.0369L81.9444 37.7737L78.5935 38.9922H76.1565L74.0241 37.1644L71.5871 33.5089L70.0639 32.2904L67.0177 31.3765L59.0974 31.0719L56.6604 30.158L54.8326 30.4626L51.7864 32.2904L48.4355 35.032L47.217 35.3366L46.9124 34.1181H47.5216L48.1309 32.8996L49.654 31.3765L53.6141 28.9395L55.4419 28.3302L56.0511 27.1117L59.0974 24.9794L63.3622 23.4562L64.8853 23.1516L70.3686 22.847L73.7195 21.9331L76.1565 19.8007L79.2027 14.6221L81.3351 11.5758L84.0767 8.22491L87.4276 5.17865L91.3878 2.74164L95.9572 0.913879L100.831 0Z" fill="#5F8A33"/>
<path d="M42.9523 43.5615H44.7801L43.5616 53.6142L42.9523 58.4882L41.7338 69.4548L40.2107 77.9843L38.9922 83.1629L37.469 88.3416L36.2505 91.9971L34.4228 96.5665L33.2043 99.3081L29.5487 106.315L27.1117 109.97L25.5886 112.712L22.847 116.367L19.8007 120.327L17.0591 123.374L14.6221 125.506L10.6619 129.466L6.70178 132.817H6.09252V133.426L4.56939 134.645H3.96014L3.35089 135.863L2.13238 137.386L1.82776 138.605L2.74164 140.128L3.04626 141.042L4.56939 141.956L3.65551 142.26L1.2185 141.347L0.304626 140.128L0 137.996L0.913879 135.559L3.96014 132.512L7.31103 129.771L11.2712 126.115L14.3174 123.374L18.2776 119.109L22.2377 113.93L25.8932 108.447L29.5487 102.05L32.8996 95.0434L35.9459 86.5138L35.6413 84.9907L32.8996 80.4213L30.158 74.6334L28.3302 69.7594L26.8071 62.753V55.7466L27.721 53.6142L29.2441 52.0911L30.158 51.4818H33.8135L36.5551 53.3096L39.2968 56.3558L40.8199 58.7928L41.4292 55.1373L42.6477 44.78L42.9523 43.5615Z" fill="#890E0D"/>
<path d="M53.3096 34.1182L58.7929 34.4228L63.3623 35.6413L67.6271 37.7737L71.5872 40.8199L72.5011 41.4292L73.1103 42.9523L72.1964 43.257L65.7993 43.5616L62.4484 44.1708L60.6207 45.0847L59.0975 46.6078L58.1836 49.6541L57.5744 52.7004V56.6605L55.7466 59.4021L54.8328 62.4484L54.5281 63.6669V68.2363L55.442 71.5872L54.8328 73.7196L52.7004 81.0306L49.3495 89.5601L47.2171 93.8249L46.6078 94.7388L44.1708 94.4342L42.6477 93.8249L42.9523 90.7786L45.694 81.0306L47.8264 70.9779L49.6541 59.7068L49.9587 55.442L50.2634 54.5281L50.8726 45.694V42.0384L49.3495 40.5153L49.0449 39.6014L49.9587 37.7737L52.3957 36.2505L52.7004 34.7274L53.3096 34.1182Z" fill="#F06E5A"/>
<path d="M100.831 0H105.705L108.447 1.2185L109.665 3.65551V9.13879L108.142 12.185L106.619 13.4036H104.182L100.527 12.4897L96.2618 12.185L93.2155 13.0989L91.0832 14.9267L89.2554 17.9729L88.6461 19.8007V23.1516L90.1693 25.5886L91.6924 26.8071L96.2618 28.6349L99.9173 30.7672L102.659 33.2043L105.096 36.5551L104.791 37.7737L104.182 38.0783H99.3081L91.6924 35.9459H88.0369L81.9444 37.7737L78.5935 38.9922H76.1565L74.0241 37.1644L71.5871 33.5089L70.0639 32.2904L67.0177 31.3765L59.0974 31.0719L56.6604 30.158L54.8326 30.4626L51.7864 32.2904L48.4355 35.032L47.217 35.3366L46.9124 34.1181H47.5216L48.1309 32.8996L49.654 31.3765L53.6141 28.9395L55.4419 28.3302L56.0511 27.1117L59.0974 24.9794L63.3622 23.4562L64.8853 23.1516L70.3686 22.847L73.7195 21.9331L76.1565 19.8007L79.2027 14.6221L81.3351 11.5758L84.0767 8.22491L87.4276 5.17865L91.3878 2.74164L95.9572 0.913879L100.831 0ZM100.222 1.82776L94.434 3.35089L89.56 5.7879L86.5138 8.22491L83.4675 11.5758L80.7259 15.5359L77.9842 20.1053L76.1565 22.2377L73.7195 23.7608L71.8917 24.3701L64.8853 24.9794L61.2298 25.8932L57.8789 27.721L57.2696 28.6349L58.1835 29.2441H62.4483L64.8853 28.6349H67.6269L71.8917 29.2441L72.501 29.8534V31.9858L75.5472 36.2505L76.4611 37.469H78.5935L84.9906 35.032L87.4276 34.4228H92.3017L99.3081 36.5551L100.831 36.8598H102.964L102.659 35.3366L98.3942 31.9858L94.1294 29.5487L91.6924 28.9395V28.3302L88.9508 26.8071L87.7323 24.9794L87.123 22.847V20.7146L88.3415 16.7544L90.4739 13.4036L93.2155 11.5758L95.6525 10.9665H100.222L104.791 11.8804H106.314L107.838 10.0527L108.447 8.22491V4.56939L108.142 3.65551H107.533L106.924 2.43701L106.01 1.82776H100.222Z" fill="#476622"/>
<path d="M100.222 1.82764H106.01L107.533 3.04614L107.838 4.8739L106.619 3.96002V2.74152L105.096 3.65539L104.182 5.48315L103.573 7.31091H98.3943L93.5203 8.52941L90.474 10.3572L87.7324 12.1849L85.9046 15.2312L83.7723 18.5821L82.2491 21.6283L79.5075 28.6347L77.3751 35.6411L77.0705 37.1643L75.852 36.555L73.7196 33.8134L72.5011 31.681V29.8532L71.8918 29.244L67.6271 28.6347H64.8854L62.4484 29.244H58.1837L57.2698 28.3301L60.0114 26.5024L63.3623 25.2839L64.8854 24.9792L71.8918 24.37L74.9381 23.1515L76.7659 21.6283L79.5075 17.6682L82.2491 13.0988L86.2093 8.52941L88.6463 6.39703L92.911 3.96002L97.4804 2.43689L100.222 1.82764Z" fill="#87B044"/>
<path d="M31.0718 53.0049L33.8135 53.3095L36.8597 55.7465L40.5152 61.2298V63.9714L39.6014 72.1963L37.7736 81.3351L36.8597 83.4675L35.6412 82.249L32.595 76.4611L30.158 70.3686L29.2441 66.7131L28.3302 60.6205V57.5743L28.9395 54.8326L31.0718 53.0049Z" fill="#B31B17"/>
<path d="M113.626 68.2363H117.586L119.109 69.7595V72.5011L117.89 76.4612L115.149 80.1168L112.407 83.163L107.533 88.037L102.964 91.3879L98.0897 94.1296L97.785 93.5203L101.441 85.9046L104.487 77.9844L106.619 71.8918L109.056 70.3687H109.97V69.7595L113.626 68.2363Z" fill="#B31B17"/>
<path d="M85.2953 59.7065L87.4277 60.0112L89.2554 61.5343L90.1693 64.2759V68.8453L89.2554 72.5008L88.0369 74.9379L86.2092 77.0702L84.686 77.6795L82.5536 77.3749L81.0305 75.8517L80.1166 73.7193L79.812 71.8916V69.4546L80.7259 65.1898L82.249 62.1436L83.4675 60.6204L85.2953 59.7065Z" fill="#5D0C09"/>
<path d="M59.0974 55.1372H61.5344L63.3622 56.6603L64.2761 59.0973V64.276L63.0575 68.2361L61.2298 70.9778L59.0974 72.8055L56.3558 72.5009L54.528 69.7593L54.2234 68.2361V63.6667L55.1373 60.3159L56.0511 58.4881L57.8789 56.0511L59.0974 55.1372Z" fill="#5E0C09"/>
<path d="M31.0718 53.0049L33.8135 53.3095L36.8597 55.7465L36.5551 56.965H35.9459V59.0974L37.469 60.0113L37.7736 61.839L37.469 62.4483H36.8597L36.5551 63.6668L35.032 64.5807L30.7672 64.8853L29.5487 64.2761V65.7992L28.9395 64.5807L28.3302 60.6205V57.5743L28.9395 54.8326L31.0718 53.0049Z" fill="#E43C2B"/>
<path d="M113.626 68.2363H117.586L119.109 69.7595V72.5011L117.89 76.4612L116.367 77.3751V76.4612L112.407 75.852L110.884 75.5474L110.275 75.2427V74.6335H109.665L109.056 73.415V70.3687H109.97V69.7595L113.626 68.2363Z" fill="#E23B2A"/>
<path d="M56.0513 35.032L59.0975 35.3366L63.0577 36.8597L63.6669 37.7736V39.906L62.1438 40.8199L55.442 42.0384H52.3958L51.1772 40.8199V38.6875L53.3096 36.2505L54.8328 35.3366L56.0513 35.032Z" fill="#D7AFAF"/>
<path d="M36.8598 56.3557L38.3829 57.8788L38.0783 58.7927L38.6876 60.9251V63.6667L37.469 68.8454L36.2505 70.3685L32.595 70.6731L31.9858 72.5009L32.2904 74.3287H31.6812L29.8534 69.15L29.2441 65.7991L29.5488 64.276L30.7673 64.5806L35.032 64.276L36.5552 63.3621L36.8598 62.4482H37.469L37.1644 60.0112L35.6413 59.0973L35.9459 56.965L36.8598 56.3557Z" fill="#D5241A"/>
<path d="M38.3829 103.573L40.2107 103.877L40.5153 104.182L40.2107 106.619L37.1644 111.798L35.6413 113.016V115.453L33.8135 116.976L32.8997 117.281H29.8534L28.6349 116.367L28.9395 114.539H29.5488V113.93H30.158V113.321L32.595 111.493L35.032 107.533L36.8598 105.096L38.3829 103.573Z" fill="#F16F5B"/>
<path d="M108.447 70.6733H109.056L109.361 73.415L109.665 74.6335H110.275V75.2427L114.844 75.852L116.672 76.1566V77.0705L117.281 76.7659L116.672 77.9844L114.235 81.3353L112.102 83.4676H111.493L111.798 81.0306H108.142L106.924 80.726V77.0705L107.533 73.7196L107.228 72.1965L106.924 71.5872L108.447 70.6733Z" fill="#D4241A"/>
<path d="M118.5 74.938H119.109L118.804 76.4611L117.586 79.5074L115.149 82.5536L111.493 86.5138L108.447 89.2554L104.791 91.9971L104.487 91.3878L104.791 90.7786L101.136 93.2156H100.527L100.831 92.3017L105.096 89.56L108.447 86.8184L114.235 81.0305L117.586 76.4611L117.89 75.2426L118.5 74.938Z" fill="#8B0E0D"/>
<path d="M22.2377 122.46L23.7608 122.764L24.0654 124.287L21.3238 126.724L16.1451 130.075L13.7081 131.294H11.8804L12.185 129.771L15.2313 127.638L18.5821 125.201L21.3238 123.069L22.2377 122.46Z" fill="#F16F5B"/>
<path d="M56.6605 30.158L59.0975 30.7672L67.0178 31.0718L70.064 31.9857L72.1964 33.8135L74.6334 37.469V38.3829L73.4149 37.7736L70.6733 34.4227L69.1501 33.5088L66.4085 32.8996L59.4021 32.595L56.9651 31.6811L56.3558 30.4626L56.6605 30.158Z" fill="#AC1815"/>
<path d="M84.686 61.8391H86.8184L87.7323 63.0576V66.1039L86.8184 67.9316L85.9045 68.5409H84.3814L83.1629 67.3224L82.8583 64.5807L83.7722 62.753L84.686 61.8391Z" fill="#F8F2F2"/>
<path d="M60.0114 56.9651L61.5345 57.5743L62.1437 58.4882V61.5345L61.2299 63.0576L59.7067 63.9715L58.1836 63.3622L57.5743 62.4484V59.4021L58.7928 57.5743L60.0114 56.9651Z" fill="#F9F3F3"/>
<path d="M66.4084 72.501H67.3223L68.8455 74.938L70.6732 75.8519L73.1102 75.5472L74.938 74.3287L76.1565 74.6334L75.8519 76.1565L73.4149 77.6796L72.501 77.9842H69.7593L67.0177 76.1565L65.7992 74.0241V72.8056L66.4084 72.501Z" fill="#620C09"/>
<path d="M20.1053 60.6206H20.4099V67.3224L21.6284 71.2825L23.1515 74.6334L21.6284 74.3288L19.8007 71.8918L18.8868 69.4548L18.5822 68.2363V63.3622L19.8007 60.9252L20.1053 60.6206Z" fill="#8A0E0D"/>
<path d="M122.764 76.1565L123.678 77.0704V79.812L122.46 83.4675L120.023 86.8184L117.586 88.3415H116.672L116.977 87.123L119.414 84.686L121.546 80.4213L122.46 76.4611L122.764 76.1565Z" fill="#8B0E0D"/>
<path d="M99.6127 3.35083H101.136L100.831 4.26471L93.5202 6.09247L90.1693 7.92022L87.123 10.3572L84.9907 12.4896L81.9444 17.3636L79.2028 21.6284L78.5935 21.933L79.2028 20.4099L82.249 15.2313L84.9907 11.2711L87.7323 8.22485L90.7786 6.39709L95.6526 4.26471L99.6127 3.35083Z" fill="#FEFEFE"/>
<path d="M54.2235 28.3301H54.8328L55.7466 29.8532L52.0911 31.681L49.0449 34.118L47.8264 35.0319L46.6078 35.3365L46.3032 34.118H46.9125L47.5217 32.8995L49.0449 31.3763L53.005 28.9393L54.2235 28.3301Z" fill="#830E0D"/>
<path d="M64.8854 28.3301H67.627L71.8918 28.9393L72.8057 29.8532V31.681H71.8918L70.6733 30.7671L68.5409 30.1578L65.4946 29.8532L58.7928 29.5486V29.244L62.4484 28.9393L64.8854 28.3301Z" fill="#5F8A33"/>
<path d="M116.367 66.4084L118.195 66.7131L120.023 68.2362L120.937 70.9778L120.023 75.2426L118.5 77.9842H117.89L119.109 74.938L118.195 75.2426L119.109 70.064L118.804 68.2362L116.367 66.7131V66.4084Z" fill="#8B0E0D"/>
<path d="M30.7673 54.2234H31.9858L31.6812 56.3558L30.7673 61.839L29.5488 60.9252L29.2441 59.7067V57.2697L29.8534 54.8326L30.7673 54.2234Z" fill="#F16F5B"/>
<path d="M74.6334 38.0781L76.1566 38.6874H78.5936L82.2491 38.3828L82.8583 39.6013L77.9843 40.5151L76.1566 40.2105L74.0242 38.6874L74.6334 38.0781Z" fill="#CE2219"/>
<path d="M114.539 68.8455H116.672V70.064L114.844 70.9778L111.798 72.1963L109.97 72.501L110.579 71.2825L113.626 69.1501L114.539 68.8455Z" fill="#F16F5B"/>
<path d="M125.201 83.4675L125.811 84.0768L125.506 86.2092L123.983 88.6462L121.85 89.8647L120.937 89.5601L122.764 87.4277L124.592 84.3814L125.201 83.4675Z" fill="#8F0F0E"/>
<path d="M15.2313 67.0176H15.8406L17.0591 72.1962L17.3637 73.4147L16.7545 73.7194L15.2313 72.1962L14.6221 70.3685V68.2361L15.2313 67.0176Z" fill="#8D0F0E"/>
<path d="M32.2904 112.407L33.8135 112.712L33.5089 114.539L31.6812 116.062L30.4626 115.758V114.235L32.2904 112.407Z" fill="#D7AFAE"/>
<path d="M90.7786 28.6348L92.3017 28.9394L95.9572 30.4625L99.6127 32.8995L101.745 34.7273L102.354 36.2504L101.136 35.6412L98.0896 32.5949L95.6526 31.0718L90.7786 28.9394V28.6348Z" fill="#87B044"/>
<path d="M43.5616 43.8662H44.4755L44.1708 49.0449L43.257 53.3096H42.9523L42.6477 51.1772L43.257 47.2171L43.5616 44.1708V43.8662Z" fill="#6C0E0B"/>
<path d="M42.6476 54.2234H42.9523V58.4882L42.343 63.6668L41.7338 64.5807V61.2298L42.0384 56.3558L42.6476 54.2234Z" fill="#600C09"/>
<path d="M16.1451 122.764H16.7544L16.1451 123.983L11.8804 128.248H11.2711L11.8804 126.725L14.3174 124.288L16.1451 122.764Z" fill="#600C09"/>
<path d="M114.539 68.8455H116.672V70.064L115.758 70.6732L113.016 70.3686L113.626 69.1501L114.539 68.8455Z" fill="#EB7968"/>
<path d="M103.268 79.812H103.573L103.268 82.249L100.527 88.3415L99.9174 88.6462L100.831 85.9045L103.268 79.812Z" fill="#660C0A"/>
<path d="M56.6605 30.158L58.4882 30.7672L59.7067 31.6811V32.2903H63.0576V32.595H59.4021L56.9651 31.6811L56.3558 30.4626L56.6605 30.158Z" fill="#D1231A"/>
<path d="M118.5 74.938H119.109L118.804 76.4611L116.672 79.5074H115.758L116.367 77.9843L117.586 76.4611L117.89 75.2426L118.5 74.938Z" fill="#5E0C09"/>
<path d="M106.619 88.3416L107.533 88.6462L102.659 92.3017L101.136 93.2156H100.527L100.831 92.3017L105.096 89.5601L106.619 88.3416Z" fill="#6E0C0A"/>
<path d="M38.3829 82.249H38.6876L38.3829 84.9907L37.1644 88.9508L36.5552 89.2554L37.1644 86.2092L37.7737 83.4675L38.3829 82.249Z" fill="#6C0D0A"/>
<path d="M30.7673 54.2234H31.9858L31.6812 56.3558L31.3765 56.6604H29.8534L30.4626 54.528L30.7673 54.2234Z" fill="#D7ADAD"/>
<path d="M8.83416 129.771H9.44342L8.83416 130.989L6.09253 133.121L5.48328 132.817L7.31103 130.684L8.83416 129.771Z" fill="#630C09"/>
<path d="M106.01 72.1963L106.315 73.4148L104.791 77.9842L104.182 78.2888L104.791 74.9379L106.01 72.1963Z" fill="#640C09"/>
<path d="M64.8854 72.8057H65.4946L66.1039 74.6334L65.7993 74.938H64.2761L63.6669 73.7195L64.8854 72.8057Z" fill="#D5251B"/>
<path d="M51.7864 47.217L53.9188 47.5217L53.6142 49.0448L52.0911 48.7402L51.4818 47.5217L51.7864 47.217Z" fill="#D89C98"/>
<path d="M111.188 84.0767H112.102L111.493 85.2952L108.751 87.4275V86.5137L111.188 84.0767Z" fill="#670C0A"/>
<path d="M54.2234 29.2441H55.7466L56.0512 29.8534L52.3957 31.6812L51.4818 31.3765L53.9188 29.5488L54.2234 29.2441Z" fill="#640C09"/>
<path d="M36.2505 89.5601H36.5552V91.3878L35.3367 94.1295H34.7274L35.3367 91.9971L36.2505 89.5601Z" fill="#760F0C"/>
<path d="M99.3081 89.2554L99.6127 90.4739L98.3942 92.9109L97.4803 93.2155L98.0896 91.3878L99.3081 89.2554Z" fill="#6A0C0A"/>
<path d="M28.6348 53.9187H29.2441L28.9395 55.4418L28.0256 56.965H27.7209V54.8326L28.6348 53.9187Z" fill="#5D0C09"/>
<path d="M116.367 66.4084L118.195 66.7131L120.023 68.2362L119.718 69.1501V68.5408L118.5 67.9316L116.367 66.7131V66.4084Z" fill="#AF1A16"/>
<path d="M75.8519 28.6348L76.4611 28.9394L75.5472 31.681L74.938 31.3764L75.2426 29.244L75.8519 28.6348Z" fill="#FEFEFE"/>
</svg>
