<svg width="100" height="169" viewBox="0 0 100 169" fill="none" xmlns="http://www.w3.org/2000/svg">
<path d="M56.5439 0H61.5981L64.1252 1.26355L66.0206 3.79065L66.3364 5.05421L66.6523 14.8467L67.9159 21.1645L69.4953 25.271L72.0224 28.4299L75.4972 31.2729L78.6561 34.1159L81.1832 36.643L84.6579 41.3813L87.185 45.8037L88.7645 49.2785L91.6075 57.8075L92.871 64.1252L93.8187 72.6542V89.0804L92.5551 99.5047L91.9234 102.979V105.191L95.714 110.877L97.9252 115.299L99.1888 119.721V123.512L97.9252 125.723L96.0299 127.303L95.0822 127.619H92.871L89.0804 125.723L86.2374 122.88H85.6056L82.1308 129.514L77.7084 135.516L74.8654 138.675L72.9701 140.886L71.7065 141.834L71.0748 145.624L69.8112 158.26L68.5477 163.63L66.9682 166.473L64.757 168.368L62.5458 169L59.3869 168.684L57.4916 167.421L55.5963 164.893L54.0168 160.155L52.7533 153.837L43.9084 156.364L43.2766 156.68L42.329 162.366L40.7495 165.525L39.1701 167.105L37.5907 167.736H33.8L31.2729 166.157L29.3776 163.314L27.4822 157.944L20.5327 156.996L14.5308 155.417L10.1084 153.837L4.42243 151.31L1.89533 149.099L0.315888 145.94L0 144.993V141.518L3.47477 132.673L5.37009 127.935L7.26542 124.46L11.0561 119.09L12.0037 118.142V117.51L9.47663 116.247L8.21308 114.351L7.8972 111.508L9.79252 107.718L12.9514 104.559L16.4262 101.716L19.2692 99.5047L22.7439 96.6617L24.3234 95.0822L25.9028 90.9757L27.7981 82.1308L28.7458 74.5495L29.6935 66.0206L31.2729 56.5439L33.1682 49.9103L35.3794 44.5402L39.1701 38.5383L42.9607 34.4318L45.8037 31.5888L48.3308 29.3776L49.5944 27.4822L50.2262 25.271V20.8486L48.9626 16.1103L46.4355 10.4243V7.8972L47.3832 6.00187L49.9103 3.15888L54.3327 0.631776L56.5439 0Z" fill="#FBD960"/>
<path d="M56.5439 0H61.5981L64.1252 1.26355L66.0206 3.79065L66.3364 5.05421L66.6523 14.8467L67.9159 21.1645L69.4953 25.271L72.0224 28.4299L75.4972 31.2729L78.6561 34.1159L81.1832 36.643L84.6579 41.3813L87.185 45.8037L88.7645 49.2785L91.6075 57.8075L92.871 64.1252L93.8187 72.6542V89.0804L92.5551 99.5047L91.9234 102.979V105.191L95.714 110.877L97.9252 115.299L99.1888 119.721V123.512L97.9252 125.723L96.0299 127.303L95.0822 127.619H92.871L89.0804 125.723L86.2374 122.88H85.6056L82.1308 129.514L77.7084 135.516L74.8654 138.675L72.9701 140.886L71.7065 141.834L71.0748 145.624L69.8112 158.26L68.5477 163.63L66.9682 166.473L64.757 168.368L62.5458 169L59.3869 168.684L57.4916 167.421L55.5963 164.893L54.0168 160.155L52.7533 153.837L43.9084 156.364L43.2766 156.68L42.329 162.366L40.7495 165.525L39.1701 167.105L37.5907 167.736H33.8L31.2729 166.157L29.3776 163.314L27.4822 157.944L20.5327 156.996L14.5308 155.417L10.1084 153.837L4.42243 151.31L1.89533 149.099L0.315888 145.94L0 144.993V141.518L3.47477 132.673L5.37009 127.935L7.26542 124.46L11.0561 119.09L12.0037 118.142V117.51L9.47663 116.247L8.21308 114.351L7.8972 111.508L9.79252 107.718L12.9514 104.559L16.4262 101.716L19.2692 99.5047L22.7439 96.6617L24.3234 95.0822L25.9028 90.9757L27.7981 82.1308L28.7458 74.5495L29.6935 66.0206L31.2729 56.5439L33.1682 49.9103L35.3794 44.5402L39.1701 38.5383L42.9607 34.4318L45.8037 31.5888L48.3308 29.3776L49.5944 27.4822L50.2262 25.271V20.8486L48.9626 16.1103L46.4355 10.4243V7.8972L47.3832 6.00187L49.9103 3.15888L54.3327 0.631776L56.5439 0ZM49.9103 12.3196L50.8579 15.4785L51.4897 17.3738L52.1215 22.1121V25.271L51.1738 28.4299L49.2785 30.957L47.0673 33.1682L44.5402 35.0635L41.3813 38.5383L39.1701 41.6972L35.3794 48.9626L33.4841 54.6486L32.2206 60.6505L30.957 69.1794L29.3776 81.1832L27.4822 91.2916L25.5869 96.3458L24.3234 97.6093L22.1121 98.8729L17.6897 102.979L14.215 105.507L10.7402 108.981L9.47663 111.508V114.351L10.7402 115.615L13.2673 116.247L15.1626 114.983L17.0579 112.772V113.404L12.0037 120.985V121.617H11.372L10.4243 122.88V123.828H9.79252L7.26542 128.25L5.68598 131.409L3.15888 138.359L2.84299 139.938H4.73832L6.00187 138.991L7.58131 139.307L9.47663 139.938H12.3196L14.8467 140.254L16.1103 140.886L16.4262 142.15L17.3738 144.677H21.1645L24.6393 144.361L32.5364 142.465L40.1178 139.622L45.4879 136.779L49.9103 134.568L54.3327 131.409L57.4916 128.882L64.757 121.617L66.3364 118.774L68.2318 116.247L70.7589 112.14L72.9701 107.718L76.7607 98.2411L79.6037 87.185L79.9196 84.3421L80.2355 75.4972L79.9196 74.5495H79.2878L78.0243 63.4935L76.7607 57.1757L73.6019 47.6991L70.7589 40.7495L69.1794 37.9065H68.5477L68.2318 36.643L65.7047 33.1682H65.0729V32.5364L63.4935 31.2729L62.5458 29.6935L60.6505 22.428L59.7028 17.0579L58.7551 14.8467L57.4916 13.5832H55.2804L54.6486 14.215H52.4374V13.5832L50.5421 12.3196H49.9103Z" fill="#DEA12E"/>
<path d="M56.5439 0H61.5981L64.1252 1.26355L66.0206 3.79065L66.3364 5.05421L66.6523 14.8467L67.9159 21.1645L69.4953 25.271L72.0224 28.4299L75.4972 31.2729L78.6561 34.1159L81.1832 36.643L84.6579 41.3813L87.185 45.8037L88.7645 49.2785L91.6075 57.8075L92.871 64.1252L93.8187 72.6542V89.0804L92.5551 99.5047L91.9234 102.979V105.191L95.714 110.877L97.9252 115.299L99.1888 119.721V123.512L97.9252 125.723L96.0299 127.303L95.0822 127.619H92.871L89.0804 125.723L86.2374 122.88H85.6056L82.1308 129.514L77.7084 135.516L74.8654 138.675L72.9701 140.886L71.7065 141.834L71.0748 145.624L69.8112 158.26L68.5477 163.63L66.9682 166.473L64.757 168.368L62.5458 169L59.3869 168.684L57.4916 167.421L55.5963 164.893L54.0168 160.155L52.7533 153.837L43.9084 156.364L43.2766 156.68L42.329 162.366L40.7495 165.525L39.1701 167.105L37.5907 167.736H33.8L31.2729 166.157L29.3776 163.314L27.4822 157.944L20.5327 156.996L14.5308 155.417L10.1084 153.837L4.42243 151.31L1.89533 149.099L0.315888 145.94L0 144.993V141.518L3.47477 132.673L5.37009 127.935L7.26542 124.46L11.0561 119.09L12.0037 118.142V117.51L9.47663 116.247L8.21308 114.351L7.8972 111.508L9.79252 107.718L12.9514 104.559L16.4262 101.716L19.2692 99.5047L22.7439 96.6617L24.3234 95.0822L25.9028 90.9757L27.7981 82.1308L28.7458 74.5495L29.6935 66.0206L31.2729 56.5439L33.1682 49.9103L35.3794 44.5402L39.1701 38.5383L42.9607 34.4318L45.8037 31.5888L48.3308 29.3776L49.5944 27.4822L50.2262 25.271V20.8486L48.9626 16.1103L46.4355 10.4243V7.8972L47.3832 6.00187L49.9103 3.15888L54.3327 0.631776L56.5439 0ZM53.7009 3.47477L50.5421 5.05421L49.2785 6.31776L48.6467 7.8972V10.1084L49.9103 14.215L51.4897 18.6374L52.1215 22.1121V25.271L51.1738 28.4299L49.2785 30.957L47.0673 33.1682L44.5402 35.0635L41.3813 38.5383L39.1701 41.6972L35.3794 48.9626L33.4841 54.6486L32.2206 60.6505L30.957 69.1794L29.3776 81.1832L27.4822 91.2916L25.5869 96.3458L24.3234 97.6093L22.1121 98.8729L17.6897 102.979L14.215 105.507L10.7402 108.981L9.47663 111.508V114.351L10.7402 115.615L13.2673 116.247L15.1626 114.983L17.0579 112.772V113.404L12.0037 120.985V121.617H11.372L10.4243 122.88V123.828H9.79252L7.26542 128.25L5.68598 131.409L3.15888 138.359L2.84299 139.938L6.94953 140.886L8.84486 142.15L10.1084 143.729L11.0561 145.94V148.783L9.79252 150.994L9.47663 151.626L13.8991 153.521L19.585 155.101L25.271 156.049L29.6935 156.364H32.8523L43.2766 155.101L49.9103 153.206L52.7533 151.626L53.0692 150.678H53.7009L55.2804 158.576L57.1757 164.578L58.4393 166.473L60.0187 167.421H63.1776L65.7047 165.209L67.2841 162.682L68.2318 158.576L69.1794 149.099L69.8112 142.465L70.443 139.622H71.7065L75.1813 136.148L79.6037 130.146L82.7626 125.092L84.6579 120.353L80.8673 114.983L80.5514 114.036L82.7626 116.563L84.6579 119.09L87.5009 122.249L89.7121 124.46L92.871 126.039H95.0822L96.9776 124.776L97.6093 123.512V119.721L96.0299 114.983L92.871 108.981L90.3439 105.191L87.5009 101.4L89.3963 102.979H90.028L90.9757 99.1888L91.9234 93.1869L92.5551 84.9738V77.7084L91.9234 69.4953L90.6598 61.5981L88.4486 54.0168L86.2374 48.0149L83.7103 43.2766L80.5514 38.8542L76.129 34.1159L72.6542 30.957L71.0748 29.6935H70.443L69.8112 28.4299L67.6 25.271L65.7047 20.5327L64.757 16.1103L64.1252 8.52897H63.4935V7.8972L60.9664 8.21308L58.7551 10.4243L56.5439 11.372H51.8056L49.5944 10.7402L50.5421 8.21308L51.8056 7.58131H54.3327L56.228 6.31776L56.8598 4.73832H56.228V4.10654H55.2804V3.47477H53.7009Z" fill="#66340F"/>
<path d="M53.7009 3.47461H55.2804V4.10639H56.228V4.73816L56.8598 5.05405L55.9121 6.63349L54.3327 7.58115H51.4897L50.2262 8.52882L49.5944 10.74L51.8056 11.3718H56.5439L59.071 10.1083L60.9664 8.21293L63.4935 7.89704V8.52882H64.1252L64.757 16.1101L66.0206 21.4802L67.6 25.2709L69.8112 28.4298L70.443 29.6933L71.7065 30.3251L76.129 34.1157L78.972 36.9587L81.815 40.4335L84.9738 45.4877L87.5009 51.1737L90.028 59.0709L91.2916 65.0727L92.2393 72.3382L92.5551 77.7083V84.9737L91.9234 93.1868L90.6598 101.084L90.028 102.979L88.7645 102.348L87.5009 101.4L91.2916 106.454L95.0822 113.088L96.3458 115.615L96.0299 116.562L94.4505 114.035L93.5028 111.824L91.2916 108.349V107.402H90.6598L87.5009 102.979L86.2374 101.084L85.6056 100.452L82.4467 100.136L80.5514 99.8204L80.2355 97.2933L81.1832 95.398L81.815 89.712L82.7626 84.3419L83.0785 78.34V74.8653L83.3944 72.0223V62.5456H83.0785L82.7626 59.7026L82.4467 57.8073L82.1308 54.0167L80.8673 52.7531L80.2355 51.1737L78.0243 48.6466V48.0148H77.3925L77.0766 45.8036L77.3925 43.5924L76.7607 42.0129L75.4972 40.4335L73.6019 39.1699L71.0748 37.9064L70.443 36.6428H69.8112L68.2318 34.7475V34.1157H67.6V33.484L66.3364 33.1681L64.1252 32.2204L62.8617 30.641L61.914 28.4298L60.3346 22.4279L59.3869 17.0578L58.4393 14.8466L57.4916 13.8989H55.2804L54.6486 14.5307L52.4374 14.2148V13.583L50.8579 12.9512L49.9103 12.3195L51.8056 17.3737L51.4897 18.6372L48.9626 11.3718L48.6467 10.1083V7.89704L49.5944 6.00171L51.4897 4.42227L53.7009 3.47461Z" fill="#DEA12E"/>
<path d="M65.0729 32.5366L66.6523 33.1684L67.6 33.4843V34.1161H68.2318L68.8635 35.6955L69.8112 36.0114V36.6432H70.443L72.0224 38.2226L74.5495 39.4862L76.4448 41.0656L77.3925 42.3291L77.7084 43.9086L77.3925 48.0151H78.0243L80.8673 51.4899L81.499 53.0693L82.4467 54.017L82.7626 58.1235L83.3944 61.5983H83.7103V72.6544L83.3944 75.4974V79.6039L83.0785 84.974L82.1308 90.0282L81.499 95.3983L80.5514 97.6095V99.8207H84.0261L85.9215 100.453L87.185 101.716L88.4486 103.927L90.6598 106.77V107.402H91.2916L92.5551 109.929L94.4504 112.772L95.0822 114.352L96.0299 115.931V116.563H96.6617L97.6093 119.722V123.512L96.6617 125.092L94.7663 125.724L92.5551 125.408L89.7121 123.512L85.2897 119.09L84.6579 117.51H84.0261L82.4467 114.983L81.499 113.404L80.5514 112.456V111.824L79.6037 111.509V110.877H78.9719L78.0243 109.613L75.8131 108.981L74.2336 109.613L73.6018 109.297L73.9177 106.138L73.6018 105.191L76.7607 97.2936L79.2878 87.1852L79.6037 84.3422L79.9196 74.5497H79.2878L78.6561 72.0226L77.7084 63.4936L76.4448 57.1759L73.286 47.6992L70.443 40.7497L69.1794 38.5385V37.9067H68.5476L67.2841 35.6955L65.7047 33.8002V33.1684H65.0729V32.5366Z" fill="#E7B036"/>
<path d="M46.4356 33.4839H47.6991L47.3832 34.7474L45.172 38.5381L44.8561 40.1175H47.3832L51.1739 42.0129L56.2281 42.9605L57.8075 44.2241L58.4393 45.4876L58.7552 48.0147V50.2259L57.1758 54.3325L53.701 57.8073L50.858 58.439H45.172L43.5926 56.5437H42.0131L41.3814 59.7026L40.4337 60.3344L38.8543 60.0185L38.2225 59.3867V56.8596L39.1701 55.596L40.4337 54.9643L39.8019 53.0689L38.8543 51.1736H38.2225L36.9589 54.3325L35.0636 61.5979L33.4842 70.7587L33.1683 74.2334L32.5365 76.1287L33.4842 75.497V77.0764L33.1683 77.3923L32.8524 81.183L33.1683 83.3942L35.0636 86.2372L36.3272 87.1848L37.5907 87.5007H41.6973L43.5926 86.553H44.5402L44.2244 87.8166L42.329 89.0802L39.8019 89.7119H37.5907L33.1683 87.5007L31.9047 86.553L30.9571 86.2372L30.3253 87.8166L28.7458 89.396V87.1848L30.3253 78.9717L31.9047 65.0727L32.5365 58.7549L34.1159 52.4372L36.0113 47.6988L39.486 41.0652L43.5926 36.011L46.4356 33.4839Z" fill="#FDEA9A"/>
<path d="M53.7009 3.47461H55.2804V4.10639H56.228V4.73816L56.8598 5.05405L55.9121 6.63349L54.3327 7.58115H51.4897L50.2262 8.52881L49.5944 10.74L51.8056 11.3718H56.5439L59.071 10.1083L60.9664 8.21293L63.4935 7.89704V8.52881H64.1252L64.757 16.1101L66.0206 21.4802L67.6 25.2709L69.8112 28.4297L70.443 29.6933L71.7065 30.3251L76.129 34.1157L77.3925 35.6952L76.4449 36.0111L78.6561 39.8017L79.2879 44.2241L80.8673 45.8036L81.4991 48.0148V49.5942L80.8673 50.226L79.2879 49.9101L78.0243 48.6466V48.0148H77.3925L77.0766 45.8036L77.3925 43.5924L76.7607 42.0129L75.4972 40.4335L73.6019 39.1699L71.0748 37.9064L70.443 36.6428H69.8112L68.2318 34.7475V34.1157H67.6V33.484L66.3364 33.1681L64.1252 32.2204L62.8617 30.641L61.914 28.4297L60.3346 22.4279L59.3869 17.0578L58.4393 14.8466L57.4916 13.8989H55.2804L54.6486 14.5307L52.4374 14.2148V13.583L50.8579 12.9512L49.9103 12.3195L51.8056 17.3737L51.4897 18.6372L48.9626 11.3718L48.6467 10.1083V7.89704L49.5944 6.00171L51.4897 4.42227L53.7009 3.47461Z" fill="#D18F2A"/>
<path d="M64.757 73.918H69.1794L72.9701 75.8133L74.2336 77.3927L73.9177 78.0245L72.6542 77.0768L73.9177 79.2881L74.2336 80.5516V83.7105L72.9701 86.8694L71.7065 88.4488L69.1794 89.7124L66.3364 90.0282L63.4934 89.3965L60.6505 87.5011L59.3869 85.6058L58.7551 83.0787V80.8675L60.0187 77.3927L61.914 75.1815L64.757 73.918Z" fill="#61300E"/>
<path d="M68.5476 145.309H68.8635V152.89L67.9158 160.155L66.9682 163.314L65.7046 165.21L63.1775 167.421H60.0187L58.1233 166.157L56.5439 162.998L54.6486 155.733V152.89L56.5439 152.258H57.4916L59.7028 149.731L62.5458 147.836L64.1252 148.152L65.0729 149.731L66.0205 153.522L66.6523 153.838L67.2841 150.047L67.6 147.836L68.2317 145.624L68.5476 145.309Z" fill="#E6AF36"/>
<path d="M10.4243 143.729L11.372 144.677V145.308L19.5851 145.624L20.2169 147.836L25.2711 149.099L30.3253 149.731L34.1159 149.415H39.486L42.9608 150.047L43.2767 150.679L42.6449 151.942L39.8019 152.89L35.3795 153.837L28.7458 154.153H24.9552V153.522L22.4281 153.837L19.5851 153.206L18.0057 153.522L20.8486 154.469L24.9552 155.101L31.2729 155.417L33.8001 155.101L40.7496 154.469L47.3832 152.89L51.4898 151.626L53.0692 149.415H53.701L54.0169 151.31L53.701 150.679H53.0692L52.4374 151.942L48.9627 153.522L43.2767 155.101L32.8524 156.365H29.6935L23.0599 155.733L15.7944 154.153L10.7402 152.258L9.47668 151.31L10.7402 149.731L11.0561 148.783V145.94L10.4243 144.677V143.729Z" fill="#D18F2A"/>
<path d="M37.5907 72.0225H41.0655L44.2243 73.6019L45.4879 75.1813L46.7515 78.3402V82.1309L44.8561 85.9215L42.6449 87.501L41.6972 87.8169H37.5907L35.3795 86.8692L34.1159 85.6056L32.8524 83.3944L32.5365 79.6038L32.8524 77.3926L35.0636 72.9701L37.5907 72.0225Z" fill="#5F2E0D"/>
<path d="M84.6579 101.084L86.5532 101.716L88.7644 104.243L90.6598 106.77V107.402H91.2915L92.5551 109.929L94.4504 112.772L96.0299 117.194L95.3981 118.458H94.7663L94.1345 119.721L93.1869 120.669H90.9757L90.028 120.353V119.721L88.7644 119.405L86.5532 117.51L84.9738 115.615V114.983H84.342L83.3944 113.719V113.088H82.7626L81.499 110.245V106.77L82.1308 104.559L84.0261 101.716L84.6579 101.084Z" fill="#FBD960"/>
<path d="M77.0766 35.6953L78.3402 36.3271L81.1831 39.486L84.0261 43.9084L86.5532 48.9626L88.4486 54.0168L90.6598 61.5981L91.2916 67.9159L91.9233 72.9701V89.0804L91.2916 95.3981L90.028 101.716H89.0803L88.1327 100.452V98.2411L88.4486 96.9776L89.7121 87.5009L90.028 76.129L89.7121 69.1794L89.3962 66.6523H89.0803L88.1327 61.2822L86.8691 57.1757L86.5532 54.6486H85.9215L84.342 52.7533L82.7626 51.1738L82.4467 48.0149L79.6037 44.8561L78.9719 44.2243L78.3402 39.8019L76.4448 36.643V36.0112L77.0766 35.6953Z" fill="#E7AF36"/>
<path d="M31.9047 62.8618H32.2206L31.9047 67.6001L30.6412 78.9721L28.43 90.3441L25.2711 99.8207L22.744 105.507L18.3215 113.088L16.7421 114.983V114.036L17.3739 112.772L15.7944 114.352L13.8991 115.931L12.9515 116.247L10.4243 115.299L9.47668 114.352V111.509L10.7402 108.981L14.8468 104.875L18.3215 102.348L22.1122 98.873L24.9552 96.9777L25.9029 95.7142L27.4823 91.2917L29.3776 81.1833L31.9047 62.8618Z" fill="#D4932C"/>
<path d="M27.7982 92.8711H28.114L28.4299 96.03L26.8505 101.4L23.6916 108.034L20.5327 113.088L15.4785 119.722L12.6355 123.828L10.1084 127.935L7.58133 132.673L5.05423 138.043L4.10657 138.675V135.832L6.00189 130.778L7.58133 127.619L9.79255 123.828H10.4243L10.7402 122.565L11.372 121.617H12.0038L12.6355 120.037L15.1626 116.247L16.7421 114.667L18.9533 111.508L23.0598 104.243L25.5869 97.9253L27.1664 93.5029H27.7982V92.8711Z" fill="#FCE592"/>
<path d="M62.2299 28.4297L63.1775 29.6932L64.757 31.2727H67.6L69.1794 30.0091H70.7588L73.2859 31.5886L77.3925 35.3792L77.0766 36.011H76.4448L78.656 39.8017L79.2878 44.2241L80.8672 45.8035L81.499 48.0147V49.5942L80.8672 50.2259L79.2878 49.9101L78.0243 48.6465V48.0147H77.3925L77.0766 45.8035L77.3925 43.5923L76.7607 42.0129L75.4971 40.4334L73.6018 39.1699L71.0747 37.9063L70.4429 36.6428H69.8112L68.2317 34.7474V34.1157H67.6V33.4839L66.3364 33.168L64.1252 32.2203L62.8616 30.6409L62.2299 29.6932V28.4297Z" fill="#DD9F2D"/>
<path d="M61.9141 149.099H63.4935L64.7571 151.626V154.153L64.1253 158.576L62.8617 161.735L61.2823 163.314L59.0711 164.262L57.8075 163.946L56.2281 160.155L55.5963 157.628V156.049L57.4916 153.837L59.387 150.994L60.9664 149.731L61.9141 149.099Z" fill="#FCDA61"/>
<path d="M70.1271 90.9756H72.3383L74.2336 91.6074L75.813 92.555L76.4448 94.4504L75.1813 97.6092L73.9177 98.5569L70.7588 99.5046H68.5476L65.3887 98.241L64.1252 96.9775L63.4934 94.1345L64.1252 92.555L64.757 91.9232L70.1271 90.9756Z" fill="#F1BB5E"/>
<path d="M37.9065 157.312H41.0654V160.155L39.8019 163.946L38.2224 165.525L37.2748 166.157H34.1159L31.2729 163.63L30.0093 161.103L29.3776 159.207V157.944L37.9065 157.312Z" fill="#D18F2A"/>
<path d="M88.7645 58.7554L90.028 59.0713L90.6598 61.5984L91.2916 67.9161L91.9233 72.9703V89.0806L91.2916 95.3984L90.028 101.716H89.0804L88.1327 100.453V98.2414L88.4486 96.9778L89.7121 87.5012L90.028 76.1292L89.7121 69.1797L88.7645 60.3348V58.7554Z" fill="#F0BA5C"/>
<path d="M22.1121 98.873H23.0598L22.7439 100.452L18.3215 108.666L16.1103 111.509L14.2149 113.088L13.2673 112.772L10.7402 113.404L10.1084 112.772L10.4243 110.245L11.0561 108.666L14.8467 104.875L18.3215 102.348L22.1121 98.873Z" fill="#F7D25B"/>
<path d="M31.9047 88.4487H34.4318L37.5906 89.3964V90.0282L39.486 90.3441L40.1178 91.2917V93.187L38.2224 95.3983L36.0112 96.3459L32.2206 96.03L29.6935 94.4506L29.3776 93.8188V90.6599L30.957 89.0805L31.9047 88.4487Z" fill="#F1BB5E"/>
<path d="M78.972 112.14L80.5514 112.772L82.7626 114.983L84.0262 116.878V117.51H84.6579L86.5533 120.037L90.3439 123.828L93.5028 125.407L96.0299 125.092L95.0822 126.039H92.871L89.7121 124.46L85.2897 120.037L82.1308 115.931L80.5514 114.035L81.1832 115.299L83.3944 118.458L84.6579 120.669L82.4467 125.407L80.8673 127.935L80.5514 127.303L82.4467 123.828V122.88L80.5514 123.828L78.972 124.46L78.3402 121.933L78.0243 115.299L78.3402 112.772L78.972 112.14Z" fill="#D18F2A"/>
<path d="M6.00183 138.675L7.58127 138.991L9.4766 139.622H12.3196L15.1626 139.938L16.1102 140.886L16.742 141.834L17.3738 144.361H21.1644L24.6392 144.045L32.5364 142.15L34.1159 141.518L35.3794 141.834L31.9046 143.729L29.0616 144.677L24.9551 144.993H12.3196L11.3719 143.413V142.781H10.7401V142.15L7.58127 141.202L4.73828 140.254L5.05417 139.307L6.00183 138.675Z" fill="#E7AF36"/>
<path d="M50.542 150.363H51.4897L51.1738 151.626L48.3308 152.89L42.3289 154.469L37.5906 155.101L32.5364 155.417L31.2729 155.733L24.9551 155.417L19.9009 154.469L18.0056 153.838L17.6897 153.206L19.585 152.89L22.7439 153.522H24.9551L26.5346 153.838H31.5888L37.5906 153.522L41.0654 153.206L47.699 151.31L50.542 150.363Z" fill="#DEA12E"/>
<path d="M68.5476 116.562L68.8635 117.51L65.0729 122.88L61.5981 126.987L56.8598 131.409L51.1738 135.516L44.2243 139.622L37.5906 142.149L35.6953 142.465L36.643 141.518H37.2748V140.886L41.0654 139.622L42.329 139.306V138.675L44.2243 137.727L47.3832 136.779L51.8056 133.936L52.1215 133.305L54.3327 132.041L59.7028 126.987L63.1776 123.512L64.1252 121.933L65.7047 119.405L67.2841 117.826L68.5476 116.562Z" fill="#D18F2A"/>
<path d="M74.2336 79.6035L74.8654 80.8671H75.4972L75.813 81.4988V85.2895L74.5495 87.8166L72.6542 90.0278L70.1271 91.2914L66.3364 91.9231L62.2299 90.3437L60.0186 87.8166L59.7028 86.553L62.2299 88.4484L64.1252 89.396L67.2841 89.7119L69.8112 89.0802L72.3383 87.5007L73.6018 84.9736L73.9177 83.7101L74.2336 79.6035Z" fill="#FDE999"/>
<path d="M70.7589 83.0786H72.0224L72.3383 84.3422L71.7065 86.5534L70.1271 88.1328L67.2841 89.0805L64.757 88.7646L62.2299 87.1852L61.2822 86.2375L61.5981 84.6581L63.4934 84.9739L65.0729 85.2898L67.9159 84.9739L69.1794 84.0263L70.443 83.7104L70.7589 83.0786Z" fill="#D1902A"/>
<path d="M67.6 92.2393H72.3384L73.9178 93.8187L74.2337 95.3981L72.6542 96.9776L71.7066 97.6094H68.8636L66.0206 95.714L65.7047 93.8187L66.6524 92.5551L67.6 92.2393Z" fill="#DEA12E"/>
<path d="M30.0094 159.523L31.5888 159.839L36.643 161.419L37.9066 162.051H39.8019L39.1701 163.946L37.2748 165.525L34.4318 165.841L32.8524 165.209L30.6412 162.682L30.0094 161.103V159.523Z" fill="#DEA12E"/>
<path d="M90.6598 63.4937H90.9757L92.2392 72.3385L92.5551 77.7086V84.974L91.9233 93.1871L90.6598 101.084L90.028 102.98L88.7644 102.348L87.5009 101.4L91.2915 106.454L95.0822 113.088L96.3457 115.615L96.0299 116.563L94.4504 114.036L93.5028 111.824L91.2915 108.35V107.402H90.6598L87.5009 102.98L86.2373 101.084L85.2897 99.8208L87.5009 100.137L89.3962 101.716L90.028 100.453L91.2915 92.8712L91.6074 89.0806V72.9703L90.6598 65.7049V63.4937Z" fill="#D5942B"/>
<path d="M48.6468 136.779L49.2785 137.095L50.2262 136.779L51.4898 137.411L51.1739 138.043H51.8056L51.4898 139.622L49.5944 140.254L46.4356 142.465H40.1178L41.6972 140.886L43.9085 139.622H44.8561V138.991L48.015 137.095L48.6468 136.779Z" fill="#E7B036"/>
<path d="M81.499 124.776L81.8149 125.408L79.9196 128.882L75.4972 134.884L72.6542 138.043L71.3906 138.991V136.464L73.286 134.253L75.8131 130.778L78.9719 126.355L79.6037 125.408L81.499 124.776Z" fill="#F1BB5E"/>
<path d="M43.2767 82.1309H44.5402L44.2243 84.3421L42.9608 85.9215L41.6972 86.5533H37.9066L35.3795 84.658L34.7477 84.0262L35.0636 82.7626H36.3271L37.5907 83.3944H40.7495L41.6972 82.4467L43.2767 82.1309Z" fill="#D18F2A"/>
<path d="M50.542 150.363H51.4897L51.1738 151.626L48.3308 152.89L42.329 154.469L37.5906 155.101L31.9047 155.417L30.6411 154.785L39.486 153.522L44.8561 152.258L50.542 150.363Z" fill="#F1BB5E"/>
<path d="M37.2747 74.2334L39.4859 74.5493L40.4336 75.4969V78.0241L38.8542 79.6035H36.9588L35.3794 78.6558V75.8128L37.2747 74.2334Z" fill="#FDFDFD"/>
<path d="M33.1682 90.0278L36.0112 90.3437L37.5907 91.2914L37.9066 92.5549L36.9589 93.8185L36.0112 94.1344H32.5365L30.957 92.5549L31.2729 90.9755L33.1682 90.0278Z" fill="#DDA02D"/>
<path d="M63.1775 122.88V123.828L56.8598 130.146L53.385 132.989L52.1215 133.305L51.8056 134.252L47.3831 137.095L43.5925 138.359L42.3289 138.675V139.307L40.4336 140.254L36.3271 141.518L35.3794 141.202L42.013 138.359L47.0672 135.832L50.8579 133.621L56.8598 129.198L63.1775 122.88Z" fill="#E2A731"/>
<path d="M63.8093 76.1289L66.3364 76.4448L67.2841 77.7083V79.2878L65.3887 81.1831H63.4934L62.2299 79.9196V77.3925L63.1775 77.0766V76.4448L63.8093 76.1289Z" fill="#FAF3E2"/>
<path d="M53.0692 149.415H53.701L54.0168 151.31L53.701 150.679H53.0692L52.4374 151.942L48.9626 153.522L43.2767 155.101L32.8524 156.365H29.6935V155.733L33.1682 155.101L40.7496 154.469L47.3832 152.89L51.4897 151.626L53.0692 149.415Z" fill="#D5952B"/>
<path d="M53.0692 140.57H54.6486L54.9645 140.886L54.6486 143.097L52.7533 144.677L51.4897 145.309H49.2785L48.9626 144.993L49.2785 142.782L51.8056 140.886L53.0692 140.57Z" fill="#5D2C0C"/>
<path d="M47.3831 88.4487L48.3308 89.0805L49.2784 90.6599L50.2261 91.2917H53.0691L54.6485 89.7123L55.9121 88.7646L56.5439 89.3964L56.228 90.9758L54.3327 92.5553L52.7532 93.187H50.542L48.0149 91.9235L46.7513 90.3441L47.0672 88.7646L47.3831 88.4487Z" fill="#5D2C0C"/>
<path d="M73.286 46.4355L74.5496 48.015L75.8131 50.5421L77.0767 54.3327L78.3402 60.6505L78.6561 66.0206L78.0243 65.7047L77.0767 60.0187L75.8131 54.9645L73.286 47.6991V46.4355Z" fill="#D6962C"/>
<path d="M68.5477 92.8711H71.0748L72.6542 93.8188L72.0225 95.7141L69.8113 96.6617L67.6 95.3982L66.9683 94.7664L67.2841 93.5029L68.5477 92.8711Z" fill="#D18F2A"/>
<path d="M78.0243 44.856L79.6037 45.1718L81.1831 47.0672L81.499 49.5943L80.8673 50.2261L79.2878 49.9102L77.7084 48.0148V45.1718L78.0243 44.856Z" fill="#5D2C0C"/>
<path d="M34.1159 141.518L35.3794 141.833L31.9047 143.729L29.0617 144.676L24.9551 144.992H17.6897V144.676L24.6392 144.045L32.5364 142.149L34.1159 141.518Z" fill="#E8B137"/>
<path d="M74.2337 79.6035L75.1813 80.8671V84.9736L72.9701 88.7643L70.7589 90.3437L69.1795 90.6596L68.2318 90.3437V89.7119L72.0225 87.8166L73.6019 84.9736L73.9178 83.7101L74.2337 79.6035Z" fill="#FBF5E4"/>
<path d="M79.6038 38.5381L80.8673 39.1699L83.0785 42.3287L85.6056 46.7512V48.3306L84.0262 46.7512L81.815 43.2764V42.6446H81.1832L79.6038 39.1699V38.5381Z" fill="#EAB252"/>
<path d="M18.3215 108.034L18.6373 108.981L16.4261 111.824L13.5831 115.299L11.056 114.983L9.79248 113.088L10.1084 111.824L10.7401 113.088L13.5831 112.456V113.088L16.1102 111.193L18.3215 108.034Z" fill="#E6AD35"/>
<path d="M30.6411 160.155L33.4841 161.103L35.0635 161.735V163.63L34.4318 164.578L32.8523 164.262L31.2729 162.682L30.6411 161.419V160.155Z" fill="#E8B139"/>
<path d="M46.4355 137.095H47.3832V137.727L44.2243 139.622L37.5906 142.149L35.6953 142.465L36.643 141.518H37.2748V140.886L41.0654 139.622L42.329 139.306V138.675L44.2243 137.727L46.4355 137.095Z" fill="#D2912A"/>
<path d="M31.9046 78.9722H32.2205L32.8523 82.131L33.8 84.3423L35.0635 86.2376L37.2747 87.817L36.3271 88.1329L34.1158 87.1853L32.5364 85.6058L31.5887 84.0264V79.2881L31.9046 78.9722Z" fill="#FCF9EF"/>
<path d="M55.5962 133.305H57.1757L57.8074 134.884L56.228 137.095L55.2803 137.727H53.385L53.7009 136.148L54.3327 135.832L54.0168 134.568L55.5962 133.305Z" fill="#E7B036"/>
<path d="M55.2804 156.996L55.9122 157.628L57.1757 162.05L58.1234 164.577L59.7028 166.473L62.2299 166.789L64.1253 165.841L66.0206 163.63L66.9682 161.419L67.2841 162.682L65.7047 165.209L63.1776 167.42H60.0187L58.1234 166.157L56.5439 162.998L55.2804 158.576V156.996Z" fill="#D18F2A"/>
<path d="M87.1851 102.032L88.4486 102.664L91.9234 107.402L95.714 114.351L96.3458 115.615L96.0299 116.563L94.4505 114.035L93.5028 111.824L91.2916 108.349V107.402H90.6598L87.5009 102.979L87.1851 102.032Z" fill="#D89A2D"/>
<path d="M14.2149 125.092H15.7943V126.987L14.5308 128.882L12.3196 129.198V127.303L14.2149 125.092Z" fill="#D5942B"/>
<path d="M66.6523 67.6001H69.4953L71.3906 68.8636L71.7065 70.1272L70.1271 70.4431L66.3364 68.8636L66.6523 67.6001Z" fill="#5D2C0C"/>
<path d="M70.443 136.779L71.0748 137.727L70.443 138.675L69.4954 144.992L69.1795 149.099H68.8636L68.5477 145.308L68.2318 144.045V142.149L69.1795 138.991L70.1271 137.411L70.443 136.779Z" fill="#E1A632"/>
<path d="M39.4859 65.7046L41.3813 66.0205V67.284L38.2224 68.5476H36.6429L36.9588 66.9681L39.4859 65.7046Z" fill="#5D2C0C"/>
<path d="M80.2355 127.935L80.5514 128.566L77.0766 133.621L74.2336 137.095L71.3906 139.938L70.1271 139.622L70.443 138.043L71.3906 137.727L71.7065 138.675L74.5495 135.832L78.9719 129.83L80.2355 127.935Z" fill="#D3922A"/>
<path d="M83.3944 45.8037L84.3421 46.7514L85.2897 48.0149L85.9215 47.3832L87.8168 52.1215L87.501 53.0691V52.4374L86.5533 52.7532L83.3944 46.7514V45.8037Z" fill="#DC9F2F"/>
<path d="M62.5458 120.038H63.4935L62.8617 121.933L60.3346 124.776L59.071 125.092L59.3869 123.512L61.5981 120.985L62.5458 120.038Z" fill="#FFED9E"/>
<path d="M37.2747 74.2334L39.4859 74.5493L40.4336 75.4969V78.0241L38.8542 79.6035H36.9588L35.3794 78.6558V75.8128L37.2747 74.2334ZM36.9588 74.8652L35.6953 76.4446V78.0241L36.6429 78.9717H38.5383L40.1177 77.3923L39.8018 75.4969L39.17 74.8652H36.9588Z" fill="#EEC86D"/>
<path d="M18.9532 152.89L21.7962 153.206L22.7439 153.521H24.3233V155.101L20.8486 154.785L18.0056 153.837L17.6897 153.206L18.9532 152.89Z" fill="#DDA02D"/>
<path d="M48.3308 135.2L48.9626 135.516L42.9607 138.675H42.3289V139.307L40.4336 140.254L36.3271 141.518L35.3794 141.202L42.013 138.359L47.0672 135.832L48.3308 135.2Z" fill="#E6AE35"/>
<path d="M32.5365 155.101H38.8542V155.733L32.8524 156.365H29.6935V155.733L32.5365 155.101Z" fill="#D3922A"/>
<path d="M53.385 139.938L54.9645 140.254L54.6486 140.886L51.8056 141.202L49.5944 142.781L49.2785 144.993H51.4897L53.385 144.361L52.4374 145.309L50.8579 145.94L48.6467 145.624L48.3308 143.729L49.5944 141.834L52.1215 140.254L53.385 139.938Z" fill="#D18F2A"/>
<path d="M71.7065 110.876L72.0224 111.508L69.4953 116.247L67.5999 117.826L66.0205 119.405L66.6523 118.142L69.4953 113.719L71.0747 111.824L71.7065 110.876Z" fill="#D99B2D"/>
<path d="M84.658 117.51L86.2374 118.774L88.4486 121.301L91.2916 123.512V124.144L93.1869 124.776L94.7664 125.407L93.5028 125.723L90.3439 124.144L85.2897 119.09L84.658 117.51Z" fill="#DEA12E"/>
<path d="M55.2804 12.9512H58.1234L59.3869 14.2147L59.7028 17.0577L59.071 15.7942L57.4916 13.8988H55.2804L54.6486 14.5306L52.4374 14.2147V13.5829L54.3327 13.2671L55.2804 12.9512Z" fill="#DEA12E"/>
<path d="M8.21313 141.202L9.79257 141.518L10.7402 142.149V142.781H11.372L12.3197 144.676L13.2673 145.308L12.3197 145.624L11.372 145.308L10.7402 143.729L9.79257 143.413L8.21313 141.202Z" fill="#DB9D2D"/>
<path d="M58.7551 134.568L60.0187 134.884V136.464L58.7551 137.411L57.4916 137.095L57.8075 135.2L58.7551 134.568Z" fill="#B07321"/>
<path d="M77.3925 57.1758H77.7084L78.6561 63.8094V66.0206L78.0243 65.7048L77.0767 59.0711L77.3925 57.1758Z" fill="#DEA12E"/>
<path d="M69.1794 84.3423L70.7588 84.6582L71.0747 86.5535L70.7588 86.8694H69.1794L68.5476 85.9217L68.8635 84.6582L69.1794 84.3423Z" fill="#FEEB9B"/>
<path d="M16.4262 104.243L17.3739 104.559L15.4785 106.77L14.215 108.034H13.2673L13.5832 106.77L14.5309 105.823H15.1627V105.191L16.4262 104.243Z" fill="#FEE891"/>
<path d="M72.3384 76.4448L74.8655 78.3402L75.8131 80.2355L75.4973 81.499V80.8673H74.8655L74.5496 80.2355L73.9178 80.5514L72.6543 77.3925L72.3384 76.4448Z" fill="#DCAF56"/>
<path d="M85.2897 99.8208L87.5009 100.137L89.3962 101.716L90.3439 101.084L90.028 102.98L88.7644 102.348L87.5009 101.4L87.185 102.032L85.2897 99.8208Z" fill="#D2902A"/>
<path d="M73.286 46.4355L74.5496 48.015L75.8131 50.5421L75.4972 51.8056L75.1813 51.1739L74.5496 51.4898L73.286 47.6991V46.4355Z" fill="#DFA22E"/>
<path d="M70.7589 83.0786H72.0224L72.3383 84.3422L72.0224 85.9216L71.0748 86.2375L70.443 84.6581L69.1794 84.0263L70.443 83.7104L70.7589 83.0786Z" fill="#D3922B"/>
<path d="M75.8131 58.4395H76.4449L77.0766 60.6507V62.2301L75.8131 61.5983L75.4972 59.3871L75.8131 58.4395Z" fill="#FFED9E"/>
<path d="M42.0131 82.7627L43.5926 83.0786V84.658L42.0131 84.9739L41.3813 83.3945L42.0131 82.7627Z" fill="#FEF3C1"/>
<path d="M30.0094 159.839L30.6412 160.787L32.2206 163.63L33.8001 165.209H32.8524L30.6412 162.682L30.0094 161.103V159.839Z" fill="#D2912A"/>
<path d="M55.2804 156.996L55.9122 157.628L57.1757 162.05L57.4916 163.314L56.5439 162.998L55.2804 158.576V156.996Z" fill="#D8992D"/>
<path d="M93.1869 110.245L94.4504 111.824L96.3458 115.615L96.0299 116.562L94.4504 114.035L93.5028 111.824L93.1869 110.245Z" fill="#D6972D"/>
<path d="M48.6467 37.9067L49.9102 38.2226L49.5943 39.8021L48.0149 39.4862V38.2226L48.6467 37.9067Z" fill="#FFED9E"/>
<path d="M53.0692 149.415H53.7009L54.0168 151.31L53.7009 150.679H53.0692L52.4374 151.942L51.1738 152.258L53.0692 149.415Z" fill="#D18F2A"/>
<path d="M43.2767 82.1309H44.5402L44.2243 84.3421H43.5926L43.2767 83.0785L41.3813 83.3944L41.6972 82.4467L43.2767 82.1309Z" fill="#D89832"/>
<path d="M88.7645 55.9121L89.3963 56.8598L89.7122 59.071H89.0804L88.4486 60.3345V58.1233V57.4915L88.7645 55.9121Z" fill="#DA9C2E"/>
<path d="M82.7626 54.0166L84.0261 54.3325L84.342 55.9119L83.0785 56.2278L82.7626 54.0166Z" fill="#5D2C0C"/>
</svg>
