<svg width="463" height="532" viewBox="0 0 463 532" fill="none" xmlns="http://www.w3.org/2000/svg">
<mask id="mask0_24_8196" style="mask-type:luminance" maskUnits="userSpaceOnUse" x="240" y="0" width="72" height="78">
<path d="M240.484 71.2827C243.866 51.199 255.38 32.5349 269.207 17.9541C272.8 14.1687 276.55 10.4008 280.809 7.35149C284.997 4.35471 292.656 -0.832687 298.018 0.113663C302.119 0.832184 305.817 4.93304 308.025 8.26279C310.128 11.4348 312.003 15.9563 311.232 19.8118C311.18 20.0922 311.11 20.3901 311.022 20.6705C310.934 20.9509 310.829 21.2313 310.724 21.4942C310.601 21.757 310.479 22.0199 310.339 22.2828C310.198 22.5457 310.041 22.791 309.865 23.0364C309.69 23.2817 309.515 23.5095 309.322 23.7374C309.129 23.9652 308.919 24.1755 308.709 24.3683C308.498 24.561 308.271 24.7538 308.025 24.9291C307.797 25.1043 307.552 25.2796 307.289 25.4198C304.748 26.962 301.611 27.663 298.86 28.7846C296.143 29.8711 293.427 31.3432 290.868 32.7627C275.341 41.4727 263.967 60.9955 259.271 77.8721C257.185 76.9257 254.889 76.2598 252.734 75.5062C248.721 73.9289 244.585 72.6146 240.484 71.2827Z" fill="white"/>
</mask>
<g mask="url(#mask0_24_8196)">
<path d="M240.484 71.2839C243.867 51.1989 255.381 32.5353 269.21 17.9545C272.801 14.1665 276.551 10.4013 280.808 7.35057C284.997 4.35275 292.656 -0.833893 298.02 0.111191C302.122 0.833237 305.819 4.93113 308.027 8.26162C310.128 11.4333 312.003 15.9546 311.232 19.8106C311.179 20.0903 311.111 20.389 311.024 20.6687C310.934 20.9485 310.832 21.232 310.726 21.4929C310.601 21.7575 310.48 22.0183 310.34 22.283C310.2 22.5438 310.041 22.7895 309.868 23.0352C309.69 23.281 309.516 23.5078 309.323 23.7384C309.13 23.9652 308.919 24.1731 308.711 24.3659C308.499 24.5587 308.272 24.7515 308.027 24.9292C307.8 25.1031 307.554 25.277 307.289 25.4207C304.749 26.963 301.611 27.6624 298.859 28.7852C296.145 29.8701 293.427 31.3407 290.868 32.7621C275.342 41.472 263.967 60.9938 259.271 77.873C257.186 76.9242 254.89 76.2588 252.735 75.5065C248.722 73.9301 244.585 72.6146 240.484 71.2839Z" fill="url(#paint0_linear_24_8196)"/>
</g>
<path d="M261.129 78.048C289.117 67.6016 324.307 70.6709 351.277 82.9196C378.476 95.2754 399.191 116.165 412.317 142.889C416.207 150.812 419.22 159.135 422.307 167.39C429.93 187.808 431.682 206.681 450.677 220.771C453.921 223.173 457.6 225.817 461.316 227.377C461.473 227.448 461.63 227.502 461.772 227.552L462.49 228.466C462.279 229.533 461.28 230.164 460.406 230.76C436.815 246.778 397.613 252.685 369.782 247.235C366.138 246.5 362.509 245.64 358.918 244.658C357.13 243.816 355.114 243.238 353.276 242.538C350.314 241.4 347.419 240.118 344.546 238.769C329.756 232.127 317.087 220.946 305.923 209.432C300.455 202.423 294.759 195.835 289.834 188.404C273.956 164.499 263.213 133.706 260.672 105.09C260.165 99.7973 259.901 94.4866 259.901 89.1582C259.919 85.5678 260.233 81.956 260.058 78.3799L260.04 78.0302L261.129 78.048Z" fill="#5BB734"/>
<path d="M268.84 85.8988C268.98 85.8988 269.102 85.8988 269.242 85.8988C272.607 86.0044 278.214 88.5967 281.508 89.806C308.637 99.831 323.693 114.465 342.425 135.704C344.108 135.162 345.808 134.689 347.545 134.287C349.262 133.881 351.013 133.568 352.767 133.323C354.518 133.078 356.289 132.9 358.04 132.812C359.811 132.727 361.583 132.71 363.351 132.761C376.847 133.129 397.21 138.211 406.656 148.253C403.904 146.291 401.134 144.503 398.103 142.997C381.313 134.74 362.598 133.428 344.898 139.471C351.346 146.291 356.395 154.65 362.073 162.114C378.737 184.003 398.627 204.789 423.671 216.95C427.476 218.65 431.523 220.489 435.536 221.613L435.992 221.736L435.941 221.944C435.607 221.944 435.273 221.944 434.922 221.876C430.821 221.106 422.377 217.195 418.432 215.305C386.606 200.003 366.961 175.014 346.526 147.218C346.789 150.024 347.368 152.79 347.647 155.577C348.175 160.925 347.524 165.936 346.649 171.175C345.211 179.64 340.412 187.508 335.52 194.396C334.996 195.149 334.522 195.956 333.558 196.113C333.752 195.657 333.664 195.728 333.909 195.411C337.326 190.857 340.374 186.003 342.251 180.57C346.353 168.634 346.053 157.788 342.006 145.923C341.114 143.276 340.289 140.524 339.042 138.017C336.869 133.653 332.877 129.801 329.702 126.118C317.507 112.046 302.488 99.7629 285.453 91.9793C280.142 89.5607 274.396 87.7758 268.84 85.8988Z" fill="#479E38"/>
<path d="M260.022 78.0661H261.111C267.035 113.485 279.562 150.53 302.1 178.939C304.606 182.112 307.482 185.074 310.252 188.037C316.226 194.45 322.693 200.478 329.842 205.578C364.033 230.008 405.411 237.927 446.576 230.989C449.82 230.447 459.353 228.744 461.772 227.57L462.49 228.484C462.279 229.551 461.28 230.183 460.406 230.779C436.815 246.796 397.613 252.703 369.782 247.253C366.138 246.514 362.509 245.658 358.918 244.676C357.13 243.834 355.114 243.256 353.276 242.556C350.314 241.418 347.419 240.136 344.546 238.787C329.756 232.145 317.087 220.964 305.923 209.45C300.455 202.441 294.759 195.853 289.834 188.422C273.956 164.517 263.213 133.724 260.672 105.108C260.165 99.8154 259.901 94.5047 259.901 89.1763C259.919 85.5823 260.233 81.9741 260.058 78.398L260.022 78.0661Z" fill="#479E38"/>
<mask id="mask1_24_8196" style="mask-type:luminance" maskUnits="userSpaceOnUse" x="42" y="209" width="317" height="323">
<path d="M305.922 209.45C317.086 220.946 329.756 232.145 344.547 238.787C347.422 240.136 350.313 241.416 353.275 242.555C355.115 243.256 357.148 243.834 358.918 244.675C358.585 250.424 357.972 256.084 357.393 261.797C357.358 272.575 353.766 288.418 351.382 299.266C349.419 308.186 347.667 317.141 345.003 325.886C329.458 376.621 297.843 425.901 260.357 463.23C225.412 498.034 172.627 531.56 121.7 531.402C96.6037 531.314 73.1728 523.708 55.2447 505.57C50.1975 500.453 45.5709 494.336 42.9597 487.589C45.5359 488.693 47.8141 490.796 50.2151 492.268C57.3828 496.667 65.567 500.067 73.8037 501.732C104.104 507.883 135.509 493.373 160.202 477.092C164.723 474.113 169.017 470.818 173.328 467.523C223.713 429.073 259.989 372.555 280.318 312.97C286.873 293.78 292.533 272.663 296.915 252.842C299 243.378 300.735 233.827 302.68 224.329C302.47 223.365 300.735 222.156 300.034 221.332L300.174 220.929C301.173 221.84 302.505 222.874 303.153 224.066C304.415 219.247 305.099 214.305 305.922 209.45Z" fill="white"/>
</mask>
<g mask="url(#mask1_24_8196)">
<path d="M305.924 209.45C317.087 220.946 329.757 232.144 344.548 238.785C347.422 240.135 350.315 241.414 353.275 242.555C355.117 243.256 357.15 243.834 358.919 244.676C358.585 250.423 357.972 256.084 357.394 261.796C357.358 272.574 353.768 288.418 351.383 299.266C349.42 308.184 347.669 317.141 345.005 325.886C329.46 376.621 297.845 425.901 260.357 463.229C225.413 498.034 172.628 531.56 121.7 531.402C96.6044 531.314 73.1734 523.708 55.2453 505.57C50.1981 500.452 45.5715 494.336 42.9601 487.589C45.5363 488.693 47.8145 490.796 50.2157 492.268C57.3832 496.667 65.5676 500.067 73.8042 501.732C104.105 507.883 135.51 493.373 160.203 477.092C164.724 474.113 169.018 470.818 173.329 467.523C223.714 429.073 259.991 372.555 280.32 312.969C286.874 293.781 292.536 272.662 296.915 252.843C299.001 243.379 300.735 233.827 302.683 224.329C302.472 223.363 300.735 222.155 300.034 221.33L300.175 220.929C301.175 221.841 302.507 222.874 303.155 224.065C304.416 219.245 305.1 214.305 305.924 209.45Z" fill="url(#paint1_linear_24_8196)"/>
</g>
<path d="M305.924 209.449C317.086 220.946 329.756 232.143 344.547 238.785C347.422 240.134 350.315 241.413 353.275 242.554C355.117 243.255 357.15 243.833 358.919 244.675C358.584 250.422 357.971 256.084 357.393 261.795L356.956 261.655C356.921 260.622 357.168 259.519 357.288 258.483C355.713 256.905 344.163 253.033 341.411 252.018L341.01 252.159C340.974 252 340.886 251.246 340.763 251.088C340.64 250.929 334.4 247.97 333.473 247.459C324.816 242.745 317.491 236.963 310.008 230.568C307.693 228.587 304.871 226.555 303.172 224.029C304.416 219.244 305.1 214.304 305.924 209.449Z" fill="#F47415"/>
<path d="M42.9772 487.554C38.9114 479.808 37.0361 470.432 36.5457 461.757C36.3177 457.691 36.4405 453.608 36.055 449.542C35.5642 444.355 34.46 439.167 33.1807 434.12C30.7975 424.814 27.3097 415.859 24.0152 406.851C21.2111 399.088 18.5649 391.271 16.0589 383.385C7.50661 355.976 1.05756 327.235 0.0936264 298.459C-0.186987 290.205 0.216397 282.003 0.601903 273.748C0.794487 268.841 1.14491 263.933 1.63565 259.046C2.12639 254.156 2.75743 249.285 3.52844 244.412C4.29946 239.558 5.21077 234.722 6.26239 229.919C7.31402 225.116 8.50562 220.351 9.85506 215.619C10.3107 213.99 10.8015 212.357 11.2922 210.728C11.8001 209.099 12.3084 207.487 12.8518 205.875C13.3951 204.263 13.956 202.667 14.5341 201.072C15.1125 199.477 15.7085 197.885 16.3216 196.306C16.9351 194.728 17.5659 193.153 18.232 191.574C18.8802 190.016 19.5639 188.454 20.2472 186.896C20.9484 185.352 21.6493 183.81 22.3855 182.269C23.1215 180.744 23.8574 179.22 24.6284 177.695C25.3998 176.188 26.1883 174.68 26.9769 173.173C27.7829 171.682 28.6066 170.194 29.4481 168.72C30.2892 167.25 31.1479 165.776 32.0242 164.322C32.9004 162.869 33.7942 161.432 34.7055 159.995C35.6168 158.558 36.5457 157.138 37.4918 155.735C38.4382 154.315 39.4021 152.933 40.3836 151.53C41.365 150.147 42.3637 148.76 43.3627 147.411C44.3793 146.045 45.3958 144.696 46.4471 143.364C47.4987 142.032 48.5504 140.7 49.6367 139.384C50.7059 138.069 51.8098 136.774 52.914 135.495C54.0179 134.214 55.1397 132.936 56.2787 131.674C57.418 130.413 58.5745 129.168 59.7486 127.94C60.923 126.713 62.097 125.488 63.3062 124.295C64.4981 123.087 65.7248 121.913 66.9514 120.74C68.1781 119.563 69.4223 118.406 70.6844 117.269C71.9462 116.129 73.2079 114.989 74.4872 113.886C75.7665 112.783 77.0633 111.677 78.3777 110.591C79.692 109.505 81.0064 108.453 82.3558 107.4C83.6877 106.351 85.0372 105.316 86.4041 104.301C87.7711 103.282 89.1381 102.284 90.5226 101.302C91.9071 100.321 93.3092 99.3564 94.7109 98.412C96.113 97.4642 97.5326 96.5367 98.9697 95.6261C100.407 94.7121 101.844 93.8183 103.298 92.9448C104.753 92.0678 106.207 91.2078 107.697 90.368C137.367 73.7706 167.3 66.4281 201.281 66.5158C214.214 66.5496 228.024 67.7604 240.5 71.2816C244.584 72.6138 248.719 73.9291 252.733 75.4874C254.888 76.2597 257.202 76.9073 259.269 77.855L260.042 78.0473L260.059 78.3981C260.234 81.9732 259.92 85.5989 259.9 89.174C259.9 94.503 260.146 99.8117 260.672 105.107C263.216 133.725 273.958 164.515 289.833 188.421C294.778 195.851 300.454 202.441 305.921 209.45C305.098 214.303 304.397 219.248 303.173 224.03C302.522 222.84 301.189 221.804 300.191 220.894L300.053 221.295C300.751 222.121 302.488 223.329 302.697 224.293C300.751 233.791 299.017 243.343 296.933 252.807C292.552 272.628 286.889 293.745 280.336 312.935C259.988 372.52 223.731 429.038 173.346 467.488C169.035 470.782 164.741 474.077 160.22 477.056C135.509 493.355 104.122 507.865 73.8214 501.696C65.5845 500.032 57.4005 496.632 50.2327 492.233C47.8316 490.761 45.5533 488.658 42.9772 487.554Z" fill="#FAB80F"/>
<path d="M150.019 247.601C150.65 247.601 151.458 247.549 151.982 247.97C153.963 249.564 153.665 255.033 158.362 258.344C161.201 260.343 164.916 261.008 168.315 260.377C172.592 259.59 174.293 256.856 176.57 253.543C177.393 252.333 178.287 251.195 179.795 250.896C180.39 251.125 180.512 251.177 180.793 251.808C181.478 253.298 180.899 254.542 180.25 255.892C179.427 257.328 178.551 258.679 177.393 259.87C174.327 263.041 170.068 264.706 165.706 264.794C161.026 264.882 156.61 262.813 153.351 259.554C150.879 257.082 148.705 253.579 148.793 250.003C148.827 248.811 149.232 248.354 150.019 247.601Z" fill="#12110F"/>
<path d="M167.318 84.5837C169.719 84.4075 171.997 84.5478 174.17 85.6864C176.255 86.7924 177.938 88.7009 178.586 90.9781C178.657 91.2261 178.709 91.4707 178.744 91.7317C178.779 91.9797 178.814 92.2407 178.832 92.4853C178.849 92.7496 178.849 92.9943 178.832 93.2585C178.814 93.5195 178.797 93.7675 178.762 94.0122C178.727 94.2569 178.674 94.5179 178.604 94.7658C178.534 95.0105 178.464 95.2552 178.376 95.4999C178.289 95.7478 178.183 95.9729 178.078 96.2013C177.973 96.4297 177.833 96.658 177.71 96.8668C176.115 99.392 173.609 100.302 170.858 100.916C167.878 101.16 165.075 101.056 162.498 99.3202C162.271 99.1799 162.06 99.007 161.85 98.8471C161.64 98.6742 161.447 98.4981 161.254 98.3056C161.061 98.1131 160.886 97.9206 160.711 97.7085C160.536 97.4998 160.378 97.2877 160.238 97.0593C160.08 96.8342 159.957 96.6058 159.817 96.3612C159.694 96.1132 159.572 95.8685 159.467 95.6238C159.361 95.3791 159.274 95.1149 159.204 94.8539C159.134 94.5896 159.064 94.3254 159.011 94.0644C158.643 92.1526 159.011 90.1201 160.132 88.5084C161.798 86.091 164.566 85.109 167.318 84.5837Z" fill="#FBD52C"/>
<path d="M252.716 75.489C254.872 76.2586 257.184 76.9088 259.254 77.8541L260.023 78.0465L260.04 78.3982C260.216 81.9741 259.901 85.5997 259.884 89.1756C259.884 94.503 260.129 99.8138 260.654 105.105C263.195 133.725 273.939 164.515 289.818 188.419C294.757 195.849 300.436 202.44 305.903 209.449C305.08 214.306 304.38 219.245 303.153 224.032C302.503 222.838 301.173 221.806 300.174 220.894C298.632 218.512 296.423 216.25 294.671 213.987C270.907 183.566 257.413 139.646 253.505 101.602C252.629 92.9439 251.664 84.18 252.716 75.489Z" fill="#F7980F"/>
<path d="M49.6015 216.792C49.9697 216.758 50.3376 216.724 50.7058 216.724C59.8012 216.653 66.5658 221.893 72.8047 227.921C76.187 231.198 79.1487 235.247 79.1313 240.171C79.1137 243.728 77.4138 246.865 74.8727 249.267C71.2801 252.684 66.671 253.824 61.8342 253.665C55.5953 252.701 42.3638 247.9 37.3692 244.149C34.1797 241.767 31.8838 238.051 31.4107 234.09C31.3756 233.862 31.3582 233.634 31.3406 233.389C31.3232 233.161 31.3055 232.933 31.3055 232.688C31.3055 232.46 31.3055 232.215 31.3055 231.987C31.3055 231.759 31.3232 231.514 31.3406 231.286C31.3582 231.058 31.3756 230.83 31.4107 230.585C31.4457 230.357 31.4808 230.129 31.5159 229.901C31.5509 229.673 31.6033 229.445 31.656 229.217C31.7085 228.989 31.7612 228.761 31.8313 228.553C31.9014 228.325 31.9715 228.114 32.0416 227.886C32.1117 227.658 32.1992 227.447 32.287 227.237C32.3745 227.028 32.4622 226.817 32.5674 226.59C32.6725 226.379 32.76 226.168 32.8828 225.96C32.988 225.749 33.1105 225.555 33.2157 225.344C33.3385 225.153 33.4611 224.942 33.5839 224.749C33.7064 224.558 33.8466 224.364 33.9868 224.17C34.127 223.979 34.2672 223.803 34.4074 223.629C38.1403 219.158 43.9762 217.265 49.6015 216.792Z" fill="#F03E53"/>
<path d="M266.787 256.171C266.929 256.241 267.086 256.293 267.225 256.366C268.629 256.926 270.275 257.083 271.749 257.556C277.515 259.433 282.474 262.813 285.05 268.475C285.155 268.721 285.259 268.948 285.364 269.194C285.471 269.438 285.558 269.685 285.645 269.929C285.732 270.175 285.802 270.419 285.892 270.683C285.961 270.927 286.031 271.191 286.101 271.437C286.153 271.699 286.223 271.945 286.258 272.206C286.31 272.47 286.347 272.717 286.382 272.978C286.417 273.242 286.452 273.503 286.469 273.767C286.487 274.029 286.504 274.293 286.522 274.557C286.539 274.818 286.539 275.082 286.539 275.343C286.539 275.607 286.522 275.871 286.504 276.132C286.487 276.396 286.469 276.658 286.434 276.922C286.4 277.185 286.365 277.447 286.33 277.693C286.293 277.955 286.24 278.201 286.188 278.463C286.136 278.726 286.066 278.973 285.996 279.234C285.927 279.481 285.854 279.742 285.767 279.989C285.68 280.233 285.593 280.479 285.506 280.726C283.437 286.28 278.652 289.872 273.377 292.202C272.974 292.379 272.553 292.553 272.152 292.713C271.731 292.869 271.311 293.026 270.89 293.168C270.469 293.308 270.048 293.43 269.61 293.554C269.172 293.676 268.751 293.781 268.313 293.868C267.875 293.972 267.437 294.044 266.999 294.132C266.561 294.201 266.122 294.271 265.684 294.323C265.246 294.376 264.808 294.41 264.352 294.448C263.914 294.483 263.459 294.5 263.021 294.5C262.582 294.5 262.127 294.5 261.689 294.5C261.251 294.483 260.795 294.465 260.357 294.428C259.919 294.393 259.463 294.341 259.025 294.288C258.587 294.236 258.149 294.166 257.71 294.079C257.272 293.99 256.834 293.903 256.396 293.798C255.958 293.693 255.537 293.589 255.099 293.464C254.678 293.342 254.24 293.203 253.819 293.061C253.399 292.922 252.978 292.765 252.575 292.588C247.142 290.397 242.131 286.175 239.836 280.708C238.223 276.904 238.275 272.734 239.853 268.93C241.481 265.022 244.217 262.149 247.424 259.468C254.504 260.799 260.583 259.746 266.787 256.171Z" fill="#F03E53"/>
<path d="M138.559 97.6041C141.924 97.1137 146.235 97.413 149.109 99.3396C150.932 100.566 152.088 102.336 152.492 104.492C153.526 109.89 150.546 115.689 147.55 119.966C138.892 132.407 121.56 144.537 106.576 147.254C102.896 147.394 98.9699 147.515 95.8157 145.273C93.59 143.697 92.2054 141.19 91.8548 138.509C91.1364 132.952 94.2559 127.363 97.5856 123.157C106.401 112.062 124.311 99.2696 138.559 97.6041Z" fill="#FBD52C"/>
<path d="M87.8237 180.288C93.9923 180.342 99.4427 181.847 104.297 185.808C109.8 190.295 112.762 196.815 113.41 203.824C114.041 210.536 111.57 217.495 107.241 222.611C102.615 228.095 96.7088 231.374 89.5237 231.936C82.6188 232.04 76.8706 230.532 71.543 225.94C66.6184 221.683 63.8495 215.144 63.3762 208.713C62.8681 201.615 65.1989 194.275 69.878 188.91C74.6098 183.495 80.7437 180.815 87.8237 180.288Z" fill="#12110F"/>
<path d="M103.124 198.408C103.702 198.444 104.315 198.513 104.894 198.654C105.893 198.915 106.857 199.741 107.347 200.617C107.891 201.581 107.961 202.701 107.61 203.736C107.102 205.277 105.893 205.979 104.508 206.645C103.702 206.661 102.896 206.645 102.125 206.346C101.161 205.979 100.355 205.19 99.9518 204.244C99.5312 203.244 99.5663 202.124 99.9692 201.125C100.6 199.635 101.704 199.038 103.124 198.408Z" fill="white"/>
<path d="M81.1472 186.595C83.3204 186.456 85.3356 186.58 87.3161 187.576C87.5963 187.719 87.8592 187.858 88.1223 188.032C88.3851 188.19 88.6303 188.367 88.8758 188.56C89.1212 188.752 89.349 188.945 89.5768 189.155C89.8046 189.364 90.015 189.593 90.2077 189.82C90.4004 190.049 90.5931 190.294 90.7684 190.54C90.9438 190.785 91.1014 191.048 91.2591 191.309C91.3993 191.573 91.5396 191.852 91.6622 192.135C91.785 192.414 91.89 192.693 91.9778 192.991C92.0653 193.273 92.1528 193.571 92.2055 193.851C92.2757 194.149 92.3107 194.431 92.3458 194.729C92.3809 195.027 92.3983 195.325 92.3983 195.622C92.3983 195.92 92.3983 196.218 92.3632 196.516C92.3458 196.814 92.2931 197.112 92.2406 197.41C92.1879 197.708 92.118 197.987 92.0302 198.285C91.9427 198.565 91.8549 198.847 91.7323 199.126C91.6271 199.406 91.5045 199.669 91.3643 199.933C89.9272 202.701 87.5439 204.122 84.6697 205.032C82.3389 205.277 80.2535 205.103 78.1681 203.911C77.905 203.753 77.6421 203.576 77.3793 203.402C77.1341 203.228 76.8886 203.018 76.6432 202.825C76.4154 202.614 76.1876 202.403 75.9772 202.177C75.7671 201.947 75.5567 201.702 75.3814 201.457C75.1887 201.212 75.0134 200.948 74.8557 200.687C74.6981 200.423 74.5401 200.144 74.4001 199.862C74.2599 199.582 74.1373 199.303 74.0321 199.005C73.9269 198.707 73.8394 198.407 73.7516 198.109C73.6641 197.811 73.6113 197.531 73.5589 197.233C73.5064 196.935 73.4713 196.637 73.4537 196.34C73.4363 196.042 73.4363 195.744 73.4363 195.446C73.4363 195.148 73.4713 194.85 73.5064 194.552C73.5412 194.254 73.5939 193.956 73.6641 193.658C73.7342 193.36 73.8217 193.081 73.9093 192.799C74.0145 192.519 74.1196 192.24 74.2422 191.958C74.3651 191.678 74.5053 191.415 74.663 191.151C76.1702 188.575 78.4309 187.384 81.1472 186.595Z" fill="white"/>
<path d="M247.442 259.466C247.091 259.379 246.742 259.273 246.391 259.168C246.04 259.063 245.706 258.94 245.355 258.817C245.007 258.694 244.673 258.571 244.34 258.431C244.006 258.29 243.673 258.153 243.342 258.012C243.008 257.854 242.675 257.714 242.359 257.538C242.043 257.38 241.712 257.205 241.396 257.029C241.08 256.854 240.764 256.661 240.448 256.488C240.135 256.294 239.836 256.101 239.538 255.891C239.24 255.68 238.941 255.487 238.645 255.259C238.347 255.048 238.066 254.823 237.785 254.594C237.505 254.366 237.224 254.138 236.945 253.892C236.665 253.647 236.401 253.401 236.138 253.158C235.875 252.912 235.611 252.649 235.368 252.385C235.122 252.122 234.877 251.859 234.631 251.58C234.385 251.317 234.157 251.036 233.931 250.755C233.703 250.475 233.475 250.194 233.264 249.898C229.042 244.236 227.515 237.21 228.568 230.252C228.638 229.831 228.708 229.392 228.796 228.973C228.884 228.552 228.972 228.13 229.077 227.709C229.18 227.29 229.303 226.887 229.425 226.466C229.548 226.062 229.689 225.643 229.847 225.239C229.987 224.836 230.145 224.432 230.321 224.031C230.496 223.627 230.672 223.241 230.862 222.855C231.055 222.471 231.248 222.085 231.459 221.699C231.67 221.313 231.88 220.947 232.108 220.578C232.337 220.209 232.562 219.841 232.808 219.492C233.054 219.141 233.299 218.79 233.563 218.439C233.826 218.088 234.087 217.757 234.368 217.441C234.649 217.108 234.929 216.792 235.228 216.476C235.526 216.162 235.822 215.864 236.138 215.566C236.454 215.267 236.77 214.969 237.086 214.69C237.417 214.41 237.75 214.129 238.084 213.865C238.417 213.602 238.768 213.339 239.117 213.096C244.568 209.187 251.281 207.469 257.923 208.625C264.598 209.783 270.347 213.55 274.201 219.089C278.251 224.888 279.354 232.423 278.128 239.311C276.832 246.515 272.677 252.017 266.754 256.101C260.586 259.747 254.505 260.798 247.442 259.466Z" fill="#12110F"/>
<path d="M263.689 228.026C264.285 227.955 264.881 227.886 265.474 227.938C266.685 228.043 267.946 228.603 268.664 229.621C269.191 230.355 269.348 231.269 269.155 232.143C268.84 233.598 267.737 234.37 266.58 235.159C265.879 235.422 265.002 235.615 264.249 235.526C263.233 235.386 262.303 234.773 261.743 233.915C261.147 233.002 261.042 231.812 261.304 230.761C261.655 229.357 262.566 228.763 263.689 228.026Z" fill="white"/>
<path d="M243.725 215.322C246.161 215.181 248.09 215.216 250.314 216.409C252.506 217.583 254.205 219.563 254.889 221.964C254.976 222.279 255.047 222.577 255.099 222.892C255.153 223.209 255.187 223.524 255.204 223.839C255.222 224.154 255.239 224.469 255.222 224.786C255.204 225.101 255.187 225.416 255.133 225.731C255.099 226.048 255.03 226.363 254.958 226.678C254.889 226.993 254.801 227.29 254.695 227.588C254.592 227.888 254.469 228.186 254.328 228.466C254.188 228.747 254.048 229.027 253.873 229.308C252.314 231.901 249.93 233.32 247.073 234.073C245.076 234.162 243.376 234.179 241.499 233.389C241.341 233.32 241.201 233.266 241.044 233.197C240.903 233.126 240.746 233.057 240.606 232.968C240.466 232.882 240.325 232.811 240.185 232.725C240.045 232.636 239.905 232.548 239.764 232.462C239.624 232.373 239.501 232.267 239.361 232.164C239.238 232.058 239.098 231.952 238.977 231.847C238.854 231.743 238.731 231.637 238.608 231.514C238.485 231.409 238.362 231.288 238.256 231.165C238.136 231.042 238.03 230.919 237.924 230.796C237.818 230.673 237.715 230.55 237.609 230.41C237.503 230.287 237.417 230.147 237.312 230.006C237.223 229.866 237.117 229.728 237.031 229.588C236.943 229.448 236.856 229.308 236.785 229.167C236.697 229.027 236.628 228.867 236.556 228.727C236.487 228.587 236.416 228.429 236.347 228.272C236.278 228.115 236.224 227.974 236.173 227.817C235.331 225.522 235.437 223.032 236.522 220.842C238.03 217.863 240.677 216.338 243.725 215.322Z" fill="white"/>
<path d="M32.7598 309.08C34.4072 309.063 36.2998 309.922 37.6491 310.815C40.5233 312.726 42.5737 315.722 44.5364 318.474C53.369 330.882 59.1524 345.462 62.4821 360.253C65.8292 375.202 67.389 393.27 64.9531 408.394C64.4975 411.198 64.0417 414.476 62.4296 416.877C61.5006 418.279 60.6595 418.699 59.0472 418.979C55.3495 418.524 52.4578 415.825 50.1621 413.091C32.9876 392.552 23.3138 357.187 25.6973 330.618C26.293 323.942 27.3446 313.566 32.7598 309.08Z" fill="#FBD52C"/>
<defs>
<linearGradient id="paint0_linear_24_8196" x1="755.9" y1="-592.527" x2="701.586" y2="-664.334" gradientUnits="userSpaceOnUse">
<stop stop-color="#5B2426"/>
<stop offset="1" stop-color="#943439"/>
</linearGradient>
<linearGradient id="paint1_linear_24_8196" x1="542.842" y1="332.662" x2="379.107" y2="163.049" gradientUnits="userSpaceOnUse">
<stop stop-color="#F57914"/>
<stop offset="1" stop-color="#F8A415"/>
</linearGradient>
</defs>
</svg>
