<svg width="131" height="167" viewBox="0 0 131 167" fill="none" xmlns="http://www.w3.org/2000/svg">
<path d="M60.7223 0H62.0143L62.9186 0.387589L64.0814 1.67955L65.115 3.7467L66.1486 6.20143L67.6989 10.8525L68.4741 14.2116L69.2493 18.9919L69.7661 23.7721L70.0245 25.5809L74.4171 26.0977L79.0682 27.002L82.2981 27.9064L84.882 28.8108L88.2411 30.232L91.2127 31.7823L94.055 33.5911L96.1221 35.0122L98.3185 36.821L99.352 37.7253L100.902 39.1465L103.099 41.3428L104.261 42.764L105.683 44.4436L107.362 46.7691L108.654 48.707L109.817 50.645L110.98 52.7121L112.401 55.6837L113.434 58.1384L114.985 62.5311L116.277 67.4405L117.31 72.35L117.956 76.6135L118.344 80.1018L118.602 84.1069L118.731 87.8536L118.602 93.9258L118.344 98.1893L117.698 103.228L117.44 105.166L119.377 106.845L120.928 108.396L122.091 109.817L123.383 111.367L125.062 113.693L126.742 116.406L128.68 120.153L129.455 122.091L130.23 124.804L130.488 126.612V128.421L130.101 129.972L129.584 131.264L128.421 132.556L127.388 133.331L126.096 133.847L125.579 133.977H123.641L122.091 133.46L120.411 132.426L118.99 132.039L118.215 131.522L117.44 130.618L116.794 129.196L116.664 128.55V125.966L115.372 123.77L114.08 122.091L112.918 120.54L112.659 120.411L112.401 121.186L110.851 124.158L109.559 126.354L108.137 128.421L106.07 131.134L104.391 133.072L102.97 134.623L101.29 136.302L100.256 137.207L98.4477 138.757L96.3805 140.307L94.701 141.47L92.8922 142.633L92.6338 142.891L91.4711 151.289L90.8251 154.648L90.0499 157.361L89.9207 158.007L90.5667 158.524L92.117 159.558L92.763 160.074L93.5382 161.237L93.9258 162.4V163.304L93.409 164.596L92.3754 165.501L90.9543 166.017L89.1455 166.405L87.5952 166.534H85.9156L83.3317 166.276L80.7478 165.63L79.0682 164.984L78.0346 164.338L77.3886 163.433L77.1303 162.787L77.0011 161.883L76.7427 151.289L76.6135 148.834L72.996 149.351L67.9573 149.739H63.177L57.88 149.351L55.942 149.093L55.6837 156.974L55.5545 160.979L55.2961 162.917L54.7793 163.95L54.2625 164.596L52.1953 165.63L49.353 166.405L47.2859 166.663H44.056L41.6012 166.276L39.9217 165.63L38.8881 164.855L38.5005 163.821V162.658L39.0173 161.237L40.1801 159.945L41.7304 158.782L42.6348 158.524L41.9888 156.586L41.2137 153.098L40.6969 149.997L40.3093 146.38L40.1801 143.925L38.1129 142.633L36.175 141.47L34.1078 139.92L32.4283 138.628L31.0071 137.336L29.9736 136.431L27.2604 133.718L26.0977 132.297L24.9349 131.005L23.3846 128.809L22.0926 126.871L20.0254 123.253L18.8627 120.799L18.3459 121.057L17.4415 122.091L16.1496 123.77L14.8576 125.579L14.0824 126.742L13.824 127.517L13.9532 128.034V129.584L13.5656 131.393L12.7904 132.685L12.0153 133.331L9.56053 134.364L8.01018 135.139L6.84741 135.398H5.16786L3.6175 135.01L2.45473 134.364L1.80875 133.718L0.775178 132.556L0.258393 131.264L0 130.23V127.129L0.516786 124.675L1.55036 121.832L3.4883 117.827L4.52187 116.148L6.20143 113.434L7.75178 111.496L8.91455 109.946L10.7233 108.137L11.6277 107.104L12.9196 105.941L13.824 105.295L13.6948 103.228L12.9196 96.7681L12.6612 93.1506L12.5321 89.4039V86.3032L12.7904 81.0061L13.3072 76.0967L14.0824 71.4456L14.9868 67.1821L16.0204 63.4354L17.3123 59.5595L19.3795 54.9085L20.8006 52.1953L22.6094 49.2238L23.5137 47.9319L25.3225 45.4771L28.4232 41.8596L29.1984 41.0845H29.4568L29.7152 40.5677H29.9736L30.232 40.0509L31.2655 39.1465L32.9451 37.5962L35.1414 35.9166L37.3378 34.3662L39.6633 32.9451L42.3764 31.3947L44.8312 30.232L49.0946 28.5524L52.5829 27.5188L57.6216 26.4853L60.8515 25.9685L63.4354 25.8393L62.5311 21.1882L61.7559 18.6043L60.3347 14.9868L59.3012 13.0488L57.234 9.94812L55.942 8.26857L55.1669 7.1058L54.9085 6.45982V5.42625L55.5545 3.87589L56.3296 2.84232L57.1048 1.93795L58.6552 0.775178L60.0763 0.129196L60.7223 0Z" fill="#ABC55D"/>
<path d="M60.7223 0H62.0143L62.9186 0.387589L64.0814 1.67955L65.115 3.7467L66.1486 6.20143L67.6989 10.8525L68.4741 14.2116L69.2493 18.9919L69.7661 23.7721L70.0245 25.5809L74.4171 26.0977L79.0682 27.002L82.2981 27.9064L84.882 28.8108L88.2411 30.232L91.2127 31.7823L94.055 33.5911L96.1221 35.0122L98.3185 36.821L99.352 37.7253L100.902 39.1465L103.099 41.3428L104.261 42.764L105.683 44.4436L107.362 46.7691L108.654 48.707L109.817 50.645L110.98 52.7121L112.401 55.6837L113.434 58.1384L114.985 62.5311L116.277 67.4405L117.31 72.35L117.956 76.6135L118.344 80.1018L118.602 84.1069L118.731 87.8536L118.602 93.9258L118.344 98.1893L117.698 103.228L117.44 105.166L119.377 106.845L120.928 108.396L122.091 109.817L123.383 111.367L125.062 113.693L126.742 116.406L128.68 120.153L129.455 122.091L130.23 124.804L130.488 126.612V128.421L130.101 129.972L129.584 131.264L128.421 132.556L127.388 133.331L126.096 133.847L125.579 133.977H123.641L122.091 133.46L120.411 132.426L118.99 132.039L118.215 131.522L117.44 130.618L116.794 129.196L116.664 128.55V125.966L115.372 123.77L114.08 122.091L112.918 120.54L112.659 120.411L112.401 121.186L110.851 124.158L109.559 126.354L108.137 128.421L106.07 131.134L104.391 133.072L102.97 134.623L101.29 136.302L100.256 137.207L98.4477 138.757L96.3805 140.307L94.701 141.47L92.8922 142.633L92.6338 142.891L91.4711 151.289L90.8251 154.648L90.0499 157.361L89.9207 158.007L90.5667 158.524L92.117 159.558L92.763 160.074L93.5382 161.237L93.9258 162.4V163.304L93.409 164.596L92.3754 165.501L90.9543 166.017L89.1455 166.405L87.5952 166.534H85.9156L83.3317 166.276L80.7478 165.63L79.0682 164.984L78.0346 164.338L77.3886 163.433L77.1303 162.787L77.0011 161.883L76.7427 151.289L76.6135 148.834L72.996 149.351L67.9573 149.739H63.177L57.88 149.351L55.942 149.093L55.6837 156.974L55.5545 160.979L55.2961 162.917L54.7793 163.95L54.2625 164.596L52.1953 165.63L49.353 166.405L47.2859 166.663H44.056L41.6012 166.276L39.9217 165.63L38.8881 164.855L38.5005 163.821V162.658L39.0173 161.237L40.1801 159.945L41.7304 158.782L42.6348 158.524L41.9888 156.586L41.2137 153.098L40.6969 149.997L40.3093 146.38L40.1801 143.925L38.1129 142.633L36.175 141.47L34.1078 139.92L32.4283 138.628L31.0071 137.336L29.9736 136.431L27.2604 133.718L26.0977 132.297L24.9349 131.005L23.3846 128.809L22.0926 126.871L20.0254 123.253L18.8627 120.799L18.3459 121.057L17.4415 122.091L16.1496 123.77L14.8576 125.579L14.0824 126.742L13.824 127.517L13.9532 128.034V129.584L13.5656 131.393L12.7904 132.685L12.0153 133.331L9.56053 134.364L8.01018 135.139L6.84741 135.398H5.16786L3.6175 135.01L2.45473 134.364L1.80875 133.718L0.775178 132.556L0.258393 131.264L0 130.23V127.129L0.516786 124.675L1.55036 121.832L3.4883 117.827L4.52187 116.148L6.20143 113.434L7.75178 111.496L8.91455 109.946L10.7233 108.137L11.6277 107.104L12.9196 105.941L13.824 105.295L13.6948 103.228L12.9196 96.7681L12.6612 93.1506L12.5321 89.4039V86.3032L12.7904 81.0061L13.3072 76.0967L14.0824 71.4456L14.9868 67.1821L16.0204 63.4354L17.3123 59.5595L19.3795 54.9085L20.8006 52.1953L22.6094 49.2238L23.5137 47.9319L25.3225 45.4771L28.4232 41.8596L29.1984 41.0845H29.4568L29.7152 40.5677H29.9736L30.232 40.0509L31.2655 39.1465L32.9451 37.5962L35.1414 35.9166L37.3378 34.3662L39.6633 32.9451L42.3764 31.3947L44.8312 30.232L49.0946 28.5524L52.5829 27.5188L57.6216 26.4853L60.8515 25.9685L63.4354 25.8393L62.5311 21.1882L61.7559 18.6043L60.3347 14.9868L59.3012 13.0488L57.234 9.94812L55.942 8.26857L55.1669 7.1058L54.9085 6.45982V5.42625L55.5545 3.87589L56.3296 2.84232L57.1048 1.93795L58.6552 0.775178L60.0763 0.129196L60.7223 0ZM64.9858 27.3896L60.9807 27.648L58.526 27.9064L55.2961 28.5524L51.5494 29.586L47.2859 31.0071L45.0895 31.9115L40.9553 33.9787L37.8545 35.9166L36.0458 37.2086L34.7538 38.2421L33.0743 39.6633L32.0407 40.5677L30.8779 41.6012V41.8596L30.3612 42.118L29.1984 43.41L28.5524 44.056V44.3144L28.0356 44.5728L27.5188 45.2187V45.4771H27.2604L26.2269 46.8983L24.9349 48.707L22.997 51.6786L21.705 53.8749L20.2838 56.8464L18.9919 60.0763L17.4415 64.8566L16.7955 67.0529L15.762 71.704L14.8576 77.3886L14.47 80.877L14.2116 85.9156V90.6959L14.47 95.2178L14.9868 100.127L15.762 105.037L16.2787 107.621L17.1831 111.238L18.3459 114.726L19.5087 117.956L21.059 121.186L22.0926 123.124L22.8678 124.545L23.6429 125.837L25.0641 127.904L25.9685 129.196H26.2269L26.4853 129.713L28.0356 131.651L28.94 132.685L29.9736 133.718L30.232 134.106H30.4904L30.7487 134.623H31.0071L31.1363 135.01L31.7823 135.527H32.0407L32.2991 136.044L33.5911 137.077L34.1078 137.594H34.3662V137.853L35.3998 138.499L36.0458 139.145L36.5626 139.532H36.9502V139.791L38.1129 140.566L39.0173 141.082H39.4049L39.5341 141.47L40.9553 142.245L44.3144 143.796L45.9939 144.442L47.2859 144.958L50.645 145.992L53.0997 146.638L55.2961 147.155L59.3012 147.671L60.5931 147.801L64.7274 147.93H68.2157L71.1872 147.801L74.4171 147.413L78.5514 146.509L80.6186 145.992L83.2025 145.217L85.6572 144.312L87.0784 143.666L88.8871 142.762L90.4375 141.858L91.8586 141.082L93.5382 140.049L95.7345 138.499L97.0265 137.465L98.8353 136.044L99.6104 135.398L100.256 134.623L100.902 133.977L101.548 133.46V133.201H101.807V132.943H102.065L102.711 132.168V131.91H102.97V131.651L103.486 131.393L104.52 129.972V129.713H104.778L106.07 128.034L107.233 126.483V126.096H107.491L107.879 125.321V125.062H108.137L108.783 123.77L109.559 122.607L111.238 119.248L111.884 117.569L112.53 116.277L112.788 115.372L113.305 113.693L113.693 112.659L114.339 110.721L114.726 108.783L114.985 107.879L115.243 106.458L115.631 104.649L116.018 102.324L116.406 99.0936L116.794 93.6674L116.923 90.1791V86.174L116.664 82.1689L116.277 78.1638L115.76 73.642L114.726 68.0865L113.434 63.3062L113.047 61.7559L112.659 60.7223L111.238 57.1048L110.721 55.942L109.688 53.7457L107.75 50.5158L106.975 49.0946L105.424 46.8983L104.261 45.3479L103.099 44.056L102.065 42.764L100.515 41.0845L98.8353 39.4049L97.8017 38.5005L96.5097 37.3378L94.9594 36.175L93.5382 35.1414L91.2127 33.7203L88.8871 32.4283L86.9492 31.3947L84.4944 30.3612L81.0061 29.1984L77.5178 28.294L74.8047 27.7772L72.8668 27.5188L71.058 27.3896H64.9858Z" fill="#6E8440"/>
<path d="M68.8617 56.4585H68.9909L68.8617 60.8512L69.6369 61.1096L70.9289 62.2723L71.7041 63.6935H72.0916L72.2208 65.1147L72.7376 66.5358V66.7942H72.996L73.3836 67.5694L74.0296 68.603L74.288 68.7322L74.4172 67.4402L75.1924 64.8563L75.7091 63.1767H75.8383V64.0811L75.3216 65.7606L75.1924 67.0526L74.6756 68.7322V69.3781L75.3216 69.5073L76.4843 69.7657L77.3887 67.6986H77.6471V67.0526H77.9055V66.4066H78.1639V65.7606H78.4223L78.6807 64.5979L79.9726 62.1431L80.4894 62.0139L81.1354 62.2723L80.6186 62.5307L79.7142 63.5643L79.1974 64.4687V65.373L79.3266 66.1482H79.0683L78.9391 66.7942L77.5179 69.6365L77.3887 70.1533L78.6807 70.7993V71.0577H79.3266L79.7142 70.4117H79.9726L80.231 69.7657L80.4894 69.3781H81.1354L80.3602 70.5409L80.231 70.9285L79.7142 71.4453L79.8434 72.0913H80.1018L80.3602 72.9956H80.6186L80.877 73.7708H81.3938L81.1354 74.546L80.877 74.8044L80.6186 76.7423V77.6467L82.0398 76.8715H82.2982V76.6131L83.3317 76.0963H83.5901V75.838H83.9777L84.1069 75.4504L85.5281 74.546H86.0449V74.2876H86.3032V74.0292H86.5616L86.3032 74.546L85.6573 75.7088L83.9777 76.3547L82.5566 77.1299H82.2982L82.169 77.5175L80.877 77.9051V78.1635L80.1018 78.2927L80.231 80.3598L81.9106 79.843L84.1069 78.8095L84.7529 78.6803L84.6237 79.4555L82.9441 79.9722H82.5566V80.2306L81.0062 80.6182L80.6186 80.7474L80.7478 81.6518L81.0062 82.2978H81.2646L81.7814 83.2022L82.2982 83.5897V83.8481L83.9777 83.4605L84.4945 83.3313L84.6237 83.9773L83.0733 84.2357L82.9441 84.7525H83.2025V85.1401H83.4609V85.5277H83.7193L84.2361 86.3029L84.7529 87.9824V89.2744L84.6237 90.0496H84.3653L84.1069 90.8247L86.3032 91.3415L87.466 91.5999L88.112 91.8583L88.758 92.3751L89.1456 92.5043V92.7627L88.3704 92.6335L87.8536 92.3751V92.1167H87.0784L86.0449 91.7291L83.9777 91.4707H83.5901L83.2025 92.1167H82.9441V92.5043H82.6857L82.4274 93.1503L82.9441 93.4087V93.6671L83.8485 93.7963L84.6237 93.9255V94.1838H84.8821L85.0113 94.4422H85.9157L86.9492 94.959V95.2174L86.1741 95.0882L84.4945 94.7006V94.4422L83.7193 94.313L82.0398 93.7963L81.523 93.9255V94.313H81.2646L80.877 95.4758L80.7478 95.605V96.251L82.8149 97.2846L83.4609 97.4138V97.9305L82.6857 97.6721L81.1354 96.897H80.4894V98.4473L80.7478 100.773L81.2646 101.031L82.0398 101.548V101.806L82.6857 102.065L82.9441 102.194V102.452L83.4609 102.582V102.84L83.9777 102.969V103.228L84.4945 103.357L84.6237 103.744L84.8821 104.003L84.4945 104.132L83.5901 103.615L82.6857 102.969L82.169 102.452L81.0062 101.548L80.877 103.228L80.6186 103.874L80.4894 105.036L80.877 105.553V105.812L81.523 106.07V106.587L81.2646 106.716L80.4894 106.07L80.231 105.553V105.166L78.9391 105.553L77.9055 106.07L77.2595 106.328L77.5179 106.974L78.6807 108.912L78.5515 109.171L78.0347 109.3V109.041L77.6471 108.912L76.7427 106.845V106.587L75.0632 106.974L74.5464 107.103L75.0632 108.783L75.5799 109.817L75.7091 110.463H75.9675L76.8719 112.917L77.6471 114.726L78.1639 116.276L77.5179 116.535L77.1303 114.855L76.4843 113.822L75.7091 113.176L75.3216 111.367L74.8048 109.171L74.288 107.879H73.7712V108.266H73.5128L73.3836 108.912H73.1252L72.996 109.558L72.8668 109.817H72.6084L72.4792 110.463V111.625L72.7376 113.047H72.4792V112.659H72.2208L71.8333 112.271L71.0581 114.209L70.2829 115.243L69.6369 115.76L68.7325 116.018L67.4406 115.76L66.2778 114.855L65.3734 113.434L65.2442 112.788L64.8566 112.917L64.5983 111.367L64.0815 110.204L63.8231 109.687V109.3H63.5647L63.0479 108.654H62.7895L62.2727 110.463L62.0143 112.013H61.1099V111.367H61.3683L61.7559 110.075L62.2727 108.525V107.749L61.1099 107.233L60.3348 107.103L59.818 108.654H59.4304L59.3012 108.912H59.0428L58.9136 109.687H58.526L58.1384 110.333L58.0092 110.075L58.526 109.041L59.6888 107.103V106.587L58.0092 106.07V105.812L57.4924 105.682L56.8465 105.295L56.0713 104.003V103.615H55.8129L55.6837 102.452V101.031L56.2005 98.5765L56.3297 97.2846L55.0377 98.0597L53.6166 98.9641H53.3582V99.2225H52.9706L52.8414 99.6101L51.937 99.8685L52.4538 99.3517L52.7122 99.2225L52.3246 99.0933L52.4538 98.7057L53.3582 98.3181L55.4253 97.1554L56.0713 96.7678L55.8129 95.4758L54.9085 94.0546L53.3582 92.2459L52.7122 91.8583L51.291 91.7291V91.4707H52.7122L52.1954 90.4371L51.937 89.662V88.2408L52.3246 86.1737L52.4538 85.7861L53.0998 85.6569L53.3582 85.0109L54.0041 84.2357L54.3917 83.7189H54.6501L54.7793 83.2022L55.2961 82.5562L54.5209 82.427L51.937 81.5226L51.8078 80.8766L52.7122 81.0058L55.0377 82.0394H55.6837L56.0713 80.6182L55.1669 80.3598V80.1014L53.8749 79.7138L51.6786 78.5511L50.7742 78.1635L49.7407 76.6131L49.2239 75.7088L49.7407 75.9672L52.4538 77.7759V78.0343L53.229 78.2927V78.5511L54.1333 78.8095V79.0679L54.7793 79.1971V79.4555H55.1669L55.5545 79.843L56.2005 79.9722V76.8715L55.8129 75.3212L54.6501 74.4168V74.1584L54.1333 74.0292V73.7708H53.7458V73.5124H53.3582V73.254L52.8414 72.9956L52.7122 72.3497L53.229 72.2205L54.2625 73.1248V73.3832L54.7793 73.6416L55.4253 74.2876L55.8129 74.546V73.5124H56.0713L56.2005 72.8664H56.4589L56.5881 72.3497H56.8465L57.1049 71.7037L56.8465 71.5745H57.6216V71.3161L58.3968 70.7993L59.3012 70.5409V70.2825H59.5596L59.172 69.5073V68.9905H58.9136V68.603L58.526 68.4738L56.4589 64.8563L56.2005 64.3395V63.9519H55.9421L54.9085 62.5307L54.6501 62.1431L55.2961 61.7555V60.722L55.0377 59.6884L54.6501 59.0424V58.784L53.8749 58.5256L53.6166 58.3964V58.138H54.5209L55.0377 58.9132V59.1716H55.2961L55.8129 60.5928L56.2005 61.368V61.6264H56.4589L57.1049 63.1767L58.6552 66.665L60.2056 69.7657V70.0241L62.2727 69.1197L63.1771 68.0862L64.3399 66.2774L64.8566 65.2439L65.2442 64.3395L66.5362 61.8847L67.4406 61.1096L67.9574 60.8512H68.3449V58.2672L68.4741 57.2337H68.6033L68.8617 56.4585Z" fill="#E9EFC7"/>
<path d="M42.764 68.2158H43.9268L46.7691 69.637L48.0611 69.7662L48.5779 70.0246V70.283L49.0946 70.4122L50.2574 71.3165V71.5749L50.7742 71.7041L52.8413 73.1253L53.3581 73.2545V73.5129H53.7457V73.7713H54.1333L54.2625 74.0297L54.6501 74.1589L55.2961 74.8048L55.9421 75.3216L56.3296 76.872V79.9727L56.0713 80.1019L55.1669 79.7143V79.4559H54.7793V79.1975L54.1333 79.0683V78.8099L53.4873 78.6807L53.2289 78.5515V78.2931L52.7121 78.1639L52.4538 78.0347V77.7764L51.8078 77.518L50.1282 76.3552L49.353 75.8384L50.645 77.7764L51.1618 78.2931L52.4538 78.8099L53.8749 79.5851L55.1669 80.1019V80.3603L56.0713 80.6187L55.8129 82.0398L55.6837 82.169L54.7793 82.0398L52.4538 81.0063L51.8078 80.8771L51.937 81.3939L55.2961 82.5566L55.0377 83.0734L54.6501 83.7194L54.1333 84.2362L53.2289 85.3989L52.8413 85.7865H52.4538L52.1954 87.5953L52.0662 88.2413V89.6624L52.7121 91.2128V91.4712H51.291V91.7296H52.8413L53.8749 92.6339L55.0377 94.0551L56.0713 95.7347L56.2004 96.7682L53.8749 98.1894L52.9705 98.7062L52.0662 99.0938L50.5158 99.8689L49.6114 100.127H48.9654L48.8363 100.515L47.0275 101.678L43.41 103.616L41.3429 104.649L39.9217 105.166H39.1465L38.5005 104.778L38.3713 104.003L38.7589 103.228L39.1465 102.711H39.4049V102.453L41.2137 101.29L43.7976 99.9981L45.3479 99.3522L46.5107 98.7062L47.4151 97.931L48.3195 97.5434L49.7406 97.0266L50.5158 96.5098H50.7742V96.2514L51.291 95.993H51.937V95.7347L53.7457 95.0887H54.1333V94.8303L54.9085 94.5719L53.7457 94.8303L52.8413 95.2179L51.291 95.4763V95.7347L49.8698 96.1222L47.4151 97.0266L43.5392 98.3186L42.8932 98.577H41.0845L40.9553 98.4478H39.7925L39.2757 98.0602V96.5098L39.6633 95.4763L40.8261 95.6055L41.0845 95.3471L41.8596 95.2179L41.7305 94.7011L40.4385 93.5383L40.3093 92.8923L38.5005 92.7631H37.8546L37.7254 92.5047H36.3042L35.3998 91.988L35.2706 91.2128L35.7874 90.4376L36.5626 90.05L37.8546 89.9208L37.9838 89.7916L38.113 88.4997H37.8546L37.5962 87.0785H36.821L36.6918 86.9493V86.1741L37.3378 86.0449V81.0063L38.113 78.0347L39.0173 76.226L39.7925 75.58L39.9217 75.1924H40.1801V74.8048L39.6633 74.6756L39.4049 74.1589L39.5341 73.6421L39.7925 73.2545H41.0845L41.7305 73.5129L43.41 73.1253H44.9604L45.8647 73.2545V72.9961L45.3479 72.8669L43.9268 71.9625L42.764 70.6706L42.118 69.3786L42.2472 68.6034L42.764 68.2158Z" fill="#54331B"/>
<path d="M92.3755 67.1821H93.1506L93.5382 67.5697L93.6674 68.6033L93.1506 69.6369L92.5047 70.412V70.7996L93.5382 71.1872V71.4456L94.5718 71.5748L95.2178 71.704H97.4141L98.1893 71.8332V72.7376L98.0601 72.996H97.8017L97.5433 73.5128L97.0265 74.0295L97.2849 75.0631L97.5433 75.7091L97.9309 75.8383L98.4477 77.2594L98.7061 78.293L99.0937 81.0061V84.7528L98.9645 86.6908L98.3185 88.7579L98.1893 88.8871V89.9207L98.8353 90.5667V91.4711L97.8017 92.117L96.2514 92.2462L95.347 92.8922L94.4426 93.2798L93.9258 93.7966L95.2178 93.9258L97.6725 94.701L98.4477 95.0886L98.8353 95.7345L98.9645 96.2513L98.5769 96.6389L97.1557 96.8973H95.4762L93.2798 96.3805L89.9207 95.3469L88.4996 94.9594L86.4324 94.5718L84.6237 94.055L82.9441 93.6674V93.409L82.2981 93.2798L82.6857 92.5046H82.9441V92.117L83.3317 91.8586L83.5901 91.3419L85.3989 91.4711L86.9492 91.8586L87.8536 92.117V92.3754L89.1456 92.763V92.5046L88.6288 92.3754L87.9828 91.8586L87.2076 91.6003L83.9777 90.9543L84.3653 90.0499H84.6237V87.9827L83.9777 86.0448L83.7193 85.528H83.4609V85.1404H83.2025V84.7528H82.9441L83.0733 84.1069L83.7193 83.9777H84.6237L84.4945 83.4609L82.9441 83.8485H82.2981L81.3938 82.8149L81.2646 82.2981H81.0062L80.4894 81.3937V80.7478L81.7814 80.231H82.5565V79.9726L83.9777 79.4558H84.6237V78.8098L82.9441 79.4558L81.6522 80.1018L80.231 80.3602L80.1018 79.8434V78.293L80.877 78.1638V77.9054L82.1689 77.3886L82.5565 77.0011L84.4945 75.9675L85.6573 75.5799L86.3032 74.4171L86.5616 74.0295H86.3032V74.2879H86.0448V74.5463L85.1405 74.9339L84.1069 75.5799L83.9777 75.8383H83.5901V76.0967L82.8149 76.4843L82.2981 76.6135V76.8719L80.4894 77.7762V76.7427L80.7478 74.8047L81.523 74.2879L82.6857 73.2544L85.0113 71.704L86.0448 70.9288L87.8536 69.6369L89.7915 68.4741L91.3419 67.5697L92.3755 67.1821Z" fill="#54331B"/>
<path d="M68.8617 56.4585H68.9909L68.8617 60.8512L69.6369 61.1096L70.9289 62.2723L71.7041 63.6935H72.0916L72.2208 65.1147L72.7376 66.5358V66.7942H72.996L73.3836 67.5694L74.0296 68.603L74.288 68.7322L74.4172 67.4402L75.1924 64.8563L75.7091 63.1767H75.8383V64.0811L75.3216 65.7606L75.1924 67.0526L74.6756 68.7322V69.3781L75.3216 69.5073L76.4843 69.7657L77.3887 67.6986H77.6471V67.0526H77.9055V66.4066H78.1639V65.7606H78.4223L78.6807 64.5979L79.9726 62.1431L80.4894 62.0139L81.1354 62.2723L80.6186 62.5307L79.7142 63.5643L79.1974 64.4687V65.373L79.3266 66.1482H79.0683L78.9391 66.7942L77.5179 69.6365L77.3887 70.1533L78.6807 70.7993V71.0577H79.3266L79.7142 70.4117H79.9726L80.231 69.7657L80.4894 69.3781H81.1354L80.3602 70.5409L80.231 70.9285L79.7142 71.4453L79.8434 72.0913H80.1018L80.3602 72.9956H80.6186L80.877 73.7708H81.3938L81.1354 74.546L80.877 74.8044L80.6186 76.7423V77.6467L82.0398 76.8715H82.2982V76.6131L83.3317 76.0963H83.5901V75.838H83.9777L84.1069 75.4504L85.5281 74.546H86.0449V74.2876H86.3032V74.0292H86.5616L86.3032 74.546L85.6573 75.7088L83.9777 76.3547L82.5566 77.1299H82.2982L82.169 77.5175L80.877 77.9051V78.1635L80.1018 78.2927L80.231 80.3598L81.9106 79.843L84.1069 78.8095L84.7529 78.6803L84.6237 79.4555L82.9441 79.9722H82.5566V80.2306L81.0062 80.6182L80.6186 80.7474L80.7478 81.6518L81.0062 82.2978H81.2646L81.7814 83.2022L82.2982 83.5897V83.8481L83.9777 83.4605L84.4945 83.3313L84.6237 83.9773L83.0733 84.2357L82.9441 84.7525H83.2025V85.1401H83.4609V85.5277H83.7193L84.2361 86.3029L84.7529 87.9824V89.2744L84.6237 90.0496H84.3653L84.1069 90.8247L86.3032 91.3415L87.466 91.5999L88.112 91.8583L88.758 92.3751L89.1456 92.5043V92.7627L88.3704 92.6335L87.8536 92.3751V92.1167H87.0784L86.0449 91.7291L83.9777 91.4707H83.5901L83.2025 92.1167H82.9441V92.5043H82.6857L82.4274 93.1503L82.9441 93.4087V93.6671L83.8485 93.7963L84.6237 93.9255V94.1838H84.8821L85.0113 94.4422H85.9157L86.9492 94.959V95.2174L86.1741 95.0882L84.4945 94.7006V94.4422L83.7193 94.313L82.0398 93.7963L81.523 93.9255V94.313H81.2646L80.877 95.4758L80.7478 95.605V96.251L82.8149 97.2846L83.4609 97.4138V97.9305L82.6857 97.6721L81.1354 96.897H80.4894V98.4473L80.7478 100.773L81.2646 101.031L82.0398 101.548V101.806L82.6857 102.065L82.9441 102.194V102.452L83.4609 102.582V102.84L83.9777 102.969V103.228L84.4945 103.357L84.6237 103.744L84.8821 104.003L84.4945 104.132L83.5901 103.615L82.6857 102.969L82.169 102.452L81.0062 101.548L80.877 103.228L80.6186 103.874L80.4894 105.036L80.877 105.553V105.812L81.523 106.07V106.587L81.2646 106.716L80.4894 106.07L80.231 105.553V105.166L78.9391 105.553L77.9055 106.07L77.2595 106.328L77.5179 106.974L78.6807 108.912L78.5515 109.171L78.0347 109.3V109.041L77.6471 108.912L76.7427 106.845V106.587L75.0632 106.974L74.5464 107.103L75.0632 108.783L75.5799 109.817L75.7091 110.463H75.9675L76.8719 112.917L77.6471 114.726L78.1639 116.276L77.5179 116.535L77.1303 114.855L76.4843 113.822L75.7091 113.176L75.3216 111.367L74.8048 109.171L74.288 107.879H73.7712V108.266H73.5128L73.3836 108.912H73.1252L72.996 109.558L72.8668 109.817H72.6084L72.4792 110.463V111.625L72.7376 113.047H72.4792V112.659H72.2208L71.8333 112.271L71.0581 114.209L70.2829 115.243L69.6369 115.76L68.7325 116.018L67.4406 115.76L66.2778 114.855L65.3734 113.434L65.2442 112.788L64.8566 112.917L64.5983 111.367L64.0815 110.204L63.8231 109.687V109.3H63.5647L63.0479 108.654H62.7895L62.2727 110.463L62.0143 112.013H61.1099V111.367H61.3683L61.7559 110.075L62.2727 108.525V107.749L61.1099 107.233L60.3348 107.103L59.818 108.654H59.4304L59.3012 108.912H59.0428L58.9136 109.687H58.526L58.1384 110.333L58.0092 110.075L58.526 109.041L59.6888 107.103V106.587L58.0092 106.07V105.812L57.4924 105.682L56.8465 105.295L56.0713 104.003V103.615H55.8129L55.6837 102.452V101.031L56.2005 98.5765L56.3297 97.2846L55.0377 98.0597L53.6166 98.9641H53.3582V99.2225H52.9706L52.8414 99.6101L51.937 99.8685L52.4538 99.3517L52.7122 99.2225L52.3246 99.0933L52.4538 98.7057L53.3582 98.3181L55.4253 97.1554L56.0713 96.7678L55.8129 95.4758L54.9085 94.0546L53.3582 92.2459L52.7122 91.8583L51.291 91.7291V91.4707H52.7122L52.1954 90.4371L51.937 89.662V88.2408L52.3246 86.1737L52.4538 85.7861L53.0998 85.6569L53.3582 85.0109L54.0041 84.2357L54.3917 83.7189H54.6501L54.7793 83.2022L55.2961 82.5562L54.5209 82.427L51.937 81.5226L51.8078 80.8766L52.7122 81.0058L55.0377 82.0394H55.6837L56.0713 80.6182L55.1669 80.3598V80.1014L53.8749 79.7138L51.6786 78.5511L50.7742 78.1635L49.7407 76.6131L49.2239 75.7088L49.7407 75.9672L52.4538 77.7759V78.0343L53.229 78.2927V78.5511L54.1333 78.8095V79.0679L54.7793 79.1971V79.4555H55.1669L55.5545 79.843L56.2005 79.9722V76.8715L55.8129 75.3212L54.6501 74.4168V74.1584L54.1333 74.0292V73.7708H53.7458V73.5124H53.3582V73.254L52.8414 72.9956L52.7122 72.3497L53.229 72.2205L54.2625 73.1248V73.3832L54.7793 73.6416L55.4253 74.2876L55.8129 74.546V73.5124H56.0713L56.2005 72.8664H56.4589L56.5881 72.3497H56.8465L57.1049 71.7037L56.8465 71.5745H57.6216V71.3161L58.3968 70.7993L59.3012 70.5409V70.2825H59.5596L59.172 69.5073V68.9905H58.9136V68.603L58.526 68.4738L56.4589 64.8563L56.2005 64.3395V63.9519H55.9421L54.9085 62.5307L54.6501 62.1431L55.2961 61.7555V60.722L55.0377 59.6884L54.6501 59.0424V58.784L53.8749 58.5256L53.6166 58.3964V58.138H54.5209L55.0377 58.9132V59.1716H55.2961L55.8129 60.5928L56.2005 61.368V61.6264H56.4589L57.1049 63.1767L58.6552 66.665L60.2056 69.7657V70.0241L62.2727 69.1197L63.1771 68.0862L64.3399 66.2774L64.8566 65.2439L65.2442 64.3395L66.5362 61.8847L67.4406 61.1096L67.9574 60.8512H68.3449V58.2672L68.4741 57.2337H68.6033L68.8617 56.4585ZM68.2158 65.6314L67.1822 66.1482L66.1486 67.5694L65.115 69.2489L64.0815 70.5409L62.9187 71.5745L60.8516 72.608L59.172 73.5124L58.3968 74.4168L58.1384 75.192V81.135L57.7508 82.6854L56.8465 84.3649L55.1669 86.8197L54.6501 88.2408V89.5328L55.4253 91.0831L56.9757 93.0211L57.6216 94.1838L58.0092 96.1218V98.1889L57.88 99.3517V101.936L58.2676 102.969L59.3012 103.744L62.2727 105.295L63.6939 106.07L64.5983 106.974L65.6318 108.654L66.5362 110.204L67.4406 111.367H68.9909L69.6369 111.109L70.6705 109.687L71.9624 107.491L72.8668 106.07L74.0296 105.036L77.6471 103.228L78.4223 102.323L78.8099 101.419V98.8349L78.6807 98.1889V95.3466L79.1974 93.9255L80.231 92.2459L81.3938 90.4371L81.9106 89.4036L82.0398 88.37L81.6522 87.078L79.8434 84.1065L78.9391 82.5562L78.5515 81.3934L78.4223 80.2306L78.5515 76.3547L78.2931 75.0628L77.3887 73.5124L76.4843 72.7372L74.4172 71.7037L73.2544 70.9285L72.6084 70.4117L71.5749 68.603L70.4121 66.665L69.8953 66.019L69.1201 65.6314H68.2158Z" fill="#CCD89A"/>
<path d="M97.4141 38.3711L97.9308 38.6295L99.998 40.5674L101.548 42.1178L102.711 43.5389L104.003 44.9601L105.812 47.4148L107.104 49.3528L109.688 53.7455L110.85 56.2002L112.659 60.7221L113.047 61.7556L113.434 63.306L114.468 67.0527L115.243 70.6702L115.889 74.6753L116.277 78.2928L116.664 82.1687L116.923 86.8197V91.2124L116.664 95.6051L116.406 99.2226L115.76 104.003L115.243 106.458L114.856 108.525L114.468 109.946L114.21 110.979L113.434 113.563L113.047 114.597L112.659 115.501L112.401 116.535L111.884 117.568L111.238 119.248L109.817 122.09L109.042 123.512L108.396 124.416L108.137 125.062H107.879L107.621 125.708L107.491 126.095H107.233L107.104 126.612L104.778 129.713H104.52L104.261 130.23L103.228 131.651H102.97V131.909H102.711L102.453 132.555L102.065 132.943H101.807V133.201H101.548V133.46L100.644 134.235L98.706 136.173L96.8973 137.594L95.2177 138.886L93.5382 140.049L90.9542 141.599L89.5331 142.374L87.9827 143.279L86.5616 143.925L84.3652 144.829L82.9441 145.346L80.6185 145.992L77.5178 146.767L74.4171 147.413L71.058 147.8L67.0529 147.93H63.4354L60.5931 147.8L57.1048 147.413L54.9084 147.025L51.4201 146.25L47.6734 145.087L46.1231 144.571L44.7019 143.925L41.7304 142.633L39.9217 141.599L39.4049 141.341V141.082L38.8881 140.953L37.3377 140.049L36.9501 139.79V139.532L36.4334 139.403L35.529 138.757L35.0122 138.24L34.3662 137.852V137.594L33.7202 137.336L33.0742 136.69L32.0407 135.785V135.527L31.5239 135.268L31.0071 134.881V134.622L30.4903 134.364V134.106L30.1027 133.976L29.1984 132.943L28.4232 132.038L27.7772 131.393L26.4852 129.713L26.2268 129.196H25.9684L24.4181 127L23.1261 125.062L22.2218 123.512L19.767 118.602L18.6043 115.501L17.1831 111.238L16.5371 108.783V108.008L16.7955 108.525L17.6999 111.884L18.7334 114.597L19.5086 116.793L20.5422 118.86L21.5758 121.444L22.6093 123.253L23.3845 124.674L24.0305 125.579L24.4181 126.225L25.1933 127.387L26.2268 128.809L27.5188 130.359L28.4232 131.393L29.8443 132.814V133.072L30.3611 133.33L30.8779 133.847L31.2655 133.976L31.7823 134.493L32.8159 135.268L33.4618 135.656V135.914L33.9786 136.044V136.302L34.7538 136.56L35.1414 136.948L36.175 137.594V137.852L36.8209 137.982L37.8545 138.757L38.7589 139.273L39.9217 140.049L40.6968 140.436L42.8932 141.599L43.41 141.728L45.2187 142.374L46.1231 142.762L48.8362 143.537L51.5493 144.183L55.296 144.958L58.1384 145.346L60.7223 145.604H65.8901L69.2492 145.346L70.5412 145.087L74.0295 144.7L76.4842 144.183L78.6806 143.537L82.8149 142.503L86.9492 140.436L89.1455 139.273L91.0834 138.111L92.3754 137.206L93.409 136.56L95.4761 135.01L96.1221 134.752V134.493H96.3805V134.235L96.8973 133.847H97.1557L97.2849 133.46L98.1892 132.814L98.4476 132.426H98.706L98.9644 131.909L99.998 131.005L101.032 129.971L101.29 129.455H101.548V129.067H101.807L102.065 128.55L102.711 127.904L103.357 126.741L104.003 125.708L104.391 125.32L105.424 123.512L106.07 122.607L106.716 121.315L107.362 120.282L108.654 117.956L109.559 116.018L109.817 115.114H110.075L110.205 114.339L111.109 112.401L111.496 111.109L112.272 108.912L112.659 107.491L113.047 106.328L113.822 103.357L114.08 101.548L114.339 100.515L114.726 98.4474L114.856 96.2511L115.243 92.892L115.372 90.6956V89.2745L115.502 88.6285V86.8197L115.631 85.011V83.4606L115.76 82.8147V81.1351L115.631 79.7139L115.76 77.9052L115.502 74.5461L114.856 70.2826L114.339 67.8279L113.822 65.8899L112.401 61.1097L111.626 58.9133L110.205 55.6834L109.171 53.6163L108.267 52.0659L107.491 50.6448L106.458 48.9652L104.778 46.6397L103.615 44.9601L102.065 43.2806L101.161 42.247L100.127 41.0842L99.4812 40.4382L97.8017 38.8879L97.4141 38.3711Z" fill="#95B052"/>
<path d="M12.2737 108.913L12.6613 109.042L12.9197 110.463L13.5656 115.76L13.824 117.31V119.378L13.3072 121.186L12.2737 123.512L11.6277 124.675L10.9817 126.225L10.2065 127.646L9.43135 128.809L8.26858 130.101L6.58903 131.393L4.52189 132.426L3.35912 132.297L2.58394 131.78L1.93796 130.488L1.67957 129.196V127.646L2.06715 125.45L2.97153 122.737L4.52189 119.378L5.81385 117.052L6.84742 115.502L8.26858 113.564L9.56055 111.884L11.1109 110.075L12.2737 108.913Z" fill="#ABC55D"/>
<path d="M118.99 109.559L119.636 109.688L120.928 111.109L122.091 112.53L123.124 113.822L124.416 115.76L125.191 117.181L126.225 118.99L127.258 121.186L128.163 123.641L128.68 125.191L128.938 127.646L128.68 128.938L128.292 129.842L127.517 130.488L126.613 130.359L124.933 129.842L123.641 129.067L122.737 128.421L121.703 127L120.928 125.837L120.153 124.416L118.602 121.315L117.827 118.861V115.889L118.344 113.047L118.861 109.946L118.99 109.559Z" fill="#ACC65E"/>
<path d="M89.6624 148.317H90.1792V149.48L89.6624 152.452L88.758 155.811L87.7244 158.911V159.299L90.05 160.074L91.0835 160.72L92.1171 162.141L92.2463 163.046L91.8587 163.433L90.3084 163.692H86.1741L85.1405 163.563L83.3317 163.175L81.7814 162.4L80.877 161.366L80.4894 160.333L80.3602 159.687V157.878L80.6186 156.198L81.523 153.485L82.2982 152.322L83.3317 151.676L84.7529 150.901L86.5617 149.997L88.6288 148.834L89.1456 148.705V148.447L89.6624 148.317Z" fill="#ABC55D"/>
<path d="M56.0713 97.2847H56.3297V98.5766L55.8129 101.031V103.615H56.0713L56.7173 104.907L56.5881 105.424L55.4253 106.716L54.1333 108.396L52.3246 110.721L51.0326 112.401L48.7071 115.243L47.2859 116.406L46.3815 117.052H45.0896L44.5728 116.535L44.4436 116.277V115.372L45.0896 113.822L45.6064 113.047H45.8648L46.1231 112.271L47.0275 111.109L48.1903 110.075L48.8363 109.429L49.4823 108.654H49.7406L49.999 108.137L50.9034 107.233L51.937 106.328L53.0998 105.036L54.0041 104.003L54.5209 103.486H54.7793L55.0377 102.969L55.4253 102.582L55.5545 102.194L55.0377 102.323L54.9085 102.711L53.4873 103.874L52.9706 104.132L52.7122 104.649L51.8078 105.295L50.9034 105.553L50.2574 105.812H49.6114L49.3531 106.328L48.4487 107.104L45.9939 108.137L44.9604 108.525H43.1516L42.764 108.008V107.104L43.41 106.199L44.9604 105.036L46.6399 103.744L48.8363 102.194L50.7742 100.773L52.0662 99.9978L52.4538 99.6102L52.8414 99.481L52.9706 99.2226H53.3581V98.9642L54.9085 98.0598L55.5545 97.5431L56.0713 97.2847Z" fill="#6E8340"/>
<path d="M42.5057 149.351L43.1516 149.48L45.0896 150.643L47.8027 151.935L49.6115 152.839L50.3866 153.356V153.615H50.645V153.873L51.0326 154.002L51.8078 155.682L51.937 157.232V160.074L51.5494 161.366L50.7742 162.4L50.3866 162.788H49.8699V163.046L47.8027 163.692L45.7356 163.821H43.1516L41.7305 163.563H40.8261L40.3093 163.046L40.4385 162.271L41.2137 161.366L42.2473 160.591L44.5728 159.428L44.4436 158.524L43.5392 155.553L42.6349 151.677L42.5057 151.031V149.351Z" fill="#ABC55D"/>
<path d="M51.0326 91.6001L52.8413 91.7293L53.8749 92.6337L55.0377 94.0548L56.0712 95.7344L56.2004 96.768L53.8749 98.1891L52.9705 98.7059L52.0662 99.0935L50.5158 99.8687L49.6114 100.127H48.9654L48.8362 100.515L47.0275 101.677L43.41 103.615L41.3429 104.649L39.9217 105.166H39.1465L38.5005 104.778L38.3713 104.003L38.7589 103.228L39.1465 102.711H39.4049V102.453L41.2137 101.29L43.7976 99.9979L45.3479 99.3519L46.5107 98.7059L47.4151 97.9307L48.3195 97.5431L49.7406 97.0263L50.5158 96.5096H50.7742V96.2512L51.291 95.9928H51.937V95.7344L53.7457 95.0884H54.1333V94.83L54.9085 94.5716L53.7457 94.83L52.8413 95.2176L51.291 95.476V95.7344L49.8698 96.122L47.4151 97.0263L43.5392 98.3183L42.8932 98.5767H41.0845L40.9553 98.4475H39.7925L39.2757 98.0599V96.5096L39.6633 95.476L40.8261 95.6052L41.0845 95.3468L41.8596 95.2176L41.7304 94.7008L40.4385 93.538L40.3093 93.0213L40.9553 93.6672L42.2472 94.5716L43.41 95.2176L45.0896 95.6052H46.2523L48.0611 95.0884L49.353 94.184L50.645 92.3753L51.0326 91.6001Z" fill="#6E8440"/>
<path d="M44.0561 59.9473H44.9604L46.64 60.7224L47.8028 61.4976L49.0947 62.6604L50.2575 64.0816L51.2911 65.1151L52.9706 67.3115L54.1334 68.6034L55.2961 70.0246L56.3297 71.1874L56.8465 71.8333V72.3501H56.5881L56.4589 72.8669H56.2005L56.0713 73.5129H55.8129V74.5465L55.2961 74.2881L55.167 73.9005L54.6502 73.6421L54.0042 72.9961L53.229 72.3501L52.583 71.7041L50.9035 70.1538L49.8699 69.2494L48.1903 67.699L46.8984 66.5363L46.2524 66.0195L45.994 65.3735H45.6064L45.348 65.8903L43.2809 66.0195L41.2137 66.5363L39.405 67.5699L38.113 68.4742L37.7254 68.7326H36.9503L36.4335 68.345V67.4407L36.9503 66.5363L38.113 65.2443L39.2758 64.3399L41.2137 63.5648L42.1181 63.4356V63.1772L42.5057 63.048L44.1853 62.9188L43.6685 61.6268V60.7224L44.0561 59.9473Z" fill="#6E8340"/>
<path d="M90.9542 59.5591H91.7294L92.3754 59.9467L92.6338 61.3678L94.1842 62.0138V62.2722L95.0885 62.5306L95.4761 62.789V63.0474L95.9929 63.3058L97.1557 64.3393L97.4141 64.8561V65.7605L96.6389 66.2773L95.3469 66.0189L94.3134 65.3729L92.8922 64.7269L92.3754 64.5977L90.5667 64.4685L90.3083 64.9853L88.2411 67.0525L87.3367 68.086L86.0448 69.2488L84.1068 71.0576L82.5565 72.6079L81.1353 73.7707H80.7477L80.6185 72.9955H80.3601L80.1017 72.4787V72.0911H79.8434L79.585 71.4452L81.1353 69.8948L82.2981 68.4736L83.59 66.9233L84.7528 65.5021L86.0448 64.081L87.4659 62.2722L89.1455 60.5927L90.1791 59.8175L90.9542 59.5591Z" fill="#6E8340"/>
<path d="M42.764 68.2158H43.9268L46.7691 69.637L48.0611 69.7662L48.5779 70.0246V70.283L49.0946 70.4122L50.2574 71.3165V71.5749L50.7742 71.7041L52.8413 73.1253L53.3581 73.2545V73.5129H53.7457V73.7713H54.1333L54.2625 74.0297L54.6501 74.1589L55.2961 74.8048L55.9421 75.3216L56.3296 76.872V79.9727L56.0713 80.1019L55.1669 79.7143V79.4559H54.7793V79.1975L54.1333 79.0683V78.8099L53.4873 78.6807L53.2289 78.5515V78.2931L52.7121 78.1639L52.4538 78.0347V77.7764L51.8078 77.518L50.1282 76.3552L49.4822 75.8384H49.0946L48.1903 74.8048L47.1567 74.0297L45.9939 73.5129L45.2188 73.3837V73.2545H45.8647V72.9961L45.348 72.8669L43.9268 71.9625L42.764 70.6706L42.118 69.3786L42.2472 68.6034L42.764 68.2158Z" fill="#6E8340"/>
<path d="M59.3011 50.645H60.3347L60.8515 51.1618L62.4018 53.7457L63.5646 57.4924L64.7274 63.1771L64.8566 64.0814V65.6318L63.5646 67.6989L62.7894 68.7325H62.531L61.2391 64.0814L60.5931 61.3683L60.3347 60.0764H60.0763L59.6887 59.4304L58.9135 58.0092V56.9756L59.1719 56.5881V55.8129L58.7843 54.3917L58.6552 53.2289L58.7843 51.6786L59.3011 50.645Z" fill="#6E8340"/>
<path d="M80.877 101.419L81.9106 102.194L82.6858 102.711L85.9157 105.941L87.3368 107.104L88.3704 108.008L89.0164 108.783L90.05 109.558L91.6003 110.979L92.6339 112.013L93.1507 113.047L93.4091 113.822V114.726L92.7631 115.372H91.4711L90.3084 114.855L89.0164 113.951L88.6288 113.563V113.305L88.112 113.047L87.3368 112.271V111.884L86.82 111.625L85.9157 110.463L84.6237 109.3L83.7193 108.266L82.169 106.587L81.2646 105.553L80.3602 104.778L80.6186 103.357L80.7478 103.228L80.877 101.419Z" fill="#6E8340"/>
<path d="M55.5545 102.582L55.8129 102.97V103.616H56.0713L56.7173 104.908L56.5881 105.424L55.4253 106.716L54.1333 108.396L52.3246 110.721L51.0326 112.401L48.7071 115.243L47.2859 116.406L46.3815 117.052H45.0896L44.5728 116.535L44.4436 116.277V115.372L45.0896 113.822L45.6064 113.047H45.8648L46.1232 112.272L47.0275 111.109L48.1903 110.075L48.8363 109.429L49.4823 108.654H49.7407L49.999 108.137L50.9034 107.233L51.937 106.329L53.0998 105.037L54.0041 104.003L55.5545 102.582Z" fill="#6E8340"/>
<path d="M49.7406 56.8462H50.5158L51.291 57.363L52.1953 58.2674H53.6165L54.6501 58.7841L55.2961 59.9469L55.4253 60.7221V61.7557L54.7793 62.2724L55.5545 63.1768L55.942 63.6936V63.952H56.2004L57.234 66.0191L58.6552 68.4739L58.9136 68.6031V68.9907H59.172L59.5595 69.895V70.2826H59.3012V70.541L58.0092 71.187L57.6216 71.3162V71.5746L57.1048 71.4454L55.6837 69.249L53.4873 65.8899L51.6786 63.1768L50.1282 60.7221L49.4822 59.3009L49.353 58.7841V57.1046L49.7406 56.8462Z" fill="#6E8340"/>
<path d="M53.4872 51.1616L54.3916 51.2908L55.2959 52.3244L56.3295 54.0039L58.9134 60.4638L60.3346 63.8229L61.7558 67.4404L62.2726 68.7323V69.2491L60.8514 69.8951L60.2054 70.0243L59.0426 67.828L58.5259 66.6652L56.8463 62.9185L56.4587 61.6265H56.2003L55.2959 59.6886L54.65 57.8798L53.7456 55.8127L53.358 55.0375L53.0996 54.0039V51.9368L53.4872 51.1616Z" fill="#6F8440"/>
<path d="M81.7814 52.5825H82.4274L82.815 53.2285L82.9442 53.8745V54.9081L81.7814 58.3964L80.231 61.6263L79.7142 62.789L78.6807 64.9854L78.4223 65.7606H78.1639V66.4065H77.9055V67.0525H77.6471V67.6985H77.3887L77.0011 68.8613L76.4843 69.8948L75.3216 69.6364L74.6756 69.3781L74.5464 68.7321L75.58 65.6314L77.2595 61.1095L78.1639 58.3964L78.2931 57.492L78.1639 57.3628V56.0708L78.6807 54.7789L79.0683 54.3913L79.3267 53.8745L81.7814 52.5825Z" fill="#6E8340"/>
<path d="M80.4894 96.7676L81.3938 96.8968L82.169 97.2844L82.5566 97.672L84.3653 98.7055L85.3989 99.3515V99.7391L86.5617 100.127L89.6624 102.065L90.8251 102.969L92.1171 103.873L93.0215 104.649L93.6675 106.07L93.5383 106.587H93.2799V106.845L92.8923 106.974H91.8587L89.6624 106.457L88.112 105.682L84.8821 103.744L83.9777 103.227V102.969L83.4609 102.84V102.581L82.9442 102.452V102.194L82.2982 101.935L82.0398 101.806V101.548L81.3938 101.289L80.7478 100.773L80.3602 98.4471V96.8968L80.4894 96.7676Z" fill="#6E8340"/>
<path d="M79.585 105.166H80.231L80.4894 106.07L81.0061 106.328L81.2645 106.974L82.5565 108.783L84.1069 110.979L85.9156 113.692L87.5952 116.535L87.7244 116.922V118.344L87.0784 118.86L85.9156 118.731L84.2361 117.31L83.2025 116.018L82.2981 115.63V115.372L81.5229 115.114L81.1353 114.726L80.6186 113.563V111.884L80.1018 111.238L79.4558 110.075L78.8098 109.171V108.912H78.5514L77.1302 106.587L77.3886 106.07L78.6806 105.553L79.585 105.166Z" fill="#6E8340"/>
<path d="M60.3347 106.974L61.1099 107.103L62.4018 107.749L62.2726 109.041L61.3683 111.367H61.1099L60.9807 112.142L59.3011 116.922L58.7843 118.343L59.6887 118.989V120.411L59.4303 121.703L59.0427 122.348L58.6551 122.478V122.736L58.3967 122.865H57.4924L56.9756 122.736L56.7172 123.64L55.8128 124.286H54.7792L54.2625 123.77V122.348L55.1668 119.765L56.4588 116.664L57.88 113.176L59.9471 108.008L60.2055 107.103L60.3347 106.974Z" fill="#6E8340"/>
<path d="M81.9105 93.667L83.4609 94.0546L84.4944 94.4422V94.7006L85.7864 95.0882L87.3367 95.7341L89.4039 96.6385L91.2126 97.5429L93.0214 98.3181L94.9593 98.964L95.3469 99.3516L95.7345 99.4808L96.2513 100.256L96.8973 100.644L97.2849 101.419L97.0265 102.194L96.1221 102.582L94.5717 102.452L93.409 101.677L91.471 101.031L89.7915 100.385L87.4659 99.3516L83.7192 97.6721L82.2981 97.1553L80.6185 96.2509V95.6049L81.2645 94.313H81.5229V93.9254L81.9105 93.667Z" fill="#6E8340"/>
<path d="M74.0295 107.75L74.4171 107.879L74.9339 109.171L75.4507 111.367L75.7091 112.271V113.176L76.2259 113.434L77.001 114.339L77.2594 114.855L77.3886 116.535L77.2594 117.439L78.5514 121.574L78.8098 122.607V124.416L78.293 125.062H77.3886L76.4843 124.287L75.4507 122.478L74.8047 120.928L73.7711 117.439L72.7376 112.659L72.35 111.625V110.463L72.6084 109.817H72.8668L73.1252 108.912L73.3835 108.783L73.5127 108.266H73.7711V107.879L74.0295 107.75Z" fill="#6E8340"/>
<path d="M71.1872 46.6396L71.8332 46.7688L72.35 47.8024L72.8668 49.482L72.996 50.7739V52.9703L72.6084 55.425L72.7376 56.071L73.1252 56.717V58.0089L72.4792 59.6885L72.35 59.8177L71.8332 63.4352L71.3164 63.306L70.6704 62.1432L69.6369 61.2388L68.8617 60.8513V57.1046L68.9909 56.9754L69.3785 50.6447L69.6369 49.2236L70.4121 47.4148L70.9288 46.7688L71.1872 46.6396Z" fill="#6E8340"/>
<path d="M86.0449 56.4585H87.0784L87.466 56.9753V58.5256L86.3033 60.5928L85.1405 62.4015L82.9442 65.7606L81.3938 68.2154L80.3602 69.7657L79.9726 70.4117H79.7143L79.4559 71.0577L79.0683 71.1869L78.6807 71.0577V70.7993L77.5179 70.4117L77.2595 70.1533L77.3887 69.6365L78.8099 66.7942L79.0683 66.1482H79.3267L79.0683 65.373V64.4687L79.8434 63.1767L80.6186 62.4015H81.6522L82.5566 60.722L84.3653 58.0089L85.5281 56.7169L86.0449 56.4585Z" fill="#6E8340"/>
<path d="M76.355 50.7739H77.1302L77.7762 51.4199L78.0346 52.1951L77.9054 53.4871L76.355 60.2053L75.4507 63.952L75.1923 65.3731L74.4171 67.9571L74.2879 68.7322L73.7711 68.4738L72.9959 67.1819V66.7943H72.7375L72.0916 65.1147V64.2104L74.4171 54.9082L75.0631 52.7119L75.8382 51.2907L76.355 50.7739Z" fill="#6E8340"/>
<path d="M65.2443 113.305L65.7611 113.822L66.6654 115.114L67.8282 115.889L68.345 116.018V120.799L67.9574 126.096L67.4406 128.163L66.7946 129.584L66.2778 129.972H65.5027L64.8567 129.455L64.4691 128.163L64.2107 126.096L64.7275 121.832L64.8567 119.765L64.9859 118.99L65.2443 115.631V113.305Z" fill="#6E8340"/>
<path d="M62.6603 108.524L63.1771 108.783L63.4355 109.3H63.6939L64.3399 110.592L64.7274 111.754V112.659L63.9523 116.147L62.5311 122.994L61.8851 124.674L61.1099 125.708L60.464 126.095L59.818 125.966L59.3012 125.191L59.172 123.382L59.9472 120.281L61.1099 114.855L61.8851 111.496L62.1435 109.816L62.6603 108.524Z" fill="#6E8340"/>
<path d="M57.1049 105.812H58.0092V106.07L58.9136 106.199L59.818 106.587L59.6888 107.362L58.3968 109.429L57.7508 110.721L56.4589 113.047L55.9421 113.176V114.855L54.9085 116.922L53.7457 117.568L52.3246 118.99L51.5494 119.506L50.645 119.377L50.2574 118.99V117.956L51.291 115.501L52.583 113.047L53.7457 111.109L55.6837 108.008L57.1049 105.812Z" fill="#6E8340"/>
<path d="M76.0967 106.587H76.7427L77.7763 108.912L78.8099 110.98L80.6186 114.726L81.523 116.535L82.169 117.956L83.7193 121.057L83.9777 122.349L83.5901 123.124L83.2025 123.382L82.0398 123.253L81.1354 122.349L80.231 120.54L79.1975 118.085L78.1639 115.76L77.7763 114.985V114.726H77.5179L76.3551 112.013L75.9675 110.85V110.463H75.7092L75.0632 109.042L74.5464 107.75V107.104L75.4508 106.716L76.0967 106.587Z" fill="#6E8340"/>
<path d="M71.5748 112.53H71.9623L72.2207 115.373L72.8667 120.024V121.316H73.1251L73.5127 122.349L73.6419 124.158L73.5127 127.775L72.9959 128.551L72.3499 128.938L71.5748 128.809L70.6704 127.775L69.8952 125.45L69.766 124.675L69.6368 122.478L69.5076 117.957L69.3784 115.889L70.5412 114.856L71.1872 113.693L71.5748 112.53Z" fill="#6E8340"/>
<path d="M65.2443 46.8979H65.8902L66.407 47.5439L66.9238 48.7067L67.4406 50.5154L67.8282 52.9702V54.9081L68.0866 57.7504L68.345 58.2672V60.8512L67.053 61.4971L66.2778 62.5307L65.8902 63.1767L65.6319 62.6599L65.2443 59.43L64.9859 56.8461L64.4691 54.5205L64.2107 52.3242V48.9651L64.4691 47.8023L64.8567 47.1563L65.2443 46.8979Z" fill="#6E8340"/>
<path d="M92.3753 67.1821H93.1505L93.5381 67.5697L93.6673 68.6033L93.1505 69.6369L92.5045 70.412V70.7996L93.1505 71.058L92.7629 71.1872L92.3753 71.058H90.4374L89.2746 71.5748L87.7243 72.7376L86.9491 73.6419L86.5615 74.1587L86.3031 74.0295V74.2879H86.0447V74.5463L85.1403 74.9339L84.1068 75.5799L83.9776 75.8383H83.59V76.0967L82.8148 76.4843L82.298 76.6135V76.8719L80.4893 77.7762V76.7427L80.7477 74.8047L81.5228 74.2879L82.6856 73.2544L85.0111 71.704L86.0447 70.9288L87.8535 69.6369L89.7914 68.4741L91.3418 67.5697L92.3753 67.1821Z" fill="#6E8340"/>
<path d="M92.2463 73.6421H94.055V73.9005L94.701 74.1589L95.6054 75.4508L96.1222 76.6136L96.2514 78.4224L95.993 80.2311L95.4762 81.2647L94.8302 81.5231V81.7815L94.1842 82.0399H93.2799L92.2463 81.5231L91.3419 80.4895L90.8251 78.8099L90.6959 78.2932V77.0012L91.0835 75.1924L91.8587 74.0297H92.1171L92.2463 73.6421Z" fill="#FAFAF6"/>
<path d="M48.8362 97.4141H49.6114L50.2574 98.06V99.0936L49.4822 99.998L48.9654 100.127L48.8362 100.515L47.0275 101.678L43.41 103.615L41.3429 104.649L39.9217 105.166H39.1465L38.5005 104.778L38.3713 104.003L38.7589 103.228L39.1465 102.711H39.4049V102.453L41.2137 101.29L43.7976 99.998L45.3479 99.352L46.5107 98.706L47.4151 97.9308L48.3195 97.5433L48.8362 97.4141Z" fill="#6E8340"/>
<path d="M45.4772 76.0967H46.7691L47.9319 76.8719L48.8363 78.0346L49.2239 78.939L49.3531 79.7142V81.0061L49.0947 82.1689L48.7071 83.2025L47.9319 83.8485L47.4151 83.9777H46.1231L45.2188 83.3317L44.3144 82.2981L43.9268 81.2645L43.7976 80.4894V78.293L44.5728 76.7427L45.4772 76.0967Z" fill="#FAFBF8"/>
<path d="M74.8048 90.4375H75.4508L75.9675 91.2127V92.2462L75.1924 93.6674L74.288 94.8302L73.2544 95.7346L71.7041 96.5097L70.9289 96.7681H68.0866L66.0194 96.1221L64.5983 95.2178L63.5647 94.3134L62.9187 93.0214V92.2462L63.4355 91.6003L64.2107 91.4711L65.115 92.2462L65.6318 93.0214L66.6654 93.9258L67.8282 94.4426L68.2158 94.5718H70.6705L71.8333 94.055L72.8668 93.1506L73.642 91.9879L74.1588 90.8251L74.8048 90.4375Z" fill="#56371D"/>
<path d="M83.5901 91.3418L85.3988 91.471L86.9492 91.8586L87.8535 92.117V92.3754L89.1455 92.763L88.6287 92.8922L88.4995 93.9257L88.6287 94.5717L89.4039 94.8301L90.0499 95.0885H91.2126L91.9878 94.7009L92.117 93.9257V93.5381L94.1842 93.2797L93.9258 93.7965L95.2177 93.9257L97.6725 94.7009L98.4476 95.0885L98.8352 95.7345L98.9644 96.2513L98.5768 96.6388L97.1557 96.8972H95.4761L93.2798 96.3805L89.9207 95.3469L88.4995 94.9593L86.4324 94.5717L84.6236 94.0549L82.9441 93.6673V93.4089L82.2981 93.2797L82.6857 92.5046H82.9441V92.117L83.3317 91.8586L83.5901 91.3418Z" fill="#6E8340"/>
<path d="M42.7641 63.1768H44.4436L45.2188 63.5643L45.7356 64.0811L45.8648 64.3395V65.1147L45.348 65.8899L43.2809 66.0191L41.2137 66.5359L39.405 67.5694L38.113 68.4738L37.7254 68.7322H36.9503L36.4335 68.3446V67.4402L36.9503 66.5359L38.113 65.2439L39.2758 64.3395L41.2137 63.5643L42.7641 63.1768Z" fill="#54331B"/>
<path d="M90.825 61.3682L92.2462 61.4974L94.1841 62.1433L95.3469 62.6601L95.4761 63.0477L95.9929 63.3061L97.1557 64.3397L97.414 64.8565V65.7608L96.6389 66.2776L95.8637 66.1484L94.7009 65.3733L93.0214 64.5981L91.7294 64.3397H89.7915L88.3703 64.0813L87.9827 63.6937L87.8535 62.9185L88.1119 62.2725L88.7579 61.7558L89.4039 61.4974L90.825 61.3682Z" fill="#54321B"/>
<path d="M12.2737 108.913L12.6613 109.042L12.9197 110.463L13.5656 115.76L13.824 117.31V119.378L13.3072 121.186L12.2737 123.512L11.6277 124.675L10.9817 126.225L10.2065 127.646L9.43135 128.809L8.26858 130.101L6.58903 131.393L4.52189 132.426L3.35912 132.297L2.58394 131.78L1.93796 130.488L1.67957 129.196V127.646L1.93796 126.096H2.06715L1.93796 128.938L2.19635 130.23L2.71314 131.264L3.61751 131.651L4.26349 131.393H4.78028V131.134L6.07224 130.876L6.20144 130.488H6.58903L6.84742 129.972L8.01019 128.938L8.26858 128.55H8.65617L8.91456 127.904L9.30215 127.258V127H9.56055L9.81894 126.354L9.94814 126.096H10.2065L10.4649 125.321L10.8525 125.191L11.1109 124.545L12.1445 122.349L12.4029 121.703L12.7905 120.54L12.9197 119.378V118.473L13.0488 118.215V116.148L12.7905 114.08L12.5321 112.659L12.4029 110.463L12.2737 109.817V109.429L11.2401 110.334L10.5941 110.851L10.8525 110.334L12.2737 108.913Z" fill="#95B052"/>
<path d="M60.4639 1.9375H62.0143L62.2727 2.0667V2.84187L61.4975 4.26304L60.9807 5.03821L59.5595 6.07179L58.3968 6.58857L57.3632 6.84696L56.7172 6.45937L56.588 5.4258L57.1048 4.39223H57.3632L57.6216 3.87545L58.6552 2.84187L60.4639 1.9375Z" fill="#95B052"/>
<path d="M83.5901 91.3418L85.3988 91.471L86.9492 91.8586L87.8535 92.117V92.3754L89.1455 92.763L88.6287 92.8922L88.4995 93.9257L88.6287 94.5717L89.4039 94.8301L89.9207 95.2177L89.0163 95.0885L86.4324 94.5717L84.6236 94.0549L82.9441 93.6673V93.4089L82.2981 93.2797L82.6857 92.5046H82.9441V92.117L83.3317 91.8586L83.5901 91.3418Z" fill="#708540"/>
<path d="M118.99 109.559L119.636 109.688L120.411 110.463L120.282 110.721L119.248 109.817L119.119 111.367L119.248 111.755H118.99L118.861 112.659L118.215 116.406V118.602L118.732 120.153L120.411 123.512L121.186 124.933L121.445 125.45L121.832 125.837V126.096H122.091L122.478 126.742V127H122.737L123.641 128.163L124.029 128.292V128.55L124.675 128.809L125.45 129.196L126.225 129.455L127.129 129.713L127.775 129.455V129.067L128.034 128.938L128.163 128.292L128.421 128.163L128.68 126.225H128.809L128.938 127.646L128.68 128.938L128.292 129.842L127.517 130.488L126.613 130.359L124.933 129.842L123.641 129.067L122.737 128.421L121.703 127L120.928 125.837L120.153 124.416L118.602 121.315L117.827 118.861V115.889L118.344 113.047L118.861 109.946L118.99 109.559Z" fill="#95B052"/>
<path d="M83.9776 79.4556H84.6235V83.4607L83.9776 83.5899L82.944 83.8482H82.298L81.3936 82.8147L81.2644 82.2979H81.006L80.4893 81.3935V80.7475L81.7812 80.2307H82.5564V79.9724L83.9776 79.4556Z" fill="#718741"/>
<path d="M85.6573 75.5796L85.7864 75.838L85.1405 77.7759L84.8821 79.1971L84.6237 78.8095L82.9441 79.4555L81.6522 80.1015L80.231 80.3599L80.1018 79.8431V78.2927L80.877 78.1635V77.9051L82.1689 77.3883L82.5565 77.0008L84.4945 75.9672L85.6573 75.5796Z" fill="#728842"/>
<path d="M42.8933 149.48L43.5392 149.738L45.6064 150.901L48.1903 152.064L49.7407 152.968L50.3866 153.356V153.614H50.645V153.873L51.0326 154.002L51.8078 155.681L51.937 157.232V160.074L51.5494 161.366L50.7742 162.4L50.3866 162.787H49.8699V163.046L47.8027 163.692L45.7356 163.821H43.1516L41.7305 163.562H40.8261L40.3093 163.046L40.4385 162.529V162.787L42.2473 162.916H43.2808L43.7976 163.046L44.5728 162.916H45.994L46.6399 162.787H48.3195L48.9655 162.916L49.0947 162.658L49.9991 162.27L50.7742 161.754L51.291 160.72L51.4202 159.428V157.103L51.1618 155.681L50.9034 154.777L50.3866 153.873L49.7407 153.356L47.9319 152.322L45.994 151.418L44.1852 150.514L42.8933 149.609V149.48Z" fill="#95B052"/>
<path d="M83.7193 83.9775H84.6236L85.0112 85.2695L85.528 87.3366L86.0448 88.7578L87.8536 91.4709V91.7293L86.3032 91.4709L83.9777 90.9541L84.3653 90.0498H84.6236V87.9826L83.9777 86.0447L83.7193 85.5279H83.4609V85.1403H83.2025V84.7527H82.9441L83.0733 84.1067L83.7193 83.9775Z" fill="#A3BD59"/>
<path d="M53.6165 58.1387H54.5208L55.0376 58.9139V59.1722H55.296L55.8128 60.5934L56.2004 61.3686V61.627H56.4588L57.1048 63.1773L58.6551 66.6656L59.6887 68.7328L60.3347 70.1539L59.3011 70.4123L59.5595 70.2831L59.1719 69.508V68.9912H58.9135V68.6036L58.5259 68.4744L56.4588 64.8569L56.2004 64.3401V63.9525H55.942L54.9084 62.5313L54.65 62.1438L55.296 61.7562V60.7226L55.0376 59.689L54.65 59.043V58.7847L53.8748 58.5263L53.6165 58.3971V58.1387Z" fill="#CAD796"/>
<path d="M67.8281 56.4585H67.9573L68.0865 57.7505L68.3449 58.2672V60.8512L67.0529 61.4972L66.2778 62.5307L65.8902 63.1767L65.6318 62.6599L65.2442 59.43L65.115 56.9753L65.3734 57.4921L65.5026 58.138H66.7945L67.3113 57.8797L67.6989 56.5877L67.8281 56.4585Z" fill="#6E8340"/>
<path d="M77.2594 55.813L77.7762 55.9422L77.9054 57.2341L78.4222 57.4925L78.293 58.3969L76.6134 63.3064L75.3215 66.6655L75.1923 66.2779L75.3215 65.3735L75.709 64.0816V63.694L75.4507 64.4691L75.3215 63.9524L76.6134 58.6553L77.2594 55.813Z" fill="#A9C35C"/>
<path d="M64.9859 27.3896H71.0581L73.7712 27.648L76.226 28.0356L78.5515 28.5524L81.7814 29.4568L84.8821 30.4904L87.2077 31.5239L89.6624 32.8159L90.9543 33.5911L90.696 33.7203L87.7244 32.1699L85.7865 31.2655L83.8485 30.4904L80.4894 29.4568L78.4223 28.94L77.2595 28.6816L76.3552 28.4232L74.4172 28.0356L71.4457 27.7772H64.8567L60.0764 28.0356L57.3633 28.4232L53.875 29.1984L50.1283 30.3612L48.8363 30.7488L48.4487 30.6196L51.937 29.4568L55.2961 28.5524L58.5261 27.9064L62.2727 27.5188L64.9859 27.3896Z" fill="#95B052"/>
<path d="M65.8902 54.0039H66.9238L67.5698 54.7791L67.8282 55.8127L67.699 57.2338L67.3114 58.009L66.7946 58.2674H65.761L65.3734 57.8798L64.9858 56.8462V55.2959L65.5026 54.2623L65.8902 54.0039Z" fill="#54321B"/>
<path d="M48.1903 110.075H49.0947L49.8699 110.463V111.884L48.7071 113.305L47.9319 113.822H47.1567L46.2524 113.047L46.1232 112.659L46.5108 111.755L47.4151 110.721L48.1903 110.075Z" fill="#54341C"/>
<path d="M47.4151 62.7896H48.1903L49.2239 63.4355L50.1283 64.3399L50.3867 64.9859V66.1487L49.9991 66.5362L49.6115 66.6654L48.4487 66.2779L47.4151 65.3735L46.8984 64.7275L46.7692 64.4691V63.4355L47.4151 62.7896Z" fill="#54321B"/>
<path d="M50.7742 78.1636L52.1953 78.6804L53.8749 79.5847L55.1668 80.1015V80.3599L56.0712 80.6183L55.8128 82.0395L55.6836 82.1687L54.7793 82.0395L52.4537 81.0059L51.8077 80.8767L51.6785 81.2643L51.0326 78.9388L50.7742 78.1636Z" fill="#708541"/>
<path d="M87.2075 109.429L88.3702 109.558L89.533 110.334L90.3082 111.367V112.53L89.9206 112.918L88.7578 113.047L87.8534 112.53L86.9491 111.496L86.6907 110.98V109.817L87.2075 109.429Z" fill="#54321B"/>
<path d="M92.3754 98.5767H93.9258L95.2178 99.0934L95.6054 99.6102L95.7346 100.773L94.8302 101.419H93.6674L92.3754 100.902L91.7295 100.385L91.4711 99.8686L91.6003 98.9642L92.3754 98.5767Z" fill="#54331B"/>
<path d="M58.3968 118.473H59.0428L59.6888 118.989V120.411L59.4304 121.703L59.0428 122.349L58.6552 122.478V122.736L58.3968 122.865H57.4924L56.8464 122.219V121.186L57.3632 119.894L58.1384 118.602L58.3968 118.473Z" fill="#55351C"/>
<path d="M78.6806 108.913L79.1974 109.559L80.1017 110.851L80.6185 111.755L80.7477 112.143L80.2309 113.176L80.3601 113.822L81.2645 115.372L81.9105 117.052L83.8484 120.928L84.236 122.478L83.8484 123.383L83.3316 123.641H82.0397L81.3937 123.253V122.995H81.1353L80.3601 121.445L79.0682 118.215L78.939 117.44L79.1974 117.698L80.1017 120.023L81.1353 122.091L82.0397 123.124L83.2024 123.253L83.7192 122.737L83.8484 121.961L83.3316 120.54L82.0397 117.956L81.1353 116.018L80.1017 113.951L77.9054 109.429L78.0346 109.042V109.3L78.6806 108.913Z" fill="#AAC45E"/>
<path d="M55.2961 113.176L55.8129 113.305L55.9421 113.434V114.855L54.9085 116.922L54.521 117.181H53.3582L52.7122 116.664L52.583 116.018L53.0998 114.597L54.2626 113.563L55.2961 113.176Z" fill="#54331B"/>
<path d="M72.0916 120.928L72.8668 121.057V121.315H73.1252L73.5128 122.349L73.642 124.158L73.2544 124.933L72.7376 125.32H71.9624L71.3164 124.674L71.058 124.028L70.9288 122.607L71.4456 121.315L72.0916 120.928Z" fill="#54331B"/>
<path d="M86.5616 64.9854H87.7244L88.112 65.2437L88.2412 65.6313V66.7941L87.0784 68.0861L85.528 68.4737L84.7529 68.3445L84.6237 68.0861V67.1817L85.3988 66.0189L86.0448 65.2437L86.5616 64.9854Z" fill="#54321B"/>
<path d="M49.4822 103.098H51.1618L51.4202 103.357V104.39L50.645 105.294L49.353 106.07H48.1903L47.4151 105.553L47.2859 104.907L47.8027 104.003L48.707 103.357L49.4822 103.098Z" fill="#54321B"/>
<path d="M47.1567 69.8955H48.3195L48.5779 70.0247V70.2831L49.0946 70.4123L50.2574 71.3167L50.1282 72.7378L49.8698 72.9962L48.3195 72.867L47.0275 72.3502L46.5107 71.7043L46.2523 70.5415L46.6399 70.0247L47.1567 69.8955Z" fill="#54331B"/>
<path d="M38.113 89.145L38.3713 89.6618V90.1786H38.7589L39.0173 91.2122L39.4049 91.9873V92.2457L40.0509 92.5041L40.1801 92.8917L38.5005 92.7625H37.8546L37.7254 92.5041H36.3042L35.3998 91.9873L35.2706 91.2122L35.7874 90.437L36.5626 90.0494L37.8546 89.9202L38.113 89.145Z" fill="#6D823F"/>
<path d="M79.8435 53.6167H80.6187L81.1355 54.1335V55.4254L80.6187 56.459L79.7143 57.4926L79.0683 57.8802L78.5515 57.751L78.1639 57.3634V56.0714L78.6807 54.7795L79.0683 54.3919L79.3267 53.8751L79.8435 53.6167Z" fill="#55361D"/>
<path d="M52.8414 58.2676H53.6166L54.6502 58.7844L55.2961 59.9471L55.4253 60.7223V61.7559L54.9086 62.1435L54.2626 62.0143L53.4874 61.4975L52.583 60.4639L52.1954 59.5595L52.3246 58.526L52.8414 58.2676Z" fill="#54331B"/>
<path d="M65.8901 118.085L66.7945 118.215L67.1821 118.99L67.3113 120.411L67.0529 121.574L66.6653 122.22H65.5025L64.8566 121.961V119.765L65.115 118.731L65.6317 118.215L65.8901 118.085Z" fill="#54331B"/>
<path d="M75.4508 113.305H76.0967L77.0011 114.339L77.2595 114.856L77.3887 116.535L77.0011 117.31H75.8384L75.3216 117.052L74.8048 116.018L74.5464 114.597L74.8048 113.951L75.4508 113.305Z" fill="#54321B"/>
<path d="M88.8872 103.615H90.1791L91.3419 104.261L91.9879 105.166L91.8587 106.07L91.2127 106.458H90.3083L89.0164 105.941L88.112 105.295L87.9828 105.036V104.132L88.4996 103.744L88.8872 103.615Z" fill="#54321B"/>
<path d="M71.4456 55.813H72.4792L72.996 56.459L73.1252 56.7174V58.0093L72.6084 59.1721L72.2208 59.6889L71.4456 59.8181L70.7997 59.4305L70.5413 58.6553V56.8466L71.4456 55.813Z" fill="#55351C"/>
<path d="M48.8363 97.4141H49.6115L50.2574 98.06V99.0936L49.4823 99.998L48.7071 100.386H47.5443L46.7691 99.998L46.5107 99.7396L46.6399 98.9644L47.0275 98.1892L47.8027 97.6725L48.8363 97.4141Z" fill="#54331B"/>
<path d="M81.2646 112.142L82.2982 112.271L83.3317 113.176L83.9777 114.338V114.984L83.3317 115.63L82.2982 115.501L81.2646 114.984L80.7478 113.951V112.4L81.2646 112.142Z" fill="#54331B"/>
<path d="M51.9369 81.5229L52.7121 81.6521L55.296 82.5565L55.0376 83.0733L54.65 83.7193L54.1332 84.2361L53.2289 85.3988L52.8413 85.7864L52.3245 85.6572L51.9369 81.5229Z" fill="#6F8440"/>
<path d="M80.6186 62.4019L81.6522 62.5311L82.0398 63.0478V63.9522L81.523 64.9858L80.3602 65.761L79.4558 65.8902V65.6318H79.1974L79.0682 65.3734V64.469L79.8434 63.177L80.6186 62.4019Z" fill="#55341C"/>
<path d="M80.877 155.294L81.0062 155.811L80.7478 157.361V160.074L81.3938 161.366L82.5566 162.271L84.1069 162.787L85.9157 163.046H90.4375L91.8587 162.917L91.7295 162.141L91.8587 161.754L92.2463 162.658L92.1171 163.304L90.5667 163.692H86.1741L85.1405 163.563L83.3317 163.175L81.7814 162.4L80.877 161.366L80.4894 160.333L80.3602 159.687V157.878L80.6186 156.198L80.877 155.294Z" fill="#95B052"/>
<path d="M60.7222 2.19629H61.1098V2.45468L61.4974 2.58388L61.6266 3.10066L61.239 3.74665H60.9806L60.8514 4.26343H60.4639L60.3347 4.65102H60.0763V5.03861L59.1719 5.297H58.9135H58.1383H57.7507V4.78022L58.1383 3.87584L59.1719 2.97147H59.4303V2.71307L60.7222 2.19629Z" fill="#ABC55D"/>
<path d="M88.6288 86.3032H89.6623L90.3083 86.6908L90.6959 87.466V88.4996L89.9207 89.2747H88.758L88.112 88.6288L87.9828 88.112V87.2076L88.4996 86.4324L88.6288 86.3032Z" fill="#F8F9F2"/>
<path d="M59.4302 56.3296L60.3346 56.4588L61.1098 57.3632L61.3682 58.1383L61.4974 59.6887L60.3346 59.8179L59.6886 59.4303L58.9135 58.0091V56.9756L59.4302 56.3296Z" fill="#54331B"/>
<path d="M80.1018 62.0142L81.0062 62.1434L81.1354 62.4017L80.4894 62.6601L79.7142 63.5645L79.1974 64.4689V65.3733L79.3266 66.1484H79.0682L78.939 66.7944L77.5179 69.6367L77.3887 70.2827L76.8719 70.0243L76.7427 69.8951H76.3551L77.2595 67.9572L77.3887 67.6988H77.6471V67.0528H77.9055V66.4068H78.1639V65.7609H78.4222L78.6806 64.5981L79.9726 62.1434L80.1018 62.0142Z" fill="#C5D48F"/>
<path d="M86.0449 88.8867L86.5617 89.5327L87.8537 91.4706V91.729L86.3033 91.4706L83.9778 90.9539L84.3654 90.0495H84.6238V89.2743L85.2697 89.0159L86.0449 88.8867Z" fill="#728842"/>
<path d="M45.3479 104.52L45.6063 104.649L44.3143 105.682L43.4099 106.328L42.8931 107.103V108.008L43.1515 108.395H44.9603L47.5442 107.362L48.8362 106.716L49.6113 105.811L50.5157 105.682L51.0325 105.295H51.8077L51.2909 105.811L50.2573 106.199L49.6113 106.457L49.4821 106.845L48.707 107.491H48.4486V107.749L47.5442 108.266L45.7354 108.654L44.4435 108.912H43.5391L42.7639 108.525L42.5055 108.266L42.3763 106.974L43.0223 106.328L44.4435 105.166L45.3479 104.52Z" fill="#94AF51"/>
<path d="M74.4171 108.008L74.9339 108.267L75.4507 109.559L75.7091 110.463H75.9675L76.8718 112.918L77.647 114.727L78.1638 116.277L77.5178 116.535L77.1302 114.856L76.4843 113.822L75.7091 113.176L75.3215 111.367L74.8047 109.171L74.4171 108.008Z" fill="#CBD799"/>
<path d="M84.2361 104.261L84.7529 104.52L85.7864 105.424V105.682L86.3032 105.941L87.7244 107.233L88.2412 107.62V107.879L88.758 108.137L89.4039 108.783L90.8251 109.946L92.3755 111.367L93.5382 112.659L93.7966 113.563L93.6674 114.985L93.0214 115.631L91.9879 115.76L90.1791 115.243L88.8872 114.209L88.3704 113.305H88.6288L89.2747 114.08L90.6959 114.985L91.4711 115.243H92.763L93.2798 114.726V113.822L92.763 112.53L92.2463 111.755L90.5667 110.075L89.2747 109.041L88.3704 108.266V108.008L87.8536 107.75L86.9492 106.845L85.528 105.682L84.2361 104.39V104.261Z" fill="#95B052"/>
<path d="M89.6622 102.065L90.3082 102.323L91.7293 103.228L93.1505 104.261L93.9257 105.424V106.587L93.6673 107.104H93.4089V107.362L92.5045 107.62L91.6002 107.491L90.9542 107.233V106.974L90.5666 107.104L90.0498 106.974V106.716L89.6622 106.845L88.3702 106.07L86.8199 105.166L86.3031 104.649L86.9491 104.907L88.3702 105.682L89.6622 106.328L91.8585 106.845H93.2797V106.587H93.5381L93.4089 105.682L92.7629 104.52L91.6002 103.615L90.3082 102.711L89.6622 102.065Z" fill="#95B052"/>
<path d="M94.0549 71.5747L95.2177 71.7039H97.414L98.1892 71.8331V72.7375L98.06 72.9959H97.8016L97.5432 73.5127L96.7681 74.2878L96.3805 73.5127L95.0885 72.2207L94.0549 71.7039V71.5747Z" fill="#6E8340"/>
<path d="M83.8485 110.592L84.4945 111.238L85.9157 113.305L86.6908 114.468L87.5952 115.76L87.9828 116.922V118.473L87.3368 119.119L86.174 119.377L85.2697 119.119L84.7529 118.473L83.5901 116.793L82.8149 115.76L83.3317 116.018L84.7529 117.698L85.9157 118.602L87.0784 118.731L87.5952 118.344V116.922L86.82 115.372L85.7865 113.693L83.9777 110.979L83.8485 110.592Z" fill="#95B052"/>
<path d="M36.5626 89.6621L37.3378 89.7913L37.2086 90.0497L36.4334 90.3081L35.7874 90.5665L35.3999 91.2125V91.9876L36.175 92.246L36.3042 92.3752H37.7254L37.8546 92.7628L39.0174 92.6336L40.3093 92.892L40.1801 93.2796L39.5341 93.0212L38.8882 93.2796H38.5006L37.8546 93.0212L36.9502 92.7628V93.0212L35.9166 92.892L35.2707 92.7628L34.7539 92.246L34.4955 91.6001L34.8831 90.3081L35.3999 90.1789L35.6583 89.7913L36.5626 89.6621Z" fill="#94AF51"/>
<path d="M44.1853 59.4302H45.0896L47.1568 60.4637L48.4487 61.6265L49.3531 62.6601L50.5159 64.0812L51.0327 64.598L50.9035 64.8564L49.9991 63.9521L48.8363 62.5309L47.1568 61.1097L45.348 60.2054L44.0561 59.947L43.7977 60.7221V61.6265L44.3145 62.9185L44.1853 63.0477L42.2473 63.1769L42.3765 62.9185H43.7977L43.4101 61.7557L43.2809 60.5929L43.7977 59.6886L44.1853 59.4302Z" fill="#95B052"/>
<path d="M79.9727 113.435L80.3602 113.822L81.2646 115.373L81.9106 117.052L83.8486 120.928L84.2361 122.478L83.8486 123.383L83.3318 123.641H82.0398L81.3938 123.253V122.995H81.1354L80.3602 121.445L79.0683 118.215L78.9391 117.44L79.1975 117.698L80.1019 120.024L81.1354 122.091L82.0398 123.124L83.2026 123.253L83.7194 122.737L83.8486 121.962L83.3318 120.54L82.0398 117.956L81.1354 116.018L80.1019 113.951L79.9727 113.435Z" fill="#96B152"/>
<path d="M41.4721 88.7578H42.7641L43.1517 89.1454L43.2809 89.7914L43.0225 90.6958L42.8933 90.9542L41.8597 91.0833L41.0845 90.5666L40.9553 89.4038L41.4721 88.7578Z" fill="#FBFCF9"/>
<path d="M97.9309 89.145H98.0601L98.1893 89.9202L98.8353 90.5662V91.4706L97.8017 92.1165L96.2514 92.2457L95.347 92.8917L95.0886 92.7625L96.2514 91.8581L97.0266 90.8246L97.8017 89.5326L97.9309 89.145Z" fill="#6E8340"/>
<path d="M86.3032 74.0293H86.5616L86.3032 74.5461L85.6572 75.7089L83.9777 76.3548L82.5565 77.13H82.2981L82.1689 77.5176L80.8769 77.9052V78.1636L80.231 78.2928L80.3602 77.0008H80.4893L80.6185 77.6468L82.0397 76.8716H82.2981V76.6132L83.3317 76.0964H83.5901V75.838H83.9777L84.1068 75.4505L85.528 74.5461H86.0448V74.2877H86.3032V74.0293Z" fill="#C0D187"/>
<path d="M42.5056 100.385L42.8932 100.514L42.118 101.031L40.5676 101.806L39.6633 102.452H39.4049V102.711H39.1465L38.8881 103.228L38.6297 103.874L38.5005 104.132L38.6297 104.778L39.1465 105.036L40.3093 104.907L41.9888 104.261L42.2472 104.39L40.1801 105.424L39.5341 105.553H38.6297L38.2421 104.907L38.1129 104.261L38.5005 102.711L39.1465 102.065L41.2136 101.031L42.5056 100.385Z" fill="#95B052"/>
<path d="M24.8056 48.9653L24.9348 49.2237L23.5137 51.4201L22.0925 53.8748L20.6714 56.8463L20.0254 58.2675L18.8626 61.4974L17.4415 65.7609H17.3123L17.4415 64.8565L18.9918 60.0762L19.6378 58.3967L20.9298 55.4252L22.2217 52.9704L23.6429 50.6449L24.6765 49.0945L24.8056 48.9653Z" fill="#95B052"/>
<path d="M120.411 110.721L121.057 111.367L122.349 112.788L123.641 114.597L124.416 115.76L125.191 117.181L126.225 118.99L127.258 121.186L128.163 123.641L128.68 125.191V126.225H128.55L128.292 125.191L127.388 122.478L126.225 119.636L125.062 117.439L124.158 116.018L122.737 113.822L121.057 111.755L120.411 110.98V110.721Z" fill="#95B052"/>
<path d="M42.8933 67.5698L43.9269 67.699L46.3816 69.1202L47.1568 69.3786L47.5444 69.7662H46.7692L43.9269 68.345H42.7641L42.2473 68.8618L42.3765 69.7662L43.1517 70.9289L43.7977 71.8333L43.2809 71.5749L42.3765 70.6705L41.9889 69.8954L41.8597 68.6034L42.5057 67.8282H42.8933V67.5698Z" fill="#95B052"/>
<path d="M95.8637 99.7393L97.0265 100.256V100.514L97.2848 100.644L97.5432 101.16V102.194L96.8973 102.84L96.3805 102.969H95.2177L93.9257 102.452L92.763 101.806L91.3418 101.16L90.9542 100.902L91.9878 101.031L93.5382 101.677L94.5717 102.323L96.1221 102.452L97.0265 102.065L97.1557 101.419L96.7681 100.644L96.1221 100.256L95.8637 99.7393Z" fill="#95B052"/>
<path d="M49.2239 75.709L49.7407 75.9674L52.4538 77.7761L52.1954 78.0345L52.583 78.6805L54.1333 79.5849L53.8749 79.7141L51.6786 78.5513L50.7742 78.1637L49.7407 76.6134L49.2239 75.709Z" fill="#A6C05B"/>
<path d="M53.6165 58.1387H54.5208L55.0376 58.9139V59.1722H55.296L55.8128 60.5934L56.2004 61.3686V61.627H56.4588L56.8464 62.4022L56.7172 62.6605L55.8128 62.5313L55.5544 62.273L55.6836 62.9189L54.9084 62.5313L54.65 62.1438L55.296 61.7562V60.7226L55.0376 59.689L54.65 59.043V58.7847L53.8748 58.5263L53.6165 58.3971V58.1387Z" fill="#C9D697"/>
<path d="M61.1099 64.0811H61.3683L62.4019 67.6986L62.6603 68.8613L62.2727 69.1197L60.7223 65.1146L60.5931 64.4686L61.1099 64.0811Z" fill="#A9C35F"/>
<path d="M38.7589 95.2173H38.8881L39.1465 96.7676L39.4049 98.0596L39.9216 98.318H40.9552L41.472 98.4472H43.2808L42.8932 98.8348L41.3428 99.0932L40.9552 98.964V98.7056L40.0508 98.8348L39.5341 99.0932L39.1465 98.1888L38.6297 98.0596L38.5005 96.8968V95.3465L38.7589 95.2173Z" fill="#93AD51"/>
<path d="M92.2462 66.7944H93.2798L93.6674 67.182L93.9257 67.6988V68.6032L93.6674 69.3784L93.0214 70.1535L92.763 70.7995H92.3754L92.5046 70.2827L93.409 68.9908L93.5382 67.9572L93.1506 67.3112H92.3754L90.5666 68.0864L89.0163 69.12L88.1119 69.6368L87.8535 69.5076L89.2747 68.474L91.0834 67.3112L92.2462 66.7944Z" fill="#95B052"/>
<path d="M89.1456 148.447L89.6623 148.576L88.6288 149.351L86.82 150.256L85.7864 150.902H85.3989V151.16L84.2361 151.677L82.9441 152.323L82.1689 152.969L81.523 154.261L81.2646 154.907L81.1354 154.519L81.7814 152.969L82.4273 152.193L84.6237 151.031L87.466 149.48L88.6288 148.834L89.1456 148.705V148.447Z" fill="#95B052"/>
<path d="M45.8647 112.53L45.9939 112.789L45.8647 113.047H45.6063L45.3479 113.693L44.702 114.985L44.5728 115.373V116.277L44.702 116.794L45.0896 116.923H46.3815L48.0611 115.631L48.4487 115.243H48.7071L48.9654 114.727L49.353 114.468L49.0946 114.985L48.1903 116.019L47.0275 117.052L46.3815 117.311H45.3479L44.5728 116.923L44.1852 116.406L44.3144 114.985L44.9604 113.305L45.8647 112.53Z" fill="#95B052"/>
<path d="M90.6958 59.1719H91.8585L92.5045 59.6887L92.7629 60.3346L92.8921 61.239L93.2797 61.6266L92.6337 61.4974L92.5045 61.3682L92.3753 59.9471L91.7294 59.6887L90.5666 59.8179L89.6622 60.3346L88.887 60.9806H88.6286L88.3702 61.4974L87.4659 62.4018L86.5615 63.5646L86.3031 63.6937L86.5615 63.177L87.5951 61.885L88.7578 60.593L89.4038 59.8179L90.6958 59.1719Z" fill="#95B052"/>
<path d="M83.7193 83.9775H84.6236L85.0112 85.2695L84.882 85.7863H84.6236L83.8485 85.9155L83.7193 85.5279H83.4609V85.1403H83.2025V84.7527H82.9441L83.0733 84.1067L83.7193 83.9775Z" fill="#708541"/>
<path d="M39.7925 73.2544H41.0845L41.7304 73.5128L42.6348 73.2544H43.2808L42.764 73.5128L41.2137 74.1588L40.3093 75.0631L40.1801 74.8048L39.6633 74.6756L39.4049 74.1588L39.5341 73.642L39.7925 73.2544Z" fill="#6E8340"/>
<path d="M52.0662 77.9053L52.7121 78.0345L53.2289 78.2929V78.5513L54.1333 78.8096V79.068L54.7793 79.1972V79.4556H55.1669L55.5545 79.8432L56.3296 79.9724L56.2004 80.8768L56.0713 80.6184L55.1669 80.36V80.1016L54.3917 79.8432L52.5829 78.8096L52.1954 78.4221L52.0662 77.9053Z" fill="#CBD898"/>
<path d="M33.3326 39.4048L33.591 39.534L32.5574 40.5676L31.5238 41.4719L31.007 41.7303V41.9887H30.7487L30.4903 42.5055L28.8107 44.1851L27.9063 45.2186L27.002 46.5106H26.7436L26.4852 47.0274L25.1932 48.8361L24.9348 48.9653L25.1932 48.3193L26.356 46.769L27.2603 45.477H27.5187L27.7771 44.9602L28.2939 44.3142H28.5523L28.8107 43.7975L30.1027 42.5055L30.6195 41.8595H30.8778L31.1362 41.3427L32.1698 40.4384L33.3326 39.4048Z" fill="#95B052"/>
<path d="M51.9368 113.951L52.066 114.209L50.7741 116.922L50.3865 117.956V118.989L50.9033 119.377L51.8077 119.248L52.3244 118.86H52.5828L52.8412 118.343L53.7456 117.439L53.8748 117.697L53.6164 118.602L52.712 118.989L51.8077 119.635H50.5157L49.9989 118.731L50.2573 116.922L51.1617 115.113L51.9368 113.951Z" fill="#95B052"/>
<path d="M74.4171 119.765L74.6755 120.153L75.4507 122.22L76.3551 123.899L77.1302 124.804L77.3886 124.933H78.293L78.6806 124.416V122.607L78.4222 121.574L78.5514 121.057L79.0682 122.866V124.416L78.8098 125.062L77.9054 125.45L77.001 125.191L76.3551 124.675L75.8383 123.641V123.383H75.5799L74.8047 121.445L74.4171 120.282V119.765Z" fill="#95B052"/>
<path d="M80.8771 100.773L82.0398 101.548V101.807L82.6858 102.065L82.9442 102.194V102.453L83.461 102.582V102.84L83.9778 102.969V103.228L84.4946 103.357L84.6238 103.744L84.8822 104.003L84.4946 104.132L83.5902 103.615L82.6858 102.969L82.169 102.453L80.8771 101.419V100.773Z" fill="#C3D38B"/>
<path d="M49.4822 56.4585H50.7742L51.6785 57.2337L52.4537 58.138L52.8413 58.3964H52.1953L51.0326 57.2337L50.5158 56.9753H49.7406L49.4822 57.1045V58.784L50.1282 60.4636L50.9034 61.7555L50.7742 62.0139L49.999 60.8512L49.2238 59.1716L49.0946 58.3964V57.1045L49.4822 56.4585Z" fill="#94AF51"/>
<path d="M53.3581 50.9033H54.2625L54.9085 51.4201L55.8128 52.5829L56.8464 54.7792L56.7172 55.1668L55.6836 53.0997L54.9085 52.0661L54.3917 51.5493V51.2909H53.4873L53.2289 51.9369V54.004L53.7457 55.6836L54.1333 56.4588L54.0041 56.8464L53.0997 54.7792L52.8413 53.4872V52.4537L52.9705 51.4201L53.3581 50.9033Z" fill="#95B052"/>
<path d="M52.3246 83.4604L52.8414 83.5896L54.0042 84.2356L53.7458 84.7524L53.229 85.3984L52.8414 85.786L52.3246 85.6568L52.1954 83.5896L52.3246 83.4604Z" fill="#708541"/>
<path d="M85.9156 55.9419H86.9492L87.466 56.2003L87.9828 57.3631L87.8536 58.3966L86.6908 60.2054L86.5616 59.947L87.3368 58.5258V56.9755L87.0784 56.5879H86.0448L85.3988 56.9755L84.6237 57.6214L84.8821 56.9755L85.528 56.3295L85.9156 55.9419Z" fill="#95B052"/>
<path d="M74.4171 108.008L74.9339 108.267L75.4507 109.559L75.7091 110.463H75.9675L76.2259 111.109L76.0967 111.884L75.8383 111.497V111.238H75.5799L76.0967 112.53L76.2259 113.176L75.9675 113.305L75.7091 113.176L75.3215 111.367L74.8047 109.171L74.4171 108.008Z" fill="#BFD085"/>
<path d="M78.5514 66.7944H78.8098L78.5514 67.5696L77.3887 69.766V70.2827L76.8719 70.0243L76.7427 69.8951H76.3551L77.2595 67.9572L77.5179 67.6988V67.9572H77.7763V67.6988H78.0347V67.3112H78.293L78.5514 66.7944Z" fill="#A7C15B"/>
<path d="M81.6522 52.1953H82.5566L83.0734 52.7121L83.3317 54.3917L82.815 56.0712L82.169 57.7508L82.0398 57.3632L82.815 54.9084V53.8749L82.5566 52.8413L82.4274 52.7121L81.523 52.8413L80.6186 53.3581L80.3602 53.2289L81.1354 52.3245L81.6522 52.1953Z" fill="#95B052"/>
<path d="M96.1222 71.187H97.285L98.1894 71.5746L98.5769 71.9622V73.125L97.1558 74.0293V73.6417L97.8018 72.9958H98.0602L98.1894 71.833H94.701L95.2178 71.4454L96.1222 71.187Z" fill="#95B052"/>
<path d="M41.472 63.3062H42.118L41.7304 63.5645L40.18 64.0813L38.8881 64.7273L37.5961 65.8901L36.6917 67.0528L36.5625 67.4404V68.3448L36.9501 68.6032L37.7253 68.7324L37.4669 68.9908L36.8209 68.8616L36.1749 68.2156L36.3041 67.3112L36.6917 66.5361L38.1129 64.9857L38.3713 64.4689L39.534 63.8229L40.18 63.5645L41.472 63.3062Z" fill="#6E8340"/>
<path d="M55.8128 96.897L56.0712 97.0262L55.296 97.9305L53.6164 98.9641H53.3581V99.2225H52.9705L52.8413 99.6101L51.9369 99.8685L52.4537 99.3517L52.7121 99.2225L52.3245 99.0933L52.4537 98.7057L53.3581 98.3181L55.4252 97.1554L55.8128 96.897Z" fill="#C7D590"/>
<path d="M39.2758 72.8667H40.9554L42.6349 73.2543L42.2473 73.5127L41.4722 73.6419L41.0846 73.3835H39.7926L39.5342 73.9003L39.6634 74.6754L40.1802 74.8046L40.051 75.1922V74.9338L39.1466 74.6754L38.759 73.9003L39.2758 72.8667Z" fill="#94AF51"/>
<path d="M78.939 53.4873L79.585 53.6165V53.8749L79.3266 54.0041L78.939 54.6501L78.4222 55.5544L78.1638 57.234H77.9054L77.647 56.3296L77.5178 55.6836L77.7762 55.0377H78.0346L78.293 54.3917L78.8098 53.6165L78.939 53.4873Z" fill="#C9D695"/>
<path d="M62.4019 107.75H62.5311V108.395L62.9187 108.266L62.5311 109.687L62.2728 110.463L62.0144 112.013H61.11V111.367H61.3684L61.756 110.075L62.2728 108.525L62.4019 107.75Z" fill="#C5D48F"/>
<path d="M82.169 93.1509L82.9442 93.4093V93.6677L83.8485 93.7969L84.6237 93.9261V94.1845H84.8821L85.0113 94.4428H85.9157L86.9493 94.9596V95.218L86.1741 95.0888L84.4945 94.7012V94.4428L83.7193 94.3136L82.0398 93.7969V93.4093L82.169 93.1509Z" fill="#BFCF84"/>
<path d="M59.5595 50.2568L60.3346 50.386L60.9806 51.032L61.6266 52.0656L62.2726 52.97L62.4018 53.7451L61.885 53.0992L60.7222 51.1612V50.9028L59.3011 50.6444L59.0427 51.2904L58.9135 51.678L58.7843 53.3575L58.9135 54.7787L58.6551 54.5203L58.5259 53.8743V51.8072L58.9135 50.6444L59.5595 50.2568Z" fill="#95B052"/>
<path d="M55.2961 102.194H55.5545L55.4253 102.711L54.7794 103.486L53.875 104.261L53.4874 104.778H53.229L53.0998 105.165L52.583 105.036H52.1954L52.9706 104.132L54.9086 102.581L55.2961 102.194Z" fill="#C4D38C"/>
<path d="M97.2849 94.5713L98.1892 94.7005L98.9644 95.2173L99.2228 95.8633V96.5092L98.4476 97.026L97.5433 97.1552H95.7345L93.6674 96.6384V96.5092L95.0885 96.6384L95.4761 96.7676H97.1557L98.8352 96.5092L98.706 95.7341L98.3184 95.0881L97.2849 94.7005V94.5713Z" fill="#95B052"/>
<path d="M75.7091 63.1768H75.8383V64.0811L75.3215 65.7607L75.1923 67.0526L74.6755 68.7322V69.249L74.1587 68.9906L74.0295 68.7322H74.2879L74.4171 67.4402L75.1923 64.8563L75.7091 63.1768Z" fill="#CBD798"/>
<path d="M77.0011 106.329L77.5178 106.975L78.6806 108.913L78.5514 109.171L78.0346 109.3V109.042L77.647 108.913L76.7427 106.845V106.587H76.0967V106.458H76.8719L77.0011 106.329Z" fill="#BBCD7F"/>
<path d="M59.6886 118.085L60.0762 118.215L60.3346 118.731L60.0762 120.023L59.5595 121.961L59.1719 122.737L58.5259 122.866L58.6551 122.478L59.1719 122.091L59.4303 121.315L59.5595 120.411V118.99L59.0427 118.602V118.344L59.6886 118.085Z" fill="#C7D494"/>
<path d="M51.8077 80.877L52.7121 81.0061L55.4252 82.1689L55.5544 82.4273H54.5209L51.9369 81.5229L51.8077 80.877Z" fill="#DCE5B2"/>
<path d="M41.3429 88.3706H42.5057L43.2808 89.0166L43.1516 89.5334L42.7641 88.8874H41.4721L41.0845 89.4042L41.2137 90.5669L41.8597 90.9545H42.6349L42.3765 91.2129H41.4721L40.9553 90.6961L40.5677 90.0502V89.7918H40.3093V89.1458L41.2137 88.7582L41.3429 88.3706Z" fill="#768C44"/>
<path d="M84.6237 78.6807L84.7529 79.1974L84.6237 79.4558L82.9442 79.9726H82.5566V80.231L81.1354 80.3602L80.3602 80.4894L80.4894 80.231L81.9106 79.8434L84.1069 78.8099L84.6237 78.6807Z" fill="#C6D48F"/>
<path d="M37.467 80.4893H37.5961V85.1403L37.7253 87.0783H36.821L36.6918 86.9491V86.1739L37.3378 86.0447V81.006L37.467 80.4893Z" fill="#6E8340"/>
<path d="M65.3733 46.6396L66.1485 46.7688L66.7945 47.9316L66.6653 48.3192L66.0193 47.1564L65.8901 47.0272H65.2441L64.8565 47.1564L64.5981 47.8024L64.3397 48.9652V53.3579H64.2105L63.9521 50.7739V49.6112L64.2105 47.9316L64.5981 47.1564L64.8565 46.7688L65.3733 46.6396Z" fill="#95B052"/>
<path d="M80.3602 112.4L80.6186 112.659L80.877 113.951L81.2646 114.726V114.984H81.523V115.372L82.1689 115.63L82.5565 116.018V116.147H81.7814V115.889L81.2646 115.63L80.1018 113.563L80.3602 112.4Z" fill="#CCD899"/>
<path d="M36.821 85.5278H37.3378V86.0446L36.6918 86.1738L36.821 86.949H37.5962L37.3378 87.4658L36.6918 87.595L36.0458 87.2074L35.9166 86.5614L36.175 85.9154L36.821 85.5278Z" fill="#95B052"/>
<path d="M40.9553 94.0552L41.6012 94.4428L41.9888 94.9596L41.6012 95.3471L40.9553 95.6055L40.5677 95.7347L39.6633 95.6055L39.4049 96.1223V95.0887L39.5341 94.3136L39.7925 94.4428V94.7012H40.0509V95.0887L40.9553 95.2179V94.9596L41.472 94.7012L40.9553 94.3136V94.0552Z" fill="#95B052"/>
<path d="M54.521 94.4424L55.0378 94.5716L54.6502 94.83H54.1334V95.0884L52.1955 95.7343H51.9371V95.9927L50.5159 96.3803L50.3867 95.9927H50.6451V95.7343H51.2911V95.476L53.6166 94.83L54.521 94.4424Z" fill="#BFD086"/>
<path d="M98.06 88.8867H98.1892L98.3184 89.7911L98.8352 90.0495L99.2228 90.9539L99.0936 91.729L98.4476 92.2458L97.9308 92.375H96.1221L96.2513 92.1166L97.8016 91.9874L98.706 91.4706V90.5663L98.06 89.9203V88.8867Z" fill="#94AF51"/>
<path d="M73.5127 124.158H73.6419L73.7711 125.32V127.646L73.3835 128.55L72.9959 128.68V128.938L72.6084 129.067H71.5748L70.9288 128.421L70.6704 127.775L71.3164 128.421L71.9624 128.809L72.6084 128.68L73.2543 128.034L73.3835 127.775L73.5127 124.158Z" fill="#94AF51"/>
<path d="M85.0112 85.9155H85.1404L85.7863 88.1119L85.6572 88.4995H84.882L84.6236 87.4659L84.4944 86.6907L85.0112 86.5615V85.9155Z" fill="#6F8440"/>
<path d="M80.1017 62.0142L81.0061 62.1434L81.1353 62.4017L80.4893 62.6601L79.7141 63.5645L79.1973 64.4689L79.0681 65.6317H78.8097L78.6805 65.1149L79.0681 63.8229L79.9725 62.1434L80.1017 62.0142Z" fill="#CDDA9B"/>
<path d="M51.8078 89.0161H51.937L52.4538 90.6957L52.7122 91.4708H51.291L51.6786 89.9205L51.8078 89.0161Z" fill="#748A42"/>
<path d="M71.3164 46.252L71.8331 46.3811L72.2207 47.0271L72.3499 47.8023L72.0915 47.4147L71.704 46.7687L70.9288 46.8979L70.1536 48.1899L69.6368 49.7403L69.5076 50.6446H69.3784V49.4819L69.8952 47.8023H70.1536L70.412 46.7687L71.3164 46.252Z" fill="#95B052"/>
<path d="M42.5057 88.7578L43.0225 89.0162L43.2809 89.7914L43.0225 90.6958L42.8933 90.9542L41.8597 91.0833L41.0845 90.5666L40.9553 89.4038L41.2137 89.1454V90.0498L42.3765 90.5666L42.8933 90.4374L43.0225 89.2746H42.7641V89.0162L42.3765 88.887L42.5057 88.7578Z" fill="#D9E3AF"/>
<path d="M59.4304 107.491H59.818L59.9472 108.266L59.818 108.654H59.4304L59.3012 108.912H59.0428L58.9137 109.688H58.5261L58.1385 110.334L58.0093 110.075L58.5261 109.042L59.4304 107.491Z" fill="#C3D38A"/>
<path d="M55.0376 69.6367L56.0712 70.4119L56.2004 69.8951L57.2339 71.4455L56.9755 72.0915L56.3296 71.4455L55.296 70.1535L55.0376 69.6367Z" fill="#A8C25E"/>
<path d="M72.996 120.798L73.5128 121.444L74.1587 122.478V123.641L73.7712 124.157L73.2544 121.961L72.996 121.315V120.798Z" fill="#CCD89A"/>
<path d="M90.5667 64.4692H92.3754V64.5984L91.2127 64.7276L90.6959 65.1152H90.4375L90.1791 65.632L89.0163 66.6656L88.1119 67.3116L88.3703 66.7948L90.4375 64.7276L90.5667 64.4692Z" fill="#95B052"/>
<path d="M37.5961 87.4658L37.8545 87.595L37.9837 89.4038L37.3377 89.2746L37.0793 89.1454V87.9826L37.4669 87.8534L37.5961 87.4658Z" fill="#CBD898"/>
<path d="M49.7406 76.355L50.2574 76.6134L50.645 76.8718V77.1302L51.291 77.3886L51.8077 78.0345V78.2929L50.645 78.0345L49.7406 76.6134V76.355Z" fill="#CFDB9D"/>
<path d="M81.0061 96.3804L82.8149 97.2847L83.4609 97.4139V97.9307L82.6857 97.6723L81.1353 96.8972H80.4893L80.3602 98.0599H80.231V96.6388L80.4893 96.5096L81.0061 96.6388V96.3804Z" fill="#C2D288"/>
<path d="M84.3653 70.6704L85.0113 70.9288L84.7529 71.058L84.8821 71.4456L84.1069 71.9624L83.0734 72.2208L83.3318 71.704L84.3653 70.6704Z" fill="#C6D58F"/>
<path d="M41.3429 34.8833L41.7304 35.0125L41.0845 35.6585L40.6969 35.9169L40.0509 36.1753L39.4049 36.3045L39.5341 35.7877L40.6969 35.0125L41.3429 34.8833Z" fill="#CDD99B"/>
<path d="M86.5616 91.4707L87.466 91.5999L88.112 91.8583L88.758 92.3751L89.1456 92.5043V92.7627L88.3704 92.6335L87.8536 92.3751V92.1167H87.0784L86.5616 91.7291V91.4707Z" fill="#C0D086"/>
<path d="M95.4762 62.9185L95.993 63.0477L96.7682 63.5644L97.2849 64.2104L97.6725 65.3732L97.4141 66.0192L97.0266 66.1484V66.4068H96.2514L96.639 66.1484L97.2849 65.7608V64.8564L96.7682 64.0812L95.4762 63.0477V62.9185Z" fill="#7A9145"/>
<path d="M41.4721 63.3062H42.1181L41.7305 63.5645L40.1801 64.0813L38.759 64.5981L38.2422 64.8565L38.3714 64.4689L39.5342 63.8229L40.1801 63.5645L41.4721 63.3062Z" fill="#829A49"/>
<path d="M55.4253 62.1436L56.0712 62.4019L56.588 62.5311L56.8464 63.1771L56.2004 63.3063H55.942L55.6837 63.5647L55.1669 62.6603H55.5545L55.4253 62.1436Z" fill="#ACC660"/>
<path d="M52.3246 83.4604L52.8414 83.5896L54.0042 84.2356L53.7458 84.7524L53.6166 84.494L52.4538 84.2356L52.1954 84.1064L52.3246 83.4604Z" fill="#A1BB58"/>
<path d="M41.472 66.2778L41.8596 66.407L41.3428 66.5362V66.7946L40.5677 66.9238V67.1822L39.7925 67.5698H39.5341V67.8282L38.3713 68.6034L37.7253 68.7326L38.1129 68.345L40.0509 67.053L41.472 66.2778Z" fill="#7B9246"/>
<path d="M90.9542 33.7202L91.7294 33.9786L93.6673 35.2706L94.9593 36.1749L95.2177 36.5625L94.5717 36.3041L93.1506 35.2706L91.3418 34.1078L90.9542 33.7202Z" fill="#95B052"/>
<path d="M56.0713 113.822H56.2005L56.0713 115.631L55.8129 116.277L55.4253 116.406L54.9085 117.181L54.7793 116.922L55.8129 114.855L56.0713 113.822Z" fill="#C7D592"/>
<path d="M53.6165 58.1387H54.5208L55.0376 58.9139V59.1722H55.296L55.5544 60.2058L55.296 60.7226L55.0376 59.689L54.65 59.043V58.7847L53.8748 58.5263L53.6165 58.3971V58.1387Z" fill="#C0CF8B"/>
<path d="M41.3428 88.3706H42.5056L43.2808 89.0166L43.1516 89.5334L42.764 88.8874H41.472L41.0844 89.4042L40.9552 90.0502H40.826V89.275L41.3428 88.3706Z" fill="#A3B769"/>
<path d="M67.8282 53.0996H67.9574L68.0866 55.9419L68.345 57.3631V58.2675L67.9574 57.7507L67.699 54.7792L67.8282 53.0996Z" fill="#95B052"/>
<path d="M74.9339 67.0527L75.0631 67.4403L74.6755 68.7323V69.2491L74.1587 68.9907L74.0295 68.7323H74.2879L74.4171 67.4403H74.6755L74.9339 67.0527Z" fill="#A6C05D"/>
<path d="M80.4894 69.3784H81.1354L80.3602 70.5412L79.4558 71.058L79.7142 70.412H79.9726L80.231 69.766L80.4894 69.3784Z" fill="#C0D186"/>
<path d="M33.8494 88.2407H34.3662V88.4991H34.7538L34.6246 88.8867H34.3662L34.237 89.2743H33.7202V89.0159L33.4618 88.8867L33.8494 88.2407Z" fill="#CDD99B"/>
<path d="M59.6888 68.9907L60.0764 69.5075L60.3348 70.1535L59.3012 70.4119L59.5596 70.2827L59.172 69.5075L59.3012 69.2491L59.6888 68.9907Z" fill="#A6C05B"/>
<path d="M37.2086 98.4473L37.467 98.5765V99.9976L37.2086 100.256L36.821 99.9976V99.4808L37.0794 98.5765L37.2086 98.4473Z" fill="#95B052"/>
<path d="M85.2696 94.4424L86.3032 94.5716L86.9492 94.9592V95.2176L86.174 95.0884L85.0112 94.7008L85.2696 94.4424Z" fill="#CBD898"/>
<path d="M75.1923 110.463L75.4507 110.721L75.9674 112.272L76.2258 112.918L76.0966 113.305L75.709 113.176L75.3215 111.367L75.1923 110.463Z" fill="#A5BF5A"/>
<path d="M84.753 85.3989L85.0114 85.7865V86.5617L84.2362 86.6909L83.9778 85.9157L84.6238 85.6573L84.753 85.3989Z" fill="#A9C260"/>
<path d="M84.1068 83.3315L84.6236 83.4607V83.9775L83.0733 84.2359L82.8149 84.4943L82.6857 84.1067L83.59 83.9775L83.7192 83.5899L84.1068 83.3315Z" fill="#B7CB77"/>
<path d="M58.6552 56.9756H58.7844L59.0428 58.0092L59.172 58.6551L58.9136 58.5259V58.2675L58.3968 58.0092L58.2676 57.3632L58.6552 56.9756Z" fill="#CAD796"/>
<path d="M37.9838 64.8564L38.2421 64.9856L37.2086 66.0192L36.5626 66.9236L36.3042 66.6652L37.0794 65.6316H37.3378L37.5962 65.1148L37.9838 64.8564Z" fill="#95B052"/>
<path d="M39.0173 70.2827H39.7924L40.18 70.7995V71.0579L39.4048 70.9287L38.8881 70.4119L39.0173 70.2827Z" fill="#CDD99B"/>
<path d="M59.1718 123.383H59.301L59.5594 125.192L59.6886 125.708L59.301 125.321L59.1718 124.546H58.9135L59.1718 123.383Z" fill="#95B052"/>
<path d="M95.2178 36.5625L95.8638 36.8209L97.4141 38.2421H97.0265L95.7346 37.0793L95.2178 36.5625Z" fill="#95B052"/>
<path d="M62.2727 131.91H62.4019V133.072L61.8851 133.589L62.0143 132.297L62.2727 131.91Z" fill="#CDD99B"/>
<path d="M84.6237 94.0552L85.528 94.1844L86.9492 94.572V94.7012L85.0112 94.572L84.8821 94.1844L84.6237 94.0552Z" fill="#A3BD59"/>
<path d="M84.8821 91.2124H85.7865L86.6908 91.6V91.7292L85.3989 91.6L84.8821 91.2124Z" fill="#DDE5B3"/>
<path d="M52.9706 83.8486L53.875 84.107V84.6238L53.6166 84.753V84.4946L52.9706 84.3654V83.8486Z" fill="#98B354"/>
<path d="M55.8129 79.9727H56.3296L56.2004 80.877L56.0712 80.6186L55.1669 80.3602L55.6837 80.1019L55.8129 79.9727Z" fill="#A5BF5B"/>
<path d="M84.6235 78.6807L84.7527 79.1974L84.6235 79.3266H83.59V79.0683L84.6235 78.6807Z" fill="#E3EABD"/>
<path d="M51.0327 105.295H51.8079L51.2911 105.812L50.3867 105.941L51.0327 105.295Z" fill="#95B052"/>
<path d="M49.2239 75.709L49.7407 75.9674L50.9034 76.7426L50.3866 76.8718L49.9991 76.4842H49.6115L49.2239 75.709Z" fill="#ABC367"/>
<path d="M59.172 58.9136L59.5596 59.0428L60.0764 59.6888L60.2056 60.5931L59.6888 59.9471L59.172 58.9136Z" fill="#CAD796"/>
<path d="M57.1049 65.7607L57.6216 65.8899L58.0092 67.0527L58.1384 67.5695L57.6216 66.9235L57.1049 66.0191V65.7607Z" fill="#A5BF5A"/>
<path d="M56.5881 64.3398L57.1048 64.9858L57.234 65.5026L56.9756 65.761L56.4589 64.8566L56.5881 64.3398Z" fill="#ABC460"/>
<path d="M80.8771 100.773L81.7815 101.419L81.5231 101.807L81.0063 101.548L80.8771 101.419V100.773Z" fill="#AAC364"/>
<path d="M79.1973 63.9521L79.3265 64.2105L79.1973 64.4689L79.0681 65.6317H78.8097L78.6805 65.1149L78.9389 64.0813L79.1973 63.9521Z" fill="#DDE6B2"/>
</svg>
