<svg width="1149" height="1149" viewBox="0 0 1149 1149" fill="none" xmlns="http://www.w3.org/2000/svg">
<path d="M771.699 934.033C619.097 996.631 479.578 1005.76 460.068 954.42C440.558 903.083 548.445 810.715 701.042 748.118C853.64 685.52 993.162 676.389 1012.67 727.73C1032.18 779.072 924.291 871.435 771.699 934.033Z" fill="#3A3A3A"/>
<path d="M940.971 574.06C940.971 801.96 760.373 986.792 537.437 986.792C513.933 986.792 490.865 984.751 468.528 980.66C462.978 979.783 457.578 978.76 452.174 977.596C451.737 977.45 451.591 977.45 451.297 977.45C451.155 977.301 451.01 977.301 450.86 977.301C393.632 964.455 340.926 939.197 295.667 904.451C246.614 866.783 206.173 818.019 177.995 761.814C149.963 705.459 134.05 641.659 134.05 574.06C134.05 535.081 139.306 497.41 149.088 461.642C181.791 343.388 264.717 246.591 372.899 197.098C380.783 193.45 388.814 190.093 396.987 187.173C414.801 180.308 433.05 174.763 452.028 170.673C479.624 164.541 508.238 161.33 537.437 161.33C662.412 161.33 774.091 219.439 848.118 310.541C848.118 310.541 848.118 310.541 848.118 310.686C893.23 366.165 924.326 434.193 936.009 508.802C939.214 529.967 940.971 551.869 940.971 574.06Z" fill="#C3C3C3"/>
<path d="M731.17 593.775C731.17 771.156 621.964 922.265 468.526 980.661C462.977 979.783 457.576 978.761 452.172 977.596C451.736 977.451 451.59 977.451 451.299 977.451C451.154 977.302 451.008 977.302 450.859 977.302C393.631 964.456 340.925 939.197 295.666 904.452C246.613 866.784 206.172 818.024 177.994 761.815C149.963 705.457 134.05 641.66 134.05 574.061C134.05 535.084 139.305 497.414 149.088 461.649C181.79 343.392 264.717 246.596 372.898 197.106C380.782 193.454 388.813 190.096 396.986 187.175C493.491 204.258 578.313 256.379 638.315 330.399C660.945 358.138 679.928 389.088 694.815 422.374C709.709 455.66 720.366 491.283 726.201 528.517C729.417 549.83 731.17 571.584 731.17 593.775Z" fill="#E2E3E1"/>
<path d="M463.122 204.983C409.981 211.12 377.132 222.65 377.132 222.65L372.898 197.106C380.782 193.453 388.813 190.096 396.986 187.175C419.763 191.264 441.808 197.248 463.122 204.983Z" fill="#E2E3E1"/>
<path d="M470.133 979.929C469.547 980.224 469.11 980.515 468.528 980.66C464.878 980.074 461.373 979.492 457.869 978.615C460.933 979.052 465.023 979.492 470.133 979.929Z" fill="#A7D93E"/>
<path d="M424.471 334.2L575.748 608.768L289.847 491.488C235.929 580.15 212.249 664.938 212.969 746.571C175.905 651.894 164.324 556.718 178.248 461.026L149.16 461.658C181.831 343.366 264.747 246.616 372.83 197.159L377.111 222.689C377.111 222.689 507.727 176.906 667.859 218.342C667.859 218.342 532.534 233.931 424.471 334.2Z" fill="#345995"/>
<path d="M667.813 218.266C667.813 218.266 617.154 224.108 553.206 251.557C525.465 232.285 495.243 216.661 463.124 204.983C515.684 198.703 588.095 197.682 667.813 218.266Z" fill="#1E3459"/>
<path d="M935.942 508.773C935.242 591.666 913.499 691.3 841.101 789.424C674.575 1015.23 469.917 981.009 452.12 977.538C451.801 977.474 451.533 977.428 451.331 977.382C451.127 977.336 450.994 977.317 450.924 977.293H450.902C393.674 964.494 340.993 939.258 295.705 904.516C329.255 924.141 532.151 1010.75 750.551 763.829C967.281 518.796 850.026 313.963 848.086 310.628C893.239 366.238 924.359 434.167 935.942 508.773Z" fill="#345995"/>
<path d="M936.009 508.797C935.273 591.727 913.523 691.295 841.105 789.405C697.888 983.578 526.633 985.478 470.133 979.928C528.969 957.301 581.233 921.092 623.136 874.814C664.161 848.973 707.084 813.059 750.589 763.855C960.239 526.759 857.311 327.33 848.704 311.559C893.523 366.894 924.327 434.635 936.009 508.797Z" fill="#1E3459"/>
<path d="M799.436 336.31C791.871 336.31 776.528 314.705 753.308 296.212C729.74 276.251 703.529 265.9 702.935 258.033C702.507 255.032 707.146 252.932 714.843 252.932C727.437 252.932 748.217 258.567 768.332 275.125C800.788 301.682 807.649 335.178 800.271 336.217C800.002 336.283 799.727 336.31 799.436 336.31Z" fill="#E2E3E1"/>
<path d="M816.449 383.349C815.834 383.349 815.203 383.277 814.568 383.135C806.711 381.32 800.639 371.495 798.727 361.573C796.977 351.575 799.739 342.406 806.848 340.606C807.413 340.474 807.997 340.413 808.597 340.413C815.575 340.413 824.301 349.048 826.61 361.588C828.914 374.103 823.457 383.349 816.449 383.349Z" fill="#E2E3E1"/>
<path d="M537.5 163C759.199 163 939 346.967 939 574C939 801.033 759.199 985 537.5 985C315.801 985 136 801.033 136 574C136 346.967 315.801 163 537.5 163Z" stroke="#3A3A3A" stroke-width="4"/>
</svg>
