<svg width="46" height="46" viewBox="0 0 46 46" fill="none" xmlns="http://www.w3.org/2000/svg">
<g clip-path="url(#clip0_670_15878)">
<path d="M35.668 8.625H36.1846L36.4541 8.69238L36.7461 8.84961L37.0156 9.09668L37.1953 9.32129L37.3076 9.56836L37.375 9.83789V10.3096L37.2852 10.624L37.1279 10.8936L36.8584 11.208L33.377 14.6895L33.2871 14.7568L33.332 14.8916H33.377L33.5342 15.0713L33.6465 15.1611V15.2061H33.6914V15.251H33.7363L33.8936 15.4307L35.1738 16.7109L35.4209 17.0254L35.6006 17.3174L35.7578 17.6318L35.8926 18.0811L35.9375 18.3955V18.957L35.8926 19.2715L35.7578 19.7432L35.4883 20.2598L35.1963 20.6191L35.0391 20.7988L33.6465 22.1914L33.3545 22.416V22.5732L33.6465 23.4043L33.8486 24.0332L34.1855 25.4258L34.3428 26.4365L34.4326 27.1553L34.5 28.3232V29.5137L34.4551 30.21L34.3652 30.9512L34.1855 32.0967L34.0508 32.7031L33.7588 33.8037L33.5117 34.5225L33.1748 35.4209L32.748 36.3193L32.4785 36.8809L32.2314 37.3076L31.8496 37.9365L31.6475 38.2734L31.3779 38.6553L31.1533 38.9473L30.8389 39.374L30.5244 39.7783L30.4346 39.8906H30.3896L30.3447 39.9805L29.9854 40.3623L29.5811 40.8115L29.1992 41.1934L29.0195 41.3506L28.7275 41.6201L28.6602 41.6426V41.6875L28.4805 41.8447L28.2559 42.0469L27.8965 42.3164L27.4697 42.6309L27.0879 42.9229L26.6836 43.1924L26.2344 43.4619L25.8301 43.709L25.3584 43.9785L24.8643 44.2256L24.3477 44.4727L23.8984 44.6748L22.8652 45.0566L22.1914 45.2812L20.9785 45.5957L20.2822 45.7305L18.957 45.9326L18.4404 46H16.0596L14.959 45.8428L13.791 45.6631L12.5332 45.3486L11.9268 45.1689L10.7588 44.7422L10.377 44.585L10.0176 44.4053L9.36621 44.0908L9.00684 43.9111L8.35547 43.5293L7.99609 43.3047L7.56934 43.0352L7.14258 42.7207L6.6709 42.3613L6.31152 42.0918L6.08691 41.8896L5.90723 41.7324L5.54785 41.3955L5.36816 41.2383L5.09863 40.9912L4.80664 40.6992L4.64941 40.5195L4.44727 40.2949L4.17773 40.0029L3.95312 39.7559L3.68359 39.3965L3.3916 39.0146L3.12207 38.6553L2.85254 38.2734L2.49316 37.667L2.26855 37.3076L2.02148 36.8809L1.52734 35.8701L1.3252 35.4209L1.07812 34.7695L0.741211 33.8262L0.359375 32.3438L0.224609 31.5576L0.0673828 30.502L0.0224609 30.1201L0 30.0078V27.4473L0.0449219 27.2002L0.157227 26.3467L0.336914 25.2461L0.696289 23.8311L0.943359 23.0898L1.30273 22.124L1.5498 21.585L2.08887 20.4844L2.4707 19.8555L2.74023 19.4062L2.9873 19.0244L3.34668 18.5527L3.52637 18.3057L3.72852 18.0361L3.95312 17.7441L3.99805 17.6768H4.04297L4.08789 17.5869L4.4248 17.2275L4.58203 17.0479L4.85156 16.7559L4.89648 16.6885H4.94141L4.98633 16.5986L5.16602 16.4189L5.3457 16.2617L5.70508 15.9248L5.88477 15.7676L6.1543 15.5205L6.46875 15.2734L6.76074 15.0488L7.61426 14.4199L8.08594 14.1279L8.71484 13.7461L9.1416 13.499L10.4443 12.8701L11.0283 12.6455L12.0166 12.2861L12.5781 12.1289L13.7461 11.8369L14.5322 11.7021L15.498 11.5674L16.3516 11.5L17.0029 11.4775H17.3174L18.2832 11.5225L19.1143 11.5898L20.1025 11.7246L20.709 11.8369L21.6523 12.0615L22.2812 12.2412L23.1123 12.5332L23.4492 12.6455H23.5615L23.8535 12.2861H23.8984L23.9434 12.1963L24.0332 12.1064H24.0781L24.123 12.0166L25.2012 10.9385H25.2461V10.8936L25.4932 10.6914L25.8076 10.4668L26.2344 10.2422L26.6836 10.1074L26.9756 10.0625H27.6494L27.9414 10.1074L28.4131 10.2646L28.7725 10.4443L29.0645 10.6465L29.3564 10.8936L29.5137 11.0508L29.5586 11.0732V11.1182H29.6035V11.1631H29.6484V11.208H29.6934V11.2529H29.7383V11.2979H29.7832V11.3428H29.8281V11.3877H29.873V11.4326H29.918L30.0527 11.5898L30.1875 11.7021L30.3223 11.8594L30.457 11.9717L30.5918 12.1289L30.7266 12.2412L30.8838 12.4209L31.1982 12.7129L31.3555 12.5781L34.9492 8.98438L35.1963 8.80469L35.4883 8.66992L35.668 8.625ZM17.1377 17.25L16.0146 17.3174L15.2285 17.4297L14.5771 17.5645L13.9033 17.7441L13.252 17.9688L12.6904 18.1934L12.1289 18.4629L11.6797 18.6875L11.1631 19.002L10.7812 19.249L10.3545 19.5635L9.9502 19.8779L9.68066 20.125L9.50098 20.2822L9.16406 20.5967L8.89453 20.8662L8.7373 21.0459L8.46777 21.3379L8.2207 21.6523L8.01855 21.9219L7.7041 22.3486L7.34473 22.9326L7.0752 23.4043L6.73828 24.1006L6.49121 24.707L6.22168 25.5156L5.99707 26.4141L5.8623 27.2227L5.81738 27.5596L5.77246 28.3008V28.9521L5.83984 29.2441L5.97461 29.5137L6.17676 29.7607L6.40137 29.9404L6.71582 30.0977L6.98535 30.165H7.36719L7.65918 30.0977L7.97363 29.9404L8.2207 29.7383L8.40039 29.5137L8.53516 29.2217L8.60254 28.9297L8.66992 27.8516L8.80469 26.998L8.98438 26.2793L9.20898 25.6279L9.41113 25.1562L9.72559 24.5273L10.085 23.9434L10.3994 23.5166L10.624 23.2246L11.1631 22.6406L11.3428 22.4609L11.5225 22.3037L11.7695 22.0791L12.0391 21.877L12.4434 21.585L12.915 21.293L13.2744 21.0908L13.8809 20.7988L14.5547 20.5518L15.0938 20.3945L15.7227 20.2598L16.3291 20.1699L17.3623 20.1025L17.7217 20.0352L18.0361 19.8779L18.2607 19.6982L18.4629 19.4512L18.5977 19.1592L18.665 18.8896V18.4854L18.5977 18.2158L18.418 17.8564L18.2158 17.6318L17.9912 17.4521L17.7441 17.3398L17.4971 17.2725L17.1377 17.25Z" fill="#20679E"/>
<path d="M42.9004 1.45996H43.3945L43.6416 1.52734L43.9561 1.68457L44.2256 1.93164L44.3828 2.13379L44.5176 2.40332L44.585 2.65039L44.6074 2.96484L44.54 3.34668L44.3604 3.70605L44.1582 3.95312L41.2832 6.82812L41.0361 7.00781L40.7666 7.14258L40.4746 7.20996H40.0254L39.666 7.09766L39.4414 6.96289L39.2168 6.76074L39.0371 6.53613L38.9023 6.2666L38.8125 5.88477V5.68262L38.8799 5.3457L38.9922 5.07617L39.2617 4.7168L42.1143 1.86426L42.3838 1.66211L42.6533 1.52734L42.9004 1.45996Z" fill="#20679E"/>
<path d="M41.8896 8.64746H44.0459L44.7646 8.66992L45.0342 8.7373L45.3936 8.91699L45.6855 9.18652L45.8428 9.43359L45.9551 9.68066V9.72559H46V10.4668L45.9102 10.6689L45.7529 10.9385L45.5732 11.1631L45.3711 11.3203L45.0566 11.4775L44.7871 11.5449L44.6299 11.5674H41.5977L41.2383 11.5L40.8789 11.3203L40.6094 11.0957L40.4072 10.8037L40.2949 10.5566L40.25 10.377L40.2275 10.0625L40.2725 9.77051L40.3623 9.50098L40.5195 9.23145L40.6543 9.07422L40.9463 8.84961L41.1934 8.7373L41.4629 8.66992L41.8896 8.64746Z" fill="#20679E"/>
<path d="M35.5781 0H36.3193L36.3643 0.0449219L36.6338 0.157227L36.8809 0.336914L37.1055 0.561523L37.2852 0.875977L37.375 1.23535L37.3975 3.21191L37.375 4.51465L37.3076 4.78418L37.1279 5.14355L36.9258 5.36816L36.7686 5.50293L36.4092 5.68262L36.1172 5.75H35.7354L35.4434 5.68262L35.1738 5.54785L34.9717 5.39062L34.792 5.21094L34.6123 4.91895L34.5225 4.67188L34.4775 4.3125V1.39258L34.5225 1.07812L34.6348 0.786133L34.7695 0.561523L34.9717 0.336914L35.1963 0.179688L35.4658 0.0449219L35.5781 0Z" fill="#35A7FF"/>
<path d="M39.9805 12.96H40.4746L40.7666 13.0498L41.0586 13.207L41.2832 13.4092L41.4629 13.5664L42.6309 14.7344L42.833 14.9814L43.0127 15.2959L43.1025 15.6104V16.0596L43.0127 16.374L42.833 16.6885L42.6309 16.9131L42.4287 17.0703L42.1367 17.2051L41.8447 17.2725H41.418L41.1035 17.1826L40.8564 17.0479L40.5645 16.8008L39.1719 15.4082L38.9697 15.1387L38.835 14.8467L38.7676 14.5322V14.2852L38.835 13.9482L39.0146 13.5889L39.2168 13.3418L39.4414 13.1621L39.7783 13.0049L39.9805 12.96Z" fill="#20679E"/>
<path d="M29.918 2.89746H30.4121L30.7041 2.9873L30.9961 3.14453L31.2207 3.34668L31.4004 3.50391L32.5684 4.67188L32.7705 4.91895L32.9502 5.2334L33.04 5.52539V5.99707L32.9502 6.31152L32.793 6.60352L32.5459 6.87305L32.3213 7.03027L32.0742 7.14258L31.7822 7.20996H31.3555L31.041 7.12012L30.7939 6.98535L30.502 6.73828L29.1318 5.36816L28.9521 5.14355L28.7725 4.78418L28.7051 4.46973V4.22266L28.7725 3.88574L28.9521 3.52637L29.1543 3.2793L29.3789 3.09961L29.7158 2.94238L29.918 2.89746Z" fill="#20679E"/>
<path d="M15.835 45.9775H15.9473V46H15.835V45.9775Z" fill="#20679E"/>
</g>
<defs>
<clipPath id="clip0_670_15878">
<rect width="46" height="46" fill="white"/>
</clipPath>
</defs>
</svg>
