<svg width="109" height="167" viewBox="0 0 109 167" fill="none" xmlns="http://www.w3.org/2000/svg">
<path d="M56.9022 0L57.9965 0.218855L58.2153 0.437709L59.5285 8.09762L60.8416 14.0067L62.1547 18.3838L62.8113 19.9158L63.9056 19.0404L65.4375 17.2895L67.1884 15.5387L70.9089 12.6936L74.4106 10.7239L76.818 9.62961L80.3196 8.53533L81.4139 8.31648H83.3836L83.6025 9.1919L81.8516 11.5993L79.2254 15.7575L76.3803 21.01L75.286 24.074L74.4106 26.2626L73.9729 28.4511L77.0368 27.138L79.8819 26.2626L83.6025 25.606H88.855L91.0435 26.0437L91.2624 27.138L88.1984 29.3265L85.3533 31.9528L82.5082 35.6733L79.8819 39.8316L78.1311 43.3332L77.9122 44.2086H82.7271L85.3533 44.6464L87.5419 45.5218L90.1681 47.0538L92.3567 49.2423L92.7944 49.8989V50.9931L92.5755 51.212H87.1041L82.9459 52.0874L79.8819 53.4005L76.818 55.3702L76.1614 55.8079V56.2456L80.1008 58.8719L82.9459 61.2793L85.3533 63.6867L87.7607 66.7507L90.387 70.6901L93.0132 75.7237L94.9829 80.9762L97.1715 88.1984L98.2657 94.1075L98.7034 98.0469L98.9223 101.549V107.239L98.4846 112.491L98.2657 113.367L99.1412 113.804L101.767 116.431L103.956 119.495L106.145 123.434L107.676 127.373L108.552 130.656V134.596L107.895 136.565L106.363 138.316L104.831 138.973H101.986L100.017 137.66L98.9223 137.003L97.828 136.128L97.3903 135.252V132.626L97.6092 131.532L95.6395 127.811L95.2018 127.373L94.3263 130L92.5755 133.501L90.6058 136.784L88.4173 139.629L86.0099 142.256L83.8213 144.225L80.7574 146.414L78.1311 147.727H77.6934V149.915L77.2557 153.855L75.9426 159.326L75.7237 159.983L76.818 160.42L78.35 161.952L78.7877 162.828V164.579L77.6934 165.673L76.3803 165.892V166.33L75.0671 166.548H71.1278L68.2826 165.892L66.0941 164.579L65.4375 163.703L65.2187 154.293L64.9998 151.447L61.9359 151.885H46.1783L43.5521 151.447L43.1144 156.481L42.8955 163.703L41.5824 165.235L40.2693 165.892L37.4241 166.548H33.0471L30.8585 165.892L29.7642 164.798V162.609L30.6396 161.296L32.3905 159.983H32.8282L31.9528 157.138L31.5151 155.168L31.0774 152.104V147.727L29.7642 147.508L26.7003 145.757L23.8552 143.569L21.2289 141.161L19.2592 138.754L17.0707 135.69L15.101 131.969L14.0067 129.343L13.3501 127.592H12.9124L11.1616 130.875L10.9427 131.094L11.1616 132.626V135.033L10.2862 136.565L8.75419 137.222L7.87877 138.316L6.56564 138.973H3.50167L1.75084 137.878L0.656564 136.565L0 134.814V130.656L0.875419 127.373L2.18855 123.872L4.37709 119.714L6.56564 116.65L8.97304 114.023L9.84846 113.367L9.6296 109.427V98.9223L10.2862 93.2321L11.3804 87.7607L12.9124 82.5082L14.8821 77.0368L17.2895 72.0032L19.6969 68.0638L22.1043 64.9998L24.074 62.8113L26.9191 59.9662L30.2019 57.5588L31.9528 56.4645H32.3905L31.2962 55.3702L28.8888 53.8382L25.3871 52.3063L21.8855 51.4308L15.5387 51.212L15.7575 49.68L17.2895 47.9292L19.4781 46.3972L21.6666 45.3029L23.8552 44.6464L25.1683 44.4275H30.6396L28.0134 39.3938L25.8248 36.3299L23.1986 33.2659L21.6666 31.7339L19.0404 29.7642L16.633 28.4511L16.8518 27.5757L18.1649 26.9191L20.5723 26.4814H24.7306L28.67 27.138L31.9528 28.2323L33.4848 29.1077L32.1716 25.1683L30.6396 21.8855L28.4511 18.6026L26.0437 15.9764L23.6363 14.2256L19.9158 12.2559L19.6969 11.1616L20.5723 10.7239L22.1043 10.505H27.138L31.5151 11.3804L34.579 12.4747L38.7373 14.8821L42.2389 17.7272L44.4275 19.6969L45.5218 20.7912V21.2289H45.9595L46.1783 19.0404L47.4915 14.4444L48.8046 11.1616L51.212 6.56564L53.4005 3.50167L55.8079 0.875419L56.9022 0Z" fill="#AA5D15"/>
<path d="M56.9022 0L57.9965 0.218855L58.2153 0.437709L59.5285 8.09762L60.8416 14.0067L62.1547 18.3838L62.8113 19.9158L63.9056 19.0404L65.4375 17.2895L67.1884 15.5387L70.9089 12.6936L74.4106 10.7239L76.818 9.62961L80.3196 8.53533L81.4139 8.31648H83.3836L83.6025 9.1919L81.8516 11.5993L79.2254 15.7575L76.3803 21.01L75.286 24.074L74.4106 26.2626L73.9729 28.4511L77.0368 27.138L79.8819 26.2626L83.6025 25.606H88.855L91.0435 26.0437L91.2624 27.138L88.1984 29.3265L85.3533 31.9528L82.5082 35.6733L79.8819 39.8316L78.1311 43.3332L77.9122 44.2086H82.7271L85.3533 44.6464L87.5419 45.5218L90.1681 47.0538L92.3567 49.2423L92.7944 49.8989V50.9931L92.5755 51.212H87.1041L82.9459 52.0874L79.8819 53.4005L76.818 55.3702L76.1614 55.8079V56.2456L80.1008 58.8719L82.9459 61.2793L85.3533 63.6867L87.7607 66.7507L90.387 70.6901L93.0132 75.7237L94.9829 80.9762L97.1715 88.1984L98.2657 94.1075L98.7034 98.0469L98.9223 101.549V107.239L98.4846 112.491L98.2657 113.367L99.1412 113.804L101.767 116.431L103.956 119.495L106.145 123.434L107.676 127.373L108.552 130.656V134.596L107.895 136.565L106.363 138.316L104.831 138.973H101.986L100.017 137.66L98.9223 137.003L97.828 136.128L97.3903 135.252V132.626L97.6092 131.532L95.6395 127.811L95.2018 127.373L94.3263 130L92.5755 133.501L90.6058 136.784L88.4173 139.629L86.0099 142.256L83.8213 144.225L80.7574 146.414L78.1311 147.727H77.6934V149.915L77.2557 153.855L75.9426 159.326L75.7237 159.983L76.818 160.42L78.35 161.952L78.7877 162.828V164.579L77.6934 165.673L76.3803 165.892V166.33L75.0671 166.548H71.1278L68.2826 165.892L66.0941 164.579L65.4375 163.703L65.2187 154.293L64.9998 151.447L61.9359 151.885H46.1783L43.5521 151.447L43.1144 156.481L42.8955 163.703L41.5824 165.235L40.2693 165.892L37.4241 166.548H33.0471L30.8585 165.892L29.7642 164.798V162.609L30.6396 161.296L32.3905 159.983H32.8282L31.9528 157.138L31.5151 155.168L31.0774 152.104V147.727L29.7642 147.508L26.7003 145.757L23.8552 143.569L21.2289 141.161L19.2592 138.754L17.0707 135.69L15.101 131.969L14.0067 129.343L13.3501 127.592H12.9124L11.1616 130.875L10.9427 131.094L11.1616 132.626V135.033L10.2862 136.565L8.75419 137.222L7.87877 138.316L6.56564 138.973H3.50167L1.75084 137.878L0.656564 136.565L0 134.814V130.656L0.875419 127.373L2.18855 123.872L4.37709 119.714L6.56564 116.65L8.97304 114.023L9.84846 113.367L9.6296 109.427V98.9223L10.2862 93.2321L11.3804 87.7607L12.9124 82.5082L14.8821 77.0368L17.2895 72.0032L19.6969 68.0638L22.1043 64.9998L24.074 62.8113L26.9191 59.9662L30.2019 57.5588L31.9528 56.4645H32.3905L31.2962 55.3702L28.8888 53.8382L25.3871 52.3063L21.8855 51.4308L15.5387 51.212L15.7575 49.68L17.2895 47.9292L19.4781 46.3972L21.6666 45.3029L23.8552 44.6464L25.1683 44.4275H30.6396L28.0134 39.3938L25.8248 36.3299L23.1986 33.2659L21.6666 31.7339L19.0404 29.7642L16.633 28.4511L16.8518 27.5757L18.1649 26.9191L20.5723 26.4814H24.7306L28.67 27.138L31.9528 28.2323L33.4848 29.1077L32.1716 25.1683L30.6396 21.8855L28.4511 18.6026L26.0437 15.9764L23.6363 14.2256L19.9158 12.2559L19.6969 11.1616L20.5723 10.7239L22.1043 10.505H27.138L31.5151 11.3804L34.579 12.4747L38.7373 14.8821L42.2389 17.7272L44.4275 19.6969L45.5218 20.7912V21.2289H45.9595L46.1783 19.0404L47.4915 14.4444L48.8046 11.1616L51.212 6.56564L53.4005 3.50167L55.8079 0.875419L56.9022 0ZM60.6227 56.6834L57.7776 57.9965L56.2456 58.4342H52.0874L48.8046 57.3399L47.7103 56.9022L45.7406 57.1211L41.3635 58.653L39.175 59.3096H35.6733L33.9225 57.3399L32.8282 57.7776L29.5454 59.9662L27.138 61.9359L24.2929 64.781L21.4478 68.5015L18.8215 72.6598L16.633 77.2557L14.4444 82.9459L12.4747 89.9493L11.5993 95.2018L11.1616 100.017V107.676L11.8182 114.68L12.9124 120.808L14.0067 124.309L15.5387 128.905L17.9461 133.939L20.5723 137.878L22.9797 140.505L24.9494 142.474L28.2322 144.882L32.3905 147.07L37.643 148.821L43.1144 149.915L47.9292 150.353H60.6227L66.5318 149.697L72.222 148.383L76.3803 146.851L80.1008 144.882L83.1648 142.693L84.6967 141.161L86.0099 140.067L87.9796 137.66L90.1681 134.377L92.5755 129.781L94.7641 123.434L95.2018 121.683L96.0772 117.744L96.9526 111.835L97.3903 105.05V101.986L96.7337 94.3264L95.6395 88.6361L94.7641 85.3533H94.3263V84.0402H93.8886L93.4509 81.8516L91.7001 77.2557L89.9493 73.3163L88.6361 71.3466L87.9796 70.2523L87.323 68.7204L86.6664 68.5015L86.2287 67.6261L85.1345 66.0941L84.6967 65.8753L84.4779 65.2187H84.0402V64.781L82.2893 63.249L80.9762 61.717L79.8819 61.0605L79.2254 60.4039L78.35 59.7473H77.9122V59.3096L76.3803 58.4342H75.9426V57.9965H75.286L75.0671 57.3399H74.1917V57.7776L73.3163 58.2153V58.8719L72.222 59.3096H69.8146L66.5318 58.4342L63.249 57.1211L60.6227 56.6834Z" fill="#5A250F"/>
<path d="M74.1919 57.3403L75.2861 57.5592V57.9969H75.9427V58.4346L77.037 58.8723L77.9124 59.31V59.7477L79.6632 60.6232L83.6026 64.5625L84.0403 64.7814V65.2191H84.478L84.6969 65.8757L85.7912 66.9699L86.6666 68.0642V68.5019L87.3231 68.7208L88.6363 71.347L89.9494 73.3167L92.3568 78.7881L93.8888 83.384V84.0406H94.3265L94.9831 87.3234L94.1076 87.7611V88.1988L92.3568 89.7308L89.7305 92.7948L87.7608 94.5456L87.3231 95.2022L86.2289 94.9833L84.9157 93.4513L83.8215 92.1382L83.3838 91.9194L82.946 91.0439L80.7575 88.8554L79.0067 86.8857L78.1312 85.7914V85.3537L77.037 84.916L75.7238 83.8217L75.505 82.9463L74.6296 82.7275L72.8787 80.9766L73.0976 80.3201H73.5353V79.8824L74.4107 79.2258L74.6296 78.5692L72.2222 79.6635L70.909 79.2258L69.5959 77.6938L68.5016 77.0372L67.8451 76.1618L66.7508 75.5053L66.3131 74.8487L65.2188 74.1921L64.1245 73.3167V72.879L63.2491 72.6602V72.2224L62.1549 71.7847V71.347L61.2794 71.1282L60.1852 70.2528V69.815L59.3097 69.5962L57.7778 68.5019V68.0642H57.1212V67.6265H56.4646V67.1888L55.3704 66.9699V66.5322L57.1212 65.6568H57.5589V65.2191H58.2155V64.7814H58.872V64.3437L59.9663 64.1248V63.6871L61.0606 63.4683V63.0306L62.1549 62.8117V62.374L63.2491 62.1551V61.7174L64.3434 61.4986V61.0609L66.5319 60.1854L67.1885 59.9666L68.0639 60.1854L71.1279 59.9666L72.441 59.5289L72.8787 58.8723H73.3164L73.5353 57.9969L74.1919 57.778V57.3403Z" fill="#F0AB31"/>
<path d="M54.057 95.6392L55.3701 96.2957L56.4644 97.6089L58.8718 99.5785L61.498 102.424L65.2185 106.144L66.5317 107.895L67.6259 108.77L69.1579 110.521V111.178L70.0333 111.616L70.6899 112.491L70.4711 113.366L66.9694 116.868L65.4374 118.181L63.9054 119.932L62.1546 121.464L60.6226 123.215L57.3398 126.498L56.2455 127.154L54.7135 128.905L53.8381 128.467L52.7438 127.811L50.993 125.841L49.8987 125.185L46.1782 121.464L44.6462 119.713L41.1445 116.43L39.1748 114.461L38.5183 113.366L38.0806 112.929L38.2994 112.053L38.956 111.834L39.3937 110.74L42.0199 107.676L43.1142 106.582L45.0839 104.393L46.6159 102.643L48.1479 101.329L49.6799 99.5785L51.4307 98.0466L52.525 96.9523L54.057 95.6392Z" fill="#EFAA30"/>
<path d="M36.5487 81.6328L37.4242 82.0705L38.7373 82.9459V83.3836L39.6127 83.6025L40.4881 84.2591V84.6968L41.3635 84.9156V85.3533L42.239 85.5722V86.0099L43.1144 86.2288L44.2087 87.1042V87.5419L45.0841 87.7607V88.1985L45.9595 88.4173V88.855L46.8349 89.0739L47.0538 89.7304L47.9292 89.9493L48.148 90.6059L49.0235 90.8247L49.4612 91.7001L50.5554 92.1378L50.7743 92.7944L51.6497 93.0133L53.1817 94.3264L52.9628 95.2018L50.5554 97.1715L48.5857 98.9223L47.0538 100.673L45.7406 101.767L45.0841 102.862L44.2087 103.737H43.7709V97.8281L43.1144 95.6395V94.9829L43.9898 94.5452L44.2087 93.8887H43.1144L42.8955 94.5452L41.8013 93.451V93.0133L40.9258 92.5755L39.175 91.2624L38.2996 91.0436H36.111L34.7979 91.7001L33.4848 93.0133L32.1716 96.5149L31.9528 100.017L32.1716 102.643L33.4848 105.488V106.145L34.1413 106.363L35.4545 107.895L36.7676 108.552L39.175 108.99L38.7373 109.865L37.8619 110.303L37.4242 111.397L36.3299 111.616V112.71L35.2356 114.023L34.1413 114.461L33.7036 115.774L31.5151 117.963L30.8585 119.057H30.4208L30.202 119.932L29.5454 120.589L28.67 121.683H28.2323V122.34H27.3568L27.138 121.464H26.7003V121.027L26.0437 120.808L24.9494 118.4L24.074 116.431L23.4175 115.555V115.118H22.9798L22.542 114.023H22.9798L23.1986 111.178L22.542 109.646L22.3232 108.99L21.6666 108.771L21.0101 107.677L20.7912 106.801V104.831L19.6969 105.269H19.0404L18.6027 102.862L19.9158 101.33L19.6969 100.235L20.3535 99.1412L21.6666 97.6092L23.1986 98.9223L23.6363 100.017L24.5117 100.454L27.138 103.081L27.3568 103.956L28.2323 104.394L31.0774 107.239L31.7339 108.114V108.552L34.579 109.427L31.0774 105.926L29.5454 104.175L28.0134 102.205L25.8249 100.235L24.5117 98.4846L22.7609 96.9526L23.1986 95.6395L24.074 95.2018L24.5117 94.1075L25.3872 93.451L26.0437 92.3567L27.3568 91.2624L28.67 89.5116L30.8585 87.1042L32.1716 86.6665L32.6094 86.2288H33.2659V85.7911L35.8922 84.6968L37.8619 84.4779L38.0807 83.1648L37.643 82.7271L35.6733 82.5082L36.5487 81.6328Z" fill="#EEA930"/>
<path d="M71.3468 81.6328L72.441 81.8517L72.8787 82.5082L71.1279 82.9459L70.4713 83.3836L70.6902 84.4779L73.7542 84.9156L75.9427 86.0099L76.8181 86.8853L77.9124 87.5419L79.2255 88.6362L80.7575 90.387L82.0706 92.1378L83.1649 93.0133L83.8215 94.1075L84.6969 94.9829V95.4207L85.5723 95.8584L86.01 96.7338L82.946 99.5789L82.2895 100.673L80.3198 102.643L78.7878 103.956L77.9124 105.269L74.8484 108.552L73.3164 110.303L72.2222 111.397L71.3468 111.178L70.2525 110.303L70.0336 109.646L68.2828 108.114L65.8754 105.05L64.1245 103.518L62.8114 101.767L61.2794 100.454L59.7475 98.7035L56.9023 96.2961L55.3704 94.9829L55.8081 94.1075L57.3401 92.5755L58.6532 91.919L59.7475 90.8247H60.1852L60.6229 89.9493H61.2794L61.7171 89.0739H62.3737L62.8114 88.1985L63.6868 87.5419H64.3434L64.5623 86.8853L65.2188 86.6665L66.3131 85.5722L67.1885 84.9156H67.8451L68.0639 84.2591H68.7205L68.9394 83.6025H69.5959L70.0336 82.7271L70.909 82.0705H71.3468V81.6328Z" fill="#EEA830"/>
<path d="M53.8382 67.626L55.1513 67.8448L55.3702 68.5014H56.0268V68.9391L56.9022 69.158V69.5957L57.7776 69.8145L58.4342 70.2522V70.6899H59.0907L59.3096 71.1277L60.185 71.5654V72.0031L61.0604 72.2219L62.1547 73.0973V73.5351L63.0301 73.7539L63.249 74.4105L64.1244 74.6293L64.3432 75.2859L65.4375 75.7236V76.1613L66.5318 76.599L66.7506 77.2556L67.8449 77.6933L68.7203 78.7876L69.8146 79.4441L70.9089 80.5384V80.9761L69.5957 81.6327L69.3769 82.0704H68.7203L68.5015 82.7269H67.8449V83.1647L66.9695 83.3835L66.7506 84.0401L64.7809 85.3532H64.3432V85.7909H63.6867V86.2286L63.0301 86.4475L62.1547 87.3229H61.717V87.7606L60.8416 87.9795L60.6227 88.636L58.2153 90.6057H57.5587L57.121 91.4811L56.2456 91.9188L55.3702 93.0131L54.7136 93.232L54.4948 93.6697H54.0571L53.8382 93.232L52.7439 92.5754L52.3062 91.7L51.212 91.2623L50.9931 90.6057L50.1177 90.3869L49.68 89.5114L48.8046 89.2926L48.5857 88.8549L47.0537 87.9795L46.616 87.104L45.7406 86.8852V86.4475L44.8652 86.2286L41.8012 84.0401L41.5823 83.6024L40.0504 82.7269L39.8315 82.2892L38.2995 81.4138L37.8618 80.5384L39.8315 78.5687H40.4881L40.9258 77.6933L42.2389 76.8179L42.8955 75.9425H43.552L43.9897 75.067H44.6463L45.084 74.1916H45.7406L46.1783 73.3162H46.8349L47.2726 72.4408L47.9291 72.2219L48.3668 71.5654H49.0234V71.1277L49.68 70.9088L50.1177 70.2522H50.7742V69.8145H51.4308L51.6497 69.158H52.3062V68.7202H52.9628L53.1816 68.0637H53.8382V67.626Z" fill="#F0AB31"/>
<path d="M71.5656 113.805H72.0033L73.3164 115.337V115.993L74.1919 116.431L74.4107 117.306L75.2861 117.744V118.401L76.1616 118.838L76.3804 119.714L77.2558 120.151L77.4747 121.027L78.3501 121.465V122.121L79.0067 122.34L80.7575 124.529L80.9764 125.404L81.6329 125.623L81.8518 126.498L82.7272 126.936L82.946 127.811L83.6026 128.03L83.8215 128.906L83.3838 129.125L82.7272 130.219L80.1009 132.845L78.1312 135.252L76.1616 137.441L70.6902 142.912L69.8148 142.693L67.4074 140.505L65.2188 138.754L65 138.316L63.9057 137.66L63.6868 137.003L62.5926 136.566L62.3737 135.909L61.2794 135.471L60.8417 134.596L59.9663 134.377L59.0909 133.502V133.064L58.2155 132.845L56.4646 130.875L55.3704 130.219L55.8081 129.343L56.6835 128.468L57.7778 127.811L59.3097 126.061L61.0606 124.529L68.7205 116.869L70.2525 115.118L71.3468 114.024L71.5656 113.805Z" fill="#F0AB31"/>
<path d="M53.8382 25.3872L54.4948 25.6061L55.8079 27.5758L57.5587 31.0774L57.9964 32.6094H58.4342L59.9661 36.5488L60.6227 38.5185L61.0604 40.0505L61.4981 41.1447L61.717 42.6767L62.1547 44.2087L62.3735 45.7407V52.0875L61.717 54.0572L60.8416 55.3703L57.9964 56.6834L55.589 57.34H52.5251L49.4611 56.4646L47.0537 55.3703L45.9594 53.4006L45.7406 52.5252L45.5217 48.1481L45.9594 43.771L46.616 40.2693L48.3668 35.2357L51.4308 29.1077L53.1816 26.2626L53.8382 25.3872Z" fill="#92B94D"/>
<path d="M86.6665 97.6094H87.1042V98.2659L87.9796 98.7036L88.6362 99.7979L89.2927 100.236L89.5116 100.892L90.1682 101.33V101.986L90.8247 102.205L91.0436 103.081L91.919 103.518V104.175L92.7944 104.613L93.8887 105.926V106.582H94.3264L95.8584 108.552L96.5149 109.646L96.7338 110.741L94.7641 113.586L94.5453 114.242H94.1075L93.8887 115.337L92.7944 116.869H92.3567L92.1379 117.744H91.7001V118.401H91.2624V119.057H90.8247L90.6059 119.933H90.1682L89.9493 120.808H89.5116L89.2927 121.902L88.6362 122.34L88.4173 122.997H87.9796L87.7608 123.872H87.323L87.1042 124.747L85.7911 126.498H85.3534L85.1345 127.374H84.2591L83.8214 126.936V126.279L83.1648 126.06V125.404L82.5082 125.185L81.6328 124.091V123.434L80.9763 123.215V122.559L80.1008 122.121V121.465L79.2254 121.027L78.7877 120.151L77.6934 119.057L77.2557 117.963L76.3803 117.525V116.869L75.5049 116.431L75.0672 115.337L74.1918 114.899L73.0975 113.367L72.6598 113.148L72.8786 112.273L74.8483 110.084L75.9426 108.99L77.4746 107.239L79.882 104.832H80.3197L80.7574 103.737L82.946 101.768L83.1648 101.33H83.6025L83.8214 100.454L84.9156 99.3602L86.6665 97.6094Z" fill="#EFAA31"/>
<path d="M33.4848 57.3403L34.3602 57.778L35.6733 59.31H40.707L43.7709 60.842V61.2797L44.8652 61.4986V61.9363L45.9595 62.1551L46.3972 62.374V62.8117L47.4915 63.0306V63.4683L49.0235 63.906V64.3437L50.1177 64.5625V65.0002H50.7743V65.438H51.4309V65.8757L52.5251 66.0945V66.5322H52.9628L52.744 67.1888L51.4309 68.0642H50.7743V68.5019L49.68 69.3773L49.0235 69.5962L47.9292 70.6905L46.8349 71.5659H46.1783L45.9595 72.2224L44.8652 73.0979H44.2087L43.9898 73.7544L43.3332 73.9733L42.6767 74.8487L42.0201 75.0676L41.1447 76.1618L40.2693 76.5995L38.9561 78.1315L37.8619 78.7881L37.2053 79.6635L35.8922 79.4447V79.0069H35.2356V78.5692L34.3602 78.3504L33.0471 77.475L31.9528 76.3807L28.67 74.1921L24.7306 71.347L23.6363 70.2528L28.2323 65.6568L29.9831 64.1248L31.0774 63.0306L32.1716 62.374H32.6094L32.8282 61.2797L31.7339 61.7174L30.202 62.8117L29.5454 63.0306L28.67 64.1248L26.9191 65.6568L24.7306 67.6265L22.7609 69.3773L21.8855 69.1585L21.6666 68.2831L23.6363 65.6568L26.0437 63.0306L27.7946 61.2797L31.0774 58.8723L33.4848 57.3403Z" fill="#F0AB31"/>
<path d="M54.057 130.875L54.9325 131.312L55.1513 131.75L56.2456 132.406L57.121 133.282L58.8718 134.814L61.717 137.221V137.659L62.8112 138.097L65.8752 140.723L69.3769 143.568L68.9392 144.444L65.8752 146.851L61.9358 149.477L60.6227 149.915V150.353H47.9291L45.5217 149.039L42.6766 146.851L40.9258 145.538L39.1749 144.006L39.6126 143.13L42.4577 140.942L45.3029 138.534L47.7103 136.565L51.2119 133.282L52.7439 132.188H53.1816L53.6193 131.312L54.057 130.875Z" fill="#D68723"/>
<path d="M22.542 70.9097L27.7945 74.8491L29.3265 75.7245L29.5454 76.1622L30.2019 76.381L30.4208 76.8187L31.0773 77.0376L31.2962 77.4753L31.9528 77.6942V78.1319L32.8282 78.3507L33.047 78.7884L33.9225 79.2261V79.6639L34.7979 79.8827V80.3204L35.6733 80.5393L35.2356 81.4147L33.9225 82.2901L32.6093 83.8221L31.515 85.1352L30.6396 85.3541L30.4208 86.2295L26.9191 89.7312H26.4814L26.0437 90.8254L25.1683 91.482L24.5117 92.5763L23.6363 93.2328L22.9797 94.3271L22.1043 95.4214L21.2289 95.2025L19.2592 93.014L17.5084 91.482L14.0067 87.9803L13.569 87.7615V85.7918L15.3198 80.5393L17.5084 75.2868L18.6026 73.9736L20.1346 73.0982L22.542 70.9097Z" fill="#F0AB30"/>
<path d="M83.1648 27.1382H88.1985L87.1042 28.2325L84.6968 30.421L83.8214 31.7341L82.7271 32.8284L80.9763 35.017L80.1009 36.7678L78.7878 38.5186L75.9426 44.8654L72.2221 45.9597L68.7204 47.4917L66.313 49.2425L63.9056 51.2122H63.6868L63.4679 45.7408L62.8114 41.8014L62.3737 39.6129L63.0302 38.7375H63.4679L63.9056 37.8621L64.9999 36.5489L66.7508 35.017L69.5959 32.8284L72.6598 30.6399L76.3804 29.1079L77.0369 28.6702L78.7878 28.4513V28.0136L83.1648 27.1382Z" fill="#92B94D"/>
<path d="M23.1987 12.0371H27.7947L31.5152 12.9125L35.0169 14.4445L38.2997 16.4142L40.4882 18.165L42.6768 20.1347L44.2088 21.4479L45.0842 22.761L45.9596 23.6364V24.0741L46.6162 24.293L49.6801 28.8889L49.4613 29.9832L47.4916 34.1414L45.9596 38.5185L45.303 38.2997L43.7711 36.5488L42.6768 35.4546L40.7071 33.7037L36.1112 30.6398L35.0169 29.9832L34.1415 26.4815L33.0472 23.6364L32.1718 21.8856L31.7341 20.7913L30.4209 18.8216V18.3839H29.9832L29.1078 17.0708L26.2627 14.2257L25.3873 13.7879V13.3502L24.293 12.9125L23.1987 12.0371Z" fill="#92B94D"/>
<path d="M36.5488 114.023L37.4242 114.461L40.0505 116.869L42.0202 119.276L43.771 120.808L45.9596 123.215L47.9293 124.747L49.4612 126.498L51.2121 127.811L53.1818 129.781L52.7441 130.656L51.2121 131.751L50.1178 133.064L49.4612 133.283L48.8047 134.158L48.1481 134.377L47.2727 135.471L46.6161 135.69L46.3973 136.128L45.5219 136.347L44.6464 135.69L43.5522 135.471L40.4882 133.939V133.501L39.3939 133.064L37.6431 132.188L38.0808 131.313L38.5185 131.094V129.124L38.2996 127.592L36.5488 127.374L35.8922 128.03L35.4545 129.781L34.3603 129.343L32.8283 128.468L30.4209 126.06V125.623L29.5455 125.185L28.67 124.31L28.8889 123.215L29.7643 122.778L29.9832 121.902H30.4209L30.6397 121.027L32.1717 119.276H32.6094L33.0471 118.182L33.7037 117.963L33.9226 117.087L34.5791 116.869L35.0168 115.774L36.5488 114.023Z" fill="#F0AB31"/>
<path d="M11.8181 111.616L12.2558 112.273L14.0067 115.774L17.2895 121.027L20.3534 125.185L22.542 128.03L22.9797 128.468L22.7608 129.343L20.7912 131.751L19.9157 133.283L20.7912 132.845L22.542 131.094L23.6363 129.781L24.7305 130.657L26.2625 132.407L28.8888 135.471L31.9527 138.535L33.4847 140.286L36.3298 142.912L36.9864 143.569L36.7675 144.226L34.7979 145.758L35.4544 145.976L37.8618 144.444L39.6127 145.758L41.8012 147.508L45.3029 149.259H45.7406V149.916H43.1143L37.643 148.822L32.3905 147.071L28.2322 144.882L25.606 142.912L23.4174 140.943L21.2289 138.754L19.0403 135.69L17.0706 132.189L15.5386 128.906L14.4444 125.842L13.7878 123.872L12.6935 119.714L11.8181 114.68V111.616Z" fill="#D58723"/>
<path d="M96.296 112.71L96.5148 113.367L94.764 123.434L92.5754 129.781L89.9492 134.815L87.3229 138.535L85.1344 140.943L83.3835 142.475L80.7573 144.444L77.2556 146.414L74.1917 147.727L69.5957 149.04L66.5317 149.697H63.4678L64.1243 149.04L66.7506 147.508L70.2523 144.663L71.3465 144.882L73.3162 146.195L74.4105 146.633L73.3162 145.539L71.5654 144.007L72.0031 143.131L74.4105 140.724L75.5048 139.848L77.0368 138.098L79.8819 135.034L80.9761 133.72L82.0704 132.626L83.6024 130.657H84.0401L84.259 130L85.1344 130.219L86.2287 131.094L86.6664 131.97L88.8549 133.72L88.4172 132.845L86.6664 130.657L86.4475 130L85.7909 129.343L85.5721 128.468H86.0098L86.2287 127.593H86.6664L86.8852 126.717H87.3229L87.5418 125.842H87.9795L88.1984 124.966H88.6361L88.8549 123.872L89.7303 123.434V122.778L90.168 122.559L90.3869 121.902H90.8246V121.246H91.2623L91.4812 120.37L92.1377 119.276H92.5754V118.62H93.0132V117.963H93.4509L93.8886 116.65H94.3263L94.5451 115.556L94.9828 114.68H95.4206L95.8583 113.586L96.296 112.71Z" fill="#D48623"/>
<path d="M20.1347 28.0132H25.1684L28.4512 28.6697L31.9529 29.9829L35.6734 31.7337L39.1751 34.1411L42.0202 36.5485L43.5522 37.8616L45.303 40.0502L45.0842 42.0199L44.4276 46.397L44.2087 50.9929L43.3333 50.5552L41.5825 49.0232L38.2997 47.0535L34.5791 45.5216L32.6094 45.0838L31.5152 42.8953L30.4209 40.4879L29.3266 38.7371L28.0135 36.7674V36.3297H27.5758L26.2627 34.36L23.6364 31.5149L21.4479 29.5452L19.697 28.4509L20.1347 28.0132Z" fill="#92B94D"/>
<path d="M80.3195 10.0679H80.7573L80.5384 10.9433L79.2253 12.6941L77.9121 15.1015L75.7236 19.0409L73.5351 24.5123L72.6596 27.5762L72.2219 29.5459L68.0637 32.391L66.094 33.923L62.5923 37.4247L62.1546 38.0813H61.7169L60.4038 34.3607L58.6529 30.4214L58.4341 29.3271L60.4038 25.8254L62.1546 23.418L63.03 22.1049H63.4677L63.9054 21.2295L66.3128 18.6032L68.7203 16.1958L72.0031 13.7884L75.5047 11.8187L78.7876 10.5056L80.3195 10.0679Z" fill="#92B94D"/>
<path d="M56.4646 1.96924H57.1211L57.7777 6.56519L59.7474 15.1005L61.9359 21.6662L60.1851 24.0736L58.2154 27.3564L57.7777 28.0129H57.34L55.1515 24.5113L54.276 23.6359L53.4006 23.8547L51.8686 26.0433L50.7744 27.7941L50.1178 27.5752L48.1481 24.5113L47.0538 23.1981L47.2727 21.0096L48.367 16.1948L49.2424 13.5685L50.7744 10.7234L51.4309 9.19144L53.4006 5.90862L55.3703 3.50122L56.4646 1.96924Z" fill="#92B84D"/>
<path d="M19.6969 99.7983L20.1346 100.674L19.9157 101.549L18.8214 103.081L19.0403 105.27L20.1346 104.832H20.7911L21.2288 107.677L21.8854 108.771L22.9797 109.866L23.4174 111.179V112.711L22.9797 114.024H22.542L22.9797 115.118H23.4174L24.5117 116.65L25.1682 118.401L26.2625 120.808L26.7002 121.027V121.465H27.1379L27.3568 122.34L28.0133 122.559L25.8248 125.185L24.074 127.593L22.9797 126.717L20.1346 122.997L17.946 119.933L13.3501 113.367L11.8181 110.96L11.5992 110.085L13.1312 108.115L15.3198 105.27L17.5083 102.643L19.0403 100.674L19.6969 99.7983Z" fill="#D68823"/>
<path d="M36.1111 90.8252H38.2996L39.8316 91.4818L41.8013 93.0137L42.8956 95.2023L43.771 98.2663V102.643L43.1144 105.488L41.8013 107.458L40.707 108.334L39.8316 108.771L38.2996 108.99L36.1111 108.552L34.1414 106.802L33.4848 106.145L32.1717 102.862L31.9529 102.643L31.734 98.4851L32.1717 95.8589L33.266 93.0137L35.0168 91.2629L36.1111 90.8252Z" fill="#551F0E"/>
<path d="M70.2524 90.8252H72.2221L73.973 91.4818L75.2861 93.0137V93.4515L75.9427 93.6703L76.8181 96.0777L77.4746 99.5794V102.206L76.5992 105.488L75.505 107.02L75.0672 107.896L73.3164 108.771H70.6902L69.1582 107.896L67.6262 106.583V105.926H67.1885L65.8753 102.424L65.6565 101.549V96.9531L66.7508 93.4515L68.2827 91.7006L68.7205 91.2629L70.2524 90.8252Z" fill="#541F0E"/>
<path d="M78.7875 65.6567L80.7572 66.0944L82.9458 68.0641L84.6966 70.4715V70.9092L86.2286 71.1281L88.4172 73.3167L89.0737 73.5355L88.1983 71.7847L86.8852 70.2527L87.3229 69.3773L88.8549 71.5658L90.168 73.9732L91.9188 77.6937L93.6697 82.5085L93.8885 84.0405H94.3262L94.9828 87.3233L94.1074 87.7611L93.232 85.5725L91.2623 79.8823L90.168 78.5692L88.4172 77.6937L87.7606 77.4749L88.636 80.32L88.8549 80.7577V82.5085L88.1983 83.1651L86.8852 82.7274L86.2286 81.852L86.0097 80.1011L85.1343 81.1954L84.9155 81.852V83.384L85.3532 84.0405L85.1343 84.9159L83.8212 85.1348L81.6327 84.9159L79.663 82.9463L78.7875 81.6331L77.9121 79.4446L76.599 78.3503L77.0367 77.4749L79.0064 75.9429L80.7572 74.6298L80.3195 73.7544L78.131 70.4715L77.2556 68.5018V66.9699L77.6933 66.0944L78.7875 65.6567Z" fill="#F7CE69"/>
<path d="M77.4746 45.7407H83.1648L86.4477 46.6161L89.0739 48.1481L90.1682 49.0235V49.4613L85.7911 49.899L82.2894 50.7744L77.6935 52.9629L75.0672 54.9326L72.6598 57.34L72.0033 58.2154H70.0336L67.4073 57.5589L63.2491 56.0269L62.3737 55.808L62.5925 54.7138L64.5622 52.0875L66.7508 50.3367L68.9393 48.8047L71.1278 47.4916L74.1918 46.3973L77.4746 45.7407Z" fill="#92B94D"/>
<path d="M28.4512 123.653L28.6701 124.309L29.5455 124.747L30.4209 125.623V126.06L31.0775 126.279L32.6095 128.03L33.7038 128.905L35.4546 129.781L35.6734 128.03L36.5489 127.155H37.6431L38.5186 128.03L38.7374 129.124V131.094L37.862 131.969L40.4882 133.501V133.939L41.8014 134.377L43.9899 135.471L45.0842 135.69L45.7408 136.128L46.1785 136.346L42.6768 139.192L39.6128 141.818L38.2997 142.912L37.4243 142.474L31.2964 136.346L29.7644 134.596L27.1381 131.75L25.3873 129.562L24.7307 128.468L27.5758 124.966L28.4512 123.653Z" fill="#D68823"/>
<path d="M24.9495 45.9595H29.7643L33.266 46.3972L35.6734 47.0537L39.3939 49.0234L41.8013 50.7743L44.2087 52.9628L45.9596 55.5891L45.5219 56.0268L38.7374 58.2153H36.1111L34.3603 56.0268L32.3906 54.2759L30.4209 53.1817V52.744L29.1078 52.3063L26.2626 51.212L24.7307 50.5554L21.6667 49.8989L17.9462 49.68L18.3839 48.8046L19.2593 48.5857V48.148L20.1347 47.9292V47.4915L22.1044 46.616L24.9495 45.9595Z" fill="#92B84D"/>
<path d="M87.7607 77.4751L89.0738 77.694L90.8246 79.0071L91.7 80.3202L94.1074 87.5424V88.199L92.3566 89.731L89.7303 92.7949L87.7607 94.5458L87.3229 95.2023L86.2287 94.9835L84.9155 93.4515L83.8213 92.1384L83.3836 91.9195L82.9459 91.0441L80.7573 88.8555L79.0065 86.8858L78.1311 85.7916V85.3539L77.0368 84.9162L75.7237 83.8219L75.5048 82.9465L74.6294 82.7276L72.8785 80.9768L73.0974 80.3202H73.5351V79.8825L75.7237 78.5694L76.5991 78.1317L78.1311 79.4448L79.2253 82.071L81.6327 84.6973L84.0401 84.9162L85.1344 84.6973L84.9155 83.8219L84.6967 83.3842V81.8522L85.3533 80.5391L86.2287 79.8825L86.4475 81.8522L87.1041 82.7276L88.6361 82.9465V80.7579L87.7607 78.5694V77.4751Z" fill="#F3B94B"/>
<path d="M98.0468 114.68L99.5788 115.993L100.673 117.306L101.548 118.62L103.518 121.684L105.488 125.842L106.582 129.125V130H107.02L107.239 131.313V134.377L106.363 136.347L105.05 137.441L104.394 137.66H102.643L101.33 137.003L100.454 136.128L99.1411 135.69L98.7034 134.815V132.845L98.9222 131.532L97.828 128.906L95.8583 125.842L95.6394 124.966L96.9525 120.152L97.828 114.899L98.0468 114.68Z" fill="#D58723"/>
<path d="M10.0674 114.899H10.5051L11.5994 120.589L12.6937 124.747L12.4748 125.842L10.2863 129.562L9.62971 131.313L9.84856 132.845V134.815L8.97315 135.909L7.87887 136.128L6.7846 137.222L5.90918 137.66H3.72063L2.40751 136.784L1.53209 135.252L1.31323 134.377V131.094L1.9698 128.249H2.40751V126.936H2.84521L3.06407 125.842L5.47147 120.808L7.44116 117.963L8.09773 116.869L9.62971 115.118L10.0674 114.899Z" fill="#D58723"/>
<path d="M21.6666 97.6094L23.1986 98.9225L23.6363 100.017L24.5117 100.454L27.138 103.081L27.3568 103.956L28.2323 104.394L31.0774 107.239L31.7339 108.114L31.5151 108.771L28.0134 109.209L26.2626 110.084L25.1683 111.397V112.929L26.0437 114.023L28.0134 114.899L28.8888 115.118H31.9528L34.1413 114.68L33.7036 115.774L31.5151 117.963L30.8585 119.057H30.4208L30.202 119.933L29.5454 120.589L28.67 121.683H28.2323V122.34H27.3568L27.138 121.465H26.7003V121.027L26.0437 120.808L24.9494 118.401L24.074 116.431L23.4175 115.555V115.118H22.9798L22.542 114.023H22.9798L23.1986 111.178L22.542 109.646L22.3232 108.99L21.6666 108.771L21.0101 107.677L20.7912 106.801V104.832L19.6969 105.269H19.0404L18.6027 102.862L19.9158 101.33L19.6969 100.236L20.3535 99.1414L21.6666 97.6094Z" fill="#EFAA31"/>
<path d="M75.5049 148.603H76.1614V152.323L75.9426 153.636H75.5049L75.286 156.7L74.1918 159.983V160.858L75.5049 161.077L76.5992 162.172L77.2557 162.609L77.4746 163.922L76.5992 164.798L73.9729 165.235H71.5655L68.7204 164.579L66.9696 163.485L66.7507 163.047L66.5318 155.168L66.313 151.01L70.6901 150.135L75.0672 148.821L75.5049 148.603Z" fill="#D58723"/>
<path d="M32.1715 148.603L33.2658 148.821L38.2995 150.353L41.8011 151.01L42.2389 151.229L41.8011 157.357V162.828L40.7069 164.141L38.0806 165.017L36.5486 165.235H34.1412L31.7338 164.798L31.0773 164.36V163.047L31.9527 161.953H32.3904V161.515L34.1412 160.858H34.5789L33.7035 158.451L33.2658 154.949H32.8281L32.3904 152.542L32.1715 148.603Z" fill="#D68823"/>
<path d="M37.643 60.623H41.1447L42.8956 61.9362L44.4275 63.687L45.0841 64.7813L44.8653 65.6567L42.0201 63.4682L40.2693 62.5927L38.0808 62.3739L35.6734 63.2493L34.1414 64.3436H33.7037L33.9225 65.219L35.4545 65.6567L36.7676 66.0944L36.5488 68.7207L36.7676 69.8149L35.6734 70.0338L35.2356 71.1281L34.3602 72.8789L32.8282 74.6297H30.8586L28.8889 74.4109L23.6364 70.4715L24.9495 68.9395L26.7003 66.9698L28.0134 66.0944L29.5454 64.3436L30.6397 63.687L31.2963 62.8116L32.6094 62.3739V61.9362L34.1414 61.7173H34.5791L37.643 60.623Z" fill="#F3B84A"/>
<path d="M68.5016 60.4038L71.3467 60.6227L74.4106 62.1546L76.818 64.562L77.9123 64.9998L79.0066 64.7809L80.3197 65.6563L79.4443 65.8752L78.1312 66.094L77.6935 66.3129L77.4746 66.9694V68.5014L79.0066 71.5654L80.7574 73.9728L80.9763 74.4105L79.882 74.1917L77.2558 75.9425L74.1918 78.131H73.7541L72.2221 76.3802L70.0336 74.6294L69.5958 73.9728V73.3162L70.4713 72.4408L70.909 70.4711L72.0032 69.3768V67.1883L71.3467 65.8752L71.5655 65.2186L72.8787 64.7809L73.3164 63.6866L70.6901 62.3735H68.9393L66.313 63.6866L63.9056 65.4375L63.6868 64.7809L64.5622 63.2489L65.6565 61.9358L67.6262 60.6227L68.5016 60.4038Z" fill="#F7CE69"/>
<path d="M60.6228 56.6841L63.9056 57.3406L66.5319 58.4349L66.7507 58.8726L64.3433 60.1858H63.4679V60.6235L61.4982 61.7177L60.1851 61.9366V62.3743L59.0908 62.5932V63.0309L57.9965 63.6874H57.34V64.1251H56.6834V64.5628H56.0269V65.0006H55.3703V65.4383H54.7137V65.876L53.6195 65.6571V65.2194L52.5252 65.0006V64.5628H51.8686V64.1251L50.7743 63.9063V63.4686L49.6801 63.2497L48.5858 62.5932V62.1554L47.4915 61.9366V61.4989L46.1784 61.0612L44.2087 60.1858L42.239 59.0915L42.4579 58.2161L45.7407 57.1218L47.7104 56.9029L51.2121 58.2161L52.0875 58.4349H56.2457L58.872 57.5595L60.6228 56.6841Z" fill="#D38522"/>
<path d="M13.3503 88.1982L14.0069 88.4171L15.5388 90.6056L19.0405 94.3262L19.9159 95.6393L20.7913 96.2959L20.5725 97.1713L17.7274 100.454L15.32 103.299L13.5691 105.707L12.256 108.114H11.8183L11.5995 108.552L11.1617 107.676V100.016L11.8183 93.4508L12.6937 89.0737L13.3503 88.1982Z" fill="#D58723"/>
<path d="M35.2357 82.7266H37.4242L38.0808 83.3831V84.4774L37.8619 84.6963L35.2357 85.134L33.266 85.7905V86.2282L32.1717 86.8848L30.6397 87.5414L28.2323 90.1676L27.3569 91.4807L25.8249 92.7939L25.3872 93.6693L24.2929 94.7636L23.1986 96.0767L22.9798 96.9521L25.1683 98.9218L26.4815 100.673L28.8889 102.861L30.202 104.612L33.266 107.895L34.5791 108.989V109.427L31.5151 108.77L31.2963 107.895L29.3266 105.706L27.138 103.518L25.606 101.767L23.4175 99.5784L21.8855 97.8275L20.7912 98.9218L18.6027 101.329L16.633 103.955L14.4445 106.582L12.9125 108.551L11.8182 110.083L11.3805 110.74V108.333L12.2559 108.114L12.6936 106.801L14.0067 104.831L15.7576 102.642L20.5724 96.9521L20.3535 96.0767L19.2593 94.9824L17.7273 93.2316L14.8822 90.1676L13.7879 88.4168H13.3502L12.9125 88.8545L13.3502 86.6659H13.569V87.7602L14.4445 88.1979L18.8216 92.575L20.1347 93.6693L21.4478 95.2013L22.3232 94.9824L23.1986 93.8881L23.8552 92.7939L24.7306 92.1373L25.3872 91.043L30.4208 86.0094L30.6397 85.3528L31.5151 84.9151L31.9528 84.2585H32.3905L32.6094 83.602L35.2357 82.7266Z" fill="#AA5C15"/>
<path d="M94.9829 87.9795L95.4207 88.8549L96.2961 93.232V94.764L95.4207 95.6394V97.6091L96.2961 98.4845L96.9526 98.9222V107.895L96.5149 108.114V107.676H96.0772V107.02H95.6395V106.363L94.9829 106.144V105.488L94.3264 105.269L94.1075 104.612L93.6698 104.394L93.451 103.737L92.5755 102.862V102.205L91.7001 101.767L91.4813 100.892L90.6059 100.454L90.387 99.7976L89.7304 99.1411V98.7034L89.0739 98.4845V97.828L88.1985 97.3902L87.7607 96.9525L87.9796 96.0771L89.0739 95.2017L89.9493 93.8886L91.0436 93.0131L91.919 91.7L92.3567 91.4812L93.0133 90.3869L93.451 90.168L93.6698 89.5115H94.1075L94.3264 88.6361H94.7641L94.9829 87.9795Z" fill="#F0AB32"/>
<path d="M53.4005 33.7036H53.6194V40.4881L54.0571 51.212L54.2759 54.0571L56.4645 53.8382L61.2793 51.4308L62.1547 51.6497V50.3366H62.3736V52.0874L61.717 54.0571L60.8416 55.3702L57.9965 56.6834L55.5891 57.3399H52.5251L49.4611 56.4645L47.0537 55.3702L45.9595 53.4005L45.7406 52.5251V50.3366L46.8349 50.5554L48.5857 51.6497L50.3365 52.5251L51.212 53.4005L53.1817 53.8382L52.7439 48.8046V39.8315L53.1817 34.3602L53.4005 33.7036Z" fill="#6C8C32"/>
<path d="M79.882 30.8589L80.5386 31.0777L78.1312 33.2663L75.9426 35.0171L72.6598 38.2999L70.6901 40.7073L68.9393 42.8959L67.6262 45.0844L73.0975 42.8959L74.6295 42.4582H75.9426L75.2861 44.6467L75.9426 44.8656L72.2221 45.9599L68.7204 47.4918L66.313 49.2427L63.9056 51.2124H63.6868L63.4679 45.741L62.8114 41.8016L62.3737 39.6131L63.2491 38.7377V39.1754H63.9056V38.7377H64.3433L65.4376 42.2393L66.0942 44.4279H66.5319L66.9696 43.3336L70.0336 39.1754L74.6295 34.5794L77.6935 32.172L79.882 30.8589Z" fill="#6D8C32"/>
<path d="M73.0973 17.29V17.9466L70.2522 21.4483L68.0637 24.7311L65.6563 28.8893L64.562 31.2967L65.4374 30.859L68.9391 28.4516L71.3465 26.9196H71.7842V28.4516H72.2219V29.5459L68.0637 32.391L66.094 33.923L62.5923 37.4247L62.1546 38.0812H61.7169L60.4038 34.3607L58.6529 30.4213L58.4341 29.327L59.7472 26.9196L60.1849 27.1385L60.8415 26.9196L62.3735 29.9836L62.8112 31.0779L63.2489 31.2967L63.6866 29.9836L66.094 25.6065L68.9391 21.6671L71.3465 18.822L73.0973 17.29Z" fill="#6D8B32"/>
<path d="M74.1917 57.3403L75.286 57.5592V57.9969H75.9426V58.4346L77.0368 58.8723L77.9123 59.31V59.7477L79.6631 60.6232L83.6025 64.5625L84.0402 64.7814V65.2191H84.4779L84.6968 65.8757L85.791 66.9699L86.6665 68.0642V68.5019L87.323 68.7208L87.7607 69.815H87.1042L87.5419 70.9093L88.855 72.4413L89.2927 73.7544L88.1984 73.3167L86.2287 71.347L84.6968 70.9093L82.7271 68.0642L80.7574 66.3134L80.3197 66.0945V65.6568L78.5688 64.7814L78.35 65.2191L77.2557 65.0002L73.754 61.9363L71.3466 60.842L67.6261 60.6232L68.0638 60.1854L71.1278 59.9666L72.4409 59.5289L72.8786 58.8723H73.3163L73.5352 57.9969L74.1917 57.778V57.3403Z" fill="#EFAB33"/>
<path d="M96.2959 112.71L96.5148 113.367L94.7639 123.434L92.5754 129.781H91.9188L91.7 130.219L90.8245 129.781L88.8548 130.438L88.4171 131.313H87.5417L86.6663 130.657L86.4474 130L85.7909 129.343L85.572 128.468H86.0097L86.2286 127.593H86.6663L86.8851 126.717H87.3229L87.5417 125.842H87.9794L88.1983 124.966H88.636L88.8548 123.872L89.7303 123.434V122.778L90.168 122.559L90.3868 121.902H90.8245V121.246H91.2622L91.4811 120.37L92.1377 119.276H92.5754V118.62H93.0131V117.963H93.4508L93.8885 116.65H94.3262L94.5451 115.556L94.9828 114.68H95.4205L95.8582 113.586L96.2959 112.71Z" fill="#EEA930"/>
<path d="M31.9528 17.0708L33.047 17.5085L36.3299 20.5725L38.5184 22.9799L40.7069 25.825L43.5521 30.4209L44.8652 33.0472L45.7406 30.8586L47.0537 27.1381L47.4914 26.9193H48.148L49.0234 27.7947L49.68 28.889L49.4611 29.9832L47.4914 34.1415L45.9595 38.5186L45.3029 38.2997L43.7709 36.5489L42.6766 35.4546L40.7069 33.7038L36.111 30.6398L35.6733 30.2021L35.8921 29.7644V28.2324L37.4241 28.889L40.4881 30.8586L43.5521 33.0472L41.8012 29.7644L40.0504 27.1381L37.8618 24.0741L35.0167 20.5725L33.047 18.3839L31.9528 17.0708Z" fill="#6D8B32"/>
<path d="M54.0573 130.875L54.9327 131.312L55.1515 131.75L56.2458 132.406L57.1212 133.282L58.8721 134.814L61.7172 137.221V137.659L62.5926 137.878V138.534L61.936 139.191V139.41L60.4041 139.191L59.3098 138.753L53.6196 138.534L52.0876 138.097V137.659L50.3367 138.097L47.0539 139.629H46.6162L47.0539 138.534L49.0236 136.784L49.2425 135.689L51.431 133.501L52.3064 132.406L53.1819 132.188L53.6196 131.312L54.0573 130.875Z" fill="#EFAA31"/>
<path d="M29.3264 33.4849L30.4207 33.9226L33.2658 36.1111L35.8921 38.5185L37.2052 39.6128L38.7372 41.3636L41.3634 44.6465L41.8011 45.303L42.2388 43.771L42.8954 40.4882L43.3331 39.8316L44.4274 40.0505L45.084 40.4882L45.3028 40.0505L45.084 42.0202L44.4274 46.3973L44.2085 50.9932L43.3331 50.5555L41.5823 49.0235L38.2995 47.0539L34.5789 45.5219L33.4847 45.303L33.7035 44.8653L33.0469 42.6768L34.5789 42.8956L38.0806 44.4276L40.2691 45.5219L38.5183 43.1145L35.6732 40.0505L34.1412 38.2997L31.515 35.6734L29.7641 34.1414L29.3264 33.4849Z" fill="#6D8C32"/>
<path d="M75.5049 148.603H76.1614V152.323L75.9426 153.636H75.7237V150.572L75.0672 151.229H74.6295V151.667L72.4409 152.98L70.0335 154.293L69.377 155.606L68.9392 158.67V161.953L70.0335 163.047L72.6598 164.141L72.8786 164.579L71.7844 164.798L73.754 165.017V164.579L73.3163 164.36L73.754 164.141L75.7237 164.36L76.5992 164.798L73.9729 165.235H71.5655L68.7204 164.579L66.9696 163.485L66.7507 163.047L66.5318 155.168L66.313 151.01L70.6901 150.135L75.0672 148.821L75.5049 148.603Z" fill="#C16D1C"/>
<path d="M29.1078 108.771H32.8284L35.0169 109.646L36.1112 110.741V112.929L35.2358 114.024L33.0472 115.118L31.9529 115.337H28.889L26.4816 114.461L25.1684 113.367L24.9496 112.929V111.397L26.4816 109.646L28.0135 108.99L29.1078 108.771Z" fill="#EE9968"/>
<path d="M22.1043 71.3472L22.7609 72.0037L20.7912 74.8488L19.9158 75.2866L18.8215 76.8185V78.1317L19.2592 78.3505L18.3838 78.1317V77.2562L17.9461 78.1317V78.7882L19.478 78.5694L18.8215 82.071L18.6026 83.8219L17.9461 91.7007L16.4141 90.3875L14.0067 87.9801L13.569 87.7613V85.7916L15.3198 80.5391L17.5084 75.2866L18.6026 73.9734L20.1346 73.098L22.1043 71.3472Z" fill="#D48623"/>
<path d="M54.9326 8.53516L55.1515 9.41057L54.4949 17.7271V21.6664L56.9023 23.4173L57.7777 23.1984L59.5285 20.3533L59.9663 19.6967L60.6228 19.9156L61.0605 20.5722L61.4982 20.3533L61.9359 21.6664L60.1851 24.0738L58.2154 27.3567L57.7777 28.0132H57.34L55.1515 24.5115L54.276 23.6361L53.4006 23.855L51.8686 26.0435L50.7744 27.7944L50.1178 27.5755L48.1481 24.5115L47.0538 23.1984L47.2727 21.0099L47.7104 18.8213L48.1481 19.6967L49.6801 21.8853L50.7744 23.4173L51.2121 23.6361L51.6498 22.7607L52.7441 21.8853L53.1818 21.6664L53.8383 14.2254L54.276 11.1614L54.9326 8.53516Z" fill="#6E8B31"/>
<path d="M32.1716 148.603L33.2658 148.821L38.2995 150.353L41.8012 151.01L42.2389 151.229L41.8012 157.357V162.828L40.7069 164.141L38.0806 165.017L36.5487 165.235H34.1413L31.7339 164.798L31.2961 164.36L35.8921 164.141L38.5183 163.266L39.6126 162.828L39.8315 161.734V158.451L39.1749 154.949L38.2995 154.074L34.7978 152.323L33.047 151.229L32.8281 150.791L33.047 154.949H32.8281L32.3904 152.542L32.1716 148.603Z" fill="#C16D1B"/>
<path d="M78.7878 65.6567L80.7575 66.0944L82.9461 68.0641L84.9158 70.9092L86.01 73.3167V75.7241L85.1346 76.5995H83.3838L81.4141 75.0675L79.6633 72.8789L77.9124 70.0338L77.2559 68.5018V66.9699L77.6936 66.0944L78.7878 65.6567Z" fill="#FAFBFB"/>
<path d="M33.4848 57.3403L34.3602 57.778L35.6733 59.31H40.707L42.8955 60.4043V60.6232H39.6127L36.7676 61.0609L34.3602 62.1551L33.0471 61.9363H32.6094L32.8282 61.2797L31.7339 61.7174L30.202 62.8117L29.5454 63.0306L28.67 64.1248L26.9191 65.6568L24.7306 67.6265L22.7609 69.3773L21.8855 69.1585L21.6666 68.2831L23.6363 65.6568L26.0437 63.0306L27.7946 61.2797L31.0774 58.8723L33.4848 57.3403Z" fill="#D38522"/>
<path d="M60.6226 59.5288H63.9055V60.1854H63.4677V60.6231L61.498 61.7174L60.1849 61.9362V62.3739L59.0906 62.5928V63.0305L57.9964 63.687H57.3398V64.1248H56.6832V64.5625H56.0267V65.0002H55.3701V65.4379H54.7136V65.8756L53.6193 65.6567V65.219L52.525 65.0002V64.5625H51.8684V64.1248L50.7742 63.9059V63.4682L49.6799 63.2493L48.5856 62.5928V62.1551L47.4914 61.9362V61.4985L46.1782 61.0608L44.6462 60.4042V59.9665L45.0839 59.7477H47.2725L52.0873 61.0608H56.0267L60.6226 59.5288Z" fill="#EFAA30"/>
<path d="M20.1347 28.0132H25.1684L28.4512 28.6697L31.9529 29.9829L35.6734 31.7337L39.1751 34.1411L42.0202 36.5485L43.5522 37.8616L44.2087 38.7371V39.1748L43.3333 38.7371L40.2694 36.3297L37.862 34.5788L34.1414 32.3903L29.7643 30.6394L26.2627 29.764L22.9798 29.3263L25.6061 31.7337L28.0135 34.36L30.202 37.4239L32.1717 40.9256L32.6094 41.801L32.3906 42.6764L31.2963 42.2387L30.4209 40.4879L29.3266 38.7371L28.0135 36.7674V36.3297H27.5758L26.2627 34.36L23.6364 31.5149L21.4479 29.5452L19.697 28.4509L20.1347 28.0132Z" fill="#BDDB73"/>
<path d="M79.4443 108.333L81.8517 108.552L83.6025 109.427L84.2591 110.084L84.4779 111.397L83.8214 112.71L82.0705 114.023L80.5386 114.461H77.2557L75.286 113.804L74.4106 112.71L74.1918 112.272V110.959L75.286 109.865L75.9426 109.427V109.865L77.0369 109.646L77.9123 109.208H78.7877V108.771L78.1312 108.99L77.9123 108.552L79.4443 108.333Z" fill="#EE9968"/>
<path d="M23.1987 12.0371H27.7947L31.5152 12.9125L35.0169 14.4445L38.2997 16.4142L40.4882 18.165L42.6768 20.1347L44.2088 21.4479L45.0842 22.761L45.9596 23.6364V24.0741L46.6162 24.293L47.0539 24.9495L46.835 25.825L44.8653 23.6364L42.8956 21.6667L40.4882 19.697L38.0808 17.9462L34.3603 15.7576L31.0775 14.4445L28.0135 13.5691H27.357L29.9832 16.1953L31.5152 18.3839L33.266 21.229L35.2357 26.4815L35.4546 28.0135L34.798 27.7946L33.9226 25.825L32.8283 23.1987L31.7341 20.7913L30.4209 18.8216V18.3839H29.9832L29.1078 17.0708L26.2627 14.2257L25.3873 13.7879V13.3502L24.293 12.9125L23.1987 12.0371Z" fill="#BCDA72"/>
<path d="M53.6194 99.7983H55.1514L57.5588 100.674L59.7474 102.206L62.5925 104.832L64.1245 106.364L65.6564 108.553V108.99L64.781 108.771L62.5925 106.802L59.7474 104.613L57.1211 103.081L55.3703 102.425H53.4006L51.212 103.3L48.8046 104.832L45.0841 107.677L43.5521 108.553L43.9898 107.458L45.5218 105.489L47.9292 103.081L51.212 100.674L53.6194 99.7983Z" fill="#F8CF6A"/>
<path d="M83.1648 27.1382H88.1984L87.1041 28.2325L84.6967 30.421L83.8213 31.7341L82.7271 32.8284L80.9762 35.017L80.1008 36.7678L78.7877 38.5186L77.2557 42.0203L76.3803 42.458L76.5991 40.7072L78.5688 36.9866L80.7574 33.7038L82.5082 31.5153L84.4779 29.3267L84.6967 28.6702L80.5385 29.3267L75.286 31.0776L70.69 33.485L67.4072 35.6735L64.9998 37.6432H64.3433L64.9998 36.5489L66.7507 35.017L69.5958 32.8284L72.6597 30.6399L76.3803 29.1079L77.0368 28.6702L78.7877 28.4513V28.0136L83.1648 27.1382Z" fill="#BEDB73"/>
<path d="M25.1683 48.8042H27.5757L31.0774 49.6796L33.266 50.555L35.6734 51.8682L37.6431 53.4001L38.5185 54.0567H40.4882L42.239 53.1813L42.6767 52.7436L43.771 52.5247L45.7407 55.151L45.9595 55.8075L38.7373 58.2149L37.8619 57.9961L38.2996 57.7772L35.2356 54.4944L34.7979 53.8379L35.4545 53.4001L33.266 51.8682L30.8586 50.7739L25.1683 49.0231V48.8042Z" fill="#6C8C32"/>
<path d="M80.7574 48.3667H81.8517V48.8044L77.2558 50.5552L74.4107 52.0872L71.7844 53.8381L71.1278 54.0569V54.4946L72.2221 55.1512L71.3467 56.6832L70.4713 57.9963H72.0033V58.2152H70.0336L67.4073 57.5586L63.2491 56.0266L62.3737 55.8078L62.5925 54.7135L64.5622 52.0872L64.7811 52.5249L66.0942 52.7438L67.845 53.8381L69.8147 54.0569L72.0033 52.0872L75.0672 50.3364L78.7878 48.8044L80.7574 48.3667Z" fill="#6D8C32"/>
<path d="M80.3196 10.0679H80.7573L80.5384 10.9433L79.2253 12.6941L77.9122 15.1015L75.7236 19.0409L73.5351 24.5123L73.0974 25.8254H72.6596L72.4408 26.482H72.2219V24.95L73.7539 20.354L75.7236 16.1958L77.6933 12.913V12.4753L73.5351 14.6638L69.3768 17.5089L67.1883 19.4786L65.4374 21.0106L63.2489 23.1992L61.9358 24.7311L61.7169 23.8557L63.03 22.1049H63.4678L63.9055 21.2295L66.3129 18.6032L68.7203 16.1958L72.0031 13.7884L75.5048 11.8187L78.7876 10.5056L80.3196 10.0679Z" fill="#BEDB73"/>
<path d="M73.5352 63.9062L74.6295 64.344L75.9426 65.4382L76.1615 66.3137L75.286 67.1891L74.8483 68.2833H74.4106L73.9729 69.3776L73.7541 73.9736V74.849L75.9426 75.2867L76.5992 76.381L74.1918 78.1318H73.7541L72.2221 76.381L70.0335 74.6301L69.5958 73.9736V73.317L70.4712 72.4416L70.909 70.4719L72.0032 69.3776V67.1891L71.3467 65.8759L71.5655 65.2194L72.8786 64.7817L73.5352 63.9062Z" fill="#F3B94B"/>
<path d="M53.8382 70.2529L56.0268 70.4718L58.653 71.5661L60.8416 73.098L63.0301 75.0677L64.5621 76.8186V77.4751L63.4678 77.0374L61.2793 75.5054L57.5587 73.5357L56.2456 73.098H53.1816L50.5554 73.9735L47.4914 75.5054L44.4275 77.4751H43.9897L44.4275 76.3809L46.8349 73.9735L49.68 72.0038L52.3062 70.6906L53.8382 70.2529Z" fill="#F8CF6A"/>
<path d="M59.0906 105.27L60.1848 105.488L59.966 107.02L58.8717 108.771L57.5586 109.209L57.3397 109.865L55.37 110.084L56.2455 111.835V114.461H55.8078L55.5889 115.337H53.4004L52.3061 114.243V112.273H52.7438L52.9626 110.741L53.4004 110.084L51.4307 108.99L50.3364 107.896L49.8987 107.239V105.926L50.993 105.707L51.2118 106.802H51.6495L51.8684 107.239L53.1815 107.896V108.333H55.5889L57.1209 107.677L58.2152 106.802L58.6529 105.488L59.0906 105.27Z" fill="#581F0D"/>
<path d="M77.4745 45.7407H83.1647L86.4475 46.6161L89.0738 48.1481L90.1681 49.0235V49.4613L85.791 49.899L82.2893 50.7744L78.1311 52.7441L76.5991 53.4006L75.2859 54.0572V53.1818L76.8179 51.8687L80.3196 50.1178L83.6024 49.0235L86.8852 48.367L84.0401 47.2727L80.7573 46.835H78.1311L74.6294 47.4916L70.69 48.8047L68.7203 49.899L68.2826 49.6801L69.3769 48.5858L71.1277 47.4916L74.1917 46.3973L77.4745 45.7407Z" fill="#BAD870"/>
<path d="M53.8383 25.3872L54.4949 25.6061L55.808 27.5758L57.5588 31.0774L57.9965 32.6094H58.4343L59.9662 36.5488L60.6228 38.5185L61.0605 40.0505L61.4982 41.1447L61.7171 42.6767V44.6464L61.2794 43.9899L60.1851 40.0505L57.5588 34.3602L54.276 27.7946L53.6195 28.0135L50.9932 32.1717L48.3669 37.8619L47.0538 41.5825H46.835V39.8316L48.3669 35.2357L51.4309 29.1077L53.1817 26.2626L53.8383 25.3872Z" fill="#BEDB73"/>
<path d="M32.3906 61.0605L33.0471 61.2794L32.6094 62.3737L31.0774 63.2491L29.9832 64.3434L28.4512 65.6565L27.5758 66.7508L26.4815 67.4073L24.9495 69.1582L23.8552 70.4713L27.3569 73.0976L30.202 75.0672L29.7643 75.2861L28.67 74.8484L29.1078 75.7238L28.2323 75.2861L24.5118 72.6598L22.9798 71.5656L22.5421 71.1279L19.9159 73.5353L18.6027 74.1918L17.9462 74.8484L18.3839 73.5353L20.1347 70.4713L21.4478 68.5016L22.1044 69.1582L22.9798 68.9393L25.1684 66.9696L28.2323 64.1245L29.3266 63.0302L31.734 61.4983L32.3906 61.0605Z" fill="#AC5F15"/>
<path d="M70.909 85.7915H73.0976L74.8484 86.6669L77.4746 89.0743L79.2255 91.2629L79.882 93.0137L78.7878 92.576L75.9427 90.3875L73.5353 88.8555L72.2221 88.4178H70.4713L67.4073 89.2932L63.4679 91.4817L62.5925 91.2629L63.4679 90.1686L67.4073 87.5423L70.909 85.7915Z" fill="#F8CF6A"/>
<path d="M35.6733 85.7915H37.643L40.2693 86.8858L43.7709 89.0743L45.5218 90.3875L46.3972 91.4817L45.9595 91.9194L40.707 89.0743L38.5184 88.4178H36.7676L34.7979 89.0743L31.2962 91.4817L29.5454 92.7949H29.1077L29.3265 91.9194L31.0774 89.2932L32.8282 87.5423L35.2356 86.0104L35.6733 85.7915Z" fill="#F8CF6A"/>
<path d="M70.2524 118.401H72.2221L74.4106 119.714L76.5992 121.903L77.4746 123.653L77.6935 124.748L76.3803 123.872L74.1918 122.121L72.0032 121.246H70.0336L67.4073 122.559L64.781 124.529L62.5925 126.499H62.1548L62.5925 125.404L64.5622 122.778L67.1884 120.152L69.5958 118.62L70.2524 118.401Z" fill="#F8CF6A"/>
<path d="M36.5487 118.401H38.7372L41.3635 119.933L44.6463 123.216L46.1783 125.404L46.3971 126.499L44.6463 125.185L42.6766 123.435L39.8315 121.684L38.7372 121.246H36.7675L34.579 122.121L31.515 124.31L31.2961 123.435L32.6093 121.465L34.1413 119.933L36.5487 118.401Z" fill="#F8CF6A"/>
<path d="M72.8787 137.003H76.3803L75.0672 138.535L70.6901 142.912L69.8147 142.693L67.4073 140.505L65.2188 138.754V138.535L69.377 137.878L72.8787 137.003Z" fill="#D68723"/>
<path d="M84.2591 130L85.1345 130.218L86.2288 131.094L86.8854 132.188V133.939L86.4476 134.377L84.478 135.033L81.6328 136.784L78.1312 139.41H77.4746L77.9123 138.316L78.7877 137.222L79.4443 135.471L80.9763 133.72L82.0706 132.626L83.6025 130.656H84.0402L84.2591 130Z" fill="#F3B747"/>
<path d="M86.0097 101.111H87.9794L89.7302 102.643L91.6999 105.05L93.2319 107.676V108.552L92.3565 108.114L89.9491 105.707L87.5417 104.394H85.7908L83.6023 105.707L82.508 106.582H82.0703L82.2892 105.269L83.8211 102.862L85.572 101.33L86.0097 101.111Z" fill="#F8CF6A"/>
<path d="M37.6431 60.623H39.6127V60.8419L36.3299 61.4985L33.7037 63.0304L30.4208 66.3133L29.7643 67.4075L28.0134 68.9395H27.5757L27.138 70.2527L26.7003 71.7846L25.8249 72.2223L23.6364 70.4715L24.9495 68.9395L26.7003 66.9698L28.0134 66.0944L29.5454 64.3436L30.6397 63.687L31.2963 62.8116L32.6094 62.3739V61.9362L34.1414 61.7173H34.5791L37.6431 60.623Z" fill="#F0AB31"/>
<path d="M56.4644 1.96924H57.121L57.7775 6.56519L59.7472 15.1005L60.1849 17.5079L59.9661 18.3833L58.2152 14.0062L56.6833 8.09717L56.2456 5.90862V4.59549L55.1513 5.68977L53.6193 7.65946L51.6496 10.9423L50.1176 13.5685L49.6799 14.444H49.4611L49.6799 12.912L50.7742 10.7234L51.4308 9.19144L53.4004 5.90862L55.3701 3.50122L56.4644 1.96924Z" fill="#BAD56E"/>
<path d="M74.8483 60.623L75.9425 60.8419L78.5688 62.5927L81.8516 65.4378L84.0402 67.4075L85.791 68.9395H86.4476H86.8853L87.1041 68.5018L87.7607 69.3772L87.5418 69.8149H87.1041L87.5418 70.9092L88.855 72.4412L89.2927 73.7543L88.1984 73.3166L86.2287 71.3469L84.6967 70.9092L82.727 68.0641L80.7573 66.3133L80.3196 66.0944V65.6567L79.4442 65.219L78.7877 64.7813V64.3436L77.9122 63.9059L77.4745 63.2493L76.3802 62.5927L74.8483 60.8419V60.623Z" fill="#CC7C23"/>
<path d="M71.5656 93.0137H73.0976L74.1918 93.8891L74.8484 95.4211V98.0473L74.1918 99.1416L73.7541 99.5793H72.2222L71.1279 98.485L70.4713 96.9531V94.5457L71.3467 93.2325L71.5656 93.0137Z" fill="#F8F8F9"/>
<path d="M38.0808 93.2324H39.394L40.7071 94.3267L41.1448 95.421V98.4849L40.2694 99.5792L38.7374 99.7981L37.4243 98.7038L36.7677 96.953V95.2021L37.6431 93.4513L38.0808 93.2324Z" fill="#F8F9F9"/>
<path d="M39.6127 60.623H41.1447L42.8955 61.9362L44.4275 63.687L45.0841 64.7813L44.8652 65.6567L42.0201 63.4682L40.2693 62.5927L38.0807 62.3739L35.6733 63.2493L30.8585 66.751L30.6396 66.3133L31.5151 65.0001L33.7036 62.8116L36.3299 61.2796L39.6127 60.623Z" fill="#F8CF6A"/>
<path d="M79.0064 85.7915L80.3196 86.2292V86.6669L81.195 87.1046L82.0704 88.1989L82.727 88.6366V89.2932H83.1647L83.8212 90.3875L84.6967 91.4817L86.4475 92.3571H87.9795L89.7303 91.7006L90.6057 91.9194L89.0737 93.4514L87.7606 94.5457L87.3229 95.2023L86.2286 94.9834L84.9155 93.4514L83.8212 92.1383L83.3835 91.9194L82.9458 91.044L80.7573 88.8555L79.0064 86.8858L78.5687 86.0104L79.0064 85.7915Z" fill="#EFA930"/>
<path d="M52.5251 109.427L53.6194 109.646H56.4645L57.5588 109.427L57.3399 109.865L55.3702 110.084L56.2457 111.835V114.461H55.8079L55.5891 115.336H53.4005L52.3063 114.242V112.272H52.744L52.9628 110.74L53.4005 110.084L52.5251 109.646V109.427Z" fill="#AA5D15"/>
<path d="M53.8383 134.596L56.0269 134.815L59.0908 136.565L60.8417 138.097V138.754L59.5285 138.535L56.9023 137.222L55.5892 136.784H52.9629L50.1178 137.879L49.0235 138.097L48.5858 137.66L50.7744 135.909L52.9629 134.815L53.8383 134.596Z" fill="#F8CF6A"/>
<path d="M21.0101 101.111H22.9798L25.1684 103.299L26.4815 105.488L26.7004 106.801L25.3872 106.144L23.4176 104.613L22.761 104.394H20.3536L19.697 102.643L19.9159 101.767L21.0101 101.111Z" fill="#F8CF6A"/>
<path d="M98.7034 115.774L100.235 117.087L100.892 117.744L102.862 120.589L105.05 124.747L106.363 128.249L107.02 131.531V132.845L106.582 132.626L105.269 128.249L102.862 123.215L102.205 122.121V121.464H101.767L99.7976 118.181L98.9222 116.868L98.7034 115.774Z" fill="#F6C961"/>
<path d="M21.01 74.8481H22.542L24.5117 75.5047L27.3568 77.9121L28.0134 79.0064L26.7003 78.7875L25.606 78.131L24.074 77.6933H19.9158V75.5047L21.01 74.8481Z" fill="#F8CF6A"/>
<path d="M52.963 136.565H55.5893L58.4344 137.66L60.1852 138.535L60.8418 138.754L61.0606 138.097L61.4983 138.973L60.4041 139.192L59.3098 138.754L53.6196 138.535L52.0876 138.097V137.66L50.3367 138.097L47.0539 139.629H46.6162L47.0539 138.535L48.8048 137.003L49.4613 137.222L48.8048 137.66L49.6802 137.879L52.0876 136.784L52.963 136.565Z" fill="#F1AE35"/>
<path d="M8.7542 116.649L8.97306 117.087L7.87878 119.713H7.44108L7.22222 120.808H6.78451L6.56566 121.902L5.69024 123.215L3.72055 127.154L2.18856 131.532L1.75085 131.969V130.218L2.40742 126.936H2.84513L3.06398 125.841L5.47138 120.808L7.44108 117.963L8.7542 116.649Z" fill="#F6CB64"/>
<path d="M71.1276 82.7266H73.7539L75.7236 83.602L77.4744 85.134L77.6933 86.6659L77.4744 86.8848H76.3801L75.9424 86.0094L74.8481 85.7905L73.7539 85.134L70.6899 84.6963L70.2522 84.2585L70.4711 83.1643L71.1276 82.7266Z" fill="#531B0D"/>
<path d="M35.2355 82.7266H37.424L38.0806 83.3831V84.4774L37.8617 84.6963L35.2355 85.134L33.2658 85.7905V86.2282L32.1715 86.8848L31.2961 87.1037L30.8584 86.6659L31.0773 85.134L31.9527 84.2585H32.3904L32.6092 83.602L35.2355 82.7266Z" fill="#531C0D"/>
<path d="M82.0706 129.781L82.2894 130.437L80.7574 132.188L78.7877 134.377L77.6935 135.69L76.818 135.909L75.9426 135.471L76.1615 133.939L78.7877 131.094L80.3197 130L82.0706 129.781Z" fill="#F3B94B"/>
<path d="M24.9494 45.9595H29.7642L33.2659 46.3972L35.6733 47.0537L39.3938 49.0234V49.68L38.0807 49.2423L35.0167 48.148L31.9527 47.2726L28.8888 46.8349L23.8551 47.0537L21.4477 47.7103L20.7911 47.4915L23.8551 46.1783L24.9494 45.9595Z" fill="#BBD66F"/>
<path d="M20.7911 48.8042H22.7608L26.2625 49.6796L28.6699 50.555L31.7339 52.087L32.3904 52.5247V53.619L30.8584 53.4001L30.4207 53.1813V52.7436L29.1076 52.3059L26.2625 51.2116L24.7305 50.555L21.2288 49.6796L20.5723 49.4608L20.7911 48.8042Z" fill="#B8D56D"/>
<path d="M74.4106 57.5596L75.9426 57.9973V58.435L77.0369 58.8727L77.9123 59.3104V59.7481L79.6632 60.6235L83.6025 64.5629L84.0402 64.7818V65.2195H84.478L84.6968 65.876L85.7911 66.9703L86.8854 68.5023V68.94L86.0099 69.3777L85.1345 67.6269L83.8214 66.5326L82.2894 64.7818L80.3197 62.8121V62.3744L79.4443 61.9367L76.818 59.7481L74.4106 57.9973V57.5596Z" fill="#F7CC68"/>
<path d="M84.2592 130L85.1346 130.218L86.2289 131.094L86.8855 132.188V133.939L86.4478 134.377L85.5724 134.158L86.2289 133.72L86.0101 132.845H84.2592L82.0707 134.377L79.4444 136.784L79.0067 137.222L79.2256 135.69L80.101 134.595L81.8518 133.063L83.165 131.313L83.6027 130.656H84.0404L84.2592 130Z" fill="#EFAB32"/>
<path d="M53.8383 78.1313H55.1514L55.5891 78.7879V79.8822H56.0268V81.8519L55.1514 82.9462H53.4006L52.5251 81.8519V79.8822H52.9629L53.1817 78.7879L53.8383 78.1313Z" fill="#AC5E15"/>
<path d="M76.1614 105.926H76.818L76.3803 107.02L74.8483 108.552L73.3163 110.303L72.2221 111.397L71.3466 111.178L70.2524 110.303L70.0335 109.646L68.2827 108.114L67.845 107.239L68.5015 107.02L70.0335 108.333L70.6901 108.552H73.3163L75.0672 107.677L75.9426 106.145L76.1614 105.926Z" fill="#E7A02C"/>
<path d="M70.2524 65.438L71.3466 65.6568L72.0032 66.5323L72.222 67.1888V69.3774L71.3466 70.2528H70.0335L69.1581 69.1585V66.97L69.8146 65.8757L70.2524 65.438Z" fill="#C8741E"/>
<path d="M37.424 65.438H38.5183L39.3937 66.5323V68.9397L38.7371 70.2528H37.424L36.5486 69.3774L36.3297 67.4077L37.2051 65.6568L37.424 65.438Z" fill="#C7741E"/>
<path d="M21.8853 79.8823H22.9796L23.855 80.9766L24.0739 81.852V83.384L23.4173 84.4783H21.4476L21.0099 83.1651V81.6332L21.4476 80.32L21.8853 79.8823Z" fill="#A85B14"/>
<path d="M70.9088 127.155H72.0031L72.4408 128.03H72.8785V130.438L72.222 131.751L70.4711 131.532L69.8146 130.875L70.0334 128.03L70.9088 127.155Z" fill="#A95C14"/>
<path d="M36.5488 127.155H37.643L38.5185 128.03L38.7373 129.124V131.094L37.8619 131.751H36.5488L35.6733 130.656V128.906L36.5488 127.155Z" fill="#A85B14"/>
<path d="M24.0741 133.064L25.3873 133.283L27.357 134.815L30.6398 138.098L31.5152 139.411L31.2964 139.848L30.6398 139.411V138.973L29.7644 138.535L27.357 136.566L23.4176 134.377L23.1987 133.721L24.0741 133.064Z" fill="#F1AC31"/>
<path d="M94.9829 87.9795L95.4206 88.8549L96.296 93.232V94.764L95.6395 94.9828L95.4206 93.0131L93.6698 93.8886L92.3566 94.764H91.7001L92.1378 93.4509L94.1075 91.2623L94.5452 90.8246V88.6361L94.9829 87.9795Z" fill="#F8CF6A"/>
<path d="M21.4478 109.208L22.5421 109.427L23.1986 110.522L23.4175 111.178V112.71L22.7609 113.804L21.6666 114.023L20.5724 112.929L20.3535 111.178L21.0101 109.646L21.4478 109.208Z" fill="#A75A14"/>
<path d="M9.41087 130.657L9.62973 131.314L9.84858 132.846V134.815L8.97316 135.91L7.87889 136.129L6.78462 137.223L5.9092 137.661H3.72065L3.06409 137.004H4.37721L6.78462 135.472H7.22232V135.034H7.66003L8.09774 133.721L8.75431 132.408L9.41087 130.657Z" fill="#BD6A1A"/>
<path d="M86.0098 109.208H87.5418L87.7607 110.522H88.1984V112.929L87.3229 113.804H86.0098L85.3533 112.929L85.1344 111.397L86.0098 109.208Z" fill="#A95C14"/>
<path d="M83.1648 67.1885L85.3533 68.5016L86.2288 69.1582L86.8853 68.9393L87.1042 68.5016L87.7607 69.377L87.5419 69.8147H87.1042L87.5419 70.909L88.855 72.441L89.2927 73.7541L88.1985 73.3164L86.2288 71.3467L84.9156 70.909L84.6968 69.8147L84.0402 69.377L83.1648 67.845V67.1885Z" fill="#C8741E"/>
<path d="M53.8382 140.942H54.9324L55.589 141.818L55.8079 142.474V144.225L54.9324 145.101H53.6193L52.7439 144.006L52.9628 142.037L53.4005 141.161L53.8382 140.942Z" fill="#A75A14"/>
<path d="M79.8819 73.9731L80.9762 74.4109L80.1007 75.2863L77.6933 77.256L74.8482 79.4445L74.4105 79.2257L74.6294 78.5691L73.3162 79.2257L72.8785 79.0068L76.5991 76.1617L79.8819 73.9731Z" fill="#D78924"/>
<path d="M95.6395 89.73L96.0772 90.6054L96.9526 96.0768L97.3903 101.986V105.05L97.1715 107.676H96.9526L96.7338 98.9219L95.4206 98.0465L95.2018 97.6087V95.6391L96.0772 94.7636L95.8583 91.9185L95.6395 89.73Z" fill="#C97A1F"/>
<path d="M74.8482 79.2256L75.0671 79.6633H75.5048L76.1614 82.0707L76.8179 82.9461V83.3838H77.2556L77.4745 84.697L77.2556 85.1347L75.7237 83.8215L75.5048 82.9461L74.6294 82.7273L72.8785 80.9764L73.0974 80.3199H73.5351V79.8821L74.8482 79.2256Z" fill="#EAA42E"/>
<path d="M9.84851 122.996L11.3805 123.872H12.0371L12.2559 123.215L12.6936 124.747L12.4748 125.841L10.7239 128.686L10.2862 127.811L10.5051 127.373L9.84851 124.309V122.996Z" fill="#C16D1B"/>
<path d="M86.0099 79.8823H86.2288L86.4476 81.852L87.1042 82.7274L87.7607 82.9463L87.5419 84.2594L86.8853 84.6971H85.7911L84.6968 83.384V81.852L85.3533 80.5389L86.0099 79.8823Z" fill="#D78E29"/>
<path d="M86.6665 79.4448L88.1985 79.6637L88.855 80.758V82.5088L88.1985 83.1654L86.8853 82.7276L86.2288 81.8522V79.8825L86.6665 79.4448Z" fill="#FAFBFB"/>
<path d="M84.9155 70.9097L86.4475 71.3474L88.4172 73.3171L88.8549 73.5359L89.5115 75.2868L88.1983 74.8491L86.4475 74.6302L86.2287 74.4113V73.3171H85.7909L84.9155 71.3474V70.9097Z" fill="#F3BA4D"/>
<path d="M10.5052 115.774H10.724L11.3806 119.713L11.1617 120.589L10.2863 121.683L9.8486 122.121L9.62974 121.902L9.41089 119.932V117.306L9.8486 116.43L10.5052 116.649V115.774Z" fill="#C16D1B"/>
<path d="M97.6091 116.431L98.0468 117.306L98.9222 117.525V121.464L98.4845 121.683L97.6091 121.464L96.9525 120.808L97.3902 117.963L97.6091 116.431Z" fill="#C16D1C"/>
<path d="M11.8182 93.4512H12.0371V94.7643L12.9125 94.9832L13.569 96.2963L13.3502 98.0471L12.6936 98.7037H11.3805L11.5993 95.202L11.8182 93.4512Z" fill="#BB691A"/>
<path d="M97.3902 123.872L98.4845 124.309L98.2657 126.498L98.0468 127.154H97.3902L97.1714 127.811L95.6394 125.622L95.8583 124.309L96.296 124.966L97.3902 123.872Z" fill="#C16D1B"/>
<path d="M24.9493 71.5659L25.8247 72.0036L29.9829 74.8487L30.2018 75.2864L28.6698 74.8487L29.1075 75.7242L28.2321 75.2864L24.5116 72.6602L24.2927 72.2225L25.6059 72.6602L24.9493 71.5659Z" fill="#CC7A1F"/>
<path d="M80.5384 63.0308L82.0704 64.3439L83.8212 66.0947L84.6967 67.189L85.7909 68.2833L85.3532 68.721L82.727 66.3136L80.3196 64.3439L80.1007 63.4685H80.5384V63.0308Z" fill="#F3B94A"/>
<path d="M94.5451 119.057H95.4205L94.9828 121.246L92.7943 122.997H92.3566L92.5754 121.683L94.3263 119.276L94.5451 119.057Z" fill="#F8CF6A"/>
<path d="M83.3837 138.316L84.478 138.535L84.9157 139.192L84.6968 140.286L82.7272 141.599L82.5083 141.38V139.63L83.3837 138.316Z" fill="#A75A14"/>
<path d="M96.515 110.741L96.7338 111.617V113.805L95.4207 121.027L94.983 121.684L95.2019 119.714L96.2961 113.149L95.6396 113.805L95.4207 113.367L94.5453 114.024L94.983 112.93L96.515 110.741Z" fill="#C5741D"/>
<path d="M75.0671 62.1548L75.9425 62.5925L76.1614 62.1548L76.8179 62.8113L77.6934 63.2491L78.7876 64.3433L78.3499 65.2188L77.2557 64.9999L75.5048 63.4679L74.6294 62.3736L75.0671 62.1548Z" fill="#F0AE37"/>
<path d="M75.7238 150.791H75.9427L75.7238 153.636L74.6296 158.013L73.973 159.764L73.7542 159.107L74.8484 153.417L75.2861 151.228L75.7238 150.791Z" fill="#F7CD68"/>
<path d="M74.8483 60.623L75.9425 60.8419L78.5688 62.5927L79.2254 63.4682V63.9059L78.5688 64.1247L77.4745 63.2493L76.3802 62.5927L74.8483 60.8419V60.623Z" fill="#CD7B20"/>
<path d="M98.047 128.905L98.7036 129.124L100.017 133.501V134.158L99.3601 134.595V135.471L100.673 135.69L100.454 136.127L99.1413 135.69L98.7036 134.814V132.845L98.9224 131.532L98.047 129.343V128.905Z" fill="#BA6819"/>
<path d="M18.6027 94.5454H19.2592L19.9158 95.6397L20.7912 96.2962L20.5724 97.1717L19.6969 98.2659L19.0404 98.0471L18.8215 96.9528L18.6027 96.0774V94.5454Z" fill="#EDA72F"/>
<path d="M67.626 59.3096H72.6597L72.4408 59.7473L71.1277 60.185L67.8448 60.4038L66.9694 60.185L65.2186 61.0604L64.7809 60.8416L67.626 59.3096Z" fill="#D08121"/>
<path d="M84.0403 132.845H84.6968V133.721H84.2591V134.158L81.414 135.909H80.7574L81.1952 135.034L83.1648 133.283L84.0403 132.845Z" fill="#F8CF6A"/>
<path d="M19.6969 101.548L20.1346 101.767L19.9158 102.643L20.3535 104.393L21.0101 104.612L19.6969 105.269H19.0404L18.6027 102.861L19.6969 101.548Z" fill="#F3B849"/>
<path d="M35.2354 103.08L36.3297 103.299L36.5485 103.737V105.05L36.1108 105.487L34.7977 105.269L34.5789 105.05V103.518L35.2354 103.08Z" fill="#F6F6F7"/>
<path d="M12.9125 118.401H13.3502V118.839L14.4445 119.276L14.6633 120.371L14.8822 121.903L13.7879 121.684L13.1313 120.589L12.9125 118.401Z" fill="#F6C860"/>
<path d="M43.1143 93.8887H44.2086L43.9897 94.7641L43.1143 94.9829L43.9897 97.8281V104.175H43.552V98.2658L42.6766 95.2018L42.4578 94.3264H42.8955L43.1143 93.8887Z" fill="#BA6B1A"/>
<path d="M92.7943 85.354L93.4508 85.5729L94.1074 87.5426V88.1991L92.5754 89.2934L92.7943 87.1048H92.3566V85.7917L92.7943 85.354Z" fill="#F1AD33"/>
<path d="M37.424 140.724H38.5183V141.161L39.6125 141.599L38.5183 142.693H37.6428L36.3297 141.161L37.424 140.724Z" fill="#C6711D"/>
<path d="M96.0773 98.7041L96.9527 98.923V105.707L96.515 104.832L96.0773 98.7041Z" fill="#F7CE69"/>
<path d="M21.8856 79.8823H22.9799L23.8553 80.9766L24.0741 81.852V83.384L23.6364 83.8217V81.852L22.5421 81.6332L22.3233 80.9766H21.4479V80.32L21.8856 79.8823Z" fill="#CA771F"/>
<path d="M90.6058 79.2256L91.2624 79.4444L91.7001 80.3199L91.4812 82.0707L90.3869 82.5084L90.1681 82.2896V80.7576L90.6058 79.2256Z" fill="#E59E2D"/>
<path d="M68.7203 103.08H69.8146L70.2523 103.518V104.831L69.8146 105.269L68.7203 105.05L68.2826 104.612V103.518L68.7203 103.08Z" fill="#F3F3F3"/>
<path d="M48.8048 137.003L49.4613 137.222L48.8048 137.659L49.6802 137.878L50.9933 137.441L50.3367 138.097L47.0539 139.629H46.6162L47.0539 138.535L48.8048 137.003Z" fill="#F2B542"/>
<path d="M32.6093 151.228L33.047 151.447L34.3601 157.575V158.888L33.9224 158.231L32.8281 153.635L32.6093 151.228Z" fill="#F7CC67"/>
<path d="M75.9425 77.0376L76.5991 77.2565L75.9425 78.5696L74.8482 79.445L74.4105 79.2261L74.6294 78.5696L73.3162 79.2261L72.8785 79.0073L75.0671 77.2565L75.9425 77.0376Z" fill="#C9761E"/>
<path d="M80.9764 133.721L81.1953 134.158L82.0707 133.94L81.633 134.815L79.4444 136.785L79.0067 137.222L79.2256 135.69L80.101 134.596L80.9764 133.721Z" fill="#EDA831"/>
<path d="M33.047 161.296H34.3601L33.9224 162.171L32.6093 163.047L31.2961 163.266L31.515 162.39L32.3904 161.952V161.515L33.047 161.296Z" fill="#F2C461"/>
<path d="M12.6936 94.9829L13.3501 95.6395L13.569 97.3903L12.9124 98.4846H12.2558L12.037 97.828L12.6936 94.9829Z" fill="#A75A14"/>
<path d="M94.5452 85.354L94.9829 86.0106L95.6395 88.6368V89.7311L95.2018 88.8557L94.9829 88.1991L94.7641 88.6368H94.3263L94.1075 89.0745V88.6368L92.3567 90.1688L91.9189 90.3877L92.3567 89.5122L93.6698 88.1991H94.1075V87.7614L94.7641 87.1048L94.5452 85.354Z" fill="#C97A1F"/>
<path d="M87.5418 72.6602L88.8549 73.5356L89.5115 75.2864L88.1984 74.8487L86.8853 74.1921V73.5356H87.323L87.5418 72.6602Z" fill="#F2B13A"/>
<path d="M101.986 136.346L103.737 136.565L104.175 136.784V137.222L105.05 137.44L104.394 137.659H102.643L101.33 137.003L101.986 136.346Z" fill="#BC6A1A"/>
<path d="M20.3535 74.8481L21.0101 75.067L20.1346 75.5047L19.9158 77.6933L20.3535 77.9121L18.8215 78.131L18.6027 76.599H19.0404L19.4781 75.7236L20.3535 74.8481Z" fill="#F3B94A"/>
<path d="M73.7539 164.141L75.7236 164.359L76.599 164.797L73.9727 165.235H71.5653L70.2522 165.016V164.797L73.7539 165.016V164.578L73.3162 164.359L73.7539 164.141Z" fill="#B46418"/>
<path d="M52.5251 109.427L53.6194 109.646H56.4645L57.5588 109.427L57.3399 109.865L55.3703 110.084L55.5891 110.959L54.7137 110.74L52.9629 111.178L53.4006 110.084L52.5251 109.646V109.427Z" fill="#C06F1C"/>
<path d="M24.2928 138.316L25.3871 138.535L26.0437 139.848L25.8248 140.724L24.074 139.411L24.2928 138.316Z" fill="#A75A14"/>
<path d="M77.0369 63.4688L78.1312 63.9065L78.7878 64.3442L78.35 65.2196L77.2558 65.0007L76.1615 63.9065L77.0369 63.4688Z" fill="#F3B94A"/>
<path d="M71.3466 81.6328L72.4408 81.8517L72.8785 82.5082L71.1277 82.9459L70.4711 83.3836L70.69 84.6968L70.0334 84.4779L69.8146 82.9459L70.9088 82.0705H71.3466V81.6328Z" fill="#D58A25"/>
<path d="M76.1616 105.926H76.8181L76.3804 107.02L74.8484 108.552L73.7542 109.865V109.209L74.1919 108.771L73.7542 108.333L75.0673 107.677L75.9427 106.145L76.1616 105.926Z" fill="#D38724"/>
<path d="M21.01 69.5967L21.6666 70.2532L19.6969 72.6606H19.2592L19.478 71.5664L20.5723 69.8155L21.01 69.5967Z" fill="#CB7C20"/>
<path d="M81.4138 131.313V131.97L80.7573 132.845L80.9761 133.721H80.5384L80.3196 134.159L79.0064 134.596L78.5687 134.815L79.0064 133.94L81.4138 131.313Z" fill="#CB791F"/>
<path d="M76.8179 62.1548L78.3499 62.3736L79.2253 63.4679V63.9056L78.5687 64.1245L76.8179 62.5925V62.1548Z" fill="#AD5F16"/>
<path d="M74.6294 161.296L75.7237 161.515L76.8179 162.39L77.0368 163.266L75.9425 162.828L74.6294 161.734V161.296Z" fill="#F8CF6A"/>
<path d="M38.7372 66.313L39.3938 67.1884V68.9392L38.7372 70.0335L37.8618 69.8147H38.2995L38.5184 68.9392L38.7372 67.4073V66.313Z" fill="#A75A14"/>
<path d="M76.8179 42.02L77.0367 42.4577L75.9425 44.6463H75.2859L75.9425 42.6766L76.8179 42.02Z" fill="#8FB54B"/>
<path d="M82.5083 67.626L83.3837 67.8448L84.0403 68.7202V69.3768L84.9157 69.8145L85.1346 70.4711L84.6968 70.9088L82.7272 68.0637L82.5083 67.626Z" fill="#DE9A3B"/>
<path d="M48.148 111.835L49.0235 112.054L49.2423 112.93L48.8046 113.367L47.9292 113.149L47.7103 112.273L48.148 111.835Z" fill="#D38422"/>
<path d="M11.5992 110.741L12.4747 111.617L13.1312 112.492L12.9124 113.805L12.4747 113.367L12.037 112.273L11.5992 113.149V110.741Z" fill="#BB691A"/>
<path d="M23.8551 138.973L25.6059 140.286L26.0436 141.162L25.1682 140.943L23.8551 140.067V138.973Z" fill="#C5701D"/>
<path d="M83.1648 67.1885L84.6968 68.2827V68.7205H85.1345V69.1582H84.0402L82.9459 67.4073L83.1648 67.1885Z" fill="#A75A14"/>
<path d="M16.8517 105.708L17.946 105.926L17.5083 106.802L16.414 107.677H15.7574L15.9763 107.24L16.414 106.583L16.8517 105.708Z" fill="#EEA82F"/>
<path d="M37.6429 60.623H39.6126V60.8419L36.3298 61.4985L34.7978 62.3739H34.3601L34.579 61.7173L37.6429 60.623Z" fill="#F2B542"/>
<path d="M29.764 145.101L31.7337 145.32L33.0469 146.633L31.9526 146.414L29.764 145.32V145.101Z" fill="#F7CE69"/>
<path d="M80.3196 131.751H80.7573L80.3196 132.626L79.4442 133.721L78.7876 133.502L79.4442 132.189L80.3196 131.751Z" fill="#F7CC67"/>
<path d="M11.8182 108.114L12.2559 108.333L12.4748 109.209L11.8182 110.084L11.3805 110.741V108.333L11.8182 108.114Z" fill="#BC691A"/>
<path d="M43.1143 93.8887H44.2086L43.9897 94.7641L43.1143 94.9829L42.8955 95.4207L42.4578 94.3264H42.8955L43.1143 93.8887Z" fill="#D28322"/>
<path d="M10.0674 114.899H10.5051L10.2863 115.555L8.75431 116.869L7.66003 117.744L8.09774 116.869L9.62973 115.118L10.0674 114.899Z" fill="#BF701B"/>
<path d="M59.9662 111.835H60.8416L61.0604 112.711L60.8416 113.149L59.7473 112.93L59.9662 111.835Z" fill="#D28222"/>
<path d="M77.0369 108.771H78.7877V109.209L77.0369 109.865L76.3803 110.084L75.9426 109.865V109.428L77.0369 108.99V108.771Z" fill="#D78926"/>
<path d="M68.2827 107.02L70.0335 108.333L69.5958 108.552L69.1581 108.333L68.9392 108.771L67.845 107.677L68.0638 107.239L68.2827 107.02Z" fill="#CB7D20"/>
<path d="M32.6094 40.4883L33.7036 40.7071V41.8014L32.6094 41.5826L32.3905 40.7071L32.6094 40.4883Z" fill="#6C8D33"/>
<path d="M20.1346 136.565L21.0101 137.003L22.3232 138.754L22.1043 139.192L20.5724 137.441L20.1346 136.565Z" fill="#F8CF6A"/>
<path d="M77.9123 96.9521L79.0066 97.171L78.7878 98.0464H77.9123L77.6935 97.171L77.9123 96.9521Z" fill="#D78924"/>
<path d="M36.5488 81.6328L37.4242 82.0705L38.5185 82.9459L35.6733 82.5082L36.5488 81.6328Z" fill="#E8A02C"/>
<path d="M14.6631 91.9194L15.5385 92.3571L15.9762 93.2326L14.8819 93.4514L14.4442 92.3571L14.6631 91.9194Z" fill="#F1AC31"/>
<path d="M60.4038 80.3198L61.2792 80.7575L61.0603 81.633L59.9661 81.4141L60.1849 80.5387L60.4038 80.3198Z" fill="#D78924"/>
<path d="M74.8484 70.0342L75.5049 70.253V71.3473L74.8484 71.5662L74.4106 71.3473V70.253L74.8484 70.0342Z" fill="#D78924"/>
<path d="M65.6565 128.03L66.7508 128.249L66.5319 129.125L65.4376 128.906L65.6565 128.03Z" fill="#D78924"/>
<path d="M30.2017 96.7334L30.8583 96.9523V98.0465L29.764 97.8277V96.9523L30.2017 96.7334Z" fill="#D78924"/>
<path d="M23.6363 85.1348L24.5118 85.3536L24.2929 86.4479L23.4175 86.229L23.6363 85.1348Z" fill="#D78924"/>
<path d="M87.9796 71.5659L88.855 72.4413L89.2927 73.7545L88.1985 73.3168L87.9796 72.2225V71.5659Z" fill="#D78924"/>
<path d="M86.8854 68.5015L87.7608 69.3769L87.542 69.8146H87.1043L86.6666 70.2523L86.01 69.3769L86.8854 68.9392V68.5015Z" fill="#CF8121"/>
<path d="M29.7643 61.936L30.6397 62.1549L30.202 62.8115L29.5454 63.0303L29.1077 63.6869L28.4512 63.468L29.7643 61.936Z" fill="#EDA62F"/>
</svg>
